<svg xmlns="http://www.w3.org/2000/svg" width="106.282" height="98" viewBox="0 0 106.282 98"><defs><style>.a{fill:#fff;fill-rule:evenodd;}</style></defs><path class="a" d="M451.086,142.759q-13.992,5.838-27.99,11.67c-9.346,3.883-18.729,7.68-28.031,11.659a8.634,8.634,0,0,1-7.464.109c-9.492-4.123-19.017-8.19-28.685-11.878-5.229-1.994-8.47-5.16-8.49-10.809-.02-6.442-1.8-12.434-3.362-18.6-1.4-5.537-.977-11.431,2.979-16.4.6-.761.547-2.126.619-3.221.265-4.117.23-8.268.749-12.35.386-3.057,2.443-5.056,5.448-6.1C373.686,81,390.49,75.079,407.331,69.268a5.774,5.774,0,0,1,3.578.02c13.183,4.776,26.331,9.657,39.482,14.525a3.9,3.9,0,0,1,.821.562c-4.895,3.492-4.912,3.494-4.886,9.806.014,3.941-1.2,8.611,6.289,8.752-1.948.931-2.823,1.322-3.676,1.76-2.008,1.031-5.4,1.76-5.73,3.189-.838,3.6-.377,7.533-.207,11.322.023.57,1.21,1.25,1.985,1.593,1.988.876,4.045,1.587,6.084,2.371-.132.36-.173.694-.285.72-3.768.9-5.226,3.209-4.56,7.038a14.045,14.045,0,0,1,.009,4.14C445.742,138.864,446.572,141.687,451.086,142.759ZM356.395,95.426c0,3.287.156,6.033-.046,8.752-.17,2.333.694,3.546,2.861,4.379,10.08,3.889,20.088,7.96,30.186,11.8a6.767,6.767,0,0,0,4.54.006c15.335-6.243,30.606-12.624,45.878-19.017.9-.377,2.3-1.1,2.342-1.737.233-3.443.109-6.908.109-10.777-1.919.674-3.117,1.043-4.278,1.51-14.393,5.8-28.8,11.564-43.152,17.464a7.486,7.486,0,0,1-6.2.006c-9.265-3.762-18.6-7.343-27.924-10.965C359.475,96.365,358.19,96.011,356.395,95.426Zm-.536,40.176c0,3.258.086,5.632-.026,8-.1,2.074.876,3.08,2.731,3.8,10.287,3.993,20.52,8.124,30.831,12.056a6.363,6.363,0,0,0,4.261-.06q23.007-9.343,45.907-18.947c.873-.366,2.175-1.155,2.215-1.812.219-3.6.1-7.219.1-11.319-1.616.6-2.771,1.008-3.912,1.461-13.8,5.433-27.746,10.521-41.317,16.47-6.338,2.777-11.676,2.924-17.861-.17C371.736,141.549,364.2,138.991,355.859,135.6Zm82.689-26.334c-1.8.642-2.878.971-3.912,1.4-14.108,5.88-28.227,11.74-42.3,17.7a7.633,7.633,0,0,1-6.5.167c-9.648-4.027-19.4-7.8-29.126-11.642-1.121-.444-2.285-.769-4.223-1.409a77.4,77.4,0,0,0,.118,9.441,5.025,5.025,0,0,0,2.5,3.463c10.2,4.2,20.474,8.208,30.776,12.149a5.858,5.858,0,0,0,3.918.112q23.318-9.464,46.517-19.218a3.942,3.942,0,0,0,2.129-2.607C438.721,115.886,438.548,112.9,438.548,109.269Z" transform="translate(-346.334 -68.994)"/></svg>