<svg xmlns="http://www.w3.org/2000/svg" width="26.127" height="23.537" viewBox="0 0 26.127 23.537"><defs><style>.a{fill:#fff;}</style></defs><g transform="translate(0 -23.794)"><g transform="translate(16.114 30.788)"><g transform="translate(0 0)"><circle class="a" cx="0.653" cy="0.653" r="0.653"/></g></g><g transform="translate(16.114 28.176)"><circle class="a" cx="0.653" cy="0.653" r="0.653"/></g><g transform="translate(17.856 31.659)"><circle class="a" cx="0.653" cy="0.653" r="0.653"/></g><g transform="translate(17.856 29.047)"><g transform="translate(0 0)"><circle class="a" cx="0.653" cy="0.653" r="0.653"/></g></g><g transform="translate(19.162 30.353)"><g transform="translate(0 0)"><circle class="a" cx="0.653" cy="0.653" r="0.653"/></g></g><g transform="translate(0 26.87)"><g transform="translate(0 0)"><path class="a" d="M26.07,90.768a1.737,1.737,0,0,0-3.364.006h-1.48a8.231,8.231,0,0,0,.112-1.306.435.435,0,0,0-.435-.435H13.5v-7.4a.435.435,0,0,0-.435-.435,8.24,8.24,0,0,0-5.752,2.339L5.539,81.76a.435.435,0,0,0-.308-.128h-1.8a1.741,1.741,0,1,0,0,.871H5.051l1.67,1.67a8.263,8.263,0,0,0,9.467,12.95l.924.924a.435.435,0,0,0,.308.128h3.109a1.741,1.741,0,1,0,0-.871H17.6l-.576-.576a8.3,8.3,0,0,0,4.013-5.084h1.668a1.738,1.738,0,0,0,3.364-.877ZM1.748,82.938a.871.871,0,1,1,.871-.871A.871.871,0,0,1,1.748,82.938Zm20.46,13.93a.871.871,0,1,1-.871.871A.871.871,0,0,1,22.209,96.869ZM11.928,82.155l-3,3-1-1A7.379,7.379,0,0,1,11.928,82.155ZM7.341,84.793l.975.975L5.764,88.32A7.36,7.36,0,0,1,7.341,84.793ZM5.675,89.64l6.957-6.957v1.381L5.807,90.889A7.416,7.416,0,0,1,5.675,89.64Zm.394,2.218L12.632,85.3v1.381L6.481,92.827A7.391,7.391,0,0,1,6.07,91.857Zm1.474,2.519a7.448,7.448,0,0,1-.609-.773l5.7-5.7v1.381Zm8.832,1.7-.827-.827a.435.435,0,0,0-.616.616l.575.575a7.326,7.326,0,0,1-7.352-1.453L13.1,90.049l5.5,4.323A7.446,7.446,0,0,1,16.375,96.081Zm3.971-5.307H19.162a.435.435,0,0,0,0,.871h.97a7.365,7.365,0,0,1-.993,2.04L14.326,89.9h6.129A7.436,7.436,0,0,1,20.346,90.774Zm4.039,1.306a.871.871,0,1,1,.871-.871A.871.871,0,0,1,24.385,92.08Z" transform="translate(0 -80.326)"/></g></g><g transform="translate(14.373 23.794)"><g transform="translate(0 0)"><path class="a" d="M273.337,24.056a1.757,1.757,0,0,0-2.418,2.418.425.425,0,0,0-.135.09l-1.172,1.171A8.218,8.218,0,0,0,264.562,26a.435.435,0,0,0-.435.435v7.836a.435.435,0,0,0,.435.435H272.4a.435.435,0,0,0,.435-.435,8.242,8.242,0,0,0-2.559-5.967l1.125-1.125a.425.425,0,0,0,.09-.134,1.757,1.757,0,1,0,1.848-2.988Zm-1.387,9.779H265V26.883A7.412,7.412,0,0,1,271.95,33.836Zm.448-7.4a.871.871,0,1,1,.871-.871A.871.871,0,0,1,272.4,26.435Z" transform="translate(-264.127 -23.794)"/></g></g><g transform="translate(0.878 42.977)"><g transform="translate(0 0)"><path class="a" d="M20.481,376.334H16.563a.435.435,0,1,0,0,.871h3.918a.435.435,0,1,0,0-.871Z" transform="translate(-16.128 -376.334)"/></g></g><g transform="translate(0.878 44.719)"><path class="a" d="M20.481,408.334H16.563a.435.435,0,0,0,0,.871h3.918a.435.435,0,0,0,0-.871Z" transform="translate(-16.128 -408.334)"/></g><g transform="translate(0.878 46.46)"><path class="a" d="M20.481,440.334H16.563a.435.435,0,0,0,0,.871h3.918a.435.435,0,0,0,0-.871Z" transform="translate(-16.128 -440.334)"/></g></g></svg>