<svg xmlns="http://www.w3.org/2000/svg" width="49.034" height="53.352" viewBox="0 0 49.034 53.352"><defs><style>.a{fill:#fff;}.b{fill:#dd290f;}</style></defs><path class="a" d="M31.651,39.92h-8.8l.062-.123L9.623,52.925l6.186-23.37H0L14.892,0H38.261L26.576,16.724h19.7l-6.835,6.75h4.7l-6.5,9.307H48.607l-20.4,20.144Z"/><path class="b" d="M5.781,30.3a.429.429,0,0,1-.413-.536L8.668,17.3H.426a.427.427,0,0,1-.38-.619L8.332.235A.423.423,0,0,1,8.713,0h13a.427.427,0,0,1,.35.671L16.034,9.307H26.179a.428.428,0,0,1,.3.731L6.081,30.181A.434.434,0,0,1,5.781,30.3ZM8.976.854h0L1.12,16.446h8.1a.428.428,0,0,1,.413.536L6.594,28.475,25.14,10.161H15.215a.427.427,0,0,1-.35-.671L20.9.854Z" transform="translate(22.428 23.047)"/></svg>