<svg xmlns="http://www.w3.org/2000/svg" width="40.556" height="53.351" viewBox="0 0 40.556 53.351"><defs><style>.a{fill:#fff;}</style></defs><path class="a" d="M324.307,2161.714a1.694,1.694,0,0,0-1.694,1.694v23.581a1.694,1.694,0,0,0,3.387,0v-23.581a1.694,1.694,0,0,0-1.693-1.694Z" transform="translate(-304.029 -2135.331)"/><path class="a" d="M17.52,27.109a5.079,5.079,0,0,0-9.974,0H0C.237,14.846,5.3,5.29,11.479.37a1.69,1.69,0,0,1,2.111,0c6.177,4.922,11.241,14.472,11.479,26.739Z" transform="translate(7.744)"/><path class="a" d="M329.216,2165.723v12.037h3.738a1.693,1.693,0,0,0,1.606-1.156,41.647,41.647,0,0,0,2.047-10.881Z" transform="translate(-303.858 -2135.227)"/><path class="a" d="M319.5,2165.723h-7.392a41.645,41.645,0,0,0,2.047,10.881,1.693,1.693,0,0,0,1.606,1.156H319.5Z" transform="translate(-304.302 -2135.227)"/><path class="a" d="M315.959,2181.177a5.074,5.074,0,0,1-4.819-3.471c-1.243-3.726-2.326-13.123-2.326-13.123a11.3,11.3,0,0,0-3.093,13.984l3.828,7.554a1.694,1.694,0,0,0,2.461.636,12.248,12.248,0,0,0,4.5-5.58Z" transform="translate(-304.5 -2135.257)"/><path class="a" d="M340.02,2164.583s-1.083,9.4-2.326,13.123a5.075,5.075,0,0,1-4.819,3.472h-.551a12.25,12.25,0,0,0,4.5,5.58,1.693,1.693,0,0,0,2.461-.636l3.828-7.554A11.3,11.3,0,0,0,340.02,2164.583Z" transform="translate(-303.777 -2135.257)"/></svg>