<svg xmlns="http://www.w3.org/2000/svg" xmlns:xlink="http://www.w3.org/1999/xlink" width="156.068" height="539.986" viewBox="0 0 156.068 539.986"><defs><style>.a{fill:#00caf2;}.b{fill:#19090a;}.c{fill:#936050;}.d{fill:#05afc6;}.e{fill:#3f301d;}.f{fill:#e28430;}.g{fill:#273016;}.h{fill:#f29132;}.i{clip-path:url(#a);}.j{fill:#a56b56;}.k,.l,.m{fill:none;stroke-miterlimit:10;}.k{stroke:#19090a;}.l{stroke:#704940;}.m{stroke:#8c2a1e;}.n{fill:#fff;}.o{fill-rule:evenodd;fill:url(#b);}</style><clipPath id="a"><path class="a" d="M1550.858,206.743c19.308,34.543,9.625,80.762,12.583,118.7,1.418,18.187,4.744,36.221,5.142,54.484a2.38,2.38,0,0,1-2.149,2.89c-30.665,9.652-63.4,9.887-95.549,9.461a4.59,4.59,0,0,1-2.623-.566c-1.208-.848-1.306-2.57-1.286-4.046.281-20.538-1.98-41.22.612-61.954,1.278-10.315,2.135-20.721,2.742-31.146a219.477,219.477,0,0,0,.4-24.386c-.382-7.2-2.306-13.418-3.573-20.382-1.271-7-.35-14.672-.3-21.762.069-9.98.561-25.353,10.322-31.052,9.527-5.561,20.348-9.969,31.309-11.548,11.444-1.648,22.963,5.326,32.578,10.782A26.629,26.629,0,0,1,1550.858,206.743Z"/></clipPath><linearGradient id="b" x1="-0.112" y1="13.081" x2="-0.112" y2="14.003" gradientUnits="objectBoundingBox"><stop offset="0.349" stop-color="#26479c"/><stop offset="0.903" stop-color="#00caf2"/></linearGradient></defs><g transform="translate(-1435.548 -87.152)"><path class="b" d="M1555.306,114.364a96.641,96.641,0,0,0,2.621,14.961c1.546,5.93,2.12,9.217.751,14.85-2.689,11.044-9.706,10.068-9.706,10.068S1537.95,119.521,1555.306,114.364Z"/><path class="b" d="M1555.283,116.865a22.619,22.619,0,0,1,.532,3.923c-7.12,18.19-39.882,51.485-52.519,60.8s-19.767-10.383-18.194-15.545c3.5-11.489-3.46-13.564-6.964-28.412a32.033,32.033,0,0,1,9.288-29.746.008.008,0,0,1,.005-.007A36.538,36.538,0,0,1,1508.1,95.25c13.747-3.011,24.538-12.333,35.721-5.858C1553.7,95.106,1559.806,105.421,1555.283,116.865Z"/><path class="c" d="M1578.468,313.756a8.058,8.058,0,0,1-.7,4.317,5.306,5.306,0,0,1-5.761,2.073,11.55,11.55,0,0,1-5.424-3.521c-6.054-6.277-9.005-14.874-11.23-23.3a202.683,202.683,0,0,1-5.818-32.715c-.618-6.566-.9-13.269.634-19.681.662-2.758,1.835-5.653,4.294-7.066,16.96-9.749,21.942,49.812,22.648,57.277Q1578.177,302.418,1578.468,313.756Z"/><path class="d" d="M1575.424,251.251q.267,1.272.529,2.541-13.228,3.348-26.232,7.513c-1.733-5.172-2.656-11.26-5.392-15.922-2.548-4.341-3.683-10.1-5.006-15.064-1.487-5.579-2.986-11.252-2.806-16.979.263-8.445,3.691-13.443,8.937-12.994,2.446.21,5.287,1.6,8.389,4.384a53.157,53.157,0,0,1,15.049,22.129C1571.854,234.756,1573.7,243.008,1575.424,251.251Z"/><path class="c" d="M1589.8,396.377c1.158,2.31,2.137,4.778,1.712,7.286a12.27,12.27,0,0,1-1.284,3.432,57.425,57.425,0,0,1-6.971,10.652,3.457,3.457,0,0,1-1.487,1.216c-1.206.389-2.487-.66-2.843-1.876-.866-2.956,1.285-5.936,1.03-8.885a22.621,22.621,0,0,0-3.628-10.121,29.059,29.059,0,0,0-.336,8.02,3.5,3.5,0,0,1-.064,1.52,1.107,1.107,0,0,1-1.166.784,1.531,1.531,0,0,1-.777-.576c-3.085-3.632-4.147-8.581-4.347-13.341-.166-3.95.519-8.024.114-11.949-.289-2.794-1.322-4.82-1-7.8a1.622,1.622,0,0,1,.386-1.046,1.684,1.684,0,0,1,.991-.33l5.227-.575a3.258,3.258,0,0,1,4.195,2.914c2.473,7.178,6.114,12.784,9.644,19.508C1589.4,395.6,1589.6,395.984,1589.8,396.377Z"/><path class="c" d="M1563.743,305.943c4.366-1.134,10.047-.569,13.2,4.568,3.491,5.682,3.031,13.083,3.79,19.441,2.222,18.6.985,38.3,1.412,57.062a13.138,13.138,0,0,1-.757,5.84c-3.229,6.984-9.363.589-10.165-4.275-1.862-11.274-6.77-21.611-8.887-32.7-2.252-11.786-4-23.66-5.755-35.528C1555.371,312.139,1557.141,307.658,1563.743,305.943Z"/><path class="e" d="M1555.761,616.818c2.248,2.391,2.973,5.642,2.513,9.152a1.031,1.031,0,0,1-.331.74,1.105,1.105,0,0,1-.652.135c-2.84-.006-5.587.293-8.4.293l-32.883-.949a3.379,3.379,0,0,1-1.448-.258,3.227,3.227,0,0,1-1.189-1.232c-3.3-5.27-.751-11.349-.76-17l-.023-14a.941.941,0,0,1,1.068-1.154,97.138,97.138,0,0,1,14.743-.2c-1.294,4.417-2.672,11.685.978,15.324,3.343,3.334,9.032,4.089,13.49,4.607,3.553.413,7.214.842,10.34,2.58A10.49,10.49,0,0,1,1555.761,616.818Z"/><path class="e" d="M1519.24,616.818c2.248,2.391,2.974,5.642,2.515,9.152a1.035,1.035,0,0,1-.332.74,1.107,1.107,0,0,1-.652.135c-2.84-.006-5.586.293-8.4.293l-32.883-.949a3.379,3.379,0,0,1-1.448-.258,3.218,3.218,0,0,1-1.188-1.232c-3.3-5.27-.751-11.349-.76-17l-.023-14a.941.941,0,0,1,1.068-1.154,97.125,97.125,0,0,1,14.742-.2c-1.294,4.417-2.672,11.685.978,15.324,3.343,3.334,9.034,4.089,13.491,4.607,3.553.413,7.214.842,10.34,2.58A10.508,10.508,0,0,1,1519.24,616.818Z"/><path class="f" d="M1556.425,496.318c4.9-26.5,6.593-53.485,6.687-80.4.048-13.483-.308-26.965-.861-40.437-.543-13.274-1.151-27.6,1.411-40.66a1.582,1.582,0,0,0-1.477-2.229c-9.892-2.67-21.245-8.114-31.364-8.936-10.41-.848-15.9,10.218-18.85,18.5-7.234,20.311-3.972,45.07.437,65.666,3.825,17.868,7.676,35.861,8.466,54.172.812,18.808-1.3,37.7-2.82,56.42-2.32,28.629-11.728,85.265-11.728,85.265l25.273-1.867s7.807-30.058,8.748-33.281C1547.235,544.909,1551.936,520.571,1556.425,496.318Z"/><path class="g" d="M1500.892,239.8c-10.245-11.764-37.157-12.52-46.338.965a30.128,30.128,0,0,0-3.661,8.963,268.511,268.511,0,0,0-9.72,84.593c.274,6.054.777,12.208,3.008,17.844s6.442,10.759,12.167,12.75c6.569,2.284,14.087.032,19.51-4.322s9.066-10.532,12.026-16.826c6.961-14.808,10.757-30.881,14.1-46.9,3.126-14.971,5.907-30.381,3.482-45.481C1504.8,247.23,1503.655,242.972,1500.892,239.8Z"/><path class="c" d="M1474.844,252.547c-5.347,11.854-9.777,24-16.567,35.135-2.684,4.4-5.918,8.908-10.755,10.69-6.755,2.486-12.049.377-11.973-7.3a29.886,29.886,0,0,1,1.333-7.4c2.576-9.592,4.847-19.125,7.977-28.627,4.893-14.85,9.818-29.778,17.048-43.642,5.242-10.051,21.665-18.12,25.733-2.391,3.02,11.68-3.8,23.587-8.423,33.833Q1477.03,247.7,1474.844,252.547Z"/><path class="h" d="M1473.274,327.164c-3.225,9.872-3.926,20.6-4.572,30.982-2.364,37.97,4.1,75.481,3.967,113.224q-.235,66.164-.472,132.328,0,1.323-.008,2.646,10.856-.717,21.741-.637c3.955,0,8.487-52.263,9.107-57.4,7.815-64.712,14.252-129.621,22.288-194.294,1.328-10.685,2.874-22.317-1.439-32.464a26.185,26.185,0,0,0-13.6-13.959c-5.424-2.268-11.361-2.322-17.149-2.2-3.1.068-6.274.2-9.179,1.422-7.073,2.99-8.445,13.609-10.584,20.037C1473.343,326.955,1473.309,327.06,1473.274,327.164Z"/><path class="a" d="M1550.858,206.743c19.308,34.543,9.625,80.762,12.583,118.7,1.418,18.187,4.744,36.221,5.142,54.484a2.38,2.38,0,0,1-2.149,2.89c-30.665,9.652-63.4,9.887-95.549,9.461a4.59,4.59,0,0,1-2.623-.566c-1.208-.848-1.306-2.57-1.286-4.046.281-20.538-1.98-41.22.612-61.954,1.278-10.315,2.135-20.721,2.742-31.146a219.477,219.477,0,0,0,.4-24.386c-.382-7.2-2.306-13.418-3.573-20.382-1.271-7-.35-14.672-.3-21.762.069-9.98.561-25.353,10.322-31.052,9.527-5.561,20.348-9.969,31.309-11.548,11.444-1.648,22.963,5.326,32.578,10.782A26.629,26.629,0,0,1,1550.858,206.743Z"/><g class="i"><path class="c" d="M1519.668,218.334a27.465,27.465,0,0,0,10.79-1.684c8.3-3.153,16.539-13.072,13.777-22.512a10.54,10.54,0,0,0-3.039-4.417c-7.473-7.232-18.276-10.026-28.361-10.926-10.142-.9-20.188,4.52-27.1,11.82-1.214,1.282-2.412,2.819-2.359,4.586s1.325,3.212,2.547,4.479c5.851,6.067,12.316,11.739,19.974,15.26A36.51,36.51,0,0,0,1519.668,218.334Z"/></g><path class="d" d="M1487.806,209.334c-1.019-5.151-4.563-11.85-10.607-10.627a26.053,26.053,0,0,0-10.941,4.824c-6.322,4.84-10.368,12.157-13.579,19.286l-10.568,23.464q15.768,4.939,31.891,8.632C1480.533,240.808,1490.959,225.284,1487.806,209.334Z"/><path class="g" d="M1462.872,356.691l-9.524-6.963c39.451-53.948,50.54-110.533,27.387-156l10.421-5.563C1516.366,237.68,1505,299.077,1462.872,356.691Z"/><path class="c" d="M1525.945,196.085a7.352,7.352,0,0,1-.858,1.291c-1.9,2.264-4.792,2.535-7.325,2.1a18.926,18.926,0,0,1-9.675-4.923c-6.447-6.023-1.83-19.857-1.19-28.6a7.166,7.166,0,0,1,.242-1.616c.608-1.957,2.583-2.611,4.252-2.768A20.774,20.774,0,0,1,1522,163.4c2.441,1.117,6.642,2.3,6.731,5.978a128.427,128.427,0,0,1-1.19,20.742A18.434,18.434,0,0,1,1525.945,196.085Z"/><path class="j" d="M1498.3,149.555c.971,10.586,6.267,20.93,15.027,27.166,6.7,4.771,16.87,7.571,24.521,3.4,10.27-5.593,13.005-20.269,13.272-30.892.317-12.563-3.924-26.852-15.81-33.032-8.359-4.347-21.735-5.4-28.25,2.479C1500.313,126.84,1497.287,138.526,1498.3,149.555Z"/><path d="M1524.623,143.994a2.937,2.937,0,1,1-3.336-2.712A3.045,3.045,0,0,1,1524.623,143.994Z"/><path d="M1542.991,141.471a2.936,2.936,0,1,1-3.335-2.712A3.044,3.044,0,0,1,1542.991,141.471Z"/><path class="k" d="M1515.384,137.914a11.31,11.31,0,0,1,10.6-3.258"/><path class="k" d="M1536.237,132.062c3.02-.56,7.413-.855,9.907,1.305"/><path class="l" d="M1531.5,150.015a2.42,2.42,0,0,0,.216.819c.817,1.9,2.3,2.145,3.283,3.711a2.379,2.379,0,0,1,.391,1.16,2.573,2.573,0,0,1-.187,1.037,1.945,1.945,0,0,1-1.54,1.339c-.579.082-1.162-.074-1.741.009"/><path class="m" d="M1539.636,168.44a16.848,16.848,0,0,1-18.088-2.342"/><path class="n" d="M1547.162,242.586h0a7.526,7.526,0,0,1-7.526-7.526h0a7.527,7.527,0,0,1,7.526-7.526h0a7.527,7.527,0,0,1,7.527,7.526h0A7.527,7.527,0,0,1,1547.162,242.586Z"/><path class="o" d="M1552.478,231.816c-.227-.075-.45-.164-.679-.232a.161.161,0,0,1-.136-.191c0-.123-.005-.247-.009-.372a.32.32,0,0,0-.294-.344,5.768,5.768,0,0,0-1.443-.108,3.811,3.811,0,0,0-2.366.934c-.194.17-.368.357-.555.539l-.047-.05a3.409,3.409,0,0,0-1.136-.861,4.593,4.593,0,0,0-3.249-.168.29.29,0,0,0-.226.306c0,.146,0,.291.014.436a.142.142,0,0,1-.113.167c-.226.089-.449.19-.674.279a.334.334,0,0,0-.227.36q.1,3.126.192,6.253c.011.3.2.414.48.3.444-.177.888-.361,1.34-.516a6.314,6.314,0,0,1,2.325-.407,1.733,1.733,0,0,1,1.217.465.622.622,0,0,0,.637.006l.022-.015a1.749,1.749,0,0,1,1.23-.554,5.415,5.415,0,0,1,1.571.1,13.552,13.552,0,0,1,2.108.6c.276.1.466-.032.459-.321q-.1-3.138-.192-6.277A.329.329,0,0,0,1552.478,231.816Zm-7.3,5.957a8.073,8.073,0,0,0-2.278.531c-.325.117-.644.246-.983.379-.005-.055-.01-.1-.014-.145q-.087-2.955-.182-5.914a.15.15,0,0,1,.108-.174c.174-.064.345-.143.537-.224l.006.177q.072,2.342.144,4.684c.008.313.165.427.47.352a4.644,4.644,0,0,1,2.113-.071,3.129,3.129,0,0,1,1.032.416C1545.808,237.779,1545.493,237.754,1545.178,237.773Zm1.831.088c0,.032,0,.065,0,.123a4.229,4.229,0,0,0-4.109-.922l-.006-.152q-.081-2.73-.168-5.458c0-.113.03-.152.137-.178a4.348,4.348,0,0,1,2.407.047,3.069,3.069,0,0,1,1.507,1.067.351.351,0,0,1,.072.2Q1546.929,235.223,1547.009,237.861Zm5.34-5.551q.093,2.952.182,5.906l0,.146c-.074-.025-.137-.041-.193-.063a11.631,11.631,0,0,0-2.551-.62,5.108,5.108,0,0,0-1.53.044c.04-.026.075-.054.113-.078a3.651,3.651,0,0,1,2.2-.549,7.582,7.582,0,0,1,.818.092c.29.044.443-.077.434-.374q-.07-2.351-.142-4.7l-.007-.177c.224.08.424.149.622.223.02.007.035.037.043.058A.3.3,0,0,1,1552.349,232.31Z"/><path class="j" d="M1473.4,253.1c5.5-4.082,16.674-11.24,18.889-2.466.983,3.9-1.5,6.637-3.982,9.184a195.064,195.064,0,0,0-18.882,22.577c-3.354,4.686-6.525,9.552-10.569,13.661-4.169,4.237-12.86,12.15-19.375,8.628-6.363-3.44-3.721-13.32-.966-18.133a50.219,50.219,0,0,1,8.31-10.158,273.284,273.284,0,0,1,24.511-21.709C1471.855,254.275,1472.561,253.724,1473.4,253.1Z"/><path class="j" d="M1493.842,238.4a4.087,4.087,0,0,1-.945.1,13,13,0,0,0-.51-2.978c-.728-2.55-1.94-4.441-2.707-4.222-.355.1-.545.65-.582,1.45-.055-.226-.107-.451-.154-.678.384,1.831-1.633,5.955-2.2,7.768-1.593,5.1-7.213,7.578-9.418,12.609a2.469,2.469,0,0,0-.275,1.676,2.586,2.586,0,0,0,.95,1.151c2.624,2.137,5.564,5.853,9.193,4.56,3.649-1.3,6.846-3.126,10.592-3.925a18.218,18.218,0,0,1,2.425-.351c3.395-.255,8.163-1.559,7.882-6.044a26.6,26.6,0,0,0-.654-2.772c-.273-1.572.2-3.334-.644-4.69-.556-.894-1.638-1.512-1.777-2.555-.09-.678.261-1.36.165-2.036C1504.629,233.637,1495.608,238.044,1493.842,238.4Z"/><path class="b" d="M1538.057,114.205s-7.906,11.021-24.815,9.832c0,0-8.652,19.513-7.889,31.524l-9.948-3.768,7.076-35.474S1528.053,102.417,1538.057,114.205Z"/><path class="j" d="M1504.09,155.426c2.182,4.25,1.826,8.784-.794,10.13s-6.512-1.009-8.694-5.258-1.827-8.784.794-10.13S1501.908,151.178,1504.09,155.426Z"/></g></svg>