<svg xmlns="http://www.w3.org/2000/svg" xmlns:xlink="http://www.w3.org/1999/xlink" width="156.067" height="532.519" viewBox="0 0 156.067 532.519"><defs><style>.a{fill:#f29132;}.b{fill:#f9b39d;}.c{fill:#59180d;}.d{fill:#d89c07;}.e{fill:#3f301d;}.f{fill:#1e3c72;}.g{fill:#273016;}.h{fill:#264790;}.i{clip-path:url(#a);}.j{fill:#fbc0a9;}.k{fill:#21145d;}.l,.m{fill:none;}.l{stroke:#1c143f;}.l,.m,.n{stroke-miterlimit:10;}.m{stroke:#c98f7b;}.n{fill:#8c2a1e;stroke:#bf5f52;}.o{fill:#fff;}.p{fill-rule:evenodd;fill:url(#b);}.q{fill:#252732;}</style><clipPath id="a"><path class="a" d="M1005.376,206.743c19.308,34.543,9.625,80.762,12.583,118.7,1.418,18.187,4.743,36.221,5.142,54.484a2.382,2.382,0,0,1-2.15,2.89c-30.665,9.652-63.4,9.887-95.549,9.461a4.59,4.59,0,0,1-2.623-.566c-1.208-.848-1.3-2.57-1.286-4.046.281-20.538-1.979-41.22.612-61.954,1.279-10.315,2.135-20.721,2.743-31.146a219.491,219.491,0,0,0,.395-24.386c-.382-7.2-2.306-13.418-3.572-20.382-1.272-7-.351-14.672-.3-21.762.069-9.98.562-25.353,10.322-31.052,9.528-5.561,20.348-9.969,31.31-11.548,11.443-1.648,22.963,5.326,32.577,10.782A26.631,26.631,0,0,1,1005.376,206.743Z"/></clipPath><linearGradient id="b" x1="0.211" y1="5.641" x2="0.211" y2="6.563" gradientUnits="objectBoundingBox"><stop offset="0.349" stop-color="#26479c"/><stop offset="0.903" stop-color="#00caf2"/></linearGradient></defs><g transform="translate(-890.065 -94.619)"><path class="b" d="M1032.985,313.756a8.056,8.056,0,0,1-.7,4.317c-1.1,1.886-3.633,2.573-5.761,2.073a11.543,11.543,0,0,1-5.423-3.521c-6.054-6.277-9.005-14.874-11.231-23.3a202.674,202.674,0,0,1-5.817-32.715c-.618-6.566-.906-13.269.634-19.681.662-2.758,1.834-5.653,4.293-7.066,16.96-9.749,21.943,49.812,22.649,57.277Q1032.7,302.418,1032.985,313.756Z"/><path class="c" d="M941.756,104.847c-19.964,18.516-10.724,55.2,11.684,66.765a42.35,42.35,0,0,0,33.812,1.955c21.989-8.23,31.841-61.014,7-71.762-7.2-3.116-14.083-6.981-22.118-7.17-8.165-.192-16.76,1.34-23.9,5.439A35.788,35.788,0,0,0,941.756,104.847Z"/><path class="d" d="M1029.941,251.251q.267,1.272.53,2.541-13.23,3.348-26.233,7.513c-1.732-5.172-2.655-11.26-5.391-15.922-2.548-4.341-3.684-10.1-5.006-15.064-1.488-5.579-2.987-11.252-2.807-16.979.264-8.445,3.692-13.443,8.938-12.994,2.446.21,5.287,1.6,8.388,4.384a53.139,53.139,0,0,1,15.049,22.129C1026.372,234.756,1028.215,243.008,1029.941,251.251Z"/><path class="b" d="M1044.319,396.377c1.159,2.31,2.137,4.778,1.712,7.286a12.268,12.268,0,0,1-1.283,3.432,57.486,57.486,0,0,1-6.972,10.652,3.46,3.46,0,0,1-1.486,1.216c-1.206.389-2.487-.66-2.844-1.876-.866-2.956,1.285-5.936,1.031-8.885a22.633,22.633,0,0,0-3.628-10.121,29.026,29.026,0,0,0-.336,8.02,3.5,3.5,0,0,1-.065,1.52,1.107,1.107,0,0,1-1.166.784,1.533,1.533,0,0,1-.776-.576c-3.085-3.632-4.148-8.581-4.348-13.341-.166-3.95.52-8.024.114-11.949-.289-2.794-1.322-4.82-1-7.8a1.628,1.628,0,0,1,.386-1.046,1.689,1.689,0,0,1,.991-.33l5.228-.575a3.257,3.257,0,0,1,4.194,2.914c2.474,7.178,6.114,12.784,9.645,19.508C1043.921,395.6,1044.123,395.984,1044.319,396.377Z"/><path class="b" d="M1018.261,305.943c4.366-1.134,10.047-.569,13.2,4.568,3.491,5.682,3.03,13.083,3.79,19.441,2.222,18.6.984,38.3,1.411,57.062a13.122,13.122,0,0,1-.757,5.84c-3.228,6.984-9.362.589-10.165-4.275-1.861-11.274-6.769-21.611-8.887-32.7-2.252-11.786-4-23.66-5.754-35.528C1009.889,312.139,1011.658,307.658,1018.261,305.943Z"/><path class="e" d="M1010.278,616.818c2.248,2.391,2.974,5.642,2.514,9.152a1.035,1.035,0,0,1-.331.74,1.108,1.108,0,0,1-.652.135c-2.84-.006-5.587.293-8.4.293l-32.883-.949a3.379,3.379,0,0,1-1.448-.258,3.218,3.218,0,0,1-1.188-1.232c-3.3-5.27-.751-11.349-.76-17l-.023-14a.941.941,0,0,1,1.068-1.154,97.124,97.124,0,0,1,14.742-.2c-1.294,4.417-2.672,11.685.979,15.324,3.342,3.334,9.032,4.089,13.49,4.607,3.553.413,7.214.842,10.34,2.58A10.505,10.505,0,0,1,1010.278,616.818Z"/><path class="e" d="M973.758,616.818c2.248,2.391,2.973,5.642,2.514,9.152a1.032,1.032,0,0,1-.332.74,1.1,1.1,0,0,1-.652.135c-2.84-.006-5.586.293-8.4.293L934,626.189a3.379,3.379,0,0,1-1.448-.258,3.228,3.228,0,0,1-1.189-1.232c-3.3-5.27-.751-11.349-.76-17q-.01-7-.023-14a.941.941,0,0,1,1.068-1.154,97.139,97.139,0,0,1,14.743-.2c-1.294,4.417-2.672,11.685.978,15.324,3.343,3.334,9.033,4.089,13.49,4.607,3.553.413,7.214.842,10.34,2.58A10.492,10.492,0,0,1,973.758,616.818Z"/><path class="f" d="M1010.942,496.318c4.9-26.5,6.593-53.485,6.688-80.4.048-13.483-.309-26.965-.861-40.437-.543-13.274-1.152-27.6,1.411-40.66a1.583,1.583,0,0,0-1.478-2.229c-9.891-2.67-21.244-8.114-31.363-8.936-10.41-.848-15.9,10.218-18.851,18.5-7.233,20.311-3.971,45.07.438,65.666,3.825,17.868,7.676,35.861,8.466,54.172.811,18.808-1.3,37.7-2.821,56.42-2.319,28.629-11.727,85.265-11.727,85.265l25.272-1.867s7.808-30.058,8.748-33.281C1001.753,544.909,1006.454,520.571,1010.942,496.318Z"/><path class="g" d="M955.409,239.8c-10.244-11.764-37.156-12.52-46.338.965a30.152,30.152,0,0,0-3.661,8.963,268.509,268.509,0,0,0-9.72,84.593c.275,6.054.778,12.208,3.008,17.844s6.443,10.759,12.167,12.75c6.57,2.284,14.087.032,19.511-4.322s9.065-10.532,12.025-16.826c6.961-14.808,10.757-30.881,14.1-46.9,3.126-14.971,5.906-30.381,3.481-45.481C959.315,247.23,958.173,242.972,955.409,239.8Z"/><path class="b" d="M929.361,252.547c-5.346,11.854-9.776,24-16.566,35.135-2.685,4.4-5.918,8.908-10.756,10.69-6.755,2.486-12.049.377-11.973-7.3a29.976,29.976,0,0,1,1.333-7.4c2.577-9.592,4.848-19.125,7.978-28.627,4.892-14.85,9.817-29.778,17.048-43.642,5.242-10.051,21.665-18.12,25.732-2.391,3.021,11.68-3.8,23.587-8.423,33.833Q931.547,247.7,929.361,252.547Z"/><path class="h" d="M927.792,327.164c-3.226,9.872-3.927,20.6-4.572,30.982-2.365,37.97,4.1,75.481,3.966,113.224L926.715,603.7q0,1.323-.009,2.646,10.855-.717,21.741-.637c3.955,0,8.488-52.263,9.108-57.4,7.814-64.712,14.252-129.621,22.288-194.294,1.328-10.685,2.874-22.317-1.44-32.464a26.183,26.183,0,0,0-13.6-13.959c-5.424-2.268-11.362-2.322-17.15-2.2-3.1.068-6.273.2-9.179,1.422-7.073,2.99-8.445,13.609-10.584,20.037C927.86,326.955,927.826,327.06,927.792,327.164Z"/><path class="a" d="M1005.376,206.743c19.308,34.543,9.625,80.762,12.583,118.7,1.418,18.187,4.743,36.221,5.142,54.484a2.382,2.382,0,0,1-2.15,2.89c-30.665,9.652-63.4,9.887-95.549,9.461a4.59,4.59,0,0,1-2.623-.566c-1.208-.848-1.3-2.57-1.286-4.046.281-20.538-1.979-41.22.612-61.954,1.279-10.315,2.135-20.721,2.743-31.146a219.491,219.491,0,0,0,.395-24.386c-.382-7.2-2.306-13.418-3.572-20.382-1.272-7-.351-14.672-.3-21.762.069-9.98.562-25.353,10.322-31.052,9.528-5.561,20.348-9.969,31.31-11.548,11.443-1.648,22.963,5.326,32.577,10.782A26.631,26.631,0,0,1,1005.376,206.743Z"/><g class="i"><path class="b" d="M974.186,218.334a27.47,27.47,0,0,0,10.79-1.684c8.3-3.153,16.539-13.072,13.777-22.512a10.549,10.549,0,0,0-3.039-4.417c-7.474-7.232-18.277-10.026-28.361-10.926-10.142-.9-20.188,4.52-27.1,11.82-1.215,1.282-2.412,2.819-2.359,4.586s1.325,3.212,2.546,4.479c5.852,6.067,12.317,11.739,19.974,15.26A36.519,36.519,0,0,0,974.186,218.334Z"/></g><path class="d" d="M942.323,209.334c-1.018-5.151-4.562-11.85-10.606-10.627a26.057,26.057,0,0,0-10.942,4.824c-6.322,4.84-10.368,12.157-13.579,19.286q-5.283,11.733-10.567,23.464,15.768,4.939,31.89,8.632C935.051,240.808,945.477,225.284,942.323,209.334Z"/><path class="g" d="M917.39,356.691l-9.525-6.963c39.451-53.948,50.54-110.533,27.388-156l10.421-5.563C970.884,237.68,959.52,299.077,917.39,356.691Z"/><path class="b" d="M980.463,196.085a7.3,7.3,0,0,1-.859,1.291c-1.9,2.264-4.792,2.535-7.325,2.1a18.93,18.93,0,0,1-9.675-4.923c-6.447-6.023-1.83-19.857-1.19-28.6a7.218,7.218,0,0,1,.242-1.616c.609-1.957,2.583-2.611,4.252-2.768a20.778,20.778,0,0,1,10.607,1.832c2.44,1.117,6.641,2.3,6.73,5.978a128.433,128.433,0,0,1-1.189,20.742A18.437,18.437,0,0,1,980.463,196.085Z"/><path class="j" d="M952.815,149.555c.971,10.586,6.267,20.93,15.028,27.166,6.7,4.771,16.87,7.571,24.52,3.4,10.271-5.593,13.005-20.269,13.273-30.892.316-12.563-3.924-26.852-15.811-33.032-8.358-4.347-21.734-5.4-28.25,2.479C954.83,126.84,951.8,138.526,952.815,149.555Z"/><path class="c" d="M1003.157,108.952a31.581,31.581,0,0,1-5.408,3.1q-17.162,8.106-34.32,16.211c-17.989,8.5,3.465,19.239-5.492,31.023a6.215,6.215,0,0,1-2.165,1.9c-5.686,2.831-10.257-5.22-12.077-8.168a31.343,31.343,0,0,1-4.656-13.98c-.757-9.614,2.336-22.1,12.813-28.02a65.271,65.271,0,0,1,27.935-8.543c2.768-.143,26.607,1.215,26.579.927C1006.629,105.57,1005.211,107.4,1003.157,108.952Z"/><path class="j" d="M957.607,157.426c2.182,4.25,1.827,8.784-.794,10.13s-6.511-1.009-8.694-5.258-1.826-8.784.794-10.13S955.426,153.178,957.607,157.426Z"/><path class="k" d="M979.141,143.994a2.937,2.937,0,1,1-3.336-2.712A3.045,3.045,0,0,1,979.141,143.994Z"/><path class="k" d="M997.509,141.471a2.937,2.937,0,1,1-3.335-2.712A3.044,3.044,0,0,1,997.509,141.471Z"/><path class="l" d="M969.9,137.914a11.312,11.312,0,0,1,10.6-3.258"/><path class="l" d="M990.755,132.062c3.019-.56,7.413-.855,9.906,1.305"/><path class="m" d="M986.02,150.015a2.469,2.469,0,0,0,.216.819c.818,1.9,2.3,2.145,3.283,3.711a2.36,2.36,0,0,1,.391,1.16,2.556,2.556,0,0,1-.186,1.037,1.945,1.945,0,0,1-1.54,1.339c-.58.082-1.163-.074-1.742.009"/><path class="n" d="M990.755,168.44c-3.6,2.859-8.3,1.883-11.291-2.342"/><path class="o" d="M1001.68,242.586h0a7.526,7.526,0,0,1-7.527-7.526h0a7.527,7.527,0,0,1,7.527-7.526h0a7.527,7.527,0,0,1,7.526,7.526h0A7.526,7.526,0,0,1,1001.68,242.586Z"/><path class="p" d="M1007,231.816c-.227-.075-.45-.164-.68-.232a.16.16,0,0,1-.135-.191c0-.123-.005-.247-.009-.372a.321.321,0,0,0-.294-.344,5.772,5.772,0,0,0-1.443-.108,3.815,3.815,0,0,0-2.367.934c-.193.17-.368.357-.554.539l-.047-.05a3.424,3.424,0,0,0-1.137-.861,4.593,4.593,0,0,0-3.249-.168.291.291,0,0,0-.226.306c0,.146,0,.291.014.436a.141.141,0,0,1-.112.167c-.227.089-.449.19-.675.279a.336.336,0,0,0-.227.36q.1,3.126.193,6.253c.011.3.2.414.479.3.445-.177.889-.361,1.34-.516a6.317,6.317,0,0,1,2.325-.407,1.733,1.733,0,0,1,1.217.465.624.624,0,0,0,.638.006.156.156,0,0,1,.021-.015,1.751,1.751,0,0,1,1.231-.554,5.409,5.409,0,0,1,1.57.1,13.565,13.565,0,0,1,2.109.6c.276.1.465-.032.458-.321q-.1-3.138-.192-6.277A.329.329,0,0,0,1007,231.816Zm-7.3,5.957a8.058,8.058,0,0,0-2.277.531c-.325.117-.645.246-.983.379-.005-.055-.01-.1-.014-.145q-.089-2.955-.183-5.914a.151.151,0,0,1,.109-.174c.173-.064.344-.143.537-.224l.006.177q.07,2.342.143,4.684c.009.313.165.427.471.352a4.639,4.639,0,0,1,2.112-.071,3.129,3.129,0,0,1,1.032.416C1000.325,237.779,1000.011,237.754,999.7,237.773Zm1.831.088c0,.032,0,.065,0,.123a4.229,4.229,0,0,0-4.109-.922l-.006-.152q-.081-2.73-.168-5.458c0-.113.03-.152.138-.178a4.344,4.344,0,0,1,2.406.047,3.072,3.072,0,0,1,1.508,1.067.358.358,0,0,1,.071.2Q1001.448,235.223,1001.526,237.861Zm5.34-5.551q.094,2.952.183,5.906l0,.146c-.074-.025-.137-.041-.194-.063a11.623,11.623,0,0,0-2.55-.62,5.115,5.115,0,0,0-1.531.044c.04-.026.076-.054.114-.078a3.65,3.65,0,0,1,2.205-.549,7.564,7.564,0,0,1,.817.092c.291.044.443-.077.435-.374q-.07-2.351-.143-4.7l-.007-.177c.225.08.425.149.622.223.021.007.035.037.043.058A.3.3,0,0,1,1006.866,232.31Z"/><rect class="q" width="85.781" height="56.8" transform="translate(908.456 311.587) rotate(-67.371)"/><path class="f" d="M941.461,232.409l52.428,21.855L960.883,333.44l-.745-3.056-23.364-95.869,3.156-1.419h0Z"/><path class="o" d="M939.93,233.1,990.2,253.975l-1,2.4-41.918,27.289-10.51-49.146Z"/><rect class="h" width="82.032" height="56.8" transform="translate(905.21 310.233) rotate(-67.37)"/><path class="j" d="M951.233,285.678c6.723,1.292,19.554,4.693,14.584,12.255-2.209,3.359-5.909,3.377-9.461,3.272a195.169,195.169,0,0,0-29.4,1.342c-5.721.7-11.45,1.647-17.211,1.444-5.941-.21-17.647-1.267-19.454-8.449-1.766-7.015,7.3-11.746,12.711-12.968a50.264,50.264,0,0,1,13.1-.74,273.141,273.141,0,0,1,32.567,3.393C949.327,285.334,950.21,285.481,951.233,285.678Z"/><path class="j" d="M975.888,290.809a4.112,4.112,0,0,1-.715-.625,13.009,13.009,0,0,0,1.849-2.389c1.388-2.261,1.962-4.431,1.283-4.849-.315-.193-.848.037-1.463.551.13-.193.261-.383.4-.571-1.09,1.52-5.493,2.82-7.212,3.628-4.833,2.271-10.46-.194-15.658,1.581a2.463,2.463,0,0,0-1.422.93,2.589,2.589,0,0,0-.206,1.478c.2,3.377-.554,8.056,2.853,9.857,3.424,1.811,6.93,2.933,10.051,5.155a17.963,17.963,0,0,1,1.9,1.549c2.483,2.33,6.666,4.963,9.782,1.725a26.846,26.846,0,0,0,1.6-2.355c.974-1.264,2.591-2.108,3.022-3.645.282-1.014.007-2.229.682-3.037.438-.525,1.179-.726,1.612-1.254C986.688,295.54,977.344,291.871,975.888,290.809Z"/></g></svg>