<svg xmlns="http://www.w3.org/2000/svg" width="104.389" height="104.4" viewBox="0 0 104.389 104.4"><defs><style>.a{fill:#f29132;}.a,.b{fill-rule:evenodd;}.b{fill:#26479c;}</style></defs><g transform="translate(-413.08 -46.177)"><path class="a" d="M433.924,82.612c-.52-14.323,11.117-30.218,30.269-30.265,16.818-.042,30.084,13.9,29.973,30.974a30.072,30.072,0,0,1-30.656,30.187C446.838,113.388,433.839,99.814,433.924,82.612Zm20.015-5.422c-2.42,3.151-5.5,5.726-6.6,8.972-1.305,3.819-1.061,8.221-1.1,12.374-.007.736,1.877,2.121,2.9,2.138,9.99.163,19.987.2,29.974-.032,1.2-.028,3.27-1.8,3.351-2.876a37.027,37.027,0,0,0-.54-10.381c-.909-4.271-4.073-7.173-7.731-9.3,3.454-7.455,2.581-13.253-2.415-17.258a12.021,12.021,0,0,0-14.509-.334C451.82,64.44,450.881,69.73,453.939,77.19Z"/><path class="b" d="M453.939,77.19c-3.058-7.46-2.119-12.75,3.33-16.7a12.021,12.021,0,0,1,14.509.334c5,4.005,5.869,9.8,2.415,17.258,3.658,2.126,6.822,5.028,7.731,9.3a37.027,37.027,0,0,1,.54,10.381c-.081,1.08-2.155,2.848-3.351,2.876-9.987.231-19.984.195-29.974.032-1.028-.017-2.912-1.4-2.9-2.138.039-4.153-.205-8.555,1.1-12.374C448.443,82.916,451.519,80.341,453.939,77.19Zm9.526,17.544c2.687,0,5.375.007,8.062,0,4.726-.013,5.62-1.315,3.846-5.87a11.753,11.753,0,0,0-2.063-3.233c-2.734-3.22-6.505-2.92-10.209-2.9-7.2.045-10.087,2.26-11.871,9.165-.48,1.855-.051,2.883,2.082,2.849C456.7,94.693,460.08,94.733,463.465,94.734Zm.55-30.011a5.747,5.747,0,1,0-.076,11.487,6.006,6.006,0,0,0,6.086-5.729A5.839,5.839,0,0,0,464.015,64.723Z"/><path class="b" d="M517.359,116.469c-1.648-7.035-8.948-11.153-14.9-7.9a3.237,3.237,0,0,1-2.455.42c-2.3-1.129-4.455-2.532-6.958-4,5.984-8.048,8.584-16.806,7.5-26.426A35.194,35.194,0,0,0,487.4,54.44c-13.127-10.64-31.906-10.964-44.488-1.2a36.913,36.913,0,0,0-13.895,21.415c-2.523,10.962.22,20.935,6.446,30.362a36.449,36.449,0,0,1-5.163,3.243,5.847,5.847,0,0,1-4.037.211c-4.075-1.629-7.781-1.071-10.652,2.02a8.708,8.708,0,0,0-1.334,10.524,9.309,9.309,0,0,0,9.688,4.455,9.051,9.051,0,0,0,7.2-8.149c.111-.921.332-2.189.965-2.623a78.5,78.5,0,0,1,7.234-4.231,1.923,1.923,0,0,1,1.67.038c2.346,1.625,4.615,3.362,6.85,5.018-3.436,7.63-3.674,7.874-10.582,10.925-4.715,2.083-6.981,7.187-5.158,11.619a9.149,9.149,0,0,0,11.582,5.256,8.984,8.984,0,0,0,5.177-12.05,4.752,4.752,0,0,1,.473-5.194c.6-.918,1.117-1.893,1.645-2.856,2.726-4.98,2.708-4.9,8.269-3.863,2.018.374,2.635,1.31,2.547,3.236-.118,2.593.152,5.214-.11,7.786a5.441,5.441,0,0,1-1.759,3.328A9.748,9.748,0,0,0,456.84,145a9.054,9.054,0,1,0,13.59-10.987,4.448,4.448,0,0,1-2.14-4.489c.106-1.089.022-2.2.021-3.3,0-5.849,0-5.854,5.477-7.248.838-.213,1.692-.359,2.52-.532,1.521,2.581,2.84,5.053,4.387,7.371,1.272,1.9,1.684,3.524.461,5.751-1.789,3.261-.839,6.436,1.551,9.1,2.538,2.834,5.687,4.01,9.447,2.767a8.728,8.728,0,0,0,6.19-9.189,9.185,9.185,0,0,0-7.283-8.41c-1.293-.3-3.029-.515-3.682-1.411-2.027-2.781-3.633-5.871-5.369-8.787,7.535-6.237,7.568-6.29,15.358-1.562.976.591,1.437,2.081,2.054,3.2,1.172,2.122,1.9,4.634,3.508,6.336,2.487,2.642,6.678,2.674,9.985.75C515.889,122.634,517.981,119.122,517.359,116.469Zm-95.4,4.731a4.309,4.309,0,1,1,4.309-4.309A4.309,4.309,0,0,1,421.955,121.2Zm18.079,17.86a4.309,4.309,0,1,1,4.309-4.308A4.308,4.308,0,0,1,440.034,139.06Zm48.824-8.617a4.309,4.309,0,1,1-4.308,4.309A4.309,4.309,0,0,1,488.858,130.443Zm-19.512,11.371a4.309,4.309,0,1,1-8.256-1.719,2.354,2.354,0,0,1,2.048-2.131,4.28,4.28,0,0,1,6.208,3.85Zm-5.836-28.306c-16.672-.12-29.671-13.694-29.586-30.9-.52-14.323,11.117-30.218,30.269-30.265,16.818-.042,30.084,13.9,29.973,30.974A30.072,30.072,0,0,1,463.51,113.508Zm44.005,6.633a4.309,4.309,0,1,1,4.308-4.309A4.309,4.309,0,0,1,507.515,120.141Z"/></g></svg>