<svg xmlns="http://www.w3.org/2000/svg" xmlns:xlink="http://www.w3.org/1999/xlink" width="279.419" height="171.454" viewBox="0 0 279.419 171.454"><defs><style>.a{fill:none;}.b{fill:#18706c;}.c{fill:#6d322c;}.d{fill:#824643;}.e{fill:#f1f2f2;}.f{fill:#3e221a;}.g{fill:#3c2415;}.h{fill:#ffe5cc;}.i{fill:#f4bc95;}.j{fill:#ccfffb;}.k{fill:#006aa5;}.l{fill:#0072bf;}.m{fill:#e9fffd;}.n{fill:#9fafbc;}.o{fill:#51002e;}.p{fill:#141b35;}.q{fill:#d56612;}.r{fill:#f17215;}.s{fill:#844332;}.t{fill:#d6e9f2;}.u{fill:rgba(0,0,0,0);}.v{clip-path:url(#a);}.w{fill:#efb68f;}.x{fill:#f18125;}.y{fill:#1fc1aa;}</style><clipPath id="a"><rect class="a" width="279.418" height="171.453"/></clipPath></defs><rect class="b" width="126.812" height="82.254" transform="translate(150.585 4.043)"/><path class="c" d="M130.856,86.3H0V0H130.856V86.3ZM4.043,4.043V82.254H126.8V4.043Z" transform="translate(148.563 2.021)"/><path class="d" d="M130.856,86.3H0V0H130.856V86.3ZM4.043,4.043V82.254H126.8V4.043Z" transform="translate(146.542)"/><g transform="translate(0 0)"><g transform="translate(180.279 18.183)"><path class="e" d="M1224.593,1246.083c-.148-.536-.852-.755-1.28-.987l-2.134-1.162c-.573-.312-1.083.563-.511.872l2.668,1.452c.037.032.059.044.088.067-.177.162-.369.314-.552.466a.513.513,0,0,0-.468-.451c-2.286-.215-4.574-.378-6.864-.515a8.544,8.544,0,0,0-.17-1.014c-.15-.634-1.124-.365-.975.269a6.718,6.718,0,0,1,.127.687c-4.506-.251-9.019-.379-13.529-.353q-.151-7.978-.429-15.953.61,1.223,1.217,2.451c.291.583,1.163.07.874-.511q-.782-1.575-1.568-3.154a.513.513,0,0,0-.794-.1c-.07.056-.144.1-.216.16a.458.458,0,0,0-.533.4c-.607.448-1.229.875-1.88,1.267a.506.506,0,0,0,.511.874c.476-.287.938-.592,1.391-.907q.268,7.742.414,15.487c-5.434.057-10.865.3-16.289.773-.646.055-.65,1.067,0,1.011,5.43-.467,10.87-.715,16.311-.773q.16,9,.162,18a.505.505,0,0,0,1.01,0q0-9.007-.16-18.013c4.523-.026,9.047.1,13.568.358a8.01,8.01,0,0,1-.057.963c-.08.646.932.638,1.012,0a7.994,7.994,0,0,0,.058-.907c2.212.135,4.426.293,6.636.5-.269.23-.538.458-.807.688-.5.423.22,1.137.714.714l1.65-1.4c.349-.3.958-.693.8-1.252" transform="translate(-1178.596 -1204.63)"/><path class="e" d="M1220.478,1240.343c-4.239-.57-8-1.8-11.12-4.847a15.724,15.724,0,0,1-4.508-11.657c.021-.652-.991-.65-1.012,0a17.244,17.244,0,0,0,3.823,11.275c3.084,3.956,7.746,5.56,12.548,6.2.638.086.911-.888.269-.975" transform="translate(-1178.059 -1204.751)"/><path class="e" d="M1217.087,1253.833a9.518,9.518,0,0,1-2.044-1.645q.483-1.1.969-2.2c.259-.593-.613-1.108-.874-.511q-.407.926-.813,1.85a9.811,9.811,0,0,1-1.116-1.853c-.265-.595-1.137-.08-.872.511a10.181,10.181,0,0,0,1.525,2.4l-.819,1.865c-.259.593.611,1.108.874.511.23-.527.464-1.054.694-1.582a10.652,10.652,0,0,0,1.966,1.532.507.507,0,0,0,.511-.874" transform="translate(-1177.84 -1204.079)"/><path class="e" d="M1219.872,1254.034c-.1-.642-1.069-.37-.974.269q.151,1.006.3,2.017c.1.643,1.071.367.975-.271l-.3-2.015" transform="translate(-1177.669 -1203.964)"/><path class="e" d="M2.049,14.836a.524.524,0,0,1-.372-.145.47.47,0,0,1-.131-.344c.006-1.085-.009-2.2-.024-3.287v-.1q-.008-.576-.015-1.152A3.366,3.366,0,0,1,.143,8.931a.474.474,0,0,1-.1-.533.548.548,0,0,1,.48-.337.463.463,0,0,1,.337.155A2.482,2.482,0,0,0,1.5,8.7c0-.153,0-.307,0-.457,0-.278-.005-.562,0-.84a.578.578,0,0,1-.364-.488A.422.422,0,0,1,1.392,6.5a.723.723,0,0,0,.088-.05l.048-.029c.043-1.013.116-1.908.223-2.735C1.926,2.365,3.031,0,4.614,0a.824.824,0,0,1,.71.312c.458.627.005,2.042-.165,2.574l0,.012A7.367,7.367,0,0,1,2.6,6.953c0,.481-.007.969-.009,1.44l0,.6h.084a2.225,2.225,0,0,0,.9-.182.548.548,0,0,1,.219-.047.582.582,0,0,1,.548.455.4.4,0,0,1-.256.464,3.66,3.66,0,0,1-1.468.3H2.585c-.011,1.51-.019,3.088-.027,4.357A.481.481,0,0,1,2.049,14.836ZM3.877,1.554c-.271,0-.657.385-.929,1.464a8.325,8.325,0,0,0-.334,2.325c0,.089,0,.176,0,.263A6.589,6.589,0,0,0,4.179,2.629a1.155,1.155,0,0,0-.064-.947A.3.3,0,0,0,3.877,1.554Z" transform="translate(38.417 7.89)"/><path class="e" d="M1224.508,1215.4a10.564,10.564,0,0,0-2.836,10.156.506.506,0,0,0,.975-.268,9.522,9.522,0,0,1,2.577-9.173c.464-.459-.253-1.173-.716-.714" transform="translate(-1177.604 -1204.962)"/><path class="e" d="M1229,1217.886l-1.8,1.738q-.613-.487-1.227-.971c-.5-.4-1.225.31-.714.716.4.318.806.638,1.211.956l-1.719,1.66c-.47.454.246,1.168.716.715l1.8-1.74c.507.4,1.014.8,1.521,1.2s1.227-.31.716-.713-1.006-.794-1.506-1.192l1.716-1.654c.47-.455-.246-1.17-.716-.716" transform="translate(-1177.52 -1204.897)"/><path class="e" d="M1231.142,1215.1c-.314-.57-1.188-.061-.874.511a16.366,16.366,0,0,1,2.025,9.07c-.039.652.973.648,1.011,0a17.4,17.4,0,0,0-2.163-9.581" transform="translate(-1177.375 -1204.972)"/><path class="e" d="M1242.232,1217.842l-5.064.429c-.645.055-.651,1.066,0,1.01l5.064-.428c.644-.054.65-1.067,0-1.011" transform="translate(-1177.206 -1204.895)"/><path class="e" d="M1241.946,1219.974a15,15,0,0,1-3.673-.117c-.638-.1-.911.871-.269.975a16.153,16.153,0,0,0,3.942.154c.644-.056.65-1.069,0-1.012" transform="translate(-1177.181 -1204.842)"/><path class="e" d="M1255.423,1218.255q-5.171.567-10.369.683a.506.506,0,0,0,0,1.011q5.2-.117,10.369-.683c.64-.069.648-1.08,0-1.01" transform="translate(-1177.001 -1204.884)"/><path class="e" d="M1249.532,1208.665c.033-.652-.979-.648-1.012,0a49.7,49.7,0,0,0,.125,6.837c.057.644,1.069.649,1.012,0a49.677,49.677,0,0,1-.125-6.837" transform="translate(-1176.9 -1205.146)"/><path class="e" d="M1252.741,1227.108l-1.869-1.552q.818-1.5,1.756-2.924c.359-.549-.517-1.053-.874-.512q-.893,1.357-1.672,2.777-1.222-1.017-2.444-2.031c-.5-.416-1.219.3-.716.715q1.339,1.112,2.678,2.224c-.427.819-.835,1.646-1.209,2.5-.26.591.611,1.106.874.511.351-.8.733-1.576,1.129-2.344q.818.678,1.633,1.357c.5.412,1.217-.3.714-.717" transform="translate(-1176.944 -1204.79)"/><path class="e" d="M1190.709,1213.394c.359-.734.741-1.454,1.153-2.161a.506.506,0,0,0-.874-.511c-.38.653-.724,1.325-1.059,2a12.31,12.31,0,0,0-1.262-.88.507.507,0,0,0-.511.874,10.97,10.97,0,0,1,1.324.941c-.09.2-.172.4-.26.6a.427.427,0,0,0-.177.2c-.965,2.177-2.745,3.733-5.255,3.309-3.1-.525-2.973-4.088-.932-5.477a1.863,1.863,0,0,0,2.477-.8.512.512,0,0,0-.437-.761,4.286,4.286,0,0,0-2.243.517c-2.138-1.039-4.639-4.824-.185-3.817.636.145.907-.831.271-.975-2.573-.583-5.122-.165-3.537,2.924a7.287,7.287,0,0,0,2.6,2.44c-1.627,1.352-2.354,3.7-.57,5.533,2.585,2.663,6.09,1.485,7.96-1.121a.506.506,0,0,0,.4-.319c.205-.524.443-1.029.675-1.537a10.948,10.948,0,0,1,.761.833c.412.5,1.125-.216.714-.716a11.293,11.293,0,0,0-1.034-1.094" transform="translate(-1178.713 -1205.196)"/><path class="e" d="M1193.364,1213.834a.506.506,0,0,0,0,1.011.506.506,0,0,0,0-1.011" transform="translate(-1178.345 -1204.999)"/><path class="e" d="M1203.5,1211.671l-3.281.584c.745-.887,1.49-1.778,2.2-2.692.671-.858.365-1.66-.121-2.528a3.233,3.233,0,0,0-2.288-1.8,2.455,2.455,0,0,0-1.43.3c-.478.242-.556,1.39-.913,1.83-.408.5.3,1.222.714.716a3.84,3.84,0,0,0,.751-1.217c.525-1.636,2.119.384,2.5,1.053.649,1.153-2.37,3.913-3.045,4.726a.51.51,0,0,0,.492.845q2.345-.415,4.689-.833c.642-.115.369-1.09-.269-.977" transform="translate(-1178.223 -1205.223)"/></g><path class="f" d="M1164.448,1342.3c-.014-.016-.031-.035-.051-.035s0,.015.051.035" transform="translate(-998.806 -1183.478)"/><path class="f" d="M1166.88,1351.949a4.132,4.132,0,0,1-2.957,1.517c-3.679-.063-4.635-.732-5.624-1.432.412.7-.419.8,1.278,1.512,1.738.734,6.5,1.142,6.5,1.142s1.714-.94,2.514-1.439c.593-.372-.242.5-.242.5a8.985,8.985,0,0,0,2.91-.474c.289-.2.375-.509.811-1.451-1.3.018-4.607-.554-5.188.12" transform="translate(-998.964 -1183.235)"/><path class="g" d="M1171.792,1348.613a4.772,4.772,0,0,1-.683-4.471s-6.712-1.6-7.393-1.843c.314.351-.54,4.142-.54,4.142s-1.49,2.339-3.222,2.467c-1.385.1-1.995,1.761-1.935,2.808a1.36,1.36,0,0,0,.158.644c.012.019.014.032.025.051.987.7,3.008,1.675,6.688,1.738,1.055.019,1.178-.646,2.21-1.138.515-.247,3.369.493,4.871-.8l.013-.02a3.611,3.611,0,0,0-.191-3.573" transform="translate(-998.971 -1183.477)"/><path class="f" d="M1202.025,1351.857l2,.687v1.566s-7.047.72-8.093.4-5.928-1.389-5.928-1.389v.7l-3.667-.481-.589-3.237,5.92-.842Z" transform="translate(-998.25 -1183.296)"/><path class="g" d="M1194.686,1344.86s2.479,4.19,3.2,4.19a18.714,18.714,0,0,1,4.221.831c1.276.4,1.925,2.777,1.925,2.777s-7.555,1.757-11.346-.419c-2-1.151-6.946-2.027-6.931-2.023l.788-4.567Z" transform="translate(-998.25 -1183.41)"/><path class="h" d="M1179.907,1231.527l-8.216,2.276-7.334,24.018-14.538,6.323a5.725,5.725,0,0,0-3.792,1.515c-1.389,1.517-3.033,3.667-3.792,3.667s-.5,1.137.507,1.012,2.907-1.771,2.907-1.771l-3.792,6.068s-2.783,1.519-1.9,1.643,4.552-2.148,4.552-2.148-.253,3.539-.632,3.539,3.792-1.011,5.056-3.035,2.528-7.459,2.528-7.459l15.8-3.412,9.862-22.5Z" transform="translate(-999.445 -1186.356)"/><path class="i" d="M1186.236,1225.509l1.391,9.1-9.23.252,1.643-10.114Z" transform="translate(-998.442 -1186.532)"/><path class="f" d="M1163.164,1341.06c-.018-.02-.035-.041-.059-.041s-.006.016.059.041" transform="translate(-998.839 -1183.51)"/><path class="f" d="M1202.025,1351.857l2,.687v1.566s-7.047.72-8.093.4-5.928-1.389-5.928-1.389v.7l-3.667-.481-.589-3.237,5.92-.842Z" transform="translate(-998.25 -1183.296)"/><path class="g" d="M1194.686,1344.86s2.479,4.19,3.2,4.19a18.714,18.714,0,0,1,4.221.831c1.276.4,1.925,2.777,1.925,2.777s-7.555,1.757-11.346-.419c-2-1.151-6.946-2.027-6.931-2.023l.788-4.567Z" transform="translate(-998.25 -1183.41)"/><path class="j" d="M1197.14,1267.6l-21.493,1.771-.706-3.691-2.62-26.244c0-4.492,1.744-7.308,6.234-7.3l7.053,5.183,3.033-5.982a8.116,8.116,0,0,1,8.1,8.116Z" transform="translate(-998.599 -1186.361)"/><path class="h" d="M1190.823,1219.932a7.224,7.224,0,1,0-14.2-2.666,20.4,20.4,0,0,0,.217,6.932c.581,1.9,2.114,4.9,4.765,5.4l.051.009.049.009c2.651.5,4.836-1.8,6.068-3.365a20.186,20.186,0,0,0,3.049-6.319" transform="translate(-998.493 -1186.88)"/><path class="j" d="M1189.061,1230.952l10.619,3.287,12.388,11.124,12.5-6.449,3.181-1.641-.495,3.344a8.422,8.422,0,0,1-4.239,6.13l-10.726,5.957a3.022,3.022,0,0,1-3.49-.221l-14.426-11.67-12.767-4.972Z" transform="translate(-998.358 -1186.37)"/><path class="h" d="M1225.406,1239.662l1.681-5,3.129-2.616,3.021-.706a2.4,2.4,0,0,1-1.744,1.905,2.076,2.076,0,0,0-1.57,1.942s.827,2.419-.014,3a25.4,25.4,0,0,1-4.5,1.477" transform="translate(-997.22 -1186.361)"/><path class="h" d="M1229.557,1234.194l3.517.847s2.4-1,2.376.714c-.029,2.181-.146,4-1.687,4.605-2.031.8-5.62-.011-5.62-.011l-1.137-.884Z" transform="translate(-997.178 -1186.286)"/><path class="k" d="M1196.258,1264.962h-.121c-.021-.325.121,0,.121,0" transform="translate(-997.98 -1185.49)"/><path class="l" d="M1196.476,1348.735l-5.684.283-4.428.224s2.021-29.167,2.69-36.916c.688-7.766-2.185-26.637-2.185-26.637s-5.908,15.008-7.079,21.581-8.091,40.959-8.091,40.959l-6.614-.243-2.994-.1s2.528-18.869,4.713-30.845c2.2-11.972,3.2-25.627,4.713-34.891a78.949,78.949,0,0,1,4.065-15.514l8.05-.526,8.233-.707,5.157-.445a99.764,99.764,0,0,1,3.749,10.787c2.528,9.769-4.295,72.991-4.295,72.991" transform="translate(-998.865 -1185.487)"/><path class="k" d="M1184.829,1238.833l-1.933-2.275,1.434-2.5a3.926,3.926,0,0,1,2.206,1.038c.632.826-.255,3.734-.255,3.734s4.679,15.068,4.679,15.445-1.369,4.276-1.369,4.276l-3.815-3.414Z" transform="translate(-998.325 -1186.29)"/><path class="j" d="M1226.571,1236.495l2.276,4.171-2.945,1.517-2.618-3.793Z" transform="translate(-997.275 -1186.227)"/><path class="h" d="M1151.628,1266.315l-.162.042s-1.274,5.439-2.528,7.462a10.385,10.385,0,0,1-3.068,2.165,3.346,3.346,0,0,1-1.539.39c-1.065.01-2.8-.011-2.774-.248.1-.837,1.543-1.746,1.543-1.746s-2.253,1.2-3.144,1.078,1.9-1.638,1.9-1.638l3.761-6.049a8.413,8.413,0,0,1-2.873,1.739c-1.01.122-1.274-1.01-.5-1.01.749,0,2.387-2.142,3.784-3.661a5.5,5.5,0,0,1,3.72-1.517l-.142.082Z" transform="translate(-999.445 -1185.529)"/><path class="j" d="M1179.566,1231.522l-2.77,9.748-6.224,18.88a5.925,5.925,0,0,1-4.457,3.954l-11.345,2.288-2-3.682,10.028-4.976,8.561-23.928Z" transform="translate(-999.108 -1186.356)"/><path class="j" d="M1154.918,1265.713l-2.953,1.516-.587-.87-2.021-2.911.14-.082,3.156-1.821.2.386,2,3.682Z" transform="translate(-999.196 -1185.576)"/><path class="m" d="M1179.224,1229.9s-.347,2.341,1.223,3.353a8.434,8.434,0,0,0,4.167.885l-.449,1.011-1.11,1.768a19.771,19.771,0,0,1-4.11-1.643,16.971,16.971,0,0,1-2.152-3.109Z" transform="translate(-998.483 -1186.398)"/><path class="m" d="M1186.681,1229.3s-1.952,5.013-2.387,4.888,2.432,2.193,2.432,2.193a8.586,8.586,0,0,0,2.2-2.626,10.725,10.725,0,0,0,.634-2.582Z" transform="translate(-998.289 -1186.414)"/><path class="k" d="M1194.964,1273.663l1.137,38.815-1.652,36.343-8.162.409s2.023-29.167,2.692-36.913c.685-7.767-2.185-26.639-2.185-26.639s-5.907,15.008-7.079,21.582-8.091,40.96-8.091,40.96l-6.615-.244,7.081-41.97,11.466-39.909,8.235-.707Z" transform="translate(-998.79 -1185.476)"/><path class="l" d="M1181.572,1265.132c-3.683-.363-7.118-.453-7.118-.453v3.614s12.6,1.264,15.359,1.139,7.814-2.023,7.814-2.023l-.252-4.3s-5.563,3.035-15.8,2.023" transform="translate(-998.544 -1185.535)"/><path class="n" d="M1179.174,1211.007a5.3,5.3,0,0,0-2.464,3.857c-.064,1.453.821.443,1.644.125a14.263,14.263,0,0,1,6,.506c1.075.569,2.4,1.264,2.653,2.212s0,3.983.759,3.6,1.139-3.1,1.708-2.466.7,3.286,0,3.919-1.2,1.264-1.075,1.959-.636,1.555-.636,1.555,2.153-.732,3.355-4.968.466-8.723-1.369-9.986-8.042-1.377-10.578-.317" transform="translate(-998.485 -1186.908)"/><path class="h" d="M1234.528,1231.156s-.423-.211-.507.633a10.808,10.808,0,0,1-.294,1.6l-.968,1.9,1.726.886,1.237-2.52s-.394-2.074-.394-2.283-.8-.212-.8-.212" transform="translate(-997.028 -1186.366)"/><path class="e" d="M1233.353,1234.047l-1.354-.583,2.1-4.888,1.354.584Z" transform="translate(-997.048 -1186.433)"/><path class="o" d="M1057.355,1349.831c.286-.093.546-.191.794-.294-2.4-1.494-7.978-5.479-7.978-5.479l-2.423.269s-2.237,2.122-2.339,2.881c1.383.072,3.429.271,4.176.812,1.171.851,5.961,2.395,7.771,1.81" transform="translate(-1001.898 -1183.431)"/><path class="p" d="M1058.643,1349.751c-.14-.083-.3-.182-.482-.294-.249.1-.509.2-.794.294-1.81.584-6.6-.959-7.771-1.81-.747-.541-2.793-.74-4.176-.812a1.181,1.181,0,0,1-.029.174c-.214.745-.747,3.406-.134,4.365l.611.956,5.643.32.531-1.276a21.2,21.2,0,0,1,4.151.9c2.021.692,5.376-.373,5.376-.373s1.7-.639,1.543-1.7-2.448.427-4.471-.745" transform="translate(-1001.909 -1183.351)"/><path class="q" d="M1035.386,1304.25c.49-.139.989-.273,1.469-.4-.057-.013-.1-.019-.1-.019l4.783-21.432-.3-14.075s-5.393-.933-7.174-.665c-2.943.446-7.949,3.3-9.267,7.476-.963,3.056-5.785,20-7.728,30.3.977.522,2.9,1.176,6.708,1.556,7.057.706,9.388-2.116,11.6-2.744" transform="translate(-1002.634 -1185.418)"/><path class="p" d="M1063.683,1310.244c-1.732-2.744-25.17-7.016-26.805-7.312-.482.128-.981.261-1.471.4-2.214.626-4.547,3.449-11.6,2.743-3.8-.379-5.731-1.034-6.708-1.555-.714,3.794-1.044,6.7-.642,7.663,1.5,3.586,4.014,4.27,12.134,4.165,8.825-.115,22.243.615,22.243.615l-6.809,30.276h15.458s6-34.152,4.2-37" transform="translate(-1002.655 -1184.5)"/><path class="o" d="M1034.341,1267.8c2.973-.823,4.092-7.42,4.092-7.42l5.317,4.305-2.94,8.235.217,5.053-4.908-4.347c-1.689-2.385-4.592-5.046-1.777-5.826" transform="translate(-1002.216 -1185.606)"/><path class="r" d="M1047.854,1291.917s-8.67.152-11.659-.745-3.349-.392-3.349-.392,1.557-8.43,1.557-9.923,1.165-13.259-5.68-10.462c-2.871,1.172-4.184,5.978-3.287,11.954a81.286,81.286,0,0,1,.433,12.674,3.546,3.546,0,0,0,3.111,3.629c6.244.774,19.328,1.814,19.446-3.047v-3.991c-.355.183-.572.3-.572.3" transform="translate(-1002.424 -1185.357)"/><path class="g" d="M1055.635,1288.743c-1.473-.736-6.164,1.548-7.8,2.389v3.991c5.22-.837,6.6-3.39,6.6-3.39s4.847,2.875,6.577,3.886c1.886,1.1-3.587-5.979-5.38-6.876" transform="translate(-1001.835 -1184.872)"/><path class="s" d="M1048.1,1267.013s2.362-.089,2.025-.536a6.881,6.881,0,0,1-.841-3.759,4.644,4.644,0,0,0,1.149-1.859c.615-1.468-.287-4.309-.287-4.309s-2.922-4.168-6.339-4.67c-3.043-.661-7.207,1.97-8.456,4.947a6.583,6.583,0,0,0,2.169,7.844c2.448,3.263,7.582,7,7.767,6.792.236-.269,1.471-1.8,2.276-1.857.207-.016-.312-.768-.312-.768s.792.021.938-.186c.211-.3-.088-1.639-.088-1.639" transform="translate(-1002.172 -1185.829)"/><path class="f" d="M1050.513,1257.763s-3.486-1.43-4.531-.178-3.218,5.573-3.724,4.916.418-2.741-.835-3.217-3.4.773-2.741,2.651.566,2.356-1.13,2.178-4.738-3.161-3.4-6.975,6.7-6.049,6.7-6.049,5.74.07,7.153,1.014c1.787,1.192,4.769,6.557,2.5,5.661" transform="translate(-1002.199 -1185.847)"/><path class="f" d="M1041.813,1253s2.92.3,2.146-2.475-.864-3.486-3.936-4.259-9.147,7.27-4.647,8.581,6.318-1.788,6.318-1.788Z" transform="translate(-1002.2 -1185.974)"/><path class="p" d="M1048.229,1318.255l-30.48.956-3.107-3.462h31.106a2.483,2.483,0,0,1,2.481,2.482Z" transform="translate(-1002.697 -1184.167)"/><path class="p" d="M1007.584,1289.428c1.167,3.8,3.429,10.939,4.375,13.919a2.856,2.856,0,0,1-.4,2.528l-.569.793-6.162-19.259h.023a2.862,2.862,0,0,1,2.735,2.019" transform="translate(-1002.953 -1184.903)"/><path class="t" d="M1030.62,1318.093v1.8h-7.291a2.659,2.659,0,0,0-.72.084h-.051a4.013,4.013,0,0,0-3.1,2.865l-8.3,32.715H1009.3l8.423-33.193a5.714,5.714,0,0,1,1.356-2.42,6.8,6.8,0,0,1,1-.858,5.814,5.814,0,0,1,2.3-.908h.035a5.42,5.42,0,0,1,.925-.087h7.291Z" transform="translate(-1002.836 -1184.106)"/><path class="t" d="M1051.422,1355.559h-1.871l-8.3-32.715a4.038,4.038,0,0,0-3.876-2.95h-7.291v-1.8h7.291a5.377,5.377,0,0,1,2.023.375,5.894,5.894,0,0,1,3.6,3.9Z" transform="translate(-1002.296 -1184.106)"/><path class="t" d="M1020.568,1320.956a8.962,8.962,0,0,1-8.592-6.412l-8.938-30.04a.9.9,0,0,1,1.73-.515l8.938,30.041a7.147,7.147,0,0,0,7.155,5.114l3.673-.147a.9.9,0,1,1,.072,1.8l-3.673.148c-.121.006-.242.008-.365.008" transform="translate(-1003 -1185.009)"/><rect class="u" width="279.418" height="171.453"/><g class="v"><g transform="translate(46.334 60.922)"><rect class="g" width="45.277" height="1.98" transform="translate(0 48.766)"/><rect class="t" width="1.98" height="57.435" transform="translate(37.428 51.536)"/><rect class="t" width="1.98" height="57.435" transform="translate(22.644 51.536)"/><rect class="j" width="34.196" height="1.98" transform="translate(8.649 108.181)"/><rect class="j" width="32.924" height="1.58" transform="translate(6.484 50.746)"/><path class="w" d="M1094.072,1261.247s-.41,3.926-2.311,5.918-3.568,3.724-3.568,3.724l8.9,6.173s4.287-13.33,3.152-15.656Z" transform="translate(-1047.12 -1246.506)"/><path class="h" d="M1105.954,1261.312s1.886-1.194,1.482-1.546a17.109,17.109,0,0,1-2.325-3.766,5.113,5.113,0,0,0,.244-2.405c-.1-1.757-2.372-4.147-2.372-4.147s-4.923-2.732-8.563-1.576c-3.345.814-6.213,5.445-6.014,9.01a7.285,7.285,0,0,0,5.955,6.753c4.011,2.06,10.929,3.3,11.011,2.995.1-.383.577-2.71,1.438-3.219.158-.093-.757-.342-.757-.342s1.463-.114.975-.559a7.411,7.411,0,0,1-1.073-1.2" transform="translate(-1047.114 -1246.861)"/><path class="x" d="M1104.07,1248.572c1.141,1.024,2.471,5.292-1.293,6s-5.528,1.059-4.352,5.175,4.939,8.629,4,9.781-2.354,5.94-2.354,5.94-6.38-7.345-8.819-6.8-7.176,6.952-7.176,6.952-4-3.767-.47-7.47,2.468-4.76,1.648-6.289-.119-4.471,1.529-6.587.47-4.588,4.116-6.7a15.748,15.748,0,0,1,8.349-1.649s3.874.8,4.822,1.649" transform="translate(-1047.276 -1246.879)"/><path class="y" d="M1135.3,1350.17c1.646.236,3.449.706,4.077.55.464-.117,6.739-.361,9.989-.481l-.058-.668a2.447,2.447,0,0,0-1.9-1.33c-2.044-.25-5.941-.935-7.492-2.668-2.146-2.4-2.733-3.088-2.733-3.088s-.5-1.775-1.287-4.5l-6.209,1.147a23.525,23.525,0,0,1,1.067,3.751s-1.767,5.319-1.194,6.546a5.451,5.451,0,0,1,.256.7,46.246,46.246,0,0,1,5.485.049" transform="translate(-1046.047 -1244.511)"/><path class="h" d="M1136.275,1338.794l-6.209,1.147a23.1,23.1,0,0,0-6.774-9.973c-4.742-3.876-5.175-13.568-5.175-13.568s-1.28.132-3.33.3a9.035,9.035,0,0,0,.753-2.5c.394-2.953,2.483-5.87,3.669-7.3,3.086.753,5.551,1.526,6.417,2.166,2.315,1.71,8.072,20.829,10.65,29.731" transform="translate(-1046.429 -1245.319)"/><path class="t" d="M1149.483,1351.355l-.125-1.422c-3.25.12-9.525.364-9.989.48-.628.156-2.432-.313-4.077-.55a46.4,46.4,0,0,0-5.485-.05,5,5,0,0,1,.246,1.541Z" transform="translate(-1046.038 -1244.205)"/><path class="y" d="M1120.071,1307.906c-1.186,1.43-3.275,4.348-3.669,7.3a8.966,8.966,0,0,1-.753,2.5,16.439,16.439,0,0,1-3.952,5.1s-1.2-2.6-5.852-4.556c-6.285.17-13.322,0-17.444-1.26-8.713-2.709-8.241-35.169-3.517-44.275,2.163-4.181,5.776-5.215,7.808-4.294,3.049,1.357,17.468,12.677,8.885,20.914-6.162,5.912-.587,14.747-.587,14.747s10.182,1.712,17.764,3.5c.452.094.885.208,1.317.32" transform="translate(-1047.292 -1246.327)"/><path class="w" d="M1090.142,1270.508s-3.967,1.1-1.929,6.023,18.54,19.406,22.4,18.559,5.327-.537,2.963-4.557-8.873-6.733-11.717-10.351-7.469-10.29-11.713-9.674" transform="translate(-1047.134 -1246.266)"/><rect class="r" width="19.443" height="3.181" transform="translate(85.957 45.678)"/><rect class="y" width="19.443" height="1.098" transform="translate(66.207 47.668)"/><path class="p" d="M1106.038,1318.255l-30.48.956-3.107-3.462h31.106a2.483,2.483,0,0,1,2.481,2.482Z" transform="translate(-1047.529 -1245.089)"/><path class="p" d="M1065.393,1289.428c1.168,3.8,3.429,10.939,4.375,13.919a2.855,2.855,0,0,1-.4,2.528l-.568.793-6.162-19.259h.023a2.862,2.862,0,0,1,2.735,2.019" transform="translate(-1047.784 -1245.826)"/><path class="t" d="M1088.429,1318.093v1.8h-7.291a2.661,2.661,0,0,0-.72.084h-.051a4.012,4.012,0,0,0-3.1,2.865l-8.3,32.715h-1.853l8.423-33.193a5.712,5.712,0,0,1,1.356-2.42,6.879,6.879,0,0,1,.993-.858,5.837,5.837,0,0,1,2.3-.908h.035a5.419,5.419,0,0,1,.926-.087h7.291Z" transform="translate(-1047.668 -1245.028)"/><path class="t" d="M1109.229,1355.559h-1.869l-8.3-32.715a4.036,4.036,0,0,0-3.876-2.95h-7.291v-1.8h7.291a5.387,5.387,0,0,1,2.025.375,5.9,5.9,0,0,1,3.6,3.9Z" transform="translate(-1047.128 -1245.028)"/><path class="t" d="M1078.376,1320.956a8.962,8.962,0,0,1-8.591-6.412l-8.938-30.04a.9.9,0,0,1,1.73-.515l8.938,30.041a7.147,7.147,0,0,0,7.155,5.114l3.673-.147a.9.9,0,0,1,.072,1.8l-3.673.148c-.121.006-.242.008-.365.008" transform="translate(-1047.831 -1245.931)"/><rect class="g" width="45.277" height="1.98" transform="translate(59.312 48.766)"/><rect class="t" width="1.98" height="57.435" transform="translate(96.74 51.536)"/><rect class="t" width="1.98" height="57.435" transform="translate(81.946 51.536)"/><rect class="j" width="34.196" height="1.98" transform="translate(67.962 108.181)"/><rect class="j" width="32.924" height="1.58" transform="translate(65.797 50.746)"/></g></g></g></svg>