<svg xmlns="http://www.w3.org/2000/svg" id="prefix__class" width="62.756" height="54.879" viewBox="0 0 62.756 54.879">
    <defs>
        <style>
            .prefix__cls-1{fill:#1d9f1d}
        </style>
    </defs>
    <path id="prefix__Path_225" d="M226.148 0h-27.571a5.776 5.776 0 0 0-5.777 5.777v13.58l4.5 2.238 2.249-4.5a5.516 5.516 0 1 1 9.867 4.933l-4.009 8.02a8.375 8.375 0 0 1-.287 3.167h2.647l-6.981 19.2a1.838 1.838 0 1 0 3.455 1.256l7.438-20.452h1.288l7.513 20.458a1.838 1.838 0 0 0 3.452-1.267l-7.048-19.191h9.262a5.777 5.777 0 0 0 5.777-5.777V5.777A5.777 5.777 0 0 0 226.148 0zm-3.939 25.34h-8.249a1.839 1.839 0 0 1 0-3.677h8.249a1.839 1.839 0 0 1 0 3.677zm0-6.893h-8.249a1.839 1.839 0 0 1 0-3.677h8.249a1.839 1.839 0 0 1 0 3.677zm0-6.892h-19.692a1.839 1.839 0 0 1 0-3.677h19.692a1.839 1.839 0 0 1 0 3.677zm0 0" class="prefix__cls-1" data-name="Path 225" transform="translate(-169.169)"/>
    <path id="prefix__Path_226" d="M32.349 58.751a4.754 4.754 0 0 0 .049-2.918l4.563-9.125a1.839 1.839 0 1 0-3.289-1.645l-3.892 7.782-8.707-4.331c-2.649-1.317-4.539-2.5-7.764-2.5h-1.624A8.009 8.009 0 1 0 5.854 43.5a7.988 7.988 0 0 0 5.831 2.52 11.744 11.744 0 0 0-8.259 3.42A11.592 11.592 0 0 0 0 57.7v5.908a5.787 5.787 0 0 0 3.939 5.477v10.278A1.838 1.838 0 0 0 5.777 81.2h11.816a1.838 1.838 0 0 0 1.839-1.839V58.706l5.886 2.943a5.036 5.036 0 0 0 7.024-2.877zm0 0" class="prefix__cls-1" data-name="Path 226" transform="translate(0 -26.323)"/>
</svg>
