<svg xmlns="http://www.w3.org/2000/svg" width="103.788" height="104.45" viewBox="0 0 103.788 104.45"><defs><style>.a{fill:#26479c;}.a,.b{fill-rule:evenodd;}.b{fill:#f29132;}</style></defs><g transform="translate(-509.931 -172.775)"><path class="a" d="M607.7,249.67c1.838,7.68,3.579,15.253,5.495,22.782.547,2.145.562,3.867-1.825,4.56-2.457.712-3.42-.931-3.941-2.971-.617-2.417-1.063-4.894-1.913-7.226a3.39,3.39,0,0,0-2.39-1.918c-6.99-.179-13.986-.1-20.98-.2a2.921,2.921,0,0,0-3.307,2.287c-.647,2.1-1.444,4.15-2.208,6.209a5.764,5.764,0,0,1-7.147,3.814c-3.107-.788-5.248-3.73-4.306-6.858,2.931-9.752,6.081-19.442,9.289-29.108a5.065,5.065,0,0,1,5.1-3.5c2.1-.023,4.2.054,6.3-.076,1.9-.117,3.286-1.031,3.229-3.164-.058-2.157-1.4-2.878-3.411-2.837-2.6.052-5.2.1-7.8-.034-4.215-.212-6.89-2.806-6.855-6.46.037-3.727,2.665-6,7.038-6.03,4.4-.027,8.8-.082,13.2.034,1.789.046,2.782-.513,3.264-2.267a19.373,19.373,0,0,1,1.631-4.177,5.743,5.743,0,0,1,6.039-3.048,5.288,5.288,0,0,1,4.985,4.1c2.168,9.128,4.4,18.245,6.332,27.423C614.359,244.964,612.534,247.378,607.7,249.67Zm-4.39,8.229c-.588-2.614-1.017-5.053-1.745-7.4a2.7,2.7,0,0,0-1.965-1.525c-4.377-.141-8.763-.119-13.144-.027a2.383,2.383,0,0,0-1.842,1.076c-.937,2.47-1.651,5.025-2.549,7.876Z"/><path class="a" d="M515.714,249.393c-5.929-3.023-6.58-4.535-5.126-10.868,1.764-7.682,3.439-15.385,5.2-23.069.851-3.72,2.907-5.822,5.729-6.028,3.134-.228,5.465,1.323,6.663,5.268.92,3.034,2.437,4.078,5.57,3.82,3.675-.3,7.393-.086,11.092-.074,4.543.015,7.5,2.5,7.546,6.321.047,3.665-3.024,6.172-7.622,6.206-2.3.017-4.6-.025-6.9.017-2.034.037-3.572.783-3.543,3.123s1.545,3.111,3.61,3.013c12.263-.584,10.66,2.636,13.214,9.946,2.438,6.973,4.691,14.012,6.915,21.057,1.2,3.8-.264,6.859-3.61,8.06-3.328,1.192-6.282-.326-7.818-4.063a25.048,25.048,0,0,1-1.534-4.213c-.588-2.77-2.149-3.482-4.89-3.387-6.291.22-12.6.175-18.891.008-2.376-.062-3.413.724-3.76,3.037a35.774,35.774,0,0,1-1.546,6.088c-.61,1.8-1.789,3.4-3.967,2.673-2.019-.674-2.349-2.294-1.809-4.4C512.144,264.491,513.878,257.006,515.714,249.393Zm4.577,8.434h21.388c-.942-2.689-1.618-5.089-2.654-7.32a3.32,3.32,0,0,0-2.464-1.5c-4.182-.152-8.376-.116-12.561-.013-.721.018-1.906.551-2.055,1.079C521.253,252.524,520.851,255.057,520.291,257.827Z"/><path class="b" d="M562.109,172.807c3.892,0,7.785-.038,11.676.006,5.847.067,9.732,3.958,9.8,9.813.028,2.292.416,4.73-.226,6.839a12.274,12.274,0,0,1-3.723,5.828c-1.9,1.51-2.7,2.949-2.535,5.244a24.145,24.145,0,0,1-.057,5.376c-.177,1.143-.812,2.82-1.637,3.1a4.484,4.484,0,0,1-3.758-.781c-3.211-2.837-6.06-6.08-9.266-8.922A8.216,8.216,0,0,0,558,197.482c-2.865-.288-5.782-.014-8.673-.106a9.047,9.047,0,0,1-8.917-9.034c-.052-2.194-.09-4.395.025-6.585a9.185,9.185,0,0,1,9.1-8.925C553.724,172.719,557.918,172.809,562.109,172.807Z"/><path class="a" d="M528.334,206.4c-5.2.038-9.476-3.9-9.512-8.751a9.489,9.489,0,0,1,9.486-9.233,9.213,9.213,0,0,1,9.09,8.9A8.774,8.774,0,0,1,528.334,206.4Z"/><path class="a" d="M595.544,188.422a9.256,9.256,0,0,1,9.05,9.253,8.874,8.874,0,0,1-9.156,8.726,8.749,8.749,0,0,1-8.825-8.7A8.961,8.961,0,0,1,595.544,188.422Z"/></g></svg>