<svg xmlns="http://www.w3.org/2000/svg" id="prefix__book_1_" width="61.75" height="50.628" data-name="book (1)" viewBox="0 0 61.75 50.628">
    <defs>
        <style>
            .prefix__cls-1{fill:#4eaeeb}
        </style>
    </defs>
    <path id="prefix__Path_233" d="M256.259 44.1V0l-1.683.141a64.71 64.71 0 0 0-19.615 4.781L232 6.152v43.923l2.157-.9a67.316 67.316 0 0 1 20.289-4.934zm0 0" class="prefix__cls-1" data-name="Path 233" transform="translate(-200.022)"/>
    <path id="prefix__Path_234" d="M289.914 47.3h-3.308v38.591a1.1 1.1 0 0 1-1.012 1.1l-2.824.232q-1.223.1-2.438.25c-.263.032-.524.074-.785.11-.546.073-1.091.146-1.634.233-.317.051-.631.11-.947.165-.486.085-.973.17-1.459.265-.331.066-.662.141-1 .212-.462.1-.924.2-1.383.307-.344.082-.687.169-1.029.256-.446.11-.891.229-1.334.353-.345.095-.69.195-1.034.3-.441.13-.875.263-1.311.4l-1.022.331q-.654.22-1.3.455c-.331.12-.662.241-1 .367-.151.058-.3.119-.452.178h25.273zm0 0" class="prefix__cls-1" data-name="Path 234" transform="translate(-228.164 -40.778)"/>
    <path id="prefix__Path_235" d="M41.683.141L40 0v44.1l1.957.166a66.864 66.864 0 0 1 20.268 4.962l2.034.846V6.152L61.3 4.923A64.708 64.708 0 0 0 41.683.141zm0 0" class="prefix__cls-1" data-name="Path 235" transform="translate(-34.487)"/>
    <path id="prefix__Path_236" d="M0 47.3v44.1h25.291c-.136-.053-.271-.11-.408-.161-.316-.12-.634-.235-.951-.35-.448-.163-.9-.321-1.347-.472q-.489-.166-.982-.322-.671-.22-1.346-.415c-.331-.1-.662-.194-.992-.287-.453-.125-.908-.244-1.363-.361-.331-.085-.662-.17-1-.249-.462-.11-.927-.212-1.391-.311-.331-.072-.662-.144-.992-.211-.481-.095-.964-.18-1.447-.264l-.95-.167c-.533-.085-1.068-.156-1.6-.228-.27-.036-.538-.079-.808-.11q-1.213-.147-2.426-.25l-2.968-.251a1.1 1.1 0 0 1-1.009-1.1V47.3zm0 0" class="prefix__cls-1" data-name="Path 236" transform="translate(0 -40.778)"/>
</svg>
