<svg xmlns="http://www.w3.org/2000/svg" width="64" height="63" viewBox="0 0 64 63"><defs><style>.a{fill:#f29132;}.b,.c{fill:#fff;fill-rule:evenodd;}.c{stroke:#fff;}</style></defs><g transform="translate(-803 -3828)"><rect class="a" width="64" height="63" rx="5" transform="translate(803 3828)"/><g transform="translate(66.77 2958.627)"><g transform="translate(755.831 888.972)"><path class="b" d="M732.039,895.447v-3.81c0-1.124,0-2.249,0-3.373,0-.742.333-1.073,1.075-1.073q7.886,0,15.772,0c.78,0,1.093.318,1.1,1.1,0,.538.011,1.077,0,1.615a.367.367,0,0,0,.31.431,3.47,3.47,0,0,1,2.661,3.633q0,6.7,0,13.4a3.5,3.5,0,0,1-3.682,3.708q-8.266.006-16.532,0a3.5,3.5,0,0,1-3.667-3.677c0-2.6.059-5.2-.021-7.791A3.787,3.787,0,0,1,732.039,895.447Zm8.953,13.841v0q4.039,0,8.077,0c1.478,0,2.1-.63,2.1-2.118q0-6.533,0-13.066c0-.158,0-.317-.011-.475a1.693,1.693,0,0,0-1.775-1.611c-.205,0-.411-.007-.616-.007-1.663,0-3.326-.023-4.988,0a1.693,1.693,0,0,0-1.759,1.684,3.5,3.5,0,0,1-3.634,3.528c-1.836.034-3.674.034-5.51.03-1.364,0-2.014.62-2.016,1.983q0,4.015,0,8.03a1.762,1.762,0,0,0,2.007,2.014C735.576,909.293,738.284,909.288,740.992,909.288Zm-7.138-13.91a.559.559,0,0,0,.154.057c1.535,0,3.072.033,4.605-.018a1.644,1.644,0,0,0,1.618-1.716,3.505,3.505,0,0,1,3.726-3.481c1.235,0,2.47,0,3.7,0,.167,0,.335-.016.5-.025V889.01H733.854Z" transform="translate(-729.049 -887.189)"/><path class="c" d="M759.379,905.05v-6.368h14.313v1.182c-.17.009-.337.025-.5.025-1.235,0-2.47,0-3.7,0a3.505,3.505,0,0,0-3.727,3.481,1.644,1.644,0,0,1-1.618,1.716c-1.534.052-3.07.018-4.605.018A.564.564,0,0,1,759.379,905.05Z" transform="translate(-754.574 -896.861)"/></g></g></g></svg>