<svg xmlns="http://www.w3.org/2000/svg" width="21.103" height="22.61" viewBox="0 0 21.103 22.61"><defs><style>.a{fill:#fff;}</style></defs><g transform="translate(-16)"><g transform="translate(16)"><g transform="translate(0)"><path class="a" d="M32.2,12.812c-.127,0-.252.009-.377.019V.377A.377.377,0,0,0,31.45,0H16.377A.377.377,0,0,0,16,.377V22.233a.377.377,0,0,0,.377.377H32.2a4.9,4.9,0,1,0,0-9.8Zm-15.45,9.044V.754h14.32v12.2a4.89,4.89,0,0,0-1.47,8.907Zm15.45,0a4.145,4.145,0,1,1,4.145-4.145A4.145,4.145,0,0,1,32.2,21.856Z" transform="translate(-16)"/><rect class="a" width="7" height="2" transform="translate(4.551 1.305)"/><rect class="a" width="4" height="1" transform="translate(2.551 6.305)"/><rect class="a" width="4" height="1" transform="translate(7.551 6.305)"/><rect class="a" width="4" height="1" transform="translate(6.551 8.305)"/><rect class="a" width="6" height="1" transform="translate(6.551 10.305)"/><rect class="a" width="10" height="1" transform="translate(2.551 12.305)"/><rect class="a" height="1" transform="translate(12.551 6.305)"/><rect class="a" width="2" height="1" transform="translate(10.551 8.305)"/><rect class="a" width="8" height="1" transform="translate(2.551 13.305)"/><rect class="a" width="8" transform="translate(2.551 16.305)"/><rect class="a" width="2" height="1" transform="translate(2.551 17.305)"/><rect class="a" width="5" height="1" transform="translate(5.551 17.305)"/><rect class="a" width="10" transform="translate(2.551 5.305)"/><rect class="a" width="3" height="1" transform="translate(2.551 8.305)"/><rect class="a" width="3" height="1" transform="translate(2.551 10.305)"/><path class="a" d="M309.167,320.866l-.754-.754a.377.377,0,0,0-.533,0l-1.241,1.241-1.241-1.241a.377.377,0,0,0-.533,0l-.754.754a.377.377,0,0,0,0,.533l1.241,1.241-1.241,1.241a.377.377,0,0,0,0,.533l.754.754a.377.377,0,0,0,.533,0l1.241-1.241,1.241,1.241a.377.377,0,0,0,.533,0l.754-.754a.377.377,0,0,0,0-.533l-1.241-1.241,1.241-1.241A.377.377,0,0,0,309.167,320.866Zm-2.04,1.507a.377.377,0,0,0,0,.533l1.241,1.241-.221.221-1.241-1.241a.377.377,0,0,0-.533,0l-1.241,1.241-.221-.221,1.241-1.241a.377.377,0,0,0,0-.533l-1.241-1.241.221-.221,1.241,1.241a.377.377,0,0,0,.533,0l1.241-1.241.221.221Z" transform="translate(-290.436 -304.928)"/></g></g></g></svg>