<svg xmlns="http://www.w3.org/2000/svg" width="342.666" height="262.371" viewBox="0 0 342.666 262.371"><defs><style>.a{fill:rgba(215,242,203,0.5);}.b{fill:#74ed96;}.c{fill:#455a64;}.d{fill:#37474f;}.e{opacity:0.4;}.f{opacity:0.5;}.g{opacity:0.3;}.h{fill:#ffa8a7;}.i{fill:#fff;}.j{fill:#263238;}.k{fill:#b16668;}.l{fill:#f28f8f;}.m{opacity:0.1;}.n{opacity:0.85;}.o{opacity:0.15;}.p{fill:#e0e0e0;}.q{opacity:0.25;}.r{opacity:0.2;}.s{opacity:0.6;}.t{opacity:0.45;}.u{opacity:0.35;}.v{fill:#f5f5f5;}.w{fill:#9d6126;}.x{fill:#f29132;}</style></defs><g transform="translate(-874 -5099.307)"><path class="a" d="M327.163,364.959c-66.907,31.351-175.385,31.351-242.292,0s-66.915-82.171,0-113.522,175.385-31.344,242.3,0S394.079,333.6,327.163,364.959Z" transform="translate(839.313 4973.205)"/><path class="b" d="M43.941,31.67,36.45,27.35a7.945,7.945,0,0,1,.063.989v2.167c0,3.86-2.711,5.428-6.048,3.484a11.6,11.6,0,0,1-3.609-3.484c-.55,4.878-4.355,6.662-8.982,3.993-5-2.892-9.059-9.916-9.059-15.685V15.566A8.585,8.585,0,0,1,9.581,11.8L3.359,8.215A7.435,7.435,0,0,1,0,2.4C0,.257,1.505-.614,3.359.46L43.941,23.886A7.435,7.435,0,0,1,47.3,29.7C47.3,31.872,45.809,32.743,43.941,31.67Z" transform="matrix(-0.883, 0.469, -0.469, -0.883, 1144.382, 5130.861)"/><g transform="translate(688.121 4907.269)"><g transform="translate(238.23 192.038)"><g transform="translate(0 64.171)"><path class="c" d="M281.275,306.576l-3.608.107-2.987-40.106,3.608-.107Z" transform="translate(-235.656 -250.952)"/><path class="c" d="M252.476,322.385l-3.608.107-3-40.106,3.608-.1Z" transform="translate(-237.69 -249.835)"/><path class="c" d="M254.148,323h-5.974l-8.693,62.043h0a.717.717,0,0,0,.439.664,2.377,2.377,0,0,0,2.141,0,.792.792,0,0,0,.428-.514h0Z" transform="translate(-238.142 -246.96)"/><path class="c" d="M287.625,303.62h-5.974L273,365.663h0a.717.717,0,0,0,.439.664,2.377,2.377,0,0,0,2.141,0,.792.792,0,0,0,.428-.514h0Z" transform="translate(-235.774 -248.328)"/><path class="c" d="M330.844,383.887,320.534,323H314.56l13.319,61.026h0a.814.814,0,0,0,.428.514,2.334,2.334,0,0,0,2.141,0,.707.707,0,0,0,.428-.653Z" transform="translate(-232.839 -246.96)"/><path class="c" d="M294.467,404.9l-8.683-62.043H279.81l11.659,62.182h0a.814.814,0,0,0,.428.514,2.334,2.334,0,0,0,2.141,0,.707.707,0,0,0,.428-.653Z" transform="translate(-235.293 -245.557)"/><path class="d" d="M320.534,323H314.56l2.42,11.167q2.034-1.692,3.972-3.469a3.833,3.833,0,0,0,.717-.942Z" transform="translate(-232.839 -246.96)"/><path class="d" d="M247.671,323l-1.071,7.419a4.668,4.668,0,0,0,1.156,2.013c1.071,1.017,2.28,2.045,3.512,3.073l2.377-12.5Z" transform="translate(-237.639 -246.96)"/><path class="d" d="M286.983,351.415l-1.2-8.565H279.81l1.949,10.407C283.536,352.646,285.27,352.057,286.983,351.415Z" transform="translate(-235.293 -245.558)"/><path class="d" d="M282.131,305.116a8.035,8.035,0,0,0-.8-.086l-6.788,48.51c1.071.589,2.141,1.156,3.276,1.724l9.2-49.11C285.407,305.779,283.78,305.426,282.131,305.116Z" transform="translate(-235.665 -248.229)"/><path class="b" d="M284.048,351.56A113.337,113.337,0,0,0,325.8,327.514a4.829,4.829,0,0,0,1.338-3.094v-3.212a4.047,4.047,0,0,0-1.477-2.934,100.961,100.961,0,0,0-41.519-17.548,8.769,8.769,0,0,0-3.576.193q-21.413,6.541-32.847,18.8a5.428,5.428,0,0,0-1.231,3.212v3.212a4.775,4.775,0,0,0,1.338,3.094c8.565,7.88,20.792,15.963,32.858,22.066a5.074,5.074,0,0,0,3.362.257Z" transform="translate(-237.647 -248.54)"/><g class="e" transform="translate(44.517 52.06)"><path d="M324.755,321.2v3.212a4.839,4.839,0,0,1-1.349,3.094,113.005,113.005,0,0,1-41.7,24.046,4.936,4.936,0,0,1-1.895.15V300.632a7.613,7.613,0,0,1,1.949.075,101.067,101.067,0,0,1,41.53,17.548,4.068,4.068,0,0,1,1.467,2.944Z" transform="translate(-279.81 -300.601)"/></g><g class="f" transform="translate(8.811 52.101)"><path d="M282.165,300.64v51.069a4.528,4.528,0,0,1-1.51-.407c-12.066-6.1-24.3-14.186-32.858-22.066a4.775,4.775,0,0,1-1.338-3.094v-3.212a5.353,5.353,0,0,1,1.231-3.212q11.445-12.28,32.847-18.811a7.587,7.587,0,0,1,1.627-.268Z" transform="translate(-246.46 -300.64)"/></g><path class="b" d="M247.748,322.322c8.565,7.869,20.792,15.942,32.858,22.044a5.214,5.214,0,0,0,3.394.257,112.694,112.694,0,0,0,41.754-24.014,1.477,1.477,0,0,0-.139-2.355A101.088,101.088,0,0,0,284.1,300.717a8.768,8.768,0,0,0-3.576.193q-21.413,6.542-32.847,18.779A1.874,1.874,0,0,0,247.748,322.322Z" transform="translate(-237.599 -248.541)"/><g class="g" transform="translate(9.57 52.075)"><path d="M247.748,322.322c8.565,7.869,20.792,15.942,32.858,22.044a5.214,5.214,0,0,0,3.394.257,112.694,112.694,0,0,0,41.754-24.014,1.477,1.477,0,0,0-.139-2.355A101.088,101.088,0,0,0,284.1,300.717a8.768,8.768,0,0,0-3.576.193q-21.413,6.542-32.847,18.779A1.874,1.874,0,0,0,247.748,322.322Z" transform="translate(-247.169 -300.616)"/></g><path class="b" d="M239.343,277.9A66.379,66.379,0,0,1,284.2,252a6.081,6.081,0,0,1,3.308.632,3.437,3.437,0,0,1,1.5,2.709v13.565a2.141,2.141,0,0,1-1.82,2.066,66.379,66.379,0,0,0-44.859,25.9,2.141,2.141,0,0,1-2.612.6,3.394,3.394,0,0,1-1.488-2.7V281.208a6.306,6.306,0,0,1,1.113-3.308Z" transform="translate(-238.23 -251.976)"/><g class="f" transform="translate(0 27.562)"><path d="M251.517,285.214,238.53,277.72a5.866,5.866,0,0,0-.3,1.67v13.618a3.394,3.394,0,0,0,1.488,2.7,2.141,2.141,0,0,0,2.612-.6A72.667,72.667,0,0,1,251.517,285.214Z" transform="translate(-238.23 -277.72)"/></g><g class="g" transform="translate(0.3)"><path d="M251.5,287.033a66.218,66.218,0,0,1,35.673-16.059,2.141,2.141,0,0,0,1.82-2.066V255.342a3.437,3.437,0,0,0-1.5-2.709,6.081,6.081,0,0,0-3.308-.632,66.379,66.379,0,0,0-44.859,25.9,5.706,5.706,0,0,0-.814,1.638Z" transform="translate(-238.51 -251.976)"/></g><path class="b" d="M242.129,296.758a66.379,66.379,0,0,1,44.9-25.9,2.141,2.141,0,0,0,1.82-2.066V255.228a1.584,1.584,0,0,0-1.82-1.617,66.379,66.379,0,0,0-44.859,25.9,6.306,6.306,0,0,0-1.071,3.308v13.565C240.994,297.4,241.508,297.56,242.129,296.758Z" transform="translate(-238.028 -251.862)"/><g class="e" transform="translate(3.059 1.732)"><path d="M242.129,296.758a66.379,66.379,0,0,1,44.9-25.9,2.141,2.141,0,0,0,1.82-2.066V255.228a1.584,1.584,0,0,0-1.82-1.617,66.379,66.379,0,0,0-44.859,25.9,6.306,6.306,0,0,0-1.071,3.308v13.565C240.994,297.4,241.508,297.56,242.129,296.758Z" transform="translate(-241.087 -253.593)"/></g></g><g transform="translate(19.134)"><path class="c" d="M315.14,393.88c-1.071,0-1.071,1.274-1.146,3.9a18.576,18.576,0,0,0,.621,8.34c2.73,4.283,5.91,4.058,9.24,8.372,2.655,3.458,6.509,7.869,13.918,8.265,9.111.482,12.848-5.021,10.364-7.13-2.687-2.323-9.186-5.225-16.916-14.282C327.42,396.835,315.14,393.88,315.14,393.88Z" transform="translate(-252.028 -177.782)"/><path class="h" d="M323.746,376.78s1.874,14.871,4.572,19.614c2.57,4.539,6.745,9.314,10.621,13.543.846.921,2.709,2.666,3.447,3.372,1.617,1.531.343,2.473-1.21,2.773-3.662.707-7.227-.3-11.274-3.158-4.657-3.287-6.5-5.9-10.556-9.8a17.8,17.8,0,0,1-3.33-4.058,6.423,6.423,0,0,1-.642-3.212,9.475,9.475,0,0,0-.471-4.283c-.6-1.863-4.539-12.848-5.193-14.025Z" transform="translate(-252.315 -178.99)"/><path class="c" d="M335.859,381.29c-1.071,0-1.071,1.285-1.135,3.9a18.725,18.725,0,0,0,.61,8.351c2.73,4.283,5.921,4.047,9.24,8.362,2.666,3.458,6.52,7.869,13.918,8.265,9.122.482,12.848-5.021,10.374-7.13-2.7-2.323-9.186-5.225-16.916-14.282C348.15,384.245,335.859,381.29,335.859,381.29Z" transform="translate(-250.564 -178.672)"/><path class="h" d="M344.274,361.22s2.056,18.051,4.754,22.8c2.569,4.529,6.745,9.314,10.621,13.543.835.921,2.7,2.666,3.437,3.362,1.627,1.531.353,2.473-1.21,2.784-3.662.7-7.227-.31-11.263-3.212-4.657-3.3-6.5-5.91-10.567-9.8a18.062,18.062,0,0,1-3.319-4.068,6.294,6.294,0,0,1-.642-3.212,11.831,11.831,0,0,0-.278-3.672c-.257-1.146-4.09-12.216-5.086-15.053Z" transform="translate(-250.831 -180.089)"/><path class="d" d="M301.109,345.63c2.462,1.552,1.981,3.126,2.42,8.2.535,6.317,1.349,7.344,5.417,18.468,4.283,11.777,6.97,18.779,6.97,18.779s7.419.867,12.612-3.447c0,0-5.043-45.309-7.419-51.915s-24.089-25.931-24.089-25.931,2.484-10.567,4.283-18.265l-43.371,2.762c0-.139-3.265,12.366-1.071,20.342s6.574,13.062,20.256,19.7C286.452,338.885,298.422,344.495,301.109,345.63Z" transform="translate(-256.101 -185.012)"/><path class="d" d="M324.183,335.232c1.9,1.242.974,5.1,2.495,13.158.953,5.011,3.512,12.12,5.985,19.132s4.465,13.126,4.465,13.126c2.345.846,10.556-.289,12.612-2.141,0,0-3.865-47.054-6.863-54.6s-15.931-14.678-23.308-18.939-11.52-6.906-19.946-12.623L281.711,279.87c-1.37,7.709-1.788,12.077.921,19.86s9.025,20.149,19.9,26.241C311.528,331.014,321.528,334.044,324.183,335.232Z" transform="translate(-254.369 -185.835)"/><path class="d" d="M299.77,302.15a61.108,61.108,0,0,1-5.449,6.884l1.542,1.306a22.023,22.023,0,0,0,3.908-8.19Z" transform="translate(-253.402 -184.261)"/><path class="h" d="M290.14,239.312c4.668-.3,9.8,1.6,11.648,6.991s8.619,33.072,8.619,33.072,13.179,8.19,20.492,11.852l-7.923,6.424s-17.88-6.167-21.027-7.676-3.083-2.388-6.509-13.415C290.558,260.8,290.14,239.312,290.14,239.312Z" transform="translate(-253.697 -188.701)"/><path class="i" d="M273.277,239.962a47.385,47.385,0,0,0-9.058,1.349s5.407,6.424,1.927,17.772c-2.462,8.051-4.432,8.4-9.047,9.946,3.212,13.661.45,29.271.45,29.271s8.115,10.107,26.926,8.4c16.53-1.5,16.8-11.477,16.8-11.477l-4.283-7.28,1.36-16.445s7.494-4.283,4.925-13.918c-2.345-8.715-10.76-18.265-10.76-18.265a28.21,28.21,0,0,0-5.835-.246S278.77,239.62,273.277,239.962Z" transform="translate(-256.031 -188.72)"/><path class="j" d="M277.107,193.068a26,26,0,0,0-11.466,5.353c-5.246,4.465-8.3,11.317-6.97,18.2,1.97,10.192,7.548,14.218,12.848,20.6l7.848-1.3a34.511,34.511,0,0,1,4.657-.728,9.507,9.507,0,0,0,5.835-2.559,13.3,13.3,0,0,0,4.475-7.494c.278-1.456.343-3.062,1.274-4.283a12.228,12.228,0,0,1,3.062-2.141,8.03,8.03,0,0,0,2.944-9.24,4.647,4.647,0,0,0-2.323-8.811,11.873,11.873,0,0,0,.867-3.833,4.8,4.8,0,0,0-1.37-3.576c-1.328-1.2-3.3-1.263-5.085-1.21-3.094.1-6.135.161-9.229.278A39.546,39.546,0,0,0,277.107,193.068Z" transform="translate(-255.942 -192.038)"/><path class="h" d="M294.508,204.31c2.43,1.424,5.257,5.353,5.021,18.2-.2,10.878-3.715,13.576-5.482,14.357s-5.182.332-8.5-.2v4.5s3.587,6.991,2.891,12.077c-.4,2.976-5.985.332-10.289-2.57A26.424,26.424,0,0,1,271.094,243V227.628s-1.6,1.6-4.09,0c-2.666-1.724-3.8-6.231-1.681-8.4s5.632-2.056,6.52,1.413c0,0-.214-5.492,7.655-8.255C285.333,210.306,292.174,209.727,294.508,204.31Z" transform="translate(-255.528 -191.171)"/><path class="j" d="M274.875,213.6c-.846.9-1.542,5.589-1.52,8a2.141,2.141,0,0,1-2.034,2.206h0v-3.833S270.978,213.152,274.875,213.6Z" transform="translate(-255.027 -190.517)"/><path class="j" d="M285.008,219.031a1.52,1.52,0,0,1-1.4,1.627,1.542,1.542,0,0,1-1.585-1.477,1.5,1.5,0,1,1,2.987-.15Z" transform="translate(-254.271 -190.239)"/><path class="k" d="M284.428,226.69l5.749,1.809a2.955,2.955,0,0,1-3.715,2.077,3.212,3.212,0,0,1-2.034-3.886Z" transform="translate(-254.109 -189.591)"/><path class="l" d="M285.27,227.83a2.549,2.549,0,0,0-.91.182A3.094,3.094,0,0,0,286.5,230.5a2.784,2.784,0,0,0,1.178.118,2.24,2.24,0,0,0,0-.375,2.409,2.409,0,0,0-2.409-2.409Z" transform="translate(-254.106 -189.51)"/><path class="j" d="M295.834,213.131l-3.554-.385a1.788,1.788,0,1,1,3.555.385Z" transform="translate(-253.546 -190.688)"/><path class="j" d="M283.514,213.616,280.3,215.2a1.791,1.791,0,1,1,3.212-1.585Z" transform="translate(-254.405 -190.585)"/><path class="j" d="M295.2,218.418a1.51,1.51,0,0,1-1.4,1.627,1.531,1.531,0,0,1-1.574-1.477,1.51,1.51,0,0,1,1.4-1.627A1.531,1.531,0,0,1,295.2,218.418Z" transform="translate(-253.551 -190.279)"/><path class="l" d="M289.447,226.5l4.122-1.884-4.839-6.52Z" transform="translate(-253.797 -190.197)"/><path class="l" d="M284.921,234.863c-3.5-.439-10.706-2.473-11.841-5.353a7.377,7.377,0,0,0,2.548,3.608c2.141,1.831,9.272,3.865,9.272,3.865Z" transform="translate(-254.902 -189.392)"/></g><g transform="translate(51.436 85.941)"><path class="d" d="M310.239,342.564a4.807,4.807,0,0,0-4.283,0,1.542,1.542,0,0,0-.9,1.253l-7.837,78.627h0a1.071,1.071,0,0,0,.621.856,3.362,3.362,0,0,0,3.062,0,1.071,1.071,0,0,0,.632-.856h0l9.636-78.627A1.542,1.542,0,0,0,310.239,342.564Zm99.965,1.253a1.542,1.542,0,0,0-.889-1.253,4.828,4.828,0,0,0-4.336,0,1.542,1.542,0,0,0-.9,1.253l9.636,78.627h0a1.071,1.071,0,0,0,.632.856,3.362,3.362,0,0,0,3.062,0,1.071,1.071,0,0,0,.632-.856h0Zm-50.255,11.5a5.235,5.235,0,0,0-4.754,0,1.67,1.67,0,0,0-.985,1.37l.985,85.543h0a1.188,1.188,0,0,0,.7.942,3.715,3.715,0,0,0,3.362,0,1.156,1.156,0,0,0,.685-.942h0l.985-85.543A1.67,1.67,0,0,0,359.948,355.315Z" transform="translate(-285.499 -267.384)"/><g transform="translate(0 13.644)"><path class="j" d="M356.9,380.13l.278-24.282a1.67,1.67,0,0,0-.985-1.37,5.235,5.235,0,0,0-4.754,0,1.67,1.67,0,0,0-.985,1.37l.278,24.271C352.784,380.173,354.84,380.173,356.9,380.13Z" transform="translate(-281.74 -280.191)"/><path class="j" d="M403.154,343.817a1.542,1.542,0,0,0-.889-1.253,4.828,4.828,0,0,0-4.336,0,1.542,1.542,0,0,0-.9,1.253l3.212,25.749,1.36-.749c1.36-.782,2.634-1.6,3.854-2.43Z" transform="translate(-278.45 -281.028)"/><path class="j" d="M309.87,342.563a4.807,4.807,0,0,0-4.283,0,1.542,1.542,0,0,0-.9,1.253l-2.248,22.537c1.242.846,2.527,1.67,3.908,2.462l1.317.728,3.148-25.7A1.542,1.542,0,0,0,309.87,342.563Z" transform="translate(-285.131 -281.028)"/><path class="c" d="M307.438,302.334c28.147-16.252,73.777-16.252,101.924,0,14.068,8.126,21.145,18.779,21.145,29.41v2.066c0,10.653-7.023,21.306-21.091,29.421-28.147,16.252-73.777,16.252-101.924,0-14.068-8.115-21.091-18.768-21.091-29.421v-2.066C286.346,321.113,293.37,310.46,307.438,302.334Z" transform="translate(-286.263 -284.694)"/><path class="b" d="M307.391,297.294c28.147-16.252,73.777-16.252,101.924,0,14.068,8.126,21.091,18.768,21.091,29.421v3.544c0,10.706-7.023,21.295-21.091,29.421-28.147,16.252-73.777,16.252-101.924,0-14.068-8.126-21.091-20.256-21.091-30.9v-2.034C286.289,316.041,293.313,305.42,307.391,297.294Z" transform="translate(-286.271 -285.05)"/><g class="e" transform="translate(0.029 0.055)"><path class="i" d="M307.391,297.294c28.147-16.252,73.777-16.252,101.924,0,14.068,8.126,21.091,18.768,21.091,29.421v3.544c0,10.706-7.023,21.295-21.091,29.421-28.147,16.252-73.777,16.252-101.924,0-14.068-8.126-21.091-20.256-21.091-30.9v-2.034C286.289,316.041,293.313,305.42,307.391,297.294Z" transform="translate(-286.3 -285.105)"/></g><g class="m" transform="translate(0.029 0.055)"><path d="M307.391,297.294c28.147-16.252,73.777-16.252,101.924,0,14.068,8.126,21.091,18.768,21.091,29.421v3.544c0,10.706-7.023,21.295-21.091,29.421-28.147,16.252-73.777,16.252-101.924,0-14.068-8.126-21.091-20.256-21.091-30.9v-2.034C286.289,316.041,293.313,305.42,307.391,297.294Z" transform="translate(-286.3 -285.105)"/></g><path class="b" d="M409.306,356.139c28.136-16.252,28.136-42.6,0-58.885s-73.777-16.252-101.924,0-28.147,42.59,0,58.885S381.16,372.381,409.306,356.139Z" transform="translate(-286.272 -285.054)"/><g class="n" transform="translate(0.064)"><path class="i" d="M409.366,356.139c28.136-16.252,28.136-42.6,0-58.885s-73.777-16.252-101.924,0-28.147,42.59,0,58.885S381.262,372.381,409.366,356.139Z" transform="translate(-286.332 -285.054)"/></g></g><g transform="translate(3.927)"><g class="m" transform="translate(0 20.738)"><path d="M371.372,308.692l-29.1-16.787a1.66,1.66,0,0,0-1.67,0l-50.469,29.143a.364.364,0,0,0,0,.642L319.5,338.649Z" transform="translate(-289.94 -291.679)"/></g><path class="d" d="M369.147,304.27v.653a2.7,2.7,0,0,1-1.338,2.323L320.786,334.4a2.687,2.687,0,0,1-1.338.353,2.762,2.762,0,0,1-1.349-.353l-25.631-14.753a2.687,2.687,0,0,1-1.338-2.323v-.91h0a.343.343,0,0,0,.171.3l28.147,16.252Z" transform="translate(-289.856 -270.053)"/><path class="j" d="M317.57,332.963v1.788a2.72,2.72,0,0,0,1.338-.353l47.022-27.151a2.666,2.666,0,0,0,1.338-2.323v-.653Z" transform="translate(-287.989 -270.053)"/><path class="c" d="M369.145,305.343l-27.836-16.059a1.649,1.649,0,0,0-1.606,0l-48.371,27.933a.364.364,0,0,0,0,.621l28.147,16.241Z" transform="translate(-289.854 -271.126)"/><g transform="translate(12.526 3.844)"><path class="h" d="M308.192,275.9c3.8,2.238,8.565,5.171,11.359,6.713s4.807,2.4,7.933,3.951c2.4,1.188,5.417,2.205,7.163,3.833s10.706,10.481,12.6,12,.974,3.212-2.666,4.283a10.91,10.91,0,0,1-8.694-.9,35.992,35.992,0,0,1-5.931-4.4,9.089,9.089,0,0,1-4.8-1.627c-1.906-1.552-3.041-3.394-4.133-4.282s-11.509-4.818-19.389-7.837Z" transform="translate(-301.64 -275.9)"/></g><path class="d" d="M318.322,331.107l-15.042-8.672,43.971-25.385,15.117,8.629Z" transform="translate(-288.998 -270.563)"/><path class="j" d="M362.367,305.679l-.578.332-14.539-8.3-43.393,25.053-.567-.332,43.96-25.385Z" transform="translate(-288.997 -270.563)"/><path class="j" d="M310.43,306.839l.268.161,7.377,4.25,13.1-7.569.268-.15L323.8,299.12Z" transform="translate(-288.493 -270.416)"/><path class="d" d="M310.68,306.979l7.377,4.25,13.1-7.569-7.377-4.25Z" transform="translate(-288.475 -270.396)"/><path class="d" d="M318.28,335.584a3.212,3.212,0,0,0,2.741-.214l46.808-27.023a3.212,3.212,0,0,0,1.552-2.227l5.128-30.556a4.451,4.451,0,0,0,0-.525,3.212,3.212,0,0,0-.931-2.27l-48.617,28.083a2.355,2.355,0,0,0-1.146,1.649Z" transform="translate(-287.938 -272.277)"/><path class="c" d="M317.57,335.22l.321.182a2.381,2.381,0,0,0,.439.214l5.535-33.072a2.355,2.355,0,0,1,1.146-1.649L373.7,272.8a3.725,3.725,0,0,0-.653-.493l-48.789,28.147a2.355,2.355,0,0,0-1.146,1.649Z" transform="translate(-287.989 -272.31)"/><path class="j" d="M324.315,299.618l-.749-.428a2.3,2.3,0,0,0-.45,1.017l-5.546,33.115.321.182a2.378,2.378,0,0,0,.439.214l5.535-33.072A2.4,2.4,0,0,1,324.315,299.618Z" transform="translate(-287.989 -270.411)"/><path class="b" d="M342.9,305.536c.343-2.045,2.452-4.764,4.721-6.07s3.822-.707,3.469,1.338-2.452,4.764-4.711,6.07S342.561,307.581,342.9,305.536Z" transform="translate(-286.203 -270.441)"/></g><g transform="translate(20.608 47.505)"><g class="o" transform="translate(0.33 26.629)"><path d="M383.647,341.52c4.539,2.612,4.539,6.863,0,9.475a18.1,18.1,0,0,1-16.413,0c-4.539-2.612-4.539-6.863,0-9.475a18.1,18.1,0,0,1,16.413,0Z" transform="translate(-363.83 -339.553)"/></g><g transform="translate(0)"><path class="d" d="M367.974,347.607c-4-4.09-6.36-14.293-2.452-17.537h19.924c3.9,3.212,1.552,13.436-2.452,17.526l-.107.118-.139.128a3.4,3.4,0,0,1-.364.321l-.15.032-.3.236c-.171.118-.343.236-.514.332a13.244,13.244,0,0,1-11.938,0h0c-.171-.1-.343-.214-.514-.332l-.289-.214-.118-.1-.343-.31-.161-.161Z" transform="translate(-363.521 -313.594)"/><path class="c" d="M383.647,328.979c4.539,2.623,4.539,6.863,0,9.486a18.2,18.2,0,0,1-16.413,0c-4.539-2.623-4.539-6.863,0-9.486A18.2,18.2,0,0,1,383.647,328.979Z" transform="translate(-363.5 -313.809)"/><path class="j" d="M380.136,330.669c2.762,1.585,2.762,4.175,0,5.76a11.027,11.027,0,0,1-9.989,0c-2.762-1.585-2.762-4.175,0-5.76a11.027,11.027,0,0,1,9.989,0Z" transform="translate(-363.2 -313.636)"/><path class="p" d="M370.109,333.218a11.092,11.092,0,0,1,9.989,0,4.625,4.625,0,0,1,1.659,1.52,4.6,4.6,0,0,1-1.659,1.51,11.027,11.027,0,0,1-9.989,0,4.475,4.475,0,0,1-1.649-1.51A4.5,4.5,0,0,1,370.109,333.218Z" transform="translate(-363.173 -313.455)"/><path class="b" d="M380.32,335.868a24.45,24.45,0,0,0,3.972-5.267c1.82-3.212,2.141-7.569,1.221-8.1s-4.8,3.79-4.8,3.79a23.082,23.082,0,0,0,.4-5.524c-.161-2.88-.856-5.492-1.681-6.028s-2.677,3.116-3.469,5.749-1.263,4.8-1.263,4.8a39.528,39.528,0,0,0-1.424-6.06c-.953-2.741-1.831-3.362-2.505-3.083s-1.071,1.542-1.317,5.182a36.065,36.065,0,0,0,.161,5.214s-1.36-1.488-2.859-2.934c-1.659-1.6-2.366-1.809-2.837-1.51s-.61,2.773,1.959,7.419a25.7,25.7,0,0,0,4.839,6.359S374.26,338.159,380.32,335.868Z" transform="translate(-363.513 -314.681)"/><g class="q" transform="translate(0.133)"><path d="M380.32,335.868a24.45,24.45,0,0,0,3.972-5.267c1.82-3.212,2.141-7.569,1.221-8.1s-4.8,3.79-4.8,3.79a23.082,23.082,0,0,0,.4-5.524c-.161-2.88-.856-5.492-1.681-6.028s-2.677,3.116-3.469,5.749-1.263,4.8-1.263,4.8a39.528,39.528,0,0,0-1.424-6.06c-.953-2.741-1.831-3.362-2.505-3.083s-1.071,1.542-1.317,5.182a36.065,36.065,0,0,0,.161,5.214s-1.36-1.488-2.859-2.934c-1.659-1.6-2.366-1.809-2.837-1.51s-.61,2.773,1.959,7.419a25.7,25.7,0,0,0,4.839,6.359S374.26,338.159,380.32,335.868Z" transform="translate(-363.645 -314.681)"/></g><g class="m" transform="translate(14.431 2.944)"><path d="M377,329.207s2.569-6.8,2.73-11.777a20.443,20.443,0,0,1,.4,3.1,23.081,23.081,0,0,1-.4,5.524A10.609,10.609,0,0,1,377,329.207Z" transform="translate(-377 -317.43)"/></g><g class="m" transform="translate(10.416 9.614)"><path d="M373.25,336.186a13.233,13.233,0,0,0,5.439-2.227c2.548-1.9,6.263-7.9,6.649-10.3a13.746,13.746,0,0,1-1.724,6.306,24.451,24.451,0,0,1-3.972,5.268,13.811,13.811,0,0,1-6.392.953Z" transform="translate(-373.25 -323.66)"/></g></g></g></g><g transform="translate(15.334 52.591)"><path class="h" d="M291.435,314.23c-1.349-1.146-25.7-8.876-29.742-11.049s-4.218-3.437-5.353-9.571c-1.659-8.918-3.287-27.322-3.758-37.815-.236-5.482.674-13.03,11.97-14.635,2.527,2.719,6.231,7.494,3.555,21.188.428,5.353,1.959,29.892,1.959,29.892,3.49,1.809,12.323,6.156,18.511,8.758,3.694,1.552,6.263,2.644,9.443,4.218,2.441,1.221,5.514,2.248,7.3,3.908s10.845,10.706,12.848,12.216,1,3.212-2.709,4.336a11.081,11.081,0,0,1-8.854-.921,36.735,36.735,0,0,1-6.038-4.475,9.25,9.25,0,0,1-4.882-1.659C293.715,317,292.549,315.173,291.435,314.23Z" transform="translate(-252.552 -241.16)"/></g></g></g><g transform="translate(695.03 5019.849)"><path class="b" d="M375.987,247.492a11.974,11.974,0,0,0-4.433-4.1c-7.25-4.163-19-4.163-26.252,0a11.974,11.974,0,0,0-4.433,4.1h-1v3.788h0c.139,2.636,1.943,5.252,5.425,7.264,7.25,4.163,19,4.163,26.252,0,3.469-2.012,5.3-4.627,5.432-7.264h0v-3.788Z" transform="translate(-0.003 -3.834)"/><g class="q" transform="translate(339.867 236.436)"><path d="M375.987,247.492a11.974,11.974,0,0,0-4.433-4.1c-7.25-4.163-19-4.163-26.252,0a11.974,11.974,0,0,0-4.433,4.1h-1v3.788h0c.139,2.636,1.943,5.252,5.425,7.264,7.25,4.163,19,4.163,26.252,0,3.469-2.012,5.3-4.627,5.432-7.264h0v-3.788Z" transform="translate(-339.87 -240.27)"/></g><g class="m" transform="translate(339.867 236.415)"><path d="M358.428,240.24a26.811,26.811,0,0,0-13.126,3.143,11.974,11.974,0,0,0-4.433,4.1h-1v3.788h0c.139,2.636,1.943,5.252,5.425,7.264a26.964,26.964,0,0,0,13.126,3.143Z" transform="translate(-339.87 -240.24)"/></g><g class="m" transform="translate(339.86 238.156)"><path d="M348.282,242.75a20.765,20.765,0,0,0-2.99,1.388,11.974,11.974,0,0,0-4.433,4.1h-1v3.788h0c.139,2.636,1.943,5.252,5.425,7.264a20.764,20.764,0,0,0,2.99,1.388Z" transform="translate(-339.86 -242.75)"/></g><path class="b" d="M381.23,242.75a21.12,21.12,0,0,1,2.99,1.387,11.974,11.974,0,0,1,4.433,4.1h1v3.788h0c-.132,2.636-1.949,5.252-5.432,7.264a21.12,21.12,0,0,1-2.99,1.387Z" transform="translate(-12.669 -4.594)"/><path class="b" d="M371.551,238.382c-7.25-4.163-19-4.163-26.252,0s-7.25,10.968,0,15.152,19,4.163,26.252,0S378.808,242.565,371.551,238.382Z" transform="translate(-0.001 -2.3)"/><g class="r" transform="translate(339.862 232.96)"><path d="M371.551,238.382c-7.25-4.163-19-4.163-26.252,0s-7.25,10.968,0,15.152,19,4.163,26.252,0S378.808,242.565,371.551,238.382Z" transform="translate(-339.863 -235.26)"/></g><path class="b" d="M369.731,242.955a20.93,20.93,0,0,0-17.094,0c-2.428,1.242-3.767,2.948-3.767,4.8s1.339,3.559,3.767,4.8a20.861,20.861,0,0,0,17.094,0c2.428-1.242,3.76-2.948,3.76-4.8S372.159,244.2,369.731,242.955Z" transform="translate(-2.759 -4.098)"/><g class="e" transform="translate(346.111 237.032)"><path d="M369.731,242.955a20.93,20.93,0,0,0-17.094,0c-2.428,1.242-3.767,2.948-3.767,4.8s1.339,3.559,3.767,4.8a20.861,20.861,0,0,0,17.094,0c2.428-1.242,3.76-2.948,3.76-4.8S372.159,244.2,369.731,242.955Z" transform="translate(-348.87 -241.13)"/></g><path class="b" d="M371.55,239.432a28.185,28.185,0,0,0-25.433,0c-3.247,1.873-5.037,4.315-5.037,6.875s1.79,5.009,5.037,6.882a28.243,28.243,0,0,0,25.433,0c3.247-1.873,5.037-4.322,5.037-6.882S374.762,241.3,371.55,239.432Zm-4.163,11.676a20.861,20.861,0,0,1-17.094,0c-2.428-1.242-3.767-2.948-3.767-4.8s1.339-3.559,3.767-4.8a20.931,20.931,0,0,1,17.094,0c2.428,1.242,3.76,2.948,3.76,4.8s-1.374,3.559-3.8,4.8Z" transform="translate(-0.374 -2.649)"/><g class="r" transform="translate(346.751 237.663)"><path d="M369.722,252.272c4.558-2.345,4.558-6.133,0-8.478s-11.953-2.338-16.511,0-4.558,6.133,0,8.478S365.2,254.61,369.722,252.272Z" transform="translate(-349.793 -242.039)"/></g><path class="b" d="M369.722,252.272c4.558-2.345,4.558-6.133,0-8.478s-11.953-2.338-16.511,0-4.558,6.133,0,8.478S365.2,254.61,369.722,252.272Z" transform="translate(-3.042 -4.376)"/><g class="s" transform="translate(346.751 237.663)"><path d="M369.722,252.272c4.558-2.345,4.558-6.133,0-8.478s-11.953-2.338-16.511,0-4.558,6.133,0,8.478S365.2,254.61,369.722,252.272Z" transform="translate(-349.793 -242.039)"/></g><path class="b" d="M369.767,246.086c-4.565-2.338-11.953-2.338-16.511,0-1.887.971-2.99,2.185-3.316,3.469.326,1.263,1.429,2.477,3.316,3.469,4.558,2.338,11.953,2.338,16.511,0,1.88-.971,2.983-2.185,3.309-3.469C372.751,248.264,371.648,247.057,369.767,246.086Z" transform="translate(-3.087 -5.078)"/><g class="f" transform="translate(346.853 239.254)"><path d="M369.767,246.086c-4.565-2.338-11.953-2.338-16.511,0-1.887.971-2.99,2.185-3.316,3.469.326,1.263,1.429,2.477,3.316,3.469,4.558,2.338,11.953,2.338,16.511,0,1.88-.971,2.983-2.185,3.309-3.469C372.751,248.264,371.648,247.057,369.767,246.086Z" transform="translate(-349.94 -244.333)"/></g><path class="b" d="M367.475,244.71v1.707l-.583.617-1.082,1.131v-1.776Z" transform="translate(-7.947 -5.194)"/><g class="g" transform="translate(357.863 239.516)"><path d="M367.475,244.71v1.707l-.583.617-1.082,1.131v-1.776Z" transform="translate(-365.81 -244.71)"/></g><path class="b" d="M364.49,247.054v1.013a9.981,9.981,0,0,1-1.658.472,1.734,1.734,0,0,1-.694,0,1.755,1.755,0,0,1-.34-.139c-.409-.243-.479-.611.305-1.061A2.775,2.775,0,0,1,364.49,247.054Z" transform="translate(-6.627 -5.866)"/><g class="t" transform="translate(354.872 241.039)"><path d="M364.49,247.054v1.013a9.981,9.981,0,0,1-1.658.472,1.734,1.734,0,0,1-.694,0,1.755,1.755,0,0,1-.34-.139c-.409-.243-.479-.611.305-1.061A2.775,2.775,0,0,1,364.49,247.054Z" transform="translate(-361.499 -246.905)"/></g><path class="b" d="M370.655,251.5v1.478l-1.873,1.082-1.388-.8a7.063,7.063,0,0,1-5.363.243V252.02l.846-.846-.846.236a5.453,5.453,0,0,1-4.163-.479c-.839-.479-1.228-1.013-1.228-1.554V247.94l.153-.624-.513-.3V245.54l1.387.8a2.137,2.137,0,0,0-1.027,1.589h0c0,.534.409,1.048,1.228,1.519,1.818,1.055,3.621.694,5.273.173,1.54-.5,2.657-1.089,3.545-.576.548.319.382.694-.236,1.061a3.059,3.059,0,0,1-2.636.153l-1.769,1.755a5.776,5.776,0,0,0,.978.284,7.264,7.264,0,0,0,4.384-.527l1.388.8Z" transform="translate(-5.029 -5.448)"/><g class="u" transform="translate(351.591 241.868)"><path d="M356.77,248.724h0c0,.534.409,1.048,1.228,1.519,1.818,1.055,3.621.694,5.273.173,1.54-.5,2.657-1.089,3.545-.576.548.319.382.694-.236,1.061a3.06,3.06,0,0,1-2.636.153l-1.769,1.755a5.777,5.777,0,0,0,.978.284,7.263,7.263,0,0,0,4.385-.527l1.388.8,1.873-1.082v1.478l-1.873,1.082-1.388-.8a7.062,7.062,0,0,1-5.363.243v-1.478l.846-.846-.846.236a5.453,5.453,0,0,1-4.163-.479c-.839-.479-1.228-1.013-1.228-1.554v-1.443l.153-.624" transform="translate(-356.77 -248.1)"/></g><g class="t" transform="translate(351.231 240.085)"><path d="M356.25,245.53v1.478l.513.3h0a3.122,3.122,0,0,1,.881-.978Z" transform="translate(-356.25 -245.53)"/></g><path class="b" d="M376.061,252.207a1.638,1.638,0,0,1-.139.694l-.923-.513A1.845,1.845,0,0,0,376.061,251C376.055,251.354,376.061,252.165,376.061,252.207Z" transform="translate(-10.762 -7.12)"/><g class="g" transform="translate(364.238 243.88)"><path d="M376.061,252.207a1.638,1.638,0,0,1-.139.694l-.923-.513A1.845,1.845,0,0,0,376.061,251C376.055,251.354,376.061,252.165,376.061,252.207Z" transform="translate(-375 -251)"/></g><path class="b" d="M370.328,250.847l-1.061-.6a1.832,1.832,0,0,0,1.075-1.644q0-.073,0-.146a2.033,2.033,0,0,0-1.2-1.45h0a4.925,4.925,0,0,0-2.491-.645h-.881a9.9,9.9,0,0,0-1.214.25q-.278.069-.562.167l-.784.257-.3.1a9.345,9.345,0,0,1-1.658.472,1.734,1.734,0,0,1-.694,0,1.769,1.769,0,0,1-.333-.139c-.416-.243-.486-.611.3-1.061a2.726,2.726,0,0,1,2.407-.25l1.665-1.679a7.1,7.1,0,0,0-5.023.277L358.167,244l-1.887,1.089,1.387.8a2.081,2.081,0,0,0-1.027,1.589h0c0,.534.4,1.048,1.228,1.519,1.818,1.055,3.628.694,5.279.173,1.533-.5,2.65-1.089,3.538-.576.548.319.382.694-.236,1.061a3.059,3.059,0,0,1-2.636.153l-1.776,1.755a6.4,6.4,0,0,0,2.692.416,7.868,7.868,0,0,0,2.671-.659l1.388.8,1.873-1.082Z" transform="translate(-5.029 -4.977)"/><path class="b" d="M372.28,254.53v1.478l1.388.8v-1.478Z" transform="translate(-9.929 -8.201)"/><g class="t" transform="translate(362.351 246.329)"><path d="M372.28,254.53v1.478l1.388.8v-1.478Z" transform="translate(-372.28 -254.53)"/></g><path class="v" d="M356.25,245.049l1.887-1.089,1.388.8-1.374-.576Z" transform="translate(-5.019 -4.964)"/><path class="v" d="M362.34,246.639a2.726,2.726,0,0,1,2.407-.25l1.665-1.679-1.665,1.505a2.525,2.525,0,0,0-2.407.423Z" transform="translate(-6.884 -5.194)"/><path class="v" d="M364.55,254.105a6.4,6.4,0,0,0,2.692.416,5.987,5.987,0,0,1-2.407-.486l1.492-1.686Z" transform="translate(-7.561 -7.534)"/><path class="v" d="M372.28,254.408l1.388.631,1.873-.909-1.873,1.082Z" transform="translate(-9.929 -8.079)"/><path class="v" d="M346.2,239.681c4.912-2.99,12.578-3.281,12.578-3.281a25.8,25.8,0,0,0-12.716,3.032c-3.247,1.873-5.037,4.315-5.037,6.875C341.009,246.307,341.21,242.713,346.2,239.681Z" transform="translate(-0.358 -2.649)"/><path class="v" d="M364.55,260.84a27.566,27.566,0,0,0,14.569-3.108c4.163-2.393,5.918-5.64,5.321-8.762,0,0,.77,5.092-5.64,8.575S364.55,260.84,364.55,260.84Z" transform="translate(-7.561 -6.499)"/><path class="b" d="M377.577,239.982a11.919,11.919,0,0,0-4.433-4.1c-7.243-4.163-18.995-4.163-26.245,0a11.974,11.974,0,0,0-4.433,4.1H341.46v3.788h0c.132,2.636,1.943,5.252,5.425,7.264,7.25,4.163,19,4.163,26.245,0,3.469-2.012,5.307-4.627,5.439-7.264h0v-3.788Z" transform="translate(-0.49 -1.534)"/><g class="q" transform="translate(340.97 231.226)"><path d="M377.577,239.982a11.919,11.919,0,0,0-4.433-4.1c-7.243-4.163-18.995-4.163-26.245,0a11.974,11.974,0,0,0-4.433,4.1H341.46v3.788h0c.132,2.636,1.943,5.252,5.425,7.264,7.25,4.163,19,4.163,26.245,0,3.469-2.012,5.307-4.627,5.439-7.264h0v-3.788Z" transform="translate(-341.46 -232.76)"/></g><g class="m" transform="translate(340.97 231.205)"><path d="M360.025,232.73a26.793,26.793,0,0,0-13.126,3.143,11.974,11.974,0,0,0-4.433,4.1H341.46v3.788h0c.132,2.636,1.943,5.252,5.425,7.264a26.942,26.942,0,0,0,13.126,3.136Z" transform="translate(-341.46 -232.73)"/></g><g class="m" transform="translate(340.97 232.946)"><path d="M349.882,235.24a19.607,19.607,0,0,0-2.983,1.387,11.974,11.974,0,0,0-4.433,4.1H341.46v3.788h0c.132,2.636,1.942,5.252,5.425,7.264a21.035,21.035,0,0,0,2.983,1.388Z" transform="translate(-341.46 -235.24)"/></g><path class="b" d="M382.83,235.24a19.3,19.3,0,0,1,2.983,1.388,11.919,11.919,0,0,1,4.433,4.1h1.027v3.788h0c-.132,2.636-1.949,5.252-5.439,7.264a20.68,20.68,0,0,1-2.983,1.388Z" transform="translate(-13.159 -2.294)"/><path class="b" d="M373.144,230.872c-7.243-4.163-18.995-4.163-26.245,0s-7.25,10.968,0,15.152,19,4.163,26.245,0S380.394,235.055,373.144,230.872Z" transform="translate(-0.491)"/><g class="r" transform="translate(340.972 227.75)"><path d="M373.144,230.872c-7.243-4.163-18.995-4.163-26.245,0s-7.25,10.968,0,15.152,19,4.163,26.245,0S380.394,235.055,373.144,230.872Z" transform="translate(-341.462 -227.75)"/></g><path class="b" d="M371.331,235.438a21.007,21.007,0,0,0-17.094,0c-2.428,1.249-3.767,2.955-3.767,4.808s1.339,3.559,3.767,4.8a20.861,20.861,0,0,0,17.094,0c2.421-1.242,3.76-2.948,3.76-4.8S373.732,236.659,371.331,235.438Z" transform="translate(-3.249 -1.798)"/><g class="e" transform="translate(347.221 231.823)"><path d="M371.331,235.438a21.007,21.007,0,0,0-17.094,0c-2.428,1.249-3.767,2.955-3.767,4.808s1.339,3.559,3.767,4.8a20.861,20.861,0,0,0,17.094,0c2.421-1.242,3.76-2.948,3.76-4.8S373.732,236.659,371.331,235.438Z" transform="translate(-350.47 -233.62)"/></g><path class="b" d="M373.1,231.922a28.2,28.2,0,0,0-25.44,0c-3.247,1.873-5.03,4.308-5.03,6.875s1.783,5,5.03,6.875a28.2,28.2,0,0,0,25.44,0c3.247-1.873,5.037-4.315,5.037-6.875S376.346,233.823,373.1,231.922ZM368.937,243.6a20.861,20.861,0,0,1-17.094,0c-2.428-1.242-3.767-2.948-3.767-4.8s1.339-3.559,3.767-4.808a21.007,21.007,0,0,1,17.094,0c2.393,1.221,3.781,2.955,3.781,4.808s-1.388,3.559-3.788,4.8Z" transform="translate(-0.848 -0.349)"/><g class="r" transform="translate(347.861 232.455)"><path d="M371.315,244.757c4.565-2.338,4.558-6.133,0-8.471s-11.946-2.338-16.5,0-4.558,6.133,0,8.471S366.757,247.1,371.315,244.757Z" transform="translate(-351.392 -234.533)"/></g><path class="b" d="M371.315,244.757c4.565-2.338,4.558-6.133,0-8.471s-11.946-2.338-16.5,0-4.558,6.133,0,8.471S366.757,247.1,371.315,244.757Z" transform="translate(-3.532 -2.077)"/><g class="s" transform="translate(347.861 232.455)"><path d="M371.315,244.757c4.565-2.338,4.558-6.133,0-8.471s-11.946-2.338-16.5,0-4.558,6.133,0,8.471S366.757,247.1,371.315,244.757Z" transform="translate(-351.392 -234.533)"/></g><path class="b" d="M371.361,238.576c-4.558-2.338-11.946-2.338-16.5,0a5.853,5.853,0,0,0-3.316,3.469c.326,1.263,1.429,2.477,3.316,3.469,4.558,2.345,11.946,2.345,16.5,0,1.887-.964,2.99-2.178,3.316-3.469A5.853,5.853,0,0,0,371.361,238.576Z" transform="translate(-3.577 -2.778)"/><g class="f" transform="translate(347.963 234.044)"><path d="M371.361,238.576c-4.558-2.338-11.946-2.338-16.5,0a5.853,5.853,0,0,0-3.316,3.469c.326,1.263,1.429,2.477,3.316,3.469,4.558,2.345,11.946,2.345,16.5,0,1.887-.964,2.99-2.178,3.316-3.469A5.853,5.853,0,0,0,371.361,238.576Z" transform="translate(-351.54 -236.823)"/></g><path class="b" d="M369.075,237.19V238.9l-.583.617-1.082,1.131v-1.783Z" transform="translate(-8.437 -2.891)"/><g class="g" transform="translate(358.973 234.299)"><path d="M369.075,237.19V238.9l-.583.617-1.082,1.131v-1.783Z" transform="translate(-367.41 -237.19)"/></g><path class="b" d="M366.087,239.544v1.013a10.028,10.028,0,0,1-1.665.472,1.707,1.707,0,0,1-.694,0,2.081,2.081,0,0,1-.34-.139c-.409-.25-.479-.611.305-1.061A2.775,2.775,0,0,1,366.087,239.544Z" transform="translate(-7.114 -3.566)"/><g class="t" transform="translate(355.975 235.827)"><path d="M366.087,239.544v1.013a10.028,10.028,0,0,1-1.665.472,1.707,1.707,0,0,1-.694,0,2.081,2.081,0,0,1-.34-.139c-.409-.25-.479-.611.305-1.061A2.775,2.775,0,0,1,366.087,239.544Z" transform="translate(-363.089 -239.393)"/></g><path class="b" d="M372.235,243.98v1.478l-1.873,1.082-1.388-.8a7.055,7.055,0,0,1-5.363.243V244.5l.853-.846-.853.236a5.439,5.439,0,0,1-4.163-.479c-.846-.486-1.235-1.013-1.228-1.561v-1.436l.146-.631-.506-.291V238l1.388.8a2.081,2.081,0,0,0-1.027,1.589h0c0,.534.409,1.048,1.228,1.519,1.818,1.055,3.621.694,5.273.173,1.54-.5,2.657-1.089,3.545-.576.548.319.382.694-.236,1.061a3.059,3.059,0,0,1-2.636.153l-1.776,1.755a7,7,0,0,0,.978.284,7.249,7.249,0,0,0,4.384-.527l1.388.8Z" transform="translate(-5.512 -3.139)"/><g class="u" transform="translate(352.701 236.63)"><path d="M358.37,241.181h0c0,.534.409,1.048,1.228,1.519,1.818,1.055,3.621.694,5.273.173,1.54-.5,2.657-1.089,3.545-.576.548.319.382.694-.236,1.061a3.06,3.06,0,0,1-2.636.153l-1.776,1.755a7,7,0,0,0,.978.284,7.249,7.249,0,0,0,4.385-.527l1.387.8,1.873-1.082v1.478l-1.873,1.082-1.387-.8a7.055,7.055,0,0,1-5.363.243v-1.478l.853-.846-.853.236a5.439,5.439,0,0,1-4.163-.479c-.846-.486-1.235-1.013-1.228-1.561v-1.436l.146-.631" transform="translate(-358.37 -240.55)"/></g><g class="t" transform="translate(352.341 234.861)"><path d="M357.85,238v1.485l.506.291h0a2.969,2.969,0,0,1,.881-.978Z" transform="translate(-357.85 -238)"/></g><path class="b" d="M377.655,244.67a1.776,1.776,0,0,1-.139.694l-.937-.534a1.845,1.845,0,0,0,1.061-1.429C377.648,243.816,377.655,244.628,377.655,244.67Z" transform="translate(-11.245 -4.793)"/><g class="g" transform="translate(365.335 238.607)"><path d="M377.655,244.67a1.776,1.776,0,0,1-.139.694l-.937-.534a1.845,1.845,0,0,0,1.061-1.429C377.648,243.816,377.655,244.628,377.655,244.67Z" transform="translate(-376.58 -243.4)"/></g><path class="b" d="M371.919,243.307l-1.075-.624a1.818,1.818,0,0,0,1.075-1.637.944.944,0,0,0,0-.146c-.042-.513-.423-1.006-1.193-1.45h0a4.939,4.939,0,0,0-2.491-.652h-.458a1.663,1.663,0,0,0-.194,0H367.5a.921.921,0,0,0-.146,0,9.643,9.643,0,0,0-1.214.25c-.187.049-.382.1-.562.167l-.784.257-.3.1a9.021,9.021,0,0,1-1.658.479,1.852,1.852,0,0,1-.694,0,2.082,2.082,0,0,1-.34-.139c-.416-.243-.479-.611.305-1.068a2.775,2.775,0,0,1,2.407-.25l1.665-1.679a7.132,7.132,0,0,0-5.023.278l-1.388-.8-1.922,1.117,1.388.8a2.137,2.137,0,0,0-1.034,1.589h0c0,.534.409,1.048,1.235,1.519,1.818,1.055,3.621.694,5.273.173,1.54-.5,2.657-1.089,3.538-.583.555.326.388.694-.229,1.061a3.039,3.039,0,0,1-2.636.16l-1.776,1.755a7.009,7.009,0,0,0,.978.284,6.292,6.292,0,0,0,1.693.18,7.867,7.867,0,0,0,2.671-.652l1.387.8,1.866-1.082Z" transform="translate(-5.509 -2.646)"/><path class="b" d="M373.88,247.02V248.5l1.387.8v-1.478Z" transform="translate(-10.419 -5.901)"/><g class="t" transform="translate(363.461 241.119)"><path d="M373.88,247.02V248.5l1.387.8v-1.478Z" transform="translate(-373.88 -247.02)"/></g><path class="v" d="M357.85,237.536l1.887-1.1,1.388.8-1.374-.569Z" transform="translate(-5.509 -2.661)"/><path class="v" d="M363.94,239.149a2.775,2.775,0,0,1,2.407-.25l1.665-1.679-1.665,1.505a2.525,2.525,0,0,0-2.407.423Z" transform="translate(-7.374 -2.9)"/><path class="v" d="M366.15,246.607a7.009,7.009,0,0,0,.978.284,6.291,6.291,0,0,0,1.693.153,6.056,6.056,0,0,1-2.407-.479l1.492-1.686Z" transform="translate(-8.051 -5.246)"/><path class="v" d="M373.88,246.9l1.387.624,1.866-.9-1.866,1.082Z" transform="translate(-10.419 -5.779)"/><path class="v" d="M347.805,232.171c4.912-2.99,12.571-3.281,12.571-3.281a25.842,25.842,0,0,0-12.716,3.032c-3.247,1.873-5.03,4.308-5.03,6.875C342.63,238.8,342.8,235.21,347.805,232.171Z" transform="translate(-0.848 -0.349)"/><path class="v" d="M366.15,253.33a27.581,27.581,0,0,0,14.569-3.108c4.163-2.393,5.925-5.64,5.328-8.762,0,0,.77,5.085-5.64,8.575S366.15,253.33,366.15,253.33Z" transform="translate(-8.051 -4.199)"/></g><g transform="translate(191 -294)"><path class="i" d="M199.554,190.441a7.8,7.8,0,0,1,3.561-4.578c1.707-.983,2.885-.537,2.62,1.01a7.839,7.839,0,0,1-3.561,4.585C200.467,192.448,199.289,191.988,199.554,190.441Z" transform="translate(667.432 5310.116)"/><path class="w" d="M121.149,251.871c2.014-.509,12.766-6.627,13.86-7.372s3.254-2.286,3.254-4.94c0-2.348-.244-24.493-2.167-35.189a24.834,24.834,0,0,0-11.044-16.305c-6.689-4.146-13.414-7.149-19.079-4.794s-10.835,6.682-13.065,11.909-3.756,15.692-3.916,19.741,0,17.929,0,19.162.223,2.836,6.864,6.968,15.811,9.059,18.647,10.334a10.829,10.829,0,0,0,6.648.488Z" transform="translate(785.006 5295.995)"/><path class="c" d="M121.141,188.988c.613.348,2.383-.523,2.648-.962a10.192,10.192,0,0,0-.989-6.334c-1.324-2.1-9.581-5.965-11.623-5.679a5.693,5.693,0,0,0-3.8,2.425c-.251.537-.53,4.069,0,4.794s2.418-.39,2.585-.7-.62-2.892.7-3.428c1.212-.488,6.968,1.958,9.309,3.923,1.017.857.969,2.982.92,4.035S120.834,188.807,121.141,188.988Z" transform="translate(786.673 5297.949)"/><path class="x" d="M143.164,219.32c-1.185-11.5-3.317-18.222-14.57-23.232s-15.623-.746-17.218,3.094c-2.09,5.379-3.533,15.274-3.686,19.183-.16,4.048,0,17.929,0,19.162s.223,2.836,6.864,6.968,15.811,9.059,18.647,10.334a10.829,10.829,0,0,0,6.648.509,8.851,8.851,0,0,0,1.3-.509C144.648,250.328,144.251,229.828,143.164,219.32Z" transform="translate(766.308 5292.549)"/><path class="j" d="M97.97,189.491c2.941-1.721,7.762-2.857,14.842.3,12.654,5.637,15.866,12.7,17.142,25.085.23,2.272.571,4.975.7,7.881l1.045-.634c-.146-3.136-.453-5.818-.7-8.243-1.394-12.48-5.136-19.378-17.225-24.765-6.7-2.982-11.093-2.592-14.006-1.122A21.929,21.929,0,0,0,97.97,189.491Z" transform="translate(785.267 5294.652)"/><path class="c" d="M98.6,189.975c2.934-1.721,7.763-2.857,14.835.3,12.661,5.637,15.873,12.7,17.149,25.085.23,2.272.571,4.975.7,7.881l1.045-.634c-.146-3.136-.453-5.818-.7-8.243-1.394-12.48-5.136-19.385-17.225-24.765-6.7-2.982-11.212-2.488-14.124-1.024A19.413,19.413,0,0,0,98.6,189.975Z" transform="translate(784.198 5294.488)"/><path class="j" d="M128.651,205.792l3.826-2.188a.822.822,0,0,1,1.115.307l3.923,6.822a.822.822,0,0,1-.293,1.122l-3.777,2.2a.822.822,0,0,1-1.122-.293l-3.972-6.864a.8.8,0,0,1,.3-1.108Z" transform="translate(758.245 5289.611)"/><path class="c" d="M133.019,213.575l-3.77-6.5a.4.4,0,0,1,.153-.557l3.484-1.979a.411.411,0,0,1,.557.153l3.728,6.473a.411.411,0,0,1-.153.557l-3.421,2a.411.411,0,0,1-.578-.146Z" transform="translate(757.981 5289.312)"/><path class="d" d="M136.232,211.376h0a.76.76,0,0,1-.362-.571v-3.115c0-.2.16-.265.362-.153h0a.76.76,0,0,1,.362.571v3.115C136.595,211.424,136.434,211.487,136.232,211.376Z" transform="translate(753.959 5288.403)"/><path class="d" d="M133.332,213.054h0a.78.78,0,0,1-.362-.578v-3.108c0-.2.167-.272.362-.153h0a.746.746,0,0,1,.362.571V212.9C133.674,213.1,133.534,213.166,133.332,213.054Z" transform="translate(758.88 5287.896)"/><path class="j" d="M119.619,244.38s-1.9,1.561-3.261,7.442-2.188,13.288-.7,14.18,3.644-.976,4.181-1.617C120.943,263.069,120.671,249.09,119.619,244.38Z" transform="translate(784.641 5277.216)"/><path class="w" d="M144.51,238.585s-1.9,1.561-3.261,7.442-2.188,13.288-.7,14.18l-22.995-13.56c-1.505-.892-1.874-8.675-.516-14.556.9-3.867,2.55-5.707,3.568-6.515a1.477,1.477,0,0,1,1.651-.1l22.249,13.114" transform="translate(759.75 5283.011)"/><path class="j" d="M120.12,226.932c-1.1.544-2.968,2.042-3.812,6.02a2.989,2.989,0,0,0,.941,3.024c.766.544,17.225,9.9,19.406,11.2,1.881,1.122,2.857-.369,3.268-1.3h0c.7-1.658,1.3-2.948,1.812-3.937a8.25,8.25,0,0,1,1.8-2.892l-21.929-12.055a1.589,1.589,0,0,0-1.491-.063Z" transform="translate(760.714 5282.554)"/><path class="j" d="M98.31,239.687a20.208,20.208,0,0,0-.62,3.658c0,.251.341.383.439.383a4.439,4.439,0,0,0,2.132-1.087,21.064,21.064,0,0,0-.571-3.122Z" transform="translate(816.897 5278.69)"/><path class="j" d="M97.69,237.771a1.331,1.331,0,1,1,1.331,1.331A1.331,1.331,0,0,1,97.69,237.771Z" transform="translate(816.806 5279.624)"/><path class="j" d="M128.794,180.352c-1.456-.139-2.829,0-3.177,1.456a4.738,4.738,0,0,0,0,2.968,3.484,3.484,0,0,0,1.965-.934c.167-.314-.62-2.892.7-3.428a1.3,1.3,0,0,1,.5-.063Z" transform="translate(769.055 5296.642)"/><path class="d" d="M121.607,225.354a1.589,1.589,0,0,0-1.5-.063c-1.1.544-2.968,2.042-3.812,6.02a3,3,0,0,0,.941,3.024c.767.544,17.218,9.9,19.4,11.2,1.881,1.122,2.864-.369,3.275-1.3h0c2.279-4.766,4.083-5.693,4.083-5.693Z" transform="translate(760.265 5283.052)"/></g><g transform="translate(735.03 4917.561)"><path class="b" d="M209.53,367.89a17.35,17.35,0,0,0-6.39-5.91c-10.45-6-27.38-6-37.83,0a17.351,17.351,0,0,0-6.39,5.91h-1.45v5.47h0c.19,3.8,2.79,7.57,7.82,10.47,10.45,6,27.38,6,37.83,0,5-2.9,7.65-6.67,7.84-10.47h0v-5.47Z"/><g class="q"><path d="M209.53,367.89a17.35,17.35,0,0,0-6.39-5.91c-10.45-6-27.38-6-37.83,0a17.351,17.351,0,0,0-6.39,5.91h-1.45v5.47h0c.19,3.8,2.79,7.57,7.82,10.47,10.45,6,27.38,6,37.83,0,5-2.9,7.65-6.67,7.84-10.47h0v-5.47Z"/></g><g class="m"><path d="M184.23,357.46c-6.85,0-13.7,1.51-18.92,4.52a17.35,17.35,0,0,0-6.39,5.91h-1.45v5.47h0c.19,3.8,2.79,7.57,7.82,10.47,5.22,3,12.07,4.52,18.92,4.52Z"/></g><g class="m"><path d="M169.61,360a29.218,29.218,0,0,0-4.3,2,17.35,17.35,0,0,0-6.39,5.91h-1.45v5.47h0c.19,3.8,2.79,7.57,7.82,10.47a29.218,29.218,0,0,0,4.3,2Z"/></g><path class="b" d="M198.84,360a29.218,29.218,0,0,1,4.3,2,17.35,17.35,0,0,1,6.39,5.91H211v5.47h0c-.2,3.8-2.81,7.57-7.84,10.47a29.218,29.218,0,0,1-4.3,2Z"/><path class="b" d="M203.14,357c-10.45-6-27.38-6-37.83,0s-10.45,15.81,0,21.84,27.38,6,37.83,0S213.59,363,203.14,357Z"/><g class="r"><path d="M203.14,357c-10.45-6-27.38-6-37.83,0s-10.45,15.81,0,21.84,27.38,6,37.83,0S213.59,363,203.14,357Z"/></g><path class="b" d="M196.54,361a30.15,30.15,0,0,0-24.63,0c-3.51,1.8-5.43,4.26-5.43,6.93s1.92,5.13,5.43,6.92a30.15,30.15,0,0,0,24.63,0C200,373,202,370.57,202,367.9S200,362.77,196.54,361Z"/><g class="e"><path d="M196.54,361a30.15,30.15,0,0,0-24.63,0c-3.51,1.8-5.43,4.26-5.43,6.93s1.92,5.13,5.43,6.92a30.15,30.15,0,0,0,24.63,0C200,373,202,370.57,202,367.9S200,362.77,196.54,361Z"/></g><path class="b" d="M202.56,358c-4.88-2.82-11.39-4.38-18.34-4.38s-13.45,1.56-18.33,4.38c-4.68,2.7-7.25,6.21-7.25,9.91s2.57,7.21,7.25,9.91c4.88,2.81,11.39,4.37,18.33,4.37s13.46-1.56,18.34-4.37c4.68-2.7,7.25-6.22,7.25-9.91S207.24,360.69,202.56,358Zm-6,16.83a30.15,30.15,0,0,1-24.63,0c-3.51-1.79-5.43-4.25-5.43-6.92s1.92-5.13,5.43-6.93a30.15,30.15,0,0,1,24.63,0c3.5,1.8,5.43,4.26,5.43,6.93s-1.99,5.09-5.45,6.91Z"/><g class="r"><ellipse cx="16.83" cy="8.63" rx="16.83" ry="8.63" transform="translate(167.39 359.27)"/></g><ellipse class="b" cx="16.83" cy="8.63" rx="16.83" ry="8.63" transform="translate(167.39 359.27)"/><g class="s"><ellipse cx="16.83" cy="8.63" rx="16.83" ry="8.63" transform="translate(167.39 359.27)"/></g><path class="b" d="M196.12,364.08c-6.57-3.37-17.22-3.37-23.79,0-2.72,1.39-4.31,3.14-4.78,5,.47,1.81,2.06,3.57,4.78,5,6.57,3.37,17.22,3.37,23.79,0,2.72-1.39,4.31-3.15,4.78-5C200.43,367.23,198.84,365.47,196.12,364.08Z"/><g class="f"><path d="M196.12,364.08c-6.57-3.37-17.22-3.37-23.79,0-2.72,1.39-4.31,3.14-4.78,5,.47,1.81,2.06,3.57,4.78,5,6.57,3.37,17.22,3.37,23.79,0,2.72-1.39,4.31-3.15,4.78-5C200.43,367.23,198.84,365.47,196.12,364.08Z"/></g><path class="b" d="M185.82,361.92v2.47l-.84.89-1.56,1.63v-2.57Z"/><g class="g"><path d="M185.82,361.92v2.47l-.84.89-1.56,1.63v-2.57Z"/></g><path class="b" d="M183.42,364.34v1.46a14.452,14.452,0,0,1-2.4.68,2.839,2.839,0,0,1-1,0,3,3,0,0,1-.49-.2c-.59-.36-.69-.89.44-1.54A4,4,0,0,1,183.42,364.34Z"/><g class="t"><path d="M183.42,364.34v1.46a14.452,14.452,0,0,1-2.4.68,2.839,2.839,0,0,1-1,0,3,3,0,0,1-.49-.2c-.59-.36-.69-.89.44-1.54A4,4,0,0,1,183.42,364.34Z"/></g><path class="b" d="M194.59,371.35v2.13l-2.7,1.55-2-1.15a10.18,10.18,0,0,1-7.73.35V372.1l1.23-1.22-1.23.34a7.92,7.92,0,0,1-6-.69c-1.21-.7-1.77-1.46-1.76-2.25v-2.07l.21-.91-.73-.43v-2.13l2,1.16a3,3,0,0,0-1.47,2.28h0c0,.77.58,1.51,1.76,2.19,2.63,1.52,5.23,1,7.61.25,2.22-.72,3.83-1.57,5.11-.83.79.45.55,1-.34,1.53a4.46,4.46,0,0,1-3.81.22l-2.55,2.53a10.1,10.1,0,0,0,1.41.41,10.53,10.53,0,0,0,6.32-.76l2,1.15Z"/><g class="u"><path d="M174.38,366.18h0c0,.77.58,1.51,1.76,2.19,2.63,1.52,5.23,1,7.61.25,2.22-.72,3.83-1.57,5.11-.83.79.45.55,1-.34,1.53a4.46,4.46,0,0,1-3.81.22l-2.55,2.53a10.1,10.1,0,0,0,1.41.41,10.53,10.53,0,0,0,6.32-.76l2,1.15,2.7-1.55v2.13l-2.7,1.55-2-1.15a10.18,10.18,0,0,1-7.73.35v-2.1l1.23-1.22-1.23.34a7.92,7.92,0,0,1-6-.69c-1.21-.7-1.77-1.46-1.76-2.25v-2.07l.21-.91"/></g><g class="t"><path d="M173.86,362.74v2.13l.73.43h0a4.35,4.35,0,0,1,1.26-1.41Z"/></g><path class="b" d="M194.14,370a2.57,2.57,0,0,1-.2,1l-1.35-.78a2.64,2.64,0,0,0,1.53-2.05C194.13,368.73,194.14,369.9,194.14,370Z"/><g class="g"><path d="M194.14,370a2.57,2.57,0,0,1-.2,1l-1.35-.78a2.64,2.64,0,0,0,1.53-2.05C194.13,368.73,194.14,369.9,194.14,370Z"/></g><path class="b" d="M194.14,371.09l-1.55-.9a2.62,2.62,0,0,0,1.55-2.36,1.248,1.248,0,0,0,0-.21c-.06-.74-.61-1.45-1.72-2.09h0a7.12,7.12,0,0,0-3.59-.94h-1.06a1.329,1.329,0,0,0-.21,0,13.54,13.54,0,0,0-1.75.36c-.27.07-.55.15-.81.24l-1.13.37-.43.14a12.723,12.723,0,0,1-2.4.68,2.341,2.341,0,0,1-1,0,2,2,0,0,1-.48-.2c-.6-.34-.69-.87.44-1.53a4,4,0,0,1,3.47-.36l2.4-2.42a10.28,10.28,0,0,0-7.24.4l-2-1.15-2.72,1.57,2,1.15a3.11,3.11,0,0,0-1.49,2.3h0c0,.77.59,1.51,1.77,2.19,2.63,1.52,5.23,1,7.61.25,2.22-.72,3.83-1.57,5.1-.84.8.46.56,1-.33,1.53a4.34,4.34,0,0,1-3.8.22l-2.56,2.54a10.1,10.1,0,0,0,1.41.41,9,9,0,0,0,2.46.18,11.34,11.34,0,0,0,3.86-.94l2,1.16,2.69-1.56Z"/><path class="b" d="M189.89,371.75v2.13l2,1.15V372.9Z"/><g class="t"><path d="M189.89,371.75v2.13l2,1.15V372.9Z"/></g><path class="v" d="M173.86,362.74l2.72-1.57,2,1.15-1.98-.83Z"/><path class="v" d="M180,364.7a4,4,0,0,1,3.47-.36l2.4-2.42-2.4,2.17A3.64,3.64,0,0,0,180,364.7Z"/><path class="v" d="M182.16,372.1a10.1,10.1,0,0,0,1.41.41,9,9,0,0,0,2.46.18,8.73,8.73,0,0,1-3.47-.69l2.16-2.44Z"/><path class="v" d="M189.89,371.75l2,.9,2.69-1.3-2.69,1.55Z"/><path class="v" d="M166.1,358.34c7.08-4.3,18.12-4.73,18.12-4.73-6.94,0-13.45,1.56-18.33,4.38-4.68,2.7-7.25,6.21-7.25,9.91C158.64,367.9,158.89,362.72,166.1,358.34Z"/><path class="v" d="M182.16,383.3c7.52.33,15.23-1.16,21-4.48,6-3.45,8.54-8.13,7.67-12.63,0,0,1.12,7.33-8.12,12.35S182.16,383.3,182.16,383.3Z"/><path class="b" d="M207.7,360.17a17.26,17.26,0,0,0-6.39-5.91c-10.45-6-27.39-6-37.84,0a17.26,17.26,0,0,0-6.39,5.91h-1.44v5.46h0c.19,3.8,2.79,7.57,7.81,10.47,10.45,6,27.39,6,37.84,0,5-2.9,7.64-6.67,7.83-10.47h0v-5.46Z"/><g class="q"><path d="M207.7,360.17a17.26,17.26,0,0,0-6.39-5.91c-10.45-6-27.39-6-37.84,0a17.26,17.26,0,0,0-6.39,5.91h-1.44v5.46h0c.19,3.8,2.79,7.57,7.81,10.47,10.45,6,27.39,6,37.84,0,5-2.9,7.64-6.67,7.83-10.47h0v-5.46Z"/></g><g class="m"><path d="M182.39,349.73c-6.84,0-13.69,1.51-18.92,4.53a17.26,17.26,0,0,0-6.39,5.91h-1.44v5.46h0c.19,3.8,2.79,7.57,7.81,10.47,5.23,3,12.08,4.52,18.92,4.52Z"/></g><g class="m"><path d="M167.78,352.24a28.379,28.379,0,0,0-4.31,2,17.26,17.26,0,0,0-6.39,5.91h-1.44v5.46h0c.19,3.8,2.79,7.57,7.81,10.47a30.441,30.441,0,0,0,4.31,2Z"/></g><path class="b" d="M197,352.24a28.378,28.378,0,0,1,4.31,2,17.26,17.26,0,0,1,6.39,5.91h1.44v5.46h0c-.19,3.8-2.81,7.57-7.83,10.47a30.442,30.442,0,0,1-4.31,2Z"/><path class="b" d="M201.31,349.25c-10.45-6-27.39-6-37.84,0s-10.44,15.81,0,21.84,27.39,6,37.84,0S211.76,355.28,201.31,349.25Z"/><g class="r"><path d="M201.31,349.25c-10.45-6-27.39-6-37.84,0s-10.44,15.81,0,21.84,27.39,6,37.84,0S211.76,355.28,201.31,349.25Z"/></g><path class="b" d="M194.71,353.24a30.28,30.28,0,0,0-24.64,0c-3.5,1.8-5.43,4.26-5.43,6.93s1.93,5.13,5.43,6.92a30.17,30.17,0,0,0,24.64,0c3.5-1.79,5.43-4.25,5.43-6.92S198.21,355,194.71,353.24Z"/><g class="e"><path d="M194.71,353.24a30.28,30.28,0,0,0-24.64,0c-3.5,1.8-5.43,4.26-5.43,6.93s1.93,5.13,5.43,6.92a30.17,30.17,0,0,0,24.64,0c3.5-1.79,5.43-4.25,5.43-6.92S198.21,355,194.71,353.24Z"/></g><path class="b" d="M200.73,350.26c-4.88-2.82-11.4-4.38-18.34-4.38s-13.45,1.56-18.33,4.38c-4.68,2.7-7.26,6.21-7.26,9.91s2.58,7.21,7.26,9.91c4.88,2.82,11.38,4.37,18.33,4.37s13.46-1.55,18.34-4.37c4.67-2.7,7.25-6.22,7.25-9.91S205.4,353,200.73,350.26Zm-6,16.83a30.17,30.17,0,0,1-24.64,0c-3.5-1.79-5.43-4.25-5.43-6.92s1.93-5.13,5.43-6.93a30.28,30.28,0,0,1,24.64,0c3.5,1.8,5.43,4.26,5.43,6.93s-1.95,5.13-5.45,6.92Z"/><g class="r"><path d="M194.29,366.27c6.57-3.37,6.57-8.84,0-12.21s-17.23-3.37-23.8,0-6.57,8.84,0,12.21S187.72,369.65,194.29,366.27Z"/></g><path class="b" d="M194.29,366.27c6.57-3.37,6.57-8.84,0-12.21s-17.23-3.37-23.8,0-6.57,8.84,0,12.21S187.72,369.65,194.29,366.27Z"/><g class="s"><path d="M194.29,366.27c6.57-3.37,6.57-8.84,0-12.21s-17.23-3.37-23.8,0-6.57,8.84,0,12.21S187.72,369.65,194.29,366.27Z"/></g><path class="b" d="M194.29,356.35c-6.57-3.37-17.23-3.37-23.8,0-2.71,1.39-4.3,3.15-4.77,5,.47,1.82,2.06,3.57,4.77,5,6.57,3.38,17.23,3.38,23.8,0,2.72-1.39,4.31-3.14,4.78-5C198.6,359.5,197,357.74,194.29,356.35Z"/><g class="f"><path d="M194.29,356.35c-6.57-3.37-17.23-3.37-23.8,0-2.71,1.39-4.3,3.15-4.77,5,.47,1.82,2.06,3.57,4.77,5,6.57,3.38,17.23,3.38,23.8,0,2.72-1.39,4.31-3.14,4.78-5C198.6,359.5,197,357.74,194.29,356.35Z"/></g><path class="b" d="M183.98,354.19v2.47l-.84.89-1.56,1.63v-2.57Z"/><g class="g"><path d="M183.98,354.19v2.47l-.84.89-1.56,1.63v-2.57Z"/></g><path class="b" d="M181.58,356.61v1.46a14.388,14.388,0,0,1-2.39.68,2.5,2.5,0,0,1-1,0,3.37,3.37,0,0,1-.49-.2c-.59-.36-.68-.88.45-1.54A4,4,0,0,1,181.58,356.61Z"/><g class="t"><path d="M181.58,356.61v1.46a14.388,14.388,0,0,1-2.39.68,2.5,2.5,0,0,1-1,0,3.37,3.37,0,0,1-.49-.2c-.59-.36-.68-.88.45-1.54A4,4,0,0,1,181.58,356.61Z"/></g><path class="b" d="M192.75,363.62v2.13l-2.7,1.55-2-1.15a10.18,10.18,0,0,1-7.73.35v-2.13l1.23-1.22-1.23.34a7.87,7.87,0,0,1-6-.69c-1.21-.7-1.77-1.46-1.77-2.25v-2.07l.22-.91-.74-.43V355l2,1.16a3.09,3.09,0,0,0-1.48,2.29h0c0,.77.59,1.51,1.77,2.19,2.62,1.52,5.22,1,7.61.25,2.21-.72,3.83-1.57,5.1-.83.8.46.55,1-.34,1.53a4.41,4.41,0,0,1-3.8.22l-2.55,2.53a9.371,9.371,0,0,0,1.41.41,10.47,10.47,0,0,0,6.32-.76l2,1.15Z"/><g class="u"><path d="M172.54,358.46h0c0,.77.59,1.51,1.77,2.19,2.62,1.52,5.22,1,7.61.25,2.21-.72,3.83-1.57,5.1-.83.8.46.55,1-.34,1.53a4.41,4.41,0,0,1-3.8.22l-2.55,2.53a9.371,9.371,0,0,0,1.41.41,10.47,10.47,0,0,0,6.32-.76l2,1.15,2.7-1.55v2.13l-2.7,1.55-2-1.15a10.18,10.18,0,0,1-7.73.35v-2.13l1.23-1.22-1.23.34a7.87,7.87,0,0,1-6-.69c-1.21-.7-1.77-1.46-1.77-2.25v-2.07l.22-.91"/></g><g class="t"><path d="M172,355v2.13l.74.43h0a4.23,4.23,0,0,1,1.26-1.41Z"/></g><path class="b" d="M192.31,362.23a2.39,2.39,0,0,1-.21,1l-1.35-.78a2.66,2.66,0,0,0,1.54-2C192.3,361,192.31,362.17,192.31,362.23Z"/><g class="g"><path d="M192.31,362.23a2.39,2.39,0,0,1-.21,1l-1.35-.78a2.66,2.66,0,0,0,1.54-2C192.3,361,192.31,362.17,192.31,362.23Z"/></g><path class="b" d="M192.3,363.36l-1.54-.9a2.62,2.62,0,0,0,1.54-2.36v-.21a2.91,2.91,0,0,0-1.73-2.09h0a7.09,7.09,0,0,0-3.59-.94h-.66a2.661,2.661,0,0,0-.28,0h-.11a1.458,1.458,0,0,0-.22,0,13.737,13.737,0,0,0-1.74.36c-.28.07-.55.15-.82.24l-1.13.37-.43.14a12.618,12.618,0,0,1-2.39.69,2.68,2.68,0,0,1-1,0,2.551,2.551,0,0,1-.48-.2c-.6-.35-.7-.88.43-1.54a4,4,0,0,1,3.47-.36l2.4-2.42a10.29,10.29,0,0,0-7.24.4l-2-1.15L172,355l2,1.15a3.06,3.06,0,0,0-1.48,2.29h0c0,.77.59,1.51,1.77,2.19,2.63,1.52,5.23,1,7.61.25,2.21-.72,3.82-1.57,5.1-.84.8.46.55,1-.33,1.53a4.36,4.36,0,0,1-3.81.22l-2.55,2.54a9.723,9.723,0,0,0,1.41.41,9,9,0,0,0,2.46.18,11.4,11.4,0,0,0,3.86-.94l2,1.16,2.7-1.56Z"/><path class="b" d="M188.06,364.02v2.13l2,1.16v-2.13Z"/><g class="t"><path d="M188.06,364.02v2.13l2,1.16v-2.13Z"/></g><path class="v" d="M172.02,355.01l2.72-1.57,2,1.15-1.98-.83Z"/><path class="v" d="M178.11,357a4,4,0,0,1,3.47-.36l2.4-2.42-2.4,2.17a3.64,3.64,0,0,0-3.47.61Z"/><path class="v" d="M180.33,364.37a9.724,9.724,0,0,0,1.41.41,9,9,0,0,0,2.46.18,8.73,8.73,0,0,1-3.47-.69l2.15-2.44Z"/><path class="v" d="M188.06,364.02l2,.9,2.69-1.3-2.69,1.56Z"/><path class="v" d="M164.26,350.62c7.09-4.31,18.13-4.74,18.13-4.74-6.95,0-13.45,1.56-18.33,4.38-4.68,2.7-7.26,6.21-7.26,9.91C156.8,360.17,157.06,355,164.26,350.62Z"/><path class="v" d="M180.33,375.57c7.51.33,15.23-1.16,21-4.48,6-3.45,8.53-8.13,7.67-12.63,0,0,1.12,7.33-8.12,12.35S180.33,375.57,180.33,375.57Z"/><path class="b" d="M211.53,352.69a17.22,17.22,0,0,0-6.4-5.91c-10.44-6-27.38-6-37.83,0a17.26,17.26,0,0,0-6.39,5.91h-1.45v5.46h0c.2,3.8,2.8,7.57,7.82,10.47,10.45,6,27.39,6,37.83,0,5-2.9,7.65-6.67,7.84-10.47h0v-5.46Z"/><g class="q"><path d="M211.53,352.69a17.22,17.22,0,0,0-6.4-5.91c-10.44-6-27.38-6-37.83,0a17.26,17.26,0,0,0-6.39,5.91h-1.45v5.46h0c.2,3.8,2.8,7.57,7.82,10.47,10.45,6,27.39,6,37.83,0,5-2.9,7.65-6.67,7.84-10.47h0v-5.46Z"/></g><g class="m"><path d="M186.22,342.25c-6.85,0-13.7,1.51-18.92,4.53a17.26,17.26,0,0,0-6.39,5.91h-1.45v5.46h0c.2,3.8,2.8,7.57,7.82,10.47,5.22,3,12.07,4.52,18.92,4.52Z"/></g><g class="m"><path d="M171.61,344.76a27.938,27.938,0,0,0-4.31,2,17.26,17.26,0,0,0-6.39,5.91h-1.45v5.46h0c.2,3.8,2.8,7.57,7.82,10.47a29.932,29.932,0,0,0,4.31,2Z"/></g><path class="b" d="M200.83,344.76a27.82,27.82,0,0,1,4.3,2,17.1,17.1,0,0,1,6.39,5.91H213v5.46h0c-.19,3.8-2.81,7.57-7.84,10.47a29.809,29.809,0,0,1-4.3,2Z"/><path class="b" d="M205.13,341.77c-10.44-6-27.38-6-37.83,0s-10.45,15.81,0,21.84,27.39,6,37.83,0S215.58,347.8,205.13,341.77Z"/><g class="r"><path d="M205.13,341.77c-10.44-6-27.38-6-37.83,0s-10.45,15.81,0,21.84,27.39,6,37.83,0S215.58,347.8,205.13,341.77Z"/></g><path class="b" d="M198.54,345.76a30.28,30.28,0,0,0-24.64,0c-3.5,1.8-5.43,4.26-5.43,6.93s1.93,5.13,5.43,6.92a30.07,30.07,0,0,0,24.64,0c3.5-1.79,5.42-4.25,5.42-6.92S202,347.56,198.54,345.76Z"/><g class="e"><path d="M198.54,345.76a30.28,30.28,0,0,0-24.64,0c-3.5,1.8-5.43,4.26-5.43,6.93s1.93,5.13,5.43,6.92a30.07,30.07,0,0,0,24.64,0c3.5-1.79,5.42-4.25,5.42-6.92S202,347.56,198.54,345.76Z"/></g><path class="b" d="M204.55,342.78c-4.87-2.82-11.39-4.38-18.33-4.38s-13.46,1.56-18.33,4.38c-4.69,2.7-7.26,6.21-7.26,9.91s2.57,7.21,7.26,9.91c4.87,2.82,11.38,4.37,18.33,4.37s13.46-1.55,18.33-4.37c4.68-2.7,7.26-6.22,7.26-9.91S209.23,345.48,204.55,342.78Zm-6,16.83a30.07,30.07,0,0,1-24.64,0c-3.5-1.79-5.43-4.25-5.43-6.92s1.93-5.13,5.43-6.93a30.28,30.28,0,0,1,24.64,0c3.5,1.8,5.42,4.26,5.42,6.93s-1.97,5.13-5.43,6.92Z"/><g class="r"><ellipse cx="16.83" cy="8.63" rx="16.83" ry="8.63" transform="translate(169.39 344.06)"/></g><ellipse class="b" cx="16.83" cy="8.63" rx="16.83" ry="8.63" transform="translate(169.39 344.06)"/><g class="s"><ellipse cx="16.83" cy="8.63" rx="16.83" ry="8.63" transform="translate(169.39 344.06)"/></g><path class="b" d="M198.12,348.87c-6.58-3.37-17.23-3.37-23.8,0-2.72,1.39-4.31,3.15-4.78,5,.47,1.82,2.06,3.57,4.78,5,6.57,3.38,17.22,3.38,23.8,0,2.71-1.39,4.3-3.14,4.77-5C202.42,352,200.83,350.26,198.12,348.87Z"/><g class="f"><path d="M198.12,348.87c-6.58-3.37-17.23-3.37-23.8,0-2.72,1.39-4.31,3.15-4.78,5,.47,1.82,2.06,3.57,4.78,5,6.57,3.38,17.22,3.38,23.8,0,2.71-1.39,4.3-3.14,4.77-5C202.42,352,200.83,350.26,198.12,348.87Z"/></g><path class="b" d="M187.81,346.71v2.47l-.84.89-1.56,1.63v-2.57Z"/><g class="g"><path d="M187.81,346.71v2.47l-.84.89-1.56,1.63v-2.57Z"/></g><path class="b" d="M185.41,349.13v1.46a14.391,14.391,0,0,1-2.39.68,2.5,2.5,0,0,1-1,0,3,3,0,0,1-.49-.2c-.59-.36-.69-.88.44-1.54A4,4,0,0,1,185.41,349.13Z"/><g class="t"><path d="M185.41,349.13v1.46a14.391,14.391,0,0,1-2.39.68,2.5,2.5,0,0,1-1,0,3,3,0,0,1-.49-.2c-.59-.36-.69-.88.44-1.54A4,4,0,0,1,185.41,349.13Z"/></g><path class="b" d="M196.58,356.14v2.13l-2.7,1.55-2-1.15a10.15,10.15,0,0,1-7.72.35v-2.13l1.22-1.22-1.22.34a7.86,7.86,0,0,1-6-.69c-1.21-.7-1.77-1.46-1.77-2.25V351l.22-.91-.74-.43v-2.13l2,1.16a3,3,0,0,0-1.48,2.29h0c0,.77.59,1.51,1.77,2.19,2.62,1.52,5.22,1,7.6.25,2.22-.72,3.83-1.57,5.11-.83.79.46.55,1-.34,1.53a4.41,4.41,0,0,1-3.8.22l-2.55,2.53a9.367,9.367,0,0,0,1.41.41,10.43,10.43,0,0,0,6.31-.76l2,1.16Z"/><g class="u"><path d="M176.37,351h0c0,.77.59,1.51,1.77,2.19,2.62,1.52,5.22,1,7.6.25,2.22-.72,3.83-1.57,5.11-.83.79.46.55,1-.34,1.53a4.41,4.41,0,0,1-3.8.22l-2.55,2.53a9.377,9.377,0,0,0,1.41.41,10.43,10.43,0,0,0,6.31-.76l2,1.16,2.7-1.56v2.13l-2.7,1.55-2-1.15a10.15,10.15,0,0,1-7.72.35v-2.13l1.22-1.22-1.22.34a7.86,7.86,0,0,1-6-.69c-1.21-.7-1.77-1.46-1.77-2.25V351l.22-.91"/></g><g class="t"><path d="M175.85,347.53v2.13l.74.43h0a4.39,4.39,0,0,1,1.27-1.41Z"/></g><path class="b" d="M196.13,354.75a2.39,2.39,0,0,1-.2,1l-1.35-.78a2.64,2.64,0,0,0,1.53-2.05C196.12,353.52,196.13,354.69,196.13,354.75Z"/><g class="g"><path d="M196.13,354.75a2.39,2.39,0,0,1-.2,1l-1.35-.78a2.64,2.64,0,0,0,1.53-2.05C196.12,353.52,196.13,354.69,196.13,354.75Z"/></g><path class="b" d="M196.13,355.88l-1.55-.9a2.62,2.62,0,0,0,1.55-2.36,1.358,1.358,0,0,0,0-.21c-.06-.74-.6-1.45-1.72-2.09h0a7.12,7.12,0,0,0-3.59-.94h-.66a2.394,2.394,0,0,0-.28,0h-.12a1.517,1.517,0,0,0-.21,0,14.268,14.268,0,0,0-1.75.36l-.81.24-1.13.37-.43.14a13,13,0,0,1-2.39.69,2.68,2.68,0,0,1-1,0,2.552,2.552,0,0,1-.48-.2c-.61-.35-.7-.88.43-1.54a4,4,0,0,1,3.47-.36l2.4-2.42a10.28,10.28,0,0,0-7.24.4l-2-1.15-2.72,1.58,2,1.15a3.08,3.08,0,0,0-1.49,2.29h0c0,.77.59,1.51,1.78,2.19,2.62,1.52,5.22,1,7.61.25,2.21-.72,3.82-1.57,5.1-.84.79.46.55,1-.34,1.53a4.34,4.34,0,0,1-3.8.22l-2.56,2.54a10.1,10.1,0,0,0,1.41.41,9.089,9.089,0,0,0,2.47.18,11.34,11.34,0,0,0,3.85-.94l2,1.16,2.7-1.56Z"/><path class="b" d="M191.88,356.54v2.13l2,1.15v-2.13Z"/><g class="t"><path d="M191.88,356.54v2.13l2,1.15v-2.13Z"/></g><path class="v" d="M175.85,347.54l2.72-1.58,2,1.15-1.98-.82Z"/><path class="v" d="M181.94,349.49a4,4,0,0,1,3.47-.36l2.4-2.42-2.4,2.17a3.64,3.64,0,0,0-3.47.61Z"/><path class="v" d="M184.15,356.89a10.1,10.1,0,0,0,1.41.41,9.089,9.089,0,0,0,2.47.18,8.73,8.73,0,0,1-3.47-.69l2.15-2.44Z"/><path class="v" d="M191.88,356.54l2,.9,2.7-1.3-2.7,1.55Z"/><path class="v" d="M168.09,343.14c7.08-4.31,18.13-4.74,18.13-4.74-6.95,0-13.46,1.56-18.33,4.38-4.69,2.7-7.26,6.21-7.26,9.91C160.63,352.69,160.88,347.51,168.09,343.14Z"/><path class="v" d="M184.15,368.09c7.52.33,15.24-1.16,21-4.48,6-3.45,8.54-8.13,7.68-12.63,0,0,1.11,7.33-8.13,12.35S184.15,368.09,184.15,368.09Z"/><path class="b" d="M208.91,345.12a17.18,17.18,0,0,0-6.39-5.91c-10.45-6-27.38-6-37.83,0a17.18,17.18,0,0,0-6.39,5.91h-1.45v5.47h0c.19,3.8,2.79,7.56,7.82,10.46,10.45,6,27.38,6,37.83,0,5-2.9,7.65-6.67,7.84-10.47h0v-5.47Z"/><g class="q"><path d="M208.91,345.12a17.18,17.18,0,0,0-6.39-5.91c-10.45-6-27.38-6-37.83,0a17.18,17.18,0,0,0-6.39,5.91h-1.45v5.47h0c.19,3.8,2.79,7.56,7.82,10.46,10.45,6,27.38,6,37.83,0,5-2.9,7.65-6.67,7.84-10.47h0v-5.47Z"/></g><g class="m"><path d="M183.61,334.69c-6.85,0-13.7,1.5-18.92,4.52a17.18,17.18,0,0,0-6.39,5.91h-1.45v5.46h0c.19,3.81,2.79,7.57,7.82,10.47,5.22,3,12.07,4.53,18.92,4.53Z"/></g><g class="m"><path d="M169,337.19a30.322,30.322,0,0,0-4.3,2,17.18,17.18,0,0,0-6.39,5.91h-1.45v5.46h0c.19,3.81,2.79,7.57,7.82,10.47a30.319,30.319,0,0,0,4.3,2Z"/></g><path class="b" d="M198.22,337.19a30.323,30.323,0,0,1,4.3,2,17.18,17.18,0,0,1,6.39,5.91h1.45v5.47h0c-.19,3.8-2.81,7.57-7.84,10.47a30.318,30.318,0,0,1-4.3,2Z"/><path class="b" d="M202.52,334.2c-10.45-6-27.38-6-37.83,0s-10.45,15.81,0,21.84,27.38,6,37.83,0S213,340.23,202.52,334.2Z"/><g class="r"><path d="M202.52,334.2c-10.45-6-27.38-6-37.83,0s-10.45,15.81,0,21.84,27.38,6,37.83,0S213,340.23,202.52,334.2Z"/></g><path class="b" d="M195.92,338.2a30.15,30.15,0,0,0-24.63,0c-3.51,1.79-5.43,4.25-5.43,6.92s1.92,5.13,5.43,6.93a30.15,30.15,0,0,0,24.63,0c3.5-1.8,5.43-4.26,5.43-6.93S199.42,340,195.92,338.2Z"/><g class="e"><path d="M195.92,338.2a30.15,30.15,0,0,0-24.63,0c-3.51,1.79-5.43,4.25-5.43,6.92s1.92,5.13,5.43,6.93a30.15,30.15,0,0,0,24.63,0c3.5-1.8,5.43-4.26,5.43-6.93S199.42,340,195.92,338.2Z"/></g><path class="b" d="M201.94,335.21c-4.88-2.82-11.39-4.37-18.34-4.37s-13.45,1.55-18.33,4.37c-4.68,2.7-7.25,6.22-7.25,9.91s2.57,7.22,7.25,9.92c4.88,2.81,11.39,4.36,18.33,4.36s13.46-1.55,18.34-4.36c4.68-2.7,7.25-6.23,7.25-9.92S206.62,337.91,201.94,335.21Zm-6,16.84a30.15,30.15,0,0,1-24.63,0c-3.51-1.8-5.43-4.26-5.43-6.93s1.92-5.13,5.43-6.92a30.15,30.15,0,0,1,24.63,0c3.5,1.79,5.43,4.25,5.43,6.92s-1.95,5.13-5.45,6.93Z"/><g class="r"><ellipse cx="16.83" cy="8.63" rx="16.83" ry="8.63" transform="translate(166.78 336.49)"/></g><ellipse class="b" cx="16.83" cy="8.63" rx="16.83" ry="8.63" transform="translate(166.78 336.49)"/><g class="s"><ellipse cx="16.83" cy="8.63" rx="16.83" ry="8.63" transform="translate(166.78 336.49)"/></g><path class="b" d="M195.5,341.3c-6.57-3.37-17.22-3.37-23.79,0-2.72,1.4-4.31,3.15-4.78,5,.47,1.82,2.06,3.57,4.78,5,6.57,3.37,17.22,3.37,23.79,0,2.72-1.4,4.31-3.15,4.78-5C199.81,344.45,198.22,342.7,195.5,341.3Z"/><g class="f"><path d="M195.5,341.3c-6.57-3.37-17.22-3.37-23.79,0-2.72,1.4-4.31,3.15-4.78,5,.47,1.82,2.06,3.57,4.78,5,6.57,3.37,17.22,3.37,23.79,0,2.72-1.4,4.31-3.15,4.78-5C199.81,344.45,198.22,342.7,195.5,341.3Z"/></g><path class="b" d="M185.2,339.15v2.46l-.84.89-1.56,1.63v-2.56Z"/><g class="g"><path d="M185.2,339.15v2.46l-.84.89-1.56,1.63v-2.56Z"/></g><path class="b" d="M182.8,341.56V343a14.452,14.452,0,0,1-2.4.68,2.45,2.45,0,0,1-1,0,2.3,2.3,0,0,1-.49-.2c-.59-.35-.69-.88.44-1.53A4,4,0,0,1,182.8,341.56Z"/><g class="t"><path d="M182.8,341.56V343a14.452,14.452,0,0,1-2.4.68,2.45,2.45,0,0,1-1,0,2.3,2.3,0,0,1-.49-.2c-.59-.35-.69-.88.44-1.53A4,4,0,0,1,182.8,341.56Z"/></g><path class="b" d="M194,348.57v2.13l-2.7,1.56-2-1.16a10.13,10.13,0,0,1-7.73.35v-2.13l1.23-1.22-1.23.34a7.87,7.87,0,0,1-6-.69c-1.21-.69-1.77-1.46-1.76-2.24v-2.08l.21-.9-.73-.43V340l2,1.15a3.06,3.06,0,0,0-1.47,2.29h0c0,.77.58,1.51,1.76,2.19,2.63,1.52,5.23,1,7.61.26,2.22-.73,3.83-1.58,5.11-.84.79.46.55,1-.34,1.53a4.43,4.43,0,0,1-3.81.22l-2.55,2.53a8.9,8.9,0,0,0,1.41.41,10.45,10.45,0,0,0,6.32-.76l2,1.16Z"/><g class="u"><path d="M173.76,343.41h0c0,.77.58,1.51,1.76,2.19,2.63,1.52,5.23,1,7.61.26,2.22-.73,3.83-1.58,5.11-.84.79.46.55,1-.34,1.53a4.43,4.43,0,0,1-3.81.22l-2.55,2.53a8.9,8.9,0,0,0,1.41.41,10.45,10.45,0,0,0,6.32-.76l2,1.16,2.7-1.56v2.13l-2.7,1.56-2-1.16a10.13,10.13,0,0,1-7.73.35V349.3l1.23-1.22-1.23.34a7.87,7.87,0,0,1-6-.69c-1.21-.69-1.77-1.46-1.76-2.24v-2.08l.21-.9"/></g><g class="t"><path d="M173.24,340v2.13l.73.43h0a4.45,4.45,0,0,1,1.26-1.41Z"/></g><path class="b" d="M193.52,347.18a2.52,2.52,0,0,1-.2,1l-1.35-.77a2.66,2.66,0,0,0,1.53-2.05C193.51,346,193.52,347.12,193.52,347.18Z"/><g class="g"><path d="M193.52,347.18a2.52,2.52,0,0,1-.2,1l-1.35-.77a2.66,2.66,0,0,0,1.53-2.05C193.51,346,193.52,347.12,193.52,347.18Z"/></g><path class="b" d="M193.52,348.31l-1.55-.89a2.64,2.64,0,0,0,1.55-2.37,1.491,1.491,0,0,0,0-.21c-.06-.73-.61-1.45-1.72-2.09h0a7.1,7.1,0,0,0-3.59-.93h-1.27a13.9,13.9,0,0,0-1.75.36l-.81.24-1.13.37-.43.15a13.531,13.531,0,0,1-2.4.68,2.45,2.45,0,0,1-1,0,2.3,2.3,0,0,1-.49-.2c-.6-.35-.69-.88.44-1.53a3.92,3.92,0,0,1,3.47-.36l2.4-2.42a10.23,10.23,0,0,0-7.24.4l-2-1.15L173.24,340l2,1.15a3.09,3.09,0,0,0-1.49,2.29h0c0,.77.59,1.51,1.77,2.2,2.63,1.51,5.23,1,7.61.24,2.22-.72,3.83-1.57,5.1-.83.8.46.56,1-.33,1.53a4.41,4.41,0,0,1-3.8.22l-2.56,2.53a10.179,10.179,0,0,0,1.41.42,9.888,9.888,0,0,0,2.46.18,11.341,11.341,0,0,0,3.86-.95l2,1.16,2.69-1.56Z"/><path class="b" d="M189.27,348.97v2.13l2,1.16v-2.13Z"/><g class="t"><path d="M189.27,348.97v2.13l2,1.16v-2.13Z"/></g><path class="v" d="M173.24,339.97l2.72-1.57,2,1.15-1.98-.83Z"/><path class="v" d="M179.33,341.93a3.92,3.92,0,0,1,3.47-.36l2.4-2.42-2.4,2.17a3.64,3.64,0,0,0-3.47.61Z"/><path class="v" d="M181.54,349.32a10.178,10.178,0,0,0,1.41.42,9.889,9.889,0,0,0,2.46.18,8.629,8.629,0,0,1-3.47-.7l2.16-2.43Z"/><path class="v" d="M189.27,348.97l2,.91,2.69-1.31-2.69,1.56Z"/><path class="v" d="M165.48,335.57c7.08-4.3,18.12-4.73,18.12-4.73-6.94,0-13.45,1.55-18.33,4.37-4.68,2.7-7.25,6.22-7.25,9.91C158,345.12,158.27,340,165.48,335.57Z"/><path class="v" d="M181.54,360.52c7.52.34,15.23-1.16,21-4.48,6-3.45,8.54-8.13,7.67-12.63,0,0,1.12,7.34-8.12,12.36S181.54,360.52,181.54,360.52Z"/></g><g transform="translate(688.03 4858.561)"><path class="b" d="M253.81,394.6a17.18,17.18,0,0,0-6.39-5.91c-10.44-6-27.38-6-37.83,0a17.26,17.26,0,0,0-6.39,5.91h-1.45v5.46h0c.2,3.8,2.8,7.57,7.82,10.47,10.45,6,27.39,6,37.83,0,5-2.9,7.65-6.67,7.84-10.47h0V394.6Z"/><g class="q"><path d="M253.81,394.6a17.18,17.18,0,0,0-6.39-5.91c-10.44-6-27.38-6-37.83,0a17.26,17.26,0,0,0-6.39,5.91h-1.45v5.46h0c.2,3.8,2.8,7.57,7.82,10.47,10.45,6,27.39,6,37.83,0,5-2.9,7.65-6.67,7.84-10.47h0V394.6Z"/></g><g class="m"><path d="M228.51,384.16c-6.85,0-13.7,1.51-18.92,4.53a17.26,17.26,0,0,0-6.39,5.91h-1.45v5.46h0c.2,3.8,2.8,7.57,7.82,10.47,5.22,3,12.07,4.53,18.92,4.53Z"/></g><g class="m"><path d="M213.9,386.67a29.931,29.931,0,0,0-4.31,2,17.26,17.26,0,0,0-6.39,5.91h-1.45v5.46h0c.2,3.8,2.8,7.57,7.82,10.47a29.928,29.928,0,0,0,4.31,2Z"/></g><path class="b" d="M243.12,386.67a29.812,29.812,0,0,1,4.3,2,17.18,17.18,0,0,1,6.39,5.91h1.45v5.46h0c-.19,3.8-2.81,7.57-7.84,10.47a29.808,29.808,0,0,1-4.3,2Z"/><path class="b" d="M247.42,383.68c-10.44-6-27.38-6-37.83,0s-10.45,15.81,0,21.84,27.39,6,37.83,0S257.87,389.71,247.42,383.68Z"/><g class="r"><path d="M247.42,383.68c-10.44-6-27.38-6-37.83,0s-10.45,15.81,0,21.84,27.39,6,37.83,0S257.87,389.71,247.42,383.68Z"/></g><path class="b" d="M240.83,387.68a30.17,30.17,0,0,0-24.64,0c-3.5,1.79-5.43,4.25-5.43,6.92s1.93,5.13,5.43,6.92a30.07,30.07,0,0,0,24.64,0c3.49-1.79,5.42-4.25,5.42-6.92S244.32,389.47,240.83,387.68Z"/><g class="e"><path d="M240.83,387.68a30.17,30.17,0,0,0-24.64,0c-3.5,1.79-5.43,4.25-5.43,6.92s1.93,5.13,5.43,6.92a30.07,30.07,0,0,0,24.64,0c3.49-1.79,5.42-4.25,5.42-6.92S244.32,389.47,240.83,387.68Z"/></g><path class="b" d="M246.84,384.69c-4.88-2.82-11.39-4.37-18.33-4.37s-13.46,1.55-18.34,4.37c-4.68,2.7-7.25,6.22-7.25,9.91s2.57,7.22,7.25,9.92c4.88,2.81,11.39,4.36,18.34,4.36s13.45-1.55,18.33-4.36c4.68-2.7,7.26-6.23,7.26-9.92S251.52,387.39,246.84,384.69Zm-6,16.83a30.07,30.07,0,0,1-24.64,0c-3.5-1.79-5.43-4.25-5.43-6.92s1.93-5.13,5.43-6.92a30.17,30.17,0,0,1,24.64,0c3.49,1.79,5.42,4.25,5.42,6.92s-1.94,5.13-5.43,6.92Z"/><g class="r"><path d="M240.4,400.71c6.58-3.38,6.58-8.84,0-12.22s-17.22-3.37-23.79,0-6.57,8.84,0,12.22S233.83,404.08,240.4,400.71Z"/></g><path class="b" d="M240.4,400.71c6.58-3.38,6.58-8.84,0-12.22s-17.22-3.37-23.79,0-6.57,8.84,0,12.22S233.83,404.08,240.4,400.71Z"/><g class="s"><path d="M240.4,400.71c6.58-3.38,6.58-8.84,0-12.22s-17.22-3.37-23.79,0-6.57,8.84,0,12.22S233.83,404.08,240.4,400.71Z"/></g><path class="b" d="M240.4,390.78c-6.57-3.37-17.22-3.37-23.79,0-2.72,1.4-4.31,3.15-4.78,5,.47,1.82,2.06,3.57,4.78,5,6.57,3.37,17.22,3.37,23.79,0,2.72-1.4,4.31-3.15,4.78-5C244.71,393.93,243.12,392.18,240.4,390.78Z"/><g class="f"><path d="M240.4,390.78c-6.57-3.37-17.22-3.37-23.79,0-2.72,1.4-4.31,3.15-4.78,5,.47,1.82,2.06,3.57,4.78,5,6.57,3.37,17.22,3.37,23.79,0,2.72-1.4,4.31-3.15,4.78-5C244.71,393.93,243.12,392.18,240.4,390.78Z"/></g><path class="b" d="M230.1,388.63v2.46l-.84.89-1.56,1.63v-2.56Z"/><g class="g"><path d="M230.1,388.63v2.46l-.84.89-1.56,1.63v-2.56Z"/></g><path class="b" d="M227.7,391v1.46a14.452,14.452,0,0,1-2.4.68,2.46,2.46,0,0,1-1,0,2.3,2.3,0,0,1-.49-.2c-.59-.35-.69-.88.44-1.53A4,4,0,0,1,227.7,391Z"/><g class="t"><path d="M227.7,391v1.46a14.452,14.452,0,0,1-2.4.68,2.46,2.46,0,0,1-1,0,2.3,2.3,0,0,1-.49-.2c-.59-.35-.69-.88.44-1.53A4,4,0,0,1,227.7,391Z"/></g><path class="b" d="M238.87,398.05v2.13l-2.7,1.56-2-1.16a10.15,10.15,0,0,1-7.72.35V398.8l1.22-1.22-1.22.34a7.86,7.86,0,0,1-6-.69c-1.21-.69-1.78-1.46-1.77-2.24v-2.08l.22-.9-.74-.43v-2.13l2,1.15a3,3,0,0,0-1.48,2.29h0c0,.77.59,1.51,1.77,2.19,2.62,1.52,5.22,1,7.6.25,2.22-.72,3.83-1.57,5.11-.83.79.46.55,1-.34,1.53a4.41,4.41,0,0,1-3.8.22l-2.55,2.53a8.331,8.331,0,0,0,1.41.41,10.43,10.43,0,0,0,6.31-.76l2,1.16Z"/><g class="u"><path d="M218.66,392.89h0c0,.77.59,1.51,1.77,2.19,2.62,1.52,5.22,1,7.6.25,2.22-.72,3.83-1.57,5.11-.83.79.46.55,1-.34,1.53a4.41,4.41,0,0,1-3.8.22l-2.55,2.53a8.332,8.332,0,0,0,1.41.41,10.43,10.43,0,0,0,6.31-.76l2,1.16,2.7-1.56v2.13l-2.7,1.56-2-1.16a10.15,10.15,0,0,1-7.72.35V398.8l1.22-1.22-1.22.34a7.86,7.86,0,0,1-6-.69c-1.21-.69-1.78-1.46-1.77-2.24v-2.08l.22-.9"/></g><g class="t"><path d="M218.14,389.45v2.13l.74.43h0a4.38,4.38,0,0,1,1.27-1.41Z"/></g><path class="b" d="M238.42,396.66a2.52,2.52,0,0,1-.2,1l-1.35-.77a2.66,2.66,0,0,0,1.53-2C238.41,395.43,238.42,396.6,238.42,396.66Z"/><g class="g"><path d="M238.42,396.66a2.52,2.52,0,0,1-.2,1l-1.35-.77a2.66,2.66,0,0,0,1.53-2C238.41,395.43,238.42,396.6,238.42,396.66Z"/></g><path class="b" d="M238.42,397.79l-1.55-.89a2.64,2.64,0,0,0,1.55-2.37,1.489,1.489,0,0,0,0-.21c-.06-.73-.6-1.45-1.72-2.09h0a7.1,7.1,0,0,0-3.59-.93h-1.32a13.908,13.908,0,0,0-1.75.36l-.81.24-1.13.37-.43.15a13.7,13.7,0,0,1-2.39.68,2.49,2.49,0,0,1-1,0,2.548,2.548,0,0,1-.48-.2c-.61-.35-.7-.88.43-1.53a3.92,3.92,0,0,1,3.47-.36l2.4-2.42a10.23,10.23,0,0,0-7.24.4l-2-1.15-2.72,1.57,2,1.15a3.09,3.09,0,0,0-1.49,2.29h0c0,.77.59,1.51,1.78,2.19,2.62,1.52,5.22,1,7.6.25,2.22-.72,3.83-1.57,5.11-.83.79.46.55,1-.34,1.53a4.41,4.41,0,0,1-3.8.22l-2.56,2.53a10.178,10.178,0,0,0,1.41.42,9.93,9.93,0,0,0,2.47.18,11.34,11.34,0,0,0,3.85-.95l2,1.16,2.7-1.56Z"/><path class="b" d="M234.17,398.45v2.13l2,1.16v-2.13Z"/><g class="t"><path d="M234.17,398.45v2.13l2,1.16v-2.13Z"/></g><path class="v" d="M218.14,389.45l2.72-1.57,2,1.15-1.98-.83Z"/><path class="v" d="M224.23,391.41a3.92,3.92,0,0,1,3.47-.36l2.4-2.42-2.4,2.17A3.64,3.64,0,0,0,224.23,391.41Z"/><path class="v" d="M226.44,398.8a10.174,10.174,0,0,0,1.41.42,9.932,9.932,0,0,0,2.47.18,8.63,8.63,0,0,1-3.47-.7l2.15-2.43Z"/><path class="v" d="M234.17,398.45l2,.91,2.7-1.31-2.7,1.56Z"/><path class="v" d="M210.38,385.05c7.08-4.31,18.13-4.73,18.13-4.73-6.95,0-13.46,1.55-18.34,4.37-4.68,2.7-7.25,6.22-7.25,9.91C202.92,394.6,203.17,389.42,210.38,385.05Z"/><path class="v" d="M226.44,410c7.52.33,15.23-1.16,21-4.48,6-3.45,8.54-8.13,7.68-12.63,0,0,1.11,7.34-8.13,12.36S226.44,410,226.44,410Z"/><path class="b" d="M255.41,387.09a17.26,17.26,0,0,0-6.39-5.91c-10.45-6-27.38-6-37.83,0a17.18,17.18,0,0,0-6.39,5.91h-1.45v5.46h0c.19,3.8,2.79,7.57,7.82,10.47,10.45,6,27.38,6,37.83,0,5-2.9,7.64-6.67,7.84-10.47h0v-5.46Z"/><g class="q"><path d="M255.41,387.09a17.26,17.26,0,0,0-6.39-5.91c-10.45-6-27.38-6-37.83,0a17.18,17.18,0,0,0-6.39,5.91h-1.45v5.46h0c.19,3.8,2.79,7.57,7.82,10.47,10.45,6,27.38,6,37.83,0,5-2.9,7.64-6.67,7.84-10.47h0v-5.46Z"/></g><g class="m"><path d="M230.11,376.65c-6.85,0-13.7,1.51-18.92,4.53a17.18,17.18,0,0,0-6.39,5.91h-1.45v5.46h0c.19,3.8,2.79,7.57,7.82,10.47,5.22,3,12.07,4.52,18.92,4.52Z"/></g><g class="m"><path d="M215.49,379.16a27.823,27.823,0,0,0-4.3,2,17.18,17.18,0,0,0-6.39,5.91h-1.45v5.46h0c.19,3.8,2.79,7.57,7.82,10.47a29.813,29.813,0,0,0,4.3,2Z"/></g><path class="b" d="M244.72,379.16a28.267,28.267,0,0,1,4.3,2,17.26,17.26,0,0,1,6.39,5.91h1.45v5.46h0c-.2,3.8-2.81,7.57-7.84,10.47a30.326,30.326,0,0,1-4.3,2Z"/><path class="b" d="M249,376.17c-10.45-6-27.38-6-37.83,0s-10.45,15.81,0,21.84,27.38,6,37.83,0S259.47,382.2,249,376.17Z"/><g class="r"><path d="M249,376.17c-10.45-6-27.38-6-37.83,0s-10.45,15.81,0,21.84,27.38,6,37.83,0S259.47,382.2,249,376.17Z"/></g><path class="b" d="M242.42,380.16a30.25,30.25,0,0,0-24.63,0c-3.51,1.8-5.43,4.26-5.43,6.93s1.92,5.13,5.43,6.92a30,30,0,0,0,24.63,0c3.5-1.79,5.43-4.25,5.43-6.92S245.92,382,242.42,380.16Z"/><g class="e"><path d="M242.42,380.16a30.25,30.25,0,0,0-24.63,0c-3.51,1.8-5.43,4.26-5.43,6.93s1.92,5.13,5.43,6.92a30,30,0,0,0,24.63,0c3.5-1.79,5.43-4.25,5.43-6.92S245.92,382,242.42,380.16Z"/></g><path class="b" d="M248.44,377.18c-4.88-2.82-11.39-4.37-18.34-4.37s-13.45,1.55-18.33,4.37c-4.68,2.7-7.25,6.21-7.25,9.91s2.57,7.21,7.25,9.91c4.88,2.82,11.39,4.37,18.33,4.37s13.46-1.55,18.34-4.37c4.67-2.7,7.25-6.22,7.25-9.91S253.11,379.88,248.44,377.18Zm-6,16.83a30,30,0,0,1-24.63,0c-3.51-1.79-5.43-4.25-5.43-6.92s1.92-5.13,5.43-6.93a30.25,30.25,0,0,1,24.63,0c3.5,1.8,5.43,4.26,5.43,6.93s-1.95,5.13-5.45,6.91Z"/><g class="r"><path d="M242,393.19c6.57-3.37,6.57-8.84,0-12.21s-17.22-3.37-23.79,0-6.57,8.84,0,12.21S235.43,396.57,242,393.19Z"/></g><path class="b" d="M242,393.19c6.57-3.37,6.57-8.84,0-12.21s-17.22-3.37-23.79,0-6.57,8.84,0,12.21S235.43,396.57,242,393.19Z"/><g class="s"><path d="M242,393.19c6.57-3.37,6.57-8.84,0-12.21s-17.22-3.37-23.79,0-6.57,8.84,0,12.21S235.43,396.57,242,393.19Z"/></g><path class="b" d="M242,383.27c-6.57-3.37-17.22-3.37-23.79,0-2.72,1.39-4.31,3.15-4.78,5,.47,1.82,2.06,3.57,4.78,5,6.57,3.38,17.22,3.38,23.79,0,2.72-1.39,4.31-3.14,4.78-5C246.31,386.42,244.72,384.66,242,383.27Z"/><g class="f"><path d="M242,383.27c-6.57-3.37-17.22-3.37-23.79,0-2.72,1.39-4.31,3.15-4.78,5,.47,1.82,2.06,3.57,4.78,5,6.57,3.38,17.22,3.38,23.79,0,2.72-1.39,4.31-3.14,4.78-5C246.31,386.42,244.72,384.66,242,383.27Z"/></g><path class="b" d="M231.7,381.11v2.47l-.84.89-1.56,1.63v-2.57Z"/><g class="g"><path d="M231.7,381.11v2.47l-.84.89-1.56,1.63v-2.57Z"/></g><path class="b" d="M229.3,383.53V385a14.452,14.452,0,0,1-2.4.68,2.45,2.45,0,0,1-1,0,2.653,2.653,0,0,1-.49-.2c-.6-.36-.69-.88.44-1.53A4,4,0,0,1,229.3,383.53Z"/><g class="t"><path d="M229.3,383.53V385a14.452,14.452,0,0,1-2.4.68,2.45,2.45,0,0,1-1,0,2.653,2.653,0,0,1-.49-.2c-.6-.36-.69-.88.44-1.53A4,4,0,0,1,229.3,383.53Z"/></g><path class="b" d="M240.47,390.54v2.13l-2.7,1.56-2-1.16a10.18,10.18,0,0,1-7.73.35v-2.13l1.23-1.22-1.23.34a7.87,7.87,0,0,1-6-.69c-1.21-.7-1.77-1.46-1.77-2.25V385.4l.22-.91-.73-.42v-2.14l2,1.16a3.09,3.09,0,0,0-1.48,2.29h0c0,.77.59,1.51,1.77,2.19,2.63,1.52,5.23,1,7.61.25,2.22-.72,3.83-1.57,5.11-.83.79.46.55,1-.34,1.53a4.43,4.43,0,0,1-3.81.22L228,391.29a10.1,10.1,0,0,0,1.41.41,10.46,10.46,0,0,0,6.32-.76l2,1.16Z"/><g class="u"><path d="M220.25,385.38h0c0,.77.59,1.51,1.77,2.19,2.63,1.52,5.23,1,7.61.25,2.22-.72,3.83-1.57,5.11-.83.79.46.55,1-.34,1.53a4.43,4.43,0,0,1-3.81.22L228,391.29a10.1,10.1,0,0,0,1.41.41,10.46,10.46,0,0,0,6.32-.76l2,1.16,2.7-1.56v2.13l-2.7,1.56-2-1.16a10.18,10.18,0,0,1-7.73.35v-2.13l1.23-1.22-1.23.34a7.87,7.87,0,0,1-6-.69c-1.21-.7-1.77-1.46-1.77-2.25V385.4l.22-.91"/></g><g class="t"><path d="M219.74,381.93v2.14l.73.42h0a4.349,4.349,0,0,1,1.26-1.41Z"/></g><path class="b" d="M240,389.15a2.56,2.56,0,0,1-.2,1l-1.35-.77a2.66,2.66,0,0,0,1.53-2.05C240,387.92,240,389.09,240,389.15Z"/><g class="g"><path d="M240,389.15a2.56,2.56,0,0,1-.2,1l-1.35-.77a2.66,2.66,0,0,0,1.53-2.05C240,387.92,240,389.09,240,389.15Z"/></g><path class="b" d="M240,390.28l-1.55-.9A2.62,2.62,0,0,0,240,387a1.359,1.359,0,0,0,0-.21,2.92,2.92,0,0,0-1.72-2.09h0a7.12,7.12,0,0,0-3.59-.94h-1.06a1.329,1.329,0,0,0-.21,0,13.535,13.535,0,0,0-1.75.36c-.27.07-.55.15-.81.24l-1.13.37-.43.14a12.886,12.886,0,0,1-2.4.69,2.69,2.69,0,0,1-1,0,3.259,3.259,0,0,1-.48-.2c-.6-.35-.69-.88.44-1.53a4,4,0,0,1,3.47-.37l2.4-2.42a10.28,10.28,0,0,0-7.24.4l-2-1.15-2.72,1.58,2,1.15a3.08,3.08,0,0,0-1.49,2.29h0c0,.77.59,1.51,1.77,2.19,2.63,1.52,5.23,1,7.61.25,2.22-.72,3.83-1.57,5.1-.84.8.47.56,1-.33,1.53a4.4,4.4,0,0,1-3.81.23L228,391.29a10.1,10.1,0,0,0,1.41.41,9,9,0,0,0,2.46.18,11.34,11.34,0,0,0,3.86-.94l2,1.16,2.69-1.56Z"/><path class="b" d="M235.77,390.94v2.13l2,1.16V392.1Z"/><g class="t"><path d="M235.77,390.94v2.13l2,1.16V392.1Z"/></g><path class="v" d="M219.74,381.94l2.72-1.57,2,1.14-1.98-.82Z"/><path class="v" d="M225.83,383.9a4,4,0,0,1,3.47-.37l2.4-2.42-2.4,2.17a3.63,3.63,0,0,0-3.47.62Z"/><path class="v" d="M228,391.29a10.1,10.1,0,0,0,1.41.41,9,9,0,0,0,2.46.18,8.731,8.731,0,0,1-3.47-.69l2.15-2.43Z"/><path class="v" d="M235.77,390.94l2,.9,2.69-1.3-2.69,1.56Z"/><path class="v" d="M212,377.54c7.08-4.31,18.12-4.73,18.12-4.73-6.94,0-13.45,1.55-18.33,4.37-4.68,2.7-7.25,6.21-7.25,9.91C204.52,387.09,204.77,381.91,212,377.54Z"/><path class="v" d="M228,402.49c7.52.33,15.23-1.16,21-4.48,6-3.45,8.54-8.13,7.67-12.63,0,0,1.12,7.33-8.12,12.36S228,402.49,228,402.49Z"/></g></g></svg>