<svg xmlns="http://www.w3.org/2000/svg" width="57.455" height="61.559" viewBox="0 0 57.455 61.559"><defs><style>.a{fill:#fff;}</style></defs><path class="a" d="M4.7,35c-.087,0-.176,0-.264-.008a10.925,10.925,0,0,1-1.8-.265A2.4,2.4,0,0,1,.951,33.193a.367.367,0,0,1,.113-.49A3.274,3.274,0,0,1,3.3,31.834c.11,0,.222.005.335.015a6.557,6.557,0,0,1,1.359.335l.323.1a.88.88,0,0,0,.258.042.525.525,0,0,0,.5-.338.506.506,0,0,0-.306-.688c-.093-.047-.193-.089-.282-.125l-.029-.012-.073-.031L5.2,31.058l-.173-.074c.055-.149.115-.3.172-.442l0-.006a6.972,6.972,0,0,0,.333-.958,3.477,3.477,0,0,0-.559-3.134,2.918,2.918,0,0,0-.474-.451l-.083-.069a.5.5,0,0,0-.317-.131.522.522,0,0,0-.388.21.529.529,0,0,0-.125.38.615.615,0,0,0,.2.417,2.616,2.616,0,0,1,.8,1.865,2.638,2.638,0,0,1-.71,1.913.519.519,0,0,1-.324.148,5,5,0,0,0-2.93.933.058.058,0,0,1-.032.006H.567l-.039,0a9.537,9.537,0,0,1-.51-3.079c-.007-.524-.005-1.057,0-1.573v-.008h0c0-.467,0-.949,0-1.424a.561.561,0,0,1,.249-.5,6.836,6.836,0,0,0,.944-.939.42.42,0,0,1,.341-.191.635.635,0,0,1,.139.017l.75.165c.727.161,1.478.328,2.23.462a4.718,4.718,0,0,0,.82.077,3.059,3.059,0,0,0,1.273-.258,2.876,2.876,0,0,0,1.665-2.364c.14.057.278.119.412.179a6.282,6.282,0,0,0,.907.35,4.6,4.6,0,0,0,1.21.171,3.869,3.869,0,0,0,2.705-1.128.674.674,0,0,0,.245-.6.566.566,0,0,0-.377-.415.462.462,0,0,0-.172-.036.661.661,0,0,0-.439.249l-.02.019a2.788,2.788,0,0,1-1.944.848,2.954,2.954,0,0,1-1.114-.232,3.969,3.969,0,0,1-1.372-.934,1.993,1.993,0,0,1-.475-1.954,2.288,2.288,0,0,1,1.7-1.556,4.343,4.343,0,0,1,.444-.071h.006a.531.531,0,0,0,.5-.6.482.482,0,0,0-.519-.493H10.08A3.381,3.381,0,0,0,7.544,17.19a3.177,3.177,0,0,0-.626,2.549,3.737,3.737,0,0,0,.121.445,3.892,3.892,0,0,1,.122.441l.029.152a4.962,4.962,0,0,1,.125,1.058,1.573,1.573,0,0,1-1.563,1.623H5.716a16.459,16.459,0,0,1-2.093-.225l-.038-.006c-.2-.03-.412-.062-.618-.09a7.44,7.44,0,0,1-.74-.159c-.117-.029-.241-.061-.37-.09.014-.058.029-.115.044-.17.028-.107.055-.208.077-.313a.581.581,0,0,0-.393-.761.738.738,0,0,0-.18-.025c-.24,0-.385.16-.471.52a3,3,0,0,1-.918,1.686c0-.263,0-.525.006-.779.007-.6.014-1.167-.017-1.742a.819.819,0,0,1,.631-1A3.689,3.689,0,0,0,2.851,18.37,2.94,2.94,0,0,1,5.529,16.6,5.322,5.322,0,0,0,8.5,15.638a2.411,2.411,0,0,0,1.252-2.579c-.019-.082.109-.229.205-.3a3.648,3.648,0,0,0,1.274-4.3,2.373,2.373,0,0,0-1.685-1.49,25.4,25.4,0,0,0-2.851-.436L6.462,6.5H6.451c-.126,0-.361.233-.4.4a.557.557,0,0,0,.057.423.5.5,0,0,0,.332.227,6.1,6.1,0,0,0,.711.1h.007c.135.013.274.026.412.045.1.014.209.026.313.039l.04,0a6.87,6.87,0,0,1,1,.167,2.047,2.047,0,0,1,1.442,1.338,2.121,2.121,0,0,1-.34,1.957,4.737,4.737,0,0,1-.567.6c-.08.075-.178.168-.267.258A8.5,8.5,0,0,0,4.926,9.888a3.432,3.432,0,0,0-.662-.072,1.748,1.748,0,0,0-1.272.484.918.918,0,0,0-.293.509.681.681,0,0,0,.256.526.56.56,0,0,0,.271.058.411.411,0,0,0,.3-.087.877.877,0,0,1,.725-.337A1.979,1.979,0,0,1,4.556,11a6.456,6.456,0,0,1,3.656,1.65,1.28,1.28,0,0,1,.489.928,1.307,1.307,0,0,1-.551.918,4.62,4.62,0,0,1-2.444.973c-.475.066-.857.127-1.2.193a3.8,3.8,0,0,0-2.593,2.185,3.167,3.167,0,0,1-1.9,1.53v-3.28c0-1.437,0-2.922,0-4.387,0-.187,0-.348.248-.439A5.605,5.605,0,0,0,3.605,7.614a3.047,3.047,0,0,0,.159-.553,2.686,2.686,0,0,1,.744-1.426,2.009,2.009,0,0,1,1.514-.784,2.007,2.007,0,0,1,.33.028,1.564,1.564,0,0,0,.253.02,1.756,1.756,0,0,0,.387-.043.512.512,0,0,0,.4-.611.477.477,0,0,0-.525-.45c-.207,0-.418-.011-.621-.018L5.8,3.763H5.755A2.362,2.362,0,0,0,4.2,4.443c.007-.158.015-.3.022-.444.015-.3.028-.549.031-.8.006-.424-.17-.656-.511-.672H3.707c-.333,0-.508.2-.549.643-.029.3-.053.6-.076.9v.006a20.742,20.742,0,0,1-.274,2.339,5.565,5.565,0,0,1-2.793,3.85V8.266c0-1.9,0-3.857,0-5.785,0-.217.019-.437.037-.651V1.815c.007-.085.014-.17.02-.256C.152.5.643.054,1.772,0c.068,0,.136,0,.2,0A7.325,7.325,0,0,1,3.469.177,14.039,14.039,0,0,1,8.557,2.62,2.844,2.844,0,0,1,9.73,4.189,3.357,3.357,0,0,0,11.3,6.224,4.843,4.843,0,0,1,13.28,8.912a3.251,3.251,0,0,0,.392.828,5.753,5.753,0,0,1,1.044,4.512,4.368,4.368,0,0,0,.148,1.739,8.584,8.584,0,0,1-.266,3.953c-.089.384-.212.766-.33,1.136s-.242.758-.332,1.144a5.576,5.576,0,0,0-.106.821,5.1,5.1,0,0,1-.123.89,6.908,6.908,0,0,1-.678,1.652,5.14,5.14,0,0,0-.724,1.921,3.106,3.106,0,0,1-1.352,2.275,12.4,12.4,0,0,0-2.771,2.9l-.226.3c-.1.134-.212.265-.317.392l0,0c-.091.109-.2.244-.306.377A3.163,3.163,0,0,1,4.7,35ZM9.78,23.74a.653.653,0,0,0-.2.034.476.476,0,0,0-.306.22.754.754,0,0,0,.029.552,2.663,2.663,0,0,1-.382,2.443A5,5,0,0,1,7.079,28.5c-.364.193-.457.394-.32.693a.539.539,0,0,0,.5.338.68.68,0,0,0,.266-.058,4.489,4.489,0,0,0,.8-.438,4.522,4.522,0,0,0,2.22-3.752c-.013-.063-.027-.141-.043-.228a8.039,8.039,0,0,0-.182-.824C10.228,23.913,10.037,23.74,9.78,23.74Z" transform="translate(28.053 11.474)"/><path class="a" d="M9.95,28a4.76,4.76,0,0,1-1.191-.155,3.163,3.163,0,0,1-1.687-1.175c-.415-.509-.822-1.045-1.211-1.594a7.623,7.623,0,0,0-1.832-1.89,3.761,3.761,0,0,1-1.6-2.624,5.16,5.16,0,0,0-.7-1.707,6.093,6.093,0,0,1-.7-2.406A8.981,8.981,0,0,0,.7,14.844,12.883,12.883,0,0,1,0,11.359,7.882,7.882,0,0,1,.106,10c.035-.261.071-.53.091-.8a7.705,7.705,0,0,0,0-1.173A5.907,5.907,0,0,1,1.09,3.957a5,5,0,0,0,.533-1.116A4.981,4.981,0,0,1,3.747.184a2.1,2.1,0,0,0,1.774,1.1A2.628,2.628,0,0,0,6.5,1.079L7.32.746,7.339.738,7.353.732C7.875.521,8.416.3,8.949.092A1.387,1.387,0,0,1,9.308.018l.06-.007A1.639,1.639,0,0,1,9.555,0c.532,0,.81.308.826.917.008.294,0,.621-.03,1.03A3.057,3.057,0,0,0,12.5,5.271a7.63,7.63,0,0,0,1,.238c.169.032.321.062.476.1v7.668a3.122,3.122,0,0,1-.962.148A3.9,3.9,0,0,1,9.3,10.637a4.052,4.052,0,0,1,.149-2.068,3.663,3.663,0,0,0-.476-3.291A5.457,5.457,0,0,0,6.643,3.51c-.17-.077-.349-.138-.523-.2l-.008,0c-.113-.038-.229-.077-.341-.121a.581.581,0,0,0-.212-.045.484.484,0,0,0-.429.334.51.51,0,0,0,.3.692c.092.044.189.085.288.127a2.574,2.574,0,0,1,.653.352.956.956,0,0,1,.172,1.434,4.125,4.125,0,0,1-2.406,1.61,3.41,3.41,0,0,1-.968.16,1.953,1.953,0,0,1-1.1-.322.374.374,0,0,0-.205-.067.434.434,0,0,0-.363.27.524.524,0,0,0,.136.72,2.271,2.271,0,0,0,1.432.486c.059,0,.121,0,.182-.006A5.317,5.317,0,0,0,7.242,6.8a3.478,3.478,0,0,0,.421-.807c.053-.128.108-.26.168-.384A2.075,2.075,0,0,1,8.567,7.7c-.035.182-.075.367-.113.545l0,.01a6.335,6.335,0,0,0-.212,2.023,4.472,4.472,0,0,0,1.872,3.244,4.984,4.984,0,0,0,3.061.931c.129,0,.261,0,.394-.01.049,0,.1,0,.157,0h.247c0,.039.007.075.011.11a1.814,1.814,0,0,1,.014.19q0,.5,0,1v.014c0,.668,0,1.359.005,2.043,0,.222-.046.358-.3.393a7.943,7.943,0,0,1-1.1.079,6.53,6.53,0,0,1-3.376-.917,1.508,1.508,0,0,1-.8-1.266l.37-.079.016,0c.262-.055.532-.113.795-.179a.5.5,0,0,0,.377-.586c-.017-.287-.176-.473-.4-.473a.5.5,0,0,0-.183.037,2.675,2.675,0,0,1-.967.19A4.337,4.337,0,0,1,5.858,13.81a.393.393,0,0,1-.121-.249,4.242,4.242,0,0,1,.172-2.281.543.543,0,0,0-.274-.73.513.513,0,0,0-.212-.05c-.2,0-.346.139-.418.391-.126.441-.221.882-.323,1.349-.042.192-.084.385-.128.579-.023-.012-.049-.027-.078-.044l-.025-.015a2.007,2.007,0,0,0-.372-.187,13.059,13.059,0,0,0-1.255-.387.557.557,0,0,0-.131-.017.424.424,0,0,0-.421.4.6.6,0,0,0,.091.467.388.388,0,0,0,.281.148A4.382,4.382,0,0,1,5.02,14.408c.124.1.278.227.428.343.4.311.835.58,1.291.865l.013.008c.207.129.42.263.635.4-.014,1.085.6,1.884,1.932,2.516a7.813,7.813,0,0,0,3.367.772c.22,0,.442-.009.662-.028.145-.012.286-.032.436-.052l.024,0,.154-.021c0,.027.009.053.014.077a.646.646,0,0,1,.018.147c-.016.408-.025.823-.035,1.224-.022.965-.045,1.959-.157,2.928a12.057,12.057,0,0,1-.609,2.364l-.009.029-.108.328a2.142,2.142,0,0,1-1.341,1.34A4.864,4.864,0,0,1,9.95,28ZM8.3,24.054a.855.855,0,0,1,.864.58,5.683,5.683,0,0,1,.262.834l.036.14a.484.484,0,0,0,.51.41H9.98a.456.456,0,0,0,.478-.448.784.784,0,0,0-.03-.362c-.138-.391-.283-.775-.437-1.182l0-.007-.179-.476.047-.039.127-.1a3.508,3.508,0,0,0,1.192-1.955.712.712,0,0,0-.136-.554.456.456,0,0,0-.342-.17.55.55,0,0,0-.49.453,2.328,2.328,0,0,1-.97,1.483,2.3,2.3,0,0,1-1.157.318,1.973,1.973,0,0,1-1.958-1.8,4.959,4.959,0,0,1-.077-1.008c0-.139,0-.279-.008-.415a.573.573,0,0,0-.53-.579H5.476c-.272,0-.435.195-.435.52q0,.094,0,.189a7.383,7.383,0,0,0,.077,1.384,3.269,3.269,0,0,0,3.031,2.789l.1,0Z" transform="translate(13.053 18.474)"/><path class="a" d="M935.235,2139.258a2.689,2.689,0,0,1-2.834-1.844,3.406,3.406,0,0,1-.012-1.194c.3-2.056-.786-2.527-2.417-2.592a3.54,3.54,0,0,0-.461.044,1.208,1.208,0,0,1,1.005-1.025,3.089,3.089,0,0,1,.956.016c.4.061.621,0,.713-.3a.556.556,0,0,0-.39-.716,2.657,2.657,0,0,0-3.2,1.246,2,2,0,0,0-.277.773.662.662,0,0,1-.477.642c-.508.2-1,.458-1.524.614a1.1,1.1,0,0,1-1.042-.277.661.661,0,0,1-.2-.855,4.215,4.215,0,0,1,1.349-2.062c.66-.461,1.35-.881,2.049-1.285a11.171,11.171,0,0,1,4.113-1.388,3.305,3.305,0,0,1,1.793.165,1.152,1.152,0,0,1,.765.961,11.635,11.635,0,0,1,.108,1.234c.01,2.5.006,4.99,0,7.487,0,.122-.015.244-.023.361" transform="translate(-907.558 -2116.688)"/><path class="a" d="M930,2174h12.312s-2.6,2.479-3.056,2.872a.825.825,0,0,1-.489.2c-1.985.006-3.247,0-5.233-.022a.914.914,0,0,1-.549-.236C932.053,2175.963,930,2174,930,2174" transform="translate(-907.428 -2115.518)"/><path class="a" d="M956.156,2163.766a1.267,1.267,0,0,1-.749,1.281,1.171,1.171,0,0,1-1.351-.257q-1.684-1.675-3.359-3.36a1.747,1.747,0,0,1-.69-1.043,1.268,1.268,0,0,1,.642-1.256,1.244,1.244,0,0,1,1.4.2c1.254,1.238,2.509,2.474,3.738,3.735a2.374,2.374,0,0,1,.37.7" transform="translate(-906.908 -2115.907)"/><path class="a" d="M951.277,2131.155a1.356,1.356,0,0,1-1.133-.738,1.092,1.092,0,0,1,.142-1.289c.763-.791,1.55-1.562,2.328-2.338.478-.476.952-.957,1.44-1.421a1.2,1.2,0,0,1,1.536-.171,1.131,1.131,0,0,1,.5,1.378,1.514,1.514,0,0,1-.381.581c-1.2,1.2-2.413,2.405-3.644,3.585a3.179,3.179,0,0,1-.789.412" transform="translate(-906.908 -2116.791)"/><path class="a" d="M922.156,2129.774a1.258,1.258,0,0,1-.714,1.255,1.149,1.149,0,0,1-1.355-.215q-1.9-1.878-3.773-3.794a1.2,1.2,0,0,1,.057-1.672,1.236,1.236,0,0,1,1.765.048c.955.945,1.9,1.9,2.845,2.854a11.088,11.088,0,0,1,.864.9,2.761,2.761,0,0,1,.311.627" transform="translate(-907.792 -2116.791)"/><path class="a" d="M955.518,2152a2.137,2.137,0,0,1,.4.1q2.717,1.16,5.43,2.336a1.376,1.376,0,0,1,.849,1.508,1.394,1.394,0,0,1-1.177,1.174,1.512,1.512,0,0,1-.74-.1q-2.686-1.134-5.354-2.306a1.359,1.359,0,0,1-.9-1.545,1.412,1.412,0,0,1,1.495-1.168" transform="translate(-906.804 -2116.089)"/><path class="a" d="M922.156,2160.412a2.456,2.456,0,0,1-.374.679c-1.2,1.237-2.425,2.453-3.648,3.665a1.228,1.228,0,1,1-1.74-1.73q1.856-1.85,3.735-3.678a1.1,1.1,0,0,1,1.319-.223,1.279,1.279,0,0,1,.708,1.288" transform="translate(-907.792 -2115.907)"/><path class="a" d="M911.441,2133.068a5.2,5.2,0,0,1,.574.166c1.775.742,3.55,1.482,5.316,2.245a1.3,1.3,0,0,1,.85,1.508,1.379,1.379,0,0,1-1.859,1.047c-.4-.152-.793-.32-1.187-.485q-2.05-.862-4.1-1.728a1.377,1.377,0,0,1-.637-2.284,4.144,4.144,0,0,1,.982-.539l.059.069" transform="translate(-907.948 -2116.583)"/><path class="a" d="M910.5,2157.129a1.406,1.406,0,0,1-1.448-1.087,1.345,1.345,0,0,1,.736-1.613c1.061-.482,2.141-.919,3.215-1.371.74-.312,1.477-.623,2.219-.928a1.363,1.363,0,0,1,1.89.768,1.469,1.469,0,0,1-.881,1.9q-2.635,1.093-5.268,2.187a3.7,3.7,0,0,1-.464.14" transform="translate(-907.974 -2116.089)"/><path class="a" d="M946.705,2119a1.362,1.362,0,0,1,1.32,1.863q-1.138,2.751-2.344,5.474a1.392,1.392,0,1,1-2.553-1.11q1.141-2.727,2.317-5.439a1.271,1.271,0,0,1,1.259-.787" transform="translate(-907.09 -2116.948)"/><path class="a" d="M927.707,2127.208a1.426,1.426,0,0,1-1.327-.864q-1.133-2.69-2.258-5.385a1.36,1.36,0,0,1,.736-1.845,1.423,1.423,0,0,1,1.9.795q1.14,2.666,2.256,5.344a1.381,1.381,0,0,1-1.3,1.955" transform="translate(-907.584 -2116.948)"/><path class="a" d="M954,2137.656a1.418,1.418,0,0,1,.983-1.324c1.1-.457,2.2-.926,3.3-1.39q.982-.414,1.966-.825a1.382,1.382,0,0,1,1.835.7,1.44,1.44,0,0,1-.752,1.92q-2.72,1.164-5.453,2.3a1.394,1.394,0,0,1-1.881-1.373" transform="translate(-906.804 -2116.558)"/><path class="a" d="M960.1,2147.074c-.914,0-1.827.006-2.742,0a1.543,1.543,0,0,1-.052-3.057q2.779-.032,5.559,0a1.54,1.54,0,0,1-.063,3.061c-.9.007-1.8,0-2.7,0" transform="translate(-906.752 -2116.298)"/><path class="a" d="M937.076,2121.1c0,.911.005,1.822,0,2.735a1.545,1.545,0,0,1-3.07.017q-.01-2.755,0-5.511a1.549,1.549,0,0,1,3.066-.016c.011.925,0,1.85,0,2.775" transform="translate(-907.324 -2116.999)"/><path class="a" d="M912.13,2147.076c-.914,0-1.827,0-2.741,0a1.541,1.541,0,0,1-.043-3.062q2.779-.023,5.56,0a1.414,1.414,0,0,1,1.3,1.571,1.4,1.4,0,0,1-1.334,1.491c-.915.007-1.829,0-2.744,0" transform="translate(-908 -2116.298)"/><path class="a" d="M943.232,2166.051H928.209a1.039,1.039,0,1,1,0-2.051h15.024a1.039,1.039,0,1,1,0,2.051" transform="translate(-907.506 -2115.778)"/><path class="a" d="M943.178,2170.052H929.237a1.044,1.044,0,1,1,0-2.052h13.941a1.044,1.044,0,1,1,0,2.052" transform="translate(-907.48 -2115.674)"/><path class="a" d="M941.118,2173.052h-10.9a1.042,1.042,0,1,1,0-2.053h10.9a1.042,1.042,0,1,1,0,2.053" transform="translate(-907.454 -2115.596)"/></svg>