<svg xmlns="http://www.w3.org/2000/svg" xmlns:xlink="http://www.w3.org/1999/xlink" width="156.148" height="548.998" viewBox="0 0 156.148 548.998"><defs><style>.a{fill:#ec565d;}.b{fill:#e8a583;}.c{fill:#19090a;}.d{fill:#d64154;}.e{fill:#1c143f;}.f{fill:#1da399;}.g{fill:#252732;}.h{fill:#37b5a4;}.i{clip-path:url(#a);}.j{fill:#fab094;}.k,.l,.m{fill:none;stroke-miterlimit:10;}.k{stroke:#1c143f;}.l{stroke:#c98f7b;}.m{stroke:#bf5f52;}.n{fill:#fff;}.o{fill-rule:evenodd;fill:url(#b);}</style><clipPath id="a"><path class="a" d="M739.779,207.076c3.635,7.66,5.855,15.472,8.346,23.557,1.666,5.4,3.683,12.471,3.241,18.141a408.375,408.375,0,0,0,.061,65.514c1.823,21.934,6.193,43.585,6.674,65.639a2.382,2.382,0,0,1-2.15,2.89c-30.665,9.652-63.4,9.887-95.549,9.461a4.59,4.59,0,0,1-2.623-.566c-1.208-.848-1.3-2.57-1.286-4.046.281-20.538-1.979-41.22.612-61.954,1.279-10.315,2.135-20.721,2.743-31.146a219.491,219.491,0,0,0,.395-24.386c-.382-7.2-2.306-13.418-3.572-20.382-1.272-7-.351-14.672-.3-21.762.069-9.98.562-25.353,10.322-31.052,9.528-5.561,20.348-9.969,31.31-11.548,11.443-1.648,22.963,5.326,32.578,10.782a21.18,21.18,0,0,1,4.2,2.859,19.913,19.913,0,0,1,3.74,5.457Q739.175,205.8,739.779,207.076Z"/></clipPath><linearGradient id="b" x1="0.367" y1="2.026" x2="0.367" y2="2.949" gradientUnits="objectBoundingBox"><stop offset="0.349" stop-color="#26479c"/><stop offset="0.903" stop-color="#00caf2"/></linearGradient></defs><g transform="translate(-624.984 -78.14)"><path class="b" d="M767.985,313.756a8.057,8.057,0,0,1-.7,4.317c-1.1,1.886-3.633,2.573-5.761,2.073a11.543,11.543,0,0,1-5.423-3.521c-6.054-6.277-9.005-14.874-11.231-23.3a202.674,202.674,0,0,1-5.817-32.715c-.618-6.566-.906-13.269.634-19.681.662-2.758,1.834-5.653,4.293-7.066,16.96-9.749,21.943,49.812,22.649,57.277Q767.695,302.418,767.985,313.756Z"/><path class="c" d="M676.756,104.847c-19.964,18.516-10.724,55.2,11.684,66.765a42.35,42.35,0,0,0,33.812,1.955c21.989-8.23,31.841-61.015,7-71.763-3.748-1.622-6.754-3.915-10.2-5.788-3.1-1.682-7.781-1.33-11.328-1.373-8.466-.1-17.051,1.159-24.488,5.431A35.788,35.788,0,0,0,676.756,104.847Z"/><path class="d" d="M764.941,251.251q.267,1.272.53,2.541-13.23,3.348-26.233,7.513c-1.732-5.172-2.655-11.26-5.391-15.922-2.548-4.341-3.684-10.1-5.006-15.064-1.488-5.579-2.987-11.252-2.807-16.979.264-8.445,3.692-13.443,8.938-12.994,2.446.21,5.287,1.6,8.388,4.384a53.139,53.139,0,0,1,15.049,22.129C761.372,234.756,763.215,243.008,764.941,251.251Z"/><path class="b" d="M779.319,396.377c1.159,2.31,2.137,4.778,1.712,7.286a12.268,12.268,0,0,1-1.283,3.432,57.482,57.482,0,0,1-6.972,10.652,3.46,3.46,0,0,1-1.486,1.216c-1.206.389-2.487-.66-2.844-1.876-.866-2.956,1.285-5.936,1.031-8.885a22.632,22.632,0,0,0-3.628-10.121,29.024,29.024,0,0,0-.336,8.02,3.5,3.5,0,0,1-.065,1.52,1.107,1.107,0,0,1-1.166.784,1.533,1.533,0,0,1-.776-.576c-3.085-3.632-4.148-8.581-4.348-13.341-.166-3.95.52-8.024.114-11.949-.289-2.794-1.322-4.82-1-7.8a1.628,1.628,0,0,1,.386-1.046,1.689,1.689,0,0,1,.991-.33l5.228-.575a3.257,3.257,0,0,1,4.194,2.914c2.474,7.178,6.114,12.784,9.645,19.508C778.921,395.6,779.123,395.984,779.319,396.377Z"/><path class="b" d="M753.261,305.943c4.366-1.134,10.047-.569,13.2,4.568,3.491,5.682,3.03,13.083,3.79,19.441,2.222,18.6.984,38.3,1.411,57.062a13.124,13.124,0,0,1-.757,5.84c-3.228,6.984-9.362.589-10.165-4.275-1.861-11.274-6.769-21.611-8.887-32.7-2.252-11.786-4-23.66-5.754-35.528C744.889,312.139,746.658,307.658,753.261,305.943Z"/><path class="e" d="M745.278,616.818c2.248,2.391,2.974,5.642,2.514,9.152a1.035,1.035,0,0,1-.331.74,1.108,1.108,0,0,1-.652.135c-2.84-.006-5.587.293-8.4.293l-32.883-.949a3.379,3.379,0,0,1-1.448-.258,3.218,3.218,0,0,1-1.188-1.232c-3.3-5.27-.751-11.349-.76-17l-.023-14a.941.941,0,0,1,1.068-1.154,97.124,97.124,0,0,1,14.742-.2c-1.294,4.417-2.672,11.685.979,15.324,3.342,3.334,9.032,4.089,13.49,4.607,3.553.413,7.214.842,10.34,2.58A10.505,10.505,0,0,1,745.278,616.818Z"/><path class="e" d="M708.758,616.818c2.248,2.391,2.973,5.642,2.514,9.152a1.032,1.032,0,0,1-.332.74,1.1,1.1,0,0,1-.652.135c-2.84-.006-5.586.293-8.4.293L669,626.189a3.379,3.379,0,0,1-1.448-.258,3.228,3.228,0,0,1-1.189-1.232c-3.3-5.27-.751-11.349-.76-17q-.01-7-.023-14a.941.941,0,0,1,1.068-1.154,97.139,97.139,0,0,1,14.743-.2c-1.294,4.417-2.672,11.685.978,15.324,3.343,3.334,9.033,4.089,13.49,4.607,3.553.413,7.214.842,10.34,2.58A10.492,10.492,0,0,1,708.758,616.818Z"/><path class="f" d="M745.942,496.318c4.9-26.5,6.593-53.485,6.688-80.4.048-13.483-.309-26.965-.861-40.437-.543-13.274-1.152-27.6,1.411-40.66a1.583,1.583,0,0,0-1.478-2.229c-9.891-2.67-21.244-8.114-31.363-8.936-10.41-.848-15.9,10.218-18.851,18.5-7.233,20.311-3.971,45.07.438,65.666,3.825,17.868,7.676,35.861,8.466,54.172.811,18.808-1.3,37.7-2.821,56.42-2.319,28.629-11.727,85.265-11.727,85.265l25.272-1.867s7.808-30.058,8.748-33.281C736.753,544.909,741.454,520.571,745.942,496.318Z"/><path class="g" d="M690.409,239.8c-10.244-11.764-37.156-12.52-46.338.965a30.152,30.152,0,0,0-3.661,8.963,268.509,268.509,0,0,0-9.72,84.593c.275,6.054.778,12.208,3.008,17.844s6.443,10.759,12.167,12.75c6.57,2.284,14.087.032,19.511-4.322s9.065-10.532,12.025-16.826c6.961-14.808,10.757-30.881,14.1-46.9,3.126-14.971,5.906-30.381,3.481-45.481C694.315,247.23,693.173,242.972,690.409,239.8Z"/><path class="b" d="M664.361,252.547c-5.346,11.854-9.776,24-16.566,35.135-2.685,4.4-5.918,8.908-10.756,10.69-6.755,2.486-12.049.377-11.973-7.3a29.976,29.976,0,0,1,1.333-7.4c2.577-9.592,4.848-19.125,7.978-28.627,4.892-14.85,9.817-29.778,17.048-43.642,5.242-10.051,21.665-18.12,25.732-2.391,3.021,11.68-3.8,23.587-8.423,33.833Q666.547,247.7,664.361,252.547Z"/><path class="h" d="M662.792,327.164c-3.226,9.872-3.927,20.6-4.572,30.982-2.365,37.97,4.1,75.481,3.966,113.224L661.715,603.7q0,1.323-.009,2.646,10.855-.717,21.741-.637c3.955,0,8.488-52.263,9.108-57.4,7.814-64.712,14.252-129.621,22.288-194.294,1.328-10.685,2.874-22.317-1.44-32.464a26.183,26.183,0,0,0-13.6-13.959c-5.424-2.268-11.362-2.322-17.15-2.2-3.1.068-6.273.2-9.179,1.422-7.073,2.99-8.445,13.609-10.584,20.037C662.86,326.955,662.826,327.06,662.792,327.164Z"/><path class="a" d="M739.779,207.076c3.635,7.66,5.855,15.472,8.346,23.557,1.666,5.4,3.683,12.471,3.241,18.141a408.375,408.375,0,0,0,.061,65.514c1.823,21.934,6.193,43.585,6.674,65.639a2.382,2.382,0,0,1-2.15,2.89c-30.665,9.652-63.4,9.887-95.549,9.461a4.59,4.59,0,0,1-2.623-.566c-1.208-.848-1.3-2.57-1.286-4.046.281-20.538-1.979-41.22.612-61.954,1.279-10.315,2.135-20.721,2.743-31.146a219.491,219.491,0,0,0,.395-24.386c-.382-7.2-2.306-13.418-3.572-20.382-1.272-7-.351-14.672-.3-21.762.069-9.98.562-25.353,10.322-31.052,9.528-5.561,20.348-9.969,31.31-11.548,11.443-1.648,22.963,5.326,32.578,10.782a21.18,21.18,0,0,1,4.2,2.859,19.913,19.913,0,0,1,3.74,5.457Q739.175,205.8,739.779,207.076Z"/><g class="i"><path class="b" d="M709.186,218.334a27.47,27.47,0,0,0,10.79-1.684c8.3-3.153,16.539-13.072,13.777-22.512a10.549,10.549,0,0,0-3.039-4.417c-7.474-7.232-18.277-10.026-28.361-10.926-10.142-.9-20.188,4.52-27.1,11.82-1.215,1.282-2.412,2.819-2.359,4.586s1.325,3.212,2.546,4.479c5.852,6.067,12.317,11.739,19.974,15.26A36.519,36.519,0,0,0,709.186,218.334Z"/></g><path class="a" d="M677.323,209.334c-1.018-5.151-4.562-11.85-10.606-10.627a26.057,26.057,0,0,0-10.942,4.824c-6.322,4.84-10.368,12.157-13.579,19.286q-5.283,11.733-10.567,23.464,15.768,4.939,31.89,8.632C670.051,240.808,680.477,225.284,677.323,209.334Z"/><path class="g" d="M652.39,356.691l-9.525-6.963c39.451-53.948,50.54-110.533,27.388-156l10.421-5.563C705.884,237.68,694.52,299.077,652.39,356.691Z"/><path class="b" d="M715.463,196.085a7.3,7.3,0,0,1-.859,1.291c-1.9,2.264-4.792,2.535-7.325,2.1a18.93,18.93,0,0,1-9.675-4.923c-6.447-6.023-1.83-19.857-1.19-28.6a7.218,7.218,0,0,1,.242-1.616c.609-1.957,2.583-2.611,4.252-2.768a20.778,20.778,0,0,1,10.607,1.832c2.44,1.117,6.641,2.3,6.73,5.978a128.433,128.433,0,0,1-1.189,20.742A18.437,18.437,0,0,1,715.463,196.085Z"/><path class="j" d="M691.4,252.313c3.4-.108,8.223-1.2,8.136-5.7a26.284,26.284,0,0,0-.533-2.8c-.2-1.583.342-3.323-.44-4.715-.517-.916-1.572-1.581-1.665-2.629-.061-.682.32-1.347.252-2.027-.387-3.851-9.59.162-11.371.441a2.972,2.972,0,0,1-1.337-.007,2.632,2.632,0,0,1-1.251-1.034,12.632,12.632,0,0,1-2.031-5.488c.3,1.845-1.889,5.878-2.534,7.665-1.811,5.022-7.533,7.259-9.954,12.189a2.47,2.47,0,0,0-.348,1.663,2.6,2.6,0,0,0,.9,1.192c2.528,2.248,5.3,6.088,8.987,4.953,3.7-1.141,6.975-2.827,10.752-3.463A17.939,17.939,0,0,1,691.4,252.313Z"/><path class="j" d="M687.815,149.555c.971,10.586,6.267,20.93,15.028,27.166,6.7,4.771,16.87,7.571,24.52,3.4,10.271-5.593,13.005-20.269,13.273-30.892.316-12.563-3.924-26.852-15.811-33.032-8.358-4.347-21.734-5.4-28.25,2.479C689.83,126.84,686.8,138.526,687.815,149.555Z"/><path class="c" d="M725.225,112.993a22.389,22.389,0,0,1-3.8,2.92l-24.072,15.345c-12.618,8.042,2.2,17.717-4.17,28.693a5.227,5.227,0,0,1-1.529,1.773c-3.99,2.677-7.082-4.7-8.315-7.4a35.033,35.033,0,0,1-3.085-12.85c-.419-8.864,1.874-20.417,9.233-26,5.546-4.21,12.515-7.6,19.541-8.2,1.929-.163,18.509.823,18.492.559A6.607,6.607,0,0,1,725.225,112.993Z"/><path class="j" d="M692.607,157.426c2.182,4.25,1.827,8.784-.794,10.13s-6.511-1.009-8.694-5.258-1.826-8.784.794-10.13S690.426,153.178,692.607,157.426Z"/><path class="j" d="M664.714,248.694c5.667-3.84,17.144-10.508,18.977-1.647.814,3.937-1.79,6.567-4.377,9a195.247,195.247,0,0,0-19.839,21.739c-3.554,4.538-6.933,9.261-11.15,13.191-4.349,4.054-13.374,11.583-19.73,7.782-6.209-3.712-3.143-13.469-.182-18.157a50.221,50.221,0,0,1,8.742-9.789,273.4,273.4,0,0,1,25.428-20.629C663.122,249.8,663.851,249.279,664.714,248.694Z"/><path class="c" d="M675.909,83.272C671.48,87.661,665.853,91,665.462,97.951a12.465,12.465,0,0,0,6.493,11.654c3.376,1.7,7.339,1.6,11.116,1.459,2.367-.087,4.83-.2,6.914-1.323a14.541,14.541,0,0,0,4.208-3.946,25.615,25.615,0,0,0,4.854-8.174c1.5-4.845-.746-8.912-3.111-12.985-1.948-3.355-5.262-6.162-9.13-6.468C682.679,77.843,678.851,80.358,675.909,83.272Z"/><path class="e" d="M710.405,145.9c.386,2.77-.6,5.2-2.2,5.422s-3.214-1.842-3.6-4.614.6-5.2,2.2-5.422S710.019,143.123,710.405,145.9Z"/><path class="e" d="M732.777,143.4c.386,2.771-.6,5.2-2.2,5.423s-3.215-1.843-3.6-4.614.6-5.2,2.2-5.422S732.391,140.623,732.777,143.4Z"/><path class="k" d="M700.9,137.914a11.312,11.312,0,0,1,10.6-3.258"/><path class="k" d="M725.755,132.062c3.019-.56,7.413-.855,9.906,1.305"/><path class="l" d="M719.369,151.015a1.638,1.638,0,0,0,.414.819c1.573,1.9,4.42,2.145,6.319,3.711a1.819,1.819,0,0,1,.751,1.16,1.531,1.531,0,0,1-.359,1.037,4.017,4.017,0,0,1-2.963,1.339c-1.115.082-2.237-.074-3.351.009"/><path class="m" d="M728.889,168.44A15.976,15.976,0,0,1,711.33,166.1"/><path class="n" d="M736.68,242.586h0a7.526,7.526,0,0,1-7.527-7.526h0a7.527,7.527,0,0,1,7.527-7.526h0a7.527,7.527,0,0,1,7.526,7.526h0A7.526,7.526,0,0,1,736.68,242.586Z"/><path class="o" d="M742,231.816c-.227-.075-.45-.164-.68-.232a.16.16,0,0,1-.135-.191c0-.123-.005-.247-.009-.372a.321.321,0,0,0-.294-.344,5.772,5.772,0,0,0-1.443-.108,3.815,3.815,0,0,0-2.367.934c-.193.17-.368.357-.554.539l-.047-.05a3.424,3.424,0,0,0-1.137-.861,4.593,4.593,0,0,0-3.249-.168.291.291,0,0,0-.226.306c0,.146,0,.291.014.436a.141.141,0,0,1-.112.167c-.227.089-.449.19-.675.279a.336.336,0,0,0-.227.36q.1,3.126.193,6.253c.011.3.2.414.479.3.445-.177.889-.361,1.34-.516a6.317,6.317,0,0,1,2.325-.407,1.733,1.733,0,0,1,1.217.465.624.624,0,0,0,.638.006.156.156,0,0,1,.021-.015,1.751,1.751,0,0,1,1.231-.554,5.409,5.409,0,0,1,1.57.1,13.565,13.565,0,0,1,2.109.6c.276.1.465-.032.458-.321q-.1-3.138-.192-6.277A.329.329,0,0,0,742,231.816Zm-7.3,5.957a8.058,8.058,0,0,0-2.277.531c-.325.117-.645.246-.983.379-.005-.055-.01-.1-.014-.145q-.089-2.955-.183-5.914a.151.151,0,0,1,.109-.174c.173-.064.344-.143.537-.224l.006.177q.07,2.342.143,4.684c.009.313.165.427.471.352a4.639,4.639,0,0,1,2.112-.071,3.129,3.129,0,0,1,1.032.416C735.325,237.779,735.011,237.754,734.7,237.773Zm1.831.088c0,.032,0,.065,0,.123a4.229,4.229,0,0,0-4.109-.922l-.006-.152q-.081-2.73-.168-5.458c0-.113.03-.152.138-.178a4.344,4.344,0,0,1,2.406.047,3.072,3.072,0,0,1,1.508,1.067.358.358,0,0,1,.071.2Q736.448,235.223,736.526,237.861Zm5.34-5.551q.094,2.952.183,5.906l0,.146c-.074-.025-.137-.041-.194-.063a11.623,11.623,0,0,0-2.55-.62,5.115,5.115,0,0,0-1.531.044c.04-.026.076-.054.114-.078a3.65,3.65,0,0,1,2.205-.549,7.564,7.564,0,0,1,.817.092c.291.044.443-.077.435-.374q-.07-2.351-.143-4.7l-.007-.177c.225.08.425.149.622.223.021.007.035.037.043.058A.3.3,0,0,1,741.866,232.31Z"/></g></svg>