<svg xmlns="http://www.w3.org/2000/svg" xmlns:xlink="http://www.w3.org/1999/xlink" width="156.067" height="536.345" viewBox="0 0 156.067 536.345"><defs><style>.a{fill:#fc4c81;}.b{fill:#19090a;}.c{fill:#a87262;}.d{fill:#e03476;}.e{fill:#3f301d;}.f{fill:#1e3c72;}.g{fill:#2a002a;}.h{fill:#264790;}.i{clip-path:url(#a);}.j{fill:#b27c6b;}.k{fill:#070510;}.l,.m{fill:none;stroke-miterlimit:10;}.l{stroke:#1c143f;}.m{stroke:#7d4f40;}.n{fill:#bf0043;}.o{fill:#fff;}.p{fill-rule:evenodd;fill:url(#b);}.q{fill:#252732;}</style><clipPath id="a"><path class="a" d="M1292.526,206.743c19.308,34.543,9.625,80.762,12.583,118.7,1.418,18.187,4.744,36.221,5.142,54.484a2.38,2.38,0,0,1-2.149,2.89c-30.666,9.652-63.405,9.887-95.549,9.461a4.59,4.59,0,0,1-2.623-.566c-1.208-.848-1.306-2.57-1.286-4.046.281-20.538-1.98-41.22.612-61.954,1.278-10.315,2.135-20.721,2.742-31.146a219.506,219.506,0,0,0,.4-24.386c-.382-7.2-2.306-13.418-3.573-20.382-1.271-7-.35-14.672-.3-21.762.069-9.98.561-25.353,10.322-31.052,9.527-5.561,20.348-9.969,31.309-11.548,11.444-1.648,22.963,5.326,32.577,10.782A26.624,26.624,0,0,1,1292.526,206.743Z"/></clipPath><linearGradient id="b" x1="0.041" y1="9.557" x2="0.041" y2="10.48" gradientUnits="objectBoundingBox"><stop offset="0.349" stop-color="#26479c"/><stop offset="0.903" stop-color="#00caf2"/></linearGradient></defs><g transform="translate(-1177.216 -90.793)"><path class="b" d="M1297.148,124.179s4.8,31.129,1.432,59.741,2.355,38.49,2.355,38.49-32.361-16.113-33.864-32.482l1.683-21.28s16.261-21.705,15.37-31.449S1297.148,124.179,1297.148,124.179Z"/><path class="c" d="M1320.136,313.756a8.056,8.056,0,0,1-.7,4.317,5.306,5.306,0,0,1-5.761,2.073,11.551,11.551,0,0,1-5.424-3.521c-6.054-6.277-9.005-14.874-11.23-23.3a202.656,202.656,0,0,1-5.818-32.715c-.618-6.566-.905-13.269.634-19.681.662-2.758,1.835-5.653,4.294-7.066,16.96-9.749,21.942,49.812,22.648,57.277Q1319.845,302.418,1320.136,313.756Z"/><path class="d" d="M1317.092,251.251q.267,1.272.529,2.541-13.228,3.348-26.232,7.513c-1.733-5.172-2.656-11.26-5.392-15.922-2.548-4.341-3.683-10.1-5.006-15.064-1.487-5.579-2.986-11.252-2.806-16.979.263-8.445,3.691-13.443,8.937-12.994,2.446.21,5.287,1.6,8.389,4.384a53.159,53.159,0,0,1,15.049,22.129C1313.522,234.756,1315.365,243.008,1317.092,251.251Z"/><path class="c" d="M1331.47,396.377c1.158,2.31,2.136,4.778,1.712,7.286a12.266,12.266,0,0,1-1.284,3.432,57.474,57.474,0,0,1-6.971,10.652,3.457,3.457,0,0,1-1.487,1.216c-1.206.389-2.487-.66-2.843-1.876-.867-2.956,1.285-5.936,1.03-8.885A22.621,22.621,0,0,0,1318,398.081a29.059,29.059,0,0,0-.336,8.02,3.5,3.5,0,0,1-.064,1.52,1.107,1.107,0,0,1-1.166.784,1.532,1.532,0,0,1-.777-.576c-3.085-3.632-4.147-8.581-4.347-13.341-.166-3.95.519-8.024.114-11.949-.289-2.794-1.322-4.82-1-7.8a1.628,1.628,0,0,1,.385-1.046,1.689,1.689,0,0,1,.992-.33l5.227-.575a3.258,3.258,0,0,1,4.195,2.914c2.473,7.178,6.114,12.784,9.644,19.508C1331.071,395.6,1331.273,395.984,1331.47,396.377Z"/><path class="c" d="M1305.411,305.943c4.366-1.134,10.047-.569,13.2,4.568,3.491,5.682,3.031,13.083,3.79,19.441,2.222,18.6.985,38.3,1.412,57.062a13.136,13.136,0,0,1-.757,5.84c-3.229,6.984-9.363.589-10.165-4.275-1.862-11.274-6.77-21.611-8.887-32.7-2.252-11.786-4-23.66-5.755-35.528C1297.039,312.139,1298.809,307.658,1305.411,305.943Z"/><path class="e" d="M1297.429,616.818c2.248,2.391,2.973,5.642,2.513,9.152a1.031,1.031,0,0,1-.331.74,1.105,1.105,0,0,1-.652.135c-2.84-.006-5.587.293-8.4.293l-32.883-.949a3.379,3.379,0,0,1-1.448-.258,3.227,3.227,0,0,1-1.189-1.232c-3.3-5.27-.751-11.349-.76-17q-.01-7-.023-14a.941.941,0,0,1,1.068-1.154,97.136,97.136,0,0,1,14.743-.2c-1.294,4.417-2.672,11.685.978,15.324,3.343,3.334,9.032,4.089,13.49,4.607,3.553.413,7.214.842,10.34,2.58A10.49,10.49,0,0,1,1297.429,616.818Z"/><path class="e" d="M1260.908,616.818c2.248,2.391,2.974,5.642,2.515,9.152a1.035,1.035,0,0,1-.332.74,1.107,1.107,0,0,1-.652.135c-2.84-.006-5.586.293-8.4.293l-32.883-.949a3.379,3.379,0,0,1-1.448-.258,3.218,3.218,0,0,1-1.188-1.232c-3.3-5.27-.751-11.349-.76-17q-.012-7-.024-14a.943.943,0,0,1,1.069-1.154,97.125,97.125,0,0,1,14.742-.2c-1.294,4.417-2.672,11.685.979,15.324,3.342,3.334,9.033,4.089,13.49,4.607,3.553.413,7.214.842,10.34,2.58A10.5,10.5,0,0,1,1260.908,616.818Z"/><path class="f" d="M1298.093,496.318c4.9-26.5,6.593-53.485,6.687-80.4.048-13.483-.308-26.965-.861-40.437-.543-13.274-1.151-27.6,1.411-40.66a1.582,1.582,0,0,0-1.477-2.229c-9.892-2.67-21.245-8.114-31.364-8.936-10.41-.848-15.9,10.218-18.85,18.5-7.234,20.311-3.972,45.07.437,65.666,3.825,17.868,7.676,35.861,8.466,54.172.811,18.808-1.3,37.7-2.82,56.42-2.32,28.629-11.728,85.265-11.728,85.265l25.273-1.867s7.807-30.058,8.748-33.281C1288.9,544.909,1293.6,520.571,1298.093,496.318Z"/><path class="g" d="M1242.56,239.8c-10.245-11.764-37.157-12.52-46.338.965a30.122,30.122,0,0,0-3.661,8.963,268.507,268.507,0,0,0-9.72,84.593c.274,6.054.777,12.208,3.008,17.844s6.442,10.759,12.167,12.75c6.569,2.284,14.087.032,19.51-4.322s9.066-10.532,12.026-16.826c6.961-14.808,10.757-30.881,14.1-46.9,3.126-14.971,5.907-30.381,3.482-45.481C1246.466,247.23,1245.323,242.972,1242.56,239.8Z"/><path class="c" d="M1216.512,252.547c-5.347,11.854-9.777,24-16.567,35.135-2.684,4.4-5.918,8.908-10.755,10.69-6.755,2.486-12.049.377-11.973-7.3a29.875,29.875,0,0,1,1.333-7.4c2.576-9.592,4.847-19.125,7.977-28.627,4.893-14.85,9.818-29.778,17.048-43.642,5.242-10.051,21.665-18.12,25.733-2.391,3.02,11.68-3.8,23.587-8.423,33.833Q1218.7,247.7,1216.512,252.547Z"/><path class="h" d="M1214.942,327.164c-3.225,9.872-3.926,20.6-4.572,30.982-2.364,37.97,4.1,75.481,3.967,113.224l-.472,132.328q0,1.323-.009,2.646,10.857-.717,21.742-.637c3.955,0,8.487-52.263,9.107-57.4,7.815-64.712,14.252-129.621,22.288-194.294,1.328-10.685,2.874-22.317-1.439-32.464a26.185,26.185,0,0,0-13.6-13.959c-5.424-2.268-11.361-2.322-17.149-2.2-3.1.068-6.274.2-9.179,1.422-7.073,2.99-8.445,13.609-10.584,20.037C1215.011,326.955,1214.977,327.06,1214.942,327.164Z"/><path class="a" d="M1292.526,206.743c19.308,34.543,9.625,80.762,12.583,118.7,1.418,18.187,4.744,36.221,5.142,54.484a2.38,2.38,0,0,1-2.149,2.89c-30.666,9.652-63.405,9.887-95.549,9.461a4.59,4.59,0,0,1-2.623-.566c-1.208-.848-1.306-2.57-1.286-4.046.281-20.538-1.98-41.22.612-61.954,1.278-10.315,2.135-20.721,2.742-31.146a219.506,219.506,0,0,0,.4-24.386c-.382-7.2-2.306-13.418-3.573-20.382-1.271-7-.35-14.672-.3-21.762.069-9.98.561-25.353,10.322-31.052,9.527-5.561,20.348-9.969,31.309-11.548,11.444-1.648,22.963,5.326,32.577,10.782A26.624,26.624,0,0,1,1292.526,206.743Z"/><g class="i"><path class="c" d="M1261.336,218.334a27.464,27.464,0,0,0,10.79-1.684c8.3-3.153,16.539-13.072,13.777-22.512a10.54,10.54,0,0,0-3.039-4.417c-7.473-7.232-18.276-10.026-28.361-10.926-10.142-.9-20.188,4.52-27.1,11.82-1.215,1.282-2.412,2.819-2.359,4.586s1.325,3.212,2.547,4.479c5.851,6.067,12.316,11.739,19.974,15.26A36.51,36.51,0,0,0,1261.336,218.334Z"/></g><path class="d" d="M1229.474,209.334c-1.019-5.151-4.563-11.85-10.607-10.627a26.053,26.053,0,0,0-10.941,4.824c-6.323,4.84-10.368,12.157-13.579,19.286l-10.568,23.464q15.768,4.939,31.891,8.632C1222.2,240.808,1232.627,225.284,1229.474,209.334Z"/><path class="g" d="M1204.54,356.691l-9.524-6.963c39.451-53.948,50.54-110.533,27.387-156l10.421-5.563C1258.034,237.68,1246.671,299.077,1204.54,356.691Z"/><path class="c" d="M1267.613,196.085a7.353,7.353,0,0,1-.858,1.291c-1.9,2.264-4.792,2.535-7.325,2.1a18.926,18.926,0,0,1-9.675-4.923c-6.447-6.023-1.83-19.857-1.19-28.6a7.166,7.166,0,0,1,.242-1.616c.608-1.957,2.583-2.611,4.252-2.768a20.775,20.775,0,0,1,10.606,1.832c2.44,1.117,6.642,2.3,6.731,5.978a128.553,128.553,0,0,1-1.19,20.742A18.437,18.437,0,0,1,1267.613,196.085Z"/><path class="j" d="M1239.966,149.555c.97,10.586,6.266,20.93,15.027,27.166,6.7,4.771,16.87,7.571,24.521,3.4,10.27-5.593,13.005-20.269,13.272-30.892.317-12.563-3.924-26.852-15.81-33.032-8.359-4.347-21.735-5.4-28.25,2.479C1241.98,126.84,1238.955,138.526,1239.966,149.555Z"/><path class="k" d="M1266.291,145.994a2.937,2.937,0,1,1-3.336-2.712A3.045,3.045,0,0,1,1266.291,145.994Z"/><path class="k" d="M1284.659,143.471a2.937,2.937,0,1,1-3.335-2.712A3.044,3.044,0,0,1,1284.659,143.471Z"/><path class="l" d="M1257.052,139.914a11.31,11.31,0,0,1,10.6-3.258"/><path class="l" d="M1277.905,134.062c3.02-.56,7.413-.855,9.906,1.305"/><path class="m" d="M1273.171,150.015a2.422,2.422,0,0,0,.216.819c.817,1.9,2.3,2.145,3.283,3.711a2.381,2.381,0,0,1,.391,1.16,2.575,2.575,0,0,1-.187,1.037,1.945,1.945,0,0,1-1.54,1.339c-.579.082-1.162-.074-1.741.009"/><path class="n" d="M1277.905,168.44c-3.6,2.859-8.3,1.883-11.291-2.342"/><path class="o" d="M1288.83,242.586h0a7.526,7.526,0,0,1-7.526-7.526h0a7.527,7.527,0,0,1,7.526-7.526h0a7.527,7.527,0,0,1,7.526,7.526h0A7.526,7.526,0,0,1,1288.83,242.586Z"/><path class="p" d="M1294.147,231.816c-.228-.075-.451-.164-.68-.232a.16.16,0,0,1-.136-.191c0-.123-.005-.247-.009-.372a.32.32,0,0,0-.294-.344,5.768,5.768,0,0,0-1.443-.108,3.812,3.812,0,0,0-2.366.934c-.194.17-.368.357-.555.539l-.047-.05a3.4,3.4,0,0,0-1.137-.861,4.592,4.592,0,0,0-3.249-.168.29.29,0,0,0-.225.306c0,.146,0,.291.014.436a.142.142,0,0,1-.113.167c-.226.089-.449.19-.675.279a.334.334,0,0,0-.226.36q.1,3.126.192,6.253c.011.3.2.414.48.3.444-.177.888-.361,1.34-.516a6.314,6.314,0,0,1,2.325-.407,1.733,1.733,0,0,1,1.217.465.622.622,0,0,0,.637.006l.022-.015a1.747,1.747,0,0,1,1.23-.554,5.418,5.418,0,0,1,1.571.1,13.557,13.557,0,0,1,2.108.6c.276.1.466-.032.459-.321q-.1-3.138-.192-6.277A.329.329,0,0,0,1294.147,231.816Zm-7.3,5.957a8.073,8.073,0,0,0-2.278.531c-.325.117-.644.246-.983.379-.005-.055-.01-.1-.014-.145q-.087-2.955-.182-5.914a.15.15,0,0,1,.108-.174c.174-.064.345-.143.537-.224l.006.177q.072,2.342.144,4.684c.008.313.165.427.47.352a4.643,4.643,0,0,1,2.113-.071,3.137,3.137,0,0,1,1.032.416C1287.476,237.779,1287.161,237.754,1286.846,237.773Zm1.831.088c0,.032,0,.065,0,.123a4.229,4.229,0,0,0-4.109-.922l-.006-.152q-.081-2.73-.168-5.458c0-.113.03-.152.137-.178a4.348,4.348,0,0,1,2.407.047,3.07,3.07,0,0,1,1.507,1.067.358.358,0,0,1,.072.2Q1288.6,235.223,1288.677,237.861Zm5.34-5.551q.093,2.952.182,5.906l0,.146c-.074-.025-.137-.041-.193-.063a11.631,11.631,0,0,0-2.551-.62,5.108,5.108,0,0,0-1.53.044c.04-.026.075-.054.113-.078a3.651,3.651,0,0,1,2.2-.549,7.578,7.578,0,0,1,.818.092c.29.044.443-.077.434-.374q-.07-2.351-.143-4.7l-.006-.177c.224.08.424.149.622.223.02.007.035.037.043.058A.3.3,0,0,1,1294.017,232.31Z"/><rect class="q" width="85.781" height="56.8" transform="translate(1195.606 311.587) rotate(-67.371)"/><path class="f" d="M1228.611,232.409l52.428,21.855-33.006,79.176-.745-3.056-23.364-95.869,3.156-1.419h0Z"/><path class="o" d="M1227.08,233.1l50.272,20.878c-.454,1.086-.253.607-1,2.4l-41.918,27.289-10.51-49.146Z"/><rect class="h" width="82.032" height="56.8" transform="translate(1192.36 310.233) rotate(-67.37)"/><path class="j" d="M1238.384,285.678c6.722,1.292,19.554,4.693,14.584,12.255-2.209,3.359-5.909,3.377-9.461,3.272a195.183,195.183,0,0,0-29.4,1.342c-5.72.7-11.45,1.647-17.21,1.444-5.942-.21-17.648-1.267-19.455-8.449-1.765-7.015,7.3-11.746,12.711-12.968a50.272,50.272,0,0,1,13.1-.74,273.145,273.145,0,0,1,32.566,3.393C1236.478,285.334,1237.36,285.481,1238.384,285.678Z"/><path class="j" d="M1263.038,290.809a4.109,4.109,0,0,1-.715-.625,13.013,13.013,0,0,0,1.85-2.389c1.388-2.261,1.962-4.431,1.282-4.849-.314-.193-.848.037-1.463.551q.2-.29.4-.571c-1.09,1.52-5.493,2.82-7.212,3.628-4.833,2.271-10.46-.194-15.658,1.581a2.463,2.463,0,0,0-1.422.93,2.579,2.579,0,0,0-.206,1.478c.2,3.377-.554,8.056,2.852,9.857,3.424,1.811,6.931,2.933,10.051,5.155a17.97,17.97,0,0,1,1.9,1.549c2.484,2.33,6.666,4.963,9.783,1.725a26.822,26.822,0,0,0,1.6-2.355c.975-1.264,2.591-2.108,3.023-3.645.282-1.014.006-2.229.681-3.037.439-.525,1.179-.726,1.613-1.254C1273.839,295.54,1264.494,291.871,1263.038,290.809Z"/><path class="b" d="M1270.263,110.24s16.434,17.926,20.663,22.17l7-1.1s2.854-28.074-17.971-31.991c0,0-5.41-8.529-23.471-8.529s-33.3,11.438-39.983,31.374-2.718,73.386-7.313,80.15l9.611-3.2s22.564,10.482,30.8,19.739c0,0,18.071-6.144,6.385-26.907-8.869-15.759-13.707-48.192-13.707-48.192Z"/><path class="j" d="M1245.758,157.426c2.182,4.25,1.826,8.784-.794,10.13s-6.512-1.009-8.694-5.258-1.827-8.784.794-10.13S1243.576,153.178,1245.758,157.426Z"/><path class="b" d="M1275.45,109.4s-9.848,16.787-26.473,26a31.516,31.516,0,0,1,.645-16.224c2.745-8.331,21.666-13.718,25.125-12.907S1275.45,109.4,1275.45,109.4Z"/><path class="b" d="M1270.047,111.827s7.25,12.565,18.993,18.162l4.429-9.475S1289.137,103.24,1270.047,111.827Z"/></g></svg>