<svg xmlns="http://www.w3.org/2000/svg" xmlns:xlink="http://www.w3.org/1999/xlink" width="182.616" height="152.514" viewBox="0 0 182.616 152.514"><defs><style>.a{fill:none;}.b{fill:#1958db;}.c{fill:#b3e3ef;}.d{fill:#29266b;}.e{fill:#f7958d;}.f{fill:#fca89e;}.g{fill:#fff;}.h{fill:rgba(0,0,0,0);}.i{clip-path:url(#a);}.j{fill:#0e97cd;}.k{clip-path:url(#b);}.l{fill:#0c5a9a;}.m{fill:#03436b;}.n{fill:#4396ca;}.o{clip-path:url(#c);}.p{fill:#ff645f;}.q{fill:#da3f3a;}.r{clip-path:url(#d);}.s{clip-path:url(#e);}.t{fill:#97c7d3;}.u{clip-path:url(#g);}.v{fill:#a2ccda;}.w{fill:#2a2873;}.x{fill:#823024;}.y{fill:#d2f7ff;}.z{clip-path:url(#h);}.aa{clip-path:url(#i);}.ab{fill:#f5abbc;}.ac{clip-path:url(#k);}.ad{fill:#4e687f;}</style><clipPath id="a"><rect class="a" width="182.616" height="17.114"/></clipPath><clipPath id="b"><rect class="a" width="182.616" height="13.605"/></clipPath><clipPath id="c"><rect class="a" width="182.616" height="152.011"/></clipPath><clipPath id="d"><path class="a" d="M659.194,1272.8a5.763,5.763,0,0,0,3.893,7.16h0c3.052.9,5.6,1.368,6.506-1.684h0c.9-3.053-.188-8.469-3.24-9.369h0a5.751,5.751,0,0,0-1.635-.238h0a5.765,5.765,0,0,0-5.524,4.131Z" transform="translate(-658.956 -1268.67)"/></clipPath><clipPath id="e"><path class="a" d="M659.185,1282.209a3.29,3.29,0,0,0-3.277,3.566h0l1.805,21.416h14.454l-.749-3.853,2.555-17.563a3.29,3.29,0,0,0-3.277-3.566H659.185Z" transform="translate(-655.896 -1282.209)"/></clipPath><clipPath id="g"><path class="a" d="M659.185,1282.209a3.29,3.29,0,0,0-3.277,3.566h0l3.041,17.135-1.235,4.281h14.454l-.749-3.853,2.555-17.563a3.29,3.29,0,0,0-3.277-3.566h0" transform="translate(-655.896 -1282.209)"/></clipPath><clipPath id="h"><path class="a" d="M787.42,1271c-2.9.856-3.928,5.993-3.075,8.889h0c.856,2.9,3.279,2.452,6.172,1.6h0a5.467,5.467,0,0,0,3.695-6.792h0a5.471,5.471,0,0,0-5.239-3.92h0a5.422,5.422,0,0,0-1.553.227Z" transform="translate(-784.055 -1270.77)"/></clipPath><clipPath id="i"><path class="a" d="M784.274,1283.616a3.121,3.121,0,0,0-3.111,3.383h0l1.712,20.317H796.59L798.3,1287a3.12,3.12,0,0,0-3.108-3.383h-10.92Z" transform="translate(-781.151 -1283.616)"/></clipPath><clipPath id="k"><path class="a" d="M784.274,1283.616a3.121,3.121,0,0,0-3.111,3.383h0l1.712,20.317H796.59L798.3,1287a3.12,3.12,0,0,0-3.108-3.383h0" transform="translate(-781.151 -1283.616)"/></clipPath></defs><path class="b" d="M796.308,1301.611H651.558a4.083,4.083,0,0,1-4.082-4.083v-86.107a4.083,4.083,0,0,1,4.082-4.081h144.75a4.082,4.082,0,0,1,4.082,4.081v86.107a4.082,4.082,0,0,1-4.082,4.083" transform="translate(-632.624 -1207.339)"/><path class="c" d="M792.784,1217.311v73.981a3.609,3.609,0,0,1-3.7,3.517H658.4a3.606,3.606,0,0,1-3.683-3.517v-73.981a3.6,3.6,0,0,1,3.683-3.5h130.69a3.6,3.6,0,0,1,3.7,3.5" transform="translate(-632.436 -1207.172)"/><path class="d" d="M722.585,1221.354c-1.814-.659-8.908-4.455-15.012-1.815s-6.269,5.939-6.434,9.9-4.95,6.433-7.095,11.547a15.974,15.974,0,0,0,3.8,16.991c4.785,4.62,3.959,9.733,3.959,13.857s10.8,8.5,11.754-2.019,2.433-20.58,2.762-23.219c.18-1.434,9.911-10.44,11.549-16.828,1.38-5.382-5.279-8.412-5.279-8.412" transform="translate(-631.44 -1207.046)"/><path class="d" d="M721.836,1221.354c1.814-.659,9.359-4.455,15.463-1.815s6.267,5.939,6.434,9.9,4.948,6.433,7.093,11.547a15.973,15.973,0,0,1-3.794,16.991c-4.785,4.62-3.96,9.733-3.96,13.857s-10.8,8.5-11.754-2.019-3.872-20.745-4.2-23.385-5.279-25.075-5.279-25.075" transform="translate(-630.691 -1207.046)"/><path class="e" d="M731.634,1269.482H712.946q.041-.329.083-.7c.33-3.641.714-7.214,1.113-10.456h15.913c.618,3.256,1.18,6.831,1.5,10.456q.041.372.083.7" transform="translate(-630.922 -1206.014)"/><path class="f" d="M715.8,1262.91c8.614,6.893,14.366,2.027,20.275-7.291,7.019-11.068,7.061-22-1.551-28.892a19.975,19.975,0,0,0-28.077,3.118c-6.893,8.61.741,26.174,9.354,33.065" transform="translate(-631.161 -1206.949)"/><path class="d" d="M702.577,1245.03c.515.739,6.846-2.226,12.043-7.423,6.269-6.269,7.258-11.052,7.918-11.052s2.57,5.5,5.775,9.733c4.618,6.1,14.351,9.236,14.351,9.236A13.759,13.759,0,0,0,742,1234.8c-2.8-5.609-9.072-12.043-14.021-12.7a55.915,55.915,0,0,0-11.548-.33c-3.959.164-14.021,7.094-15.012,11.217s1.156,12.043,1.156,12.043" transform="translate(-631.229 -1206.968)"/><path class="g" d="M718.24,1240.887l12.878,7.436-12.878,7.435Z" transform="translate(-630.785 -1206.467)"/><path class="b" d="M760.436,1288.9v5.867H685.452V1288.9a20.667,20.667,0,0,1,20.666-20.665H739.77a20.658,20.658,0,0,1,20.666,20.665" transform="translate(-631.637 -1205.757)"/><g transform="translate(0 95.961)"><rect class="h" width="182.616" height="17.114"/><g class="i"><g transform="translate(0.001 0.001)"><path class="j" d="M633,1317.98l18.477-17.108H799.313l16.3,17.108Z" transform="translate(-633.001 -1300.871)"/></g></g></g><g transform="translate(0 113.075)"><rect class="h" width="182.616" height="13.605"/><g class="k"><g transform="translate(0 -0.003)"><path class="l" d="M806.261,1331.157h-163.9A9.357,9.357,0,0,1,633,1321.8v-4.252H815.619v4.252a9.358,9.358,0,0,1-9.358,9.358" transform="translate(-633 -1317.547)"/></g></g></g><path class="m" d="M691.822,1302.766a1.632,1.632,0,0,1-1.631,1.631H671.712a1.631,1.631,0,0,1,0-3.262h18.479a1.632,1.632,0,0,1,1.631,1.631" transform="translate(-632.036 -1204.902)"/><path class="m" d="M777.11,1302.766a1.631,1.631,0,0,1-1.631,1.631H757a1.631,1.631,0,1,1,0-3.262h18.479a1.631,1.631,0,0,1,1.631,1.631" transform="translate(-629.82 -1204.902)"/><path class="n" d="M701.071,1315.3l6.073-5.623h31.5l5.36,5.623Z" transform="translate(-631.231 -1204.679)"/><rect class="h" width="182.616" height="152.011" transform="translate(0 0.503)"/><g class="o" transform="translate(0 0.503)"><g transform="translate(12.23 60.035)"><rect class="g" width="10.188" height="0.492" transform="translate(74.333 41.036)"/><rect class="g" width="11.409" height="0.492" transform="translate(0 48.341)"/><rect class="g" width="10.188" height="0.492" transform="translate(9.655 41.036)"/><rect class="g" width="10.188" height="0.492" transform="translate(5.304 44.37)"/><rect class="g" width="10.188" height="0.492" transform="translate(29.487 41.036)"/><rect class="g" width="10.188" height="0.492" transform="translate(24.326 44.37)"/><rect class="g" width="11.419" height="0.492" transform="translate(36.689 48.341)"/><rect class="g" width="10.188" height="0.492" transform="translate(48.786 41.036)"/><rect class="g" width="10.188" height="0.492" transform="translate(43.615 44.37)"/><rect class="g" width="11.419" height="0.492" transform="translate(18.478 49.151)"/><rect class="g" width="11.409" height="0.492" transform="translate(148.645 48.341)"/><rect class="g" width="10.188" height="0.492" transform="translate(140.222 41.036)"/><rect class="g" width="10.188" height="0.492" transform="translate(144.572 44.37)"/><rect class="g" width="10.188" height="0.492" transform="translate(120.379 41.036)"/><rect class="g" width="10.188" height="0.492" transform="translate(125.55 44.37)"/><rect class="g" width="11.409" height="0.492" transform="translate(111.956 48.341)"/><rect class="g" width="10.188" height="0.492" transform="translate(101.091 41.036)"/><rect class="g" width="10.188" height="0.492" transform="translate(106.251 44.37)"/><rect class="g" width="11.419" height="0.492" transform="translate(130.167 49.151)"/><path class="p" d="M661.821,1269.472s-7.588,6.678-6.376,9.611c1.183,2.854,2.328,2.2,9.917,2.126,3.336-.034,6.035.117,7.386-.506,2.63-1.215,1.986-2.972,1.315-4.047a75.924,75.924,0,0,0-5.058-7.083Z" transform="translate(-644.65 -1266.262)"/><path class="d" d="M652.989,1306.614h19.372v4.648a4.556,4.556,0,0,1-4.557,4.557H652.989a4.555,4.555,0,0,1-4.555-4.557v-.092a4.555,4.555,0,0,1,4.555-4.556" transform="translate(-644.829 -1265.297)"/><path class="q" d="M672.167,1307.248H657.582l1.366-4.338-3.041-17.135a3.29,3.29,0,0,1,3.277-3.566H670.7a3.288,3.288,0,0,1,3.276,3.566l-2.553,17.563Z" transform="translate(-644.635 -1265.932)"/><path class="e" d="M665.689,1283.651h-2.245a1.351,1.351,0,0,1-1.264-1.424v-2.767a1.35,1.35,0,0,1,1.264-1.422h2.245a1.349,1.349,0,0,1,1.263,1.422v2.767a1.35,1.35,0,0,1-1.263,1.424" transform="translate(-644.471 -1266.04)"/><path class="f" d="M669.593,1278.278c-.9,3.052-3.455,2.585-6.505,1.684a5.763,5.763,0,0,1,3.266-11.053c3.051.9,4.14,6.317,3.239,9.369" transform="translate(-644.555 -1266.283)"/><path class="p" d="M660.278,1272.17s8.346,1.018,10.864,0c2.369-.958,3.221-2.662,1.411-4.525-2.322-2.391-6.071-1.172-9.373,1.118a18.775,18.775,0,0,0-2.9,3.407" transform="translate(-644.521 -1266.344)"/></g></g><g transform="translate(26.631 62.925)"><path class="h" d="M659.194,1272.8a5.763,5.763,0,0,0,3.893,7.16h0c3.052.9,5.6,1.368,6.506-1.684h0c.9-3.053-.188-8.469-3.24-9.369h0a5.751,5.751,0,0,0-1.635-.238h0a5.765,5.765,0,0,0-5.524,4.131Z" transform="translate(-658.956 -1268.67)"/><g class="r"><g transform="translate(-1.345 -1.482)"><path class="p" d="M663.28,1271.793s0,2.035-.28,2.035a1.973,1.973,0,0,0-2.1.561c-.773.982.069,1.964.981,2.176s.282,2.595-1.893,2.175-2.949-5.545-1.826-7.508,4.7-4.14,5.965-4,1.895,3.156,1.895,3.156Z" transform="translate(-657.645 -1267.226)"/></g></g></g><g transform="translate(9.819 77.903)"><path class="d" d="M648.767,1310.142l-2.385,26.553h3.507s5.615-17.291,6.176-22.9-3.509-4.631-3.509-4.631Z" transform="translate(-642.471 -1282.598)"/><path class="d" d="M659.573,1310.142l-2.385,26.553H660.7s5.613-17.291,6.175-22.9-3.508-4.631-3.508-4.631Z" transform="translate(-642.19 -1282.598)"/><path class="q" d="M656.362,1284.126l-5.193,9.821,7.016-.56Z" transform="translate(-642.346 -1283.247)"/><path class="q" d="M672.871,1283.269l9.052,13.052a2,2,0,0,1-.842,2.631l-14,3.158-1.823-3.087,9.822-3.544-7.05-7.054Z" transform="translate(-641.98 -1283.269)"/><path class="f" d="M666.969,1300.964h-5.753l-.422-2.526h4.344a1.665,1.665,0,0,1,1.642,1.391Z" transform="translate(-642.096 -1282.875)"/><path class="p" d="M646.55,1336h3.438v2.636h-6.972c-.46,0-.618-1.033-.216-1.255Z" transform="translate(-642.57 -1281.899)"/><path class="p" d="M657.288,1336h3.438v2.636h-6.974c-.46,0-.617-1.033-.214-1.255Z" transform="translate(-642.291 -1281.899)"/></g><g transform="translate(23.491 76.815)"><path class="h" d="M659.185,1282.209a3.29,3.29,0,0,0-3.277,3.566h0l1.805,21.416h14.454l-.749-3.853,2.555-17.563a3.29,3.29,0,0,0-3.277-3.566H659.185Z" transform="translate(-655.896 -1282.209)"/><g class="s"><g transform="translate(9.248 13.705)"><path class="n" d="M665.007,1298.849l-.1-.286,8.747-3,.1.288Z" transform="translate(-664.909 -1295.566)"/></g></g><path class="h" d="M659.185,1282.209a3.29,3.29,0,0,0-3.277,3.566h0l1.805,21.416h14.454l-.749-3.853,2.555-17.563a3.29,3.29,0,0,0-3.277-3.566H659.185Z" transform="translate(-655.896 -1282.209)"/><g class="s"><g transform="translate(10.2 18.43)"><path class="n" d="M665.863,1301.313l-.026-.3,10.047-.838.026.3Z" transform="translate(-665.837 -1300.172)"/></g></g></g><g transform="translate(8.454 84.8)"><path class="t" d="M664.4,1301.208H646.285l-2.484-11.217h18.116Z" transform="translate(-641.173 -1289.992)"/><rect class="t" width="22.562" height="1.908" transform="translate(5.099 11.14)"/><path class="f" d="M654.717,1295.782a1.193,1.193,0,1,1-1.193-1.193,1.194,1.194,0,0,1,1.193,1.193" transform="translate(-640.952 -1289.872)"/><rect class="c" width="35.561" height="1.949" transform="translate(0 12.679)"/><rect class="c" width="0.564" height="45.205" transform="translate(0 12.864)"/><rect class="c" width="0.564" height="45.205" transform="translate(35.007 12.864)"/></g><g transform="translate(23.491 76.815)"><path class="h" d="M659.185,1282.209a3.29,3.29,0,0,0-3.277,3.566h0l3.041,17.135-1.235,4.281h14.454l-.749-3.853,2.555-17.563a3.29,3.29,0,0,0-3.277-3.566h0" transform="translate(-655.896 -1282.209)"/><g class="u"><g transform="translate(4.796 -2.849)"><path class="e" d="M669.071,1283.681a4.25,4.25,0,1,1-4.25-4.249,4.25,4.25,0,0,1,4.25,4.249" transform="translate(-660.57 -1279.432)"/></g></g></g><g transform="translate(96.23 65.079)"><path class="v" d="M757.07,1315.674h-17.9l.477,38.239h3.419s2.587-19.237,3.562-29.87H749l2.4,13.977,9.939,10.676,2.611-2.294-7.538-11.551s.687-14.241.642-16.71a22.28,22.28,0,0,0,.014-2.466" transform="translate(-726.471 -1269.603)"/><path class="p" d="M757.127,1316.367h-17.9l-2.236-23.776c-.2-1.939,1.674-3.6,4.059-3.6H755.3c2.383,0,4.257,1.666,4.058,3.6Z" transform="translate(-726.528 -1270.297)"/><path class="e" d="M747.883,1291.617c3.171,0,3.152-2.154,3.152-2.673v-3.509c0-.794-1.184-.727-1.891-.727h-2.269c-.706,0-1.891.643-1.891,1.438v2.8a2.7,2.7,0,0,0,2.9,2.673" transform="translate(-726.32 -1270.408)"/><path class="f" d="M743.069,1284.949c.912,3.085,3.492,2.612,6.576,1.7a5.825,5.825,0,0,0-3.3-11.172c-3.085.913-4.187,6.386-3.276,9.471" transform="translate(-726.378 -1270.654)"/><path class="p" d="M757.424,1289.749s8.276,8.826,11.2,11.606c1.61,1.535,0,2.685-.919,3.836-2.553,3.191-10.817,8.9-10.817,8.9l.46-4.834,4.985-5.829s-7.012-5.415-7.246-5.807c-.639-1.063-.107-5.744-.107-5.744Z" transform="translate(-726.065 -1270.277)"/><path class="p" d="M738.673,1289.749s-8.275,8.826-11.195,11.606c-1.612,1.535,0,2.685.919,3.836,2.553,3.191,12.1,9.1,12.1,9.1l-.165-5.113-6.567-5.75s7.012-5.415,7.247-5.807c.639-1.063.106-5.744.106-5.744Z" transform="translate(-726.792 -1270.277)"/><path class="w" d="M739.691,1352.9h3.475v2.666h-7.049c-.465,0-.625-1.044-.217-1.269Z" transform="translate(-726.562 -1268.636)"/><path class="w" d="M760.83,1347.917l2.609-2.3,1.762,2-5.293,4.656c-.349.307-1.16-.372-1-.811Z" transform="translate(-725.958 -1268.825)"/><path class="x" d="M744.9,1273.652c1.384-1.12,2.685.69,4.219,1.228s4.181-.882,5.639.652-.308,4.3-.383,5.369.7,3.583-.229,5.063c-.845,1.344-2.954,2.109-5.294,1-1.529-.728.383-3.146.691-4.449s.077-2.915-1.765-1.572c-.834.608-2.308,1.3-2.186-.768.153-2.607-3.721-4.065-.691-6.519" transform="translate(-726.352 -1270.704)"/><path class="y" d="M778.394,1306.77h18.38v4.412a4.323,4.323,0,0,1-4.324,4.321H778.394a4.323,4.323,0,0,1-4.323-4.321v-.088a4.323,4.323,0,0,1,4.323-4.323" transform="translate(-725.564 -1269.834)"/><path class="d" d="M796.59,1307.317H782.875L781.163,1287a3.12,3.12,0,0,1,3.11-3.383h10.92A3.122,3.122,0,0,1,798.3,1287Z" transform="translate(-725.38 -1270.436)"/><path class="e" d="M790.443,1284.985h-2.131a1.282,1.282,0,0,1-1.2-1.351v-2.625a1.281,1.281,0,0,1,1.2-1.35h2.131a1.281,1.281,0,0,1,1.2,1.35v2.625a1.282,1.282,0,0,1-1.2,1.351" transform="translate(-725.225 -1270.539)"/><path class="f" d="M784.346,1279.886c.856,2.9,3.277,2.451,6.172,1.6a5.468,5.468,0,1,0-3.1-10.487c-2.9.856-3.929,6-3.074,8.89" transform="translate(-725.304 -1270.77)"/></g><g transform="translate(154.981 65.079)"><path class="h" d="M787.42,1271c-2.9.856-3.928,5.993-3.075,8.889h0c.856,2.9,3.279,2.452,6.172,1.6h0a5.467,5.467,0,0,0,3.695-6.792h0a5.471,5.471,0,0,0-5.239-3.92h0a5.422,5.422,0,0,0-1.553.227Z" transform="translate(-784.055 -1270.77)"/><g class="z"><g transform="translate(-5.834 -1.404)"><path class="q" d="M790.516,1273.734s0,1.929.265,1.929a1.876,1.876,0,0,1,2,.532c.732.933-.066,1.864-.932,2.065s-.266,2.463,1.8,2.063,2.8-5.258,1.731-7.123-4.46-3.929-5.659-3.794-11.347,3.2-11.347,3.2Z" transform="translate(-778.369 -1269.401)"/></g></g></g><g transform="translate(145.817 79.291)"><path class="d" d="M781.634,1285.434l-6.51,11.192,5.064,2.147,4.032-6.623Z" transform="translate(-775.123 -1284.601)"/><path class="d" d="M797.236,1284.622l8.588,12.384a1.9,1.9,0,0,1-.8,2.5l-12.431,6.2-1.731-2.929,8.47-6.571-6.69-6.69Z" transform="translate(-774.714 -1284.622)"/></g><g transform="translate(152.002 78.259)"><path class="h" d="M784.274,1283.616a3.121,3.121,0,0,0-3.111,3.383h0l1.712,20.317H796.59L798.3,1287a3.12,3.12,0,0,0-3.108-3.383h-10.92Z" transform="translate(-781.151 -1283.616)"/><g class="aa"><g transform="translate(9.722 13.037)"><path class="ab" d="M790.828,1303.634l7.3-7.107-.2-.2-7.3,7.105Z" transform="translate(-790.627 -1296.323)"/></g></g><path class="h" d="M784.274,1283.616a3.121,3.121,0,0,0-3.111,3.383h0l1.712,20.317H796.59L798.3,1287a3.12,3.12,0,0,0-3.108-3.383h-10.92Z" transform="translate(-781.151 -1283.616)"/><g class="aa"><g transform="translate(10.908 18.173)"><path class="ab" d="M791.916,1305.977l8.352-4.392-.135-.255-8.35,4.391Z" transform="translate(-791.783 -1301.329)"/></g></g></g><rect class="g" width="21.402" height="1.816" transform="translate(142.715 100.291)"/><g transform="translate(152.002 78.259)"><path class="h" d="M784.274,1283.616a3.121,3.121,0,0,0-3.111,3.383h0l1.712,20.317H796.59L798.3,1287a3.12,3.12,0,0,0-3.108-3.383h0" transform="translate(-781.151 -1283.616)"/><g class="ac"><g transform="translate(4.028 -3.506)"><path class="e" d="M785.078,1284.711a4.511,4.511,0,1,0,4.511-4.512,4.512,4.512,0,0,0-4.511,4.512" transform="translate(-785.078 -1280.199)"/></g></g></g><g transform="translate(139.114 58.944)"><path class="f" d="M792.919,1305.2H787.46l-.4-2.4h4.121a1.579,1.579,0,0,1,1.558,1.319Z" transform="translate(-768.11 -1263.802)"/><path class="g" d="M789.363,1305.432h-17.19l-2.358-10.643H787Z" transform="translate(-768.558 -1264.01)"/><path class="ad" d="M780.174,1300.283a1.132,1.132,0,1,1-1.132-1.132,1.132,1.132,0,0,1,1.132,1.132" transform="translate(-768.348 -1263.897)"/><path class="f" d="M784.64,1310.117l-2.263,25.194h3.328s5.326-16.405,5.859-21.732-3.33-4.394-3.33-4.394Z" transform="translate(-768.232 -1263.638)"/><path class="q" d="M798.321,1268.913a4.558,4.558,0,1,1-4.537-4.123,4.347,4.347,0,0,1,4.537,4.123" transform="translate(-768.053 -1264.79)"/><path class="f" d="M774.388,1310.117l-2.263,25.194h3.328s5.326-16.405,5.859-21.732-3.329-4.394-3.329-4.394Z" transform="translate(-768.498 -1263.638)"/><path class="d" d="M782.473,1334.647h3.262v2.5H779.12c-.438,0-.588-.98-.206-1.19Z" transform="translate(-768.327 -1262.974)"/><path class="d" d="M772.368,1334.647h3.262v2.5h-6.615c-.438,0-.588-.98-.206-1.19Z" transform="translate(-768.59 -1262.974)"/><path class="y" d="M794.032,1307.467l-17.087.094a4.105,4.105,0,0,0-2.592,2.3c-.576,1.729-1.921,9.887-1.921,9.887h18.719l1.249-6.142Z" transform="translate(-768.49 -1263.681)"/></g></svg>