<svg xmlns="http://www.w3.org/2000/svg" id="prefix__noun_help_1928885" width="24" height="24" viewBox="0 0 24 24">
    <g id="prefix__Group_9622" data-name="Group 9622">
        <g id="prefix__Group_9621" data-name="Group 9621">
            <path id="prefix__Rectangle_92" d="M0 0H24V24H0z" data-name="Rectangle 92" style="fill:none"/>
            <path id="prefix__Path_224" d="M9.75 3.8A8.518 8.518 0 0 0 3.8 9.75h3.733A5.02 5.02 0 0 1 9.75 7.534zm1.5-.269v3.525a5.063 5.063 0 0 1 1.5 0V3.533Q12.38 3.5 12 3.5t-.75.033zM3.533 11.25q-.033.371-.033.75t.033.749h3.523a5.063 5.063 0 0 1 0-1.5zM9.75 20.2v-3.734a5.022 5.022 0 0 1-2.216-2.216H3.8a8.517 8.517 0 0 0 5.95 5.95zm1.5.268q.371.032.751.033t.749-.033v-3.524a5.06 5.06 0 0 1-1.5 0zM20.2 9.75a8.517 8.517 0 0 0-5.95-5.95v3.734a5.02 5.02 0 0 1 2.217 2.216zm.268 1.5h-3.524a5.063 5.063 0 0 1 0 1.5h3.523q.032-.37.033-.749t-.033-.751zM14.25 20.2a8.515 8.515 0 0 0 5.95-5.95h-3.734a5.022 5.022 0 0 1-2.216 2.216zM12 2A10 10 0 1 1 2 12 10 10 0 0 1 12 2zm0 13.5A3.5 3.5 0 1 0 8.5 12a3.5 3.5 0 0 0 3.5 3.5z" data-name="Path 224" style="fill:#575757"/>
        </g>
    </g>
</svg>
