<svg xmlns="http://www.w3.org/2000/svg" width="105.656" height="105.675" viewBox="0 0 105.656 105.675"><defs><style>.a{fill:#26479c;}.a,.b,.c,.d,.e{fill-rule:evenodd;}.b{fill:#00caf2;}.c,.f{fill:#f29132;}.d,.h{fill:#4dac4a;}.e,.g{fill:#ec373c;}</style></defs><g transform="translate(-687 -1606)"><g transform="translate(623.834 1251.826)"><path class="a" d="M144.169,410.346q0,19.492,0,38.986c-.007,6.858-3.68,10.505-10.587,10.509q-29.689.015-59.38,0c-6.958-.005-11.009-4.013-11.015-10.975q-.036-38.986,0-77.973c.007-6.8,3.83-10.584,10.575-10.649,1.1-.011,2.205-.079,3.3.011,3.08.256,5.524-.176,7.774-2.978,1.385-1.727,4.469-2.8,6.844-2.9,8.183-.344,16.389-.154,24.586-.118a8.674,8.674,0,0,1,7.656,3.973,4.137,4.137,0,0,0,4.222,2.033c2.093-.113,4.2-.062,6.3-.016,5.853.126,9.705,4.009,9.72,9.91C144.192,383.555,144.168,396.949,144.169,410.346ZM70.3,409.8h.028q0,19.34,0,38.681c0,4.561.817,5.358,5.449,5.36q28.485.015,56.972.007c5.8,0,6.344-.518,6.346-6.337q.01-37.782-.012-75.563a19.511,19.511,0,0,0-.07-2.1c-.256-2.351-1.55-3.6-3.955-3.6-1.9-.006-3.8.091-5.7-.036-2.192-.147-3.388.409-3.195,2.94.175,2.3-1.241,3.6-3.471,3.613-12.194.057-24.389.1-36.579-.084-1.177-.019-3.33-1.7-3.318-2.585.055-4.087-2.351-4.115-5.233-3.873-.992.083-2,0-3,.019-3.383.071-4.277.987-4.275,4.277Q70.309,390.16,70.3,409.8Zm33.6-42.971c4.183,0,8.365.02,12.548-.007,2.907-.018,3.512-.792,2.95-3.588-.5-2.469-2.231-3.014-4.445-3-6.871.033-13.743.006-20.615.011a14.891,14.891,0,0,0-2.977.109c-2.449.5-2.921,2.361-2.916,4.532,0,2.463,1.832,1.909,3.206,1.928C95.731,366.867,99.815,366.831,103.9,366.83Z"/><path class="a" d="M168.6,403.126c0,6.691-.456,13.422.106,20.065.865,10.215-3.4,19.123-6.3,28.391a3.66,3.66,0,0,1-2.789,2.043,3.775,3.775,0,0,1-2.732-2.158c-3.194-9.61-6.784-18.98-6.3-29.583.692-15.049.136-30.154.2-45.235.028-6.563,5.66-11.073,11.575-9.457,4.071,1.112,6.287,4.068,6.286,8.371q0,13.781,0,27.563Zm-5.833,7.208c0-5.293-.1-10.588.045-15.876.064-2.348-.949-2.873-3.029-2.871s-3.069.513-3.047,2.858q.147,16.026,0,32.052c-.022,2.357.963,2.828,3.046,2.83s3.1-.445,3.039-2.818C162.679,421.12,162.779,415.726,162.77,410.334Zm.6-30.207h-.039a33.234,33.234,0,0,0-.033-4.165c-.266-2.088-1.614-3.258-3.708-2.959-1.969.281-2.751,1.485-2.352,3.649a23.277,23.277,0,0,1,.108,5.643c-.149,2.3.456,3.421,3.078,3.432,2.735.011,3.165-1.325,2.956-3.517C163.31,381.522,163.366,380.821,163.366,380.127ZM158.331,435.5c.549,1.676.986,3.008,1.423,4.34l.707-.08,1.495-4.26Z"/><path class="b" d="M103.9,366.83c-4.083,0-8.167.037-12.249-.02-1.374-.019-3.2.535-3.206-1.928,0-2.171.467-4.028,2.916-4.532a14.891,14.891,0,0,1,2.977-.109c6.872-.005,13.744.022,20.615-.011,2.214-.009,3.948.536,4.445,3,.562,2.8-.043,3.57-2.95,3.588C112.263,366.85,108.081,366.83,103.9,366.83Z"/><path class="c" d="M162.774,410.334c.005,5.392-.1,10.786.051,16.175.064,2.373-.959,2.82-3.039,2.818s-3.068-.473-3.046-2.83q.15-16.023,0-32.052c-.022-2.345.98-2.857,3.047-2.858s3.093.523,3.029,2.871C162.672,399.746,162.77,405.041,162.774,410.334Z"/><path class="c" d="M116.568,385.435c-3.792,0-7.586-.018-11.378.01-2.292.017-4.112-.777-4.091-3.283.022-2.465,1.806-3.318,4.111-3.312,7.585.019,15.171.008,22.757.006,2.275,0,4.086.824,4.1,3.324.012,2.556-1.868,3.26-4.118,3.255Q122.257,385.423,116.568,385.435Z"/><path class="d" d="M116.821,435.234c-3.891,0-7.781-.014-11.671.007-2.3.012-4.075-.823-4.048-3.324.024-2.294,1.676-3.24,3.867-3.242,7.68-.008,15.361-.023,23.042,0,2.24.006,4.107.833,4.061,3.358s-1.928,3.222-4.179,3.21C124.2,435.22,120.511,435.233,116.821,435.234Z"/><path class="e" d="M116.275,410.031c-3.8,0-7.593.006-11.389,0-2.031,0-3.726-.748-3.744-2.969-.018-2.261,1.755-2.973,3.737-2.98q11.689-.043,23.379,0c2,.007,3.748.744,3.752,2.978s-1.739,2.954-3.745,2.964C124.269,410.046,120.272,410.031,116.275,410.031Z"/><path class="d" d="M110.03,447.816c-1.9,0-3.8.06-5.69-.012a3.125,3.125,0,0,1-3.254-3.231,2.95,2.95,0,0,1,3.172-3.243,104.445,104.445,0,0,1,12.261.125c1.083.1,2.616,1.871,2.854,3.088.361,1.844-1.035,3.164-3.055,3.25C114.226,447.883,112.126,447.813,110.03,447.816Z"/><path class="c" d="M110.243,398.032c-1.794,0-3.588.007-5.383,0-2.244-.008-3.725-1.108-3.756-3.355-.029-2.166,1.5-3.169,3.559-3.2,3.787-.048,7.576-.059,11.363.005,2.092.036,3.479,1.152,3.437,3.313-.041,2.142-1.438,3.183-3.538,3.223C114.032,398.059,112.137,398.03,110.243,398.032Z"/><path class="e" d="M110.308,422.608c-1.991,0-3.985.076-5.971-.021-1.939-.1-3.567-1.228-3.141-3.123.288-1.288,1.926-3.087,3.11-3.21a87.527,87.527,0,0,1,11.926-.128,3.1,3.1,0,0,1,3.215,3.535c-.126,1.986-1.509,2.929-3.465,2.958-1.891.028-3.783.006-5.674.006Z"/></g><rect class="f" width="19" height="19" rx="3" transform="translate(699 1631)"/><rect class="g" width="19" height="19" rx="3" transform="translate(699 1656)"/><rect class="h" width="19" height="19" rx="3" transform="translate(699 1681)"/></g></svg>