<svg xmlns="http://www.w3.org/2000/svg" width="43.092" height="43.093" viewBox="0 0 43.092 43.093"><defs><style>.a{fill:#fff;}</style></defs><path class="a" d="M21.546,43.093a21.408,21.408,0,0,1-8.256-1.581,21.583,21.583,0,0,1-6.967-4.742A21.576,21.576,0,0,1,1.58,29.8,21.413,21.413,0,0,1,0,21.545,21.469,21.469,0,0,1,1.568,13.3a21.339,21.339,0,0,1,4.7-6.929,21.8,21.8,0,0,1,7-4.779A21.361,21.361,0,0,1,21.546,0,21.419,21.419,0,0,1,29.8,1.58a21.572,21.572,0,0,1,6.967,4.741,21.581,21.581,0,0,1,4.742,6.967,21.412,21.412,0,0,1,1.581,8.256A21.411,21.411,0,0,1,41.511,29.8a21.58,21.58,0,0,1-4.742,6.967A21.583,21.583,0,0,1,29.8,41.511,21.411,21.411,0,0,1,21.546,43.093Zm0-38.744A16.576,16.576,0,0,0,9.357,9.407,16.706,16.706,0,0,0,4.349,21.545,16.8,16.8,0,0,0,9.306,33.684a16.747,16.747,0,0,0,12.24,5.058,16.579,16.579,0,0,0,12.19-5.058,16.712,16.712,0,0,0,5.007-12.139A16.7,16.7,0,0,0,33.735,9.407,16.577,16.577,0,0,0,21.546,4.349Zm9.205,26.1h0L19.422,23.669V10.823h3.236V22.053l9.711,5.765-1.618,2.63Z"/></svg>