<svg xmlns="http://www.w3.org/2000/svg" xmlns:xlink="http://www.w3.org/1999/xlink" width="212.914" height="160.346" viewBox="0 0 212.914 160.346"><defs><style>.a{fill:#26479c;}.b{fill:none;}.c{fill:#b200e6;}.d{clip-path:url(#a);}.e{fill:url(#b);}.f{clip-path:url(#c);}.g{opacity:0.7;mix-blend-mode:multiply;isolation:isolate;}.h{clip-path:url(#d);}</style><clipPath id="a"><path class="a" d="M63.88,168.584a14.8,14.8,0,0,0-14.8,14.8v98.756a14.8,14.8,0,0,0,14.8,14.8H196.131L213.5,327.013a3.827,3.827,0,0,0,6.632,0l17.366-30.076h9.7a14.8,14.8,0,0,0,14.8-14.8V183.382a14.8,14.8,0,0,0-14.8-14.8Z" transform="translate(-49.082 -168.584)"/></clipPath><linearGradient id="b" x1="0.5" x2="0.5" y2="1" gradientUnits="objectBoundingBox"><stop offset="0" stop-color="#9d14ec"/><stop offset="1" stop-color="#26479c"/></linearGradient><clipPath id="c"><path class="b" d="M63.88,168.584a14.8,14.8,0,0,0-14.8,14.8v98.756a14.8,14.8,0,0,0,14.8,14.8H196.131L213.5,327.013a3.827,3.827,0,0,0,6.632,0l17.366-30.076h9.7a14.8,14.8,0,0,0,14.8-14.8V183.382a14.8,14.8,0,0,0-14.8-14.8Z" transform="translate(-49.082 -168.584)"/></clipPath><clipPath id="d"><rect class="c" width="106.776" height="106.777"/></clipPath></defs><g transform="translate(0 0)"><g class="d"><path class="e" d="M0,0H264.88V245.873H0Z" transform="translate(-69.708 40.246) rotate(-30)"/></g></g><g transform="translate(0 0)"><g class="f"><g class="g" transform="translate(-20.06 -17.876)"><g class="h"><path class="c" d="M140.551,208.331a53.388,53.388,0,1,1-53.389-53.39,53.389,53.389,0,0,1,53.389,53.39" transform="translate(-33.773 -154.942)"/></g></g></g></g></svg>