<svg xmlns="http://www.w3.org/2000/svg" width="217.085" height="263.641" viewBox="0 0 217.085 263.641"><defs><style>.a{fill:#ffddc7;}.b{fill:#bb8d70;}.c{fill:#e0b69b;}.d{fill:#b02423;}.e,.f,.g{fill:#ec373c;}.f,.i{opacity:0.3;}.f,.g,.i{mix-blend-mode:multiply;isolation:isolate;}.g{opacity:0.5;}.h{fill:#f9b233;}.i{fill:#d14241;}.j{fill:#ea4a49;}.k{fill:#cc4141;}.l{fill:#ba3b3b;}</style></defs><g transform="translate(0 130.601)"><path class="a" d="M301.3,182.336l-53.077-30.85L209.3,174.111l53.077,30.848Z" transform="translate(-209.303 -151.486)"/><path class="a" d="M301.3,186.461l-53.077-30.848L209.3,178.236l53.077,30.85Z" transform="translate(-209.303 -148.737)"/><path class="b" d="M248.227,176.877V170L209.3,192.624V199.5Z" transform="translate(-156.227 -139.152)"/><path class="c" d="M232.664,171.939v-6.875l53.077,30.848v6.876Z" transform="translate(-232.664 -142.44)"/></g><g transform="translate(2.154 6.435)"><path class="a" d="M298.289,106.371,247.7,76.966,210.6,98.531l50.591,29.4Z" transform="translate(-210.596 -76.966)"/><path class="a" d="M298.289,228.727,247.7,80.9,210.6,220.888l50.591,29.4Z" transform="translate(-210.596 -74.346)"/><path class="d" d="M247.7,219.591V94.614l-37.1,21.565V241.156Z" transform="translate(-160.005 -65.209)"/><path class="e" d="M232.862,214.886V89.909l50.592,29.4V244.29Z" transform="translate(-232.862 -68.344)"/><path class="f" d="M280.152,119.039,234.278,92.377V211.869l45.874,26.663Z" transform="translate(-231.92 -66.699)"/></g><g transform="translate(0 0)"><path class="a" d="M301.3,103.953,248.227,73.1,209.3,95.728l53.077,30.849Z" transform="translate(-209.303 -73.105)"/><path class="a" d="M301.3,108.08,248.227,77.231,209.3,99.854,262.38,130.7Z" transform="translate(-209.303 -70.355)"/><path class="b" d="M248.227,98.494V91.619L209.3,114.242v6.876Z" transform="translate(-156.227 -60.77)"/><path class="c" d="M232.664,93.558V86.682l53.077,30.849v6.876Z" transform="translate(-232.664 -64.059)"/></g><g transform="translate(63.16 62.218)"><g transform="translate(0.304 93.154)"><path class="a" d="M268.8,219.641l-67.056-53.288-38.924,22.624,79.123,46.22Z" transform="translate(-162.824 -166.353)"/><path class="a" d="M268.8,223.766,201.748,170.48,162.824,193.1l79.123,46.22Z" transform="translate(-162.824 -163.603)"/><path class="b" d="M189.682,205.21v-6.876L162.825,213.89v6.876Z" transform="translate(-83.702 -145.046)"/><path class="c" d="M178.942,186.807v-6.876l79.123,46.22v6.876Z" transform="translate(-178.942 -157.306)"/></g><g transform="translate(0 7.106)"><path class="a" d="M265.789,158.486,189.151,114.71l-25.034,13.5,76.637,44.775Z" transform="translate(-161.658 -114.71)"/><path class="a" d="M261.281,253.612,203.414,115.359,170.883,222.7l76.637,44.776Z" transform="translate(-168.425 -114.277)"/><path class="d" d="M189.152,235.908V140.982l-25.034,14.5v94.927Z" transform="translate(-85.021 -97.207)"/><path class="e" d="M179.141,216.874V121.948l79.1,46.212v94.927Z" transform="translate(-179.141 -109.888)"/><path class="g" d="M254.935,167.879l-74.378-43.456v89.435l74.377,43.455Z" transform="translate(-178.198 -108.239)"/></g><g transform="translate(0)"><path class="a" d="M269.108,156.654l-79.6-46.208L162.824,125.79l79.427,46.419Z" transform="translate(-162.824 -110.445)"/><path class="a" d="M268.8,159.6l-74.552-43.251-31.428,12.589,79.123,46.22Z" transform="translate(-162.52 -106.514)"/><path class="b" d="M189.682,145.053v-6.875l-26.856,15.556v6.876Z" transform="translate(-83.397 -91.969)"/><path class="c" d="M178.942,126.53v-6.876l79.428,46.419v6.876Z" transform="translate(-178.942 -104.31)"/></g></g><path class="c" d="M262.2,155.522l-74.762-43.384-21.777,12.731,74.421,43.472Z" transform="translate(-97.491 -47.1)"/><g transform="translate(125.085 203.292)"><path class="a" d="M226.232,225.962l-53.077-30.85-38.923,22.624,53.076,30.848Z" transform="translate(-134.232 -195.112)"/><path class="a" d="M226.232,230.088l-53.077-30.849-38.923,22.624,53.076,30.85Z" transform="translate(-134.232 -192.364)"/><path class="b" d="M173.156,220.5v-6.875l-38.923,22.622v6.876Z" transform="translate(-81.157 -182.777)"/><path class="c" d="M157.592,215.565V208.69l53.077,30.848v6.876Z" transform="translate(-157.592 -186.066)"/></g><g transform="translate(127.239 79.125)"><path class="a" d="M223.217,150l-50.592-29.405-37.1,21.565,50.591,29.4Z" transform="translate(-135.525 -120.592)"/><path class="a" d="M223.217,272.353,172.625,124.526l-37.1,139.988,50.591,29.4Z" transform="translate(-135.525 -117.972)"/><path class="d" d="M172.626,263.217V138.24l-37.1,21.563V284.781Z" transform="translate(-84.934 -108.835)"/><path class="e" d="M157.792,258.512V133.535l50.591,29.4V287.916Z" transform="translate(-157.792 -111.97)"/><path class="f" d="M205.081,162.666,159.207,136V255.5l45.874,26.663Z" transform="translate(-156.848 -110.325)"/></g><g transform="translate(125.085 72.691)"><path class="a" d="M226.232,147.58l-53.077-30.849-38.923,22.623L187.308,170.2Z" transform="translate(-134.232 -116.731)"/><path class="a" d="M226.232,151.706l-53.077-30.849L134.232,143.48l53.076,30.849Z" transform="translate(-134.232 -113.981)"/><path class="b" d="M173.156,142.121v-6.876l-38.923,22.624v6.876Z" transform="translate(-81.157 -104.396)"/><path class="c" d="M157.592,137.184v-6.876l53.077,30.849v6.876Z" transform="translate(-157.592 -107.685)"/></g><path class="a" d="M206.462,194.389l18.7,10.869-1.779,1.032-18.7-10.87Z" transform="translate(-125.473 7.697)"/><path class="a" d="M205.4,192.944l18.7,10.87-1.778,1.032-18.7-10.869Z" transform="translate(-122.628 6.735)"/><path class="a" d="M204.328,191.5l18.7,10.869-1.779,1.03-18.7-10.868Z" transform="translate(-119.783 5.774)"/><path class="a" d="M203.261,190.057l18.7,10.87-1.778,1.032-18.7-10.869Z" transform="translate(-116.938 4.811)"/><path class="a" d="M202.758,188.135l18.652,10.9-3.068,1.8-18.7-10.87Z" transform="translate(-113.318 3.531)"/><path class="c" d="M201.484,190.606v-1.375l18.7,10.87,0,1.375Z" transform="translate(-115.157 4.262)"/><path class="c" d="M202.554,190.676v1.375l18.693,10.869,0-1.375Z" transform="translate(-118.004 5.224)"/><path class="c" d="M203.619,193.5V192.12l18.7,10.868,0,1.377Z" transform="translate(-120.848 6.186)"/><path class="c" d="M204.686,194.938v-1.375l18.7,10.869,0,1.375Z" transform="translate(-123.693 7.148)"/><path class="c" d="M205.753,196.383v-1.375l18.7,10.87,0,1.375Z" transform="translate(-126.538 8.11)"/><path class="b" d="M202.194,204.76l0-1.375,1.782-1.033,0-1.373,1.779-1.03v-1.375l1.778-1.032v-1.375l1.779-1.032v6.875l-8.887,5.156,0-1.375Z" transform="translate(-102.508 8.195)"/><g transform="translate(8.053 43.981)"><g transform="translate(29.845 17.288)"><g transform="translate(0)"><path class="h" d="M237.143,125l7.361,4.279V117.048a8.121,8.121,0,0,0-3.644-6.355l-.073-.042c-2.013-1.171-3.644-.222-3.644,2.118Z" transform="translate(-236.79 -109.693)"/><path class="a" d="M236.931,125.384,245,130.072V117.436a8.92,8.92,0,0,0-4-6.97l-.073-.042c-2.2-1.281-4-.24-4,2.323Zm7.361,3.459-6.657-3.869V113.157c0-2.109,1.478-2.968,3.292-1.913l.073.042a7.348,7.348,0,0,1,3.292,5.74Z" transform="translate(-236.931 -109.876)"/></g><path class="a" d="M239.211,126.844l.47.273V110.655l-.47-.273Z" transform="translate(-235.411 -109.539)"/><path class="a" d="M237.143,113.234l7.362,4.28v-.546l-7.362-4.279Z" transform="translate(-236.789 -108.002)"/><path class="a" d="M237.143,116.472l7.362,4.279v-.546l-7.362-4.279Z" transform="translate(-236.789 -105.845)"/></g><g transform="translate(14.923 8.644)"><g transform="translate(0)"><path class="h" d="M246.1,119.808l7.363,4.279V111.86a8.118,8.118,0,0,0-3.644-6.353l-.075-.043c-2.011-1.171-3.644-.222-3.644,2.118Z" transform="translate(-245.747 -104.505)"/><path class="a" d="M245.888,120.2l8.066,4.689V112.248a8.923,8.923,0,0,0-4-6.97l-.073-.042c-2.2-1.281-4-.24-4,2.323Zm7.361,3.459-6.657-3.869V107.969c0-2.109,1.478-2.968,3.291-1.913l.075.042a7.348,7.348,0,0,1,3.292,5.74Z" transform="translate(-245.888 -104.688)"/></g><path class="a" d="M248.167,121.656l.469.273V105.466l-.47-.273Z" transform="translate(-244.368 -104.351)"/><path class="a" d="M246.1,108.046l7.362,4.28v-.546L246.1,107.5Z" transform="translate(-245.747 -102.814)"/><path class="a" d="M246.1,111.284l7.362,4.28v-.546l-7.362-4.279Z" transform="translate(-245.747 -100.657)"/></g><g transform="translate(0)"><path class="i" d="M255.056,114.62l7.361,4.279V106.674a8.118,8.118,0,0,0-3.644-6.355l-.073-.043c-2.013-1.17-3.644-.222-3.644,2.118Z" transform="translate(-254.704 -99.317)"/><path class="a" d="M254.844,115.007l8.066,4.689V107.06a8.912,8.912,0,0,0-4-6.968l-.073-.043c-2.2-1.281-4-.238-4,2.323Zm7.361,3.459-6.658-3.869V102.781c0-2.109,1.478-2.968,3.292-1.913l.073.043a7.341,7.341,0,0,1,3.292,5.74Z" transform="translate(-254.844 -99.5)"/><path class="a" d="M257.124,116.469l.47.273V100.279l-.47-.273Z" transform="translate(-253.326 -99.163)"/><path class="a" d="M255.056,102.859l7.362,4.279v-.546l-7.362-4.28Z" transform="translate(-254.704 -97.626)"/><path class="a" d="M255.056,106.1l7.362,4.28v-.547l-7.362-4.279Z" transform="translate(-254.704 -95.469)"/></g></g><g transform="translate(37.898 89.495)"><g transform="translate(0)"><path class="i" d="M237.143,141.934l7.361,4.279V133.988a8.115,8.115,0,0,0-3.644-6.353l-.073-.043c-2.013-1.17-3.644-.222-3.644,2.118Z" transform="translate(-236.79 -126.633)"/><path class="a" d="M236.931,142.323,245,147.011V134.376a8.918,8.918,0,0,0-4-6.97l-.073-.042c-2.2-1.281-4-.238-4,2.323Zm7.361,3.459-6.657-3.869V130.1c0-2.109,1.478-2.969,3.292-1.913l.073.042a7.348,7.348,0,0,1,3.292,5.74Z" transform="translate(-236.931 -126.816)"/></g><path class="a" d="M239.211,143.785l.47.272V127.595l-.47-.273Z" transform="translate(-235.411 -126.48)"/><path class="a" d="M237.143,130.174l7.362,4.279v-.547l-7.362-4.279Z" transform="translate(-236.789 -124.943)"/><path class="a" d="M237.143,133.412l7.362,4.279v-.545l-7.362-4.28Z" transform="translate(-236.789 -122.785)"/></g><g transform="translate(22.976 80.851)"><g transform="translate(0)"><path class="h" d="M246.1,136.746l7.363,4.281V128.8a8.118,8.118,0,0,0-3.644-6.353l-.075-.043c-2.011-1.17-3.644-.222-3.644,2.118Z" transform="translate(-245.747 -121.445)"/><path class="a" d="M245.888,137.135l8.066,4.687V129.188a8.921,8.921,0,0,0-4-6.97l-.073-.042c-2.2-1.281-4-.238-4,2.323Zm7.361,3.459-6.657-3.869V124.909c0-2.109,1.478-2.969,3.291-1.913l.075.042a7.348,7.348,0,0,1,3.292,5.74Z" transform="translate(-245.888 -121.628)"/></g><path class="a" d="M248.167,138.6l.469.273V122.406l-.47-.273Z" transform="translate(-244.368 -121.291)"/><path class="a" d="M246.1,124.986l7.362,4.279v-.546l-7.362-4.28Z" transform="translate(-245.747 -119.755)"/><path class="a" d="M246.1,128.224l7.362,4.279v-.547l-7.362-4.279Z" transform="translate(-245.747 -117.597)"/></g><g transform="translate(8.053 72.207)"><g transform="translate(0)"><path class="h" d="M255.056,131.56l7.361,4.279V123.614a8.118,8.118,0,0,0-3.644-6.355l-.073-.043c-2.013-1.17-3.644-.222-3.644,2.118Z" transform="translate(-254.704 -116.258)"/><path class="a" d="M254.844,131.947l8.066,4.687V124a8.917,8.917,0,0,0-4-6.968l-.073-.043c-2.2-1.28-4-.238-4,2.323Zm7.361,3.459-6.658-3.869V119.72c0-2.109,1.478-2.968,3.292-1.913l.073.043a7.338,7.338,0,0,1,3.292,5.738Z" transform="translate(-254.844 -116.441)"/></g><path class="a" d="M257.124,133.409l.47.272V117.219l-.47-.273Z" transform="translate(-253.326 -116.104)"/><path class="a" d="M255.056,119.8l7.362,4.279v-.547l-7.362-4.28Z" transform="translate(-254.704 -114.567)"/><path class="a" d="M255.056,123.036l7.362,4.279v-.546l-7.362-4.28Z" transform="translate(-254.704 -112.41)"/></g><g transform="translate(37.898 117.721)"><g transform="translate(0)"><path class="h" d="M237.143,158.876l7.361,4.279V150.928a8.123,8.123,0,0,0-3.644-6.355l-.073-.042c-2.013-1.17-3.644-.223-3.644,2.118Z" transform="translate(-236.79 -143.573)"/><path class="a" d="M236.931,159.264,245,163.952V151.316a8.92,8.92,0,0,0-4-6.97l-.073-.042c-2.2-1.281-4-.24-4,2.321Zm7.361,3.459-6.657-3.871V147.037c0-2.109,1.478-2.969,3.292-1.914l.073.045a7.34,7.34,0,0,1,3.292,5.738Z" transform="translate(-236.931 -143.756)"/></g><path class="a" d="M239.211,160.724l.47.273V144.535l-.47-.273Z" transform="translate(-235.411 -143.419)"/><path class="a" d="M237.143,147.115l7.362,4.279v-.547l-7.362-4.279Z" transform="translate(-236.789 -141.882)"/><path class="a" d="M237.143,150.352l7.362,4.279v-.547l-7.362-4.279Z" transform="translate(-236.789 -139.725)"/></g><g transform="translate(22.976 109.077)"><g transform="translate(0)"><path class="i" d="M246.1,153.688l7.363,4.277V145.74a8.121,8.121,0,0,0-3.644-6.355l-.075-.042c-2.011-1.171-3.644-.222-3.644,2.118Z" transform="translate(-245.747 -138.386)"/><path class="a" d="M245.888,154.075l8.066,4.689V146.128a8.915,8.915,0,0,0-4-6.968l-.073-.043c-2.2-1.281-4-.238-4,2.323Zm7.361,3.459-6.657-3.869V141.849c0-2.109,1.478-2.968,3.291-1.913l.075.042a7.348,7.348,0,0,1,3.292,5.74Z" transform="translate(-245.888 -138.568)"/></g><path class="a" d="M248.167,155.537l.469.273V139.347l-.47-.273Z" transform="translate(-244.368 -138.232)"/><path class="a" d="M246.1,141.926l7.362,4.28v-.547l-7.362-4.278Z" transform="translate(-245.747 -136.694)"/><path class="a" d="M246.1,145.165l7.362,4.279V148.9l-7.362-4.279Z" transform="translate(-245.747 -134.537)"/></g><g transform="translate(8.053 100.432)"><g transform="translate(0)"><path class="i" d="M255.056,148.5l7.361,4.279V140.552a8.123,8.123,0,0,0-3.644-6.355l-.073-.042c-2.013-1.17-3.644-.222-3.644,2.119Z" transform="translate(-254.704 -133.197)"/><path class="a" d="M254.844,148.886l8.066,4.69V140.94a8.92,8.92,0,0,0-4-6.97l-.073-.042c-2.2-1.281-4-.238-4,2.323Zm7.361,3.461-6.658-3.871V136.661c0-2.109,1.478-2.968,3.292-1.913l.073.043a7.338,7.338,0,0,1,3.292,5.738Z" transform="translate(-254.844 -133.38)"/></g><path class="a" d="M257.124,150.348l.47.273V134.159l-.47-.273Z" transform="translate(-253.326 -133.043)"/><path class="a" d="M255.056,136.739l7.362,4.28v-.547l-7.362-4.279Z" transform="translate(-254.704 -131.507)"/><path class="a" d="M255.056,139.976l7.362,4.28v-.547l-7.362-4.278Z" transform="translate(-254.704 -129.349)"/></g><g transform="translate(37.898 145.946)"><g transform="translate(0)"><path class="h" d="M237.143,175.816l7.361,4.277V167.868a8.12,8.12,0,0,0-3.644-6.355l-.073-.042c-2.013-1.171-3.644-.222-3.644,2.118Z" transform="translate(-236.79 -160.513)"/><path class="a" d="M236.931,176.2,245,180.891V168.254a8.912,8.912,0,0,0-4-6.966l-.073-.045c-2.2-1.28-4-.237-4,2.324Zm7.361,3.459-6.657-3.869V163.977c0-2.111,1.478-2.968,3.292-1.913l.073.042a7.348,7.348,0,0,1,3.292,5.74Z" transform="translate(-236.931 -160.696)"/></g><path class="a" d="M239.211,177.665l.47.272V161.474l-.47-.273Z" transform="translate(-235.411 -160.359)"/><path class="a" d="M237.143,164.054l7.362,4.28v-.547l-7.362-4.278Z" transform="translate(-236.789 -158.822)"/><path class="a" d="M237.143,167.293l7.362,4.278v-.545l-7.362-4.28Z" transform="translate(-236.789 -156.665)"/></g><g transform="translate(22.976 137.302)"><g transform="translate(0)"><path class="h" d="M246.1,170.626l7.363,4.281V162.68a8.121,8.121,0,0,0-3.644-6.355l-.075-.042c-2.011-1.17-3.644-.222-3.644,2.116Z" transform="translate(-245.747 -155.325)"/><path class="a" d="M245.888,171.016l8.066,4.689V163.068a8.923,8.923,0,0,0-4-6.97l-.073-.042c-2.2-1.281-4-.24-4,2.323Zm7.361,3.459-6.657-3.871V158.789c0-2.109,1.478-2.969,3.291-1.913l.075.042a7.348,7.348,0,0,1,3.292,5.74Z" transform="translate(-245.888 -155.508)"/></g><path class="a" d="M248.167,172.476l.469.273V156.287l-.47-.273Z" transform="translate(-244.368 -155.171)"/><path class="a" d="M246.1,158.867l7.362,4.279V162.6l-7.362-4.28Z" transform="translate(-245.747 -153.634)"/><path class="a" d="M246.1,162.1l7.362,4.28v-.547l-7.362-4.28Z" transform="translate(-245.747 -151.478)"/></g><g transform="translate(8.053 128.658)"><g transform="translate(0)"><path class="h" d="M255.056,165.44l7.361,4.279V157.492a8.117,8.117,0,0,0-3.644-6.353l-.073-.043c-2.013-1.171-3.644-.222-3.644,2.118Z" transform="translate(-254.704 -150.138)"/><path class="a" d="M254.844,165.827l8.066,4.687V157.88a8.912,8.912,0,0,0-4-6.968l-.073-.043c-2.2-1.281-4-.238-4,2.323Zm7.361,3.459-6.658-3.869V153.6c0-2.111,1.478-2.968,3.292-1.913l.073.042a7.346,7.346,0,0,1,3.292,5.74Z" transform="translate(-254.844 -150.32)"/></g><path class="a" d="M257.124,167.288l.47.273V151.1l-.47-.272Z" transform="translate(-253.326 -149.983)"/><path class="a" d="M255.056,153.68l7.362,4.278v-.545l-7.362-4.28Z" transform="translate(-254.704 -148.446)"/><path class="a" d="M255.056,156.917l7.362,4.28v-.547l-7.362-4.28Z" transform="translate(-254.704 -146.29)"/></g><g transform="translate(163.671 134.088)"><g transform="translate(0)"><path class="h" d="M161.659,168.7l7.361,4.279V160.751a8.115,8.115,0,0,0-3.644-6.353l-.073-.045c-2.013-1.17-3.644-.22-3.644,2.119Z" transform="translate(-161.306 -153.396)"/><path class="a" d="M161.447,169.087l8.068,4.687V161.139a8.912,8.912,0,0,0-4-6.968l-.073-.045c-2.2-1.28-4-.237-4,2.324Zm7.363,3.459-6.658-3.869V156.86c0-2.111,1.478-2.968,3.292-1.915l.073.043a7.344,7.344,0,0,1,3.292,5.74Z" transform="translate(-161.447 -153.579)"/></g><path class="a" d="M163.727,170.548l.469.273V154.357l-.47-.273Z" transform="translate(-159.927 -153.242)"/><path class="a" d="M161.659,156.937l7.362,4.279v-.545l-7.362-4.28Z" transform="translate(-161.306 -151.705)"/><path class="a" d="M161.659,160.176l7.362,4.28v-.547l-7.362-4.279Z" transform="translate(-161.306 -149.548)"/></g><g transform="translate(148.749 125.444)"><g transform="translate(0)"><path class="h" d="M170.615,163.509l7.363,4.281V155.563a8.121,8.121,0,0,0-3.644-6.355l-.075-.042c-2.011-1.17-3.644-.222-3.644,2.118Z" transform="translate(-170.263 -148.208)"/><path class="a" d="M170.4,163.9l8.066,4.69V155.951a8.923,8.923,0,0,0-4-6.97l-.073-.042c-2.2-1.281-4-.24-4,2.323Zm7.361,3.461-6.657-3.869V151.672c0-2.109,1.478-2.969,3.292-1.913l.073.042a7.347,7.347,0,0,1,3.291,5.74Z" transform="translate(-170.404 -148.391)"/></g><path class="a" d="M172.683,165.359l.469.273V149.17l-.47-.273Z" transform="translate(-168.885 -148.054)"/><path class="a" d="M170.615,151.75l7.362,4.279v-.547l-7.362-4.28Z" transform="translate(-170.263 -146.517)"/><path class="a" d="M170.615,154.987l7.362,4.279v-.545l-7.362-4.279Z" transform="translate(-170.263 -144.36)"/></g><g transform="translate(133.824 116.8)"><g transform="translate(0)"><path class="h" d="M179.572,158.323l7.361,4.279V150.375a8.117,8.117,0,0,0-3.644-6.353l-.073-.045c-2.013-1.168-3.644-.22-3.644,2.119Z" transform="translate(-179.219 -143.021)"/><path class="a" d="M179.36,158.71l8.068,4.689V150.762a8.915,8.915,0,0,0-4-6.968l-.073-.043c-2.2-1.28-4-.238-4,2.323Zm7.363,3.459-6.658-3.869V146.483c0-2.109,1.478-2.968,3.292-1.914l.073.045a7.341,7.341,0,0,1,3.292,5.738Z" transform="translate(-179.36 -143.204)"/></g><path class="a" d="M181.64,160.171l.47.273V143.982l-.47-.273Z" transform="translate(-177.84 -142.867)"/><path class="a" d="M179.572,146.562l7.362,4.279V150.3l-7.362-4.28Z" transform="translate(-179.219 -141.33)"/><path class="a" d="M179.572,149.8l7.362,4.279v-.547l-7.362-4.28Z" transform="translate(-179.219 -139.173)"/></g><g transform="translate(102.556 117.44)"><g transform="translate(0)"><path class="i" d="M198.338,158.708l7.363,4.277V150.761a8.121,8.121,0,0,0-3.644-6.355l-.073-.043c-2.013-1.17-3.646-.222-3.646,2.119Z" transform="translate(-197.986 -143.404)"/><path class="a" d="M198.127,159.1l8.066,4.687V151.147a8.926,8.926,0,0,0-4-6.97l-.073-.042c-2.2-1.281-4-.238-4,2.323Zm7.361,3.459-6.657-3.871V146.869c0-2.111,1.476-2.969,3.292-1.914l.073.043a7.341,7.341,0,0,1,3.291,5.74Z" transform="translate(-198.127 -143.587)"/></g><path class="a" d="M200.406,160.556l.47.272V144.366l-.47-.273Z" transform="translate(-196.608 -143.25)"/><path class="a" d="M198.338,146.945l7.362,4.28v-.547l-7.362-4.278Z" transform="translate(-197.987 -141.713)"/><path class="a" d="M198.338,150.184l7.362,4.278v-.545l-7.362-4.28Z" transform="translate(-197.987 -139.556)"/></g><g transform="translate(87.632 108.796)"><g transform="translate(0)"><path class="h" d="M207.294,153.518l7.361,4.279,0-12.225a8.12,8.12,0,0,0-3.646-6.355l-.073-.042c-2.013-1.171-3.644-.222-3.644,2.116Z" transform="translate(-206.941 -138.217)"/><path class="a" d="M207.083,153.906l8.068,4.69V145.958a8.915,8.915,0,0,0-4-6.968l-.073-.043c-2.2-1.28-4-.238-4,2.324Zm7.363,3.459-6.658-3.869V141.679c0-2.108,1.478-2.967,3.292-1.913l.073.043a7.348,7.348,0,0,1,3.292,5.738Z" transform="translate(-207.083 -138.4)"/></g><path class="a" d="M209.363,155.367l.47.273V139.179l-.47-.273Z" transform="translate(-205.564 -138.063)"/><path class="a" d="M207.295,141.759l7.362,4.28v-.547l-7.362-4.28Z" transform="translate(-206.942 -136.526)"/><path class="a" d="M207.295,145l7.362,4.28v-.547l-7.362-4.279Z" transform="translate(-206.942 -134.369)"/></g><g transform="translate(72.709 100.153)"><g transform="translate(0)"><path class="i" d="M216.251,148.332l7.363,4.279V140.384a8.123,8.123,0,0,0-3.644-6.355l-.073-.042c-2.013-1.171-3.646-.223-3.646,2.118Z" transform="translate(-215.899 -133.03)"/><path class="a" d="M216.04,148.719l8.066,4.687V140.772a8.921,8.921,0,0,0-4-6.97l-.073-.042c-2.2-1.281-4-.238-4,2.323Zm7.361,3.459-6.657-3.871V136.493c0-2.109,1.476-2.969,3.292-1.914l.073.043a7.344,7.344,0,0,1,3.291,5.74Z" transform="translate(-216.04 -133.212)"/></g><path class="a" d="M218.319,150.18l.47.273V133.991l-.47-.273Z" transform="translate(-214.521 -132.876)"/><path class="a" d="M216.251,136.57l7.362,4.279V140.3l-7.362-4.28Z" transform="translate(-215.9 -131.339)"/><path class="a" d="M216.251,139.808l7.362,4.28v-.547l-7.362-4.28Z" transform="translate(-215.9 -129.182)"/></g><g transform="translate(117.479 126.028)"><g transform="translate(0)"><path class="h" d="M189.382,163.861l7.361,4.279V155.913a8.12,8.12,0,0,0-3.644-6.353l-.073-.043c-2.013-1.17-3.644-.22-3.644,2.119Z" transform="translate(-189.029 -148.559)"/><path class="a" d="M189.17,164.248l8.068,4.689V156.3a8.915,8.915,0,0,0-4-6.968l-.073-.043c-2.2-1.28-4-.238-4,2.324Zm7.363,3.461-6.656-3.869V152.023c0-2.111,1.476-2.969,3.291-1.913l.073.042a7.348,7.348,0,0,1,3.292,5.738Z" transform="translate(-189.17 -148.742)"/></g><path class="a" d="M191.45,165.709l.47.273V149.52l-.47-.273Z" transform="translate(-187.651 -148.405)"/><path class="a" d="M189.382,152.1l7.362,4.28v-.547l-7.362-4.28Z" transform="translate(-189.029 -146.868)"/><path class="a" d="M189.382,155.337l7.362,4.28v-.545l-7.362-4.28Z" transform="translate(-189.029 -144.711)"/></g><g transform="translate(102.556 144.435)"><g transform="translate(0)"><path class="h" d="M198.338,174.908l7.363,4.279V166.96a8.118,8.118,0,0,0-3.644-6.353l-.073-.043c-2.013-1.17-3.646-.223-3.646,2.118Z" transform="translate(-197.986 -159.606)"/><path class="a" d="M198.127,175.3l8.066,4.689V167.347a8.917,8.917,0,0,0-4-6.968l-.073-.043c-2.2-1.28-4-.238-4,2.323Zm7.361,3.459-6.657-3.869V163.068c0-2.109,1.476-2.968,3.292-1.914l.073.045a7.346,7.346,0,0,1,3.291,5.738Z" transform="translate(-198.127 -159.789)"/></g><path class="a" d="M200.406,176.756l.47.273V160.567l-.47-.273Z" transform="translate(-196.608 -159.452)"/><path class="a" d="M198.338,163.147l7.362,4.28v-.547l-7.362-4.279Z" transform="translate(-197.987 -157.915)"/><path class="a" d="M198.338,166.385l7.362,4.28v-.547l-7.362-4.28Z" transform="translate(-197.987 -155.758)"/></g><g transform="translate(87.632 135.79)"><g transform="translate(0)"><path class="i" d="M207.294,169.72,214.655,174l0-12.225a8.123,8.123,0,0,0-3.646-6.357l-.073-.042c-2.013-1.17-3.644-.222-3.644,2.118Z" transform="translate(-206.941 -154.417)"/><path class="a" d="M207.083,170.107l8.068,4.689V162.161a8.918,8.918,0,0,0-4-6.97l-.073-.043c-2.2-1.281-4-.238-4,2.323Zm7.363,3.459-6.658-3.869V157.881c0-2.109,1.478-2.968,3.292-1.913l.073.042a7.351,7.351,0,0,1,3.292,5.742Z" transform="translate(-207.083 -154.6)"/></g><path class="a" d="M209.363,171.569l.47.273V155.379l-.47-.273Z" transform="translate(-205.564 -154.263)"/><path class="a" d="M207.295,157.958l7.362,4.28v-.545l-7.362-4.279Z" transform="translate(-206.942 -152.726)"/><path class="a" d="M207.295,161.2l7.362,4.28v-.547l-7.362-4.28Z" transform="translate(-206.942 -150.569)"/></g><g transform="translate(72.709 127.146)"><g transform="translate(0)"><path class="h" d="M216.251,164.532l7.363,4.279V156.584a8.117,8.117,0,0,0-3.644-6.353l-.073-.043c-2.013-1.17-3.646-.222-3.646,2.119Z" transform="translate(-215.899 -149.23)"/><path class="a" d="M216.04,164.919l8.066,4.689V156.971a8.918,8.918,0,0,0-4-6.968l-.073-.043c-2.2-1.28-4-.238-4,2.324Zm7.361,3.459-6.657-3.867V152.692c0-2.109,1.476-2.968,3.292-1.913l.073.043a7.346,7.346,0,0,1,3.291,5.738Z" transform="translate(-216.04 -149.413)"/></g><path class="a" d="M218.319,166.38l.47.273V150.191l-.47-.273Z" transform="translate(-214.521 -149.076)"/><path class="a" d="M216.251,152.771l7.362,4.28V156.5l-7.362-4.28Z" transform="translate(-215.9 -147.539)"/><path class="a" d="M216.251,156.008l7.362,4.28v-.547l-7.362-4.278Z" transform="translate(-215.9 -145.382)"/></g><g transform="translate(117.479 153.022)"><g transform="translate(0)"><path class="i" d="M189.382,180.062l7.361,4.279V172.114a8.117,8.117,0,0,0-3.644-6.353l-.073-.043c-2.013-1.17-3.644-.222-3.644,2.118Z" transform="translate(-189.029 -164.76)"/><path class="a" d="M189.17,180.449l8.068,4.689V172.5a8.912,8.912,0,0,0-4-6.968l-.073-.042c-2.2-1.283-4-.24-4,2.321Zm7.363,3.459-6.656-3.869V168.222c0-2.109,1.476-2.968,3.291-1.913l.073.042a7.351,7.351,0,0,1,3.292,5.74Z" transform="translate(-189.17 -164.942)"/></g><path class="a" d="M191.45,181.91l.47.273V165.72l-.47-.272Z" transform="translate(-187.651 -164.606)"/><path class="a" d="M189.382,168.3l7.362,4.278v-.545l-7.362-4.279Z" transform="translate(-189.029 -163.069)"/><path class="a" d="M189.382,171.539l7.362,4.28v-.547l-7.362-4.279Z" transform="translate(-189.029 -160.912)"/></g><g transform="translate(72.709 154.184)"><g transform="translate(0)"><path class="i" d="M216.251,180.759l7.363,4.281V172.813a8.118,8.118,0,0,0-3.644-6.355l-.073-.043c-2.013-1.17-3.646-.222-3.646,2.118Z" transform="translate(-215.899 -165.457)"/><path class="a" d="M216.04,181.146l8.066,4.689V173.2a8.921,8.921,0,0,0-4-6.97l-.073-.042c-2.2-1.283-4-.24-4,2.321Zm7.361,3.459-6.657-3.869V168.919c0-2.109,1.476-2.968,3.292-1.913l.073.042a7.35,7.35,0,0,1,3.291,5.742Z" transform="translate(-216.04 -165.639)"/></g><path class="a" d="M218.319,182.608l.47.273V166.418l-.47-.273Z" transform="translate(-214.521 -165.303)"/><path class="a" d="M216.251,169l7.362,4.278v-.545l-7.362-4.279Z" transform="translate(-215.9 -163.766)"/><path class="a" d="M216.251,172.236l7.362,4.279v-.547l-7.362-4.279Z" transform="translate(-215.9 -161.609)"/></g><g transform="translate(117.479 180.059)"><g transform="translate(0)"><path class="h" d="M189.382,196.289l7.361,4.279V188.343a8.12,8.12,0,0,0-3.644-6.355l-.073-.043c-2.013-1.17-3.644-.222-3.644,2.119Z" transform="translate(-189.029 -180.986)"/><path class="a" d="M189.17,196.677l8.068,4.689V188.729a8.923,8.923,0,0,0-4-6.97l-.073-.042c-2.2-1.281-4-.24-4,2.324Zm7.363,3.461-6.656-3.871V184.452c0-2.111,1.476-2.971,3.291-1.914l.073.043a7.343,7.343,0,0,1,3.292,5.74Z" transform="translate(-189.17 -181.169)"/></g><path class="a" d="M191.45,198.139l.47.272V181.948l-.47-.273Z" transform="translate(-187.651 -180.832)"/><path class="a" d="M189.382,184.528l7.362,4.279v-.547l-7.362-4.28Z" transform="translate(-189.029 -179.295)"/><path class="a" d="M189.382,187.765l7.362,4.279V191.5l-7.362-4.278Z" transform="translate(-189.029 -177.138)"/></g><g transform="translate(163.671 162.314)"><g transform="translate(0)"><path class="i" d="M161.659,185.637l7.361,4.281V177.691a8.118,8.118,0,0,0-3.644-6.355l-.073-.042c-2.013-1.17-3.644-.222-3.644,2.118Z" transform="translate(-161.306 -170.336)"/><path class="a" d="M161.447,186.025l8.068,4.69V178.079a8.92,8.92,0,0,0-4-6.97l-.073-.042c-2.2-1.281-4-.24-4,2.323Zm7.363,3.459-6.658-3.867V173.8c0-2.109,1.478-2.969,3.292-1.913l.073.042a7.344,7.344,0,0,1,3.292,5.74Z" transform="translate(-161.447 -170.519)"/></g><path class="a" d="M163.727,187.486l.469.273V171.3l-.47-.273Z" transform="translate(-159.927 -170.182)"/><path class="a" d="M161.659,173.878l7.362,4.279v-.547l-7.362-4.279Z" transform="translate(-161.306 -168.645)"/><path class="a" d="M161.659,177.115l7.362,4.279v-.547l-7.362-4.278Z" transform="translate(-161.306 -166.488)"/></g><g transform="translate(148.749 153.67)"><g transform="translate(0)"><path class="h" d="M170.615,180.451l7.363,4.279V172.5a8.118,8.118,0,0,0-3.644-6.353l-.075-.045c-2.011-1.17-3.644-.222-3.644,2.119Z" transform="translate(-170.263 -165.149)"/><path class="a" d="M170.4,180.838l8.066,4.687V172.891a8.921,8.921,0,0,0-4-6.97l-.073-.042c-2.2-1.281-4-.238-4,2.323Zm7.361,3.459-6.657-3.869V168.612c0-2.111,1.478-2.968,3.292-1.915l.073.043a7.344,7.344,0,0,1,3.291,5.74Z" transform="translate(-170.404 -165.331)"/></g><path class="a" d="M172.683,182.3l.469.273V166.109l-.47-.272Z" transform="translate(-168.885 -164.994)"/><path class="a" d="M170.615,168.69l7.362,4.278v-.545l-7.362-4.279Z" transform="translate(-170.263 -163.457)"/><path class="a" d="M170.615,171.928l7.362,4.279v-.547l-7.362-4.279Z" transform="translate(-170.263 -161.301)"/></g><g transform="translate(133.824 145.026)"><g transform="translate(0)"><path class="i" d="M179.572,175.263l7.361,4.279V167.317a8.121,8.121,0,0,0-3.644-6.357l-.073-.042c-2.013-1.17-3.644-.222-3.644,2.118Z" transform="translate(-179.219 -159.96)"/><path class="a" d="M179.36,175.65l8.068,4.689V167.7a8.918,8.918,0,0,0-4-6.97l-.073-.043c-2.2-1.281-4-.238-4,2.323Zm7.363,3.459-6.658-3.869V163.424c0-2.109,1.478-2.968,3.292-1.913l.073.042a7.344,7.344,0,0,1,3.292,5.742Z" transform="translate(-179.36 -160.143)"/></g><path class="a" d="M181.64,177.112l.47.273V160.922l-.47-.273Z" transform="translate(-177.84 -159.807)"/><path class="a" d="M179.572,163.5l7.362,4.28v-.547l-7.362-4.278Z" transform="translate(-179.219 -158.269)"/><path class="a" d="M179.572,166.74l7.362,4.278v-.545l-7.362-4.279Z" transform="translate(-179.219 -156.112)"/></g><g transform="translate(163.671 190.539)"><g transform="translate(0)"><path class="h" d="M161.659,202.58l7.361,4.279V194.632a8.115,8.115,0,0,0-3.644-6.353l-.073-.045c-2.013-1.17-3.644-.222-3.644,2.119Z" transform="translate(-161.306 -187.277)"/><path class="a" d="M161.447,202.967l8.068,4.687V195.019a8.912,8.912,0,0,0-4-6.968l-.073-.045c-2.2-1.28-4-.237-4,2.324Zm7.363,3.459-6.658-3.869V190.74c0-2.111,1.478-2.968,3.292-1.914l.073.043a7.344,7.344,0,0,1,3.292,5.74Z" transform="translate(-161.447 -187.459)"/></g><path class="a" d="M163.727,204.427l.469.273V188.237l-.47-.272Z" transform="translate(-159.927 -187.122)"/><path class="a" d="M161.659,190.817l7.362,4.28v-.545l-7.362-4.279Z" transform="translate(-161.306 -185.585)"/><path class="a" d="M161.659,194.055l7.362,4.28v-.547l-7.362-4.279Z" transform="translate(-161.306 -183.428)"/></g><g transform="translate(148.749 181.896)"><g transform="translate(0)"><path class="i" d="M170.615,197.391l7.363,4.277V189.443a8.121,8.121,0,0,0-3.644-6.355l-.075-.042c-2.011-1.17-3.644-.222-3.644,2.118Z" transform="translate(-170.263 -182.088)"/><path class="a" d="M170.4,197.778l8.066,4.689V189.831a8.926,8.926,0,0,0-4-6.97l-.073-.042c-2.2-1.281-4-.238-4,2.323Zm7.361,3.459-6.657-3.869V185.552c0-2.109,1.478-2.969,3.292-1.913l.073.042a7.347,7.347,0,0,1,3.291,5.742Z" transform="translate(-170.404 -182.271)"/></g><path class="a" d="M172.683,199.238l.469.273V183.05l-.47-.273Z" transform="translate(-168.885 -181.935)"/><path class="a" d="M170.615,185.63l7.362,4.28v-.547l-7.362-4.28Z" transform="translate(-170.263 -180.398)"/><path class="a" d="M170.615,188.866l7.362,4.28V192.6l-7.362-4.279Z" transform="translate(-170.263 -178.24)"/></g><g transform="translate(133.824 173.252)"><g transform="translate(0)"><path class="h" d="M179.572,192.2l7.361,4.279V184.255a8.117,8.117,0,0,0-3.644-6.353l-.073-.043c-2.013-1.17-3.644-.222-3.644,2.118Z" transform="translate(-179.219 -176.901)"/><path class="a" d="M179.36,192.59l8.068,4.689V184.642a8.915,8.915,0,0,0-4-6.968l-.073-.043c-2.2-1.28-4-.238-4,2.324Zm7.363,3.459-6.658-3.869V180.363c0-2.109,1.478-2.968,3.292-1.914l.073.045a7.338,7.338,0,0,1,3.292,5.738Z" transform="translate(-179.36 -177.084)"/></g><path class="a" d="M181.64,194.051l.47.273V177.862l-.47-.273Z" transform="translate(-177.84 -176.747)"/><path class="a" d="M179.572,180.442l7.362,4.28v-.547l-7.362-4.28Z" transform="translate(-179.219 -175.21)"/><path class="a" d="M179.572,183.68l7.362,4.28v-.547l-7.362-4.28Z" transform="translate(-179.219 -173.053)"/></g><g transform="translate(163.671 218.765)"><g transform="translate(0)"><path class="i" d="M161.659,219.517l7.361,4.279V211.571a8.121,8.121,0,0,0-3.644-6.355l-.073-.042c-2.013-1.17-3.644-.222-3.644,2.118Z" transform="translate(-161.306 -204.216)"/><path class="a" d="M161.447,219.9l8.068,4.69V211.957a8.917,8.917,0,0,0-4-6.968l-.073-.042c-2.2-1.281-4-.24-4,2.323Zm7.363,3.461-6.658-3.869V207.68c0-2.109,1.478-2.969,3.292-1.913l.073.042a7.344,7.344,0,0,1,3.292,5.74Z" transform="translate(-161.447 -204.399)"/></g><path class="a" d="M163.727,221.366l.469.273V205.178l-.47-.273Z" transform="translate(-159.927 -204.062)"/><path class="a" d="M161.659,207.758l7.362,4.279v-.547l-7.362-4.28Z" transform="translate(-161.306 -202.526)"/><path class="a" d="M161.659,210.994l7.362,4.279v-.545l-7.362-4.28Z" transform="translate(-161.306 -200.368)"/></g><g transform="translate(148.749 210.122)"><g transform="translate(0)"><path class="h" d="M170.615,214.331l7.363,4.279V206.383a8.123,8.123,0,0,0-3.644-6.355l-.075-.043c-2.011-1.168-3.644-.222-3.644,2.119Z" transform="translate(-170.263 -199.03)"/><path class="a" d="M170.4,214.718l8.066,4.689V206.77a8.923,8.923,0,0,0-4-6.97l-.073-.042c-2.2-1.28-4-.238-4,2.323Zm7.361,3.459-6.657-3.869V202.491c0-2.109,1.478-2.969,3.292-1.914l.073.045a7.338,7.338,0,0,1,3.291,5.738Z" transform="translate(-170.404 -199.212)"/></g><path class="a" d="M172.683,216.179l.469.273V199.99l-.47-.273Z" transform="translate(-168.885 -198.875)"/><path class="a" d="M170.615,202.57l7.362,4.279V206.3l-7.362-4.28Z" transform="translate(-170.263 -197.338)"/><path class="a" d="M170.615,205.808l7.362,4.279v-.547l-7.362-4.28Z" transform="translate(-170.263 -195.182)"/></g><g transform="translate(133.824 201.477)"><g transform="translate(0)"><path class="h" d="M179.572,209.143l7.361,4.279V201.2a8.121,8.121,0,0,0-3.644-6.357l-.073-.042c-2.013-1.17-3.644-.222-3.644,2.118Z" transform="translate(-179.219 -193.84)"/><path class="a" d="M179.36,209.53l8.068,4.689V201.583a8.915,8.915,0,0,0-4-6.968l-.073-.043c-2.2-1.281-4-.238-4,2.323Zm7.363,3.459-6.658-3.869V197.3c0-2.109,1.478-2.968,3.292-1.913l.073.042a7.344,7.344,0,0,1,3.292,5.742Z" transform="translate(-179.36 -194.023)"/></g><path class="a" d="M181.64,210.992l.47.273V194.8l-.47-.273Z" transform="translate(-177.84 -193.687)"/><path class="a" d="M179.572,197.381l7.362,4.279v-.547l-7.362-4.278Z" transform="translate(-179.219 -192.149)"/><path class="a" d="M179.572,200.62l7.362,4.278v-.545l-7.362-4.28Z" transform="translate(-179.219 -189.992)"/></g><g transform="translate(185.819 125.444)"><g transform="translate(0 8.644)"><path class="i" d="M155.729,168.7l-7.363,4.277V160.751a8.121,8.121,0,0,1,3.644-6.355l.073-.043c2.013-1.17,3.644-.22,3.646,2.119Z" transform="translate(-148.013 -153.396)"/><path class="a" d="M156.223,156.45c0-2.561-1.793-3.6-4-2.324l-.073.043a8.922,8.922,0,0,0-4,6.968l0,12.637,8.066-4.687Zm-7.361,4.279a7.344,7.344,0,0,1,3.291-5.74l.073-.043c1.816-1.053,3.292-.2,3.292,1.915v11.817l-6.657,3.869Z" transform="translate(-148.155 -153.579)"/><path class="a" d="M150.9,170.548l-.47.272V154.357l.47-.273Z" transform="translate(-146.635 -153.242)"/><path class="a" d="M155.728,156.937l-7.362,4.279v-.547l7.362-4.28Z" transform="translate(-148.012 -151.705)"/><path class="a" d="M155.728,160.176l-7.362,4.278v-.545l7.362-4.279Z" transform="translate(-148.012 -149.548)"/></g><g transform="translate(14.924)"><g transform="translate(0)"><path class="h" d="M146.773,163.509l-7.363,4.281V155.563a8.12,8.12,0,0,1,3.646-6.355l.073-.042c2.013-1.17,3.644-.223,3.644,2.116Z" transform="translate(-139.058 -148.208)"/><path class="a" d="M147.264,151.262c0-2.563-1.791-3.6-4-2.323l-.073.042a8.92,8.92,0,0,0-4,6.97v12.637l8.068-4.69Zm-7.361,4.279a7.348,7.348,0,0,1,3.292-5.74l.073-.043c1.815-1.055,3.291-.195,3.291,1.913v11.817l-6.657,3.869Z" transform="translate(-139.198 -148.391)"/></g><path class="a" d="M141.948,165.359l-.47.273V149.17l.47-.273Z" transform="translate(-137.68 -148.054)"/><path class="a" d="M146.773,151.75l-7.363,4.279v-.547l7.363-4.28Z" transform="translate(-139.057 -146.517)"/><path class="a" d="M146.773,154.987l-7.363,4.279v-.547l7.363-4.28Z" transform="translate(-139.057 -144.361)"/></g></g><g transform="translate(185.819 153.669)"><g transform="translate(0 8.645)"><path class="h" d="M155.729,185.637l-7.363,4.281V177.691a8.118,8.118,0,0,1,3.644-6.355l.073-.042c2.013-1.17,3.644-.223,3.646,2.116Z" transform="translate(-148.013 -170.336)"/><path class="a" d="M156.223,173.39c0-2.563-1.793-3.6-4-2.323l-.073.042a8.925,8.925,0,0,0-4,6.97l0,12.637,8.066-4.69Zm-7.361,4.279a7.347,7.347,0,0,1,3.291-5.74l.073-.043c1.816-1.055,3.292-.195,3.292,1.913v11.817l-6.657,3.869Z" transform="translate(-148.155 -170.519)"/><path class="a" d="M150.9,187.486l-.47.273V171.3l.47-.273Z" transform="translate(-146.635 -170.182)"/><path class="a" d="M155.728,173.878l-7.362,4.279v-.547l7.362-4.279Z" transform="translate(-148.012 -168.645)"/><path class="a" d="M155.728,177.115l-7.362,4.279v-.547l7.362-4.279Z" transform="translate(-148.012 -166.489)"/></g><g transform="translate(14.924)"><g transform="translate(0)"><path class="h" d="M146.773,180.451l-7.363,4.277V172.5a8.122,8.122,0,0,1,3.646-6.355l.073-.043c2.013-1.17,3.644-.222,3.644,2.119Z" transform="translate(-139.058 -165.149)"/><path class="a" d="M147.264,168.2c0-2.561-1.791-3.6-4-2.324l-.073.043a8.918,8.918,0,0,0-4,6.97v12.635l8.068-4.687Zm-7.361,4.279a7.346,7.346,0,0,1,3.292-5.74l.073-.043c1.815-1.053,3.291-.2,3.291,1.915v11.817L139.9,184.3Z" transform="translate(-139.198 -165.331)"/></g><path class="a" d="M141.948,182.3l-.47.273V166.109l.47-.273Z" transform="translate(-137.68 -164.994)"/><path class="a" d="M146.773,168.689l-7.363,4.28v-.545l7.363-4.279Z" transform="translate(-139.057 -163.457)"/><path class="a" d="M146.773,171.928l-7.363,4.279v-.547l7.363-4.279Z" transform="translate(-139.057 -161.3)"/></g></g><g transform="translate(185.819 181.895)"><g transform="translate(0 8.644)"><path class="h" d="M155.729,202.58l-7.363,4.277V194.632a8.121,8.121,0,0,1,3.644-6.355l.073-.043c2.013-1.17,3.644-.222,3.646,2.119Z" transform="translate(-148.013 -187.277)"/><path class="a" d="M156.223,190.33c0-2.561-1.793-3.6-4-2.324l-.073.045a8.916,8.916,0,0,0-4,6.966l0,12.637,8.066-4.687Zm-7.361,4.279a7.347,7.347,0,0,1,3.291-5.74l.073-.043c1.816-1.053,3.292-.2,3.292,1.914v11.817l-6.657,3.869Z" transform="translate(-148.155 -187.459)"/><path class="a" d="M150.9,204.427l-.47.273V188.237l.47-.273Z" transform="translate(-146.635 -187.122)"/><path class="a" d="M155.728,190.817l-7.362,4.28v-.547l7.362-4.278Z" transform="translate(-148.012 -185.585)"/><path class="a" d="M155.728,194.055l-7.362,4.28v-.547l7.362-4.279Z" transform="translate(-148.012 -183.428)"/></g><g transform="translate(14.924)"><g transform="translate(0)"><path class="i" d="M146.773,197.389l-7.363,4.279V189.443a8.12,8.12,0,0,1,3.646-6.355l.073-.042c2.013-1.17,3.644-.222,3.644,2.118Z" transform="translate(-139.058 -182.088)"/><path class="a" d="M147.264,185.142c0-2.563-1.791-3.6-4-2.323l-.073.042a8.92,8.92,0,0,0-4,6.97v12.637l8.068-4.69Zm-7.361,4.277a7.348,7.348,0,0,1,3.292-5.738l.073-.042c1.815-1.056,3.291-.2,3.291,1.911v11.819l-6.657,3.867Z" transform="translate(-139.198 -182.271)"/></g><path class="a" d="M141.948,199.238l-.47.273V183.05l.47-.273Z" transform="translate(-137.68 -181.934)"/><path class="a" d="M146.773,185.63l-7.363,4.28v-.547l7.363-4.28Z" transform="translate(-139.057 -180.398)"/><path class="a" d="M146.773,188.867l-7.363,4.28V192.6l7.363-4.28Z" transform="translate(-139.057 -178.241)"/></g></g><g transform="translate(185.819 210.121)"><g transform="translate(0 8.644)"><path class="i" d="M155.729,219.517l-7.363,4.279V211.571a8.118,8.118,0,0,1,3.644-6.355l.073-.042c2.013-1.17,3.644-.222,3.646,2.116Z" transform="translate(-148.013 -204.216)"/><path class="a" d="M156.223,207.27c0-2.563-1.793-3.6-4-2.323l-.073.042a8.922,8.922,0,0,0-4,6.968l0,12.638,8.066-4.69Zm-7.361,4.279a7.347,7.347,0,0,1,3.291-5.74l.073-.043c1.816-1.055,3.292-.195,3.292,1.913v11.817l-6.657,3.869Z" transform="translate(-148.155 -204.399)"/><path class="a" d="M150.9,221.366l-.47.273V205.178l.47-.273Z" transform="translate(-146.635 -204.062)"/><path class="a" d="M155.728,207.758l-7.362,4.279v-.547l7.362-4.28Z" transform="translate(-148.012 -202.526)"/><path class="a" d="M155.728,211l-7.362,4.279v-.547l7.362-4.28Z" transform="translate(-148.012 -200.369)"/></g><g transform="translate(14.924)"><g transform="translate(0)"><path class="h" d="M146.773,214.331l-7.363,4.279V206.384a8.125,8.125,0,0,1,3.646-6.355l.073-.043c2.013-1.17,3.644-.222,3.644,2.119Z" transform="translate(-139.058 -199.029)"/><path class="a" d="M147.264,202.082c0-2.561-1.791-3.6-4-2.323l-.073.042a8.918,8.918,0,0,0-4,6.97v12.635l8.068-4.687Zm-7.361,4.279a7.346,7.346,0,0,1,3.292-5.74l.073-.043c1.815-1.055,3.291-.2,3.291,1.914v11.817l-6.657,3.869Z" transform="translate(-139.198 -199.211)"/></g><path class="a" d="M141.948,216.18l-.47.273V199.989l.47-.273Z" transform="translate(-137.68 -198.875)"/><path class="a" d="M146.773,202.57l-7.363,4.278V206.3l7.363-4.28Z" transform="translate(-139.057 -197.338)"/><path class="a" d="M146.773,205.808l-7.363,4.279v-.547l7.363-4.28Z" transform="translate(-139.057 -195.181)"/></g></g><g transform="translate(88.801 170.314)"><g transform="translate(0)"><path class="d" d="M205.605,196.33l9.36,5.44V180.76l-9.36-5.44Z" transform="translate(-205.605 -175.32)"/><path class="j" d="M213.413,199.062V180.632l-7.142-4.151v18.431Z" transform="translate(-205.162 -174.547)"/></g><g transform="translate(1.84 3.277)"><g transform="translate(0)"><path class="a" d="M207.1,177.747v7.321l4.947,2.869v-7.323l-1.371-.788-2.686-1.563-.89-.517Zm-.263-.46,5.474,3.174v7.933l-5.474-3.172v-7.935Z" transform="translate(-206.834 -177.287)"/></g><g transform="translate(0.263 0.461)"><path class="k" d="M210.238,177.967v6.513l-.693.4v-7.321Z" transform="translate(-209.545 -177.564)"/></g><g transform="translate(0.263 7.376)"><g transform="translate(0)"><path class="l" d="M206.992,182.119l4.948,2.869v-.809l-4.255-2.465Z" transform="translate(-206.992 -181.714)"/></g><g transform="translate(0)"><path class="l" d="M206.992,182.119l4.948,2.869v-.809l-4.255-2.465Z" transform="translate(-206.992 -181.714)"/></g></g></g><g transform="translate(1.84 11.955)"><g transform="translate(0)"><path class="a" d="M207.1,182.953v7.323l4.947,2.868v-7.321l-1.371-.788-2.686-1.565-.89-.517Zm-.263-.458,5.474,3.174V193.6l-5.474-3.174v-7.933Z" transform="translate(-206.834 -182.495)"/></g><g transform="translate(0.263 0.459)"><path class="k" d="M210.238,183.176v6.512l-.693.405V182.77Z" transform="translate(-209.545 -182.77)"/></g><g transform="translate(0.263 7.376)"><g transform="translate(0)"><path class="l" d="M206.992,187.327l4.948,2.867v-.809l-4.255-2.464Z" transform="translate(-206.992 -186.922)"/></g><g transform="translate(0)"><path class="l" d="M206.992,187.327l4.948,2.867v-.809l-4.255-2.464Z" transform="translate(-206.992 -186.922)"/></g></g></g><g transform="translate(7.629 14.62)"><path class="c" d="M206.184,184.095l.958.557v3.521l-.286.166-.958-4.078Z" transform="translate(-205.898 -184.095)"/><path class="a" d="M206.07,184.194l.958.557v3.521l-.958-.557Z" transform="translate(-206.07 -184.028)"/></g></g><g transform="translate(98.161 175.76)"><g transform="translate(0)"><path class="d" d="M199.988,199.6l9.36,5.44v-21.01l-9.36-5.44Z" transform="translate(-199.988 -178.589)"/><path class="j" d="M207.795,202.33V183.9l-7.142-4.151v18.429Z" transform="translate(-199.544 -177.815)"/></g><g transform="translate(1.839 3.278)"><g transform="translate(0)"><path class="a" d="M201.479,181.014v7.323l4.949,2.868v-7.321l-1.371-.788-2.688-1.563-.89-.518Zm-.263-.458,5.475,3.174v7.933l-5.475-3.174v-7.933Z" transform="translate(-201.216 -180.556)"/></g><g transform="translate(0.264 0.458)"><path class="k" d="M204.621,181.236v6.514l-.693.4v-7.322Z" transform="translate(-203.927 -180.831)"/></g><g transform="translate(0.264 7.375)"><path class="l" d="M201.374,185.388l4.948,2.869v-.81l-4.255-2.464Z" transform="translate(-201.374 -184.982)"/></g></g><g transform="translate(1.839 11.955)"><g transform="translate(0)"><path class="c" d="M201.479,186.221v7.323l4.949,2.868V189.09l-1.371-.788-2.688-1.563-.89-.518Zm-.263-.457,5.475,3.172v7.935l-5.475-3.176v-7.931Z" transform="translate(-201.216 -185.764)"/></g><g transform="translate(0.264 0.458)"><path class="k" d="M204.621,186.444v6.512l-.693.405v-7.322Z" transform="translate(-203.927 -186.039)"/></g><g transform="translate(0.264 7.375)"><path class="l" d="M201.374,190.594l4.948,2.869v-.809l-4.255-2.464Z" transform="translate(-201.374 -190.19)"/></g></g><g transform="translate(0.487 10.394)"><path class="c" d="M204.853,184.827l.958.557V188.9l-.286.166-.958-4.078Z" transform="translate(-204.566 -184.827)"/><path class="a" d="M204.738,184.927l.958.558V189l-.958-.556Z" transform="translate(-204.738 -184.761)"/></g></g><g transform="translate(79.937 164.648)"><path class="a" d="M211.284,179.843l8.763-5.094V171.92l-7.415,5.354a3.457,3.457,0,0,0-1.348,2.553Z" transform="translate(-211.284 -171.92)"/><g transform="translate(0)"><path class="a" d="M208.123,171.92l-8.762,7.906,19.868,11.548,8.762-7.906Z" transform="translate(-199.36 -171.92)"/><path class="b" d="M199.36,186.772l8.763-5.092v-2.829l-7.415,5.355a3.448,3.448,0,0,0-1.348,2.551Z" transform="translate(-179.492 -167.302)"/></g></g><path class="a" d="M195.592,171.345l33.861,19.681v-7.931l-33.861-19.681Z" transform="translate(-114.607 -12.938)"/></svg>