<svg xmlns="http://www.w3.org/2000/svg" xmlns:xlink="http://www.w3.org/1999/xlink" width="275" height="108.306" viewBox="0 0 275 108.306"><defs><style>.a{fill:#300901;}.b{fill:#a98b81;}.aa,.ag,.ah,.ai,.ak,.ap,.av,.bq,.c,.k,.o{mix-blend-mode:multiply;isolation:isolate;}.d{fill:url(#a);}.e{fill:#84372d;}.f{fill:#fff;}.g{fill:#a3cce2;}.h{fill:#bfa8a0;}.i{fill:#a88a80;}.j{fill:#933d02;}.k{fill:url(#b);}.l{fill:#dd923a;}.m{fill:#eaa74e;}.n{fill:#d3a590;}.o{fill:url(#i);}.p{fill:#eac6b5;}.q{fill:#850000;}.r{fill:#b80000;}.s{fill:#873f26;}.t{fill:#5b250e;}.u{fill:#0098b6;}.v{fill:#00caf2;}.w{fill:#f29132;}.x{fill:#ffc400;}.y{fill:#327c34;}.z{fill:#cc9987;}.aa{fill:url(#j);}.ab{fill:#4dac4a;}.ac{fill:#e0b8aa;}.ad{fill:#08080d;}.ae{fill:#282626;}.af,.ag,.ah{fill:#a84800;}.ag{opacity:0.38;}.ah{opacity:0.15;}.ai{fill:url(#l);}.aj{fill:#001c49;}.ak{fill:url(#m);}.al{fill:#1e1e1e;}.am{fill:#26479c;}.an,.bl{fill:#0d3b7f;}.ao{fill:#b0dff4;}.ap{fill:url(#n);}.aq{fill:#b5723a;}.ar{fill:url(#o);}.as{fill:#1d3575;}.at{fill:#cc8e5a;}.au{fill:#6cb1e0;}.av{fill:url(#p);}.aw{fill:#232121;}.ax{fill:#700000;}.ay{fill:#a80000;}.az{fill:url(#q);}.ba{fill:#8fa4bc;}.bb{fill:#2b55b2;}.bc{fill:#4686d3;}.bd{fill:url(#s);}.be{fill:#b7694e;}.bf{fill:#d6415d;}.bg{fill:#6a7b9b;}.bh{fill:#6f5349;}.bi{fill:url(#u);}.bj{fill:#705c55;}.bk{fill:#212121;}.bl{opacity:0.46;}.bm{fill:#aac9e2;}.bn{fill:url(#w);}.bo{fill:#ddac9e;}.bp{fill:#e8c8ba;}.bq{fill:url(#x);}</style><linearGradient id="a" x1="0.514" y1="0.829" x2="0.497" y2="0.316" gradientUnits="objectBoundingBox"><stop offset="0" stop-color="#fff"/><stop offset="0.643" stop-color="#baada6"/></linearGradient><linearGradient id="b" x1="0.5" y1="0.632" x2="0.5" y2="-0.516" gradientUnits="objectBoundingBox"><stop offset="0" stop-color="#fff"/><stop offset="0.846" stop-color="#a89e99"/></linearGradient><linearGradient id="i" x1="62.993" y1="1.233" x2="62.57" y2="-0.194" gradientUnits="objectBoundingBox"><stop offset="0.25" stop-color="#fff"/><stop offset="0.643" stop-color="#c6c0b9"/></linearGradient><linearGradient id="j" x1="8.638" y1="-1.473" x2="9.782" y2="-2.896" gradientUnits="objectBoundingBox"><stop offset="0" stop-color="#fff"/><stop offset="0.643" stop-color="#c6c0b9"/></linearGradient><linearGradient id="l" x1="38.229" y1="-2.049" x2="40.09" y2="-3.191" gradientUnits="objectBoundingBox"><stop offset="0" stop-color="#fff"/><stop offset="0.516" stop-color="#c6c0b9"/></linearGradient><linearGradient id="m" x1="179.712" y1="-6.64" x2="181.574" y2="-7.845" xlink:href="#l"/><linearGradient id="n" x1="0.5" y1="0.632" x2="0.5" y2="-0.516" xlink:href="#b"/><linearGradient id="o" x1="96.305" y1="1.215" x2="95.84" y2="-0.179" xlink:href="#i"/><linearGradient id="p" x1="0.922" y1="-0.511" x2="1.21" y2="-1.233" xlink:href="#j"/><linearGradient id="q" x1="-2.011" y1="5.648" x2="-0.952" y2="4.351" xlink:href="#j"/><linearGradient id="s" x1="74.428" y1="1.173" x2="73.99" y2="-0.003" xlink:href="#j"/><linearGradient id="u" x1="0.048" y1="0.968" x2="0.686" y2="-0.094" xlink:href="#j"/><linearGradient id="w" x1="42.991" y1="7.382" x2="42.522" y2="6.049" xlink:href="#i"/><linearGradient id="x" x1="0.773" y1="-1.023" x2="1.791" y2="-1.023" xlink:href="#j"/></defs><g transform="translate(309.029 -103.278)"><g transform="translate(-221.512 103.278)"><g transform="translate(5.963)"><path class="a" d="M-215.419,110.347c.61.864,2.238,3.814,1.221,5.85s-1.731,2.137-1.731,2.137a3.651,3.651,0,0,0,.2-3.053,21.378,21.378,0,0,0-1.629-3.56Z" transform="translate(222.181 -102.767)"/><g transform="translate(0 8.418)"><path class="b" d="M-215.774,111.273l-1.57-.071h-.024l-1.581.087-.5-.112c0,.32.228,2.566-.552,3.182-.229.182-1.852.877-1.852.877l2.29,1.723,2.066,5.383,1.754-1.58,1.946-5.72S-216.014,114.541-215.774,111.273Z" transform="translate(221.855 -111.124)"/><g class="c" transform="translate(0.281)"><path class="d" d="M-217.411,111.129h.024l1.722.093a5.577,5.577,0,0,0-.134,1.381c-.43.643-3.291,3.579-4.126,3.579-.69,0-1.226-.616-1.667-1.084,2.9-.6,2.123-3.757,2.123-3.917Z" transform="translate(221.593 -111.128)"/></g></g><path class="b" d="M-217.454,103.569c-.109,0-.207.01-.31.016v-.08c-2.373.011-3.218,1.537-3.383,3.438a7.465,7.465,0,0,0,.015,1.873v.01c.4,4.385,3.324,4.659,3.367,4.663,1.676.128,2.985-1.064,3.512-4.307C-213.824,106.515-214.114,103.569-217.454,103.569Z" transform="translate(221.902 -103.262)"/><g transform="translate(0.019)"><path class="a" d="M-217.459,105.522c-1.032.983-2.71.826-3.123,3.192a6.741,6.741,0,0,0,.03,2.559,7.045,7.045,0,0,1-1.272-3.23s-.288-2.863,1.753-4.2a3.315,3.315,0,0,1,2.739-.425A20.578,20.578,0,0,1-217.459,105.522Z" transform="translate(221.837 -103.277)"/><path class="e" d="M-217.756,105.508c.769.863,2.429,1.338,2.882,3.032.436,1.631-.367,2.875-.087,2.62a5.146,5.146,0,0,0,1.234-2.615s.41-3.068-1.473-4.519c-1.1-.844-2.535-.844-2.545-.623C-217.752,103.568-217.756,105.508-217.756,105.508Z" transform="translate(222.132 -103.278)"/><path class="a" d="M-220.295,108.247l5.285-.218s.355-2.81-1.221-3.164-3.1-.154-3.662.56C-220.63,106.359-220.295,108.247-220.295,108.247Z" transform="translate(221.943 -103.176)"/></g></g><path class="f" d="M-211.484,115.46c1.091.7,1.991,4.893,1.991,4.893s-1.966-.1-2.147.424a25.942,25.942,0,0,0-.323,5.558c.568,1.8-1.827,3.1-1.827,3.1l-4.546,1.442.874-10.149-.457-3.3s3.637-.723,3.866-3.044A9.964,9.964,0,0,1-211.484,115.46Z" transform="translate(228.072 -102.474)"/><path class="g" d="M-221.174,114.5a3.7,3.7,0,0,0-2.062.868c-2.62,2.7-3.787,9.105-3.787,9.105s5.971,1.24,5.561,2.144c-1.137,2.526,5.05.885,5.05.885l-.26-10.266A8.408,8.408,0,0,1-221.174,114.5Z" transform="translate(227.444 -102.466)"/><path class="g" d="M-212.4,115.217c.742-.5,1.642,1.977,2.6,4.183s2.181,4.839,1.948,5.889-3.62,1.4-3.62,1.4-.668-2.54-1.432-2.54,1.081-1.07,1.081-1.07l-.3-1.435S-214.462,116.607-212.4,115.217Z" transform="translate(228.44 -102.419)"/><path d="M-215.994,126.821a.3.3,0,0,1-.057.421h0a.3.3,0,0,1-.4-.15l-3.429-5.71a.306.306,0,0,1,.056-.421h0a.3.3,0,0,1,.4.15Z" transform="translate(227.957 -102.001)"/><path class="g" d="M-224.3,122.344c-.573.064-.8,3.054.473,3.436a16.557,16.557,0,0,1-3.083.383s-.953-2.226-.253-3.248,2.416-.7,2.416-.7Z" transform="translate(227.416 -101.912)"/><path class="h" d="M-211.682,123.355a20.417,20.417,0,0,1-3.7.987c-.382,0-1.433.384-1.939.384s-1.243,0-.48.253a3.55,3.55,0,0,0,1.527.128l-2.671.254-1.335-.19a3.169,3.169,0,0,0,1.113.731,13.236,13.236,0,0,0,2.514.351c.764,0,2.17-.429,2.681-.429a31.26,31.26,0,0,0,3.594-.389C-210,125.3-211.682,123.355-211.682,123.355Z" transform="translate(227.931 -101.826)"/><path class="g" d="M-213.314,123.366c-.4.1.955-.574.955-.574a6.214,6.214,0,0,1,2,3.307,2.248,2.248,0,0,1-1.67.32C-212.168,126.419-213.121,123.315-213.314,123.366Z" transform="translate(228.43 -101.867)"/><g transform="translate(2.008 21.082)"><path class="i" d="M-223.863,123.083a35.959,35.959,0,0,1,4.517.416c.367.047.2,1.751.2,1.751s-4.2.955-6.242.56C-225.867,125.719-225.2,123.066-223.863,123.083Z" transform="translate(225.543 -122.928)"/><path class="i" d="M-219.867,123.664c.44-.433.93-.821,1.406-.7a5.031,5.031,0,0,1,1.731.877c.164.187.12.316-.461.184s-1.1-.312-1.1-.312,1.607.6,1.413.842-1.733-.069-1.733-.069,1.588.323,1.334.614-1.353-.071-1.353-.071,1.185.229,1.095.364c-.369.546-.921.369-1.4.3a2.011,2.011,0,0,1-1.333-.7C-220.736,124.239-220.314,124.135-219.867,123.664Z" transform="translate(225.91 -122.938)"/></g><path class="f" d="M-212.409,115.035a2.458,2.458,0,0,1,1.644,1.515c.434,1.126,4.394,8.793,3.073,9.486a1.26,1.26,0,0,1-1.514-.174,20.705,20.705,0,0,0-1.689-6.889c-.872-2.027-2.295-2.642-2.295-3.246S-212.409,115.035-212.409,115.035Z" transform="translate(228.445 -102.428)"/><path class="f" d="M-222.821,117.377c-1.213,1.6-3.033,4.764-2.686,5.457a1.768,1.768,0,0,1,1.473.3Z" transform="translate(227.55 -102.258)"/></g><g transform="translate(-209.888 143.22)"><rect class="e" width="62.285" height="62.717" transform="translate(10.482 5.647)"/><g transform="translate(12.431 7.276)"><rect class="j" width="34.831" height="15.736" transform="translate(8.5 0.308)"/><path class="k" d="M-158.855,148.971l-6.864,4.5h-39.263l5.15-4.5Z" transform="translate(204.983 -147.19)"/><path class="l" d="M-200.034,148.148l3.466-.838h34.3l3.052.838v.942Z" transform="translate(205.341 -147.31)"/><rect class="m" width="40.886" height="0.942" transform="translate(5.307 0.838)"/><g transform="translate(0 7.188)"><path class="k" d="M-158.855,155.961l-6.864,5.281h-39.263l5.15-5.281Z" transform="translate(204.983 -153.872)"/><path class="l" d="M-200.181,155l3.216-.983h35.03l2.733.983V156.1Z" transform="translate(205.33 -154.013)"/><rect class="m" width="40.978" height="1.105" transform="translate(5.15 0.983)"/></g></g><rect class="j" width="34.831" height="22.194" transform="translate(20.932 33.869)"/><path class="l" d="M-208.277,191.579h56.393v6.1h-58.472Z" transform="translate(217.026 -136.832)"/><rect class="j" width="57.086" height="8.645" transform="translate(11.522 59.719)"/><path class="l" d="M-208.277,161.932h56.393v4.139h-58.472Z" transform="translate(217.026 -138.977)"/><rect class="j" width="57.086" height="7.735" transform="translate(11.522 25.894)"/><path class="l" d="M-208.277,140.525h56.393v1.091h-58.472Z" transform="translate(217.026 -140.525)"/><rect class="j" width="57.086" height="6.406" transform="translate(11.522 0.976)"/><path class="k" d="M-158.855,174.048l-6.864,6.353h-39.263l5.15-6.353Z" transform="translate(217.414 -138.1)"/><path class="l" d="M-200.016,172.889l3.447-1.183h34.3l3.052,1.183v1.328Z" transform="translate(217.774 -138.27)"/><rect class="m" width="40.886" height="1.328" transform="translate(17.739 34.619)"/><g transform="translate(12.431 43.572)"><path class="k" d="M-158.855,183.9l-6.864,7.45h-39.263l5.15-7.45Z" transform="translate(204.983 -180.959)"/><path class="l" d="M-200.181,182.544l3.216-1.386h35.03l2.733,1.386V184.1Z" transform="translate(205.33 -181.158)"/><rect class="m" width="40.978" height="1.559" transform="translate(5.15 1.386)"/></g><path class="k" d="M-154.9,196.645l-9.789,8.229h-51.889l12.562-10.308h48.944Z" transform="translate(216.576 -136.616)"/><path class="k" d="M-153.928,165l-9.789,7.5h-51.889l12.561-9.391H-154.1Z" transform="translate(216.646 -138.892)"/><path class="k" d="M-153.128,142.547-160.4,147.7h-51.889l10.048-7.051H-153.3Z" transform="translate(216.885 -140.516)"/></g><g transform="translate(-145.571 104.502)"><path class="n" d="M-143.394,111.785l-4.1,1.278c.706,3.495-2.6,3.652-3.33,3.96-.785.142,5.854,4.858,6.4,4.743.174-.039,2.158-5.02,2.158-5.02A10.229,10.229,0,0,1-143.394,111.785Z" transform="translate(157.011 -103.886)"/><path class="o" d="M-145.547,111.872h.031l1.837.1c0,.15.145,1.373.216,1.974a14.7,14.7,0,0,1-5.885,5.28c-1.092.55-1.114-1.79-1.585-2.289,1.11-.2,2.9-.993,3.351-1.887a6.292,6.292,0,0,0,.153-3.065Z" transform="translate(157.007 -103.88)"/><g transform="translate(8.276 0.804)"><path class="p" d="M-148.8,111.338c.333,2.565,2.01,4.165,3.246,4.165,1.384-.006,3.41-1.673,3.946-4.96.434-2.7-.248-5.375-3.626-5.375C-148.4,105.169-149.149,108.644-148.8,111.338Z" transform="translate(148.88 -105.169)"/></g><path class="q" d="M-147.986,114.958c.091,1.034,1.209,1.258,1.721,1.782.239,1.865.613,3,1.216,3.039.282,1.861.7,15.06.7,15.06l-7.691.766a63.584,63.584,0,0,1,1.828-7.146c.592-1.182-.174-5.435-.9-6.339,0,0,.878-4.106-1.266-5.182A22.19,22.19,0,0,0-147.986,114.958Z" transform="translate(156.903 -103.657)"/><path class="r" d="M-142.989,114.807c.032,1.671-1.205,1.484-1.7,1.944-.4.376-.553,2.655-1.154,2.857-.287,1.865-.562,14.821-.562,14.821l6.988,1.024s-.727-4.946-1.56-6.658c-.94-1.941-.388-5.691.4-6.664,0,0-.786-1.7,1.308-4.818C-139.592,116.452-142.989,114.807-142.989,114.807Z" transform="translate(157.335 -103.668)"/><path class="s" d="M-139.275,109.311a.988.988,0,0,1-.931.326c.374-.026.753-.5.753-.5a1.973,1.973,0,0,1-1.311-.887,8.316,8.316,0,0,0-1.688-2.386,3.069,3.069,0,0,0-.512-.417,2.256,2.256,0,0,0-.52-.25l-.018-.011a.147.147,0,0,0-.041-.005c-.737-.214-1.025.3-1.034.479s-.145,1.542-.145,1.542c.523.981,1.161.669,1.586,1.428.782,2.374.235,3.71-.331,4.122a.931.931,0,0,0,.618.062,2.4,2.4,0,0,1-1.081.619,1.062,1.062,0,0,0,1.325.071,3.163,3.163,0,0,1-.751.463s.876.592,2.362-.463C-139.668,112.717-138.987,111.694-139.275,109.311Z" transform="translate(157.457 -104.368)"/><path class="t" d="M-143.065,105.208c-1.268-1.182-3.783-.879-4.936-.116-.03.02-.056.044-.084.064a6.507,6.507,0,0,0-2.5,2.931.81.81,0,0,1-1.21.24s0,.91.376.94c-.163.27-.593.322-1.072-.486a5.385,5.385,0,0,0,2.405,5.1c1.486,1.052,2.238.3,2.238.3a3.233,3.233,0,0,1-.8-.454c.132.187.775.025,1.209-.4a1.441,1.441,0,0,1-1.067-1.256c.018.646.769.419.958.34-.5-.364-1.095-1.253-.7-3.077.088-.159.173-.3.244-.415.888-1.4,3.386.59,4.811-1.576A11.228,11.228,0,0,0-143.065,105.208Z" transform="translate(156.892 -104.419)"/><path class="u" d="M-147.992,114.845c-2.189,1.135-3.908,1.582-4.3,1.9,0,0,.9,6.65,1.056,7.291a32.058,32.058,0,0,1-.157,6.713,26.181,26.181,0,0,0-.225,5.421c.081.479,2.915-.441,4.116-.843s2.207-.481,2.207-1.284.1-9.714.1-9.714-2.669-4.846-3.2-6.226A3.723,3.723,0,0,1-147.992,114.845Z" transform="translate(156.909 -103.665)"/><path class="v" d="M-142.848,114.769c1.986,1.256,3.586,1.944,3.8,2.155,0,0-1.063,6.478-1.221,7.119a22.983,22.983,0,0,0,.013,5.752,40.2,40.2,0,0,1,.817,5.96c-.085.48-3-.754-4.206-1.153s-2.444.287-2.444-.512-.038-10.08-.038-10.08,2.027-3.367,3.187-5.687C-142.522,117.491-142.848,114.769-142.848,114.769Z" transform="translate(157.355 -103.671)"/><path class="u" d="M-151.45,116.434c-1.072-.337-2.25,1.81-3.045,3.764-.924,2.267-1.765,2.461-2.1,6.156-.122,1.337,3.745,1.05,3.983.725,1.341-1.83,2.289-2.464,2.289-3.557C-150.323,122.881-151.45,116.434-151.45,116.434Z" transform="translate(156.598 -103.553)"/><path class="u" d="M-139.609,116.582c.608.3,1.523.573,2.1,2.95s2.829,6.037,2.186,6.809-4.026,1.384-4.925,1.45c-.2-.813-.538-1.19-1.087-2.717l1.56-.361c0-.491-.761-.754-.761-1.848C-140.534,122.227-139.609,116.582-139.609,116.582Z" transform="translate(157.702 -103.539)"/><path class="p" d="M-153.789,122.772c.335-.1,2.122-.421,2.154-.683a1.542,1.542,0,0,1-.415.834,3.969,3.969,0,0,1-1.535.368Z" transform="translate(156.801 -103.145)"/><g transform="translate(4.166 16.377)"><path class="f" d="M-144.92,128.771l-.23.225-6.912.172-.359-8.931.223-.546,6.938.481Z" transform="translate(152.734 -119.691)"/><g transform="translate(0 0.307)"><path class="w" d="M-145.128,128.975l-7.139.4-.445-9.4,7.347.589Z" transform="translate(152.713 -119.978)"/></g></g><g transform="translate(11.183 15.93)"><path class="f" d="M-138.774,128.292l.27.325-6.912.17-.646-8.308-.107-.3,6.79-.906Z" transform="translate(146.169 -119.274)"/><g transform="translate(0.01 0.416)"><path class="x" d="M-138.5,128.589l-7.141.4-.514-8.364,7.194-.958Z" transform="translate(146.16 -119.663)"/></g></g><g transform="translate(2.432 19.627)"><path class="p" d="M-153.75,122.722c-.619.181-.423.755-.559,1.13s.435,1.33.559,1.487a2.689,2.689,0,0,0,1.722-.2c.34-.239,1.195-.6,1.082-.813-.048-.087-.893.244-.893.244s1.2-.406.955-.8c-.068-.108-.306-.042-.539.083a9,9,0,0,1-1.012.358,8.891,8.891,0,0,0,1.473-.758c.042-.135.068-.3-.227-.216a5.907,5.907,0,0,0-.763.228,6.213,6.213,0,0,1-1.036.139l1.652-.464s.115-.227-.13-.227a6.142,6.142,0,0,1-1.1.016C-153.017,122.874-153.75,122.722-153.75,122.722Z" transform="translate(154.33 -122.722)"/></g></g><g transform="translate(-300.063 103.537)"><path class="y" d="M-292.169,113.351c.981-1.751,6.414-1.885,7-1.352s2.939.667.12,3.189-4.713,3.035-5.46,2.091A18.14,18.14,0,0,1-292.169,113.351Z" transform="translate(301.283 -102.927)"/><path class="z" d="M-295.357,116.343c-1.079,1.235-4.934,6.2-5.311,8.56,0,0,.548,1.87.791,1.918a1.939,1.939,0,0,0,1.878-.2c.961-.626,4.37-5.185,4.78-6.006S-295.357,116.343-295.357,116.343Z" transform="translate(300.668 -102.592)"/><path class="z" d="M-290.861,109.692l-.16,5.642s3.27,4.126,4.789,4.223,1.594-3.309,1.288-4.245-1.909-6.638-1.909-6.638Z" transform="translate(301.366 -103.147)"/><path class="aa" d="M-291.65,110.267c-.555-.717,4.381-.2,5.667.239l-2.093,9.774c-.729-.034-2.433-3.44-2.745-3.651C-290.639,115.986-290.669,111.526-291.65,110.267Z" transform="translate(301.317 -103.058)"/><path class="y" d="M-286.472,115.556c-4.338.874-4.273-3.211-4.273-3.211a52.2,52.2,0,0,0-5.672,3.1c-.577.405,1.39,4.379,1.608,4.817a18.33,18.33,0,0,1,1.31,3.861c.207,1-.364,8.018.094,8,.632-.026,6.872,1.837,8.524,1.527C-284.126,133.732-285.587,115.375-286.472,115.556Z" transform="translate(300.968 -102.882)"/><path class="ab" d="M-287.285,122.712c-.15-4.226-.6-6.991-.566-6.993,2.207-.181,2.371-3.739,2.371-3.739a45.473,45.473,0,0,0,4.875,1.485c1.387.266.623,3.31.46,4.869-.233,2.234-.4,3.155-.682,5.326-.055.417.226,6.551.68,10.649.107,1-4.735,1.036-6.632,1.059C-287.433,135.372-287.163,126.051-287.285,122.712Z" transform="translate(301.595 -102.908)"/><path class="y" d="M-295.888,115.079c-1.242-.165-2.705,4.839-3.784,6.069-.341.389,4.686,3,4.686,3l1.48-3.006Z" transform="translate(300.739 -102.684)"/><g transform="translate(6.984)"><path class="ac" d="M-285.914,107.691c-.563-1.93-1.741-3.365-4.524-2.6-3.473.964-2.954,2.937-2.212,5.187.761,2.337,3.009,4.758,4.788,4.3a3.591,3.591,0,0,0,2.282-4.2,1.683,1.683,0,0,0,.359-1.508C-285.386,108.094-285.4,107.619-285.914,107.691Z" transform="translate(294.225 -103.421)"/><g transform="translate(0.784 2.455)"><path class="z" d="M-291.429,105.809c-1.658.781-2.327,1.85-1.744,3.665-.056.005.165.128.121.139-.592.132-.383.539-.027,1.349.282.651.655,1.222,1.141,1.215,1.014,2.17,2.748,2.668,4.065,2.328.061-.018.116-.043.176-.06C-287.7,114.446-289.645,114.858-291.429,105.809Z" transform="translate(293.424 -105.809)"/></g><path class="ad" d="M-291.156,104.123a2.728,2.728,0,0,0-2.695,1.639,5,5,0,0,0-.159,2.964,6.086,6.086,0,0,0,.777,1.84l.5-.023-.031-.5s-.2-.337.443-1.3a6.518,6.518,0,0,1,2.418-1.708Z" transform="translate(294.155 -103.478)"/><path class="ae" d="M-292.188,108.086a3.545,3.545,0,0,0,2.607.379c.9-.308,2.08-.942,2.418-.6a7.79,7.79,0,0,1,.826,1.183l.342-.55.47-.6a6.082,6.082,0,0,0-1.072-3.123c-.706-.772-1-1.247-2.183-1.251-.542,0-3.514-.168-3.673,1.333C-292.5,105.284-292.188,108.086-292.188,108.086Z" transform="translate(294.278 -103.52)"/></g><g transform="translate(0.551 17.075)"><g transform="translate(8.898)"><path d="M-286.973,125.854s.041.172.012.191-.184-.075-.184-.075Z" transform="translate(292.197 -118.979)"/><path class="f" d="M-286.927,125.909a4.7,4.7,0,0,0-.375-.8l-.428.309a5.779,5.779,0,0,0,.634.62C-287,125.961-286.939,125.92-286.927,125.909Z" transform="translate(292.154 -119.033)"/><path d="M-287.123,125.356c-.113-.251-2.277-3.463-2.277-3.463l-.713.508s2.37,3.07,2.569,3.256C-287.286,125.483-287.165,125.387-287.123,125.356Z" transform="translate(291.982 -119.266)"/><path d="M-289.7,122.223l.108-.06-.016-.02.257-.2c-.015-.024-1.684-2.4-1.789-2.5-.168.114-.288.2-.359.252s-.193.137-.357.26c.056.13,1.765,2.45,1.78,2.472l.232.324.439-.324Z" transform="translate(291.856 -119.442)"/><g transform="translate(0.369)"><path class="ae" d="M-289.425,121.893l-.34.245,2.41,3.371c.116-.081.179-.133.207-.153C-287.261,125.1-289.425,121.893-289.425,121.893Z" transform="translate(291.638 -119.266)"/><path class="ae" d="M-289.138,122.272c-.015-.023-1.928-2.736-2.034-2.829-.157.12-.243.179-.34.25l1.934,2.741Z" transform="translate(291.512 -119.443)"/></g></g><path class="z" d="M-298.064,122.5c1.663-.062,6.347.94,7.466.634,1.526-.42,1.595-.716,1.956-.727.434-.017.645.072,1.229.529.835.659,1.258,1.531,1.016,1.788-.082.093-.384-.248-.681-.577a1.472,1.472,0,0,0-.77-.52,8.12,8.12,0,0,0,.929.853c.428.339.515.647.4.773-.249.267-1.756-.744-1.756-.744s1.634.974,1.428,1.157c-.418.368-1.75-.387-1.75-.387s1.5.535,1.4.721c-.166.3-1.033.118-1.574-.129s-1.385.549-2.382.114c-1.533-.671-7.166,1.239-8.462-.3C-301.424,123.543-298.064,122.5-298.064,122.5Z" transform="translate(300.154 -119.229)"/></g><path class="ac" d="M-279.552,115.031c1.078,1.236,5.31,6.528,5.688,8.886,0,0-.924,1.545-1.168,1.592a1.939,1.939,0,0,1-1.878-.2c-.961-.627-3.431-4.383-3.842-5.205S-279.552,115.031-279.552,115.031Z" transform="translate(302.104 -102.687)"/><path class="y" d="M-280.844,113.513c1.19-.387,3.834,4.8,5.09,6.1.359.37-4.028,3.248-4.028,3.248l-1.863-2.166Z" transform="translate(302.044 -102.799)"/><path class="ac" d="M-275.506,121.8c-1.6.074-6.006,1.406-7.1,1.2-1.5-.283-1.584-.56-1.931-.542-.418.018-.613.121-1.137.606-.747.7-1.083,1.566-.832,1.793.087.081.349-.268.609-.607a1.423,1.423,0,0,1,.7-.561,7.976,7.976,0,0,1-.822.892c-.383.357-.443.661-.318.772.258.235,1.622-.856,1.622-.856s-1.487,1.065-1.277,1.225c.431.321,1.648-.51,1.648-.51s-1.4.632-1.281.8c.182.27,1,.032,1.5-.247s1.37.413,2.29-.083c1.417-.762,6.966.619,8.085-.96C-272.2,122.537-275.506,121.8-275.506,121.8Z" transform="translate(301.686 -102.198)"/></g><g transform="translate(-309.029 126.545)"><g transform="translate(2.859 1.341)"><rect class="af" width="111.226" height="36.036" transform="translate(0.191 0.538)"/><rect class="ag" width="102.216" height="29.695" transform="translate(4.696 3.34)"/><rect class="af" width="98.113" height="25.385" transform="translate(6.747 6.148)"/><g transform="translate(13.357 6.152)"><rect class="ah" width="1.126" height="25.422"/><rect class="ah" width="1.549" height="25.422" transform="translate(10.053)"/><rect class="ah" width="1.127" height="25.422" transform="translate(29.236)"/><rect class="ah" width="1.127" height="25.422" transform="translate(48.466)"/><rect class="ah" width="0.916" height="25.422" transform="translate(57.602)"/><rect class="ah" width="1.126" height="25.422" transform="translate(74.843)"/><rect class="ah" width="0.916" height="25.422" transform="translate(83.979)"/><rect class="ah" width="1.488" height="25.422" transform="translate(66.953)"/><rect class="ah" width="1.549" height="25.422" transform="translate(39.29)"/><rect class="ah" width="0.678" height="25.422" transform="translate(20.429)"/></g><path class="k" d="M-192.669,126.4c.78,0-19.75,17.672-19.75,17.672l-93.814.389-.13-18.235Z" transform="translate(306.363 -126.226)"/></g><rect class="m" width="117.246" height="2.165"/></g><g transform="translate(-268.991 121.804)"><g transform="translate(7.428 5.863)"><path class="z" d="M-259.221,127.477a4.689,4.689,0,0,0,.6,2.829c.143.339-.343,1.133.133,1.524.16.129,1.532,1.271,1.473,1.471-.373,1.26-2.9,2.3-3.161,2.3-.52-.017-4.289-3.9-4.289-3.9s1.057-.351,1.332-5.506C-263.088,125.428-259.221,127.477-259.221,127.477Z" transform="translate(264.787 -126.022)"/><g transform="translate(0 0.809)"><path class="ai" d="M-261.282,127.419h.026l1.7.166a21.884,21.884,0,0,0,1.14,3.025c-.457.617-3.505,3.342-4.333,3.3-.685-.029-1.6-1.465-2.015-1.948,1.56-1.17,1.635-5.027,1.642-5.192Z" transform="translate(264.765 -126.776)"/></g></g><path class="ab" d="M-254.125,141.117c.02-.682.6-6.466.6-6.466s.006-1.834-.444-1.941c-1.608-.385-3.409-1.021-3.409-1.021s-1.256,3.423-2,3.185c-1.174-.379-5.49-3.638-5.49-3.638s-1.481.755-3.466,1.566c-.284.117.916,4.86.857,6.571a34.984,34.984,0,0,1,0,5.475c-.172,1.114,6.282,6.925,6.282,6.925s7.6-3.458,7.614-4.34C-253.556,145.932-254.245,145.027-254.125,141.117Z" transform="translate(271.931 -119.781)"/><g transform="translate(7.881 0.419)"><path class="e" d="M-264.258,124.664a8.089,8.089,0,0,0,.333,3.047c.065.117-.276,1.189-.4,1.124s.6-.093.862-.283A10.076,10.076,0,0,0-262.4,125.6,10.663,10.663,0,0,0-264.258,124.664Z" transform="translate(264.342 -120.676)"/><g transform="translate(0.044)"><path class="z" d="M-262.834,125.713c.221-1.895.03-3.766,2.944-3.469,3.647.372,3.118,2.418,2.931,4.74s-1.412,4.955-3.234,4.57a3.48,3.48,0,0,1-3.054-3.429,1.829,1.829,0,0,1-.58-1.495C-263.8,125.873-263.459,125.255-262.834,125.713Z" transform="translate(264.335 -120.853)"/><path class="ac" d="M-261.049,125.322c-.464,2.344-.5,5.707.788,6.146,1.566.335,2.314-1.2,2.962-2.739a8.6,8.6,0,0,0,.606-4.668c-.263-.906-.6-1.387-1.253-1.569A3.363,3.363,0,0,0-261.049,125.322Z" transform="translate(264.515 -120.833)"/><path class="e" d="M-259.117,122.3l-.046-.179s-.7-.54-.56-.523c.08.011.395-.2.513.21l-.263-.69,1.68.785a1.011,1.011,0,0,1,.655.251c.255.252.45.454.45.454s-.092.27-.089-.129c.372.169.5,1.112.408,1.779.007.2.005.428-.008.673a8.394,8.394,0,0,1-.435,2.054l-.207.09s.708-2.294-.1-3.1-3.027-.5-3.027-.5Z" transform="translate(264.601 -120.932)"/><path class="e" d="M-263.8,122.982c.381-.544.909-1.353,1.383-1.5.288-.433,1.809-.222,3.431-.542,0,0-1.439.3-1.509.663h.012a6.286,6.286,0,0,1,2.466-.521c-.772.905-.539.258-.448.713.045,0-.083.028-.039.027,0-.438.547-.784.894-.825-.218.557.463.619.823,1.319.48.611.76,1.673.115,2.02-1.491.8-2.43-.187-3.3-.266a1.681,1.681,0,0,0-1.508.59,11.118,11.118,0,0,0-.687,2.2l-.5-.436-.261-.864-1.3.327A4.612,4.612,0,0,1-263.8,122.982Z" transform="translate(264.301 -120.945)"/></g><path class="e" d="M-256.3,126.785c-.137-.168-1.47-.12-1.678-.339s-.7-.165-.943-.143c-.271.062-1.507-.436-1.827-.412-.342-.1-2.341-.543-2.341-.543l.191.3,1.965.609c-.056.419,0,1.072.316,1.2.5.2,1.236.346,1.465-.094.184-.364.406-.782.406-.782h0a.584.584,0,0,1,.6.12,3.5,3.5,0,0,0,.024.837c.075.415.721.57,1.2.524S-256.16,126.95-256.3,126.785Zm-3,.456c-.151.309-.89.2-1.175.028s-.143-1.009-.055-1.072,1.337.346,1.47.332A3.012,3.012,0,0,1-259.3,127.241Zm2.47.629c-.325.093-1,0-1.09-.414a1.391,1.391,0,0,1,0-.687c.129.048,1.394.159,1.463.242S-256.513,127.777-256.835,127.87Z" transform="translate(264.433 -120.626)"/></g><path class="aj" d="M-255,132.611c1.531-.271,2.237,4.792,3.048,7.139.784,2.262,1.379,4.418.611,5.184a12.036,12.036,0,0,1-3.707,2.161c-.781.061-1.666-3.127-1.666-3.127a18.292,18.292,0,0,0,2.343-1.146c.1-.473-.736-2.193-.677-3.037S-255,132.611-255,132.611Z" transform="translate(272.775 -119.683)"/><path d="M-238.031,124.384c.11.692-.219,3.28-.18,3.412s.144.609.273.544-.824.65-1.083.456a12.841,12.841,0,0,1-.9-3.485A10.814,10.814,0,0,1-238.031,124.384Z" transform="translate(273.989 -120.277)"/><g transform="translate(27.632)"><g transform="translate(2.691 7.152)"><path class="z" d="M-243.382,129.74c.36.94,1.4,2.6.14,3.268-.817.435,1.5,4.255,2.02,4.17s4.381-5.434,4.381-5.434-1.819-3.574-2-4.328S-243.382,129.74-243.382,129.74Z" transform="translate(243.414 -127.219)"/><g transform="translate(0.23)"><path class="ak" d="M-240.661,128.1h0l-.013,0-.012,0h0l-1.688.384c.023.139-.854,1.455-.826,2.029.536.562,4.295,3.477,5.121,3.336.685-.117.741-1.1,1.1-1.642-.207-.68-1.884-4.831-1.912-4.993Z" transform="translate(243.2 -127.224)"/></g></g><path class="z" d="M-239.111,125.434c-.2-1.924.012-3.823-2.947-3.555a5.846,5.846,0,0,0-1.624.351,4.489,4.489,0,0,0-.533-.1c-.667.18-1.01.663-1.285,1.58a8.684,8.684,0,0,0,.558,4.739c.5,1.232,1.071,2.444,2.06,2.761a1.65,1.65,0,0,0,1.026.122,3.54,3.54,0,0,0,3.139-3.448,1.839,1.839,0,0,0,.6-1.506C-238.13,125.605-238.473,124.976-239.111,125.434Z" transform="translate(245.943 -120.46)"/><path class="al" d="M-243.09,121.923l.05-.182s.721-.538.574-.522c-.084.01-.4-.2-.523.209l.272-.7-1.714.775a1.006,1.006,0,0,0-.663.248c-.265.252-.464.453-.464.453s.092.279.092-.127c-.381.171-.521,1.121-.433,1.8a6.633,6.633,0,0,0,0,.684,8.557,8.557,0,0,0,.415,2.089l.209.1s-.693-2.337.14-3.141,3.074-.476,3.074-.476Z" transform="translate(245.924 -120.541)"/><path d="M-238.066,122.676c-.376-.558-.9-1.383-1.382-1.535-.286-.442-1.836-.247-3.474-.588,0,0,1.454.323,1.523.688h-.011a6.418,6.418,0,0,0-2.5-.557c.78.93.549.268.453.73-.046-.005.08.029.035.029,0-.444-.544-.8-.9-.847.221.564-.477.62-.846,1.326-.5.613-.789,1.688-.139,2.046,1.5.831,2.464-.16,3.353-.231a1.7,1.7,0,0,1,1.52.614,11.288,11.288,0,0,1,.677,2.244l.516-.441.468-.848,1.118.326A4.649,4.649,0,0,0-238.066,122.676Z" transform="translate(245.941 -120.554)"/></g><path class="f" d="M-237.139,130.99l-1.656,13.665-2.807,1.707-2.47-13.12.118-.584.969-.757s1.1,3.19,1.811,3.158C-239.279,134.973-237.139,130.99-237.139,130.99Z" transform="translate(273.69 -119.799)"/><g transform="translate(34.785 10.197)"><path class="ad" d="M-237.62,152.7s10.169,1.835,9.882.711c-.794-3.112-3.671-8.09-3.9-9.211a54.4,54.4,0,0,1-.086-6.971s.295-4.625-1.706-5.306a25.477,25.477,0,0,1-4.135-1.862,18.638,18.638,0,0,1-.325,3.888c-.358,1.146-.883,8.237-1.313,8.91C-239.581,143.751-237.62,152.7-237.62,152.7Z" transform="translate(239.253 -130.063)"/></g><path class="ad" d="M-240.229,149.6l-1.465-5.215a41.255,41.255,0,0,0-1.255-9.723l-.1-2.892c-.924.523-1.9,1.225-3.5,2.306-.391.264.693.787.693.787s.815,5.716.809,6.405c-.024,2.323,2.388,8.119,1.992,10.605Z" transform="translate(273.504 -119.743)"/><path class="am" d="M-268.1,132.7c-1.372.093-1.738,3.265-2.045,4.3s-2.667,8.094-.9,8.644,6.632,1.849,6.632,1.849l1.206-4.146s-4.113-.122-4.113-1.039.865-2.8.865-3.29A16.638,16.638,0,0,0-268.1,132.7Z" transform="translate(271.692 -119.676)"/><path class="al" d="M-232.872,132.221c1.8-.415,3.433,7.207.8,12.06a2.153,2.153,0,0,1-2.021,1.326c-.741-.059-7.266-.254-7.266-.254s-.073-2.645-.19-3.286,6.284-.96,6.284-.96-.018-2.319-.03-2.627C-235.514,132.967-233.7,132.412-232.872,132.221Z" transform="translate(273.872 -119.711)"/><path class="am" d="M-264.837,130.468c.869,1.472,4.964,3.551,5.362,4.461-.855-.131-6.573-3.118-7.44-2.773S-264.837,130.468-264.837,130.468Z" transform="translate(272.026 -119.837)"/><path class="an" d="M-259.988,134.879c.259-.865,2.09-2.36,1.7-3.725a3.6,3.6,0,0,1,1.818.975,10.1,10.1,0,0,1-2.014,2.121A2.921,2.921,0,0,1-259.988,134.879Z" transform="translate(272.538 -119.787)"/><path class="ao" d="M.941,0h15.3a.943.943,0,0,1,.943.943v9.738a.944.944,0,0,1-.944.944H.941A.941.941,0,0,1,0,10.684V.941A.941.941,0,0,1,.941,0Z" transform="translate(12.55 14.08)"/><g transform="translate(28.174 21.37)"><path class="ac" d="M-239.273,143.19c.177-.348-.447-1.131-.749-1.812a10.929,10.929,0,0,0-3.49-.9,4.651,4.651,0,0,0-1.294.335c-.535.166-.563.491-.014.487a4.034,4.034,0,0,0,.959-.151l.786.1s-.633,0-.8.009-1.013.275-1.243.309c-.322.049-.473.424.034.459a6.452,6.452,0,0,0,1.062-.077c.368-.01,1.009.034,1.009.034a8.36,8.36,0,0,0-2.09.209c-.27.176-.139.538.409.431a4.052,4.052,0,0,1,1.693-.016l-1.384.034s-.48.292.19.357a29.845,29.845,0,0,0,3.555.435C-240.189,143.338-239.4,143.441-239.273,143.19Z" transform="translate(245.418 -140.482)"/></g><g transform="translate(7.077 23.286)"><path class="z" d="M-265.076,144.3c-.122-.325.5-.962.831-1.536a9.585,9.585,0,0,1,3.171-.476,4.066,4.066,0,0,1,1.116.413c.458.2.453.486-.033.431a3.665,3.665,0,0,1-.834-.219l-.7.012s.562.059.711.078.872.337,1.071.388c.284.073.383.418-.07.4a5.821,5.821,0,0,1-.934-.164c-.325-.043-.9-.061-.9-.061a7.489,7.489,0,0,1,1.834.373c.223.182.074.492-.4.344a3.635,3.635,0,0,0-1.5-.165l1.222.157s.4.3-.2.3a26.006,26.006,0,0,1-3.189.064C-264.278,144.514-264.985,144.534-265.076,144.3Z" transform="translate(265.092 -142.269)"/></g></g><g transform="translate(-309.029 147.335)"><g transform="translate(2.859 1.341)"><rect class="af" width="111.226" height="36.035" transform="translate(0.191 0.538)"/><rect class="ag" width="102.216" height="29.698" transform="translate(4.696 3.337)"/><rect class="af" width="98.113" height="25.385" transform="translate(6.747 6.147)"/><g transform="translate(13.357 6.152)"><rect class="ah" width="1.126" height="25.421"/><rect class="ah" width="1.549" height="25.421" transform="translate(10.053)"/><rect class="ah" width="1.127" height="25.421" transform="translate(29.236)"/><rect class="ah" width="1.127" height="25.421" transform="translate(48.466)"/><rect class="ah" width="0.916" height="25.421" transform="translate(57.602)"/><rect class="ah" width="1.126" height="25.421" transform="translate(74.843)"/><rect class="ah" width="0.916" height="25.421" transform="translate(83.979)"/><rect class="ah" width="1.488" height="25.421" transform="translate(66.953)"/><rect class="ah" width="1.549" height="25.421" transform="translate(39.29)"/><rect class="ah" width="0.678" height="25.421" transform="translate(20.429)"/></g><path class="ap" d="M-192.669,145.788c.78,0-19.75,17.671-19.75,17.671l-93.814.39-.13-18.235Z" transform="translate(306.363 -145.614)"/></g><rect class="m" width="117.246" height="2.164"/></g><g transform="translate(-258.519 147.759)"><path class="aq" d="M-247.459,150.965l.811,6.919-9.892.533,1.544-9.765,5.225-.6Z" transform="translate(262.316 -144.52)"/><path class="ac" d="M-246.628,157.524a4.27,4.27,0,0,1-2.663-1.911c-.172-1-.395-2.334-.395-2.588h-2.645c0,.079-.817.208-.817.208.227,3.969-2.85,4.3-3.586,4.611-.786.138,3.384,5.806,3.871,5.781C-245.612,163.284-245.885,157.66-246.628,157.524Z" transform="translate(262.295 -144.161)"/><g class="c" transform="translate(5.432 8.088)"><path class="ar" d="M-251.706,152.3h.031l1.842.1c0,.149.148,1.378.221,1.984a13.693,13.693,0,0,1-5.706,5.948c-1.1.558-1.068-2.236-1.542-2.739,1.114-.2,2.759-.814,3.213-1.714a9.033,9.033,0,0,0,.442-3.345Z" transform="translate(256.86 -152.301)"/></g><path class="z" d="M-258.775,160.538c-.645,1.517-3.579,9.026-3.059,9.515s1.932.3,1.932.3l.766-1.517s2.566-5.533,2.454-6.64S-258.775,160.538-258.775,160.538Z" transform="translate(261.928 -143.617)"/><path class="ac" d="M-244.932,159.024c.789,1.447,4.623,9.456,4.154,9.993a7.03,7.03,0,0,1-1.22,1.031l-1.509-1.7s-3.2-5.5-3.2-6.612S-244.932,159.024-244.932,159.024Z" transform="translate(263.027 -143.727)"/><g transform="translate(0.017 13.286)"><path class="as" d="M-245.2,181.078c.265-2.5-1.67-15.636-1.67-15.636,2.029-1.529-.021-6.42-.021-6.42a11.27,11.27,0,0,1-4.295.868c-.366,0-3.29-.182-4.89-1.689-.222-.211-1.118,3.676-.276,7a15.26,15.26,0,0,1-.333,5.116c-1.066,5.279-1.583,7.715-1.676,11.005-.131,4.731-.547,8.774-.729,12.7.653,1.038,12.518.824,14.011.275C-244.173,193.966-245.464,183.58-245.2,181.078Z" transform="translate(262.114 -157.072)"/><path class="am" d="M-246.4,163.846a28.184,28.184,0,0,0,.73,7.678c.568,2.273,1.374,6.726,1.918,10.327.273,1.806,1.586,10.721,2.2,11.7a24.5,24.5,0,0,1-5.3.915c-.151.015.373-13.026-.73-22.971a61.708,61.708,0,0,1-.366-7.065,8,8,0,0,0-.777-5.011l1.591-.952A14.789,14.789,0,0,1-246.4,163.846Z" transform="translate(262.863 -157.053)"/><path class="as" d="M-258.168,167.389c-3.119.389-3.87,1.38-3.725,1,1.3-3.443,3.033-9.4,4.127-10.3a3.83,3.83,0,0,1,2.289-.934s-.249,3.754-.224,4.015S-258.168,167.389-258.168,167.389Z" transform="translate(261.91 -157.148)"/></g><path class="am" d="M-246.173,156.757c.233-.64,1.705,2.111,2.614,4.255.752,1.77,2.989,7.147,2.989,7.147l-3.985-1.084-2.472-5.384-.686-2.559A16.307,16.307,0,0,0-246.173,156.757Z" transform="translate(262.954 -143.898)"/><path class="ac" d="M-243.642,166.58a27.942,27.942,0,0,1-5.246.542c-.528-.136-1.029-.392-1.556-.528a5.894,5.894,0,0,0-1.57-.009s-.47.148.088.327c.234.073.473.123.644.2a3.529,3.529,0,0,1-1.262.327c-.314-.081-.171-.161-.339-.135-.43.064-.268.624.021.81s.316.78.966,1.306c.715.586,1.8.1,2.649-.13s6.446.6,8.4-.472Z" transform="translate(262.561 -143.184)"/><path class="z" d="M-258.427,167.037a27.454,27.454,0,0,0,5.144-.009c.49-.182.947-.48,1.441-.664a5.758,5.758,0,0,1,1.507-.168s.466.1-.05.321c-.218.1-.443.171-.6.255a3.4,3.4,0,0,0,1.247.189c.3-.109.15-.174.316-.167.419.018.321.576.06.783s-.224.783-.8,1.358c-.628.629-1.725.279-2.561.142s-7.218,1.269-9.2.438Z" transform="translate(261.926 -143.208)"/><g transform="translate(7.236 0.513)"><g transform="translate(0 0.35)"><path class="ac" d="M-255.108,150.9c.335,2.58,2.427,4.782,3.671,4.782,1.393,0,3.174-1.414,3.714-4.715.44-2.713-.248-5.407-3.646-5.407C-254.555,145.563-255.457,148.193-255.108,150.9Z" transform="translate(255.179 -145.563)"/></g><g transform="translate(5.042)"><path class="at" d="M-249.722,147.8c3.57,8.717,1.4,19.914,1.4,19.914s2.558-1.063,2.817-7.04a49.57,49.57,0,0,0-.425-6.8c-.124-1.006-1.3-8.782-4.281-8.629C-251.022,145.28-249.722,147.8-249.722,147.8Z" transform="translate(250.476 -145.237)"/></g></g><path class="aq" d="M-253.586,150.22c.88-1.446,3.042-.142,4.5-2.359a25.126,25.126,0,0,0-.518-2.5c-.915-1.036-3.607-.606-4.579.271-3.886,3.513-3.019,15.985-2.242,18.171.893,2.519,3,4.709,4.222,4.222a15.836,15.836,0,0,1-2.193-4.789c.65,1.788,1.462,3.247,1.868,3.247-.806-1.21-1.615-10.98-1.737-11.372C-254.31,154.308-254.644,151.952-253.586,150.22Z" transform="translate(262.275 -144.759)"/></g><g transform="translate(-295.681 146.962)"><path class="au" d="M-276.507,157.72c-.432-1,.488-1.678-1.948-2.263-3.125-.751-5.629-1.3-6.919.411s-1.527,3.51,2.5,3.942,4.592.868,5.544-.821S-276.507,157.72-276.507,157.72Z" transform="translate(297.332 -143.239)"/><g transform="translate(11.877)"><path class="ac" d="M-275.368,159.773l-2.518-3.007-.45-4.511-4.527-.22a6.76,6.76,0,0,1-.759,3.522c-.177.557-1.687.974-1.729,1.4-.065.653,2.393,4.48,4.123,5.177C-278.326,162.191-275.368,159.773-275.368,159.773Z" transform="translate(285.517 -143.435)"/><path class="av" d="M-283.523,155.546a7.73,7.73,0,0,0,.617-4.537c-.285-.9,4.122,3.66,5.231,4.548l-4.537,5.3c-.709-.293-3.06-3.592-3.293-3.913C-284.79,156.565-283.78,156.176-283.523,155.546Z" transform="translate(285.506 -143.518)"/><path class="ac" d="M-275.743,150.4c-.055-.005.1-.222.045-.219.114-1.937-.172-3.424-2.39-3.846-.019,0-.014.02,0,.068a6.9,6.9,0,0,0-1.144-.176c-3.094-.222-4.167,1.556-4.35,3.715-.566.029-.31.578-.317,1.44-.008.659.09,1.32.483,1.568.4,1.972,1.989,3.742,3.487,3.819.117,0,.465.019.535.025,1.457.074,2.322-1.45,2.994-3.3.331-.063.593-.552.919-1.364S-275.142,150.484-275.743,150.4Z" transform="translate(285.618 -143.856)"/><g transform="translate(1.524)"><path class="aw" d="M-278.108,146.261l-.048-.212s-.213-1.24-.057-1.217a1.992,1.992,0,0,1,1.278.7l.16-.212s.332.395.61.692.5.534.5.534-.105.321-.1-.149c.41.2.548,1.306.439,2.1.005.24.008.506-.012.8-.065,1.19-.346,1.464-.346,1.464l-.253.121-.394.212.246-1.066a1.567,1.567,0,0,0-.618-1.777,5.234,5.234,0,0,0-2.551-.589Z" transform="translate(284.435 -143.956)"/><path class="ad" d="M-283.661,146.636a2.522,2.522,0,0,1,2.11-1.621c.323-.517,1.69-.416,1.769-.32.043.062-.84.468-.842.81a4.158,4.158,0,0,1,1.7-1.187,4.655,4.655,0,0,0-.485,1.114s-.186.072-.179.071c.152-.683,1.331-1.5,1.3-1.257-.024.2-.7.669-.608,1.209.049,0-.051,0,0,0a1.985,1.985,0,0,1,1.45-1.439c-.244.658-.372,1.139.766,2.383.005.015.641,1.714-.6,1.717-.389,0-1.937-.376-2.907-.46a5.086,5.086,0,0,0-2.016.813,10.382,10.382,0,0,0-.747,1.806l-.659-.153-.418.175A8.653,8.653,0,0,1-283.661,146.636Z" transform="translate(284.085 -144.015)"/></g></g><path class="v" d="M-277.472,155.914c1,1-1.365,3.238-2.339,3.292-2.939.163-.45,4.126-.239,5.636.454,3.166.653,12.26.7,13.21,3.291-.065,4.389-1.047,4.363-1.544a74.693,74.693,0,0,1,.909-10c.47-1.738,1.889-7.668.975-8.252C-274.233,157.527-277.472,155.914-277.472,155.914Z" transform="translate(297.692 -143.154)"/><path class="u" d="M-278.241,178.11c.361-.076-.473-4.829-.549-14.331-.027-3.492-.316-3.774-.534-4.6,0,0-5.392.909-4.7-4.159-1.992.952-5.425.531-6.952,3.292.19,2.49,2.43,5.491,1.907,6.279.359,4.725-.028,10.268.133,10.772A12.057,12.057,0,0,0-278.241,178.11Z" transform="translate(296.987 -143.219)"/><g transform="translate(0 13.538)"><path class="v" d="M-288.733,165.568c.693-3.726-.284-6.362-1.039-7.1-.507-.5-1.126,1-1.971,2.536-1.633,2.985-6.7,9.443-1.738,9.009,1.494-.31,1.158-.506,1.412-1.279C-291.638,167.931-288.933,166.642-288.733,165.568Z" transform="translate(296.652 -156.514)"/><path class="au" d="M-290.494,167.323c-.338-1.067-.332-2.419-1-2.377s.657,1.31.657,1.31a8.777,8.777,0,0,0-1.941-.78c-.676-.1,1.1,1.232,1.1,1.232Z" transform="translate(296.846 -156.039)"/><path class="u" d="M-288.815,156.642c-.459.127-1.392-.291-3.068,2.53-1.084,1.823-4.945,7.376-4.686,11.189.114,1.644,2.584,1.366,3.986.432s-.639-2.79-.639-2.79a19.2,19.2,0,0,1,5.837-9.088S-288.491,156.548-288.815,156.642Z" transform="translate(296.582 -156.639)"/></g><g transform="translate(23.72 15.031)"><path class="u" d="M-274.433,165.289c-.13-3.314.19-4.426.845-5.068.441-.434,2.14.858,2.875,2.2,1.417,2.59,5.2,8.382.893,8.005-1.3-.269-1.4-.368-1.625-1.039C-271.819,168.689-274.4,166.234-274.433,165.289Z" transform="translate(274.462 -157.88)"/><path class="v" d="M-273.915,158.034c.4.114,1.079.345,2.534,2.793.942,1.584,4.058,6.7,3.833,10-.1,1.426-1.161.935-2.377.124s.555-2.421.555-2.421a52,52,0,0,0-5.066-7.888S-274.2,157.953-273.915,158.034Z" transform="translate(274.463 -158.032)"/></g><path class="ac" d="M-270.051,166.555c-1.663-.062-4.816.464-5.934.159-1.526-.419-1.595-.716-1.956-.728-.434-.016-.644.072-1.23.531-.834.658-1.256,1.529-1.014,1.785.081.093.383-.248.681-.576a1.472,1.472,0,0,1,.77-.52,8.321,8.321,0,0,1-.93.853c-.427.338-.515.646-.4.773.249.267,1.757-.745,1.757-.745s-1.634.975-1.428,1.158c.418.367,1.75-.388,1.75-.388s-1.5.535-1.4.722c.164.3,1.032.118,1.573-.128s1.385.547,2.381.113c1.535-.67,5.9,1.713,7.192.176C-266.431,167.6-270.051,166.555-270.051,166.555Z" transform="translate(297.763 -142.426)"/><g transform="translate(11.039 20.384)"><g transform="translate(0.027 0.217)"><g transform="translate(0 0.55)"><path class="f" d="M-286.1,163.739a.824.824,0,0,0-.162.328.565.565,0,0,0,.142.4,6.632,6.632,0,0,0,1.438,1.566c.059.029.1-.02.091-.074s-.187-.434-.24-.436a.483.483,0,0,1-.214-.012,9.605,9.605,0,0,1-.768-1.137c-.022-.064.045-.1.093-.12A3.193,3.193,0,0,1-286.1,163.739Z" transform="translate(286.263 -163.739)"/></g><path d="M-281.318,169.637s.041.173.012.194-.184-.077-.184-.077Z" transform="translate(286.608 -162.762)"/><path class="f" d="M-281.273,169.693a4.515,4.515,0,0,0-.375-.8l-.426.308a5.3,5.3,0,0,0,.633.618C-281.343,169.746-281.284,169.7-281.273,169.693Z" transform="translate(286.566 -162.816)"/><path class="ax" d="M-281.468,169.141c-.113-.252-2.278-3.464-2.278-3.464l-.712.509s2.37,3.069,2.568,3.257C-281.631,169.267-281.51,169.172-281.468,169.141Z" transform="translate(286.393 -163.049)"/><path class="ax" d="M-284.046,166.007l.107-.059-.015-.019.256-.2c-.015-.023-1.682-2.4-1.788-2.5-.169.113-.288.2-.36.254s-.192.137-.357.258c.057.131,1.765,2.449,1.781,2.472l.269-.146.013.02Z" transform="translate(286.267 -163.225)"/><g transform="translate(0.435)"><path class="ay" d="M-283.771,165.677l-.339.243,2.41,3.372c.116-.08.178-.133.207-.152C-281.606,168.889-283.771,165.677-283.771,165.677Z" transform="translate(285.983 -163.049)"/><path class="ay" d="M-283.978,165.929l.256-.2c-.015-.023-1.688-2.413-1.8-2.507-.157.119-.244.181-.34.251l1.8,2.523.091-.051Z" transform="translate(285.857 -163.226)"/></g><g transform="translate(1.753 2.431)"><path class="f" d="M-283.677,165.677l-.13-.177c0-.011-.014-.008-.023,0l-.8.578.146.2.8-.578A.025.025,0,0,0-283.677,165.677Z" transform="translate(284.628 -165.493)"/></g></g><path class="f" d="M-286.1,163.1a.483.483,0,0,0-.058.72l.673-.588A.452.452,0,0,0-286.1,163.1Z" transform="translate(286.288 -163.024)"/></g><path class="ac" d="M-292.408,166.28c1.662-.062,6.346.938,7.465.634,1.525-.42,1.594-.716,1.955-.727.436-.018.646.071,1.23.53.835.657,1.258,1.53,1.016,1.787-.083.092-.383-.25-.683-.578a1.478,1.478,0,0,0-.769-.519,8.32,8.32,0,0,0,.93.853c.428.338.516.647.4.773-.249.266-1.757-.746-1.757-.746s1.634.976,1.428,1.159c-.418.368-1.75-.389-1.75-.389s1.5.536,1.4.723c-.165.295-1.032.118-1.574-.128s-1.384.547-2.381.114c-1.533-.671-7.166,1.235-8.461-.3C-295.769,167.329-292.408,166.28-292.408,166.28Z" transform="translate(296.732 -142.411)"/></g><path class="z" d="M-231.807,158.7c-1.256,1.991-4.2,9.484-3.378,11,1.5,2.773,3.594-1.6,4.634-3.247S-231.807,158.7-231.807,158.7Z" transform="translate(5.331 4.009)"/><g transform="translate(-230.232 145.085)"><g transform="translate(8.191)"><g transform="translate(1.805 6.7)"><g transform="translate(0.324 0.353)"><path class="z" d="M-225.209,149.557l-.715,6.067s1.281,3.552,2.909,3.8,3.884-2.21,3.644-3.251-1.421-7.336-1.421-7.336Z" transform="translate(225.924 -148.841)"/><g transform="translate(2.62 0.026)"><path class="ac" d="M-219.3,156.444c-.242-1.039-1.526-7.579-1.526-7.579l-2.652.328.565,11.639C-221.3,161.035-219.068,157.481-219.3,156.444Z" transform="translate(223.481 -148.865)"/></g></g><g class="c"><path class="az" d="M-226.188,148.711c-.533-.833,4.764,1.18,6.11,1.773l-3.216,9.363c-.783-.106-2.293-3.942-2.608-4.2C-225.644,154.972-225.252,150.157-226.188,148.711Z" transform="translate(226.226 -148.512)"/></g></g><path class="ac" d="M-219.57,147.5c-.142-2.074-1.018-3.781-3.992-3.617-3.718.208-3.622,2.312-3.374,4.745.256,2.523,1.988,5.46,3.886,5.393a3.7,3.7,0,0,0,3.225-3.736,1.731,1.731,0,0,0,.694-1.443C-219.127,148.02-219.031,147.538-219.57,147.5Z" transform="translate(227.973 -142.148)"/><g transform="translate(0.278 2.299)"><path class="z" d="M-224.706,144.408c-1.843.424-2.755,1.353-2.563,3.315-.06-.007.137.162.089.169-.628,0-.5.458-.326,1.352.142.718.394,1.377.887,1.479.545,2.411,2.185,3.293,3.587,3.242.065,0,.127-.016.19-.023C-222.843,153.942-224.9,153.93-224.706,144.408Z" transform="translate(227.651 -144.408)"/></g><path class="e" d="M-223.968,142.571a3.175,3.175,0,0,0-3.176,1.261,4.733,4.733,0,0,0-.765,2.822,2.491,2.491,0,0,0,.343,1.495l.444-.088-.108-.661a2.39,2.39,0,0,1,.784-1.827,1.725,1.725,0,0,1,1.122-.3Z" transform="translate(227.91 -142.249)"/><path class="e" d="M-225.716,145.313c.374.4,2.035-.243,3.018-.357a2.414,2.414,0,0,1,2.117.917,5.72,5.72,0,0,1,.318,1.811l.323-.044.7.182a6.29,6.29,0,0,0-.394-3.384c-.544-.936-.73-1.479-1.929-1.745-.547-.119-3.575-1.1-4.065.381A13.471,13.471,0,0,0-225.716,145.313Z" transform="translate(228.068 -142.264)"/></g><path class="ad" d="M-220.916,156.327c-5.193,1.032-4.689-2.255-4.689-2.255a35.189,35.189,0,0,1-5.1,2.717c-.785.313.278,2.478.538,3.008.857,1.726.724,6.427.844,7.038.241,1.212.235,16.082-.01,16.575-.186.379,8.408.368,10.386,0C-218.05,183.511-219.857,156.114-220.916,156.327Z" transform="translate(235.877 -141.41)"/><path class="aw" d="M-222.175,164.845a38.4,38.4,0,0,1-.314-8.316c2.639-.209,2.808-3.172,2.808-3.172a12.13,12.13,0,0,0,4.745,1.861c1.665.28.983.972,1.106,2.065.293,2.7-.505,2.177-.55,5.056-.019,1.237,1.014,14.852,1.537,19.809.124,1.207-6.112,1.533-8.38,1.553C-222.006,183.7-221.6,168.844-222.175,164.845Z" transform="translate(236.486 -141.462)"/><g transform="translate(14.055 15.706)"><path class="ac" d="M-213.227,156.911c-2.1.579-1.344,3.413-1.344,3.413s1.289,6.1,1.543,7.137c-.5.306-5,3.205-5,3.205-1.035-.354-1.2-.607-1.9-.565a22.247,22.247,0,0,0-2.215.411s-.248.36.463.48a4.562,4.562,0,0,0,.9-.008,9.145,9.145,0,0,0-1.532.668c-.248.193.018.5.018.5-.387.55.132.688.132.688-.32.461.171.54.171.54-.1.089-.115.226.159.418a4.77,4.77,0,0,0,1.793.162,3.568,3.568,0,0,0,1.53-.333,5.917,5.917,0,0,1,1.375-.613,24.983,24.983,0,0,0,7.691-3.366C-208.513,166.116-212.245,157.627-213.227,156.911Z" transform="translate(222.441 -156.911)"/></g><g transform="translate(21.403 13.965)"><path class="aw" d="M-214.854,155.446c.062-.67,2.2.868,3.048,2.983s2.6,6.969,2.6,6.969l-3.3.846a41.618,41.618,0,0,1-3-4.934C-215.856,160.227-214.956,156.568-214.854,155.446Z" transform="translate(215.589 -155.287)"/><g transform="translate(0.364 1.388)"><path class="ad" d="M-210.753,165.648c-.723-3.975-3.517-9.756-4.036-9-.458.668-.54,3.9-.395,6.851a15.019,15.019,0,0,0,.95,3.154Z" transform="translate(215.249 -156.581)"/></g></g><path class="ad" d="M-229.86,156.458c-2.571.066-5.4,8.335-5.678,8.9s5.587,2.143,5.587,2.143l1.928-4.308Z" transform="translate(235.548 -141.238)"/><g transform="translate(9.024 22.153)"><g transform="translate(0 0.236)"><g transform="translate(0 0.52)"><path class="ba" d="M-226.95,163.628a.8.8,0,0,0-.178.317.564.564,0,0,0,.122.406,6.544,6.544,0,0,0,1.358,1.634c.056.034.1-.015.094-.07a1.108,1.108,0,0,0-.219-.446.457.457,0,0,1-.213-.025,9.7,9.7,0,0,1-.71-1.171c-.018-.066.05-.1.1-.116A3.264,3.264,0,0,1-226.95,163.628Z" transform="translate(227.133 -163.628)"/></g><path d="M-222.472,169.757s.033.175,0,.192-.181-.086-.181-.086Z" transform="translate(227.457 -162.665)"/><path class="f" d="M-222.428,169.814a4.562,4.562,0,0,0-.335-.82l-.441.285a5.51,5.51,0,0,0,.6.65C-222.5,169.862-222.438,169.824-222.428,169.814Z" transform="translate(227.417 -162.72)"/><path class="bb" d="M-222.6,169.25c-.1-.255-2.1-3.572-2.1-3.572l-.737.473s2.212,3.183,2.4,3.38C-222.765,169.371-222.637,169.281-222.6,169.25Z" transform="translate(227.256 -162.96)"/><path class="bb" d="M-225.012,165.993l.112-.054-.015-.023.266-.18c-.015-.024-1.561-2.481-1.662-2.584-.174.1-.3.182-.372.234s-.2.128-.37.24c.049.136,1.642,2.536,1.656,2.559l.277-.131.013.018Z" transform="translate(227.139 -163.142)"/><g transform="translate(0.468)"><path class="bc" d="M-224.722,165.678l-.352.226,2.239,3.489c.12-.077.184-.125.213-.144C-222.72,168.995-224.722,165.678-224.722,165.678Z" transform="translate(226.813 -162.96)"/><path class="bc" d="M-224.942,165.917l.266-.18c-.015-.024-1.567-2.493-1.669-2.594-.163.113-.254.167-.352.235l1.674,2.61.1-.048Z" transform="translate(226.696 -163.143)"/></g><g transform="translate(1.645 2.516)"><path class="ba" d="M-224.627,165.682l-.12-.184c0-.011-.014-.01-.024,0l-.828.537.136.212.83-.539A.026.026,0,0,0-224.627,165.682Z" transform="translate(225.599 -165.49)"/></g></g><path class="ba" d="M-226.921,162.992a.483.483,0,0,0-.094.715l.7-.552C-226.331,163.126-226.593,162.778-226.921,162.992Z" transform="translate(227.133 -162.923)"/></g><path class="z" d="M-232.883,166.344c1.663-.06,5.826.875,6.946.57,1.526-.42,1.594-.716,1.956-.727.434-.018.644.071,1.229.53.835.657,1.257,1.53,1.016,1.787-.081.092-.383-.25-.681-.578a1.483,1.483,0,0,0-.771-.519,8.282,8.282,0,0,0,.931.853c.428.338.515.647.4.773-.249.266-1.758-.746-1.758-.746s1.635.976,1.429,1.159c-.418.368-1.75-.389-1.75-.389s1.5.536,1.4.723c-.164.295-1.032.118-1.573-.128s-1.385.547-2.381.114c-1.535-.671-7.168,1.235-8.463-.3C-236.762,167.329-232.883,166.344-232.883,166.344Z" transform="translate(235.556 -140.534)"/></g><g transform="translate(-309.012 173.623)"><rect class="af" width="111.226" height="36.036" transform="translate(3.033 1.924)"/><rect class="ag" width="102.216" height="29.696" transform="translate(7.538 4.725)"/><rect class="af" width="98.113" height="25.386" transform="translate(9.589 7.533)"/><g transform="translate(16.199 7.539)"><rect class="ah" width="1.126" height="25.422"/><rect class="ah" width="1.549" height="25.422" transform="translate(10.053)"/><rect class="ah" width="1.127" height="25.422" transform="translate(29.236)"/><rect class="ah" width="1.127" height="25.422" transform="translate(48.466)"/><rect class="ah" width="0.916" height="25.422" transform="translate(57.602)"/><rect class="ah" width="1.126" height="25.422" transform="translate(74.843)"/><rect class="ah" width="0.916" height="25.422" transform="translate(83.979)"/><rect class="ah" width="1.488" height="25.422" transform="translate(66.953)"/><rect class="ah" width="1.549" height="25.422" transform="translate(39.29)"/><rect class="ah" width="0.678" height="25.422" transform="translate(20.429)"/></g><path class="k" d="M-192.669,170.35c.78,0-19.75,17.672-19.75,17.672l-93.814.389-.13-18.321Z" transform="translate(309.205 -168.79)"/><rect class="m" width="117.291" height="2.452"/></g><g transform="translate(-100.619 105.073)"><path class="ac" d="M-102.619,118.723l-2.7-2.1s.458-3.687.458-4.109l2.076.286v-.005l.009.005.01-.005v.005l2.137.029c0,.424.234,5.064.234,5.064l-2.226.832Z" transform="translate(115.355 -104.405)"/><g class="c" transform="translate(10.039 7.651)"><path class="bd" d="M-103.213,112.851v0l.01,0,.014,0v0l1.7.093c0,.136,1.127.427,1.2.988-.428.638-3.463,4.432-4.289,4.432-.685,0-.3-1.249-.735-1.711.09-.693.547-4.4.547-4.565Z" transform="translate(105.316 -112.087)"/></g><g transform="translate(9.023 0.283)"><path class="ac" d="M-105.807,112.007a5.064,5.064,0,0,0,4.26,3.5c2.151.444,2.425-1.745,2.741-5.188.248-2.664-.643-5.1-3.949-5.1C-105.857,105.216-106.985,107.925-105.807,112.007Z" transform="translate(106.264 -105.216)"/></g><path class="q" d="M-105.307,115.259c-2.13.9-3.386,1.14-4.466,1.859s-.752,2.37-.752,2.37,1.283,4.861,1.355,5.083c.149.436-1.053,7.905-.6,16.938.054,1.031,5.911,1.644,7.38,1.354.251-.049.238-9.64.238-9.64l2.471-15.82s-2.4,1.6-5.079-.976Z" transform="translate(114.975 -104.206)"/><path class="r" d="M-100.639,115.363a28.766,28.766,0,0,1,4.917,2.165c.774.464-.819,6.607-.849,6.7-.091.276.679,15.583.935,16.749.222.993-7.86,1.882-7.86,1.882s-.726-25.058,1.081-25.058a1.712,1.712,0,0,0,1.9-1.289Z" transform="translate(115.477 -104.199)"/><g transform="translate(5.649 20.479)"><path class="z" d="M-107.045,124.367a16.158,16.158,0,0,1,1.667-.167c.227-.1,1.145-.109.819.139a4.555,4.555,0,0,1-1.478.358Z" transform="translate(109.581 -124.043)"/><path class="z" d="M-108.908,124.049c.654.176,1.307.663,1.792.436a.824.824,0,0,1,.972.089,3.924,3.924,0,0,0,.968.5c.349.028,1.068-.057.96.173s.117.136-.3.314a2.231,2.231,0,0,1-.869.1c-.176-.01-.3-.027-.3-.027l-.688-.307a9.818,9.818,0,0,1,2.084.392c-.122.135-.11.254-.243.292s-.549.508-.851.455-.9-.117-.9-.117.661.075.975.069.9-.407.825-.2-.055.565-.99.612c-.175.009.879-.07.771.006a3.979,3.979,0,0,1-.988.392,1.763,1.763,0,0,1-1.195-.028c-.209-.081-.24-.163-.821-.392s-1.453-.722-1.659-.787S-108.908,124.049-108.908,124.049Z" transform="translate(109.41 -124.049)"/></g><path class="q" d="M-110,117.521c-.416-.209-1.072.9-1.129,1.691-.059.814-2.989,4.883-3.539,8.377-.261,1.676,4.764,2.427,5.125,2.025s1.263-5.273,1.517-5.188c.6.2-.269-.076-.062-.758.15-.5-.429.932-.316.252S-109.549,117.747-110,117.521Z" transform="translate(114.678 -104.045)"/><g transform="translate(14.195 20.501)"><path class="z" d="M-98.647,124.821a15.57,15.57,0,0,0-1.582-.539c-.2-.147-1.094-.366-.829-.05a4.5,4.5,0,0,0,1.357.682Z" transform="translate(101.464 -124.07)"/><path class="z" d="M-96.565,124.918c-.677.025-1.425.351-1.843.021a.831.831,0,0,0-.969-.134,4.027,4.027,0,0,1-1.054.272c-.347-.055-1.029-.3-.974-.048s-.144.106.218.372a2.2,2.2,0,0,0,.826.3c.174.029.3.042.3.042l.744-.143a9.763,9.763,0,0,0-2.12-.086c.088.159.047.268.171.339s.422.618.727.634.9.091.9.091-.663-.078-.965-.154-.783-.6-.759-.382-.074.562.829.818c.164.049-.844-.267-.754-.168a3.9,3.9,0,0,0,.873.607,1.767,1.767,0,0,0,1.169.242,8.5,8.5,0,0,1,.888-.2c.62-.089,1.58-.375,1.8-.4S-96.565,124.918-96.565,124.918Z" transform="translate(101.44 -124.023)"/></g><path class="r" d="M-96.246,117.395c.418-.208,1.071.9,1.127,1.7.061.812,2.118,2.386,2.668,5.883.263,1.674-2.934,5.3-2.968,5.03-.4-3.331-1.513-4.7-1.769-4.619-.6.2.28-.628.165-1.305S-96.7,117.621-96.246,117.395Z" transform="translate(115.928 -104.054)"/><path class="e" d="M-103.507,105.018c.779-.279,3.944.295,4.549,2.168s-2.311-.356-2.493-.3A15.5,15.5,0,0,1-103.507,105.018Z" transform="translate(115.486 -104.952)"/><path class="e" d="M-105.776,111.149c-.544.97-3.687,4.656-2.538,7.376s3.205,5.441,3.385,7.135c.906-.969.06-4.111-.18-4.414.663,1.089,1.33,2.177,1.207,2.719a4.488,4.488,0,0,0,.122-4.534c-.907-2-1.438-3.143-1.21-4.655.272-1.782.243-1.48.243-1.48Z" transform="translate(115.12 -104.504)"/><path class="ac" d="M-99.592,109.569a6.045,6.045,0,0,0,.771,2.162c.136.272-.486.634-.938.6S-99.592,109.569-99.592,109.569Z" transform="translate(115.746 -104.618)"/><path class="a" d="M-102.323,108.641c-.544.665-1.027,1.943-1.465,1.61-.24-.183-.839-.15-.887.591-.062.981.339,1.222.339,1.222l-.744,1.921a4.611,4.611,0,0,1-1.957-2.469c-.574-1.631-.485-4.724,1.539-5.867,2.087-1.179,4.76-.764,5.758,1.186C-99.478,107.347-102.323,108.641-102.323,108.641Z" transform="translate(115.209 -104.949)"/><path class="e" d="M-99.584,106.789c.212.394,1.276.774.673,1.35s-3.316,1.672-3.107,1.973c0,0-.421-.551-.15-.792-.757.665-1.067,1.738-.612,2.132-.332-.424-1.4-.871-.551-2.471a3.266,3.266,0,0,1,2.617-1.919A3.98,3.98,0,0,0-99.584,106.789Z" transform="translate(115.476 -104.819)"/></g><g transform="translate(-70.692 105.441)"><path class="u" d="M-71.113,116.834c.535-.158,1.711.148,2.474,1.927,1.391,3.247,3.585,5.568,3.459,6.834-.092.92-3.176,1.206-4.008,1.262-.865.68-1.339-2.254-1.339-2.254s-.454-.211.117-.528c.417-.233-1.567-1.319-1.567-1.91S-71.113,116.834-71.113,116.834Z" transform="translate(87.84 -104.463)"/><path class="v" d="M-82.244,116.485c-.534-.16-1.058.4-1.563,1.8-.772,2.12-2.193,3.2-2.954,6.918-.184.905,2.671,2.977,3.5,3.036.462,1.205,1.562-2.194,1.562-2.194s-.617-.328-.677-.8,1-2.835,1-3.425S-82.244,116.485-82.244,116.485Z" transform="translate(86.77 -104.488)"/><path class="be" d="M-79.676,108.9c-.187,1.288-1.87,7.129-3.043,6.807.387.576,1.481.361,1.361.039-.427.75-1.523.24-1.523.24.481.52,1.4,1.562,2.493.017a1.851,1.851,0,0,1-1.064,1.345c.746.106,3.842-.961,4.376-3.2S-79.676,108.9-79.676,108.9Z" transform="translate(87.051 -105.035)"/><path class="z" d="M-76.667,120.522l-2.366-4.457s1.251-4.362,1.251-4.811l1.489-.1h.016l1.44.1c0,.448.651,4.121.651,4.121L-75.805,119Z" transform="translate(87.33 -104.872)"/><path class="bf" d="M-80.139,115.977l1.3-.555.182-.844a3.01,3.01,0,0,0,4.078-.438c.436-.682-.121,1.28.744,1.588a2.1,2.1,0,0,1,1.173,1.175l-.3,17.033s-6.82-.252-7.252-.252S-80.139,115.977-80.139,115.977Z" transform="translate(87.231 -104.666)"/><g transform="translate(7.382 0.163)"><path class="ac" d="M-79.883,110.12c-.06,2.548.666,4.57,1.87,4.758,1.351.2,4.164-1.122,5.276-3.588s.569-5.273-2.718-5.782C-78.542,105.03-79.813,107.446-79.883,110.12Z" transform="translate(79.886 -105.447)"/></g><path class="u" d="M-79,115.124c-1.427.868-3.591,1.379-3.986,1.694,0,0,.674,5.012.833,5.647s1.522,4.738,1.205,5.923-1.852,5.975-1.772,6.444,6.3,1.329,6.3.536-.529-12.014-.529-12.014-.72-4.4-1.072-5.254A31.219,31.219,0,0,1-79,115.124Z" transform="translate(87.043 -104.585)"/><path class="v" d="M-73.162,115.489c1.077.9,2.519,1.056,2.915,1.369,0,0-.98,4.908-1.138,5.54s-1.083,4.221-.769,5.4,1.724,5.787,1.643,6.259-5.444,1.748-5.444.961-.24-12.506-.24-12.506,1.529-5.135,2-5.925A3.173,3.173,0,0,1-73.162,115.489Z" transform="translate(87.535 -104.558)"/><path class="be" d="M-78.021,107.415c-.212-.322-.785-.38-1.255.346a5.572,5.572,0,0,0-.641,2.589,4.044,4.044,0,0,1,.855-3.923c1.1-1.095,3.5-1.412,3.443-.878S-78.021,107.415-78.021,107.415Z" transform="translate(87.251 -105.296)"/><path class="at" d="M-78.163,107.4c.722-.48,2.536.32,2.775,1.121s-.347,1.548.293,2.108.5,1.644.241,2.59c-.534,1.921-.36,2.855.921,3.818s2.163.478,2.924.478c.158,0-1-.118-1.244-.442s-.637-.622-.252-.359c.775.533,2.188.829,2.8.214a1.478,1.478,0,0,1-1.472-1.333c-.851-3.337-.317-5.286-.8-7.208s-3.016-3.228-4.111-2.852A5.381,5.381,0,0,0-78.163,107.4Z" transform="translate(87.393 -105.283)"/><g transform="translate(12.739 19.959)"><path class="ac" d="M-71.556,124.01a2.267,2.267,0,0,0-1.376.016c-.251.045-1.5.084-1.155.331a4.465,4.465,0,0,0,1.661.2Z" transform="translate(74.944 -123.908)"/><path class="ac" d="M-70.031,124.215a2.054,2.054,0,0,1-1.091-.143,1.077,1.077,0,0,0-1.124-.014,4.811,4.811,0,0,1-1.309.4c-.359.033-1.442.1-1.326.33s.3.169.656.178c.272,0,.629.105.894.089.179-.012.307-.031.307-.031l.209.018a8.169,8.169,0,0,0-2.022.084c-.079.217.138.237.272.276a5.146,5.146,0,0,0,1.369.225,2,2,0,0,1,.8.117s-.542-.066-.862-.069-1.059-.245-.981-.034.065.578,1.024.608c.178.006-.9-.056-.79.019a4.122,4.122,0,0,0,1.018.385,1.779,1.779,0,0,0,1.218-.051c.213-.084.244-.172.833-.413a13.3,13.3,0,0,0,1.177-.673C-69.548,125.438-70.031,124.215-70.031,124.215Z" transform="translate(74.89 -123.908)"/></g><g transform="translate(3.14 20.041)"><path class="z" d="M-82.232,124.206c.392-.241.695-.313,1.945-.076.25.048,1.117,0,.822.3s-1.7-.043-1.7-.043Z" transform="translate(83.958 -123.984)"/><path class="z" d="M-83.428,124.268c.4.25.614.063,1.17-.128a1.117,1.117,0,0,1,1.02.092,4.066,4.066,0,0,0,1.052.365c.36-.024,1.184-.135,1.108.113s-.32.2-.712.443c-.232.143-.259.045-.521.071-.179.017-.309.019-.309.019l-.743-.21A10.547,10.547,0,0,1-79,125.09c.063.269-.272.309-.4.367s-.483.594-.8.584-.929.014-.929.014.682-.021,1-.074.848-.542.8-.324.026.582-.913.766c-.175.034.88-.2.782-.107a3.982,3.982,0,0,1-.94.54,1.8,1.8,0,0,1-1.213.147,5.743,5.743,0,0,1-.891-.275,2.434,2.434,0,0,1-1.1-.625A1.588,1.588,0,0,1-83.428,124.268Z" transform="translate(83.842 -123.979)"/></g></g><g transform="translate(-151.337 126.545)"><g transform="translate(2.858 1.341)"><rect class="af" width="111.224" height="36.036" transform="translate(0.193 0.538)"/><rect class="ag" width="102.218" height="29.695" transform="translate(4.696 3.34)"/><rect class="af" width="98.112" height="25.385" transform="translate(6.749 6.148)"/><g transform="translate(13.357 6.152)"><rect class="ah" width="1.127" height="25.422"/><rect class="ah" width="1.548" height="25.422" transform="translate(10.055)"/><rect class="ah" width="1.127" height="25.422" transform="translate(29.236)"/><rect class="ah" width="1.126" height="25.422" transform="translate(48.468)"/><rect class="ah" width="0.915" height="25.422" transform="translate(57.603)"/><rect class="ah" width="1.128" height="25.422" transform="translate(74.843)"/><rect class="ah" width="0.916" height="25.422" transform="translate(83.98)"/><rect class="ah" width="1.488" height="25.422" transform="translate(66.953)"/><rect class="ah" width="1.549" height="25.422" transform="translate(39.29)"/><rect class="ah" width="0.678" height="25.422" transform="translate(20.431)"/></g><path class="k" d="M-45.614,126.4c.779,0-19.751,17.672-19.751,17.672l-93.814.389-.13-18.235Z" transform="translate(159.309 -126.226)"/></g><rect class="m" width="117.245" height="2.165"/></g><g transform="translate(-87.509 125.345)"><path class="bg" d="M-87.544,133.9c-.951-1.17-.779-1.1-1.708-1.384-1.35-.407-4.96-.583-5.458.951-.736,2.268,6.257,5.067,7.166,3.161S-87.544,133.9-87.544,133.9Z" transform="translate(103.009 -123.251)"/><path class="bh" d="M-83.554,136.359c1.04,1.362,1.76,6.084,2.613,6.939,1.4,1.4,1.389,4.162,1.389,4.162l-1.762.533a18.023,18.023,0,0,1-2.16-2.346c-.883-1.2-2-5.524-2.082-6.645S-83.554,136.359-83.554,136.359Z" transform="translate(103.675 -122.952)"/><path class="u" d="M-84.442,134.4c1.107.2,2.691,4.556,3.544,7.011.212.608-3.575,2.88-3.575,2.88l-1.68-4.348Z" transform="translate(103.632 -123.094)"/><path class="bh" d="M-90.681,139.09a31.543,31.543,0,0,0,2.258-3.917l-1.136-4.338-3.971-.079s-.644,4.534-.779,5.636A36.612,36.612,0,0,0-90.681,139.09Z" transform="translate(103.042 -123.358)"/><g class="c" transform="translate(8.539 7.963)"><path class="bi" d="M-89.223,132.128c.36-.733-3.3-1.168-4.362-.551l-.905,5.55c.638-.158.715,1.768.954,1.524C-92.865,138.383-89.861,133.411-89.223,132.128Z" transform="translate(94.49 -131.283)"/></g><g transform="translate(6.868)"><g transform="translate(0.35 0.9)"><path class="bj" d="M-88.218,129.385c-.034-.753-.106-1.283-.589-1.25,0-.021-.008-.046-.011-.069.025-.045.051-.094.025-.088a3.422,3.422,0,0,0-.39-1.194c-.449-.99-1.338-1.565-3.394-1.21-2.585.448-2.956,2.064-2.649,3.786-.46.136-.32.682-.144,1.355.131.523.5.647.872.762,1.412,3.138,3.632,2.642,3.632,2.642a1.609,1.609,0,0,0,.873-.187c1.127-.567,1.159-1.438,1.247-2.523.054-.26.057-.788.079-1.059C-88.312,130.18-88.2,129.966-88.218,129.385Z" transform="translate(95.735 -124.64)"/><path class="bj" d="M-92.777,124.814c.383-.3,2.262.026,2.9.412.553.34.712.826.924,1.732a2.379,2.379,0,0,1,.078,1.262l-.181.054-.047-.559a2,2,0,0,0-1.046-1.264,2.974,2.974,0,0,0-2.319.194Z" transform="translate(95.935 -124.696)"/><path class="bj" d="M-91.807,126.48c-.238.4-.014.352-.877.455a3.087,3.087,0,0,0-2.051,1.136,3.647,3.647,0,0,0-.033,1.237l-.228.025-.594.347a6.492,6.492,0,0,1,.042-2.716,2.192,2.192,0,0,1,1.469-1.655c.443-.2,1.218-.993,1.735-.391A6.494,6.494,0,0,1-91.807,126.48Z" transform="translate(95.722 -124.696)"/></g><path class="bk" d="M-95.585,128.856c2.061-2.161,5.741-2.589,6.971-1.338a4.832,4.832,0,0,0-1.317-3.206c-1-.861-3.581-.326-4.564.18S-96.175,126.677-95.585,128.856Zm2.1-2.477a1.555,1.555,0,0,1,1.488-1.232c1.073-.008,1.248.729,1.248.729Z" transform="translate(96.066 -123.857)"/><g transform="translate(0 0.096)"><path class="ad" d="M-95.164,124.807a7.386,7.386,0,0,1,2.638-.861,3.837,3.837,0,0,1,.552,1.195,1.87,1.87,0,0,0-1.427,1.206l1.829-.331a7.124,7.124,0,0,1,.222.849,7.594,7.594,0,0,0-4.367,2.44C-96.307,127.129-96.1,125.42-95.164,124.807Z" transform="translate(96.048 -123.946)"/></g></g><g transform="translate(3.178 9.477)"><path class="v" d="M-91.449,136.045c2.8.044,3.414-1.944,2.755-3.35a32.622,32.622,0,0,1,5.041,1.937,55.642,55.642,0,0,1-.76,7.268s-.244,6.244-.244,9.461a24.518,24.518,0,0,0,.4,4.421s-8.341,1.19-8.341-.149S-91.449,136.045-91.449,136.045Z" transform="translate(99.988 -132.694)"/><path class="u" d="M-93.7,132.694c-.219,1.574.672,3.228,3.4,3.351.27.8,1.077,2.664.753,7.211-.134,1.873-1.32,8.174-.515,13,0,0-8.7,0-8.979-.972-.1-.353.375-2.638.8-6.64a42.936,42.936,0,0,0,.268-6.908c0-2.546-1.873-6.225-1.468-6.759S-93.7,132.694-93.7,132.694Z" transform="translate(99.49 -132.694)"/><g transform="translate(3.769 6.146)"><path class="bl" d="M-95.975,138.425c.805.6,4.161.832,5.337.832.653,0,5.067-.832,5.067-.832l.2,1.228a20.016,20.016,0,0,1-5.441.948,28.2,28.2,0,0,1-5.162-.545Z" transform="translate(95.975 -138.425)"/><path class="bl" d="M-95.948,140.935a48.216,48.216,0,0,0,5.287.523c2.536-.174,5.153-.751,5.353-.751s-.065,1.275-.065,1.275a40.632,40.632,0,0,1-4.942.739,48.416,48.416,0,0,1-5.562-.434Z" transform="translate(95.977 -138.26)"/></g></g><path class="bh" d="M-99.392,137.4c2.1.124,1.039,2.4,1.039,2.4a15.433,15.433,0,0,1,.324,2.795c.539.183,4.4,1.483,4.4,1.483.911-.534.742-.473,1.407-.575a14.464,14.464,0,0,1,2.3.152s.218.076-.433.324a3.317,3.317,0,0,1-.975.064,6.917,6.917,0,0,1,1.545.159c.271.132.077.469.077.469.475.435.014.668.014.668.387.367-.061.538-.061.538.113.063.154.191-.069.421a4.58,4.58,0,0,1-1.658.505,23.257,23.257,0,0,1-2.4-.472,19.654,19.654,0,0,1-7.255-.815C-102.712,142.4-100.18,138.253-99.392,137.4Z" transform="translate(102.511 -122.877)"/><path class="u" d="M-99.218,134.82c-.642.48-2.434,4.809-3.235,7.959,0,0,4.091-.013,4.679-.065s.927-1.707.927-2.133S-99.218,134.82-99.218,134.82Z" transform="translate(102.453 -123.064)"/></g><g transform="translate(-117.322 128.63)"><path d="M-112.485,138.7a3.17,3.17,0,0,1-1.046,1.4,17.952,17.952,0,0,0-.769-1.759c-.182-.252-1.955-.626-2.075-.779a11.807,11.807,0,0,1-.73-2.43c-.262-1.2,1.381-6.806,2.955-5.34S-112.485,138.7-112.485,138.7Z" transform="translate(131.203 -126.73)"/><path d="M-113.086,132.2l0,0h0l0,0Z" transform="translate(131.496 -126.538)"/><path class="bb" d="M-117.065,134.513a1.89,1.89,0,0,0,.948.483c-.217.432-.634,1.377-.634,1.377s-.873.113-1.131-.158S-117.065,134.513-117.065,134.513Z" transform="translate(131.146 -126.371)"/><path class="w" d="M-119.16,132.321c.154.513,2.165,3.479,2.986,2.351.256-.353,2.086,2.329,2,2.531-.066.156-.822,4.987-3.085,6.016-.78.356-1.127,4.5-1.337,5.089-.975,2.757-2.16.516-6.168,1.234-1.23.222-5.488.364-5.491-.573-.048-12.482,7.844-16.279,7.844-16.279Z" transform="translate(130.254 -126.529)"/><g transform="translate(15.561 7.726)"><path class="z" d="M-113.561,135.65c-.357.536-.509.922-.817,1-.122.583,1.812,4.223,1.6,4.885s-1.586,1.192-1.87.939a27.02,27.02,0,0,1-1.082-5.8c.137-.311.56-1.027.818-1.1A7.217,7.217,0,0,1-113.561,135.65Z" transform="translate(115.743 -134.021)"/><path class="z" d="M-113.451,135.528c.042-.447-.389-1.607-.59-1.372-.122.146.234,1.259.234,1.259s-.332-.915-.532-.824.169,1.216.169,1.216h0c-.167-.025-.121-.759-.392-.766s-.235,1.477-.235,1.477a.563.563,0,0,0,.7-.019A2.683,2.683,0,0,0-113.451,135.528Z" transform="translate(115.811 -134.125)"/><path class="x" d="M-114.819,140.952c.527.108,1.531-.57,1.883-1.326,1.008,1.3,1.754,4.67.114,5.208-.862.287-1.931-.838-2.377-2.211S-114.819,140.952-114.819,140.952Z" transform="translate(115.773 -133.727)"/></g><g transform="translate(12.019 0.865)"><path class="ac" d="M-118.492,130.535c1.062-2.4,2.659-3.349,4.566-2.507s2.3,2.813,1.24,5.214c-.159.354-1.351,3.187-3.4,3.73-.49.132-.863-.227-1.243-.481C-119.06,135.326-119.548,132.933-118.492,130.535Z" transform="translate(119.046 -127.727)"/></g><path class="aw" d="M-113.951,132.4c.447.4.812.787.782,2.389s.5,6-.114,6.674c1.147-.59,1.57-4.181,1.7-5.9s.246-4.868-.921-6.946c-.777-1.382-2.433-1.75-2.944-1.3S-113.951,132.4-113.951,132.4Z" transform="translate(131.319 -126.904)"/><path class="ac" d="M-115.53,135.524a4.227,4.227,0,0,0-2.239,2.25,1.594,1.594,0,0,1-1.692-1.74c.028-.718,1.646-2.5,1.646-2.5Z" transform="translate(131.035 -126.442)"/><path class="ad" d="M-112.618,131.768c-.5,1.548-2.03.612-3.556,2.056-1.142,1.08-3.31,4.574-2.311,6.62-.966-.059-1.7-2.932-1.568-4.538s-.074,3.409.261,3.716c-1.1-.8-1.026-4.713-1.9-5.119-1.036-.484-2.844-.619-3.486-.107.795-.733,4.022-2.511,4.961-4.234,1.373-2.521,4.774-3.915,6.211-2.915S-112.618,131.768-112.618,131.768Z" transform="translate(130.621 -126.92)"/><g transform="translate(2.402 15.319)"><path d="M-121.526,146.419l.181-2.332,11.544-1.4-3.077,1.383Z" transform="translate(128.484 -141.099)"/><path class="f" d="M-113.14,143.86l2.7-1.81-10.428.675,3.706,2.163Z" transform="translate(128.531 -141.144)"/><path class="bm" d="M-113.23,143.822l2-2.32-9.974,1.132,3.706,2.165Z" transform="translate(128.507 -141.184)"/><path class="f" d="M-113.241,144.1l-4.126-2.9-4.242,1.224,3.707,2.164Z" transform="translate(128.477 -141.206)"/><path class="bm" d="M-113.189,144.213l-5.275-3.008-4.917,1.336,5.088,2.323Z" transform="translate(128.349 -141.206)"/><path class="aw" d="M-120.655,146.613l-7.359-2.786,8.754-2.5,6.844,2.864Z" transform="translate(128.014 -141.196)"/></g><g transform="translate(0.091 7.312)"><g transform="translate(0.267 8.412)"><path class="ac" d="M-122.127,141.924c.391-.076.427-.1.8-.189a7.493,7.493,0,0,1,1.209-.152c-.176.36-.578.279-.758.606-.121.222-.018.364.279.632.382.344,1.274.891,1.257,1.085-.023.281-.622-.1-1.076-.332l-.453-.239s1.1.653,1.553,1.008c.263.209-.055.268-.493.159a3.387,3.387,0,0,1-1.207-.635s1.468.731,1.286.91c-.255.255-1.538-.433-1.538-.433s1.031.392.932.549c-.115.179-1.373-.116-1.555-.251a7.452,7.452,0,0,1-1.454-1.094c-.1-.132-4.66,1.485-6.429.714-.574-.252.754-2.65,1.225-2.539S-122.127,141.924-122.127,141.924Z" transform="translate(129.92 -141.583)"/></g><path class="x" d="M-124.5,133.772c-.662.094-5.321,2.908-5.674,11.419,2.307,1.711,4.253-2.818,4.253-2.818s3-4.982,3.093-5.479C-122.823,136.895-121.645,133.358-124.5,133.772Z" transform="translate(130.169 -133.739)"/></g></g><g transform="translate(-151.337 147.335)"><g transform="translate(2.858 1.341)"><rect class="af" width="111.224" height="36.035" transform="translate(0.193 0.538)"/><rect class="ag" width="102.218" height="29.698" transform="translate(4.696 3.337)"/><rect class="af" width="98.112" height="25.385" transform="translate(6.749 6.147)"/><g transform="translate(13.357 6.152)"><rect class="ah" width="1.127" height="25.421"/><rect class="ah" width="1.548" height="25.421" transform="translate(10.055)"/><rect class="ah" width="1.127" height="25.421" transform="translate(29.236)"/><rect class="ah" width="1.126" height="25.421" transform="translate(48.468)"/><rect class="ah" width="0.915" height="25.421" transform="translate(57.603)"/><rect class="ah" width="1.128" height="25.421" transform="translate(74.843)"/><rect class="ah" width="0.916" height="25.421" transform="translate(83.98)"/><rect class="ah" width="1.488" height="25.421" transform="translate(66.953)"/><rect class="ah" width="1.549" height="25.421" transform="translate(39.29)"/><rect class="ah" width="0.678" height="25.421" transform="translate(20.431)"/></g><path class="ap" d="M-45.614,145.788c.779,0-19.751,17.671-19.751,17.671l-93.814.39-.13-18.235Z" transform="translate(159.309 -145.614)"/></g><rect class="m" width="117.245" height="2.164"/></g><g transform="translate(-99.076 150.954)"><path class="ac" d="M-95.853,159.373a4.6,4.6,0,0,1-2.589-2.418c-.049-1.093-.1-2.559-.066-2.829l-2.837-.365c-.011.084-.906.109-.906.109a12.64,12.64,0,0,1-4.294,3.613c-.861.039,2.638,7.529,3.162,7.573C-95.558,165.689-95.073,159.619-95.853,159.373Z" transform="translate(113.713 -147.302)"/><g class="c" transform="translate(6.885 5.712)"><path class="bn" d="M-100.562,153.064h0l.018,0h.016l1.961.366c-.021.161,1.1,3.439,1.092,4.1-.591.677-4.144,4.214-6.742,6.462-1.007.87-2.164-5.358-2.6-5.964,1.222-.061,1.991-1.281,2.6-2.185.71-1.044,2-2.6,2.014-2.733Z" transform="translate(106.818 -153.064)"/></g><g transform="translate(0 8.554)"><path class="f" d="M-94.876,182.058c.285-2.7-1.823-14.462-1.823-14.462,2.2-1.654,1.218-9.366,1.218-9.366s-1.3,4.319-4.965,2.716c-1.5-.655-2.832-2.06-4.237-5.221-.134-.3-3.163,5.575-2.25,9.166a16.547,16.547,0,0,1-.36,5.53c-1.153,5.707-1.713,8.341-1.812,11.9C-109.248,187.438-95.161,184.764-94.876,182.058Z" transform="translate(113.538 -155.715)"/><path class="f" d="M-108.819,167.175c-3.375.421-4.488,1.7-4.417,1.263.633-3.9,3.664-9.626,4.847-10.605a19.177,19.177,0,0,1,4.005-2.108s-1.034,5.969-1.007,6.251S-108.819,167.175-108.819,167.175Z" transform="translate(113.239 -155.714)"/></g><path class="as" d="M-110.288,166.7c.984-2.529,3.652-5.621,3.864-5.339s-.563,2.668-.563,2.668l-2.045,2.741Z" transform="translate(113.452 -146.753)"/><path class="am" d="M-106.652,161.881c.7.352,3.614,1.95,5.64,2.18,3.7.42,5.318.234,5.668-.469a2.487,2.487,0,0,1-.14,1.615,20.365,20.365,0,0,1-6.744-.4c-2.123-.491-4.917-1.031-4.917-1.732A1.852,1.852,0,0,1-106.652,161.881Z" transform="translate(113.68 -146.714)"/><path class="am" d="M-107.078,164.765c.421.281,9.13,2.529,10.609,1.687a6.987,6.987,0,0,1-.354.981l-10.045-.913Z" transform="translate(113.685 -146.506)"/><path class="am" d="M-107.058,158.761c.8.655,8.852,6.181,11.568,2.107a.593.593,0,0,1,.375.7s-1.968,3.279-8.43.374a25.862,25.862,0,0,1-3.325-1.591Z" transform="translate(113.686 -146.94)"/><g transform="translate(0.108 16.049)"><path class="ac" d="M-111.17,166.092c-1.335.282-2.45,1.628-1.755,2.669s8.7.014,9.57.014a5.134,5.134,0,0,0,.362-1.82s-3.766-.886-4.287-.886A8.039,8.039,0,0,0-111.17,166.092Z" transform="translate(113.139 -162.477)"/><path class="ac" d="M-101.881,166.525a2.012,2.012,0,0,1,.916.136c.153.1.253.066.049.441-.173.322-.068.728-.221.373s-.8-.648-.8-.648Z" transform="translate(113.949 -162.428)"/><path class="z" d="M-102.8,166.271a6.078,6.078,0,0,0-2.071.559,3.524,3.524,0,0,0-.3,1.65c.1.308,1.017.866,1.423.61S-102.8,166.271-102.8,166.271Z" transform="translate(113.713 -162.446)"/><path class="bc" d="M-99.832,169.112c.113.166.118.362.01.434l-.1.068c-.109.071-.288-.005-.4-.173l-4.213-6.207c-.115-.168-.122-.364-.015-.435l.1-.068c.109-.073.288,0,.4.169Z" transform="translate(113.755 -162.704)"/><path class="ac" d="M-102.867,166.273a1.3,1.3,0,0,1,1.157.272c.405.339,1.154,1.289.88,1.56s-.949-.745-.949-.745l-.475-.268s1.358,1.085,1.358,1.491-1.9-.748-1.9-.748,1.766.885,1.494,1.022a6.557,6.557,0,0,1-1.9-.476s1.221.543.951.609a12.685,12.685,0,0,1-1.565.275c-.27,0-.672-.507-.356-1.36C-103.665,166.525-102.867,166.273-102.867,166.273Z" transform="translate(113.779 -162.448)"/></g><g transform="translate(16.829 6.53)"><path class="z" d="M-94.119,155.913c.083-.656-.509-2.384-.813-2.042-.184.207.295,1.861.295,1.861s-.455-1.361-.753-1.231.2,1.8.2,1.8h0c-.243-.042-.147-1.128-.548-1.144s-.4,2.165-.4,2.165a.83.83,0,0,0,1.032,0A3.929,3.929,0,0,0-94.119,155.913Z" transform="translate(97.647 -153.827)"/><path class="z" d="M-94.286,156.086c-.545.775-.784,1.341-1.242,1.45-.2.857,2.507,6.289,2.173,7.254s-2.383,1.7-2.8,1.309-1.584-8.132-1.367-8.585.863-1.492,1.245-1.583A10.7,10.7,0,0,1-94.286,156.086Z" transform="translate(97.545 -153.676)"/><path class="f" d="M-96.338,163.842c.769.181,2.276-.78,2.822-1.879,1.433,1.961,2.316,6.585-.118,7.318-1.281.387-2.73-.952-3.334-2.99S-96.338,163.842-96.338,163.842Z" transform="translate(97.574 -153.238)"/></g><g transform="translate(11.52 0.407)"><path class="ac" d="M-102.1,151.946c-.952,2.644-.03,5.8,1.168,6.41,1.34.686,3.751.208,5.9-2.7,1.764-2.391,2.435-5.321-.833-7C-98.927,147.084-101.1,149.168-102.1,151.946Z" transform="translate(102.496 -148.117)"/></g><path class="ad" d="M-95.631,152.72c-1-.643-3.722-1.054-4.918,2.879-.687,2.27-1.4,6.018-1.4,6.018l-3.153-5.565s.607-6.166,4.737-7.87a4.991,4.991,0,0,1,5.085.537Z" transform="translate(113.827 -147.738)"/><path class="al" d="M-96.663,152.516c1.476,1.124.664,8.644,0,9.342,1.367-.421,2.072-2.931,2.811-5.549,1.1-3.876-.543-7.46-2.436-7.685Z" transform="translate(114.438 -147.673)"/></g><g transform="translate(-70.472 144.719)"><g transform="translate(10.317)"><path class="bo" d="M-75.069,151.295l-.61,3.422-1.186,1.537s2.343,6.373,3.9,6.942,3.092-3.5,3.058-4.576-.372-7.012-.372-7.012Z" transform="translate(76.95 -141.245)"/><g transform="translate(3.737 10.013)"><path class="bp" d="M-67.229,156.465c-.014-.47-2.887-1.278-2.963-2.7-.1-1.838-.133-2.5-.133-2.5l-2.275.677-.859,11.845C-71.907,164.3-67.194,157.534-67.229,156.465Z" transform="translate(73.459 -151.261)"/></g><path class="bq" d="M-75.686,150.467c-.362-.919,4.106,1.411,5.322,2.259l-4.67,6.127c-.758-.255-.434-2.649-.7-2.968A9.474,9.474,0,0,0-75.686,150.467Z" transform="translate(77.032 -141.321)"/><path class="bp" d="M-68.974,148.169c.025-2.2-.359-4.063-3.509-4.137-3.933-.094-3.653,2.323-3.775,5s1.448,5.627,3.452,5.717c1.525.066,2.855-1.541,3.454-3.5a1.738,1.738,0,0,0,.813-1.425C-68.462,148.957-68.4,148.254-68.974,148.169Z" transform="translate(76.993 -141.771)"/><g transform="translate(0 2.24)"><path class="bo" d="M-76.192,147.929a.749.749,0,0,0-.175-.02c-.616.02-.594.745-.566,1.639A1.6,1.6,0,0,0-76,151.1c.5,1.932,1.741,3.564,3.222,3.63.069,0,.131,0,.2-.008l.093-10.711C-75.842,143.945-76.1,145.727-76.192,147.929Z" transform="translate(76.944 -144.012)"/></g><path d="M-73.545,143.973l.074-.2s1.232-1.337,1.078-1.337c-.092,0-1.537.221-1.721.668l.947-.527-1.734.752a1.021,1.021,0,0,0-.729.193c-.308.254-.544.455-.544.455s.062.325.114-.132c-.425.143-.69,1.2-.679,1.974-.038.235-.066.49-.086.772-.077,1.16.163,1.463.163,1.463l.466.128.356.251.144-.951a1.634,1.634,0,0,1,.7-1.68,2.764,2.764,0,0,1,2.388-.337Z" transform="translate(76.952 -141.886)"/><path class="aw" d="M-68.826,145.287c-.33-.673-.573-1.281-1.057-1.512a2.965,2.965,0,0,0-1.525-1.139c-.049.053.589.6.549.93-.273-.527-.9-1.409-1.022-1.361,0,0,.013.816.036,1.236l-.009,0c-.07-.679-.177-1.717-.177-1.482a14.215,14.215,0,0,1-.489,1.351c-.048-.009.048.008,0,0,.058-.5.573-.842.26-1.382.158.667-1.039.821-1.517,1.574a.623.623,0,0,0-.158.176.805.805,0,0,0-.079.27.325.325,0,0,0-.019.039s-.629.923-.026,1.459a8.657,8.657,0,0,0,2.67.223,3.082,3.082,0,0,1,1.414,1.2,4.811,4.811,0,0,1,.282,1.536l.67-.074.383.22A5.693,5.693,0,0,0-68.826,145.287Z" transform="translate(77.134 -141.923)"/></g><path class="v" d="M-75.68,154.133c-.1.938,2.915,7.658,6.521.147,2.569,1.434,3.361,1.385,3.361,1.385l-3.014,8.545s-10.374-.988-9.831-4.347a19.773,19.773,0,0,0,.444-4.1Z" transform="translate(87.136 -141.04)"/><path d="M-64.419,155.906c.216.224,2.193,2.4,4.367,9.018.716,2.18,1.853,5.339,1.281,6.422-1.112,2.118-7.347,2.014-7.347,2.014l-.449-11.308,1.5-4.9S-64.568,155.75-64.419,155.906Z" transform="translate(88.011 -140.913)"/><g transform="translate(4.114 12.814)"><path class="ad" d="M-74.206,183.122s-6.63-.821-6.63-1.152c0-5.149,1.466-9.8,1.5-11.03a38.419,38.419,0,0,0-1.144-6.967c-.235-.7-2.54-3.362-2.217-4.932.142-.685.853-2.489,1.473-2.753,2.175-.92,3.07-.9,5.574-2.416,0,0-.833,3.641,1.283,5.563,1.451,1.319,2.339,15.98,2.339,15.98L-73.9,183Z" transform="translate(82.728 -153.873)"/></g><path class="al" d="M-72.278,182.608l-1.309-8.486,2.776-14.8s2.5-3.129.989-5.6c0,0,3.744,1.56,5.672,2.218.627.212.153,1.673.153,1.673s-1.62,5.648-1.853,6.348a42.461,42.461,0,0,0-.474,6.656c.027.965,1.631,8.528,1.631,11.859Z" transform="translate(87.504 -141.07)"/><path class="ad" d="M-80.642,156.482c-2.981-.138-6.366,13.457-5.874,14.036,1.2,1.4,4.42,3.6,4.757,3.226a13.3,13.3,0,0,0,2.378-4.435l-1.391-1.627,2.706-3.691Z" transform="translate(86.565 -140.87)"/><g transform="translate(5.626 28.771)"><path class="bo" d="M-80.016,168.758s2.122-.031,2.515.061a3.869,3.869,0,0,1,1.593,1.118c.441.463-.045.708-.589.4-.454-.268-.977-.6-.977-.6l-.664.079-.147.016s1.48.925,1.64,1.028.854.841,1.057,1c.3.229.266.733-.256.484s-1.456-.931-1.781-1.131-.425-.188-.425-.188a9.437,9.437,0,0,1,2.149,1.627c.168.332-.106.536-.647.2s-1.985-1.3-1.985-1.3l1.57,1.408s.229.741-.583.236c-1.642-1.023-3.154-1.61-3.41-1.8C-81.522,170.982-81.572,169.812-80.016,168.758Z" transform="translate(81.318 -168.753)"/></g><g transform="translate(15.406 27.265)"><path class="bo" d="M-67.582,167.762s-2.123-.031-2.515.061a3.892,3.892,0,0,0-1.595,1.118c-.438.463.046.709.588.395.454-.265.978-.592.978-.592l.665.078.146.017s-1.478.924-1.641,1.025-.85.844-1.055,1c-.294.229-.266.735.255.485s1.457-.932,1.781-1.132.428-.188.428-.188a9.446,9.446,0,0,0-2.152,1.628c-.169.33.106.535.646.2s1.985-1.3,1.985-1.3l-1.567,1.407s-.227.743.582.238a17.009,17.009,0,0,1,3.058-1.377A1.96,1.96,0,0,0-67.582,167.762Z" transform="translate(72.198 -167.319)"/><path class="f" d="M-65.471,170.837c-.066-.6-.438-2.87-2.13-3.488-.752.25-1.061.367-1.061.367s1.236.58,1.878,3.986Z" transform="translate(72.454 -167.349)"/></g><g transform="translate(6.804 18.474)"><path class="ao" d="M-61.809,172.452a.712.712,0,0,1-.727.7H-79.493a.713.713,0,0,1-.727-.7V159.847a.713.713,0,0,1,.727-.7h16.957a.711.711,0,0,1,.727.7Z" transform="translate(80.22 -159.151)"/></g></g><path class="as" d="M-137.85,155.251c-.3-1.183-.253,2.366-1.017,2.366a11.952,11.952,0,0,0-3.974,1.56,40.921,40.921,0,0,0,.3,5.411c.129,2.739-.432,5.887-.125,7.717s7.463.423,7.463.423,1.573-13.818,1.423-15.341C-133.784,157.386-137.7,155.86-137.85,155.251Z" transform="translate(12.019 3.742)"/><path class="am" d="M-132.377,156.042c.387-.24-.433,1.494.254,1.856.965.51,2.871,1.135,3.481,1.894s-.437,3.323-.437,4.542c0,1.808-.693,4.752-.562,6.806.106,1.64-6.036,1.21-6.036,1.21l.865-15.09A15.444,15.444,0,0,0-132.377,156.042Z" transform="translate(12.54 3.815)"/><g transform="translate(-151.319 173.623)"><rect class="af" width="111.224" height="36.036" transform="translate(3.034 1.924)"/><rect class="ag" width="102.218" height="29.696" transform="translate(7.537 4.725)"/><rect class="af" width="98.112" height="25.386" transform="translate(9.589 7.533)"/><g transform="translate(16.197 7.539)"><rect class="ah" width="1.127" height="25.422"/><rect class="ah" width="1.548" height="25.422" transform="translate(10.055)"/><rect class="ah" width="1.127" height="25.422" transform="translate(29.236)"/><rect class="ah" width="1.126" height="25.422" transform="translate(48.468)"/><rect class="ah" width="0.915" height="25.422" transform="translate(57.603)"/><rect class="ah" width="1.128" height="25.422" transform="translate(74.843)"/><rect class="ah" width="0.916" height="25.422" transform="translate(83.98)"/><rect class="ah" width="1.488" height="25.422" transform="translate(66.953)"/><rect class="ah" width="1.549" height="25.422" transform="translate(39.29)"/><rect class="ah" width="0.678" height="25.422" transform="translate(20.431)"/></g><path class="k" d="M-45.614,170.35c.779,0-19.751,17.672-19.751,17.672l-93.814.389-.13-18.321Z" transform="translate(162.15 -168.79)"/><rect class="m" width="117.29" height="2.452"/></g><g transform="translate(-138.413 150.731)"><g transform="translate(11.654)"><g transform="translate(0.462 0.596)"><path class="ac" d="M-138.555,152.952c-.417,2.893,1.158,5.886,2.482,6.254,1.476.405,3.8-.6,5.358-4.007,1.273-2.8,1.351-5.919-2.264-6.919C-136.368,147.344-138.116,149.928-138.555,152.952Z" transform="translate(138.624 -148.085)"/></g><path class="at" d="M-133.331,147.85a3.5,3.5,0,0,1,3.349,4.274,19.7,19.7,0,0,1-.723,2.908h0s-.624.248-.517-.143c.331-1.2.167-3.35-.758-3.721a5.628,5.628,0,0,1-2.039-1.409l.322-1.163Z" transform="translate(139.419 -147.507)"/><path class="aq" d="M-132.85,147.909a3.88,3.88,0,0,0-5.323,2.2c-.864,2.546-.622,2.619-.622,2.619h0s.412.529.519.142c.332-1.2,1.28-2.491,2.266-2.336a4.676,4.676,0,0,0,2.763-.633l.325-1.163Z" transform="translate(139.072 -147.53)"/><path class="ac" d="M-138.259,152.549c-.159-.418-.483-.78-.627-.443a4.455,4.455,0,0,0-.135,1.739c.087.455.492,1,.617.548A12.617,12.617,0,0,0-138.259,152.549Z" transform="translate(139.055 -147.208)"/><path class="ac" d="M-131.353,154.387c.35-.281.811-.424.765-.061a4.393,4.393,0,0,1-.775,1.561c-.31.347-.934.6-.813.153A12.3,12.3,0,0,1-131.353,154.387Z" transform="translate(139.551 -147.054)"/></g><path class="aq" d="M-130.808,151.117c-.076,3.394-2.5,2.844-3.286,2.493s1.039-1.262,1.039-1.262a3.2,3.2,0,0,1-1.828.915,6.531,6.531,0,0,0,.762-1.828l-2.438,1.524,1.066-1.676a11.68,11.68,0,0,1-2.134,1.37c-.49.1-1.068-.152,0-1.525a4.217,4.217,0,0,1,3.809-1.977C-131.987,149.15-130.808,151.117-130.808,151.117Z" transform="translate(150.769 -147.412)"/><path class="at" d="M-130.9,155.14c.254,1.016,1.423,5.029-.509,8.688l.153-1.779-.353,2.134-1.729.4s.608-2.435.559-2.59a18.993,18.993,0,0,0-.863,2.237s-.152-5.386.609-6.5,1.116-1.676,1.473-1.726S-130.9,155.14-130.9,155.14Z" transform="translate(151.1 -146.979)"/><path class="f" d="M-144.76,169.683l10.048-.086-.556-1.662-7.253.169Z" transform="translate(150.296 -146.054)"/><path class="f" d="M-135.3,169.651c.5-.423,1.062-.555,2.469-.346,2.035.3,6.323.46,6.66.46a9.248,9.248,0,0,1-3.413-1.759,17.1,17.1,0,0,0-4.112-.824,10.359,10.359,0,0,0-2.947.909Z" transform="translate(150.884 -146.108)"/><path class="ac" d="M-131.555,167.481c-.549,0-1.81.012-2.291.08s-2.521.81-2.177,1.083,1.01-.258,1.01-.258-1.165.342-.961.549,1.373-.346,1.787-.346-1.288.2-1.011.41.75.026,1.16.026a6.3,6.3,0,0,0,2.683-.177c.382-.2,4.228.291,4.913.222s2.82.064,2.749-.484a2.269,2.269,0,0,0-2.869-1.942A29.748,29.748,0,0,1-131.555,167.481Z" transform="translate(150.926 -146.155)"/><g transform="translate(0.752 17.321)"><path class="ac" d="M-147.633,166.383c-1.068,1.22-2.006,1.686-1.4,2.6s7.884-.123,8.646-.123a4.483,4.483,0,0,0,.32-1.6s-3.312-.781-3.768-.781A5.181,5.181,0,0,0-147.633,166.383Z" transform="translate(149.222 -163.507)"/><path class="ac" d="M-139.131,167.042a1.763,1.763,0,0,1,.805.118c.136.089.226.06.046.388-.152.283-.059.641-.2.327s-.7-.568-.7-.568Z" transform="translate(149.949 -163.439)"/><path class="z" d="M-139.939,166.817a5.337,5.337,0,0,0-1.821.492,3.1,3.1,0,0,0-.267,1.451c.087.27.893.761,1.251.536S-139.939,166.817-139.939,166.817Z" transform="translate(149.741 -163.455)"/><path class="bc" d="M-137.328,169.316c.1.145.1.318.008.382l-.084.058c-.094.064-.252,0-.355-.151l-3.7-5.458c-.1-.145-.105-.317-.012-.382l.087-.058c.1-.064.253,0,.354.147Z" transform="translate(149.778 -163.682)"/><path class="ac" d="M-140,166.819a1.141,1.141,0,0,1,1.016.241c.357.3,1.017,1.133.776,1.372s-.836-.657-.836-.657l-.416-.235s1.194.953,1.194,1.309-1.673-.655-1.673-.655,1.554.779,1.313.9a5.719,5.719,0,0,1-1.67-.419s1.073.477.836.537a11.408,11.408,0,0,1-1.376.24c-.238,0-.591-.445-.313-1.2C-140.7,167.041-140,166.819-140,166.819Z" transform="translate(149.799 -163.457)"/></g><path class="am" d="M-142.332,158.908c-.559-.113-.559-.565-1.571.673s-4.948,6.831-5.788,8.179.9,1.856.9,1.856,2.1-2.728,4.8-2.56c1.359-1,1.7-.922,1.97-1.213C-141.24,165-142.332,158.908-142.332,158.908Z" transform="translate(149.923 -146.719)"/><path class="as" d="M-129.237,159.337c.52-.108.819.167,1.753,1.332s4.454,5.953,4.289,7.763c-.057.62-1.127.958-1.127.958a3.238,3.238,0,0,0-3.26-2.126,8.527,8.527,0,0,0-2.24-1.657C-130.548,164.813-129.237,159.337-129.237,159.337Z" transform="translate(151.361 -146.677)"/></g></g></svg>