<svg xmlns="http://www.w3.org/2000/svg" xmlns:xlink="http://www.w3.org/1999/xlink" width="170.961" height="204.299" viewBox="0 0 170.961 204.299"><defs><style>.a{fill:#232121;}.b{fill:#946e61;}.c{fill:#6cb1e0;}.d{fill:#94cded;}.e{fill:#850000;}.f{fill:#08080d;}.g{fill:#cc8e5a;}.h{fill:#a98b81;}.i,.j,.r,.v{mix-blend-mode:multiply;isolation:isolate;}.i{fill:url(#a);}.k{fill:url(#b);}.l{fill:#26479c;}.m{fill:#b80000;}.n{fill:#f29132;}.o{fill:#ff9c00;}.p{fill:#cc9987;}.q{fill:#e0b8aa;}.r{fill:url(#c);}.s{fill:#300500;}.t{fill:#5e1c17;}.u{fill:#fff;}.v{fill:url(#d);}</style><linearGradient id="a" x1="0.558" y1="0.784" x2="0.483" y2="0.031" gradientUnits="objectBoundingBox"><stop offset="0" stop-color="#fff"/><stop offset="0.643" stop-color="#c6c0b9"/></linearGradient><linearGradient id="b" x1="197.265" y1="1.424" x2="198.264" y2="1.424" xlink:href="#a"/><linearGradient id="c" x1="0.084" y1="0.866" x2="0.832" y2="-0.154" gradientUnits="objectBoundingBox"><stop offset="0.207" stop-color="#fff"/><stop offset="0.788" stop-color="#c6c0b9"/></linearGradient><linearGradient id="d" x1="0.181" y1="0.853" x2="0.556" y2="0.255" gradientUnits="objectBoundingBox"><stop offset="0.207" stop-color="#fff"/><stop offset="0.788" stop-color="#a39c9c"/></linearGradient></defs><g transform="translate(-254.101 -120.508)"><g transform="translate(330.774 128.372)"><path class="a" d="M308.127,140.5l.2-9.284,19.768,4.715-.244,22.08L308.221,154.1Z" transform="translate(-262.962 -114.933)"/><g transform="translate(8.464 8.096)"><path class="b" d="M307.725,164.329l-11.456-26.947-4.416-3.613,1.969-4.794s2.767-2.077,4.143-1.152,2.431.052,2.869,1.951a23.553,23.553,0,0,1,.018,4.8c-.171.537,6.617,12.71,7.622,13.409S307.725,164.329,307.725,164.329Z" transform="translate(-291.853 -127.585)"/></g><rect class="c" width="29.259" height="5.353" transform="translate(0.003 16.808) rotate(-35.063)"/><rect class="d" width="29.261" height="2.674" transform="matrix(0.819, -0.574, 0.574, 0.819, 0, 16.808)"/><path class="e" d="M293.192,128.258l1.246-.867,3.264,4.575-1.76,1.225Z" transform="translate(-281.708 -119.732)"/><path class="f" d="M302.736,136.124c1.017,3.056-4.007,23.844-7.059,28.415,9.492,12.185,17.543,17.169,21.356,17.547,2.032.207,4.637-22.712,4.637-22.712s-.271-.719-4.159-4.61A124.2,124.2,0,0,1,302.736,136.124Z" transform="translate(-278.589 -108.771)"/><path class="g" d="M315.7,140.487c.92,3.762,6.833,28.46,9.866,28.95-2.539,1.028-11.262,3.234-12.685,1.031s-2.242-22.827-1.342-24.85S315.7,140.487,315.7,140.487Z" transform="translate(-259.15 -103.295)"/><g transform="translate(35.563 111.345)"><g transform="translate(0 13.237)"><path class="b" d="M306.588,187.607c-.494,3.678-.131,11.159.934,12.724s3.728,28.794,3.744,30.368c.029,2.8-2.591,9.774-6.709,11.763,2.363,1.439,6.314.183,8.11-2.984,1.166-2.057,5.266-2.677,5.712-4.077,1.028-3.148-1.15-2.751-1.186-7.476-.052-4.722,3.135-19.2-.259-26.509-2.081-4.486.882-20.436.347-22.008S306.588,187.607,306.588,187.607Z" transform="translate(-303.007 -179.238)"/><path class="b" d="M318.732,202.492a5.122,5.122,0,0,1,1.369,4.858c-.541,1.874-1.709,6.373-1.312,7.868-.995.246-1.026.014-1.026.014s.115-6.734-.825-6.344-2.386,4.328-4.041,6.222-8.29,1.4-8.667.848-.8-2.341.7-2.92a13.509,13.509,0,0,0,2.787-1.531s3.462,1.191,5.128-1.265C314.488,207.787,318.732,202.492,318.732,202.492Z" transform="translate(-303.869 -150.05)"/></g><g transform="translate(7.502)"><path class="h" d="M307.2,173.368c.686,4.652,5.532,30.149,7.715,37.352,2.036,6.759,8.037,23.53,8.872,31.626.519,5.1,2.37,15.671,7.954,12.052,3.45-2.228-1.673-8.588-1.991-11.661-.74-7.289-.467-13.556-.846-18.49a47.564,47.564,0,0,0-2.984-13.993c-5.818-16.515-3.151-35.465-3.151-35.465Z" transform="translate(-307.196 -173.368)"/><path class="h" d="M321.954,206.495c.273,3.669-.9,4.364-2,4.68s-4.283-1.186-4.869-3.818c.525,5.424,1.01,6,1.94,7.386s3.726,2.411,4.616,2.07c1.84-.7,2.984-3.024,2.183-5.674A28.423,28.423,0,0,0,321.954,206.495Z" transform="translate(-297.3 -131.788)"/></g><path class="i" d="M327.355,193.956l-17.536,23.273s-1.813-16.113-2.758-18.321-1.421-8.958-1.1-10.852,19.5-1.885,19.5-1.885Z" transform="translate(-301.367 -157.298)"/></g><path class="b" d="M306.644,145.836c3.049,3.378,1.651,10.73-.088,13.563-1.132,1.833,2.124,2.275,5.577,1.38,3.038-.794,3.753-5.079,5.663-5.137-.938-1.678-1.459-10.572.408-14.713C320.081,136.77,306.644,145.836,306.644,145.836Z" transform="translate(-265.221 -104.11)"/><g class="j" transform="translate(40.282 35.893)"><path class="k" d="M318.659,140.452c1.058-2.37-9.406,3.683-12.7,5.753l7.417,10.913a11.864,11.864,0,0,0,4.713-2.474C317.157,152.971,316.789,144.6,318.659,140.452Z" transform="translate(-305.962 -139.911)"/></g><path class="f" d="M313.17,147.132a4.777,4.777,0,0,1-2.925.76c-1.434,3.157-4.835,9.055-5.343,10.683-.713,2.282-4.319,86.143-4.319,86.143s29.362,3.432,44.244-1.527c2.052-.683-10.843-60.858-9.537-81.5.248-3.883.271-12.879-5.212-15.067-3.119-1.24-11.813,4.91-13.763,2.478C313.549,150.05,315.373,145.731,313.17,147.132Z" transform="translate(-272.43 -95.806)"/><g transform="translate(37.757 23.51)"><path class="h" d="M323.951,148.772c-3.078,6.082-10.36,9.9-15.2,7.453s-3.62-8.069-1.362-14.5c2.483-7.09,7.469-8.68,12.293-6.224C324.526,137.947,327.043,142.69,323.951,148.772Z" transform="translate(-304.127 -134.42)"/><path class="h" d="M309.061,137.283c-1.051,1.218-.821,2.528-4.138,5.32-.559.92,1.976,2.145,2.379,2.492S309.061,137.283,309.061,137.283Z" transform="translate(-304.842 -130.826)"/></g><path class="h" d="M321.013,151.781c.1-.18,8.538-10.234,8.658-10.572a23.316,23.316,0,0,1,1.894-4.6,27.81,27.81,0,0,0,2.848-3.944c.368-.859.828-.943,1.033.185s-1.006,2.533-1.006,2.533,2.9-1.491,3.017-1.876A15.609,15.609,0,0,1,338.8,131.5s.67-.478.28,1.15a11.313,11.313,0,0,1-1.267,2.409,22.116,22.116,0,0,1,2.163-2.857c.289-.063.519.28.158,1.434a7.678,7.678,0,0,1-1.091,2.1l1.7-2.226s.5-.131-.131,1.52a22.543,22.543,0,0,1-1.716,2.934s1.874-3.182,2.163-2.8c.176.23-.74,2.339-1.238,3.013a27.225,27.225,0,0,1-4.251,4.2,12.155,12.155,0,0,0-1.854,2.188c-.3.361-10.331,17.236-10.331,17.236Z" transform="translate(-246.788 -114.663)"/><path class="l" d="M308,145.936l-1.757,1.078L306,152.354l3.526-2.609Z" transform="translate(-265.637 -96.455)"/><path class="l" d="M307.56,149.326l10.013-3.054s1.709,2.864,1.524,3.243c-.713,1.423-10.2,4.012-10.2,4.012Z" transform="translate(-263.674 -96.034)"/><path class="b" d="M296.9,134.7c1.285-4.583-.995-5.379-.221-6.962.659-1.355-.695-1.364-1.236-.1-1.042,2.436-.58,6.163-.58,6.163Z" transform="translate(-279.742 -120.599)"/><path class="b" d="M291.122,131.834c.447.525,2.681,1.707,3.4,1.529s-1.513-1.9-1.755-2.084,1.865,1.382,2.589,1.2-1.529-2.436-1.529-2.436,1.466,1.721,2.526,1.5-1.45-2.465-1.45-2.465,1.93,1.831,2.228,1.4-.886-2.857-1.554-3.033a1.056,1.056,0,0,0-1.247.494c-1.276.21-1.069,1-1.312,1.076a2.446,2.446,0,0,0-1.317,1.36,2.087,2.087,0,0,0-.546.695A3.159,3.159,0,0,0,291.122,131.834Z" transform="translate(-284.318 -119.737)"/><path class="m" d="M295.152,127.745c-.981-.568-1.61-.947-2.23.25s2.183,10.408,1.051,11.474l1.01-.05s.821-1.506-1.337-10.083c-.476-1.926,1.405-.983,1.631-.812S295.152,127.745,295.152,127.745Z" transform="translate(-282.162 -119.963)"/><path class="m" d="M294.441,127.928c-.081-.814-.857-1.292-.981-.55a13.1,13.1,0,0,0,2.625,8.716l.819-.629s-2.724-3.22-2.948-6.732C293.875,127.457,294.441,127.928,294.441,127.928Z" transform="translate(-281.428 -120.211)"/><path class="g" d="M315.536,137.782c.354,2.424.765,10.4-1.543,20.8-.677,3.06-1.11,9.264-5.676,9.4,0,0,.548,2.381,1.942.4-.773,1.9-2.542,1.7-3.813,1.412,2.731,2.8,9.208,2.844,11.858-.271s1.759-3.358,3.322-8.96c1.547-5.6.762-14.354-.512-15.57S315.536,137.782,315.536,137.782Z" transform="translate(-265.073 -106.69)"/><path class="f" d="M306.9,138.929c3.347,1.252,12.4,11.24,14.916,13.651,4.934-4.772,3.773-11.9,3.773-11.9s-7.264-6.806-10.029-6.9C310.96,133.63,306.9,138.929,306.9,138.929Z" transform="translate(-264.505 -111.716)"/><g transform="translate(57.346 33.533)"><path class="a" d="M313.793,157.221c1.256-3.877,8.069-5.7,18.878-18.335.6-.7-1.721,15.353,6.423,35.187,0,0-18.33,1.168-20.154,1.651C313.053,177.278,313.793,157.221,313.793,157.221Z" transform="translate(-313.234 -138.864)"/><g transform="translate(0 7.369)"><path class="f" d="M316.376,174.546c1.827-.478,23.012-4.573,23.012-4.573-3.694-9.007-5.778-21.751-6.308-27.84-5.223,5.144-15.752,13.481-19.022,13.639C314.1,161.163,311.836,175.743,316.376,174.546Z" transform="translate(-313.528 -142.132)"/></g></g><g transform="translate(60.22 39.393)"><path class="n" d="M314.8,157.753h3.924s.241-14.72-1.714-15.087C314.853,142.263,314.8,157.753,314.8,157.753Z" transform="translate(-314.803 -139.962)"/><path class="o" d="M317.87,142.875a1.408,1.408,0,1,1-1.416-1.412A1.414,1.414,0,0,1,317.87,142.875Z" transform="translate(-314.489 -141.463)"/></g><path class="a" d="M319.773,156.531c-.767,0-4.578-.758-5.342-.5s-1.272,14.239,0,24.151,3.414,52.782,4.567,52.879c.762.065,9.467-.695,9.727-2.228S319.773,156.531,319.773,156.531Z" transform="translate(-256.021 -83.852)"/></g><g transform="translate(254.101 120.508)"><path class="f" d="M283.68,143.606c-6.655.546-12.99-7.67-16.138-8.637-1.432-.437-9.077-1.953-11.549,2.875-2.381,4.648-4.249,41.464,5.7,42.616,8.7,1.019,13.786-7.079,16.136-12.807S283.68,143.606,283.68,143.606Z" transform="translate(-254.101 -103.076)"/><g transform="translate(21.44 4.228)"><path class="o" d="M278.383,127.4c.823,1.529.237,5.065.237,5.065l-.593-.354-.474-4.005Z" transform="translate(-246.106 -116.087)"/><path class="f" d="M278.809,122.383l20.138,9.54L284.817,145l-21.208-9.184Z" transform="translate(-263.608 -122.383)"/><path class="p" d="M270.483,135.942a23.254,23.254,0,0,1-1.285,9.321c-.591,1.529,11.443,2.943,12.573-1.105.365-1.308,1.191.532-.28-9.082C281.288,133.8,270.483,135.942,270.483,135.942Z" transform="translate(-256.619 -106.96)"/><g transform="translate(13.864 27.278)"><path class="q" d="M282.845,144.488c.361-1.315-1.473,1.159-1.57-9.706-.016-1.288-11.519,1.937-11.519,1.937.135.742,2.923.171,2.907.907a9.115,9.115,0,0,0,2.512,2.014c.83.559-.742,6.6,1.022,9.663C280.2,149.772,282.376,146.27,282.845,144.488Z" transform="translate(-269.756 -134.478)"/></g><path class="r" d="M285.609,137.181,270.788,156.26s-6.635-11.132-4.416-11.132,7.149-2.1,7.7-3.067.39-4.409.683-6.506,6.208,1.833,6.208,1.833Z" transform="translate(-260.709 -106.618)"/><g transform="translate(8.978 5.857)"><path class="q" d="M283.884,135.05c-.6-4.616-1.967-8.391-8.567-7.613-8.261.977-6.964,5.951-6.411,11.592s4.7,11.344,8.915,10.94c3.2-.318,5.516-4.086,6.2-8.351a3.67,3.67,0,0,0,1.258-3.229C285.194,136.552,285.1,135.055,283.884,135.05Z" transform="translate(-266.468 -122.024)"/><g transform="translate(0.803 5.385)"><path class="p" d="M269.286,136.666a1.491,1.491,0,0,0-.377.009c-1.283.23-1.024,1.741-.7,3.6.275,1.619,1.3,2.835,2.411,2.975,1.615,3.9,4.707,6.939,7.825,6.644.14-.018.273-.054.413-.083l-2.993-22.439C268.824,128.232,268.8,132.032,269.286,136.666Z" transform="translate(-267.946 -127.368)"/></g><path class="s" d="M274.079,129.52l.086-.437s-.435-3.48-.755-3.437a6.451,6.451,0,0,0-.789,2.224l.347-1.457-2.221,2.388-.259-1.049-.665,1.4s.149-1.222-.415-.6a4.812,4.812,0,0,0-.841,1.755s-.456.607-.478-.363c-.855.422-.4,2.765-.147,4.393a14.8,14.8,0,0,0,.045,1.637c.183,2.445.776,3.006.776,3.006l1.017.14.821.41.016-2.034a3.449,3.449,0,0,1,.958-3.723c1.806-1.973,4.9-1.416,4.9-1.416Z" transform="translate(-267.589 -124.146)"/><path class="t" d="M281.661,131.574a4.484,4.484,0,0,0-2.573-2.2c-.686-1.053-1.9-2.573-2.052-2.366a4.8,4.8,0,0,0-.135,1.561c-.742-1.017-1.985-2.187-2.224-2.05-.223.131-.052,1.218.124,2.088h-.023a30.886,30.886,0,0,0-.812-3.051,16.823,16.823,0,0,1-.3,2.979c-.1,0-.21,0-.313,0a6.009,6.009,0,0,0-1.022-3.552c.532,1.344-.785,2.609-1.556,4.319a1.566,1.566,0,0,0-.277.417,1.86,1.86,0,0,0-.093.6.524.524,0,0,1-.025.088s-1.037,2.1.379,3.051c.667.444,3.671-.117,5.654-.329a6.5,6.5,0,0,1,3.32,2.1,10.371,10.371,0,0,1,1.044,3.126l1.385-.345.866.347S283.44,134.219,281.661,131.574Z" transform="translate(-264.549 -124.98)"/></g><g transform="translate(30.268 15.66)"><path class="n" d="M277.03,144.964H280.8s.232-14.126-1.653-14.483C277.08,130.1,277.03,144.964,277.03,144.964Z" transform="translate(-277.03 -127.888)"/><path class="o" d="M279.98,130.687a1.356,1.356,0,1,1-1.351-1.36A1.356,1.356,0,0,1,279.98,130.687Z" transform="translate(-276.733 -129.327)"/></g><path class="f" d="M268.124,138.014c-.469-1.414-.958-8.912-.235-9.954,1.234-1.764,6.245-3.414,7.776-3.3a49.368,49.368,0,0,1,1.351,10.074s-1.7-1.182-4.655.347Z" transform="translate(-258.696 -119.404)"/><path class="a" d="M272.484,134.925c1.06-.71,6.475-2.352,9.363,2.174-.706-4.767-1.824-10.595-1.824-10.595s-5.656-2.472-8.89-1.653C271.665,128.564,272.484,134.925,272.484,134.925Z" transform="translate(-254.164 -119.493)"/></g><path class="f" d="M276.9,203.26c.981,3.626,1.058,8.1.079,13.563-.21,1.123-3.209.715-3.209.715a11.186,11.186,0,0,0-3.317,1.421c-4.526,2.909-7.656,3.62-8.759,3.459-3.2-.449-3.75-3.859-1.881-5.872,2.582-2.781,4.855-4.127,5.694-5.85a54.689,54.689,0,0,0,2.661-8.631Z" transform="translate(-248.273 -18.14)"/><g transform="translate(37.975 180.828)"><path d="M272.526,209.924l4.416-1.912a30.89,30.89,0,0,0-4.362-1.588C272.178,206.505,272.526,209.924,272.526,209.924Z" transform="translate(-269.126 -193.502)"/><path class="f" d="M271.413,202.677c-.354,3.128-.888,8.84.065,13.132.291,1.292,3.144,1.218,3.144,1.218s-.205-2.914,4.9.12c3.074,1.829,10.214.846,11.488.726,1.6-.147,3.024-3.462-.537-4.278-4.481-1.033-6.089-2.478-6.977-4.5s-1.159-8.4-1.159-8.4Z" transform="translate(-270.94 -200.692)"/></g><g transform="translate(15.806 93.959)"><path class="f" d="M297.732,217.647c-.868,8.743-1.558,41.2-1.558,41.2l-14.018-.133s1.689-32.161,1.9-36.069c1.457-27.211.852-31.245.852-31.245s-2.2,26.162-3.067,29.664c-.886,3.5-5.381,40.816-5.381,40.816L261.11,260.7c.672-6.639,3.306-50.191,4.344-61.963.834-9.418,1.114-22.159,4.986-36.563l31.137,1.107S298.607,208.9,297.732,217.647Z" transform="translate(-261.11 -162.172)"/></g><g transform="translate(48.626 98.253)"><path class="a" d="M282.753,214.7c.7-7.151,1.164-38.929,1.912-50.3l-4.9-.325c0,12.194-.907,49.287-1.179,58.147-.235,7.14-2.068,25.77-2.918,33.237l3.877.433S281.871,223.448,282.753,214.7Z" transform="translate(-275.663 -164.076)"/></g><path class="a" d="M282.862,138.994s3.644-.69,10.069,2.366c5.106,2.431,2.115,2.325,2.42,5.085.232,2.111-.855,9.275-1.671,13.317-.611,3.06,1.441,45.924.943,82.968-.043,3.065-21.314,7.038-25.247.284,0-11.328,10.191-77.391,10.807-83.518C280.329,157.967,282.862,138.994,282.862,138.994Z" transform="translate(-234.929 -97.389)"/><path class="f" d="M281.207,138.066s-2.384,1.123-11.891.875c-5.647-.149-3.209,10.036-3.511,12.794s1.033,10.1,1.646,13.166-6.646,71.354-7.771,79.416c-.273,1.921,40.925,4.752,40.548,2.406,0-6.989,8.89-107.551-8.824-103.528C287.271,144.132,281.207,138.066,281.207,138.066Z" transform="translate(-247.102 -98.47)"/><path class="l" d="M273.053,143.321l5.446-5.442,1.964,2.251-3.011,7.131Z" transform="translate(-230.314 -98.705)"/><path class="l" d="M270.546,137.168l7.853,7.195-4.028,4.616-6.182-8.49Z" transform="translate(-236.418 -99.597)"/><path class="a" d="M267.09,136.644c.059.954-.521,4.037-2.018,12.99-1.874,11.107-6.114,27.306-8.078,27.777,2.066,1.434,1.525.792,3.227-.474s13.006-24.279,9.465-39.468C269.686,137.469,266.933,134.224,267.09,136.644Z" transform="translate(-250.47 -101.38)"/><g transform="translate(2.666)"><g transform="translate(0.993 0.587)"><path class="q" d="M258.636,125.068c.456,2.275,2.039,4.434,1.651,6.883-1.087,6.752-4.422,16-4.553,20.946-.162,6.274,1.815,8.11,3.017,7.94s5.57-1.256,6.389-2.663c1.653-2.8.435-9.621.259-12.692s.151-11.655,1.06-12.933a11.744,11.744,0,0,0,1.874-4.183c.44-1.488,0-3.41-.277-6.217-.081-.846-.922-1.59-1.1-.056-.133,1.2-.715,4.125-.715,4.125s1.322-4.783-3.083-5.444C262.172,120.625,258.636,125.068,258.636,125.068Z" transform="translate(-255.724 -120.768)"/></g><g transform="translate(2.141 3.024)"><path class="p" d="M258.051,123.712c.447,2.275,2.041,4.434,1.648,6.883-.706,4.4-2.361,9.846-3.466,14.476,2.837,1.358,5.6,2.321,5.685,1.193.16-2.312,1.425-14.2,1.921-15.682s-1.123-3.629-.329-5.692c.415-1.071.665-4.621-2.309-2.228C261.533,121.34,258.051,123.712,258.051,123.712Z" transform="translate(-256.233 -121.849)"/></g><g transform="translate(0 22.157)"><path class="l" d="M266.222,136.553l.352-5.453c-3.083,1.761-8.249-.767-8.249-.767l-1.362,3.8a1.534,1.534,0,0,0-.731.819c-1.87,4.734-.546,10.232.329,14.187s7.6,2.975,10.013,2.751.771-2.307,1.428-4.948C268.626,144.432,267.469,137.85,266.222,136.553Z" transform="translate(-255.284 -130.333)"/><g transform="translate(8.031 0.875)"><path class="d" d="M262.1,130.721a5.672,5.672,0,0,1-3.159.607c-.363,3.137.291,8.416,1.543,10.811.622,1.2,2.039,1.448,3.214,1.649-.029-3.008-.952-6.581-1.948-7.611Z" transform="translate(-258.845 -130.721)"/></g></g><path class="q" d="M261.567,128.153c1.7-.39,3.94-2.67,4.127-4.082a4.045,4.045,0,0,0-2.257-3.518c-.927-.3-2.826.97-3.52,1.642s-3.3,2.4-2.875,3.2c.523,1,1.818-.728,2.542-.555a4.266,4.266,0,0,0,1.874-.221s.539,1.455,0,2.088S261.078,128.261,261.567,128.153Z" transform="translate(-253.136 -120.508)"/><path class="p" d="M258.914,122.007c.9.083,1.52.419,1.52.909,0,.663-.124,2.916-.063,3.36,0,0,.645-3.525.311-3.775s-1.193-.986-1.443-.986S258.914,122.007,258.914,122.007Z" transform="translate(-250.727 -119.244)"/><path class="p" d="M259.46,121.11a3.74,3.74,0,0,1,1.608,1.861,9.964,9.964,0,0,1-.038,2.72,6.914,6.914,0,0,0,.162-3.3A3.731,3.731,0,0,0,259.46,121.11Z" transform="translate(-250.041 -119.752)"/></g><path class="a" d="M280.634,140.006c3.482,0,4.851,3.238,5.566,5.629,3.376,11.145,8.944,14.9,10.574,20.154,3.967,12.821-12.313,26.41-15.793,24.527s-1.051-25.154-1.389-28.156C279.236,159.155,280.634,140.006,280.634,140.006Z" transform="translate(-222.748 -96.035)"/><g transform="translate(44.849 45.408)"><path class="q" d="M289.607,152.223c-3.112.257-2.909-.377-9.039-3.252-1.96,2.808-1.078,4.192-1.078,4.192s5.658,8.373,8.721,7.668,2.871-.87,3.834-2.7C292.884,156.544,289.607,152.223,289.607,152.223Z" transform="translate(-267.331 -130.19)"/><g transform="translate(4.504)"><rect class="d" width="5.272" height="28.805" transform="translate(0 0.454) rotate(-4.925)"/><rect class="u" width="2.638" height="28.806" transform="translate(2.623 0.227) rotate(-4.93)"/><path class="m" d="M282.1,148.03l-.128-1.487-2.52.2-3,.227.178,2.11Z" transform="translate(-275.396 -133.237)"/></g><path class="m" d="M281.125,146.807c-.282,1.031-.564,1.5-3.942,5.536s-3.193,6.472-3.193,6.472l1.691.469s2.158-6.472,3.656-8.346a17.233,17.233,0,0,0,2.255-3.665Z" transform="translate(-273.988 -132.906)"/><path class="m" d="M280.13,146.889c.846,1.594,3.656,6.472,1.876,9.294s-4.79,8.349-4.79,8.349l-1.687-1.87c3.191-4.664,5.8-9.023,5.16-11.274a18.5,18.5,0,0,0-1.592-4.034Z" transform="translate(-272.054 -132.804)"/><g transform="translate(14.158 19.775)"><path class="l" d="M290.325,153.356a3.97,3.97,0,0,0-2.625-1.969,20.438,20.438,0,0,0-2.415-.645c.038-.183.07-.293.07-.293l-2.914-1.037c.749.507-.654,6.231-2.151,6.477,0,0,2.151,3.381,2.623,3.288.056-.014.133-.149.223-.374a10.979,10.979,0,0,0,2.032,1.874c1.4.94,2.907.447,4.783-.873S291.541,155.643,290.325,153.356Z" transform="translate(-280.236 -149.412)"/><g transform="translate(0 3.886)"><path class="l" d="M280.266,153.726s2.16,3.381,2.632,3.288c.054-.014.133-.149.225-.374a10.634,10.634,0,0,0,2.023,1.874c1.409.94,2.916.447,4.792-.873.943-.663,1.515-1.784,1.3-3.662-3.2.219-6.766-1.427-9.172-2.844C281.628,152.308,280.868,153.627,280.266,153.726Z" transform="translate(-280.266 -151.135)"/></g></g><path class="v" d="M282.55,155.369l-4.949,5.367-.934-11.5,4.316-1.377.817,1.247Z" transform="translate(-270.625 -131.583)"/><path class="q" d="M284.218,156.408c1.531-.345.936-1.89,1.006-2.587a9.019,9.019,0,0,0-.149-2.167,8.135,8.135,0,0,0-.78-2.334c-.307-.383-.591-1.52-1.06-1.829a3.118,3.118,0,0,0-2.7.232c-1.161.55-3.417,1.421-3.5,2.348s.011.341.483.341a22.856,22.856,0,0,0,2.406-.62c.388-.077,2.133-.237,2.133-.237a9.2,9.2,0,0,0-2.391.706,26.615,26.615,0,0,0-3.056,1.879c-.422.422-.814,1.094.268.785.819-.232,1.876-.69,2.693-1.022a5.7,5.7,0,0,1,1.125-.14,11.428,11.428,0,0,1,2.3.14,7.112,7.112,0,0,0-2.677-.1c-.613.313-3.8,1.051-3.874,1.827s1.037.4,1.574.239a20.384,20.384,0,0,1,2.819-.516,7.986,7.986,0,0,1,1.973.893,4.9,4.9,0,0,0-1.973-.424,23.382,23.382,0,0,0-2.722.239c-.462.153-1.177.514-.142.938a5.649,5.649,0,0,0,2.627.235C281.695,155.235,283.521,156.566,284.218,156.408Z" transform="translate(-271.233 -132.312)"/></g></g></g></svg>