<svg xmlns="http://www.w3.org/2000/svg" width="263" height="215" viewBox="0 0 263 215">
    <g fill="none" fill-rule="nonzero">
        <path fill="#737373" d="M257 124.64v.488a86.12 86.12 0 0 1-.502 8.429.297.297 0 0 1 0 .05c-.024.234-.051.464-.078.697a84.68 84.68 0 0 1-3.237 15.313 76.196 76.196 0 0 1-8.067 17.748 67.954 67.954 0 0 1-3.38 4.924 64.46 64.46 0 0 1-3.403 4.142l-.305.338a79.481 79.481 0 0 1-8.308 7.888c-4.824 3.995-10.017 7.47-15.294 10.694-.3.185-.603.367-.906.536a.442.442 0 0 1-.067.04c-7.171 4.332-14.608 8.242-22.27 11.372-8.388 3.435-17.05 5.934-25.936 7.026-12.386 1.52-24.923.284-37.234-1.842a242.147 242.147 0 0 1-30.283-7.23l-1.635-.511c-.847-.27-1.693-.545-2.538-.825a222.35 222.35 0 0 1-15.141-5.623 199.085 199.085 0 0 1-35.731-19.17c-1.43-.96-2.838-1.941-4.226-2.945a184.057 184.057 0 0 1-5.751-4.31l-1.169-.906a120.091 120.091 0 0 1-13.887-12.742C11.885 151.95 6.957 144.875 3.717 136.8a58.5 58.5 0 0 1-1.405-3.88l-.04-.132a39.047 39.047 0 0 1-.595-2.035 45.94 45.94 0 0 1-.705-3.025 50.622 50.622 0 0 1-.96-11.013c.068-3.062.427-6.11 1.073-9.104a41.046 41.046 0 0 1 3.036-8.99 32.396 32.396 0 0 1 4.645-7.156 27.387 27.387 0 0 1 4.376-4.086c2.908-2.164 6.131-3.671 9.473-4.863a76.758 76.758 0 0 1 4.762-1.513c1.134-.327 2.273-.637 3.407-.942l3.344-.903a209.124 209.124 0 0 0 6.4-1.831c5.756-1.757 11.397-3.883 16.615-7.053.825-.5 1.667-1.05 2.508-1.639a44.937 44.937 0 0 0 3.173-2.426 43.534 43.534 0 0 0 3.53-3.299 37.537 37.537 0 0 0 2.307-2.653c.354-.45.697-.908 1.024-1.374.453-.645.882-1.301 1.278-1.976 1.989-3.374 3.216-7.096 3.071-11.018-.02-.647-.079-1.291-.174-1.93-.348-2.365-.683-4.673-.93-6.93-1.034-9.337-.597-17.804 6.416-25.76C88.066 1.382 101.753-.634 114.21.156c36.02 2.276 68.812 22.824 97.629 47.287a385.1 385.1 0 0 1 7.386 6.426 493.74 493.74 0 0 1 1.84 1.65c4.557 4.099 9.043 8.351 13.22 12.906.338.37.676.739 1.008 1.11.204.231.41.459.611.692a110.948 110.948 0 0 1 3.792 4.525 85.72 85.72 0 0 1 8.662 13.12 74.44 74.44 0 0 1 7.605 23.207c.467 2.942.774 5.907.92 8.882.045.876.075 1.754.09 2.63v.84c.026.407.026.803.026 1.21z" opacity=".1"/>
        <path fill="#3F3D56" d="M105.862 121.066L102 196.944l3.862.056L109 120z"/>
        <path fill="#BFBFBF" d="M37 159h53v12H37z"/>
        <path fill="#3F3D56" d="M94 168v8H38.793A187.938 187.938 0 0 1 33 171.23V168h61z"/>
        <path fill="#35323E" d="M103.63 152.837c-.15.692-.346 1.376-.553 2.057-.609 1.97-1.341 3.913-1.483 5.96-.19 2.704.536 5.85-1.341 7.814-.483.508-1.114.887-1.545 1.43a2.504 2.504 0 0 0-.183.267c-.386.636-.432 1.411-.437 2.138.004 1.55.106 3.099.303 4.637.636 5.291 1.891 10.593.241 15.588a23.98 23.98 0 0 1-1.043 2.542c-.805 1.763-1.682 3.503-1.945 5.414-.193 1.416-.134 2.876-.145 4.316a221.69 221.69 0 0 1-2.54-.823 222.973 222.973 0 0 1-15.156-5.612c.014-.072.027-.147.038-.22.383-2.378-.142-4.81-.78-7.13-1.342-4.914-3.241-9.78-4.365-14.73-.453-1.933-.75-3.9-.888-5.88-.032-.443-.051-.89-.054-1.336-.013-.582 0-1.165.024-1.753.057-1.173.108-2.565-.834-3.279-.518-.387-1.202-.454-1.805-.69-1.164-.451-1.961-1.499-2.884-2.338a3.789 3.789 0 0 0-3.377-.989c-6.03 1.377-10.462 6.473-16.073 9.05-.218.1-.435.197-.655.288a9.55 9.55 0 0 0-2.057 1.048c-.45.31-.777.77-.923 1.296-.142.566-.019 1.16.051 1.742a8.864 8.864 0 0 1-.12 2.841c-.073.362-.17.72-.288 1.069-.214.633-.501 1.253-.775 1.87a151 151 0 0 1-4.23-2.939 184.192 184.192 0 0 1-5.757-4.303l-1.15-.922A120.077 120.077 0 0 1 17 158.542c.571-1.603 1.398-3.095 1.795-4.738.225-.943.308-1.924.62-2.84.358-.951.857-1.843 1.48-2.647a35.878 35.878 0 0 1 8.246-8.22c3.323-2.373 7.162-4.276 10.153-6.97a15.978 15.978 0 0 0 3.103-3.664c.051-.083.1-.17.143-.267a5.53 5.53 0 0 0 .48-1.529c.214-1.197.182-2.512.29-3.66 3.643.628 7.358.74 11.032.33 4.279-.478 8.464-1.662 12.742-2.121.322-.038.647-.067.971-.094 1.37-.11 2.744-.134 4.12-.118 1.151 0 2.302.051 3.453.089l12.669.427c1.403.048 2.835.102 4.142.612 1.55.607 2.792 1.815 3.787 3.143a16.279 16.279 0 0 1 2.323 4.364c.051.14.1.267.145.42.12.371.225.745.32 1.125.072.296.136.593.195.892.295 1.481.47 2.994.936 4.423.033.105.067.209.105.31.56 1.566 1.491 2.97 2.194 4.474a16.751 16.751 0 0 1 1.186 10.553z"/>
        <path fill="#BFBFBF" d="M65.56 56.446c-1.135-.907-2.78-.243-4.107.342-1.113.494-2.26.91-3.43 1.244-.24.093-.499.12-.752.079-.538-.13-.763-.77-1.164-1.158-.696-.672-1.835-.513-2.733-.148-.898.364-1.784.89-2.747.81-1.026-.082-1.918-.843-2.956-.867-1.827-.043-3.362 2.218-5.09 1.619-1.053-.364-1.881-1.74-2.918-1.35-.807.308-.88 1.428-1.366 2.16-.572.852-1.687 1.092-2.641 1.47-3.008 1.193-5 4.558-4.607 7.78.218 1.778 1.075 3.408 1.642 5.106 1.683 4.935 1.105 10.502 3.225 15.263.269-.254.42-.348.68-.6a6.268 6.268 0 0 0-.363 4.48c.223.748.586 1.444.86 2.175.285.82.515 1.659.688 2.51l2.338 10.357c.914 4.048 1.83 8.095 1.99 12.24a35.867 35.867 0 0 1-.614 8.042c4.236-.704 8.111-2.59 12.403-2.566 1.575 0 3.136.27 4.698.485 4.552.64 9.144.953 13.74.937.716.04 1.432-.06 2.108-.297.591-.254 1.075-.704 1.634-1.03 1.094-.649 2.419-.81 3.68-.81 5.748-.106 11.286 2.007 16.997 2.752 2.255-4.752 2.39-10.446.659-15.414-.514-1.476-1.204-2.914-1.408-4.466a22.685 22.685 0 0 1-.065-2.869 20.885 20.885 0 0 0-1.298-7.172c-.333-.899-.734-1.814-.699-2.772.035-.958.505-1.85.968-2.698.938-1.727 1.881-3.47 3.206-4.928 1.357-1.506 3.056-2.652 4.735-3.778L107 80.58c-.567-3.598-1.298-7.386-2.816-10.695-1.519-3.308-3.79-6.35-6.862-8.284a22.634 22.634 0 0 0-3.24-1.62c-1.57-.663-3.204-1.249-4.905-1.349-1.935-.11-3.84.41-5.752.734-6.014 1.018-13.093.894-17.866-2.92z"/>
        <path fill="#3F3D56" d="M111 118.248l-1.966 2.581-3.706 4.866-4.285 5.623-1.197 1.57h-2.322l-57.496.07L4.02 133H2.414a41.886 41.886 0 0 1-.595-2.117 49.437 49.437 0 0 1-.704-3.147c-.043-.203-.08-.406-.115-.612l13.064-8.882 4.911-.028L34 118.125l8.39-.05H44.884l5.592-.03 42.62-.254 2.18-.014h.945l2.504-.014 9.317-.056 1.789-.707.13.145 1.04 1.103z"/>
        <path fill="#504F60" d="M110 117.746l-.222.273-1.462 1.758-3.008 3.627L98.999 131l-55.886-1.457L.971 128.45a52.792 52.792 0 0 1-.958-11.243l4.673-2.444 1.07-.563 8.333-4.373L21.4 106l19.073 2.531 4.224.56 1.91.252 2.798.372.235.033 43.86 5.808 4.848.642 2.845.378 8.769 1.164.037.006z"/>
        <path fill="#3F3D56" d="M101 130l-.043 1.05-.25 5.93-1.347 32.603-.286 7.047-.751 18.13-.424 10.24-1.527-.51c-.792-.27-1.582-.544-2.372-.824l3.664-71.084.078-1.492 1.613-.534L101 130zM4 130l-.103 2.845L3.745 137a69.174 69.174 0 0 1-1.201-4.014l-.035-.136A47.016 47.016 0 0 1 2 130.745L4 130z"/>
        <ellipse cx="74.5" cy="72.5" fill="#A1616A" rx="12.5" ry="16.5"/>
        <ellipse cx="74.5" cy="72.5" fill="#000" opacity=".1" rx="12.5" ry="16.5"/>
        <circle cx="76" cy="63" r="17" fill="#A1616A"/>
        <path fill="#464353" d="M75.992 36.377c-1.05.083-2.09.24-3.117.469-2.717.65-5.066 2.096-7.353 3.515-1.026.638-2.08 1.302-2.717 2.24-1.143 1.68-.7 3.82-1.342 5.686-.333.958-.945 1.818-1.463 2.71-1.426 2.446-2.172 5.133-2.905 7.794-.15.55-.193 1.297.416 1.508a1.7 1.7 0 0 0 1.042-.116c1.925-.627 4.37-.807 5.799.466 1.428 1.273 1.307 3.531 3.006 4.5 1.947 1.12 4.985-.233 6.752 1.088.757.566 1.03 1.474 1.65 2.157 1.445 1.589 4.224 1.512 6.535 1.192 1.326-.186 2.953-.31 3.758.609.387.434.497 1.03.945 1.421.806.71 2.28.35 3.066-.379.787-.727 1.162-1.712 1.818-2.53 1.275-1.588 3.516-2.454 4.832-4.024 1.1-1.323 1.433-2.98 1.734-4.58l1.12-5.926c.453-2.404.866-5.03-.505-7.148-.489-.762-1.19-1.419-1.611-2.208-.282-.529-.44-1.088-.768-1.588a6.64 6.64 0 0 0-1.377-1.371l-2.65-2.163a22.264 22.264 0 0 0-2.896-2.118c-3.783-2.173-9.447-1.601-13.77-1.204z"/>
        <path fill="#A1616A" d="M20.242 81.222c-.623.678-1.198 1.41-1.866 2.045a22.703 22.703 0 0 1-1.84 1.507 70.237 70.237 0 0 0-3.022 2.452 17.136 17.136 0 0 0-2.77 2.833c-1.404 1.93-2.069 4.33-3.383 6.324-1.162 1.768-2.799 3.164-3.979 4.919a7.69 7.69 0 0 0-1.135 2.44 11.601 11.601 0 0 0-.234 2.581c-.024 1.42-.045 2.858.239 4.25.284 1.39.907 2.757 1.974 3.67.99.847 2.27 1.237 3.524 1.56.647.164 1.346.318 1.96.057.45-.233.841-.57 1.141-.985l3.199-3.767c2.14-2.53 4.363-5.113 7.299-6.593.92-.46 1.89-.807 2.812-1.254 3.91-1.93 6.676-5.88 7.748-10.185.263-1.052.431-2.126.602-3.2l.462-2.944a.96.96 0 0 0 0-.45.963.963 0 0 0-.336-.408 56.32 56.32 0 0 1-6.24-6.028c-.457-.516-.885-1.224-1.414-1.657-.662-.539-.612-.498-1.408 0a16.989 16.989 0 0 0-3.333 2.833z"/>
        <path fill="#3F3D56" d="M42.244 100.298a.533.533 0 0 0-.444-.296.549.549 0 0 0-.492.222.467.467 0 0 0-.024.507l-.284.13L49.47 117l1.53-.694-8.47-16.15-.286.142z"/>
        <path fill="#000" d="M20.242 81.222c-.623.678-1.198 1.41-1.866 2.045a22.703 22.703 0 0 1-1.84 1.507 70.237 70.237 0 0 0-3.022 2.452 17.136 17.136 0 0 0-2.77 2.833c-1.404 1.93-2.069 4.33-3.383 6.324-1.162 1.768-2.799 3.164-3.979 4.919a7.69 7.69 0 0 0-1.135 2.44 11.601 11.601 0 0 0-.234 2.581c-.024 1.42-.045 2.858.239 4.25.284 1.39.907 2.757 1.974 3.67.99.847 2.27 1.237 3.524 1.56.647.164 1.346.318 1.96.057.45-.233.841-.57 1.141-.985l3.199-3.767c2.14-2.53 4.363-5.113 7.299-6.593.92-.46 1.89-.807 2.812-1.254 3.91-1.93 6.676-5.88 7.748-10.185.263-1.052.431-2.126.602-3.2l.462-2.944a.96.96 0 0 0 0-.45.963.963 0 0 0-.336-.408 56.32 56.32 0 0 1-6.24-6.028c-.457-.516-.885-1.224-1.414-1.657-.662-.539-.612-.498-1.408 0a16.989 16.989 0 0 0-3.333 2.833z" opacity=".04"/>
        <path fill="#A1616A" d="M111.988 111.186c-.027 1.694-.094 3.44-.807 4.985-.307.67-.783 1.328-1.497 1.549a3.528 3.528 0 0 1-1.316.048A48.161 48.161 0 0 0 92.626 119c1.373-2.71.584-5.958.964-8.964.105-.821.296-1.629.368-2.452.27-2.922-.998-5.759-1.58-8.643a19.088 19.088 0 0 1 0-7.565c.1-.642.323-1.26.66-1.82a4.311 4.311 0 0 1 1.512-1.298c2.18-1.224 4.75-1.365 7.2-1.203 1.65.109 4.958-.045 6.333.956 1.504 1.097 1.98 4.781 2.387 6.484a54.177 54.177 0 0 1 1.238 7.933c.264 2.912.32 5.836.28 8.758z"/>
        <path fill="#FFF" d="M16 117l9.636 6L69 121.5 40.359 117z"/>
        <path fill="#BFBFBF" d="M29.191 65.62c-1.589 1.375-2.936 2.996-4.442 4.461-2.065 2.012-4.412 3.723-6.749 5.426a4.977 4.977 0 0 1 3.496 3.459c.102.388.153.792.268 1.172.27.9.861 1.677 1.496 2.377 2.726 3.017 6.542 5.251 8.15 8.977a.83.83 0 0 0 .322.449.72.72 0 0 0 .417.047c1.455-.15 2.568-1.302 3.496-2.421 1.936-2.376 3.616-5 4.57-7.9.955-2.899 1.109-6.104.068-8.977-.519-1.431-1.32-2.746-2.116-4.048l-2.087-3.41c-.363-.6-.825-1.817-1.538-2.113-1.538-.65-4.364 1.531-5.35 2.5zM106.744 83.269L109 88.475a16.64 16.64 0 0 0-14.817 2.018c-1.286.903-2.466 2.038-3.046 3.48a1.562 1.562 0 0 1-1.535-.59 2.988 2.988 0 0 1-.567-1.594c-.21-2 .562-3.96 1.325-5.828.355-.875.721-1.768 1.352-2.479.63-.71 1.469-1.179 2.306-1.621a51.835 51.835 0 0 1 8.363-3.63c1.22-.387 2.497-.38 3.181.74.793 1.336.562 2.877 1.182 4.298z"/>
        <path fill="#A1616A" d="M15.919 99.816c.571.452 1.072.986 1.66 1.416.62.427 1.281.794 1.972 1.097l2.644 1.258c.819.422 1.676.767 2.56 1.03 1.131.301 2.319.33 3.455.61 1.434.35 2.745 1.08 4.158 1.502 1.413.423 3.067.492 4.246-.387.737-.55 1.295-1.458 2.21-1.594.589-.077 1.157.205 1.683.478l6.878 3.583c.928.483 1.91 1.02 2.394 1.941.486.922.159 2.321-.863 2.56-.356.04-.714.061-1.072.061-.354.043-.74.25-.788.603-.002.22.056.435.169.624.308.702.4 1.54.04 2.22-.36.68-1.241 1.103-1.946.797.12 1.028-1.008 1.748-2.014 2.022-2.536.687-5.224.265-7.817-.17-1.018-.17-2.053-.346-2.98-.797-.446-.215-.858-.491-1.309-.69-1.236-.545-2.64-.473-3.991-.45-6.25.11-12.444-1.038-18.589-2.18-1.139-.212-2.31-.438-3.283-1.062-1.877-1.211-2.574-3.697-2.266-5.896.309-2.2 1.434-4.191 2.542-6.124l1.434-2.505c.187-.384.45-.727.772-1.01 2.11-1.595 6.294-.376 8.101 1.063z"/>
        <path fill="#000" d="M15.919 99.816c.571.452 1.072.986 1.66 1.416.62.427 1.281.794 1.972 1.097l2.644 1.258c.819.422 1.676.767 2.56 1.03 1.131.301 2.319.33 3.455.61 1.434.35 2.745 1.08 4.158 1.502 1.413.423 3.067.492 4.246-.387.737-.55 1.295-1.458 2.21-1.594.589-.077 1.157.205 1.683.478l6.878 3.583c.928.483 1.91 1.02 2.394 1.941.486.922.159 2.321-.863 2.56-.356.04-.714.061-1.072.061-.354.043-.74.25-.788.603-.002.22.056.435.169.624.308.702.4 1.54.04 2.22-.36.68-1.241 1.103-1.946.797.12 1.028-1.008 1.748-2.014 2.022-2.536.687-5.224.265-7.817-.17-1.018-.17-2.053-.346-2.98-.797-.446-.215-.858-.491-1.309-.69-1.236-.545-2.64-.473-3.991-.45-6.25.11-12.444-1.038-18.589-2.18-1.139-.212-2.31-.438-3.283-1.062-1.877-1.211-2.574-3.697-2.266-5.896.309-2.2 1.434-4.191 2.542-6.124l1.434-2.505c.187-.384.45-.727.772-1.01 2.11-1.595 6.294-.376 8.101 1.063z" opacity=".04"/>
        <path fill="#A1616A" d="M97.74 103.92c-1.384.659-2.974.723-4.42 1.228-1.446.506-2.674 1.415-4 2.156-3.456 1.94-7.443 2.674-11.359 3.372-2.374.427-4.785.855-7.177.754-3.238-.14-6.348-1.225-9.484-2.043-3.137-.819-6.484-1.37-9.591-.45a10.824 10.824 0 0 0-7.044 6.8c-.652 1.923-.742 3.996-.617 6.023.654.484 1.568-.187 1.924-.923.357-.735.55-1.636 1.242-2.064 1.199.409 1.491 2.016 2.48 2.81.617.498 1.44.629 2.225.741l4.04.578c.973.139 2.103.232 2.807-.458.343-.334.532-.802.846-1.16.643-.717 1.717-.84 2.674-.744 2.988.3 5.79 2.25 8.756 1.787 1.02-.158 1.97-.597 2.942-.942 5.766-2.048 12.172-.802 18.172-1.976 2.288-.446 4.492-1.238 6.669-2.072 1.183-.452 2.38-.925 3.39-1.69a7.196 7.196 0 0 0 2.753-6.367 7.291 7.291 0 0 0-2.554-4.717c-.468-.402-1.082-1.17-1.643-1.42-1.071-.474-2.121.347-3.03.778z"/>
        <g fill="#000" opacity=".1">
            <path d="M90.114 69.18c-.442-.399-.551-1.004-.933-1.445-.794-.933-2.4-.807-3.708-.618-2.28.325-5.033.4-6.448-1.21-.612-.694-.882-1.614-1.629-2.192-1.743-1.345-4.742.032-6.662-1.105-1.677-.993-1.568-3.294-2.967-4.572-1.399-1.277-3.823-1.11-5.722-.473-.321.15-.682.191-1.028.118-.601-.215-.559-.973-.41-1.532.723-2.703 1.46-5.432 2.866-7.917.511-.906 1.115-1.78 1.444-2.754.574-1.705.28-3.633 1.035-5.246-.81.538-1.59 1.124-2.09 1.882-1.128 1.708-.691 3.88-1.324 5.776-.329.974-.933 1.848-1.444 2.754-1.407 2.485-2.143 5.214-2.866 7.917-.149.559-.19 1.317.41 1.532.347.073.707.032 1.028-.118 1.9-.637 4.313-.82 5.722.473 1.41 1.294 1.29 3.588 2.967 4.572 1.92 1.137 4.92-.237 6.662 1.105.747.576 1.017 1.498 1.63 2.192 1.425 1.613 4.166 1.535 6.447 1.21 1.309-.188 2.914-.315 3.709.618.381.441.49 1.046.932 1.444.795.72 2.25.355 3.025-.384a8.149 8.149 0 0 0 1.266-1.759c-.688.213-1.422.18-1.912-.269zM94.94 66.221c-.17.223-.329.456-.474.697 1.017-.737 2.096-1.426 2.856-2.364.197-.243.374-.502.53-.775-1.057.77-2.16 1.477-2.912 2.442z"/>
        </g>
        <path fill="#3F3D56" d="M148 120l.882 77 4.118-.537-.882-76.463zM171 133l.882 77 4.118-.537-.882-76.463zM241 172.571l-.015-1.466v-.872l-.137-13.428-.213-20.993-.036-1.812H237l.018 1.745.113 11.244.049 4.868.041 3.942.067 6.815.041 4.02v.425l.054 5.283.046 4.658.293-.335c.472-.545.933-1.098 1.383-1.66L241 172.57z"/>
        <path fill="#BFBFBF" d="M167.145 146L165 149.223l2.145 14.686 18.233 5.016h29.495L232.57 170l8.43-5.8-1.459-9.961-6.435-8.239z"/>
        <path fill="#3F3D56" d="M164.296 150l-1.073 8.785s-5.634 17.224 39.708 16.168c45.342-1.055 37.561-4.57 37.561-4.57l-.268-10.191s1.58 4.823-21.464 4.17c-23.044-.653-44.537-2.763-44.537-2.763s-8.049 1.404-9.927-11.599z"/>
        <path fill="#FBBEBE" d="M202.869 69.182c-2.59 1.17-4.55 3.435-5.863 5.941-1.313 2.506-2.052 5.257-2.78 7.989-.768 2.881-1.539 5.77-1.936 8.724-.709 5.25-.177 10.771 2.256 15.487 2.433 4.716 6.929 8.521 12.193 9.43 2.033.354 4.122.282 6.177.071a50.59 50.59 0 0 0 10.906-2.383c3.693-1.238 7.536-3.145 9.18-6.657.953-2.037 1.034-4.36.988-6.602a69.676 69.676 0 0 0-2.769-18.051c-.497-1.705-1.074-3.422-2.127-4.858-1.053-1.435-2.492-2.487-3.961-3.461-6.282-4.194-14.538-9.113-22.264-5.63z"/>
        <path fill="#000" d="M202.869 69.182c-2.59 1.17-4.55 3.435-5.863 5.941-1.313 2.506-2.052 5.257-2.78 7.989-.768 2.881-1.539 5.77-1.936 8.724-.709 5.25-.177 10.771 2.256 15.487 2.433 4.716 6.929 8.521 12.193 9.43 2.033.354 4.122.282 6.177.071a50.59 50.59 0 0 0 10.906-2.383c3.693-1.238 7.536-3.145 9.18-6.657.953-2.037 1.034-4.36.988-6.602a69.676 69.676 0 0 0-2.769-18.051c-.497-1.705-1.074-3.422-2.127-4.858-1.053-1.435-2.492-2.487-3.961-3.461-6.282-4.194-14.538-9.113-22.264-5.63z" opacity=".05"/>
        <path fill="#BFBFBF" d="M199.627 103.26a12.22 12.22 0 0 0 2.684 2.701c2.555 1.777 5.834 2.018 8.936 2.115 2.49.075 5.346-.068 6.908-2.023.703-.88 1.02-2.004 1.304-3.098a138.204 138.204 0 0 0 3.73-20.464l7.107.024c3.076 13.253 2.823 27.03 2.555 40.64l-.39 19.845-4.577-.489c-10.872-1.158-21.76-2.317-32.69-2.517-6.405-.119-12.811.094-19.194.637l9.97-29.833c1.293-3.878 2.6-7.808 2.904-11.883.437-5.912-1.21-12.154 1.073-17.623.183-.44.413-.897.83-1.126.415-.23.941-.173 1.419-.111.902.122 3.658 0 4.313.58.966.843.327.97-.014 2.329-.609 2.43-1.186 4.68-1.178 7.214.008 4.6 1.425 9.455 4.31 13.082z"/>
        <path fill="#464353" d="M240.592 172.522a67.435 67.435 0 0 0 3.373-4.941c-.535-1.15-1.123-2.274-1.592-3.448-.717-1.8-1.129-3.708-1.535-5.603-.14-.645-.278-1.29-.415-1.935-1.498-7.016-2.905-14.132-3.197-21.245a53.51 53.51 0 0 1-.05-1.773v-.269-1.94a52.019 52.019 0 0 1 .435-5.807c0-.07.016-.137.027-.207l18.193-.667 1.53-.056c1.052-.038 2.165-.097 3.032-.696 1.458-1.005 1.63-3.066 1.605-4.837a72.093 72.093 0 0 0-1.509-13.315c-.69-3.295-1.675-6.662-3.885-9.193-1.814-2.08-4.441-3.593-5.385-6.18-.35-.963-.44-2.019-.894-2.938-.455-.919-1.207-1.593-1.916-2.303a32.062 32.062 0 0 1-6.126-8.523c-1.084-2.193-2.259-4.612-3.674-6.127-.07-.078-.139-.15-.211-.22-1.204-1.196-2.582-1.72-4.214-.906a5.393 5.393 0 0 0-.835.521c-.581.447-1.113.955-1.586 1.516a36.28 36.28 0 0 0-4.316 6.18 34.423 34.423 0 0 0-2.205 4.837 33.459 33.459 0 0 0-1.19 4.031 37.314 37.314 0 0 0-.557 3.064c-.535 3.858-.535 7.792-.46 11.7.08 3.59.238 7.188.562 10.765.08.865.17 1.73.268 2.593.196 1.707.438 3.409.727 5.105.115.648.233 1.296.364 1.94.032.173.067.345.102.514l.016.072c.353 1.5.628 3.016.821 4.544.022.192.038.383.048.573a22.22 22.22 0 0 1-.02 2.636c-.062 1.037-.159 2.072-.207 3.109 0 .183 0 .363-.019.537-.013.524 0 1.048 0 1.572a25.02 25.02 0 0 0 .444 3.733 24.214 24.214 0 0 0 2.625 7.14c1.357 2.435 3.069 4.668 4.324 7.159a30.995 30.995 0 0 1 2.408 7.043c.178.804.347 1.61.508 2.418.249 1.29.47 2.59.698 3.891.022.13.046.27.07.387.302 1.726.62 3.443 1.03 5.128.238.98.505 1.948.818 2.899l1.97-2.478z"/>
        <path fill="#45548F" d="M237.986 152.028c0 .24-.016.481-.027.724a33.918 33.918 0 0 1-.326 3.501 22.602 22.602 0 0 1-1.168 4.645 15.599 15.599 0 0 1-1.39 2.833 13.082 13.082 0 0 1-1.732 2.209c-1.617 1.666-3.947 2.198-6.2 2.9-1.038.298-2.04.703-2.99 1.21-.17.093-.338.195-.5.302l-2.82 1.85c-.879.575-1.776 1.17-2.38 2.022a4.344 4.344 0 0 0-.27.452c-.382.784-.66 1.613-.83 2.467-1.467 6.052-2.936 12.109-3.942 18.251-.067.406-.132.815-.202 1.224l-.024.128a.662.662 0 0 0-.044-.088c-7.214 4.32-14.696 8.22-22.404 11.342l-1.674-13.887a16.642 16.642 0 0 1-.173-3.414c.16-1.797.898-3.5 1.098-5.293a8.946 8.946 0 0 0-.963-5.093c-.318-.609-.717-1.207-.79-1.888-.073-.68.324-1.303 1.014-1.373.539-.592.582-1.402.423-2.203a6.365 6.365 0 0 0-.377-1.22c-.459-1.117-1.038-2.332-.645-3.472.104-.207.15-.437.135-.668a.108.108 0 0 0 0-.043c-.092-.299-.45-.43-.636-.683-.35-.473 0-1.117.215-1.661.21-.586.332-1.199.362-1.82.03-.344.051-.69.089-1.033.052-.462.136-.92.25-1.372a10.836 10.836 0 0 1 4.43-6.282c1.049-.7 2.216-1.21 3.287-1.87a30.07 30.07 0 0 0 3.132-2.403 97.465 97.465 0 0 1 7.407-5.539 93.729 93.729 0 0 1 8.552-5.144c.629-.336 1.258-.664 1.887-.982a47.084 47.084 0 0 1 2.068-1.012c2.221-1.05 4.742-.657 7.198.042 1.03.291 2.047.639 3.028.954.958.308 1.88.718 2.75 1.223 2.176 1.266 3.974 3.135 4.72 5.496a.288.288 0 0 1 0 .045c.475 1.48.505 3.066.462 4.623z"/>
        <path fill="#0C2A9D" d="M237.986 152.028c0 .24-.016.481-.027.724a33.918 33.918 0 0 1-.326 3.501 22.602 22.602 0 0 1-1.168 4.645 15.599 15.599 0 0 1-1.39 2.833 13.082 13.082 0 0 1-1.732 2.209c-1.617 1.666-3.947 2.198-6.2 2.9-1.038.298-2.04.703-2.99 1.21-.17.093-.338.195-.5.302l-2.82 1.85c-.879.575-1.776 1.17-2.38 2.022a4.344 4.344 0 0 0-.27.452c-.382.784-.66 1.613-.83 2.467-1.467 6.052-2.936 12.109-3.942 18.251-.067.406-.132.815-.202 1.224l-.024.128a.662.662 0 0 0-.044-.088c-7.214 4.32-14.696 8.22-22.404 11.342l-1.674-13.887a16.642 16.642 0 0 1-.173-3.414c.16-1.797.898-3.5 1.098-5.293a8.946 8.946 0 0 0-.963-5.093c-.318-.609-.717-1.207-.79-1.888-.073-.68.324-1.303 1.014-1.373.539-.592.582-1.402.423-2.203a6.365 6.365 0 0 0-.377-1.22c-.459-1.117-1.038-2.332-.645-3.472.104-.207.15-.437.135-.668a.108.108 0 0 0 0-.043c-.092-.299-.45-.43-.636-.683-.35-.473 0-1.117.215-1.661.21-.586.332-1.199.362-1.82.03-.344.051-.69.089-1.033.052-.462.136-.92.25-1.372a10.836 10.836 0 0 1 4.43-6.282c1.049-.7 2.216-1.21 3.287-1.87a30.07 30.07 0 0 0 3.132-2.403 97.465 97.465 0 0 1 7.407-5.539 93.729 93.729 0 0 1 8.552-5.144c.629-.336 1.258-.664 1.887-.982a47.084 47.084 0 0 1 2.068-1.012c2.221-1.05 4.742-.657 7.198.042 1.03.291 2.047.639 3.028.954.958.308 1.88.718 2.75 1.223 2.176 1.266 3.974 3.135 4.72 5.496a.288.288 0 0 1 0 .045c.475 1.48.505 3.066.462 4.623z" opacity=".1"/>
        <path fill="#3F3D56" d="M212.244 107.298a.533.533 0 0 0-.444-.296.549.549 0 0 0-.492.222.467.467 0 0 0-.024.507l-.284.13L219.47 124l1.53-.694-8.47-16.15-.286.142z"/>
        <circle cx="222" cy="72" r="17" fill="#FBBEBE"/>
        <path fill="#464353" d="M245.978 62.506a22.704 22.704 0 0 0-.614-4.066c-1.023-4.357-2.892-8.646-6.11-11.775a23.431 23.431 0 0 0-.728-2.314 25.239 25.239 0 0 0-4.108-7.213c-1.02-1.256-2.342-2.495-3.968-2.544-.457-.016-.941.062-1.36-.145a2.436 2.436 0 0 1-.759-.771 7.159 7.159 0 0 0-6.898-2.557l-.168.035c-.096.019-.19.04-.272.065-.082.024-.229.064-.343.1a23.451 23.451 0 0 1 1.265 2.368c.228.496.44 1 .633 1.511-2.785.316-5.053 2.274-7.126 4.14l-4.88 4.386a.206.206 0 0 0-.024.024l-.142.135c-.035.035-.07.07-.103.107a.233.233 0 0 0-.035.038 2.03 2.03 0 0 0-.3.404.986.986 0 0 0-.09.167.989.989 0 0 0-.045.114.037.037 0 0 0 0 .016.623.623 0 0 0-.02.067.801.801 0 0 0 .047.571l3.217.035h.379l.046 1.28c-.51.379-1.001.784-1.469 1.213-.51.468-.99.968-1.433 1.498-2.903 3.473-4.418 7.96-4.57 12.475v1.649c0 .27.024.54.046.809.002.35.095.695.272 1a.928.928 0 0 0 .076.096c.164.176.36.319.577.42l.234.114c.117.057.228.11.337.172 1.026.574 1.632 1.682 2.565 2.393.055.04.109.08.163.116l.123.08.076.05.103.059c.068.04.138.077.21.11l.13.065h.022c.109.048.218.094.33.134l.154.054.046.017c.044.013.09.03.136.04.093.027.184.051.272.073l.272.059c.107.019.215.038.324.051l.16.022.164.016c.26.023.52.037.783.04.825-.005 1.65-.061 2.467-.17l6.942-.808c1.574-.18 3.182-.36 4.735-.043 1.316.27 2.53.89 3.808 1.328.288.1.577.192.868.27.106.03.215.062.323.089l.15.038.348.083a18.206 18.206 0 0 0 .903.186c.12.024.242.043.365.065h.024l.348.054h.085l.258.035a26.153 26.153 0 0 0 1.21.137c.45.043.9.075 1.36.102l.452.027.451.022 1.36.06h.25c.566.038 1.134.01 1.692-.087.098-.019.194-.04.289-.067.095-.027.174-.054.272-.087 1.02-.388 1.765-1.28 2.282-2.233a9.115 9.115 0 0 0 .802-2.035c.022-.072.041-.145.057-.22.017-.076.055-.224.076-.337.068-.31.12-.623.158-.938 0-.1.025-.202.036-.302.024-.27.043-.52.054-.784v-.604c-.003-.218-.022-.506-.022-.784zm-6.974-16.086c-.22-.205-.446-.401-.674-.587.254.159.48.357.671.587h.003zM189.269 71.377c-1.993-.248-3.97-1.13-5.937-.697-1.231.267-2.29 1.039-3.275 1.831a40.05 40.05 0 0 0-9.203 10.611 5.63 5.63 0 0 0-.85 2.008c-.127.833.098 1.679.365 2.477 1.81 5.395 5.683 9.9 7.446 15.312 1.853 5.691 1.21 11.91-.156 17.74a74.505 74.505 0 0 1-8.163 20.475 11.672 11.672 0 0 1-1.88 2.595c-.963.934-2.258 1.601-2.83 2.824-.264.534-.34 1.143-.529 1.714-.53 1.601-1.81 2.974-1.935 4.663-.092 1.29.514 2.51.882 3.737.62 2.11.554 4.365-.188 6.434-1.342 3.71-4.852 7.084-3.833 10.899 2.274-.66 4.794-1.516 5.866-3.644.378-.753.566-1.65 1.204-2.2 1.273-1.091 3.441-.103 4.794-1.107 1.022-.764 1.059-2.328.603-3.53-.455-1.2-1.238-2.257-1.588-3.493-.609-2.23.365-4.586.185-6.89-.084-1.068-.41-2.09-.434-3.153-.045-2.063 1.088-4.004 2.594-5.405 1.507-1.402 3.367-2.33 5.2-3.246l6.924-3.47c2.512-1.255 5.265-2.785 6.088-5.486.312-1.012.315-2.09.33-3.147.236-16.153 4.25-31.98 8.238-47.625.62-2.424 1.25-4.859 2.17-7.187.922-2.327 2.724-4.196 3.643-6.358-5.328-.63-10.196 4.017-15.731 3.318z"/>
        <path fill="#45548F" d="M228.71 173.38c.619 3.728.996 7.536 1.29 11.325-4.814 3.973-9.997 7.429-15.264 10.635-.3.183-.601.364-.903.532l-.025.128a.662.662 0 0 0-.042-.088 4.017 4.017 0 0 0-2.012-1.976l-5.916-12.38c-1.07-2.23-2.14-4.48-2.674-6.884 0-.05-.024-.104-.032-.154-.407-1.864-.5-3.8-.77-5.688a16.367 16.367 0 0 0-.73-3.179c-.322-.919-.763-1.81-1.153-2.708-.482-1.108-.886-2.229-.904-3.424 0-.38.024-.799-.164-1.118a2.907 2.907 0 0 0-.73-.703 2.765 2.765 0 0 1-.898-2.533c-1.605.083-2.509 1.8-3.154 3.257a17.734 17.734 0 0 1-2.289 3.994 7.601 7.601 0 0 1-2.535 2.1c-.089.043-.177.086-.268.123-2.233.98-4.84.634-7.261.192-2.116-.386-4.304-.865-6.005-2.175l-.181-.144a7.834 7.834 0 0 1-1.338-1.422c-1.425-1.939-2.056-4.492-2.407-6.923-.032-.229-.064-.458-.093-.687a25.494 25.494 0 0 1-.2-5.187c.031-.426.077-.852.133-1.275.037-.267.077-.554.123-.831a.074.074 0 0 1 0-.024c.07-.44.144-.881.22-1.331.267-1.51.534-3.06 1.336-4.36a8.269 8.269 0 0 1 1.969-2.097c.289-.227.586-.442.885-.65.487-.335.987-.655 1.495-.956a25.89 25.89 0 0 1 5.018-2.306 7.926 7.926 0 0 1 4.086-.322 21.6 21.6 0 0 0 3.659.213c3.137-.061 6.288-.658 9.42-1.044 4.348-.532 9.02-.596 12.813 1.598.182.104.359.213.535.327 1.872 1.22 3.38 2.93 4.598 4.839.267.402.5.814.73 1.232.53.96 1.01 1.946 1.436 2.956.253.496.389 1.042.399 1.597-.007.106-.02.211-.043.315-.072.378-.217.745-.268 1.129-.168 1.45 1.07 2.662 1.533 4.044.3.9.267 1.864.436 2.812.243 1.331.898 2.53 1.487 3.728a46.491 46.491 0 0 1 2.38 5.956c.466 1.42.864 2.86 1.214 4.314.115.466.222.934.324 1.403.292 1.289.53 2.55.74 3.82z"/>
        <path fill="#3F3D56" d="M257 133.194V135l-.344-.005-.384-.005-4.288-.052-10.565-.134-2.966-.036-.768-.01-4.45-.055-6.272-.08-13.307-.168-23.09-.289-8.334-.103-3.344-.041-3.077-.039-1.918-.026-1.816-.023-13.464-.168-3.733-.046-.813-.01-.528-1.319-3.838-9.577-.701-1.75.533-2.064 2.4 1.548 1.478.178 24.322 2.927 4.566.55 9.68 1.166 9.482 1.14 3.718.447 21.997 2.648 6.147.74 5.088.612 18.09 2.178z"/>
        <path fill="#504F60" d="M148 119l4.824 12.818L256 134v-13.91z"/>
        <path fill="#3F3D56" d="M154 132l.882 77 4.118-.537-.882-76.463zM256 135.171h-.407A77.797 77.797 0 0 1 252.338 149l-1.284-13.884-.054-.592 4.749-.508.158-.016.093 1.171z"/>
        <path fill="#FFF" d="M241 127.182l-38.914.818L190 123.91l32.406-1.91z"/>
        <path fill="#FBBEBE" d="M192.145 110.681a2.58 2.58 0 0 0-1.048.786c-.219.38-.352.808-.39 1.251l-.644 4.044c-.098.37-.081.764.05 1.122.167.34.654.516.898.235-.031.79.034 1.634.471 2.28.438.645 1.355.984 1.973.534.196.337.522.566.893.626.37.06.748-.053 1.032-.311-.372.132-.398.73-.134 1.033.296.276.674.434 1.069.45a24.94 24.94 0 0 0 13.593-1.8c.406-.177-.662-5.445-.77-5.985-.262-1.271-.393-2.823-1.411-3.678-2.436-2.045-6.763-2.448-9.73-2.205-2.028.161-4.01.71-5.852 1.618z"/>
        <path fill="#000" d="M231.902 110.807c-9.656.183-19.511.339-28.726-2.529.88 3.384.82 6.94-.176 10.292l45.145 3.707c1.914.156 9.85 1.046 11.716.598 1.866-.447-15.656-6.172-14.949-7.943 1.946-4.88 8.465-7.74 3.77-7.922-5.927-.233-10.809 3.686-16.78 3.797z" opacity=".1"/>
        <path fill="#464353" d="M232.788 111.806c-9.617.182-19.434.338-28.613-2.528a19.239 19.239 0 0 1-.175 10.288l44.967 3.706c1.907.156 9.812 1.059 11.67.598 1.859-.46 1.423-2.729 2.127-4.5 1.939-4.878-8.585-11.177-13.262-11.36-5.903-.233-10.766 3.685-16.714 3.796z"/>
        <path fill="#FBBEBE" d="M216.853 112.681c.407.164.768.434 1.048.786.219.38.353.808.393 1.251l.644 4.044c.097.37.08.763-.05 1.122-.167.34-.657.516-.898.235.029.79-.034 1.634-.472 2.28-.437.645-1.354.984-1.974.534a1.277 1.277 0 0 1-.894.626c-.37.06-.748-.053-1.032-.311.372.132.401.73.137 1.033a1.672 1.672 0 0 1-1.072.45 24.933 24.933 0 0 1-13.591-1.8c-.406-.177.66-5.445.77-5.985.262-1.271.393-2.823 1.412-3.678 2.433-2.045 6.763-2.448 9.73-2.205 2.027.162 4.009.71 5.85 1.618z"/>
        <path fill="#464353" d="M153.237 104.235c-.889 1.14-1.78 2.303-2.354 3.632-1.095 2.534-.934 5.404-.752 8.157.05.799.115 1.613.535 2.276.364.5.843.907 1.398 1.185 2.32 1.31 5.035 1.701 7.686 1.994 4.06.447 8.134.72 12.222.817 10.129.245 20.412-.578 30.278 1.704-1.221-1.845-1.219-4.286-.536-6.39.683-2.103 1.998-3.934 3.286-5.737-4.515-1.421-9.357.8-14.086.578-4.855-.226-9.349-3.016-14.21-3.014-1.044 0-2.107.13-3.122-.12-1.015-.25-1.998-1.011-2.092-2.047 1.297.29 2.526-.812 3.061-2.02.536-1.209.632-2.575 1.152-3.791 1.293-3.027 4.788-4.43 6.963-6.922.342-.394.666-.86.656-1.382a2.156 2.156 0 0 0-.536-1.19c-1.808-2.396-4.531-3.727-6.794-5.59-.787-.65-2.375-3.1-3.259-3.326-1.639-.418-3.029 1.936-4.095 3.083a283.644 283.644 0 0 0-15.4 18.103z"/>
        <path fill="#000" d="M207 104a9.197 9.197 0 0 1 1.955 1.703c.56.657.782 1.49.61 2.297-.186-1.53.81-2.982 2.435-3.553l-5-.447z" opacity=".07"/>
        <g fill="#000" opacity=".1">
            <path d="M222.568 33.688a23.01 23.01 0 0 0-1.098-2.44 6.7 6.7 0 0 0-.789.2c.464.76.882 1.546 1.251 2.355.209-.054.42-.091.636-.115zM238.249 44.203c.073.058.143.125.213.186a.386.386 0 0 0-.019-.05 7.03 7.03 0 0 0-.194-.136zM213.124 45.376c.14-.11.27-.224.422-.33l-.043-1.267-2.887-.03c-.467.424-.965 1.032-.689 1.6l3.197.027zM244.681 66.699c-.513.944-1.254 1.829-2.267 2.21-.782.294-1.641.267-2.476.23-2.849-.115-5.746-.24-8.438-1.171-1.26-.437-2.465-1.048-3.784-1.317-1.543-.315-3.14-.136-4.705.045l-6.897.8c-2.036.235-4.303.41-5.928-.821-.93-.704-1.53-1.8-2.548-2.366-.43-.24-.94-.394-1.22-.8a1.977 1.977 0 0 1-.27-.989c-.021-.28-.034-.56-.045-.84-.03.814-.014 1.628.046 2.44.001.347.094.688.27.99.27.402.79.557 1.219.8 1.019.565 1.621 1.66 2.548 2.365 1.622 1.232 3.892 1.066 5.928.821l6.897-.8c1.565-.181 3.162-.36 4.705-.045 1.308.266 2.514.88 3.784 1.317 2.703.93 5.59 1.067 8.438 1.17.835.035 1.694.065 2.476-.229 1.013-.381 1.754-1.266 2.267-2.21.995-1.827 1.273-3.899 1.168-5.987a10.307 10.307 0 0 1-1.168 4.387z"/>
        </g>
        <path fill="#000" d="M222 35l3 3s-2.571-1.154-3-3z" opacity=".1"/>
    </g>
</svg>
