<svg xmlns="http://www.w3.org/2000/svg" width="105.63" height="106.124" viewBox="0 0 105.63 106.124"><defs><style>.a{fill:#26479c;}.a,.b,.c{fill-rule:evenodd;}.b{fill:#f29132;}.c{fill:#00caf2;}</style></defs><g transform="translate(70.812 -175.471)"><path class="a" d="M-55,215.928c1.416-1.326,2.782-2.6,4.329-4.051-4-4.6-6.752-9.511-5.2-15.821a14.421,14.421,0,0,1,5.511-8.646,15.629,15.629,0,0,1,20.735,1.781c5.523,6.021,5.028,14.8-.864,21.771,1.1,1.433,2.155,2.847,3.254,4.224a19.633,19.633,0,0,1,4.368,12.468c.032,4.429-.546,4.121,4.261,4.13,4.6.008,9.2-.066,13.795.037a2.672,2.672,0,0,0,3.052-2.092,14.268,14.268,0,0,1,9.412-9.363c3.394-1.113,1.494-3.858,1.719-5.87.04-.353-1.826-1.287-2.839-1.33-5.2-.224-5.2-.151-7.338,4.936-.618,1.475-1.258,2.94-1.885,4.409-.853,2-2.022,3.671-4.508,2.688-2.535-1-2.136-3.088-1.331-5.037,2.858-6.926,5.775-13.829,8.684-20.733q4.48-10.632,8.987-21.253c.7-1.666,1.562-3.157,3.734-2.577,2.289.612,3.065,2.069,2.09,4.318-1.748,4.032-3.506,8.06-5.231,12.1-.3.712-.473,1.483-.779,2.464,5.964,2.351,6.967,7.176,6.623,12.775-.19,3.087.036,6.2-.063,9.294a2.7,2.7,0,0,0,1.991,3.112,16.113,16.113,0,0,1,9.853,9.833c.311.815,1.863,1.531,2.9,1.627,3.612.334,4.525,1.158,4.539,4.828.012,3.3.024,6.6-.005,9.9-.03,3.5-.94,4.466-4.444,4.494-6.6.052-13.2.013-19.793.026a8.162,8.162,0,0,0-1.157.1c.091,8.985.2,17.81.258,26.637.023,3.72-.71,4.478-4.316,4.481q-35.838.025-71.677,0c-3.393,0-4.461-1.093-4.463-4.506-.013-17.694.013-35.389-.02-53.083-.007-3.888,1.241-7.116,4.691-9.092,3.556-2.037,7.083-1.645,10.41.72A3.131,3.131,0,0,0-55,215.928Zm-9.678,31.327c0,8.09.048,16.181-.035,24.27-.021,1.981.429,2.842,2.64,2.829q22.173-.127,44.347-.011c2.031.009,2.947-.533,2.761-2.692-.154-1.785-.028-3.593-.034-5.39-.013-4.316-.663-4.962-5.084-4.964q-16.63-.012-33.26,0c-4.125,0-4.338-.2-4.679-4.325-.09-1.093-.066-2.2-.067-3.294,0-10.288-.025-20.576.016-30.864.009-2.209-.786-3.913-3.047-4.034-2.442-.13-3.47,1.6-3.541,3.908-.022.7-.015,1.4-.015,2.1Q-64.673,236.019-64.674,247.255Zm35.725,7.82a28.512,28.512,0,0,0-2.638-3.579c-2.848-2.709-6.408-2.97-10.093-2.664-4.212.35-5.463-.71-5.581-4.931-.09-3.2-.018-6.4-.014-9.6,0-2.273.855-4.11,3.331-4.122s3.328,1.73,3.252,4.089c-.086,2.662-.02,5.329-.02,7.68l11.822,2.514c0-6.363.234-12.763-.077-19.137a11.207,11.207,0,0,0-7.248-10.209,10.974,10.974,0,0,0-11.829,1.768c-3.547,2.989-4.474,7.34-4.663,11.559-.353,7.883-.1,15.793-.085,23.692,0,.952.132,1.9.209,2.938Zm4.582-5.562c1.628,2.748,1.519,6.15,5.669,5.556,5.995-.858,10.229,4.91,9.9,9.828a74.628,74.628,0,0,0,.451,9.139c3.182.09,6.37.108,9.547.295,2.032.12,2.558-.763,2.523-2.651-.1-5.2.025-10.4-.056-15.594a6.5,6.5,0,0,0-6.847-6.752c-5.9-.071-11.8-.027-17.693-.013C-21.836,249.323-22.8,249.423-24.367,249.513ZM27.656,243c1.2-5.59,1.035-5.8-4.3-5.8h-46.4V243Zm-68.641-53.238a9,9,0,0,0-9.334,8.857A9.106,9.106,0,0,0-41,207.826a9.155,9.155,0,0,0,9.2-9.025A9.171,9.171,0,0,0-40.985,189.764Zm61.941,41.177a8.579,8.579,0,0,0-8.716-6.3,7.664,7.664,0,0,0-7.617,6.3ZM3.322,205.34c3.119.9,5.162,1.264,5.734-1.231.226-.986-.952-2.294-1.491-3.456Z"/><path class="b" d="M-28.949,255.075H-52.583c-.077-1.035-.206-1.986-.209-2.938-.018-7.9-.268-15.809.085-23.692.189-4.219,1.116-8.57,4.663-11.559a10.974,10.974,0,0,1,11.829-1.768,11.207,11.207,0,0,1,7.248,10.209c.311,6.374.077,12.774.077,19.137l-11.822-2.514c0-2.351-.066-5.018.02-7.68.076-2.359-.764-4.1-3.252-4.089s-3.327,1.849-3.331,4.122c0,3.2-.076,6.4.014,9.6.118,4.221,1.369,5.281,5.581,4.931,3.685-.306,7.245-.045,10.093,2.664A28.512,28.512,0,0,1-28.949,255.075Z"/><path class="b" d="M-40.985,189.764A9.171,9.171,0,0,1-31.8,198.8a9.155,9.155,0,0,1-9.2,9.025,9.106,9.106,0,0,1-9.317-9.205A9,9,0,0,1-40.985,189.764Z"/><path class="b" d="M20.956,230.941H4.623a7.664,7.664,0,0,1,7.617-6.3A8.579,8.579,0,0,1,20.956,230.941Z"/><path class="c" d="M3.322,205.34l4.243-4.687c.539,1.162,1.717,2.47,1.491,3.456C8.484,206.6,6.441,206.245,3.322,205.34Z"/></g></svg>