<svg xmlns="http://www.w3.org/2000/svg" width="12.242" height="12.202" viewBox="0 0 12.242 12.202">
    <defs>
        <style>
            .prefix__cls-1{fill:#575757}
        </style>
    </defs>
    <g id="prefix__multimedia-option" transform="translate(0 -.85)">
        <g id="prefix__Group_9618" data-name="Group 9618" transform="translate(0 .85)">
            <g id="prefix__Group_9617" data-name="Group 9617">
                <path id="prefix__Path_218" d="M6.1 12.035H1.525a.509.509 0 0 1-.508-.508V2.375a.509.509 0 0 1 .508-.508H6.1A.508.508 0 0 0 6.1.85H1.525A1.527 1.527 0 0 0 0 2.375v9.151a1.527 1.527 0 0 0 1.525 1.525H6.1a.508.508 0 0 0 0-1.017z" class="prefix__cls-1" data-name="Path 218" transform="translate(0 -.85)"/>
            </g>
        </g>
        <g id="prefix__Group_9620" data-name="Group 9620" transform="translate(4.067 3.392)">
            <g id="prefix__Group_9619" data-name="Group 9619">
                <path id="prefix__Path_219" d="M178.124 110.361l-3.091-3.05a.508.508 0 1 0-.714.724l2.209 2.18h-5.919a.508.508 0 0 0 0 1.017h5.919l-2.209 2.18a.508.508 0 1 0 .714.724l3.091-3.05a.508.508 0 0 0 0-.724z" class="prefix__cls-1" data-name="Path 219" transform="translate(-170.1 -107.165)"/>
            </g>
        </g>
    </g>
</svg>
