<svg xmlns="http://www.w3.org/2000/svg" width="191.385" height="36.12" viewBox="0 0 191.385 36.12">
    <defs>
        <style>
            .prefix__cls-1{fill:#363535}
        </style>
    </defs>
    <g id="prefix__Group_11" data-name="Group 11" transform="translate(3141.599 189)">
        <path id="prefix__Path_72" d="M4.708 0H1.8v-15.356h6.93a5.119 5.119 0 0 1 1.892.33 3.826 3.826 0 0 1 1.419.957 4.369 4.369 0 0 1 .9 1.507 5.712 5.712 0 0 1 .319 1.958 5.042 5.042 0 0 1-.715 2.728A3.9 3.9 0 0 1 10.4-6.248L13.552 0h-3.234l-2.86-5.918h-2.75zm3.74-8.36a1.86 1.86 0 0 0 1.32-.451 1.673 1.673 0 0 0 .484-1.287v-1.012a1.637 1.637 0 0 0-.484-1.276 1.889 1.889 0 0 0-1.32-.44h-3.74v4.466zM24.464 0A1.977 1.977 0 0 1 23-.539a2.479 2.479 0 0 1-.67-1.441h-.13A2.694 2.694 0 0 1 21.032-.3a3.974 3.974 0 0 1-2.178.561 3.714 3.714 0 0 1-2.706-.921 3.287 3.287 0 0 1-.948-2.464 2.988 2.988 0 0 1 1.276-2.651 6.414 6.414 0 0 1 3.63-.869h1.958v-.836a2.076 2.076 0 0 0-.506-1.5 2.172 2.172 0 0 0-1.626-.52 2.7 2.7 0 0 0-1.595.429 4.236 4.236 0 0 0-1.023 1.023l-1.672-1.5a4.846 4.846 0 0 1 1.694-1.6 5.6 5.6 0 0 1 2.794-.6 5.24 5.24 0 0 1 3.542 1.056 3.813 3.813 0 0 1 1.21 3.036v5.412h1.144V0zM19.8-1.782a2.942 2.942 0 0 0 1.606-.418 1.366 1.366 0 0 0 .66-1.232V-4.95h-1.8q-2.2 0-2.2 1.408v.374a1.226 1.226 0 0 0 .451 1.045 2.1 2.1 0 0 0 1.283.341zM30.58 0l-3.828-11.484h2.772l1.606 4.95 1.122 4.092h.154l1.122-4.092 1.562-4.95h2.684L33.924 0zm10.472-13.156a1.709 1.709 0 0 1-1.265-.4 1.392 1.392 0 0 1-.385-1.012V-15a1.392 1.392 0 0 1 .385-1.012 1.709 1.709 0 0 1 1.265-.4 1.715 1.715 0 0 1 1.254.4A1.37 1.37 0 0 1 42.7-15v.44a1.37 1.37 0 0 1-.4 1.012 1.715 1.715 0 0 1-1.248.392zm-1.408 1.672h2.816V0h-2.816zm7.722-5.016a1.736 1.736 0 0 1 1.309.429A1.49 1.49 0 0 1 49.082-15v.418a4.542 4.542 0 0 1-.165 1.2 5.566 5.566 0 0 1-.473 1.177 6.609 6.609 0 0 1-.726 1.078 6.552 6.552 0 0 1-.9.9h-1.894a9.29 9.29 0 0 0 1.188-1.331 4.91 4.91 0 0 0 .726-1.485 1.347 1.347 0 0 1-.924-.517 1.622 1.622 0 0 1-.286-.957V-15a1.49 1.49 0 0 1 .407-1.067 1.769 1.769 0 0 1 1.331-.433zM54.494.264A6.161 6.161 0 0 1 51.722-.3a6.381 6.381 0 0 1-1.98-1.551l1.716-1.669a5.211 5.211 0 0 0 1.4 1.144 3.566 3.566 0 0 0 1.749.418 2.4 2.4 0 0 0 1.463-.352 1.16 1.16 0 0 0 .451-.968 1.044 1.044 0 0 0-.319-.8 2.025 2.025 0 0 0-1.089-.407l-1.144-.154a5.442 5.442 0 0 1-2.849-1.067 2.973 2.973 0 0 1-.979-2.409 3.572 3.572 0 0 1 .308-1.507 3.2 3.2 0 0 1 .88-1.144 4.031 4.031 0 0 1 1.375-.726 5.951 5.951 0 0 1 1.793-.253 8.163 8.163 0 0 1 1.485.121 5.4 5.4 0 0 1 1.177.352 4.549 4.549 0 0 1 .968.572 9.089 9.089 0 0 1 .858.759l-1.65 1.65a4.356 4.356 0 0 0-1.21-.88 3.4 3.4 0 0 0-1.54-.352 2.122 2.122 0 0 0-1.331.33 1.053 1.053 0 0 0-.407.858 1.09 1.09 0 0 0 .341.869 2.36 2.36 0 0 0 1.155.429l1.166.154q3.718.528 3.718 3.388a3.416 3.416 0 0 1-.341 1.529 3.481 3.481 0 0 1-.957 1.188 4.52 4.52 0 0 1-1.485.77 6.438 6.438 0 0 1-1.95.272zM76.582 0L75.35-3.916h-5.456L68.684 0h-2.948l5.148-15.356h3.608L79.6 0zm-3.916-12.716h-.11L70.6-6.4h4.048zM86.218.264a5.781 5.781 0 0 1-2.266-.418 4.369 4.369 0 0 1-1.661-1.21 5.452 5.452 0 0 1-1.023-1.9 8.249 8.249 0 0 1-.352-2.5 8.142 8.142 0 0 1 .352-2.486 5.348 5.348 0 0 1 1.023-1.881 4.422 4.422 0 0 1 1.661-1.2 5.781 5.781 0 0 1 2.266-.418 5 5 0 0 1 2.871.77 4.32 4.32 0 0 1 1.639 2.134l-2.31 1.035a2.394 2.394 0 0 0-.737-1.2 2.14 2.14 0 0 0-1.463-.473 2.106 2.106 0 0 0-1.771.748 3.1 3.1 0 0 0-.583 1.958v2.09a3.048 3.048 0 0 0 .583 1.947 2.12 2.12 0 0 0 1.771.74 2.194 2.194 0 0 0 1.562-.517 3.542 3.542 0 0 0 .858-1.287l2.156 1.034A4.508 4.508 0 0 1 89.056-.5a5.091 5.091 0 0 1-2.838.764zM101.42 0a1.977 1.977 0 0 1-1.463-.539 2.479 2.479 0 0 1-.671-1.441h-.132A2.694 2.694 0 0 1 97.988-.3a3.974 3.974 0 0 1-2.178.564A3.714 3.714 0 0 1 93.1-.66a3.287 3.287 0 0 1-.946-2.464 2.988 2.988 0 0 1 1.276-2.651 6.414 6.414 0 0 1 3.63-.869h1.958v-.836a2.076 2.076 0 0 0-.506-1.5 2.172 2.172 0 0 0-1.624-.52 2.7 2.7 0 0 0-1.6.429 4.236 4.236 0 0 0-1.018 1.019L92.6-9.548a4.846 4.846 0 0 1 1.694-1.6 5.6 5.6 0 0 1 2.794-.6 5.24 5.24 0 0 1 3.542 1.056 3.813 3.813 0 0 1 1.21 3.036v5.412h1.144V0zm-4.664-1.782a2.942 2.942 0 0 0 1.606-.418 1.366 1.366 0 0 0 .66-1.232V-4.95h-1.8q-2.2 0-2.2 1.408v.374a1.226 1.226 0 0 0 .451 1.045 2.1 2.1 0 0 0 1.283.341zm15.644-.132h-.11a2.939 2.939 0 0 1-1.168 1.584 3.43 3.43 0 0 1-2 .594 3.892 3.892 0 0 1-3.335-1.564 7.415 7.415 0 0 1-1.155-4.466 7.321 7.321 0 0 1 1.155-4.433 3.9 3.9 0 0 1 3.333-1.551 3.476 3.476 0 0 1 2 .583 2.887 2.887 0 0 1 1.166 1.573h.11v-6.686h2.816V0H112.4zm-2.376-.154a2.853 2.853 0 0 0 1.694-.484 1.6 1.6 0 0 0 .682-1.386V-7.59a1.59 1.59 0 0 0-.682-1.342 2.764 2.764 0 0 0-1.694-.506 2.281 2.281 0 0 0-1.771.737 2.812 2.812 0 0 0-.671 1.969v1.98a2.771 2.771 0 0 0 .671 1.958 2.3 2.3 0 0 0 1.769.726zM123.112.264a5.731 5.731 0 0 1-2.277-.429 4.713 4.713 0 0 1-1.694-1.21 5.412 5.412 0 0 1-1.067-1.892 7.8 7.8 0 0 1-.374-2.5 7.837 7.837 0 0 1 .363-2.464 5.387 5.387 0 0 1 1.045-1.881 4.631 4.631 0 0 1 1.672-1.21 5.592 5.592 0 0 1 2.244-.429 5.468 5.468 0 0 1 2.332.462 4.492 4.492 0 0 1 1.628 1.254 5.414 5.414 0 0 1 .957 1.837 7.61 7.61 0 0 1 .319 2.233v.924h-7.634v.286a2.842 2.842 0 0 0 .7 2.013 2.713 2.713 0 0 0 2.09.759 3.1 3.1 0 0 0 1.727-.44 4.946 4.946 0 0 0 1.2-1.122l1.518 1.694A4.72 4.72 0 0 1 125.939-.3a6.707 6.707 0 0 1-2.827.564zm-.044-9.9a2.256 2.256 0 0 0-1.782.748 2.818 2.818 0 0 0-.66 1.936v.176h4.708v-.2a3.011 3.011 0 0 0-.583-1.925 2.019 2.019 0 0 0-1.683-.735zM130.746 0v-11.484h2.816v1.914h.11a3.723 3.723 0 0 1 1.056-1.54 2.964 2.964 0 0 1 2.024-.638 3.6 3.6 0 0 1 2.046.572 3.372 3.372 0 0 1 1.276 1.738h.044a3.232 3.232 0 0 1 1.221-1.639 3.779 3.779 0 0 1 2.3-.671 3.116 3.116 0 0 1 2.607 1.166 5.284 5.284 0 0 1 .913 3.322V0h-2.816v-6.974q0-2.464-1.848-2.464a2.662 2.662 0 0 0-.8.121 2.149 2.149 0 0 0-.682.352 1.706 1.706 0 0 0-.473.572 1.729 1.729 0 0 0-.176.8V0h-2.816v-6.974q0-2.464-1.848-2.464a2.591 2.591 0 0 0-.781.121 2.149 2.149 0 0 0-.682.352 1.83 1.83 0 0 0-.484.572 1.645 1.645 0 0 0-.187.8V0zm26.4-11.484h2.64l-4.62 13.53a5.8 5.8 0 0 1-.5 1.067 2.651 2.651 0 0 1-.649.737 2.439 2.439 0 0 1-.9.418 5.115 5.115 0 0 1-1.232.132h-1.694V2.156h2.068L152.79.55l-4.114-12.034h2.794l2 6.072.748 2.9h.132l.792-2.9z" class="prefix__cls-1" data-name="Path 72" transform="translate(-3110 -172)"/>
        <path id="prefix__Path_73" d="M3.45-5.98V0H2.32v-5.98H.24v-1h5.29v1zm3.1-1.42h1.09v3.06h.05a1.714 1.714 0 0 1 .515-.7 1.458 1.458 0 0 1 .945-.28 1.543 1.543 0 0 1 1.25.52 2.248 2.248 0 0 1 .44 1.5V0H9.75v-3.17q0-1.21-.98-1.21a1.6 1.6 0 0 0-.415.055 1.177 1.177 0 0 0-.365.165.822.822 0 0 0-.255.28.786.786 0 0 0-.095.39V0H6.55zM14.39.12a2.5 2.5 0 0 1-1-.19 2.074 2.074 0 0 1-.75-.545 2.442 2.442 0 0 1-.475-.86A3.609 3.609 0 0 1 12-2.6a3.609 3.609 0 0 1 .165-1.125 2.442 2.442 0 0 1 .475-.86 2.074 2.074 0 0 1 .75-.545 2.5 2.5 0 0 1 1-.19 2.383 2.383 0 0 1 1.005.2 2 2 0 0 1 .725.555 2.413 2.413 0 0 1 .435.825 3.409 3.409 0 0 1 .145 1.01v.41h-3.57v.17a1.4 1.4 0 0 0 .355.985A1.312 1.312 0 0 0 14.5-.78a1.479 1.479 0 0 0 .81-.21 1.83 1.83 0 0 0 .56-.57l.64.63a2.06 2.06 0 0 1-.84.765 2.744 2.744 0 0 1-1.28.285zm0-4.59a1.3 1.3 0 0 0-.515.1 1.141 1.141 0 0 0-.4.28 1.259 1.259 0 0 0-.255.43 1.613 1.613 0 0 0-.09.55v.07h2.42v-.1a1.44 1.44 0 0 0-.31-.965 1.056 1.056 0 0 0-.85-.365zM20.35 0v-6.98h3a1.947 1.947 0 0 1 1.5.57 2.157 2.157 0 0 1 .53 1.53 2.157 2.157 0 0 1-.53 1.53 1.947 1.947 0 0 1-1.5.57h-1.87V0zm1.13-3.77h1.8a.942.942 0 0 0 .67-.23.841.841 0 0 0 .24-.645v-.48a.841.841 0 0 0-.24-.645.942.942 0 0 0-.67-.225h-1.8zM30.23 0a.861.861 0 0 1-.66-.245 1.1 1.1 0 0 1-.28-.625h-.05a1.279 1.279 0 0 1-.55.74 1.794 1.794 0 0 1-.97.25 1.721 1.721 0 0 1-1.245-.42 1.5 1.5 0 0 1-.435-1.13 1.327 1.327 0 0 1 .56-1.17 2.911 2.911 0 0 1 1.655-.39h.94v-.44a1 1 0 0 0-.26-.74 1.105 1.105 0 0 0-.81-.26 1.294 1.294 0 0 0-.75.2 1.79 1.79 0 0 0-.49.51l-.65-.59a2.083 2.083 0 0 1 .73-.725A2.349 2.349 0 0 1 28.2-5.32a2.291 2.291 0 0 1 1.55.47 1.693 1.693 0 0 1 .54 1.35v2.61h.55V0zm-2.2-.71a1.46 1.46 0 0 0 .84-.225.7.7 0 0 0 .33-.6v-.75h-.92q-1.13 0-1.13.7v.18a.613.613 0 0 0 .235.525 1.059 1.059 0 0 0 .645.17zm5.29.71a1.155 1.155 0 0 1-.86-.3 1.141 1.141 0 0 1-.29-.835V-4.31h-.81v-.89h.44a.481.481 0 0 0 .375-.12.587.587 0 0 0 .1-.39v-.91h.98v1.42h1.09v.89H33.26v3.42h1.01V0zm2.21-7.4h1.09v3.06h.05a1.714 1.714 0 0 1 .515-.7 1.458 1.458 0 0 1 .945-.28 1.543 1.543 0 0 1 1.245.525A2.248 2.248 0 0 1 39.82-3.3V0h-1.09v-3.17q0-1.21-.98-1.21a1.6 1.6 0 0 0-.415.055 1.177 1.177 0 0 0-.365.165.822.822 0 0 0-.255.28.786.786 0 0 0-.1.39V0H35.53zm8.43 3.09h-.79v-.89h.79v-.86a1.391 1.391 0 0 1 .33-.985 1.288 1.288 0 0 1 .99-.355h.86v.89h-1.09v1.31h1.09v.89h-1.09V0h-1.09zM49.09.12a2.483 2.483 0 0 1-.99-.19 2.064 2.064 0 0 1-.755-.545 2.5 2.5 0 0 1-.48-.86A3.512 3.512 0 0 1 46.7-2.6a3.512 3.512 0 0 1 .17-1.125 2.5 2.5 0 0 1 .48-.86 2.064 2.064 0 0 1 .75-.545 2.483 2.483 0 0 1 .985-.19 2.483 2.483 0 0 1 .985.19 2.064 2.064 0 0 1 .755.545 2.5 2.5 0 0 1 .48.86A3.512 3.512 0 0 1 51.48-2.6a3.512 3.512 0 0 1-.17 1.125 2.5 2.5 0 0 1-.48.86 2.064 2.064 0 0 1-.755.545 2.483 2.483 0 0 1-.985.19zm0-.9a1.207 1.207 0 0 0 .9-.345 1.418 1.418 0 0 0 .34-1.035v-.88a1.418 1.418 0 0 0-.34-1.035 1.207 1.207 0 0 0-.9-.345 1.207 1.207 0 0 0-.9.345 1.418 1.418 0 0 0-.34 1.035v.88a1.418 1.418 0 0 0 .34 1.035 1.207 1.207 0 0 0 .9.345zm3.6.78v-5.2h1.09v1h.05a1.4 1.4 0 0 1 .46-.7 1.443 1.443 0 0 1 .97-.3h.29v1.05h-.43a1.93 1.93 0 0 0-.995.21.681.681 0 0 0-.345.62V0zm10.76-1.06h-.04a1.36 1.36 0 0 1-.6.845 2.221 2.221 0 0 1-1.28.335 2.8 2.8 0 0 1-1.15-.235 2.53 2.53 0 0 1-.915-.69 3.256 3.256 0 0 1-.6-1.13 5.126 5.126 0 0 1-.215-1.555 4.982 4.982 0 0 1 .22-1.545 3.232 3.232 0 0 1 .62-1.135 2.578 2.578 0 0 1 .96-.7 3.2 3.2 0 0 1 1.25-.23 2.9 2.9 0 0 1 1.59.415A2.776 2.776 0 0 1 64.3-5.53l-.92.54a1.805 1.805 0 0 0-.62-.795 1.758 1.758 0 0 0-1.06-.305 1.759 1.759 0 0 0-1.335.53 2.089 2.089 0 0 0-.505 1.5v1.14a2.089 2.089 0 0 0 .505 1.5 1.759 1.759 0 0 0 1.335.53 2.3 2.3 0 0 0 .63-.085 1.63 1.63 0 0 0 .525-.25 1.251 1.251 0 0 0 .36-.41 1.173 1.173 0 0 0 .135-.575v-.54h-1.44v-.97h2.53V0h-.99zM65.93 0v-5.2h1.09v1h.05a1.4 1.4 0 0 1 .46-.7 1.444 1.444 0 0 1 .97-.3h.29v1.05h-.43a1.93 1.93 0 0 0-1 .21.681.681 0 0 0-.345.62V0zm5.82.12a2.5 2.5 0 0 1-1-.19A2.074 2.074 0 0 1 70-.615a2.442 2.442 0 0 1-.475-.86A3.609 3.609 0 0 1 69.36-2.6a3.609 3.609 0 0 1 .165-1.125 2.442 2.442 0 0 1 .475-.86 2.074 2.074 0 0 1 .75-.545 2.5 2.5 0 0 1 1-.19 2.383 2.383 0 0 1 1 .2 2 2 0 0 1 .725.555 2.413 2.413 0 0 1 .435.825 3.409 3.409 0 0 1 .145 1.01v.41H70.49v.17a1.4 1.4 0 0 0 .355.985 1.312 1.312 0 0 0 1.015.385 1.479 1.479 0 0 0 .81-.21 1.83 1.83 0 0 0 .56-.57l.64.63a2.06 2.06 0 0 1-.84.765 2.744 2.744 0 0 1-1.28.285zm0-4.59a1.3 1.3 0 0 0-.515.1 1.141 1.141 0 0 0-.4.28 1.259 1.259 0 0 0-.255.43 1.613 1.613 0 0 0-.09.55v.07h2.42v-.1a1.44 1.44 0 0 0-.31-.965 1.056 1.056 0 0 0-.85-.365zM79.08 0a.861.861 0 0 1-.66-.245 1.1 1.1 0 0 1-.28-.625h-.05a1.279 1.279 0 0 1-.55.74 1.8 1.8 0 0 1-.97.25 1.721 1.721 0 0 1-1.245-.42 1.5 1.5 0 0 1-.435-1.13 1.327 1.327 0 0 1 .565-1.17 2.911 2.911 0 0 1 1.655-.39h.94v-.44a1 1 0 0 0-.26-.74 1.105 1.105 0 0 0-.81-.26 1.294 1.294 0 0 0-.75.2 1.79 1.79 0 0 0-.49.51l-.65-.59a2.083 2.083 0 0 1 .73-.725 2.349 2.349 0 0 1 1.23-.285 2.291 2.291 0 0 1 1.55.47 1.693 1.693 0 0 1 .54 1.35v2.61h.55V0zm-2.2-.71a1.46 1.46 0 0 0 .84-.225.7.7 0 0 0 .33-.6v-.75h-.92q-1.13 0-1.13.7v.18a.613.613 0 0 0 .235.525 1.059 1.059 0 0 0 .645.17zm5.29.71a1.155 1.155 0 0 1-.86-.3 1.141 1.141 0 0 1-.29-.835V-4.31h-.81v-.89h.44a.481.481 0 0 0 .375-.12.587.587 0 0 0 .105-.39v-.91h.98v1.42h1.09v.89h-1.09v3.42h1.01V0zm4.21.12a2.5 2.5 0 0 1-1-.19 2.074 2.074 0 0 1-.75-.545 2.442 2.442 0 0 1-.475-.86A3.609 3.609 0 0 1 83.99-2.6a3.609 3.609 0 0 1 .165-1.125 2.442 2.442 0 0 1 .475-.86 2.074 2.074 0 0 1 .75-.545 2.5 2.5 0 0 1 1-.19 2.383 2.383 0 0 1 1 .2 2 2 0 0 1 .725.555 2.413 2.413 0 0 1 .435.825 3.409 3.409 0 0 1 .145 1.01v.41H85.12v.17a1.4 1.4 0 0 0 .355.985 1.312 1.312 0 0 0 1.015.385 1.479 1.479 0 0 0 .81-.21 1.83 1.83 0 0 0 .56-.57l.64.63a2.06 2.06 0 0 1-.84.765 2.744 2.744 0 0 1-1.28.285zm0-4.59a1.3 1.3 0 0 0-.515.1 1.141 1.141 0 0 0-.4.28 1.259 1.259 0 0 0-.255.43 1.613 1.613 0 0 0-.09.55v.07h2.42v-.1a1.44 1.44 0 0 0-.31-.965 1.056 1.056 0 0 0-.85-.365zM89.9 0v-5.2h1.09v1h.05a1.4 1.4 0 0 1 .46-.7 1.444 1.444 0 0 1 .97-.3h.29v1.05h-.43a1.93 1.93 0 0 0-1 .21.681.681 0 0 0-.345.62V0zm8.36.12a3.206 3.206 0 0 1-1.495-.32 3.33 3.33 0 0 1-1.055-.86l.78-.73a2.619 2.619 0 0 0 .815.68 2.179 2.179 0 0 0 1.015.23 1.486 1.486 0 0 0 1.01-.3 1.026 1.026 0 0 0 .34-.81.878.878 0 0 0-.24-.65 1.663 1.663 0 0 0-.85-.36l-.62-.11a2.994 2.994 0 0 1-1.53-.67 1.725 1.725 0 0 1-.51-1.32 1.951 1.951 0 0 1 .175-.835 1.752 1.752 0 0 1 .49-.63 2.275 2.275 0 0 1 .765-.4 3.393 3.393 0 0 1 1.01-.14 3.169 3.169 0 0 1 1.37.275 2.747 2.747 0 0 1 .99.8l-.79.7a2.055 2.055 0 0 0-.66-.56 2.027 2.027 0 0 0-.97-.21 1.56 1.56 0 0 0-.93.24.811.811 0 0 0-.33.7.787.787 0 0 0 .27.655 1.959 1.959 0 0 0 .84.325l.62.13a2.927 2.927 0 0 1 1.535.68 1.773 1.773 0 0 1 .485 1.32 2.253 2.253 0 0 1-.17.89 1.875 1.875 0 0 1-.495.685 2.264 2.264 0 0 1-.8.44A3.411 3.411 0 0 1 98.26.12zm6.96-.98h-.04a1.919 1.919 0 0 1-.18.37 1.238 1.238 0 0 1-.29.315 1.385 1.385 0 0 1-.42.215 1.82 1.82 0 0 1-.565.08 1.562 1.562 0 0 1-1.255-.52 2.228 2.228 0 0 1-.445-1.49V-5.2h1.09v3.17q0 1.21 1 1.21a1.539 1.539 0 0 0 .41-.055 1.121 1.121 0 0 0 .355-.165.842.842 0 0 0 .25-.28.807.807 0 0 0 .1-.4V-5.2h1.09V0h-1.09zm4.66.98a2.5 2.5 0 0 1-1-.19 1.983 1.983 0 0 1-.74-.545 2.47 2.47 0 0 1-.46-.86 3.714 3.714 0 0 1-.16-1.125 3.714 3.714 0 0 1 .16-1.125 2.47 2.47 0 0 1 .46-.86 1.983 1.983 0 0 1 .74-.545 2.5 2.5 0 0 1 1-.19 2.182 2.182 0 0 1 1.28.35 2.016 2.016 0 0 1 .73.93l-.9.42a1.126 1.126 0 0 0-.385-.575 1.144 1.144 0 0 0-.725-.215 1.1 1.1 0 0 0-.9.375 1.5 1.5 0 0 0-.305.975v.93a1.5 1.5 0 0 0 .305.975 1.1 1.1 0 0 0 .9.375 1.165 1.165 0 0 0 .765-.235 1.643 1.643 0 0 0 .455-.625l.83.44a2.057 2.057 0 0 1-.78.98 2.271 2.271 0 0 1-1.27.34zm5.04 0a2.5 2.5 0 0 1-1-.19 1.983 1.983 0 0 1-.74-.545 2.47 2.47 0 0 1-.46-.86 3.714 3.714 0 0 1-.16-1.125 3.714 3.714 0 0 1 .16-1.125 2.47 2.47 0 0 1 .46-.86 1.983 1.983 0 0 1 .74-.545 2.5 2.5 0 0 1 1-.19 2.182 2.182 0 0 1 1.28.35 2.016 2.016 0 0 1 .73.93l-.9.42a1.126 1.126 0 0 0-.385-.575 1.144 1.144 0 0 0-.725-.215 1.1 1.1 0 0 0-.9.375 1.5 1.5 0 0 0-.305.975v.93a1.5 1.5 0 0 0 .305.975 1.1 1.1 0 0 0 .9.375 1.165 1.165 0 0 0 .765-.235 1.643 1.643 0 0 0 .455-.625l.83.44a2.057 2.057 0 0 1-.78.98 2.271 2.271 0 0 1-1.27.34zm5.07 0a2.5 2.5 0 0 1-1-.19 2.074 2.074 0 0 1-.75-.545 2.442 2.442 0 0 1-.475-.86A3.609 3.609 0 0 1 117.6-2.6a3.609 3.609 0 0 1 .165-1.125 2.442 2.442 0 0 1 .475-.86 2.074 2.074 0 0 1 .75-.545 2.5 2.5 0 0 1 1-.19 2.383 2.383 0 0 1 1 .2 2 2 0 0 1 .725.555 2.413 2.413 0 0 1 .435.825 3.409 3.409 0 0 1 .145 1.01v.41h-3.57v.17a1.4 1.4 0 0 0 .355.985 1.312 1.312 0 0 0 1.02.385 1.479 1.479 0 0 0 .81-.21 1.83 1.83 0 0 0 .56-.57l.64.63a2.06 2.06 0 0 1-.84.765 2.744 2.744 0 0 1-1.28.285zm0-4.59a1.3 1.3 0 0 0-.515.1 1.141 1.141 0 0 0-.4.28 1.259 1.259 0 0 0-.255.43 1.613 1.613 0 0 0-.09.55v.07h2.42v-.1a1.44 1.44 0 0 0-.31-.965 1.056 1.056 0 0 0-.85-.365zm5.17 4.59a2.667 2.667 0 0 1-1.24-.26 2.72 2.72 0 0 1-.87-.72l.7-.64a2.242 2.242 0 0 0 .645.545 1.686 1.686 0 0 0 .825.195 1.146 1.146 0 0 0 .715-.185.619.619 0 0 0 .235-.515.6.6 0 0 0-.165-.425.933.933 0 0 0-.575-.225l-.48-.06a2.46 2.46 0 0 1-1.255-.465 1.308 1.308 0 0 1-.455-1.085 1.556 1.556 0 0 1 .14-.675 1.408 1.408 0 0 1 .395-.5 1.823 1.823 0 0 1 .61-.315 2.644 2.644 0 0 1 .785-.11 2.586 2.586 0 0 1 1.145.22 2.629 2.629 0 0 1 .795.61l-.67.64a1.755 1.755 0 0 0-.525-.415 1.547 1.547 0 0 0-.745-.175 1.022 1.022 0 0 0-.665.18.584.584 0 0 0-.215.47.538.538 0 0 0 .19.45 1.362 1.362 0 0 0 .61.22l.48.06a2.3 2.3 0 0 1 1.255.505 1.32 1.32 0 0 1 .395 1 1.576 1.576 0 0 1-.145.685 1.5 1.5 0 0 1-.415.525 1.943 1.943 0 0 1-.65.34 2.815 2.815 0 0 1-.85.125zm4.88 0a2.667 2.667 0 0 1-1.24-.26 2.72 2.72 0 0 1-.87-.72l.7-.64a2.242 2.242 0 0 0 .645.545 1.686 1.686 0 0 0 .825.195 1.146 1.146 0 0 0 .715-.185.619.619 0 0 0 .235-.515.6.6 0 0 0-.165-.425.933.933 0 0 0-.575-.225l-.48-.06a2.46 2.46 0 0 1-1.255-.465 1.308 1.308 0 0 1-.455-1.085 1.556 1.556 0 0 1 .14-.675 1.409 1.409 0 0 1 .4-.5 1.823 1.823 0 0 1 .61-.315 2.644 2.644 0 0 1 .785-.11 2.586 2.586 0 0 1 1.145.22 2.629 2.629 0 0 1 .795.61l-.67.64a1.756 1.756 0 0 0-.525-.415 1.547 1.547 0 0 0-.745-.175 1.022 1.022 0 0 0-.665.18.584.584 0 0 0-.215.47.538.538 0 0 0 .19.45 1.362 1.362 0 0 0 .61.22l.48.06a2.3 2.3 0 0 1 1.255.505 1.32 1.32 0 0 1 .4 1 1.576 1.576 0 0 1-.145.685 1.5 1.5 0 0 1-.415.525 1.942 1.942 0 0 1-.65.34 2.816 2.816 0 0 1-.86.125z" class="prefix__cls-1" data-name="Path 73" transform="translate(-3100 -153)"/>
        <g id="prefix__book" transform="translate(-3141.599 -189)">
            <g id="prefix__Group_10" data-name="Group 10">
                <path id="prefix__Path_71" d="M23.043 59.7h-1.549v-.527a.455.455 0 0 0-.328-.455 12.853 12.853 0 0 0-3.284-.418 8.48 8.48 0 0 0-6.14 2.273A8.391 8.391 0 0 0 5.6 58.3a12.853 12.853 0 0 0-3.284.418.455.455 0 0 0-.328.455v.527H.455a.455.455 0 0 0-.455.454v14.52a.455.455 0 0 0 .679.4 16.087 16.087 0 0 1 10.959-.909h.109a.457.457 0 0 0 .109 0 15.815 15.815 0 0 1 10.959.909.456.456 0 0 0 .683-.391V60.158a.455.455 0 0 0-.455-.458zM.911 73.95V60.613H2v11.4a.456.456 0 0 0 .524.455 19.972 19.972 0 0 1 2.847-.227 11.836 11.836 0 0 1 3.89.586 16.775 16.775 0 0 0-8.35 1.123zm4.459-2.613a20.08 20.08 0 0 0-2.478.159V59.535a12.586 12.586 0 0 1 2.7-.3 7.445 7.445 0 0 1 5.684 2.228l.014 11.324a10.663 10.663 0 0 0-5.92-1.45zm6.83-9.874a7.512 7.512 0 0 1 5.684-2.228 12.641 12.641 0 0 1 2.7.3V71.5a20.073 20.073 0 0 0-2.464-.164 10.752 10.752 0 0 0-5.921 1.45zM22.583 73.95a16.778 16.778 0 0 0-8.367-1.123 11.865 11.865 0 0 1 3.908-.586 19.965 19.965 0 0 1 2.865.223.455.455 0 0 0 .524-.455v-11.4H22.6z" class="prefix__cls-1" data-name="Path 71" transform="translate(0 -58.303)"/>
            </g>
        </g>
    </g>
</svg>
