<svg id="Group_11" data-name="Group 11" xmlns="http://www.w3.org/2000/svg" width="191.986" height="36.072" viewBox="0 0 191.986 36.072">
  <path id="Path_72" data-name="Path 72" d="M4.708,0H1.8V-15.356H8.73a5.119,5.119,0,0,1,1.892.33,3.826,3.826,0,0,1,1.419.957,4.369,4.369,0,0,1,.9,1.507A5.712,5.712,0,0,1,13.26-10.6a5.042,5.042,0,0,1-.715,2.728A3.9,3.9,0,0,1,10.4-6.248L13.552,0H10.318L7.458-5.918H4.708Zm3.74-8.36a1.86,1.86,0,0,0,1.32-.451,1.673,1.673,0,0,0,.484-1.287V-11.11a1.637,1.637,0,0,0-.484-1.276,1.889,1.889,0,0,0-1.32-.44H4.708V-8.36ZM24.464,0A1.977,1.977,0,0,1,23-.539a2.479,2.479,0,0,1-.67-1.441H22.2A2.694,2.694,0,0,1,21.032-.3a3.974,3.974,0,0,1-2.178.561A3.714,3.714,0,0,1,16.148-.66,3.287,3.287,0,0,1,15.2-3.124a2.988,2.988,0,0,1,1.276-2.651,6.414,6.414,0,0,1,3.63-.869h1.958V-7.48a2.076,2.076,0,0,0-.506-1.5,2.172,2.172,0,0,0-1.626-.52,2.7,2.7,0,0,0-1.595.429,4.236,4.236,0,0,0-1.023,1.023l-1.672-1.5a4.846,4.846,0,0,1,1.694-1.6,5.6,5.6,0,0,1,2.794-.6,5.24,5.24,0,0,1,3.542,1.056,3.813,3.813,0,0,1,1.21,3.036v5.412h1.144V0ZM19.8-1.782A2.942,2.942,0,0,0,21.406-2.2a1.366,1.366,0,0,0,.66-1.232V-4.95h-1.8q-2.2,0-2.2,1.408v.374a1.226,1.226,0,0,0,.451,1.045,2.1,2.1,0,0,0,1.283.341ZM30.58,0,26.752-11.484h2.772l1.606,4.95,1.122,4.092h.154l1.122-4.092,1.562-4.95h2.684L33.924,0ZM41.052-13.156a1.709,1.709,0,0,1-1.265-.4,1.392,1.392,0,0,1-.385-1.012V-15a1.392,1.392,0,0,1,.385-1.012,1.709,1.709,0,0,1,1.265-.4,1.715,1.715,0,0,1,1.254.4A1.37,1.37,0,0,1,42.7-15v.44a1.37,1.37,0,0,1-.4,1.012,1.715,1.715,0,0,1-1.248.392Zm-1.408,1.672H42.46V0H39.644ZM47.366-16.5a1.736,1.736,0,0,1,1.309.429A1.49,1.49,0,0,1,49.082-15v.418a4.542,4.542,0,0,1-.165,1.2,5.566,5.566,0,0,1-.473,1.177,6.609,6.609,0,0,1-.726,1.078,6.552,6.552,0,0,1-.9.9H44.924a9.29,9.29,0,0,0,1.188-1.331,4.91,4.91,0,0,0,.726-1.485,1.347,1.347,0,0,1-.924-.517,1.622,1.622,0,0,1-.286-.957V-15a1.49,1.49,0,0,1,.407-1.067A1.769,1.769,0,0,1,47.366-16.5ZM54.494.264A6.161,6.161,0,0,1,51.722-.3a6.381,6.381,0,0,1-1.98-1.551L51.458-3.52a5.211,5.211,0,0,0,1.4,1.144,3.566,3.566,0,0,0,1.749.418A2.4,2.4,0,0,0,56.07-2.31a1.16,1.16,0,0,0,.451-.968,1.044,1.044,0,0,0-.319-.8,2.025,2.025,0,0,0-1.089-.407l-1.144-.154A5.442,5.442,0,0,1,51.12-5.706a2.973,2.973,0,0,1-.979-2.409,3.572,3.572,0,0,1,.308-1.507,3.2,3.2,0,0,1,.88-1.144,4.031,4.031,0,0,1,1.375-.726,5.951,5.951,0,0,1,1.793-.253,8.163,8.163,0,0,1,1.485.121,5.4,5.4,0,0,1,1.177.352,4.549,4.549,0,0,1,.968.572,9.089,9.089,0,0,1,.858.759l-1.65,1.65a4.356,4.356,0,0,0-1.21-.88,3.4,3.4,0,0,0-1.54-.352,2.122,2.122,0,0,0-1.331.33,1.053,1.053,0,0,0-.407.858,1.09,1.09,0,0,0,.341.869,2.36,2.36,0,0,0,1.155.429l1.166.154q3.718.528,3.718,3.388a3.416,3.416,0,0,1-.341,1.529,3.481,3.481,0,0,1-.957,1.188,4.52,4.52,0,0,1-1.485.77,6.438,6.438,0,0,1-1.95.272ZM76.582,0,75.35-3.916H69.894L68.684,0H65.736l5.148-15.356h3.608L79.6,0ZM72.666-12.716h-.11L70.6-6.4h4.048ZM86.218.264a5.781,5.781,0,0,1-2.266-.418,4.369,4.369,0,0,1-1.661-1.21,5.452,5.452,0,0,1-1.023-1.9,8.249,8.249,0,0,1-.352-2.5,8.142,8.142,0,0,1,.352-2.486,5.348,5.348,0,0,1,1.023-1.881,4.422,4.422,0,0,1,1.661-1.2,5.781,5.781,0,0,1,2.266-.418,5,5,0,0,1,2.871.77,4.32,4.32,0,0,1,1.639,2.134L88.418-7.81a2.394,2.394,0,0,0-.737-1.2,2.14,2.14,0,0,0-1.463-.473,2.106,2.106,0,0,0-1.771.748,3.1,3.1,0,0,0-.583,1.958v2.09a3.048,3.048,0,0,0,.583,1.947A2.12,2.12,0,0,0,86.218-2a2.194,2.194,0,0,0,1.562-.517A3.542,3.542,0,0,0,88.638-3.8L90.794-2.77A4.508,4.508,0,0,1,89.056-.5a5.091,5.091,0,0,1-2.838.764ZM101.42,0a1.977,1.977,0,0,1-1.463-.539,2.479,2.479,0,0,1-.671-1.441h-.132A2.694,2.694,0,0,1,97.988-.3,3.974,3.974,0,0,1,95.81.264,3.714,3.714,0,0,1,93.1-.66a3.287,3.287,0,0,1-.946-2.464A2.988,2.988,0,0,1,93.43-5.775a6.414,6.414,0,0,1,3.63-.869h1.958V-7.48a2.076,2.076,0,0,0-.506-1.5,2.172,2.172,0,0,0-1.624-.52,2.7,2.7,0,0,0-1.6.429A4.236,4.236,0,0,0,94.27-8.052l-1.67-1.5a4.846,4.846,0,0,1,1.694-1.6,5.6,5.6,0,0,1,2.794-.6,5.24,5.24,0,0,1,3.542,1.056,3.813,3.813,0,0,1,1.21,3.036v5.412h1.144V0ZM96.756-1.782A2.942,2.942,0,0,0,98.362-2.2a1.366,1.366,0,0,0,.66-1.232V-4.95h-1.8q-2.2,0-2.2,1.408v.374a1.226,1.226,0,0,0,.451,1.045,2.1,2.1,0,0,0,1.283.341ZM112.4-1.914h-.11A2.939,2.939,0,0,1,111.122-.33a3.43,3.43,0,0,1-2,.594A3.892,3.892,0,0,1,105.787-1.3a7.415,7.415,0,0,1-1.155-4.466,7.321,7.321,0,0,1,1.155-4.433,3.9,3.9,0,0,1,3.333-1.551,3.476,3.476,0,0,1,2,.583,2.887,2.887,0,0,1,1.166,1.573h.11V-16.28h2.816V0H112.4Zm-2.376-.154a2.853,2.853,0,0,0,1.694-.484,1.6,1.6,0,0,0,.682-1.386V-7.59a1.59,1.59,0,0,0-.682-1.342,2.764,2.764,0,0,0-1.694-.506,2.281,2.281,0,0,0-1.771.737,2.812,2.812,0,0,0-.671,1.969v1.98a2.771,2.771,0,0,0,.671,1.958,2.3,2.3,0,0,0,1.769.726ZM123.112.264a5.731,5.731,0,0,1-2.277-.429,4.713,4.713,0,0,1-1.694-1.21,5.412,5.412,0,0,1-1.067-1.892,7.8,7.8,0,0,1-.374-2.5,7.837,7.837,0,0,1,.363-2.464,5.387,5.387,0,0,1,1.045-1.881,4.631,4.631,0,0,1,1.672-1.21,5.592,5.592,0,0,1,2.244-.429,5.468,5.468,0,0,1,2.332.462,4.492,4.492,0,0,1,1.628,1.254,5.414,5.414,0,0,1,.957,1.837,7.61,7.61,0,0,1,.319,2.233v.924h-7.634v.286a2.842,2.842,0,0,0,.7,2.013,2.713,2.713,0,0,0,2.09.759,3.1,3.1,0,0,0,1.727-.44,4.946,4.946,0,0,0,1.2-1.122l1.518,1.694A4.72,4.72,0,0,1,125.939-.3a6.707,6.707,0,0,1-2.827.564Zm-.044-9.9a2.256,2.256,0,0,0-1.782.748,2.818,2.818,0,0,0-.66,1.936v.176h4.708v-.2a3.011,3.011,0,0,0-.583-1.925,2.019,2.019,0,0,0-1.683-.735ZM130.746,0V-11.484h2.816V-9.57h.11a3.723,3.723,0,0,1,1.056-1.54,2.964,2.964,0,0,1,2.024-.638,3.6,3.6,0,0,1,2.046.572,3.372,3.372,0,0,1,1.276,1.738h.044a3.232,3.232,0,0,1,1.221-1.639,3.779,3.779,0,0,1,2.3-.671,3.116,3.116,0,0,1,2.607,1.166,5.284,5.284,0,0,1,.913,3.322V0h-2.816V-6.974q0-2.464-1.848-2.464a2.662,2.662,0,0,0-.8.121,2.149,2.149,0,0,0-.682.352,1.706,1.706,0,0,0-.473.572,1.729,1.729,0,0,0-.176.8V0h-2.816V-6.974q0-2.464-1.848-2.464a2.591,2.591,0,0,0-.781.121,2.149,2.149,0,0,0-.682.352,1.83,1.83,0,0,0-.484.572,1.645,1.645,0,0,0-.187.8V0Zm26.4-11.484h2.64l-4.62,13.53a5.8,5.8,0,0,1-.5,1.067,2.651,2.651,0,0,1-.649.737,2.439,2.439,0,0,1-.9.418,5.115,5.115,0,0,1-1.232.132h-1.694V2.156h2.068L152.79.55l-4.114-12.034h2.794l2,6.072.748,2.9h.132l.792-2.9Z" transform="translate(32.2 17.012)" fill="#363535"/>
  <g id="prefix__book" transform="translate(0 0.012)">
    <g id="Group_10" data-name="Group 10">
      <path id="Path_71" data-name="Path 71" d="M23.043,59.7H21.494v-.527a.455.455,0,0,0-.328-.455,12.853,12.853,0,0,0-3.284-.418,8.48,8.48,0,0,0-6.14,2.273A8.391,8.391,0,0,0,5.6,58.3a12.854,12.854,0,0,0-3.284.418.455.455,0,0,0-.328.455V59.7H.455A.455.455,0,0,0,0,60.154v14.52a.455.455,0,0,0,.679.4,16.087,16.087,0,0,1,10.959-.909h.109a.457.457,0,0,0,.109,0,15.815,15.815,0,0,1,10.959.909.456.456,0,0,0,.683-.391V60.158a.455.455,0,0,0-.455-.458ZM.911,73.95V60.613H2v11.4a.456.456,0,0,0,.524.455,19.971,19.971,0,0,1,2.847-.227,11.836,11.836,0,0,1,3.89.586A16.775,16.775,0,0,0,.911,73.95ZM5.37,71.337a20.08,20.08,0,0,0-2.478.159V59.535a12.586,12.586,0,0,1,2.7-.3,7.445,7.445,0,0,1,5.684,2.228l.014,11.324a10.663,10.663,0,0,0-5.92-1.45Zm6.83-9.874a7.512,7.512,0,0,1,5.684-2.228,12.641,12.641,0,0,1,2.7.3V71.5a20.072,20.072,0,0,0-2.464-.164,10.752,10.752,0,0,0-5.921,1.45ZM22.583,73.95a16.778,16.778,0,0,0-8.367-1.123,11.865,11.865,0,0,1,3.908-.586,19.964,19.964,0,0,1,2.865.223.455.455,0,0,0,.524-.455v-11.4H22.6Z" transform="translate(0 -58.303)" fill="#363535"/>
    </g>
  </g>
  <path id="Path_258" data-name="Path 258" d="M5.306-5.441H3.4V0H2.043V-5.441H.135V-6.53H5.306ZM11.939-6.53V0H10.58V-2.812H7.7V0H6.345V-6.53H7.7v2.772H10.58V-6.53Zm2.952,1.058v1.678h2.178v1.021H14.891v1.715h2.8V0H13.531V-6.53H17.69v1.058Zm8.6,2.191a1.24,1.24,0,0,0,.929-.306,1.156,1.156,0,0,0,.295-.837,1.266,1.266,0,0,0-.074-.443.884.884,0,0,0-.225-.342,1.014,1.014,0,0,0-.38-.218A1.728,1.728,0,0,0,23.49-5.5h-.855v2.223Zm0-3.249a3.791,3.791,0,0,1,1.159.158,2.2,2.2,0,0,1,.8.439,1.724,1.724,0,0,1,.466.668,2.3,2.3,0,0,1,.151.842,2.39,2.39,0,0,1-.157.882,1.8,1.8,0,0,1-.477.689,2.22,2.22,0,0,1-.806.448,3.653,3.653,0,0,1-1.139.16h-.855V0h-1.35V-6.53Zm6.656,4.05-.707-2q-.063-.158-.133-.369t-.133-.459q-.063.252-.133.466t-.133.371l-.7,1.989ZM32.413,0H31.365a.462.462,0,0,1-.286-.083A.5.5,0,0,1,30.915-.3l-.441-1.247h-2.6L27.432-.3a.514.514,0,0,1-.157.2A.432.432,0,0,1,26.991,0H25.933l2.551-6.53h1.382Zm4.811-5.441H35.316V0H33.961V-5.441H32.053V-6.53h5.171ZM43.857-6.53V0H42.5V-2.812H39.622V0H38.263V-6.53h1.359v2.772H42.5V-6.53Zm8.3,1.089H50.251V0H48.9V-5.441H46.989V-6.53H52.16Zm7.16,2.174a3.594,3.594,0,0,1-.241,1.327A3.111,3.111,0,0,1,58.4-.882a3.143,3.143,0,0,1-1.055.7,3.556,3.556,0,0,1-1.368.254,3.556,3.556,0,0,1-1.368-.254,3.168,3.168,0,0,1-1.058-.7,3.094,3.094,0,0,1-.682-1.058,3.594,3.594,0,0,1-.241-1.327,3.577,3.577,0,0,1,.241-1.325,3.1,3.1,0,0,1,.682-1.055,3.168,3.168,0,0,1,1.058-.7A3.556,3.556,0,0,1,55.976-6.6a3.556,3.556,0,0,1,1.368.254,3.126,3.126,0,0,1,1.055.7,3.14,3.14,0,0,1,.68,1.058A3.564,3.564,0,0,1,59.319-3.267Zm-1.382,0a2.917,2.917,0,0,0-.135-.92,1.951,1.951,0,0,0-.389-.693,1.675,1.675,0,0,0-.617-.437,2.121,2.121,0,0,0-.821-.151,2.137,2.137,0,0,0-.824.151,1.671,1.671,0,0,0-.619.437,1.951,1.951,0,0,0-.389.693,2.917,2.917,0,0,0-.135.92,2.933,2.933,0,0,0,.135.925,1.928,1.928,0,0,0,.389.691,1.683,1.683,0,0,0,.619.434,2.137,2.137,0,0,0,.824.151,2.12,2.12,0,0,0,.821-.151,1.687,1.687,0,0,0,.617-.434,1.928,1.928,0,0,0,.389-.691A2.933,2.933,0,0,0,57.938-3.267Zm8.136-.059h2.241v2.7A3.494,3.494,0,0,1,67.25-.1a4.152,4.152,0,0,1-1.195.169A4.051,4.051,0,0,1,64.6-.178a3.28,3.28,0,0,1-1.116-.7,3.069,3.069,0,0,1-.715-1.058,3.476,3.476,0,0,1-.252-1.336,3.645,3.645,0,0,1,.241-1.346,3.014,3.014,0,0,1,.686-1.053,3.134,3.134,0,0,1,1.078-.688A3.854,3.854,0,0,1,65.934-6.6a4.138,4.138,0,0,1,.756.065,3.644,3.644,0,0,1,.648.18,3.076,3.076,0,0,1,.545.272,3.083,3.083,0,0,1,.45.347l-.392.6a.364.364,0,0,1-.234.175.428.428,0,0,1-.315-.072q-.162-.1-.317-.178a2.426,2.426,0,0,0-.331-.137,2.307,2.307,0,0,0-.382-.09,3.2,3.2,0,0,0-.477-.031,2.078,2.078,0,0,0-.824.157,1.762,1.762,0,0,0-.628.445,1.994,1.994,0,0,0-.4.693,2.765,2.765,0,0,0-.139.9,2.84,2.84,0,0,0,.153.965,2.009,2.009,0,0,0,.432.718,1.842,1.842,0,0,0,.668.446,2.35,2.35,0,0,0,.866.153,2.333,2.333,0,0,0,.578-.065,2.894,2.894,0,0,0,.5-.178v-1.1h-.738a.287.287,0,0,1-.2-.07.233.233,0,0,1-.074-.178Zm5.611-.113a1.725,1.725,0,0,0,.567-.083,1.065,1.065,0,0,0,.392-.229.892.892,0,0,0,.225-.344,1.255,1.255,0,0,0,.072-.432.885.885,0,0,0-.308-.72,1.444,1.444,0,0,0-.938-.256h-.7v2.065ZM74.849,0h-1.22a.53.53,0,0,1-.495-.261l-1.242-2a.525.525,0,0,0-.169-.171.549.549,0,0,0-.272-.054h-.459V0h-1.35V-6.53h2.052a4.217,4.217,0,0,1,1.17.142,2.249,2.249,0,0,1,.8.394,1.508,1.508,0,0,1,.454.6,1.991,1.991,0,0,1,.144.767,2.016,2.016,0,0,1-.092.614,1.811,1.811,0,0,1-.268.529,1.93,1.93,0,0,1-.432.423,2.234,2.234,0,0,1-.585.3,1.3,1.3,0,0,1,.243.173,1.187,1.187,0,0,1,.2.241Zm2.223-5.472v1.678H79.25v1.021H77.072v1.715h2.8V0H75.713V-6.53h4.158v1.058ZM84.55-2.48l-.706-2q-.063-.158-.133-.369t-.133-.459q-.063.252-.133.466t-.133.371l-.7,1.989ZM86.819,0H85.77a.462.462,0,0,1-.286-.083A.5.5,0,0,1,85.32-.3l-.441-1.247h-2.6L81.837-.3a.514.514,0,0,1-.158.2A.432.432,0,0,1,81.4,0H80.339L82.89-6.53h1.382Zm4.81-5.441H89.721V0H88.367V-5.441H86.459V-6.53h5.17Zm2.4-.031v1.678h2.178v1.021H94.028v1.715h2.8V0H92.669V-6.53h4.158v1.058ZM100.1-3.438a1.725,1.725,0,0,0,.567-.083,1.065,1.065,0,0,0,.392-.229.892.892,0,0,0,.225-.344,1.255,1.255,0,0,0,.072-.432.885.885,0,0,0-.308-.72,1.444,1.444,0,0,0-.938-.256h-.7v2.065ZM103.266,0h-1.22a.53.53,0,0,1-.495-.261l-1.242-2a.525.525,0,0,0-.169-.171.549.549,0,0,0-.272-.054H99.41V0H98.06V-6.53h2.052a4.217,4.217,0,0,1,1.17.142,2.249,2.249,0,0,1,.8.394,1.508,1.508,0,0,1,.454.6,1.991,1.991,0,0,1,.144.767,2.016,2.016,0,0,1-.092.614,1.811,1.811,0,0,1-.268.529,1.93,1.93,0,0,1-.432.423,2.234,2.234,0,0,1-.585.3,1.3,1.3,0,0,1,.243.173,1.187,1.187,0,0,1,.2.241Zm6.763-5.279a.513.513,0,0,1-.128.151.281.281,0,0,1-.169.047.417.417,0,0,1-.214-.07q-.115-.07-.268-.151a2.594,2.594,0,0,0-.351-.151,1.4,1.4,0,0,0-.464-.07,1.025,1.025,0,0,0-.7.209.7.7,0,0,0-.234.547.513.513,0,0,0,.128.358,1.115,1.115,0,0,0,.338.245,3.136,3.136,0,0,0,.475.185q.266.081.545.178a4.793,4.793,0,0,1,.544.227,1.915,1.915,0,0,1,.475.329,1.505,1.505,0,0,1,.338.484,1.693,1.693,0,0,1,.128.7,2.232,2.232,0,0,1-.155.835,1.979,1.979,0,0,1-.448.68,2.072,2.072,0,0,1-.722.457,2.681,2.681,0,0,1-.974.167,3.083,3.083,0,0,1-.619-.063,3.569,3.569,0,0,1-.594-.176,3.277,3.277,0,0,1-.538-.27,2.364,2.364,0,0,1-.441-.351l.4-.639a.4.4,0,0,1,.131-.119.334.334,0,0,1,.171-.047.467.467,0,0,1,.257.09q.135.09.311.2a2.513,2.513,0,0,0,.407.2,1.536,1.536,0,0,0,.556.09,1.11,1.11,0,0,0,.731-.216.79.79,0,0,0,.259-.644.6.6,0,0,0-.128-.4,1.032,1.032,0,0,0-.335-.257,2.657,2.657,0,0,0-.473-.178q-.266-.074-.545-.164a4.468,4.468,0,0,1-.544-.216,1.685,1.685,0,0,1-.473-.333,1.577,1.577,0,0,1-.335-.513,1.974,1.974,0,0,1-.128-.76,1.8,1.8,0,0,1,.144-.707,1.793,1.793,0,0,1,.423-.608,2.117,2.117,0,0,1,.686-.427,2.512,2.512,0,0,1,.934-.162,3.173,3.173,0,0,1,1.091.182,2.447,2.447,0,0,1,.848.506Zm4.32,4.2a1.5,1.5,0,0,0,.59-.11,1.212,1.212,0,0,0,.441-.313,1.371,1.371,0,0,0,.275-.49,2.073,2.073,0,0,0,.094-.648V-6.53h1.35v3.888a3.016,3.016,0,0,1-.191,1.091,2.461,2.461,0,0,1-.547.857,2.492,2.492,0,0,1-.864.563,3.08,3.08,0,0,1-1.147.2,3.1,3.1,0,0,1-1.15-.2,2.488,2.488,0,0,1-.866-.563,2.461,2.461,0,0,1-.547-.857,3.016,3.016,0,0,1-.191-1.091V-6.53h1.35v3.888a2.073,2.073,0,0,0,.094.648,1.371,1.371,0,0,0,.274.49,1.212,1.212,0,0,0,.441.313A1.514,1.514,0,0,0,114.35-1.08Zm8.707-.527a.25.25,0,0,1,.189.081l.535.572a2.548,2.548,0,0,1-.983.765,3.421,3.421,0,0,1-1.4.261,3.328,3.328,0,0,1-1.318-.25,2.853,2.853,0,0,1-.994-.7,3.09,3.09,0,0,1-.63-1.058,3.916,3.916,0,0,1-.22-1.336,3.935,3.935,0,0,1,.106-.925A3.256,3.256,0,0,1,118.652-5a3.122,3.122,0,0,1,.488-.666,2.945,2.945,0,0,1,.646-.506,3.1,3.1,0,0,1,.785-.32,3.6,3.6,0,0,1,.907-.11,3.544,3.544,0,0,1,.682.063,3.3,3.3,0,0,1,.6.176,2.757,2.757,0,0,1,.515.272,2.882,2.882,0,0,1,.425.349l-.454.621a.424.424,0,0,1-.1.1.289.289,0,0,1-.171.045.382.382,0,0,1-.218-.077q-.11-.076-.27-.171a1.955,1.955,0,0,0-.4-.171,2.048,2.048,0,0,0-.61-.076,1.867,1.867,0,0,0-.751.148,1.632,1.632,0,0,0-.587.43,1.979,1.979,0,0,0-.38.691,2.97,2.97,0,0,0-.135.932,2.794,2.794,0,0,0,.146.938,2.059,2.059,0,0,0,.4.7,1.686,1.686,0,0,0,.594.43,1.818,1.818,0,0,0,.727.146,3.5,3.5,0,0,0,.416-.022,1.724,1.724,0,0,0,.346-.076,1.531,1.531,0,0,0,.3-.14,1.858,1.858,0,0,0,.286-.216.556.556,0,0,1,.1-.067A.258.258,0,0,1,123.057-1.607Zm6.012,0a.25.25,0,0,1,.189.081l.536.572a2.548,2.548,0,0,1-.983.765,3.421,3.421,0,0,1-1.4.261,3.328,3.328,0,0,1-1.318-.25,2.853,2.853,0,0,1-.994-.7,3.09,3.09,0,0,1-.63-1.058,3.916,3.916,0,0,1-.22-1.336,3.935,3.935,0,0,1,.106-.925A3.256,3.256,0,0,1,124.664-5a3.122,3.122,0,0,1,.488-.666,2.945,2.945,0,0,1,.646-.506,3.1,3.1,0,0,1,.785-.32,3.6,3.6,0,0,1,.907-.11,3.544,3.544,0,0,1,.682.063,3.3,3.3,0,0,1,.6.176,2.757,2.757,0,0,1,.515.272,2.883,2.883,0,0,1,.425.349l-.455.621a.424.424,0,0,1-.1.1.289.289,0,0,1-.171.045.382.382,0,0,1-.218-.077q-.11-.076-.27-.171a1.955,1.955,0,0,0-.4-.171,2.048,2.048,0,0,0-.61-.076,1.867,1.867,0,0,0-.751.148,1.632,1.632,0,0,0-.587.43,1.979,1.979,0,0,0-.38.691,2.97,2.97,0,0,0-.135.932,2.794,2.794,0,0,0,.146.938,2.059,2.059,0,0,0,.4.7,1.686,1.686,0,0,0,.594.43,1.818,1.818,0,0,0,.727.146,3.5,3.5,0,0,0,.416-.022,1.725,1.725,0,0,0,.347-.076,1.531,1.531,0,0,0,.3-.14,1.859,1.859,0,0,0,.286-.216.556.556,0,0,1,.1-.067A.258.258,0,0,1,129.069-1.607Zm3.069-3.865v1.678h2.178v1.021h-2.178v1.715h2.8V0h-4.158V-6.53h4.158v1.058Zm7.569.193a.512.512,0,0,1-.128.151.281.281,0,0,1-.169.047.417.417,0,0,1-.214-.07q-.115-.07-.268-.151a2.594,2.594,0,0,0-.351-.151,1.4,1.4,0,0,0-.464-.07,1.025,1.025,0,0,0-.7.209.7.7,0,0,0-.234.547.513.513,0,0,0,.128.358,1.115,1.115,0,0,0,.337.245,3.137,3.137,0,0,0,.475.185q.265.081.544.178a4.794,4.794,0,0,1,.544.227,1.915,1.915,0,0,1,.475.329,1.505,1.505,0,0,1,.338.484,1.693,1.693,0,0,1,.128.7,2.232,2.232,0,0,1-.155.835,1.979,1.979,0,0,1-.448.68,2.073,2.073,0,0,1-.722.457,2.681,2.681,0,0,1-.974.167,3.083,3.083,0,0,1-.619-.063,3.569,3.569,0,0,1-.594-.176,3.277,3.277,0,0,1-.538-.27,2.363,2.363,0,0,1-.441-.351l.4-.639a.4.4,0,0,1,.13-.119.334.334,0,0,1,.171-.047.467.467,0,0,1,.257.09q.135.09.311.2a2.513,2.513,0,0,0,.407.2,1.536,1.536,0,0,0,.556.09,1.11,1.11,0,0,0,.731-.216.79.79,0,0,0,.259-.644.6.6,0,0,0-.128-.4,1.031,1.031,0,0,0-.335-.257,2.657,2.657,0,0,0-.473-.178q-.266-.074-.544-.164a4.468,4.468,0,0,1-.545-.216,1.685,1.685,0,0,1-.472-.333,1.577,1.577,0,0,1-.335-.513,1.974,1.974,0,0,1-.128-.76,1.8,1.8,0,0,1,.144-.707,1.792,1.792,0,0,1,.423-.608,2.117,2.117,0,0,1,.686-.427A2.512,2.512,0,0,1,138.1-6.6a3.174,3.174,0,0,1,1.091.182,2.447,2.447,0,0,1,.848.506Zm5.184,0a.512.512,0,0,1-.128.151.281.281,0,0,1-.169.047.417.417,0,0,1-.214-.07q-.115-.07-.268-.151a2.594,2.594,0,0,0-.351-.151,1.4,1.4,0,0,0-.464-.07,1.025,1.025,0,0,0-.7.209.7.7,0,0,0-.234.547.513.513,0,0,0,.128.358,1.115,1.115,0,0,0,.337.245,3.137,3.137,0,0,0,.475.185q.265.081.544.178a4.794,4.794,0,0,1,.544.227,1.915,1.915,0,0,1,.475.329,1.505,1.505,0,0,1,.338.484,1.693,1.693,0,0,1,.128.7,2.232,2.232,0,0,1-.155.835,1.979,1.979,0,0,1-.448.68,2.073,2.073,0,0,1-.722.457,2.681,2.681,0,0,1-.974.167,3.083,3.083,0,0,1-.619-.063,3.569,3.569,0,0,1-.594-.176,3.277,3.277,0,0,1-.538-.27,2.363,2.363,0,0,1-.441-.351l.4-.639a.4.4,0,0,1,.13-.119.334.334,0,0,1,.171-.047.467.467,0,0,1,.257.09q.135.09.311.2a2.513,2.513,0,0,0,.407.2,1.536,1.536,0,0,0,.556.09,1.11,1.11,0,0,0,.731-.216.79.79,0,0,0,.259-.644.6.6,0,0,0-.128-.4,1.031,1.031,0,0,0-.335-.257,2.657,2.657,0,0,0-.473-.178q-.266-.074-.544-.164a4.468,4.468,0,0,1-.545-.216,1.685,1.685,0,0,1-.472-.333,1.577,1.577,0,0,1-.335-.513,1.974,1.974,0,0,1-.128-.76,1.8,1.8,0,0,1,.144-.707,1.792,1.792,0,0,1,.423-.608,2.117,2.117,0,0,1,.686-.427,2.512,2.512,0,0,1,.934-.162,3.174,3.174,0,0,1,1.091.182,2.447,2.447,0,0,1,.848.506Z" transform="translate(39 36)" fill="#363535"/>
</svg>
