<svg xmlns="http://www.w3.org/2000/svg" id="prefix__book" width="23.499" height="16.826" viewBox="0 0 23.499 16.826">
    <g id="prefix__Group_10" data-name="Group 10">
        <path id="prefix__Path_71" d="M23.043 59.7h-1.549v-.527a.455.455 0 0 0-.328-.455 12.853 12.853 0 0 0-3.284-.418 8.48 8.48 0 0 0-6.14 2.273A8.391 8.391 0 0 0 5.6 58.3a12.853 12.853 0 0 0-3.284.418.455.455 0 0 0-.328.455v.527H.455a.455.455 0 0 0-.455.454v14.52a.455.455 0 0 0 .679.4 16.087 16.087 0 0 1 10.959-.909h.109a.457.457 0 0 0 .109 0 15.815 15.815 0 0 1 10.959.909.456.456 0 0 0 .683-.391V60.158a.455.455 0 0 0-.455-.458zM.911 73.95V60.613H2v11.4a.456.456 0 0 0 .524.455 19.972 19.972 0 0 1 2.847-.227 11.836 11.836 0 0 1 3.89.586 16.775 16.775 0 0 0-8.35 1.123zm4.459-2.613a20.08 20.08 0 0 0-2.478.159V59.535a12.586 12.586 0 0 1 2.7-.3 7.445 7.445 0 0 1 5.684 2.228l.014 11.324a10.663 10.663 0 0 0-5.92-1.45zm6.83-9.874a7.512 7.512 0 0 1 5.684-2.228 12.641 12.641 0 0 1 2.7.3V71.5a20.073 20.073 0 0 0-2.464-.164 10.752 10.752 0 0 0-5.921 1.45zM22.583 73.95a16.778 16.778 0 0 0-8.367-1.123 11.865 11.865 0 0 1 3.908-.586 19.965 19.965 0 0 1 2.865.223.455.455 0 0 0 .524-.455v-11.4H22.6z" data-name="Path 71" transform="translate(0 -58.303)" style="fill:#363535"/>
    </g>
</svg>
