<?xml version="1.0" encoding="UTF-8"?>
<svg width="48px" height="48px" viewBox="0 0 48 48" version="1.1" xmlns="http://www.w3.org/2000/svg" xmlns:xlink="http://www.w3.org/1999/xlink">
    <title>Maths</title>
    <g id="website" stroke="none" stroke-width="1" fill="none" fill-rule="evenodd">
        <rect id="Rectangle" fill="#F29132" x="0" y="0" width="48" height="48" rx="5"></rect>
        <g id="calculate-24px" transform="translate(8.640000, 8.640000)">
            <rect id="Rectangle" x="0" y="0" width="30.72" height="30.72"></rect>
            <path d="M23.5733333,4.8 L7.14666667,4.8 C5.856,4.8 4.8,5.856 4.8,7.14666667 L4.8,23.5733333 C4.8,24.864 5.856,25.92 7.14666667,25.92 L23.5733333,25.92 C24.864,25.92 25.92,24.864 25.92,23.5733333 L25.92,7.14666667 C25.92,5.856 24.864,4.8 23.5733333,4.8 Z M16.5685333,9.56373333 L17.8122667,8.32 L19.4666667,9.9744 L21.1210667,8.32 L22.3648,9.56373333 L20.7104,11.2181333 L22.3648,12.8725333 L21.1210667,14.1162667 L19.4666667,12.4736 L17.8122667,14.128 L16.5685333,12.8842667 L18.2229333,11.2298667 L16.5685333,9.56373333 Z M8.61333333,10.3381333 L14.48,10.3381333 L14.48,12.0981333 L8.61333333,12.0981333 L8.61333333,10.3381333 Z M14.7733333,20.0533333 L12.4266667,20.0533333 L12.4266667,22.4 L10.6666667,22.4 L10.6666667,20.0533333 L8.32,20.0533333 L8.32,18.2933333 L10.6666667,18.2933333 L10.6666667,15.9466667 L12.4266667,15.9466667 L12.4266667,18.2933333 L14.7733333,18.2933333 L14.7733333,20.0533333 Z M22.4,21.52 L16.5333333,21.52 L16.5333333,19.76 L22.4,19.76 L22.4,21.52 Z M22.4,18.5866667 L16.5333333,18.5866667 L16.5333333,16.8266667 L22.4,16.8266667 L22.4,18.5866667 Z" id="Shape" fill="#FFFFFF" fill-rule="nonzero"></path>
        </g>
    </g>
</svg>