<svg xmlns="http://www.w3.org/2000/svg" width="51" height="51" viewBox="0 0 51 51"><defs><style>.a{fill:#707070;}.b,.c,.e{fill:none;}.b,.c{stroke:#2a2a2a;}.b{stroke-width:2px;}.c{stroke-width:3px;}.d{stroke:none;}</style></defs><path class="a" d="M24.219,0H2.906A2.98,2.98,0,0,0,0,2.906V28.094A2.98,2.98,0,0,0,2.906,31H24.219a2.98,2.98,0,0,0,2.906-2.906V2.906A2.98,2.98,0,0,0,24.219,0ZM7.75,26.35a.833.833,0,0,1-.775.775H4.65a.833.833,0,0,1-.775-.775V24.025a.833.833,0,0,1,.775-.775H6.975a.833.833,0,0,1,.775.775Zm0-7.75a.833.833,0,0,1-.775.775H4.65a.833.833,0,0,1-.775-.775V16.275A.833.833,0,0,1,4.65,15.5H6.975a.833.833,0,0,1,.775.775Zm7.75,7.75a.833.833,0,0,1-.775.775H12.4a.833.833,0,0,1-.775-.775V24.025a.833.833,0,0,1,.775-.775h2.325a.833.833,0,0,1,.775.775Zm0-7.75a.833.833,0,0,1-.775.775H12.4a.833.833,0,0,1-.775-.775V16.275A.833.833,0,0,1,12.4,15.5h2.325a.833.833,0,0,1,.775.775Zm7.75,7.75a.833.833,0,0,1-.775.775H20.15a.833.833,0,0,1-.775-.775V16.275a.833.833,0,0,1,.775-.775h2.325a.833.833,0,0,1,.775.775V26.35Zm0-15.5a.833.833,0,0,1-.775.775H4.65a.833.833,0,0,1-.775-.775V4.65a.833.833,0,0,1,.775-.775H22.475a.833.833,0,0,1,.775.775Z" transform="translate(12.188 10.5)"/><g class="b"><circle class="d" cx="25.5" cy="25.5" r="25.5"/><circle class="e" cx="25.5" cy="25.5" r="24.5"/></g><line class="c" y1="34" x2="37" transform="translate(6.5 7.5)"/></svg>