<svg xmlns="http://www.w3.org/2000/svg" xmlns:xlink="http://www.w3.org/1999/xlink" width="180.287" height="204.264" viewBox="0 0 180.287 204.264"><defs><style>.a{fill:none;}.b{fill:#044f87;}.c{fill:#35475c;}.d{fill:#6d322c;}.e{fill:#263a50;}.f{fill:#f5c09d;}.g{fill:#f7ceb3;}.h{fill:#f4bd9f;}.i{fill:#69cbeb;}.j{fill:#f6c8a9;}.k{fill:#d4957a;}.l{fill:#4a6885;}.m{fill:rgba(0,0,0,0);}.n{clip-path:url(#a);}.o{fill:#e08d70;}.p{fill:#abeaff;}.q{fill:#0f5391;}.r{fill:#d7e7ed;}.s{fill:#def8ff;}.t{fill:#6c6c6c;}.u{fill:#aab4cd;}.v{fill:#ced4ea;}.w{fill:#dde3f2;}</style><clipPath id="a"><rect class="a" width="180.287" height="204.264"/></clipPath></defs><rect class="b" width="41.429" height="59.456" transform="translate(130.065 83.659)"/><rect class="c" width="43.81" height="10.64" transform="translate(129.593 143.115)"/><rect class="d" width="7.141" height="51.946" transform="translate(129.593 138.734)"/><rect class="d" width="7.141" height="51.946" transform="translate(166.251 138.734)"/><path class="e" d="M352.265,1248.745s13.5-1.8,14.966.731,2.682,4.925,2.048,6.143-9.064,4.177-10.335,4.242-9.022,2.014-10.459,1.25-3.922-6.32-3.922-6.32Z" transform="translate(-220.867 -1108.811)"/><path class="e" d="M372.369,1302.808c-1.4.161-2.71-.88-3.663-1.958a1.736,1.736,0,0,0,.033.3c1.611,6.072,6.524,6.454,7.368,6.363,3.607-.388,2.349-7.394,1.689-7.464,0,0-.234-.6-.574-1.322-.516,2.66-2.584,3.822-4.855,4.083" transform="translate(-220.239 -1107.496)"/><path class="f" d="M347.522,1253.438a3.567,3.567,0,0,0-.115,5.057c1.819,2.13,2.144,1.007,2.856,2.9s1.337,7.257,2.6,9.49,14.085,24.364,14.085,24.364a2.551,2.551,0,0,0,.42,2.3,13.7,13.7,0,0,1,1.829,3.838,4.1,4.1,0,0,1,.086.709c.952,1.078,2.258,2.119,3.663,1.958,2.27-.262,4.338-1.424,4.854-4.083a6.257,6.257,0,0,0-1.587-2.333c-1-.605-2.789-3.45-2.789-3.45l-.234-1.046c-.114-.509-1.921-2.164-1.921-2.164s-4.544-19.019-6.443-21.927-3.194-3.988-3.658-7.346-5.113-9.987-6.444-10.794-3.8-1.133-7.206,2.518" transform="translate(-220.819 -1108.752)"/><path class="e" d="M382.495,1301.355c1.144-.767,1.324-2.349,1.22-3.735a1.875,1.875,0,0,1,.2.238c3.331,5.446.028,8.818-.656,9.284-2.919,1.988-7.2-3.917-6.771-4.384,0,0-.277-.588-.562-1.326a5.559,5.559,0,0,0,6.574-.078" transform="translate(-220.052 -1107.525)"/><path class="g" d="M363.978,1249.644a3.973,3.973,0,0,1,3.838,3.619c.252,2.7-.818,2.086.07,3.918s4.41,6.138,5.143,8.566,7.8,26.651,7.8,26.651a2.777,2.777,0,0,1,1.4,1.947,13.459,13.459,0,0,0,1.514,3.953,4.475,4.475,0,0,0,.463.57c.1,1.386-.076,2.969-1.22,3.735a5.56,5.56,0,0,1-6.574.078,5.859,5.859,0,0,1-.573-2.7c.279-1.07-.526-4.275-.526-4.275l-.606-.91a9.871,9.871,0,0,1-.2-2.789s-10.8-16.741-11.572-20.059-.628-4.922-2.782-7.666-3.679-10.508-3.307-11.935,1.934-3.222,7.127-2.7" transform="translate(-220.549 -1108.774)"/><path class="c" d="M385.909,1233.767l-16.272-1.252s-9.644,1.587-9.805,1.668c-1.074.547-14.808,8.119-14.812,13.978a39.57,39.57,0,0,0,1.479,11.271s-.52-6.058,1.938-7.449,9.839-3.26,12.638-2.906,8.3.809,7.167,5.353c-.174.7-.329,1.254-.469,1.706l11.669-2.551s13.367-8.2,6.467-19.819" transform="translate(-220.855 -1109.217)"/><path class="h" d="M360.676,1188.412l2.347,6.1s7.2.783,9.7-4.224,1.565-6.572,1.565-6.572l-5.632-2.191Z" transform="translate(-220.448 -1110.542)"/><path class="i" d="M372.98,1190.069s11.891,2.346,12.986,4.537,1.565,29.415,1.565,29.885-26.13,0-26.13,0-8.449-26.755-9.857-29.259-.469-2.19.783-3.442,9.388-1.409,9.388-1.409a3.982,3.982,0,0,0,4.381,2.974c5.789-.782,6.884-3.286,6.884-3.286" transform="translate(-220.703 -1110.319)"/><path class="g" d="M353.48,1169.859s-2.075,4.687-.8,7.2,1.8,2.922,1.764,3.873-.509,3.379.994,5.236,2.781,4.811,3.342,5.089c3.034,1.5,7.6-2.247,10.244-4.956s6.138-7.422,4.55-11.161-4.4-16.941-20.091-5.286" transform="translate(-220.666 -1110.968)"/><path class="j" d="M352.421,1192.585s-1.878-.313-3.207,3.207-2.269,11.345-2.9,12.675-6.806,12.986-4.693,13.378.6,3.389,4.224,1.487c4.772-2.5,8.918-19.324,8.918-19.324s2.425-12.517-2.268-11.109-.078-.312-.078-.312" transform="translate(-220.954 -1110.254)"/><path class="k" d="M360.7,1171.046s6.1,5.163,6.1,12.36-.313,11.421-.47,15.8,4.85-1.409,6.885-4.538,5.007-7.824,5.633-7.979.052-17.091-9.857-21.748c-9.954-4.679-15.177,3.441-15.177,3.441Z" transform="translate(-220.626 -1111.011)"/><path class="k" d="M352.651,1169.222s-2.4.834-2.243,4.276,1.774,4.329,1.774,4.329a22.714,22.714,0,0,0,7.041-.313,21.425,21.425,0,0,0,6.1-2.19s-.157-5.79-3.755-6.885-5.789-1.877-8.918.783" transform="translate(-220.715 -1110.908)"/><path class="h" d="M325.456,1216.32s-.334-1.437,2.789.791,4.023,1.049,4.821,3.307.643,2.95-.4,3.089a13.439,13.439,0,0,1-4.525-.311c-1.11-.381-3.844-4.708-3.615-5.375a6.128,6.128,0,0,1,.928-1.5" transform="translate(-221.388 -1109.649)"/><path class="j" d="M328.939,1223.652s-3.045.2-3.535-.3a11.941,11.941,0,0,1-1.245-1.916l1.829.213s3.135.745,3.057,1.215-.106.79-.106.79" transform="translate(-221.397 -1109.505)"/><path class="j" d="M323.724,1218.73l1.592,1.869s3.5,1.613,3.6,1.069.6-.786-.336-1.19-2.169-.909-2.169-.909-1.246-1.916-1.865-1.8-.825.958-.825.958" transform="translate(-221.408 -1109.6)"/><path class="j" d="M323.923,1220.989l.339.275,1.6,1.3s3.066.225,3.535.3,1.085.454,1.163-.016-.561-1.019-1.1-1.123-3.21-.769-3.21-.769l-2.04-1.527a1.75,1.75,0,0,0-.286,1.557" transform="translate(-221.405 -1109.557)"/><path class="l" d="M331.52,1213.109s-4.624,5.527-4.927,6.168-1.084,2.44-1.084,2.44a10.8,10.8,0,0,1,1.893-1.418c.347-.047,4.9-5.848,4.9-5.848s.736-2.146-.78-1.342" transform="translate(-221.362 -1109.726)"/><path class="g" d="M330.521,1220.145l-.28-2.081s-1.048,1.128-1.717,1.148-1.2-1.075-1.2-1.075l2.789-2.1,1.873.808a23.4,23.4,0,0,1,1.656,3.132c.021.422.18,2.13-.859,2.022a3.241,3.241,0,0,1-.407-.071c-.989-.234-2.142-.937-1.853-1.779" transform="translate(-221.315 -1109.645)"/><path class="j" d="M325.8,1215.176a6.194,6.194,0,0,0,.746,1.782c.755,1.5.12,3.738-.881,2.448a14.259,14.259,0,0,1-1.683-3.029s1.008-1.682,1.818-1.2" transform="translate(-221.401 -1109.669)"/><path class="g" d="M336.45,1218.674c3.051-.156,4.616-2.738,7.354-1.174s2.66,5.242,1.565,5.946-15.568.158-15.568.158l-.235-2.74Z" transform="translate(-221.256 -1109.62)"/><path class="g" d="M383.334,1193.889s-5.633,3.442-2.5,9.388,5.633,10.327,6.259,13.142,4.068,6.886,7.2,6.886-.313-4.382-.626-10.641c-.58-11.6-10.64-20.965-10.327-18.776" transform="translate(-219.949 -1110.229)"/><path class="g" d="M358.628,1222.054l4.1-3.211a4.8,4.8,0,0,1,5.691-.2,8.5,8.5,0,0,0,5.226,1.85c3.755-.312,10.326-2.5,14.395-2.816s7.51.938,7.823,3.129-4.068,5.32-4.068,5.32H355.186s.939-3.441,3.442-4.068" transform="translate(-220.59 -1109.604)"/><rect class="m" width="180.287" height="204.264"/><g class="n"><g transform="translate(0 -0.006)"><rect class="d" width="4.381" height="52.89" transform="translate(88.286 151.257)"/><rect class="d" width="4.381" height="52.89" transform="translate(175.588 151.257)"/><rect class="o" width="92" height="8.762" transform="translate(88.286 114.024)"/><rect class="d" width="92" height="33.478" transform="translate(88.286 122.16)"/><path class="j" d="M271.3,1149.481s2.281-.636,4.615,1.942,4.8,12.272,4.8,14.115,4.667,11.545,4.667,11.545a11.049,11.049,0,0,1,5.65-2.333c3.193-.245,8.6-3.561,10.194-4.422s.369-2.456,1.351-4.421,1.105-2.579,2.21-3.316,4.3,2.211,4.668,2.211.368.86-1.105,1.105a4.031,4.031,0,0,1-2.7-.615l-.737,1.965s2.334,2.088,2.21,3.562a4.059,4.059,0,0,0,.983,2.7s3.439,1.351-4.176,3.316-14.615,9.948-15.721,10.685-3.316,3.193-6.51-1.228-8.351-14.984-8.351-14.984-5.727-17.409-2.043-21.83" transform="translate(-222.803 -1111.371)"/><path class="p" d="M274.8,1149.348c4.2,1.958,7.772,20.24,7.772,20.24a26.657,26.657,0,0,1-3.724,3.077c-1.781,1.133-3.724,4.7-3.724,4.7s-4.7-12.792-5.02-16.193-1.619-11.334.486-11.983c0,0-.647-2.1,4.21.163" transform="translate(-222.82 -1111.4)"/><path class="h" d="M313.119,1166.343a20.938,20.938,0,0,0-4.858-1.457c-2.105-.243-2.915-1.618-3.886.081s-1.7,3.32-1.457,3.805,1.376,6.963,4.7,6.072,4.858-1.214,4.858-1.214Z" transform="translate(-221.95 -1110.988)"/><path class="j" d="M311.745,1165.124s-3.832,2.971-2.874,4.675,1.34.57,1.34.57-1.3,1.137-.319,1.606,1.032.007,1.032.007-1.5.255-.524,1.441,2.808.112,3.2-.105,1.433-.65.911-1.579-.182-1.032,0-2.61a1.534,1.534,0,0,0-.911-1.7,2.386,2.386,0,0,0,.091-2.476c-.774-1.2-1.941.173-1.941.173" transform="translate(-221.798 -1110.98)"/><path class="q" d="M304.689,1155.319s-1.943.162-1.3,1.3,4.7,12.791,4.7,12.791l1.943,2.807-.162-4.1Z" transform="translate(-221.94 -1111.217)"/><path class="g" d="M312.88,1161.112s.847,1.016-.593,3.3a10.244,10.244,0,0,0-1.609,3.557,1.286,1.286,0,0,1-1.693-1.185,7.262,7.262,0,0,1,.931-3.558s1.524-3.9,2.964-2.116" transform="translate(-221.792 -1111.079)"/><path class="r" d="M278.215,1308.234a10.587,10.587,0,0,0,3.148.738c1.321,0,3.692-.253,6.043-.487,2.371-.252,2.9,1.224,4.741,1.224s10.007.254,10.007.254a3.61,3.61,0,0,0,.583-2.934c-.019-.078-.039-.175-.058-.273-.525-1.981-5.79-2.488-5.79-2.488l-11.056-8.413-4.994.758a27.592,27.592,0,0,0-1.846,2.72c-.6.991-.777,3.771-.8,5.965-.039,1.633.019,2.934.019,2.934" transform="translate(-222.592 -1107.565)"/><path class="l" d="M278.2,1305.3c0,.74.019,1.224.019,1.224a10.357,10.357,0,0,0,3.148.759c1.321,0,3.692-.254,6.043-.506,2.371-.253,2.895,1.243,4.741,1.243s10.007.253,10.007.253a3.167,3.167,0,0,0,.583-1.244c-.019-.077-.039-.174-.058-.272-.524-1.981-5.79-2.487-5.79-2.487l-11.056-8.414-4.994.758a27.513,27.513,0,0,0-1.846,2.72c-.6.991-.777,3.77-.8,5.964" transform="translate(-222.591 -1107.565)"/><path class="s" d="M224.886,1311.247c1.574.952,14.418.33,14.418.33a13.578,13.578,0,0,0,1.768-3.711,2.258,2.258,0,0,0-.195-1.943c-1.263-1.555-.621-7.831-.621-7.831l-9.716,1.263s-2.837,5.636-4.7,6.257a2.251,2.251,0,0,0-1.049.836c-1.01,1.418-1.127,4.06.1,4.8" transform="translate(-224 -1107.507)"/><path class="l" d="M225.606,1309.3c1.554.953,14.418.331,14.418.331a18.894,18.894,0,0,0,1.03-1.769,2.258,2.258,0,0,0-.195-1.943c-1.263-1.555-.622-7.831-.622-7.831l-9.716,1.263s-2.837,5.636-4.7,6.257a2.255,2.255,0,0,0-1.049.836c-.175,1.185.058,2.389.836,2.856" transform="translate(-223.981 -1107.506)"/><path class="e" d="M277.711,1197.809s4.7,54.21,5.014,56.4-1.254,2.821-.94,8.147,7.986,39.124,7.986,39.124-9.553,1.926-10.806.359-8.147-22.249-9.088-27.575-.94-18.175-.94-18.175l-8.46-38.856,5.954-16.295,3.655-1.016Z" transform="translate(-223.052 -1110.113)"/><path class="e" d="M263.318,1224.77c-1.253,7.834,2.507-20.994,2.507-20.994l-20.995-2.194s-5.641,28.2-5.641,34.156-2.193,15.041-5.641,22.563-3.76,29.768-3.76,31.021-1.253,12.22-1.253,12.22a28.283,28.283,0,0,0,10.028.941c4.7-.627,3.133-23.5,8.46-33.529s7.207-18.8,8.461-20.994,7.834-23.189,7.834-23.189" transform="translate(-223.882 -1110.015)"/><path class="h" d="M253.01,1130.474s-1.2,5.618-2.395,7.277c-.2.274-.433.593-.689.936-1.29,1.728-3.087,4.038-3.087,4.038s3.224,6.172,8.659,8.659a73.452,73.452,0,0,1,8.935,4.791l.552-6.541s-2.211-6.724-1.658-9.026-10.317-10.133-10.317-10.133" transform="translate(-223.406 -1111.863)"/><path class="g" d="M249.541,1128.551a5.4,5.4,0,0,0,1.492,2.4,12.33,12.33,0,0,0,2.745,2.018,37.221,37.221,0,0,0,2.026,4.975c.83,1.381,7.185,5.342,9.765,5.065s1.934-3.409,2.118-4.328,2.211-2.672,2.579-4.237-.184-1.659,0-3.317a3.074,3.074,0,0,1,1.29-2.3l-.184-5.342c-.007-.273-.033-.546-.062-.815a16.255,16.255,0,0,0-1.411-4.62c-3.685-5.527-8.751-6.356-15.107-5.343s-5.9,13.265-5.25,15.844" transform="translate(-223.345 -1112.335)"/><path class="t" d="M249.541,1128.551a5.4,5.4,0,0,0,1.492,2.4c.085-.148.18-.31.276-.476.921-1.577,2.314-3.872,2.715-4.038a.134.134,0,0,1,.03-.008c.553-.092,1.29,2.672,1.29,2.672a7.8,7.8,0,0,1,1.842-3.592,12.381,12.381,0,0,1,3.777-3.04s-.645,4.052-.369,3.131,3.316-1.842,8.751-2.486a8.685,8.685,0,0,0,1.965-.447,16.255,16.255,0,0,0-1.411-4.62c-3.685-5.527-8.751-6.356-15.107-5.343s-5.9,13.265-5.25,15.844" transform="translate(-223.345 -1112.335)"/><path class="g" d="M254.5,1126.956s-2.026-3.869-3.5-2.671-1.2,3.869-.184,5.343a4.54,4.54,0,0,0,3.039,1.657Z" transform="translate(-223.325 -1112.03)"/><path class="p" d="M231.739,1152.564s1.36,1.963,3.07,4.915c1.729,2.953,5.888,23.4,5.888,25.728s1.224,33.032,1.224,33.032l38.939,1.107a33.213,33.213,0,0,0-.253-9.094c-.855-3.926-4.294-25.416-4.663-27.864-.369-2.468,2.215-9.833,1.963-17.935s-2.39-12.61-4.236-13.718c-.466-.272-1.3-.681-2.293-1.127-2-.893-4.664-1.963-6.121-2.545-.252-.1-.466-.175-.641-.253-.291-.116-.466-.174-.466-.174s.622,4.061-2.216,4.8c-2.817.739-6.509-1.244-8.724-2.953a29.571,29.571,0,0,1-4.78-5.772l-.311.234-.836.583Z" transform="translate(-223.799 -1111.597)"/><path class="s" d="M230.368,1302.735h6.248c.376,0,.681-.089.681-.2v0c0-.111-.305-.2-.681-.2h-6.248c-.376,0-.681.089-.681.2v0c0,.111.305.2.681.2" transform="translate(-223.852 -1107.396)"/><path class="s" d="M229.658,1304.472h6.248c.377,0,.682-.09.682-.2v0c0-.111-.3-.2-.682-.2h-6.248c-.376,0-.681.09-.681.2v0c0,.111.305.2.681.2" transform="translate(-223.871 -1107.351)"/><path class="s" d="M231.078,1300.685h6.248c.376,0,.681-.09.681-.2v0c0-.111-.305-.2-.681-.2h-6.248c-.376,0-.681.09-.681.2v0c0,.111.305.2.681.2" transform="translate(-223.834 -1107.45)"/><path class="s" d="M291.434,1304.888c.02.039.058.039.117.039a1.255,1.255,0,0,0,.583-.195l3.012-1.709-.35-.253-2.857,1.612c-.33.195-.564.409-.5.505" transform="translate(-222.248 -1107.385)"/><path class="s" d="M289.142,1302.917c.02.037.059.037.117.037a1.267,1.267,0,0,0,.583-.194l2.837-1.613-.349-.252-2.682,1.515c-.33.176-.564.409-.505.507" transform="translate(-222.307 -1107.434)"/><path class="s" d="M287.021,1301.344a.164.164,0,0,0,.117.038,1.381,1.381,0,0,0,.563-.194l2.9-1.631-.369-.272-2.721,1.554c-.33.175-.544.408-.486.5" transform="translate(-222.362 -1107.475)"/><path class="u" d="M281.274,1163.851h36.391l-7.535,26.517H274.046Z" transform="translate(-222.699 -1110.995)"/><path class="v" d="M281.819,1163.851H318.21l-7.535,26.517H274.591Z" transform="translate(-222.685 -1110.995)"/><rect class="u" width="46.919" height="0.913" transform="translate(41.07 79.376)"/><path class="w" d="M295.3,1177.464a2.814,2.814,0,0,1,2.06-2.574,1.556,1.556,0,0,1,2.061,1.546,2.813,2.813,0,0,1-2.061,2.574,1.556,1.556,0,0,1-2.06-1.546" transform="translate(-222.147 -1110.71)"/><path class="g" d="M239.211,1151.073c-1.511-1.106-3.367-.58-6.315.648s-2.007,7.649-1.638,11.579.491,12.773,2.088,18.422,1.106,14.862,5.9,15.354,28.125-.247,32.178.368,7.047,1.482,8.03,1.235,7.206-3.642,7.206-3.642,1.965-1.6.246-1.474-6.237,2.851-6.237,2.851c4.21-2.267,11.257-6.42,10.04-6.72-1.2-.3-9.336,4.312-9.336,4.312s10.273-5.356,9.659-6.092S281,1191.425,281,1191.425s8.975-5.494,8.975-5.862.84-1.388-1.862-.406-8.587,4.794-8.587,4.794l-2.7-.123,3.562-1.842s2.579-1.351,1.474-1.842-1.965-.247-3.685.123-5.036,1.474-5.036,1.474l-1.842,3.438a33.586,33.586,0,0,1-10.685-.246c-5.281-1.105-14-4.175-14-4.175s-2.379-11.559-1.731-16.74c.635-5.076-.832-15.406-5.668-18.946" transform="translate(-223.823 -1111.343)"/><path class="p" d="M239.388,1150.28a6.461,6.461,0,0,0-7.6,2.051c-2.759,3.617-.978,24.343-.978,24.343a11.354,11.354,0,0,1,7.286-2.1,32.871,32.871,0,0,1,7.772,1.619s2.754-21.373-6.477-25.909" transform="translate(-223.838 -1111.361)"/></g></g></svg>