<?xml version="1.0" encoding="UTF-8"?>
<svg width="48px" height="48px" viewBox="0 0 48 48" version="1.1" xmlns="http://www.w3.org/2000/svg" xmlns:xlink="http://www.w3.org/1999/xlink">
    <title>Physics and Chemistry</title>
    <g id="website" stroke="none" stroke-width="1" fill="none" fill-rule="evenodd">
        <rect id="Rectangle" fill="#6DD400" x="0" y="0" width="48" height="48" rx="5"></rect>
        <g id="Science" transform="translate(8.640000, 8.640000)">
            <rect id="Rectangle" x="0" y="0" width="30.72" height="30.72"></rect>
            <path d="M13.6356583,21.9857327 C13.8152623,22.491377 13.9595625,22.9944106 14.1722749,23.4666498 C14.3527689,23.8673322 14.604345,24.2374577 14.8398416,24.6114398 C14.9630783,24.807242 15.1387069,24.8124634 15.2589769,24.6126858 C15.5221232,24.175513 15.7864561,23.7364415 16.0079499,23.2777304 C16.1692197,22.9437393 16.2626707,22.5769959 16.4004442,22.1848576 C16.8360744,22.8599004 17.4125041,23.2856218 18.1473556,23.5347059 C17.7818582,24.5580986 17.3694276,25.5250053 16.5649774,26.2605687 C15.6435205,27.1032301 14.4040928,27.0811578 13.492604,26.2247903 C12.9413913,25.7069233 12.5698418,25.0678962 12.284208,24.3803339 C12.0586201,23.8373092 11.8755748,23.2765437 11.6679652,22.7080647 C12.3602148,22.4539372 12.9949699,22.2209327 13.6356583,21.9857327 Z M18.6379409,12.6139823 C20.7828646,14.02892 22.8466788,15.5426488 24.3662223,17.6603382 C24.7009847,18.1268221 24.9776591,18.660828 25.1626032,19.20409 C25.6545413,20.6488727 24.8718073,21.9261555 23.3758787,22.2247834 C22.435969,22.4124569 21.5083413,22.304647 20.5795271,22.1390458 C20.4584264,22.1174483 20.2911045,22.1290777 20.2002642,22.1979051 C19.0000562,23.1078512 17.623567,22.3653457 17.1827748,21.3111587 C17.1023772,21.1188572 16.9913633,21.0170401 16.8061819,20.9404992 C14.6076202,20.0312058 12.541314,18.8785244 10.579139,17.5361522 C10.5081755,17.487617 10.4429081,17.4308343 10.3478551,17.3567262 C10.6195454,17.1370124 10.8663155,16.9273854 11.1259017,16.7350246 C11.1859477,16.6905241 11.2894855,16.7010856 11.3736211,16.6932535 C11.7741255,16.6558138 12.174274,16.6116693 12.5756091,16.5896564 C12.7287501,16.5812903 12.9139908,16.5786796 13.0350915,16.6534404 C14.466346,17.5373982 15.9470257,18.3228022 17.5009236,18.9698987 C17.6643888,19.0379548 17.7796747,19.0307754 17.9327564,18.9294329 C18.9651678,18.2461427 20.3508539,18.6594633 20.8365026,19.804194 C20.9278176,20.019517 21.0394248,20.1244788 21.2581299,20.1327263 C21.7988999,20.1529592 22.3407972,20.2008417 22.8800839,20.1800155 C23.2122356,20.16714 23.2888357,20.0378512 23.1632257,19.7251018 C23.0179167,19.3630457 22.8375414,19.0020577 22.6059015,18.6900203 C21.9411828,17.7944924 21.116203,17.0468841 20.2281512,16.3852508 C19.009075,15.476966 17.7483464,14.6245739 16.5050619,13.7488636 C16.419087,13.6882836 16.3294927,13.6328656 16.1747496,13.5311078 C16.9520249,13.1934974 17.6705002,12.8775439 18.3939595,12.5736945 C18.4594049,12.5461636 18.5737415,12.5716179 18.6379409,12.6139823 Z M22.6121968,8.41943707 C23.0020805,8.44144998 23.4019916,8.50778538 23.771227,8.63167475 C24.973571,9.03508655 25.5295305,10.102861 25.218917,11.3353467 C25.0367617,12.0580347 24.6747057,12.6914251 24.2267341,13.2741442 C23.8734595,13.7337453 23.4847625,14.1660527 23.0970742,14.6280272 C22.7951829,14.370755 22.535478,14.1455825 22.2715011,13.9255127 C22.0140509,13.7108423 21.7521506,13.5013934 21.4763069,13.2766955 C21.7508453,12.9688708 22.0452012,12.6890517 22.2784431,12.3652068 C22.5883446,11.9350947 22.8777758,11.4849277 23.1240712,11.0161298 C23.2983351,10.6843935 23.2166915,10.5872044 22.8384967,10.5354058 C21.9685417,10.4161445 21.1214897,10.5755156 20.2898051,10.7958821 C18.0000471,11.4025128 15.8927411,12.4369416 13.8470238,13.6066519 C13.7697709,13.6507963 13.7002908,13.7634716 13.6855166,13.8537186 C13.473457,15.1496916 12.4115565,15.8535114 11.1265603,15.5517981 C11.0297866,15.5290731 10.8878596,15.5586215 10.8093014,15.6189641 C9.6225623,16.5313429 8.50144655,17.5171178 7.57613296,18.7010089 C7.32408217,19.0234299 7.1371801,19.400616 6.94790467,19.7668848 C6.83766212,19.9802498 6.90441286,20.1371289 7.17865456,20.18068 C7.85506205,20.2882525 8.52298479,20.2226291 9.17791337,20.0649787 C9.87734245,19.8965889 10.5644894,19.6774091 11.2594091,19.489261 C11.3641929,19.4608994 11.5055858,19.4384118 11.5903148,19.485167 C12.3155541,19.8852561 13.0315967,20.3018993 13.8062613,20.7455989 C13.1947059,20.9848336 12.6330503,21.2218729 12.059528,21.4255071 C10.6029378,21.9427809 9.12712348,22.3873704 7.55762076,22.3371739 C7.18666465,22.3253071 6.80651177,22.2675158 6.4511605,22.1617233 C5.18117577,21.7836471 4.56410227,20.6701854 4.8829038,19.3863759 C5.06511849,18.6527111 5.44313534,18.017956 5.89312432,17.4238448 C6.89308007,16.1036635 8.12687106,15.0243782 9.43666891,14.0272112 C9.62137562,13.8865896 9.71702201,13.7508928 9.72989749,13.5008594 C9.79664823,12.205895 11.1274503,11.3384914 12.3611226,11.7785123 C12.5683169,11.8523831 12.7207459,11.8364816 12.909962,11.728197 C14.9808963,10.5429413 17.1204207,9.50999581 19.4273262,8.86088196 C20.4680444,8.56806871 21.5250795,8.35814506 22.6121968,8.41943707 Z M9.24007759,8.54330864 C10.7651392,8.80675156 12.2151432,9.31761722 13.6325136,9.92774864 C13.6669273,9.94252281 13.698137,9.96495105 13.7711178,10.0070782 C13.36913,10.230886 13.011168,10.4380803 12.6443653,10.6281271 C12.5668158,10.6682962 12.4526572,10.6664568 12.3622322,10.648716 C11.6926481,10.5176472 11.0492896,10.5840419 10.420112,10.8536556 C10.3076741,10.9018348 10.1543551,10.8820172 10.0256596,10.8601823 C9.36539098,10.7482784 8.70933505,10.6087249 8.04675238,10.5145025 C7.77820674,10.4762914 7.49453093,10.5105864 7.22177257,10.5442881 C6.8845775,10.5859406 6.82874422,10.6792136 6.96984045,11.0015752 C7.09954455,11.2980078 7.24461616,11.5971105 7.43703629,11.8546793 C7.801703,12.3427607 8.20499613,12.8019465 8.60336454,13.2865865 C8.09493158,13.7112399 7.57480982,14.145624 7.03113246,14.5996477 C6.45440607,14.0367462 5.91583144,13.4435842 5.52832115,12.7451638 C5.24939206,12.2425456 4.98476246,11.7019536 4.8673405,11.1458755 C4.60888163,9.92151857 5.24784938,8.94766979 6.45173604,8.58353709 C7.37586295,8.30407399 8.3110853,8.3828102 9.24007759,8.54330864 Z M16.8661745,4.77341082 C17.6728201,5.70892985 18.0624664,6.84588777 18.4083836,8.03262692 C17.7328068,8.28093967 17.0966277,8.51471559 16.4706541,8.74469414 C16.2786494,8.21620628 16.1173202,7.68599775 15.8933344,7.18373552 C15.7263686,6.80939737 15.4862439,6.4660909 15.2634448,6.11874972 C15.136648,5.92116753 14.9559167,5.92081153 14.8425294,6.12124175 C14.5430115,6.65061961 14.2467568,7.18367618 13.9880013,7.73352427 C13.838539,8.05113912 13.7641935,8.4040577 13.6524083,8.75240756 C13.0063204,8.5154276 12.3699041,8.28194835 11.6780104,8.02811753 C11.8539357,7.52674531 11.9829871,7.00626755 12.2147457,6.53646101 C12.518239,5.9214642 12.8330059,5.28860786 13.2665593,4.76599407 C14.3026495,3.5170729 15.8054014,3.54323919 16.8661745,4.77341082 Z" id="Combined-Shape" fill="#FFFFFF"></path>
        </g>
    </g>
</svg>