<svg xmlns="http://www.w3.org/2000/svg" width="107.521" height="107.765" viewBox="0 0 107.521 107.765"><defs><style>.a{fill:#26479c;}.a,.b,.c{fill-rule:evenodd;}.b{fill:#f29132;}.c{fill:#00caf2;}</style></defs><g transform="translate(74.162 -346.08)"><path class="a" d="M-20.094,453.8q-24.3,0-48.592,0c-4.213,0-4.961-.628-4.81-4.889.109-3.045-.35-6.827,1.231-8.947,2.85-3.821,5.364-7.378,5.795-12.3.115-1.32,1.593-2.863,2.853-3.661,1.89-1.2,2.358-2.608,2.334-4.7q-.15-13.047,0-26.1c.03-2.331-.638-3.291-3.051-3.075a53.055,53.055,0,0,1-6,.02c-2.241-.055-3.6-1.252-3.717-3.481A47.556,47.556,0,0,1-74,379.478a8.745,8.745,0,0,1,4.848-7.138c6.956-3.684,14-7.209,20.889-11.012,8.486-4.682,16.89-9.519,25.244-14.434a4.3,4.3,0,0,1,4.945-.064q20.385,11.751,40.85,23.36a12.527,12.527,0,0,0,3.3,1.344,8.378,8.378,0,0,1,6.793,6.8,31.636,31.636,0,0,1,.207,9.22c-.1.963-1.877,2.239-3.069,2.485a23.282,23.282,0,0,1-6.273.1c-2.135-.153-3.02.422-2.986,2.784.127,9-.013,18,.128,26.994a4.893,4.893,0,0,0,1.725,3.425c3.223,2.335,4.437,5.429,4.7,9.248a5.738,5.738,0,0,0,1.793,3.619,10.847,10.847,0,0,1,4.272,8.787c0,10.17-.121,8.782-8.76,8.8Q2.252,453.832-20.094,453.8Zm-47.034-6.806H26.4c.628-5.206-.392-6.39-5.312-6.391q-41.657,0-83.313,0C-67.121,440.6-68.135,441.9-67.128,446.992ZM-51.5,370.228l.258.534H10.97a10.793,10.793,0,0,0-1.189-1.008C.323,364.391-9.1,358.971-18.655,353.779a5.435,5.435,0,0,0-4.314.277c-4.093,2.061-8.019,4.453-12,6.727Q-43.239,365.5-51.5,370.228Zm-15.709,13.486h3.383l83.321,0c1.7,0,3.4-.056,5.095.017,1.562.069,2.088-.606,2.1-2.13.015-3-1.184-4.107-4.826-4.108q-42.259-.009-84.52,0C-67.17,377.495-67.907,378.426-67.208,383.714Zm6.195,50.644H19.9c.8-4.838-.021-5.882-4.538-5.884q-35.946-.012-71.891,0C-60.813,428.477-61.956,429.966-61.013,434.358Zm18.193-44.18c0,10.4-.026,20.277.068,30.15a2.261,2.261,0,0,0,1.522,1.6,84.756,84.756,0,0,0,9.281,0,2.481,2.481,0,0,0,1.67-1.754q.163-14.084,0-28.168a2.479,2.479,0,0,0-1.677-1.747C-35.42,390.091-38.9,390.178-42.82,390.178ZM1.217,422.014V390.435H-11.1c0,10.141-.031,20.019.08,29.894.006.568,1.15,1.577,1.8,1.609C-5.842,422.1-2.449,422.014,1.217,422.014ZM-17.25,390.4c-.963-.1-1.639-.212-2.317-.231-4.2-.122-4.192-.115-4.188,4.19q.009,11.241,0,22.483c0,5.561,0,5.565,5.6,5.086a3.284,3.284,0,0,0,.9-.427Zm-31.867,31.288c.068-.786.176-1.462.177-2.138.014-8.864-.055-17.729.063-26.591.031-2.286-.758-2.924-2.939-2.853-2.032.067-3.32.157-3.266,2.834.167,8.163.061,16.332.058,24.5,0,4.882,0,4.883,4.995,4.515A6.167,6.167,0,0,0-49.117,421.693Zm63.041.2c.088-1.014.2-1.7.2-2.374.009-8.87-.075-17.74.053-26.607.034-2.359-.856-2.839-2.972-2.805-2.09.035-3.264.261-3.217,2.874.158,8.767.054,17.539.073,26.307,0,.852.163,1.7.255,2.605Z"/><path class="b" d="M-67.128,446.992c-1.007-5.092.007-6.39,4.9-6.391q41.656-.006,83.313,0c4.92,0,5.94,1.185,5.312,6.391Z"/><path class="b" d="M-51.5,370.228q8.262-4.723,16.525-9.445c3.986-2.274,7.912-4.666,12-6.727a5.435,5.435,0,0,1,4.314-.277C-9.1,358.971.323,364.391,9.781,369.754a10.793,10.793,0,0,1,1.189,1.008H-51.241Z"/><path class="b" d="M-67.208,383.714c-.7-5.288.038-6.219,4.549-6.22q42.261-.014,84.52,0c3.642,0,4.841,1.109,4.826,4.108-.008,1.524-.534,2.2-2.1,2.13-1.7-.073-3.4-.017-5.095-.017l-83.321,0Z"/><path class="b" d="M-61.013,434.358c-.943-4.392.2-5.881,4.483-5.883q35.946-.015,71.891,0c4.517,0,5.342,1.046,4.538,5.884Z"/><path class="c" d="M-42.82,390.178c3.921,0,7.4-.087,10.867.083a2.479,2.479,0,0,1,1.677,1.747q.16,14.084,0,28.168a2.481,2.481,0,0,1-1.67,1.754,84.756,84.756,0,0,1-9.281,0,2.261,2.261,0,0,1-1.522-1.6C-42.846,410.455-42.82,400.581-42.82,390.178Z"/><path class="c" d="M1.217,422.014c-3.666,0-7.059.087-10.441-.076-.651-.032-1.8-1.041-1.8-1.609-.111-9.875-.08-19.753-.08-29.894H1.217Z"/><path class="b" d="M-17.25,390.4v31.1a3.284,3.284,0,0,1-.9.427c-5.6.479-5.6.475-5.6-5.086q0-11.241,0-22.483c0-4.305-.009-4.312,4.188-4.19C-18.889,390.193-18.213,390.306-17.25,390.4Z"/><path class="b" d="M-49.117,421.693a6.167,6.167,0,0,1-.912.266c-5,.368-5,.367-4.995-4.515,0-8.167.109-16.336-.058-24.5-.054-2.677,1.234-2.767,3.266-2.834,2.181-.071,2.97.567,2.939,2.853-.118,8.862-.049,17.727-.063,26.591C-48.941,420.231-49.049,420.907-49.117,421.693Z"/><path class="b" d="M13.924,421.892H8.314c-.092-.9-.253-1.753-.255-2.605-.019-8.768.085-17.54-.073-26.307-.047-2.613,1.127-2.839,3.217-2.874,2.116-.034,3.006.446,2.972,2.805-.128,8.867-.044,17.737-.053,26.607C14.122,420.2,14.012,420.878,13.924,421.892Z"/></g></svg>