<?xml version="1.0" encoding="utf-8"?>
<!-- Generator: Adobe Illustrator 16.0.0, SVG Export Plug-In . SVG Version: 6.00 Build 0)  -->
<!DOCTYPE svg PUBLIC "-//W3C//DTD SVG 1.1//EN" "http://www.w3.org/Graphics/SVG/1.1/DTD/svg11.dtd">
<svg version="1.1" id="Layer_1" xmlns="http://www.w3.org/2000/svg" xmlns:xlink="http://www.w3.org/1999/xlink" x="0px" y="0px"
	 width="1171px" height="226px" viewBox="0 0 1171 226" enable-background="new 0 0 1171 226" xml:space="preserve">
<g>
	<g>
		<path fill="#26499A" d="M325.359,166.197l-17.324-24.611h-12.027v24.611h-16.223V90.387h34.101
			c16.439,0,28.577,10.593,28.577,25.604c0,11.255-6.84,20.082-17.215,23.723l18.651,26.484H325.359z M296.008,126.692h16.109
			c8.056,0,13.572-4.194,13.572-10.702c0-6.514-5.516-10.705-13.572-10.705h-16.109V126.692z"/>
		<path fill="#26499A" d="M404.696,130.777v34.096h-15.561v-5.737c-4.083,4.633-10.593,7.062-16.771,7.062
			c-12.138,0-21.519-7.282-21.519-18.205c0-11.258,10.481-18.983,23.723-18.983c4.636,0,9.713,0.994,14.566,2.869v-1.101
			c0-6.072-3.752-11.367-13.133-11.367c-5.295,0-10.261,1.766-14.785,4.083l-5.407-10.702c8.056-4.083,15.888-6.29,23.835-6.29
			C394.542,106.501,404.696,115.881,404.696,130.777 M389.135,146.886v-5.295c-3.641-1.327-7.835-2.096-12.247-2.096
			c-5.849,0-10.484,3.418-10.484,8.054c0,4.633,4.082,7.505,9.598,7.505C382.186,155.054,388.032,152.182,389.135,146.886"/>
		<polygon fill="#26499A" points="412.638,109.15 429.521,109.15 444.858,147.657 459.866,109.15 476.64,109.15 452.252,166.197 
			437.353,166.197 		"/>
		<path fill="#26499A" d="M484.358,92.482c0-4.524,3.862-8.606,8.827-8.606c4.748,0,8.606,4.082,8.606,8.606
			c0,4.856-3.859,8.827-8.606,8.827C488.22,101.31,484.358,97.339,484.358,92.482 M485.021,109.145h16.111v57.053h-16.111V109.145z"
			/>
		<path fill="#26499A" d="M531.249,92.927c-3.417,3.088-5.734,6.843-6.731,10.372c5.298,0,9.713,4.524,9.713,9.931
			c0,5.519-4.415,10.154-9.931,10.154c-6.181,0-10.484-5.739-10.484-13.795c0-6.511,3.752-13.46,11.699-21.077L531.249,92.927z"/>
		<path fill="#26499A" d="M543.169,157.588l6.949-11.141c5.074,3.641,11.479,6.401,19.093,6.401c4.301,0,7.391-1.769,7.391-4.306
			c0-3.532-4.191-4.633-10.045-6.181c-11.697-2.867-20.739-6.069-20.854-17.324c-0.109-10.813,8.83-18.537,22.292-18.537
			c8.165,0,16.221,2.867,22.51,7.061l-6.513,11.477c-5.184-3.199-11.141-5.074-15.998-5.074c-3.973,0-6.731,1.434-6.731,3.42
			c0,3.088,2.316,3.971,10.04,6.066c9.822,2.54,20.745,5.851,20.745,18.319c0,11.258-9.157,18.428-23.17,18.428
			C559.716,166.197,550.009,163.109,543.169,157.588"/>
		<path fill="#26499A" d="M677.021,154.277h-33.766l-4.856,11.92h-18.21l30.898-75.811h18.211l30.898,75.811h-18.319
			L677.021,154.277z M671.396,140.487l-11.255-27.699l-11.255,27.699H671.396z"/>
		<path fill="#26499A" d="M705.484,136.29c0-16.215,14.351-29.795,31.231-29.795c9.271,0,16.88,3.753,22.401,9.716l-10.705,9.156
			c-2.867-3.199-7.396-5.292-11.806-5.292c-8.389,0-15.452,7.391-15.452,16.106c0,8.938,7.063,16.444,15.562,16.444
			c4.415,0,9.048-2.208,12.023-5.521l10.705,9.048c-5.625,6.181-13.349,10.045-22.838,10.045
			C719.721,166.197,705.484,152.511,705.484,136.29"/>
		<path fill="#26499A" d="M819.693,130.774v34.099h-15.561v-5.739c-4.083,4.638-10.591,7.063-16.771,7.063
			c-12.139,0-21.519-7.282-21.519-18.205c0-11.261,10.487-18.983,23.726-18.983c4.634,0,9.708,0.992,14.564,2.867v-1.102
			c0-6.066-3.75-11.364-13.131-11.364c-5.298,0-10.263,1.766-14.787,4.083l-5.406-10.705c8.056-4.085,15.888-6.293,23.835-6.293
			C809.539,106.495,819.693,115.878,819.693,130.774 M804.133,146.886v-5.298c-3.642-1.324-7.838-2.093-12.248-2.093
			c-5.848,0-10.48,3.418-10.48,8.051s4.076,7.505,9.598,7.505C797.184,155.051,803.026,152.179,804.133,146.886"/>
		<path fill="#26499A" d="M891.967,87.741v77.132h-16.111v-8.165c-4.523,5.957-11.146,9.489-19.202,9.489
			c-15.229,0-26.261-12.361-26.261-29.907c0-17.436,11.032-29.795,26.261-29.795c8.056,0,14.679,3.535,19.202,9.498V87.741H891.967z
			 M875.855,136.29c0-9.483-6.072-16.215-14.569-16.215c-8.934,0-15.223,6.731-15.223,16.215c0,9.604,6.289,16.336,15.223,16.336
			C869.783,152.626,875.855,145.895,875.855,136.29"/>
		<path fill="#26499A" d="M946.145,146.886l10.258,10.487c-5.074,5.292-14.896,8.824-23.278,8.824
			c-17,0-30.234-12.471-30.234-30.016c0-17.213,12.688-29.687,29.346-29.687c17.878,0,28.364,13.574,28.364,35.093h-41.162
			c1.875,6.182,6.846,10.373,13.572,10.373C937.539,151.961,943.049,149.862,946.145,146.886 M919.661,130.001h25.486
			c-1.542-5.625-5.733-9.267-12.247-9.267C926.828,120.734,921.754,124.267,919.661,130.001"/>
		<path fill="#26499A" d="M1060.458,129.782v36.415h-15.452V132.54c0-6.622-4.191-11.255-10.148-11.255
			c-6.399,0-11.038,4.306-11.038,10.372v34.54h-15.446V132.54c0-6.622-4.191-11.255-10.045-11.255
			c-6.508,0-11.032,4.306-11.032,10.372v34.431h-16.111v-57.053h16.111v7.508c2.758-5.406,8.389-8.832,15.446-8.832
			c7.838,0,14.569,3.977,18.102,10.375c2.976-6.284,10.04-10.375,18.537-10.375C1051.296,107.711,1060.458,116.87,1060.458,129.782"
			/>
		<path fill="#26499A" d="M1072.699,181.202l3.424-11.037c2.758,1.548,5.624,2.54,7.499,2.54c3.091,0,5.521-0.992,6.731-3.085
			l1.99-4.197l-23.727-57.603h16.662l15.005,40.058l14.237-40.058h16.438l-23.394,59.925c-4.301,11.141-11.582,16.989-20.521,16.989
			C1082.298,184.734,1076.564,183.301,1072.699,181.202"/>
	</g>
	<g>
		<linearGradient id="SVGID_1_" gradientUnits="userSpaceOnUse" x1="138.6011" y1="44.0811" x2="138.6011" y2="169.6195">
			<stop  offset="0.3495" style="stop-color:#26479C"/>
			<stop  offset="0.9032" style="stop-color:#00CAF2"/>
		</linearGradient>
		<path fill-rule="evenodd" clip-rule="evenodd" fill="url(#SVGID_1_)" d="M233.055,64.244c-3.892-1.422-7.702-3.08-11.631-4.371
			c-1.861-0.611-2.368-1.578-2.262-3.369c0.136-2.147,0.052-4.295,0.041-6.448c-0.022-3.505-1.478-5.32-4.906-6.094
			c-8.192-1.848-16.485-2.899-24.892-2.632c-15.403,0.485-29.433,4.908-41.408,14.885c-3.398,2.829-6.543,5.976-9.849,9.021
			c-0.008-0.008-0.403-0.436-0.777-0.886c-5.347-6.489-11.749-11.688-19.237-15.493c-18.052-9.162-36.895-9.141-56.08-4.633
			c-2.583,0.61-3.96,2.507-4.036,5.178c-0.068,2.513-0.134,5.039,0.011,7.555c0.101,1.646-0.578,2.311-2.049,2.823
			c-3.974,1.406-7.865,3.042-11.83,4.475c-2.908,1.058-4.11,3.036-4.11,6.099c0.035,36.065,0.014,72.132,0.035,108.2
			c0,5.184,3.279,7.281,8.119,5.521c7.781-2.826,15.542-5.77,23.456-8.189c13.141-4.022,26.525-6.923,40.421-5.824
			c7.83,0.627,15.144,2.63,20.793,8.68c2.039,2.175,8.669,2.309,11.021,0.461c0.117-0.09,0.234-0.186,0.333-0.292
			c5.808-6.36,13.441-8.29,21.606-8.9c9.17-0.689,18.172,0.581,27.1,2.537c12.392,2.715,24.345,6.843,36.118,11.52
			c4.731,1.881,8.088-0.321,8.088-5.303c0.017-36.219,0.011-72.432,0.033-108.65C237.162,67.141,235.854,65.257,233.055,64.244z
			 M103.686,163.36c-13.656,0.368-26.773,3.744-39.68,7.958c-5.68,1.858-11.285,3.943-17.21,6.028
			c-0.055-0.927-0.128-1.69-0.128-2.459c-0.008-34.131,0-68.267-0.046-102.397c0-1.556,0.392-2.398,1.948-2.927
			c3.058-1.03,6.04-2.281,9.424-3.581v3.039c0,27.026,0,54.049,0.005,81.073c0,5.407,2.613,7.465,7.966,6.342
			c12.171-2.554,24.353-3.188,36.537-0.134c6.344,1.592,12.269,4.123,17.603,7.748C114.575,163.796,109.122,163.21,103.686,163.36z
			 M135.279,165.854c0,0.557-0.063,1.129-0.125,2.132c-20.134-20.099-44.209-23.168-70.584-18.099v-2.665
			c0.003-31.482,0.024-62.956-0.035-94.435c-0.005-1.962,0.597-2.649,2.477-3.014c14.051-2.722,27.972-3.014,41.598,2.066
			c10.394,3.875,19.02,10.165,25.478,19.251c0.676,0.949,1.15,2.287,1.156,3.442C135.298,104.97,135.29,135.416,135.279,165.854z
			 M230.564,72.703c0,34.068,0,68.125-0.005,102.191v2.548c-1.308-0.455-2.33-0.779-3.336-1.163
			c-14.201-5.427-28.642-9.991-43.759-12.104c-8.77-1.224-17.537-1.463-26.492-0.029c0.67-0.439,1.33-0.895,2.014-1.306
			c11.85-7.165,24.827-9.334,38.415-8.326c4.707,0.347,9.396,1.17,14.043,2.028c5.042,0.932,7.748-1.102,7.753-6.23
			c0.014-27.1,0.008-54.21,0.008-81.31v-3.036c3.796,1.477,7.23,2.791,10.639,4.175c0.319,0.12,0.581,0.635,0.671,1.014
			C230.633,71.646,230.564,72.185,230.564,72.703z"/>
	</g>
</g>
</svg>
