<?xml version="1.0" encoding="utf-8"?>
<!-- Generator: Adobe Illustrator 16.0.0, SVG Export Plug-In . SVG Version: 6.00 Build 0)  -->
<!DOCTYPE svg PUBLIC "-//W3C//DTD SVG 1.1//EN" "http://www.w3.org/Graphics/SVG/1.1/DTD/svg11.dtd">
<svg version="1.1" id="Layer_1" xmlns="http://www.w3.org/2000/svg" xmlns:xlink="http://www.w3.org/1999/xlink" x="0px" y="0px"
	 width="500px" height="500px" viewBox="0 0 500 500" enable-background="new 0 0 500 500" xml:space="preserve">
<polygon fill="#FFFFFF" points="100,358.5 100,179.5 126.5,168.5 126.5,148 147,143.5 181.5,143.5 218,154 237,169.5 253.5,179 
	376.5,168.5 399.5,177.5 399.5,358.5 388,351.5 359,344 332.5,336.5 284.5,334.5 249.75,345.5 223.5,337 174.5,337 145,345 
	120.5,354 "/>
<g>
	<linearGradient id="SVGID_1_" gradientUnits="userSpaceOnUse" x1="250.6606" y1="139.7017" x2="250.6606" y2="340.2283">
		<stop  offset="0.3495" style="stop-color:#26479C"/>
		<stop  offset="0.9032" style="stop-color:#00CAF2"/>
	</linearGradient>
	<path fill-rule="evenodd" clip-rule="evenodd" fill="url(#SVGID_1_)" d="M401.534,171.905c-6.219-2.267-12.303-4.92-18.579-6.979
		c-2.974-0.98-3.784-2.521-3.608-5.389c0.213-3.422,0.082-6.857,0.058-10.288c-0.033-5.601-2.356-8.503-7.835-9.739
		c-13.084-2.954-26.327-4.629-39.76-4.204c-24.601,0.775-47.013,7.839-66.14,23.776c-5.43,4.523-10.449,9.549-15.731,14.412
		c-0.012-0.02-0.646-0.702-1.244-1.419c-8.539-10.365-18.763-18.671-30.73-24.742c-28.832-14.639-58.927-14.602-89.575-7.405
		c-4.124,0.974-6.325,4.005-6.448,8.272c-0.106,4.018-0.212,8.05,0.021,12.061c0.16,2.635-0.929,3.693-3.273,4.515
		c-6.346,2.25-12.564,4.862-18.898,7.149c-4.647,1.69-6.566,4.85-6.566,9.742c0.057,57.612,0.021,115.215,0.057,172.83
		c0,8.276,5.237,11.636,12.965,8.825c12.43-4.521,24.826-9.218,37.468-13.084c20.993-6.428,42.37-11.063,64.565-9.3
		c12.507,0.998,24.192,4.193,33.217,13.857c3.252,3.485,13.845,3.69,17.601,0.736c0.188-0.147,0.377-0.299,0.532-0.467
		c9.279-10.154,21.467-13.239,34.51-14.213c14.651-1.101,29.028,0.929,43.287,4.055c19.798,4.336,38.888,10.932,57.695,18.398
		c7.557,3.003,12.916-0.516,12.92-8.469c0.029-57.848,0.017-115.699,0.054-173.546C408.097,176.533,406.002,173.53,401.534,171.905z
		 M194.89,330.231c-21.815,0.597-42.767,5.978-63.383,12.716c-9.074,2.966-18.026,6.296-27.489,9.627
		c-0.086-1.485-0.209-2.705-0.209-3.928c-0.012-54.525,0-109.048-0.069-163.565c0-2.485,0.626-3.84,3.109-4.679
		c4.885-1.641,9.647-3.641,15.056-5.722v4.856c0,43.172,0,86.337,0.008,129.5c0,8.633,4.173,11.922,12.724,10.13
		c19.438-4.074,38.896-5.089,58.363-0.212c10.134,2.536,19.598,6.591,28.116,12.376C212.282,330.927,203.572,329.99,194.89,330.231z
		 M245.352,334.212c0,0.896-0.098,1.796-0.196,3.408c-32.162-32.104-70.62-37.01-112.749-28.909v-4.259
		c0.008-50.287,0.041-100.565-0.057-150.849c-0.008-3.132,0.953-4.225,3.96-4.808c22.445-4.351,44.677-4.819,66.447,3.302
		c16.599,6.184,30.378,16.236,40.692,30.749c1.08,1.518,1.841,3.649,1.845,5.495C245.389,236.963,245.369,285.591,245.352,334.212z
		 M397.554,185.423c0,54.411,0,108.821-0.009,163.231v4.067c-2.086-0.725-3.719-1.248-5.327-1.857
		c-22.682-8.662-45.749-15.961-69.899-19.328c-14.009-1.951-28.01-2.34-42.313-0.057c1.071-0.696,2.123-1.42,3.216-2.079
		c18.926-11.443,39.652-14.917,61.361-13.305c7.52,0.561,15.007,1.874,22.433,3.244c8.052,1.485,12.376-1.759,12.385-9.954
		c0.021-43.29,0.012-86.584,0.012-129.876v-4.851c6.063,2.359,11.55,4.459,16.996,6.661c0.511,0.205,0.924,1.021,1.067,1.625
		C397.664,183.733,397.554,184.593,397.554,185.423z"/>
</g>
</svg>
