<svg xmlns="http://www.w3.org/2000/svg" width="70.114" height="51.495" viewBox="0 0 70.114 51.495"><defs><style>.a{fill:#f29132;}</style></defs><g transform="translate(-486.55 -1134)"><path class="a" d="M290.543,176.59a2.432,2.432,0,0,0-2.432,2.432v10.156a45.961,45.961,0,0,0-64.538.376,2.432,2.432,0,0,0,3.44,3.44,41.09,41.09,0,0,1,57.643-.39H274.425a2.432,2.432,0,1,0,0,4.864h16.118a2.432,2.432,0,0,0,2.432-2.432V179.023A2.432,2.432,0,0,0,290.543,176.59Z" transform="translate(263.69 957.868)"/><path class="a" d="M67.682.458A2.432,2.432,0,0,0,65.25,2.89V13.046a45.961,45.961,0,0,0-64.538.376,2.432,2.432,0,0,0,3.44,3.44,41.09,41.09,0,0,1,57.643-.39H51.564a2.432,2.432,0,1,0,0,4.864H67.682A2.432,2.432,0,0,0,70.114,18.9V2.89A2.432,2.432,0,0,0,67.682.458Z" transform="translate(556.665 1185.495) rotate(180)"/></g></svg>