<svg xmlns="http://www.w3.org/2000/svg" width="317.025" height="241.643" viewBox="0 0 317.025 241.643"><defs><style>.a{fill:#263238;}.b{fill:#936754;}.c{fill:#7c5142;}.d{fill:#455a64;}.e{opacity:0.3;}.f{fill:#e0e0e0;}.g{fill:#fff;}.h{fill:#00caf2;}.i{fill:#fafafa;}.j{fill:#ffbe9d;}.k{fill:#eb996e;}.l{opacity:0.5;}</style></defs><g transform="translate(-134.177 -5204.61)"><g transform="translate(310.046 5243.611)"><path class="a" d="M519.482,167.485a13.331,13.331,0,0,0,18.049,14.48c5.569-2.187,9.262-7.918,14.967-9.735,2.466-.772,5.134-.746,7.581-1.584a9.263,9.263,0,0,0,6.153-6.49,6.791,6.791,0,0,0-3.8-7.678c-1.525-.591-3.427-.649-4.394-1.947-1.4-1.889.331-4.42.746-6.724.6-3.3-1.947-6.666-5.192-7.568a10.313,10.313,0,0,0-9.32,2.544c-2.155,1.9-4.309,3.706-7.139,4.134a6.99,6.99,0,0,1-7.224-3.81" transform="translate(-443.009 -121.144)"/><path class="a" d="M543.066,138.286a.973.973,0,0,1,.071.318,5.544,5.544,0,0,1,0,.941,6.165,6.165,0,0,1-1.155,3.245,6.03,6.03,0,0,1-1.739,1.629,5.842,5.842,0,0,1-2.6.831,6.53,6.53,0,0,1-3.005-.487,6.153,6.153,0,0,1-2.551-2.038,17.722,17.722,0,0,1-1.623-2.81,16.228,16.228,0,0,0-1.486-2.6,7.652,7.652,0,0,0-4.056-2.739,8.217,8.217,0,0,0-3.349-.221c-.792.123-1.214.286-1.227.253a1.032,1.032,0,0,1,.3-.13,6.179,6.179,0,0,1,.9-.253,7.97,7.97,0,0,1,3.433.123,7.788,7.788,0,0,1,4.245,2.778c1.207,1.545,1.843,3.615,3.135,5.354a5.782,5.782,0,0,0,2.408,1.947,6.2,6.2,0,0,0,2.849.48,5.7,5.7,0,0,0,2.505-.759,5.783,5.783,0,0,0,1.7-1.545,6.192,6.192,0,0,0,1.214-3.1C543.111,138.734,543.034,138.286,543.066,138.286Z" transform="translate(-443.37 -119.094)"/><path class="b" d="M564.826,132.2l-2.486,31.225L541,177.2s3.1,18.718,3.245,19.127l26.117-20.01a13.441,13.441,0,0,0,5.4-10.384l-1.1-36.079" transform="translate(-450.618 -117.602)"/><path class="b" d="M572.279,111.194c-.182-.1-2.817,6.9-2.6,7.97s2.856,4.271,3.94,4.92c2.031,1.2.649,5.582.863,6.276l10.482.552-.286-8.113.694-5.517a6.354,6.354,0,0,0,0-3.466c-.35-1.227-.948-2.6-1.856-2.427-1.648.253-1.765.727-1.765.727s-1.1-1.636-1.947-.253c0,0-1.525-1.811-2.836-.247,0,0-1.752-1.726-2.973.941l-.649,1.863S574.129,112.213,572.279,111.194Z" transform="translate(-460.68 -110.979)"/><path class="c" d="M578.243,121.47c-.052,0-.3-.487-.889-1.142a4.173,4.173,0,0,0-3.011-1.389,5.131,5.131,0,0,0-.545,0h-.227l.052-.208c.312-1.207.6-2.278.831-3.037a5.73,5.73,0,0,1,.422-1.214,5.063,5.063,0,0,1-.2,1.3c-.169.779-.422,1.856-.72,3.063l-.175-.208h.584a4.492,4.492,0,0,1,1.947.519,4.382,4.382,0,0,1,1.246,1.051A3.13,3.13,0,0,1,578.243,121.47Z" transform="translate(-462.049 -112.208)"/><path class="c" d="M589.051,114.88a2.032,2.032,0,0,1-.195.448,2.019,2.019,0,0,0-.24,1.214,1.162,1.162,0,0,0,.156.363,1.032,1.032,0,0,1-.338,1.519,1.629,1.629,0,0,1-2.31-.649,2.227,2.227,0,0,1-.136-1.3c.065-.415.162-.792.253-1.155a15.031,15.031,0,0,1,.649-1.882,2.96,2.96,0,0,1,.72-1.142c.266-.214.461-.221.461-.2a2.45,2.45,0,0,0-.37.292,3.336,3.336,0,0,0-.591,1.142,17.449,17.449,0,0,0-.558,1.869,3.768,3.768,0,0,0-.117,2.252,1.3,1.3,0,0,0,1.824.526.909.909,0,0,0,.435-.746c0-.253-.266-.513-.305-.837a1.948,1.948,0,0,1,.357-1.3C588.915,115,589.032,114.867,589.051,114.88Z" transform="translate(-466.393 -111.369)"/><path class="c" d="M585.1,117.706a.564.564,0,0,1-.169.338,1.259,1.259,0,0,1-.967.357,1.557,1.557,0,0,1-1.3-.857,2.855,2.855,0,0,1-.279-1.83,6.328,6.328,0,0,1,1.246-3.037,3.233,3.233,0,0,1,.974-.948c.026.032-.337.4-.779,1.084a6.964,6.964,0,0,0-1.11,2.94,2.674,2.674,0,0,0,.221,1.642,1.344,1.344,0,0,0,1.013.766,1.2,1.2,0,0,0,.857-.214C585.014,117.81,585.072,117.693,585.1,117.706Z" transform="translate(-465.127 -111.242)"/><path class="c" d="M581.295,117.349a.621.621,0,0,1-.208.273,1.363,1.363,0,0,1-.889.279,1.642,1.642,0,0,1-1.246-.649,2.5,2.5,0,0,1-.513-1.616,4.265,4.265,0,0,1,.422-1.616c.208-.461.428-.85.61-1.181a4.482,4.482,0,0,1,.649-1.038,4.052,4.052,0,0,1-.428,1.142,7.932,7.932,0,0,0-.909,2.7,2.246,2.246,0,0,0,.422,1.415,1.428,1.428,0,0,0,1.013.571,1.681,1.681,0,0,0,1.077-.279Z" transform="translate(-463.757 -111.267)"/><path class="c" d="M577.092,116.554a1.31,1.31,0,0,1-.071.363,2.123,2.123,0,0,1-.565.863,1.389,1.389,0,0,1-1.519.247,1.493,1.493,0,0,1-.578-1.765,13.818,13.818,0,0,1,1.129-3.089,3.818,3.818,0,0,1,.733-1.142,31.558,31.558,0,0,0-1.538,4.31,1.227,1.227,0,0,0,.4,1.415,1.149,1.149,0,0,0,1.22-.162,2.375,2.375,0,0,0,.591-.727A1.294,1.294,0,0,1,577.092,116.554Z" transform="translate(-462.293 -111.348)"/><path class="c" d="M585.887,122.8a8.775,8.775,0,0,0-2.564.091A9.007,9.007,0,0,0,581,124a2.065,2.065,0,0,1,.526-.6,4.349,4.349,0,0,1,1.713-.844,4.485,4.485,0,0,1,1.915-.045C585.634,122.607,585.9,122.756,585.887,122.8Z" transform="translate(-464.657 -114.999)"/><path class="a" d="M480.494,188.036c-6.289.584-11.819-4.03-12.734-6.789a7.431,7.431,0,0,1,2.3-7.873c1.791-1.454,4.387-2.2,5.244-4.342,1.5-3.725-3.706-7.925-1.85-11.488,1.3-2.525,5.16-2.486,6.964-4.692,1.59-1.947,1.013-4.8,1.512-7.263.844-4.18,5.108-7.139,9.372-7.263s8.334,2.09,11.28,5.192a37,37,0,0,1,6.614,10.819c1.4,3.161,2.681,6.581,2.1,9.982-.87,5.036-5.5,8.437-9.9,11.033-7.139,4.264-12.6,13.325-20.905,12.637" transform="translate(-424.796 -120.576)"/><path class="a" d="M470.149,178.923H469.7a3.244,3.244,0,0,1-1.233-.4,3.381,3.381,0,0,1-1.421-1.48,3.485,3.485,0,0,1-.091-2.706,3.375,3.375,0,0,1,.9-1.3,7.1,7.1,0,0,1,1.434-.961,14.046,14.046,0,0,0,1.506-.948,3.524,3.524,0,0,0,1.162-1.408,5.994,5.994,0,0,0,0-3.959c-.37-1.363-.993-2.739-1.266-4.264a7.049,7.049,0,0,1-.084-2.3,3.817,3.817,0,0,1,.954-2.038,4.6,4.6,0,0,1,1.824-1.168,17.094,17.094,0,0,1,1.947-.571,7.321,7.321,0,0,0,3.317-1.493,6.783,6.783,0,0,0,1.746-2.642,13.63,13.63,0,0,0,.682-4.615v-1.3a1.991,1.991,0,0,1,0-.448,1.945,1.945,0,0,1,.052.448c0,.292.045.727.065,1.3a12.981,12.981,0,0,1-.584,4.7,6.939,6.939,0,0,1-1.791,2.765,7.47,7.47,0,0,1-3.42,1.584,7.314,7.314,0,0,0-3.622,1.661,3.544,3.544,0,0,0-.87,1.869,6.724,6.724,0,0,0,.084,2.187c.26,1.48.9,2.836,1.253,4.251a6.292,6.292,0,0,1-.065,4.16,3.706,3.706,0,0,1-1.266,1.525,12.975,12.975,0,0,1-1.584.922,7.207,7.207,0,0,0-1.4.915,3.083,3.083,0,0,0-.857,1.22,3.18,3.18,0,0,0,1.356,3.985,3.985,3.985,0,0,0,1.714.513Z" transform="translate(-424.55 -122.891)"/><path class="d" d="M557.3,369.625l12.377-5.731s9.989,10.651,12.377,9.813L571.8,349.31l-19.653,8.145Z" transform="translate(-454.531 -194.626)"/><g class="e" transform="translate(97.619 154.683)"><path d="M557.3,369.625l12.377-5.731s9.989,10.651,12.377,9.813L571.8,349.31l-19.653,8.145Z" transform="translate(-552.15 -349.31)"/></g><path class="f" d="M572.646,360.189a1.084,1.084,0,0,1,.876-1.194,1.045,1.045,0,0,1,1.168.831,1.142,1.142,0,0,1-.9,1.233c-.532,0-1.168-.474-1.116-1" transform="translate(-461.722 -198.022)"/><path class="f" d="M581.377,349.31l-1.947.9,10.56,23.053s.928.889,1.642.441Z" transform="translate(-464.106 -194.626)"/><path class="a" d="M579,370.961c.117-.058-.078-.649.058-1.421s.506-1.3.409-1.363-.707.383-.857,1.3S578.906,371.032,579,370.961Z" transform="translate(-463.809 -201.246)"/><path class="a" d="M582.424,374.454c.123,0,.11-.649.441-1.233s.818-.961.766-1.077-.759.091-1.162.863S582.307,374.5,582.424,374.454Z" transform="translate(-465.094 -202.63)"/><path class="a" d="M587.26,375.975c0-.117-.688-.032-1.214.545s-.545,1.246-.428,1.253.324-.48.766-.948S587.293,376.086,587.26,375.975Z" transform="translate(-466.257 -203.969)"/><path class="a" d="M574.057,372.614c.084-.1-.305-.571-.545-1.266s-.247-1.3-.376-1.3-.338.649-.045,1.473S573.985,372.711,574.057,372.614Z" transform="translate(-461.829 -201.906)"/><path class="a" d="M569,374a2.513,2.513,0,0,0-.519-1.22,5.933,5.933,0,0,0-.935-1.11,5.58,5.58,0,0,0-.649-.545,1.751,1.751,0,0,0-.441-.253.571.571,0,0,0-.649.214.72.72,0,0,0-.052.649,1.832,1.832,0,0,0,.26.435,4.674,4.674,0,0,0,.578.649,4.6,4.6,0,0,0,1.214.811,2.168,2.168,0,0,0,1.3.3c0-.071-.467-.188-1.142-.584a4.875,4.875,0,0,1-1.584-1.441c-.182-.234-.272-.448-.188-.565s.052-.052.149-.032a1.3,1.3,0,0,1,.324.182,7.586,7.586,0,0,1,.649.493,7.344,7.344,0,0,1,.948.993C568.7,373.587,568.931,374.028,569,374Z" transform="translate(-459.286 -202.185)"/><path class="a" d="M569.049,375.342a2.122,2.122,0,0,0-1.3.175,4.278,4.278,0,0,0-1.266.727,3.972,3.972,0,0,0-.61.649,1.1,1.1,0,0,0-.292,1.038.649.649,0,0,0,.558.37,1.907,1.907,0,0,0,.5-.065,2.94,2.94,0,0,0,.824-.344,3.09,3.09,0,0,0,1.045-1.051,1.723,1.723,0,0,0,.318-1.3,11.946,11.946,0,0,1-.584,1.116,3.122,3.122,0,0,1-.986.87,2.859,2.859,0,0,1-.714.273c-.279.071-.526.058-.545-.045a.772.772,0,0,1,.221-.6,4.674,4.674,0,0,1,.539-.584,4.917,4.917,0,0,1,1.116-.746C568.562,375.471,569.088,375.413,569.049,375.342Z" transform="translate(-459.235 -203.751)"/><path class="a" d="M551.522,367.625l-3.972-8.775-8.223,3.875-7.717,15.259Z" transform="translate(-447.322 -197.975)"/><path class="d" d="M578.717,377.8l12.546-5.354s9.657,10.956,12.072,10.2l-9.5-24.7-19.893,7.535Z" transform="translate(-462.179 -197.655)"/><path class="f" d="M594.454,368.539a1.084,1.084,0,0,1,.883-1.142,1.038,1.038,0,0,1,1.136.87,1.136,1.136,0,0,1-.941,1.2c-.532,0-1.149-.506-1.084-1.032" transform="translate(-469.375 -200.972)"/><path class="f" d="M603.52,357.94l-1.979.837,9.852,23.365s.9.915,1.629.493Z" transform="translate(-471.866 -197.655)"/><path class="a" d="M600.47,379.5c.117-.052-.058-.649.1-1.421s.545-1.253.454-1.343-.714.35-.9,1.259S600.366,379.557,600.47,379.5Z" transform="translate(-471.354 -204.247)"/><path class="a" d="M603.777,383.094c.13,0,.136-.617.487-1.22s.844-.935.792-1.051-.759.065-1.181.831S603.667,383.14,603.777,383.094Z" transform="translate(-472.597 -205.675)"/><path class="a" d="M608.564,384.744c0-.117-.649-.052-1.22.506s-.591,1.233-.467,1.246.338-.474.785-.928S608.6,384.893,608.564,384.744Z" transform="translate(-473.717 -207.046)"/><path class="a" d="M595.491,380.954c.091-.1-.286-.584-.5-1.3s-.208-1.3-.337-1.337-.357.649-.091,1.473S595.452,381.045,595.491,380.954Z" transform="translate(-469.374 -204.807)"/><path class="a" d="M590.383,382.247a2.454,2.454,0,0,0-.48-1.233,5.953,5.953,0,0,0-.9-1.142,5.549,5.549,0,0,0-.649-.565,1.61,1.61,0,0,0-.435-.266.558.558,0,0,0-.649.195.728.728,0,0,0-.078.649,1.7,1.7,0,0,0,.247.435,4.409,4.409,0,0,0,.558.649,4.834,4.834,0,0,0,1.188.857,2.232,2.232,0,0,0,1.3.338c0-.071-.467-.2-1.129-.649a5.435,5.435,0,0,1-1.045-.863,4.914,4.914,0,0,1-.493-.649c-.169-.234-.26-.454-.169-.565s.052-.052.149,0a1.047,1.047,0,0,1,.318.188,7.188,7.188,0,0,1,.649.513,7.386,7.386,0,0,1,.915,1.019,10.215,10.215,0,0,0,.7,1.09Z" transform="translate(-466.816 -205.048)"/><path class="a" d="M590.37,383.6a2.155,2.155,0,0,0-1.3.136,4.413,4.413,0,0,0-1.3.688,5.454,5.454,0,0,0-.649.6,1.11,1.11,0,0,0-.318,1.032.649.649,0,0,0,.545.383,1.724,1.724,0,0,0,.5-.045,2.883,2.883,0,0,0,.837-.324,3.011,3.011,0,0,0,1.071-1.019,1.746,1.746,0,0,0,.363-1.3,5.227,5.227,0,0,1-.649,1.1,3.018,3.018,0,0,1-1.013.837,2.634,2.634,0,0,1-.72.253c-.279.065-.526.045-.539-.065a.91.91,0,0,1,.24-.584,3.8,3.8,0,0,1,.552-.565,4.493,4.493,0,0,1,1.142-.714C589.87,383.713,590.377,383.674,590.37,383.6Z" transform="translate(-466.686 -206.644)"/><path class="g" d="M480.742,303.6s31.056-4.284,37.4-9,6.081-6.146,6.081-6.146.993-4.868-2.888-5.5-22.216,4.407-22.216,4.407l-10.806-2.771-8.911,5.29-5.958,7.366s1.636,4.3,3.946,5.036a18.875,18.875,0,0,0,3.356.837" transform="translate(-426.906 -171.317)"/><g class="e" transform="translate(46.534 111.579)"><path d="M480.742,303.6s31.056-4.284,37.4-9,6.081-6.146,6.081-6.146.993-4.868-2.888-5.5-22.216,4.407-22.216,4.407l-10.806-2.771-8.911,5.29-5.958,7.366s1.636,4.3,3.946,5.036a18.875,18.875,0,0,0,3.356.837" transform="translate(-473.44 -282.896)"/></g><path class="b" d="M486.6,297.166c-.234-.6-.532-8.587-.532-8.587a8.191,8.191,0,0,1,6.49-3.622c4.3-.052,10.43,1.843,10.43,1.843l18.173-5.971,1.454,6.873s-13.63,11.579-20.918,11.546A57.715,57.715,0,0,1,486.6,297.166Z" transform="translate(-431.339 -170.592)"/><path class="b" d="M445.58,258.672h0a9,9,0,0,1-6.088-.1,13.377,13.377,0,0,1-6.179-4.6l-1.584-2.077c-1.843-1.824-13.389-17.667-13.389-17.667l6.146-9.943,13.876,16.187,3.972-11,11.767,8.262-3.2,13.2C450.123,254.388,448.89,257.484,445.58,258.672Z" transform="translate(-407.568 -150.745)"/><path class="b" d="M411.483,201.55s3.31,4.9,4.154,6.536c.688,1.3,3.245,5.575,3.109,10.053l-6.231,8.106a23,23,0,0,1-3.472-3.148,2.934,2.934,0,0,1-.039-2.09,7.989,7.989,0,0,0-1.4-.974s.286,1.532-.863,1.817-4.965-3.725-4.965-3.725-.292-1.72.759-1.817c0,0-.759-2.388,0-3.057,0,0-.857-1.947.195-2.771a8.121,8.121,0,0,1,1.24-2.966c.759-.766,8.541,1.532,8.541,1.532a43.316,43.316,0,0,1-2.031-5.238A3.069,3.069,0,0,1,411.483,201.55Z" transform="translate(-401.743 -142.767)"/><path class="c" d="M407.092,224.63a1.58,1.58,0,0,1,.311.221,2.6,2.6,0,0,1,.649.8,1.849,1.849,0,0,1,.266.707,1.732,1.732,0,0,1-.143.87,1.032,1.032,0,0,1-.8.61,1.532,1.532,0,0,1-1.032-.24,12.877,12.877,0,0,1-1.428-1.233c-.383-.376-.753-.727-1.1-1.051a5.875,5.875,0,0,1-.954-1.032,5.783,5.783,0,0,1,1.116.857l1.149.993a16.783,16.783,0,0,0,1.389,1.181c.5.338,1.194.253,1.376-.221a1.467,1.467,0,0,0,.149-.707,1.636,1.636,0,0,0-.2-.649,2.993,2.993,0,0,0-.558-.818C407.15,224.747,407.072,224.643,407.092,224.63Z" transform="translate(-402.135 -150.745)"/><path class="c" d="M406.842,214.25a10.1,10.1,0,0,1,1.434,1.214c.208.2.454.4.688.649a3.023,3.023,0,0,1,.649.915,1.46,1.46,0,0,1-1.389,1.947,2.239,2.239,0,0,1-1.207-.649l-.883-.811-1.486-1.382a10.085,10.085,0,0,1-1.3-1.343,10.894,10.894,0,0,1,1.473,1.162l1.532,1.337.9.792a1.947,1.947,0,0,0,1.019.565,1.142,1.142,0,0,0,1.071-1.493,5.75,5.75,0,0,0-1.24-1.519A10.723,10.723,0,0,1,406.842,214.25Z" transform="translate(-402.307 -147.224)"/><path class="c" d="M407.986,220.7a.632.632,0,0,1,.4.078,1.337,1.337,0,0,1,.694.87,1.363,1.363,0,0,1-1.713,1.59,2.751,2.751,0,0,1-.922-.519,21.056,21.056,0,0,1-2.6-2.414,5.193,5.193,0,0,1-.9-1.155c.078-.071,1.538,1.616,3.686,3.3a2.421,2.421,0,0,0,.8.467.993.993,0,0,0,.785-.071,1.064,1.064,0,0,0,.6-1.149,1.259,1.259,0,0,0-.526-.8C408.123,220.758,407.98,220.726,407.986,220.7Z" transform="translate(-402.166 -148.943)"/><path class="c" d="M412.672,227.511a.761.761,0,0,1,0-.3,3.336,3.336,0,0,1,.175-.831,3.53,3.53,0,0,1,2.005-2.148l.045.312h0v-.318h.039v.318h-.11l-.045-.078a6.757,6.757,0,0,1-.772-2.077,7.334,7.334,0,0,1,.5-4.439,5.7,5.7,0,0,1,.7-1.168c.208-.247.324-.376.344-.363a10.133,10.133,0,0,0-.824,1.629,7.62,7.62,0,0,0-.389,4.277,6.75,6.75,0,0,0,.72,1.947l-.136-.078h0v.318h-.032v-.318h0l.759.032-.714.279a3.479,3.479,0,0,0-1.947,1.915C412.756,227.1,412.724,227.524,412.672,227.511Z" transform="translate(-405.573 -147.985)"/><path class="c" d="M450.743,255.778a10.98,10.98,0,0,1-1.11-3.323,11.2,11.2,0,0,1-.344-3.485c.1,0,.273,1.545.649,3.414S450.834,255.746,450.743,255.778Z" transform="translate(-418.424 -159.41)"/><path class="h" d="M477.929,300.869c-.188.571-1.889,14.928-1.889,14.928s-12.254,30.238-14.006,39.377-.571,18.549,9.275,21.2S489.2,371.5,489.2,371.5s3.472,4.868,12.805,3.725c9.463-1.155,42.745-21.574,42.745-21.574l-5.679-14.707-25.961,9.787s13.045-25.7,13.63-32.367c.454-5.147-7.139-21.678-12.87-24.988,0,0-16.278,12.409-21.768,11.507S477.929,300.869,477.929,300.869Z" transform="translate(-422.666 -174.295)"/><path class="d" d="M508.791,329.1a.524.524,0,0,1,0,.162,2.119,2.119,0,0,1-.039.461,15.114,15.114,0,0,1-.234,1.778,43.4,43.4,0,0,1-1.6,6.4c-.85,2.655-2.1,5.737-3.557,9.086a114.971,114.971,0,0,0-4.31,11.137c-.649,2.012-1.175,4.011-1.6,5.965a37.8,37.8,0,0,0-.844,5.679,21.676,21.676,0,0,0,1.421,9.541,18.732,18.732,0,0,0,3.5,5.5c.532.565.954.993,1.259,1.266l.338.318a.65.65,0,0,1,.11.123.488.488,0,0,1-.13-.1l-.363-.292a13.036,13.036,0,0,1-1.3-1.227,18.263,18.263,0,0,1-3.622-5.5,21.515,21.515,0,0,1-1.532-9.625,36.614,36.614,0,0,1,.824-5.731,61.5,61.5,0,0,1,1.6-6,110.2,110.2,0,0,1,4.342-11.157c1.473-3.368,2.739-6.425,3.615-9.086a47.744,47.744,0,0,0,1.7-6.347c.136-.766.24-1.357.292-1.765.032-.188.052-.337.078-.461A.44.44,0,0,1,508.791,329.1Z" transform="translate(-434.908 -187.533)"/><path class="d" d="M563.762,364.739a1.457,1.457,0,0,1-.338.156l-.987.383-3.654,1.35c-3.083,1.142-7.36,2.693-12.026,4.543a78.7,78.7,0,0,0-11.637,5.348l-.954.649c-.273.24-.558.448-.779.649a5.78,5.78,0,0,0-.987,1.3l-.5.928a1.465,1.465,0,0,1-.2.318,2,2,0,0,1,.136-.344c.11-.221.24-.552.448-.961a5.642,5.642,0,0,1,.967-1.389c.221-.253.506-.467.779-.72s.649-.454.954-.7a70.37,70.37,0,0,1,11.683-5.458c4.7-1.843,8.963-3.362,12.065-4.446l3.693-1.253,1.006-.324A1.351,1.351,0,0,1,563.762,364.739Z" transform="translate(-447.354 -200.041)"/><path class="d" d="M554.587,330a1.54,1.54,0,0,1,0,.363c-.032.273-.078.617-.136,1.038a31.288,31.288,0,0,1-1.013,3.712,119.8,119.8,0,0,1-4.783,11.7c-2.064,4.5-4.063,8.515-5.543,11.4-.74,1.441-1.357,2.6-1.785,3.394l-.513.915a1.49,1.49,0,0,1-.195.305,1.392,1.392,0,0,1,.136-.338c.123-.247.273-.558.454-.941.415-.857.993-2.018,1.688-3.446,1.428-2.908,3.388-6.932,5.445-11.423s3.79-8.626,4.855-11.683c.545-1.525.883-2.784,1.1-3.661l.2-1.019A1.35,1.35,0,0,1,554.587,330Z" transform="translate(-450.485 -187.849)"/><path class="d" d="M511.1,323.593c-.1,0-.74-3.213-1.441-7.217s-1.2-7.263-1.11-7.276.74,3.213,1.441,7.217S511.2,323.58,511.1,323.593Z" transform="translate(-439.227 -180.514)"/><path class="d" d="M544.71,303.761a2.194,2.194,0,0,1-.474.454,7.484,7.484,0,0,1-1.532.928,8.3,8.3,0,0,1-10.508-3.031,7.3,7.3,0,0,1-.8-1.6,2.047,2.047,0,0,1-.162-.649,16.016,16.016,0,0,0,1.162,2.109,8.379,8.379,0,0,0,10.216,2.94A16.474,16.474,0,0,0,544.71,303.761Z" transform="translate(-447.189 -177.271)"/><path class="d" d="M495.439,309a2,2,0,0,1,0,.649,9.529,9.529,0,0,1-.234,1.687,11.793,11.793,0,0,1-6.983,8.34,10.729,10.729,0,0,1-1.623.526,2.153,2.153,0,0,1-.649.091c0-.058.857-.24,2.142-.837a12.4,12.4,0,0,0,6.847-8.178C495.354,309.857,495.38,309,495.439,309Z" transform="translate(-431.297 -180.479)"/><path class="d" d="M513.837,310.38a1.805,1.805,0,0,0-.811.649,1.058,1.058,0,0,0-.052,1.025,1.09,1.09,0,0,0,2.031-.091,1.071,1.071,0,0,0-.143-1.019,1.8,1.8,0,0,0-.87-.578.509.509,0,0,1,.318,0,1.364,1.364,0,0,1,.74.448,1.3,1.3,0,0,1,.247,1.3,1.389,1.389,0,0,1-2.6.123,1.337,1.337,0,0,1,.831-1.8C513.72,310.342,513.837,310.361,513.837,310.38Z" transform="translate(-440.648 -180.951)"/><path class="g" d="M488.541,198.641l-13.305.422s-4.3,17.31-3.966,28.8c.195,7.029,4.543,16.985,5.6,20.646.733,2.551-1.869,6.023-2.6,8.574a.7.7,0,0,1,0,.11c-1.084,3.686-6.153,16.414,6.419,16.414,0,0-6.542-3.6-3.245-10.008,3.174-6.166,9.314-8.846,14.512-5.809s6.932,1.733,11.683-.221,21.665-6.932,19.471,1.733c0,0,2.6-4.985-2.6-8.665-3.953-2.8-7.276-10.443-7.412-18.238a13.93,13.93,0,0,1,4.946-11.066l5.718-4.232s-5.945.35-4.212-8.749,2.953-10.91,2.953-10.91L511.2,201.172a4.005,4.005,0,0,1-1.207.123l-5.737-.312Z" transform="translate(-426.138 -141.324)"/><path class="g" d="M453.5,221.832s6.166-15.823,8.762-18.4c2.336-2.343,6.75-3.492,6.75-3.492l-3.5,29.79Z" transform="translate(-419.908 -142.202)"/><path class="a" d="M475.505,254.178a1.1,1.1,0,0,1-.143-.3c-.1-.24-.208-.532-.35-.889-.286-.779-.74-1.889-1.2-3.3a61.081,61.081,0,0,1-2.9-11.222,27.393,27.393,0,0,1-.162-6.393c.188-1.947.552-3.693.824-5.147s.5-2.635.649-3.446c.065-.376.117-.688.162-.941a1.182,1.182,0,0,1,.084-.325,1.6,1.6,0,0,1,0,.331c-.032.26-.065.571-.1.948-.091.824-.279,2.012-.532,3.472s-.578,3.193-.746,5.134a27.945,27.945,0,0,0,.188,6.322,68.2,68.2,0,0,0,2.791,11.189c.428,1.415.85,2.538,1.1,3.329l.253.935a1.079,1.079,0,0,1,.091.3Z" transform="translate(-425.921 -150.022)"/><path class="a" d="M532.168,247.285a3.165,3.165,0,0,1-.169-.779,21.071,21.071,0,0,1-.253-2.168,28.855,28.855,0,0,1,2.6-14.013,19.993,19.993,0,0,1,1.013-1.947,3.525,3.525,0,0,1,.435-.649c.052.033-.506,1.019-1.227,2.693a31.959,31.959,0,0,0-2.6,13.9C532.057,246.156,532.226,247.279,532.168,247.285Z" transform="translate(-447.348 -151.955)"/><g class="e" transform="translate(84.469 75.903)"><path d="M532.331,244.947a37.284,37.284,0,0,1,1.908-7.535,12.656,12.656,0,0,1,4.705-6.049,7.136,7.136,0,0,0,1.376-.98,1.6,1.6,0,0,0,.467-1.538c-.292-.9-1.525-1.058-2.447-.811a7.334,7.334,0,0,0-4.3,3.68,17.777,17.777,0,0,0-1.687,5.543,23.251,23.251,0,0,0-.344,6.932" transform="translate(-531.89 -227.928)"/></g><path class="a" d="M525.128,283.9s-.045,0-.11-.1a2.526,2.526,0,0,0-.3-.324,13.031,13.031,0,0,0-1.207-1.149,12.293,12.293,0,0,0-5.491-2.6,11.338,11.338,0,0,0-4.193,0,19.188,19.188,0,0,0-4.543,1.6c-1.558.727-3.154,1.59-4.907,2.291a16.874,16.874,0,0,1-2.765.844,11.165,11.165,0,0,1-2.986.156,46.753,46.753,0,0,1-5.692-1.233,13.507,13.507,0,0,0-5.309-.169,13.668,13.668,0,0,0-4.543,1.636,12.979,12.979,0,0,0-3.245,2.674,13.631,13.631,0,0,0-2.888,5.354,14.209,14.209,0,0,0-.363,1.629,2.3,2.3,0,0,1-.065.435.6.6,0,0,1-.032.143,9.089,9.089,0,0,1,.331-2.246,13.486,13.486,0,0,1,2.836-5.471,13.032,13.032,0,0,1,3.284-2.758,13.82,13.82,0,0,1,4.621-1.7,13.63,13.63,0,0,1,5.439.156,49,49,0,0,0,5.653,1.214,10.723,10.723,0,0,0,2.888-.149,16.511,16.511,0,0,0,2.706-.818c1.726-.694,3.329-1.545,4.9-2.272a19.011,19.011,0,0,1,4.654-1.59,11.534,11.534,0,0,1,4.29.065,12.066,12.066,0,0,1,5.53,2.706A8.939,8.939,0,0,1,525.128,283.9Z" transform="translate(-427.977 -170.051)"/><path class="a" d="M514.938,245a1.049,1.049,0,0,1,0,.312v.909a19.068,19.068,0,0,1-.409,3.31,21.651,21.651,0,0,1-13.779,16.031,19.985,19.985,0,0,1-3.206.9c-.383.078-.688.11-.9.136a1.175,1.175,0,0,1-.318,0,12.176,12.176,0,0,1,1.188-.292,24.194,24.194,0,0,0,3.148-.993,22.151,22.151,0,0,0,13.63-15.862,23.375,23.375,0,0,0,.513-3.245A11.991,11.991,0,0,1,514.938,245Z" transform="translate(-434.94 -158.017)"/><g class="e" transform="translate(64.018 93.579)"><path d="M515.288,255.174a2.07,2.07,0,0,0-1.9.85,8.563,8.563,0,0,0-1.006,1.947,14.927,14.927,0,0,1-7.86,7.684,14.053,14.053,0,0,0-2.745,1.259,2.934,2.934,0,0,0-1.4,2.525,19.529,19.529,0,0,0,10.294-6.218C514.782,258.2,515.288,255.174,515.288,255.174Z" transform="translate(-500.38 -255.163)"/></g><path class="i" d="M479.134,213.672a3.771,3.771,0,0,0-1.512-1.545c-1.207-.461-2.46.649-3.758.649-1.525,0-2.6-1.447-3.81-2.362a12.382,12.382,0,0,0-5.685-1.824l-.649,1.227c1.746,1.155,4.446-.454,6.211.649a5.614,5.614,0,0,1,1.623,2.285,2.982,2.982,0,0,0,2.031,1.811c.941.11,1.72-.519,2.6-.649,2.8-.454,4.8,3.706,7.6,3.245A9.736,9.736,0,0,1,479.134,213.672Z" transform="translate(-423.495 -145.238)"/><path class="i" d="M470.72,240.645a4.155,4.155,0,0,1,3.836-1.3,24.5,24.5,0,0,1,4.082,1.149,6.231,6.231,0,0,0,4.16.065,12.438,12.438,0,0,1,1.869-.863,5.408,5.408,0,0,1,2.758.454,15.539,15.539,0,0,0,5.88.649,14.192,14.192,0,0,1,2.284-.123,2.973,2.973,0,0,1,2.051.9,8.7,8.7,0,0,1,3.1-1.09,9.22,9.22,0,0,1-4.07,1.947c-1.739.208-3.427-.571-5.14-.935-4.66-.98-9.554,1.136-14.22.195a23.592,23.592,0,0,0-3.245-.649,3.3,3.3,0,0,0-2.953,1.175" transform="translate(-425.952 -156.018)"/><path class="i" d="M475.72,260.819c1.85.4,3.5-1.162,5.316-1.7a8.947,8.947,0,0,1,4.926.331,18.736,18.736,0,0,0,4.874,1.071,11.23,11.23,0,0,1,3.063.084,15.208,15.208,0,0,1,2.168,1.058c2.375,1.116,5.153.513,7.7-.1A11.325,11.325,0,0,1,497.553,263a34.353,34.353,0,0,1-6.38-1.006l-5.1-1.142a9.84,9.84,0,0,0-3.894-.331c-2.187.409-4.056,2.285-6.27,2.07" transform="translate(-427.707 -162.893)"/><path class="i" d="M505.93,274.108c1.357.13,2.707.227,4.07.292a11.509,11.509,0,0,0,3.245-.182c1.772-.435,3.342-1.649,5.192-1.772s3.635.915,5.51,1.045a5.8,5.8,0,0,0,4.653-1.9,16.226,16.226,0,0,1-8.372.2,8.774,8.774,0,0,0-3.894-.487,12.227,12.227,0,0,0-2.81,1.434c-2.285,1.22-5,1.214-7.594,1.175" transform="translate(-438.309 -167.219)"/><path class="i" d="M522.78,236.949c.136-1.48,5.367-2.8,7.522-4.679a4.063,4.063,0,0,1-2.81,3.3A15.971,15.971,0,0,1,525,235.9a3.245,3.245,0,0,0-2.22,1.051" transform="translate(-444.223 -153.549)"/><path class="i" d="M508.36,218.122a3.576,3.576,0,0,0,3.187.143,6.457,6.457,0,0,1,3.245-.578c1.1.227,1.863,1.071,2.843,1.538a4.835,4.835,0,0,0,4.186-.123,6.439,6.439,0,0,0,2.888-3.122,4,4,0,0,1,1.045-1.687,7.121,7.121,0,0,1,2.155-.61,5.053,5.053,0,0,0,2.557-2.453,7.293,7.293,0,0,1,2.3-2.765,2.583,2.583,0,0,0-2.486,1.045,8.634,8.634,0,0,1-1.98,2.025c-.831.467-1.85.467-2.687.909-1.493.785-1.947,2.655-3.005,3.985a4.263,4.263,0,0,1-5.075,1.454c-.915-.474-1.668-1.4-2.7-1.408a4.193,4.193,0,0,0-1.863.649,8.314,8.314,0,0,1-4.543.863l.351.071" transform="translate(-439.162 -145.17)"/><path class="i" d="M472.859,295.657a3.7,3.7,0,0,1,.733-2.466c.48-.733,1.077-1.389,1.506-2.155a26.958,26.958,0,0,0,1.246-3.472,4.127,4.127,0,0,1,2.362-2.661c.8-.247,1.668-.1,2.479-.273,1.376-.286,2.453-1.447,3.836-1.707,1.123-.214,2.278.2,3.42.149a4.212,4.212,0,0,0,2.765-1.246,4.439,4.439,0,0,1-3.07.26,7.7,7.7,0,0,0-3.115-.214c-.649.162-1.3.526-1.947.707-1.246.331-2.6-.032-3.842.273-1.83.454-3.018,2.213-3.758,3.946s-.831,3.1-2.07,4.543C473.417,291.315,472.47,295.021,472.859,295.657Z" transform="translate(-426.669 -170.933)"/><path class="i" d="M487.528,201.665a7.987,7.987,0,0,1-1.512-.746,1.882,1.882,0,0,1-.909-1.259l-1.947.065a5.056,5.056,0,0,0,3.823,3.024,5.51,5.51,0,0,1,1.389.182,10.671,10.671,0,0,1,1.356.844,1.162,1.162,0,0,0,1.46-.123A21.294,21.294,0,0,0,487.528,201.665Z" transform="translate(-430.318 -142.104)"/><path class="i" d="M465.859,225.744a4.206,4.206,0,0,0-2.453-.091,5.38,5.38,0,0,1-2.466.071,7.14,7.14,0,0,1-1.843-1.064,2.375,2.375,0,0,0-1.85-.617l-.376.9c0,.383.35.188.72.3a1.947,1.947,0,0,1,1.038.461,3.727,3.727,0,0,1,.389.883,1.733,1.733,0,0,0,1.674.818,5.257,5.257,0,0,0,1.869-.649,4.634,4.634,0,0,1,1.876-.571,2.46,2.46,0,0,1,2.3,1.59A1.565,1.565,0,0,0,465.859,225.744Z" transform="translate(-421.091 -150.657)"/><path class="a" d="M536.52,187.515a3.509,3.509,0,0,0,3.557,1.09,18.476,18.476,0,0,0,3.635-1.473,5.549,5.549,0,0,1,3.816-.526c1.545.474,2.538,1.986,3.966,2.745a4.653,4.653,0,0,0,5.841-1.512,14.033,14.033,0,0,0,1.253-3.245,4.378,4.378,0,0,1,2.064-2.719c1.252-.558,2.732-.071,4.05-.435,1.83-.506,2.843-2.505,3.1-4.381.487-3.433,2.408-10.3-10.995-11.209" transform="translate(-449.046 -130.237)"/><path class="b" d="M514.806,150.273a12.714,12.714,0,0,0-11.423-14.233,12.956,12.956,0,0,0-13.8,11.131,132.98,132.98,0,0,0-1.629,14.013c.084,6.49,3.894,9.086,5.445,9.82a8.477,8.477,0,0,0,1.714.422h0s.045.032.039.052L493.7,178.96c-.649,4.907,2.077,9.281,6.977,10s8.749-3.05,9.5-7.957Z" transform="translate(-431.999 -119.755)"/><path class="a" d="M492.185,158.737c.11.156.967-.312,2.07-.143s1.83.831,1.947.714,0-.312-.344-.617a2.8,2.8,0,0,0-1.525-.707,2.752,2.752,0,0,0-1.675.279C492.282,158.444,492.133,158.672,492.185,158.737Z" transform="translate(-433.482 -127.466)"/><path class="a" d="M507.986,161.311c.1.156.967-.305,2.07-.143s1.83.837,1.947.714,0-.312-.344-.649a2.875,2.875,0,0,0-1.558-.74,2.68,2.68,0,0,0-1.668.286C508.051,161.019,507.9,161.246,507.986,161.311Z" transform="translate(-439.022 -128.347)"/><path class="a" d="M499.975,165.485a6.88,6.88,0,0,0-1.739-.591c-.279-.065-.539-.162-.558-.363a1.4,1.4,0,0,1,.312-.8l1.142-2.025a37.467,37.467,0,0,0,2.693-5.341,37.23,37.23,0,0,0-3.115,5.114c-.389.707-.759,1.389-1.11,2.038a1.661,1.661,0,0,0-.312,1.084.707.707,0,0,0,.4.48,1.72,1.72,0,0,0,.474.136,7.418,7.418,0,0,0,1.811.273Z" transform="translate(-435.275 -126.906)"/><path class="c" d="M498.846,189.824s4.212.974,10.008-1.454c0,0-2.505,5.387-10.384,3.472Z" transform="translate(-435.691 -138.141)"/><path class="c" d="M501.475,174.324a2.005,2.005,0,0,1,1.889-.48,1.83,1.83,0,0,1,1.155.857,1.168,1.168,0,0,1-.1,1.331,1.356,1.356,0,0,1-1.5.149,4.155,4.155,0,0,1-1.3-1.045,1.252,1.252,0,0,1-.266-.37.383.383,0,0,1,.065-.415" transform="translate(-436.69 -133.02)"/><path class="a" d="M504.135,172.32c-.182,0-.357,1.162-1.506,1.863s-2.408.383-2.44.552.253.273.785.363a3.011,3.011,0,0,0,2.031-.389,2.6,2.6,0,0,0,1.181-1.571C504.31,172.645,504.219,172.326,504.135,172.32Z" transform="translate(-436.293 -132.508)"/><path class="a" d="M509.109,155.3c.065.312,1.188.331,2.46.649s2.272.85,2.479.61c.1-.117-.046-.428-.422-.779a4.414,4.414,0,0,0-3.764-.98C509.362,154.951,509.083,155.152,509.109,155.3Z" transform="translate(-439.425 -126.328)"/><path class="a" d="M493.9,152.089c.156.279.954.13,1.869.247s1.668.415,1.882.182c.1-.117,0-.383-.292-.649a2.6,2.6,0,0,0-1.46-.649,2.642,2.642,0,0,0-1.564.286C493.958,151.719,493.828,151.952,493.9,152.089Z" transform="translate(-434.081 -125.095)"/><path class="a" d="M523.752,166c.409-.935.766-1.8.948-2.362a11.74,11.74,0,0,0-.312-7.788c-.974-1.947-3.44-3.842-4.154-5.718-1.1-2.875-.286-3.628-1.129-9.632-.48-3.407-5.023-8.126-9.787-7.392a9.735,9.735,0,0,0-5.724-3.024,13.629,13.629,0,0,0-13.857,5.7,9.14,9.14,0,0,0-1.428,7.626c1.344,2.057,5.627.785,8.217-.649a6.146,6.146,0,0,0,8.392-1.739,2.921,2.921,0,0,0,2.064,1.11c.084.759.175,1.4.234,1.811.26,1.876,3.083,4.6,3.115,6.49.058,3.57-2.681,3.745-3.44,7.237-.571,2.6,1.421,4.167,1.8,6.828.058.409-4.718,9.086,1.441,12.727,0,0,.162.13.409.376a6.49,6.49,0,0,1,.695,8.2c-1.616,2.4-3.343,6.373.785,8.509,0,0,1.2-3.8,2.895-4.543,4.3-1.876,8.7-2.233,6.925-11.559S522.428,169.993,523.752,166Z" transform="translate(-432.007 -117.597)"/></g><g transform="translate(134.177 5204.61)"><path class="j" d="M216.822,118.4l3.018,34.97,17.524-1.4c.11-2.044,0-9.956,0-9.956s7.282-1.129,7.373-8.437c.045-3.537-.461-10.852-.993-17.439a13.48,13.48,0,0,0-14.227-12.377h0a13.487,13.487,0,0,0-12.7,14.642Z" transform="translate(-160.954 -69.435)"/><path class="k" d="M243.312,161.09a16.927,16.927,0,0,1-9.5-2.7s2.246,5.244,9.515,4.589Z" transform="translate(-166.934 -88.618)"/><path class="a" d="M253.187,129.82a1.045,1.045,0,0,1-1.006,1.051,1,1,0,0,1-1.071-.941,1.045,1.045,0,0,1,1-1.051,1.006,1.006,0,0,1,1.077.941Z" transform="translate(-173.006 -78.259)"/><path class="a" d="M253.628,127.937c-.13.136-.915-.448-2.038-.448s-1.947.565-2.057.428.071-.305.428-.565a2.869,2.869,0,0,1,1.649-.513,2.732,2.732,0,0,1,1.623.526C253.576,127.632,253.719,127.872,253.628,127.937Z" transform="translate(-172.441 -77.545)"/><path class="a" d="M235.877,130.223a1.045,1.045,0,0,1-1.006,1.051.993.993,0,0,1-1.071-.935,1.038,1.038,0,0,1,1-1.051.993.993,0,0,1,1.077.935Z" transform="translate(-166.931 -78.402)"/><path class="a" d="M236.668,128.257c-.13.136-.915-.448-2.038-.448s-1.947.565-2.057.428.071-.305.428-.565a2.869,2.869,0,0,1,1.649-.513,2.778,2.778,0,0,1,1.623.526C236.616,127.952,236.733,128.2,236.668,128.257Z" transform="translate(-166.489 -77.657)"/><path class="a" d="M244.879,136.6a7.925,7.925,0,0,1,1.824-.325c.286,0,.552-.091.6-.286a1.447,1.447,0,0,0-.195-.844c-.266-.694-.545-1.421-.844-2.181a36.365,36.365,0,0,1-1.9-5.692,37.153,37.153,0,0,1,2.349,5.53l.811,2.187a1.662,1.662,0,0,1,.149,1.123.727.727,0,0,1-.474.422,2.006,2.006,0,0,1-.48.065,7.348,7.348,0,0,1-1.85,0Z" transform="translate(-170.637 -77.695)"/><path class="a" d="M240,142.84c.182,0,.182,1.2,1.22,2.064s2.337.733,2.349.9-.292.234-.837.247a3,3,0,0,1-1.947-.649,2.661,2.661,0,0,1-.948-1.733C239.775,143.132,239.937,142.833,240,142.84Z" transform="translate(-169.044 -83.16)"/><path class="a" d="M236.586,121.642c-.11.305-1.227.162-2.544.318s-2.375.513-2.551.24c-.078-.13.11-.415.539-.707a4.16,4.16,0,0,1,1.889-.649,4.3,4.3,0,0,1,1.993.234C236.391,121.259,236.631,121.5,236.586,121.642Z" transform="translate(-166.114 -75.429)"/><path class="a" d="M253.168,122.9c-.2.26-.967,0-1.9,0s-1.713.169-1.9-.1c-.078-.13.045-.383.389-.649a2.739,2.739,0,0,1,3.05.1C253.149,122.518,253.253,122.778,253.168,122.9Z" transform="translate(-172.39 -75.754)"/><path class="a" d="M223.823,111.6h-.039a5.737,5.737,0,0,0-2.129,3.706,1.433,1.433,0,0,0,0,.149c-.279,2.077-.234,4.193-.532,6.27a9.2,9.2,0,0,1-2.6,5.614c-.649.591-1.746.993-2.265.305a1.772,1.772,0,0,1-.26-.954c-.389-5.017-1.759-9.469-1.752-14.713a4.433,4.433,0,0,1,1.837-3.6c1.1-.785,2.44-1.6,3.661-1.025s2.8,2.862,3.751,3.829" transform="translate(-160.069 -70.634)"/><path class="j" d="M218.016,131.277c-.13-.052-5.01-1.48-4.848,3.5s5.127,3.79,5.127,3.648S218.016,131.277,218.016,131.277Z" transform="translate(-159.688 -79.022)"/><path class="k" d="M217.423,137.472a1.429,1.429,0,0,1-.234.136.85.85,0,0,1-.649,0,2.146,2.146,0,0,1-1.051-1.9,2.849,2.849,0,0,1,.221-1.22,1.006,1.006,0,0,1,.649-.688.448.448,0,0,1,.526.221c.071.136.039.24.065.247s.1-.091.058-.292a.552.552,0,0,0-.208-.305.649.649,0,0,0-.48-.11,1.22,1.22,0,0,0-.883.8,2.966,2.966,0,0,0-.26,1.4,2.243,2.243,0,0,0,1.337,2.116.934.934,0,0,0,.792-.162C217.416,137.6,217.436,137.479,217.423,137.472Z" transform="translate(-160.393 -79.902)"/><path class="a" d="M221.5,105.4c-1.519-1.778,1.356-5.127,3.661-6.27s5.692-.467,8.236-.045a13.447,13.447,0,0,0,4.829.409,11.033,11.033,0,0,0,3-1.3,8.061,8.061,0,0,1,3.05-1.116,3.018,3.018,0,0,1,2.849,1.24,1.883,1.883,0,0,1-.85,2.706,2.447,2.447,0,1,1,1.35,4.374c.617-.649,1.824.065,1.876.954a2.6,2.6,0,0,1-1.389,2.129,9.37,9.37,0,0,1-6.588.928c-2.239-.37-4.381-1.181-6.607-1.616s-5.971-1.259-7.964-.182c-1.473.792-2.259,2.836-3.206,2.6a3.037,3.037,0,0,1-1.9-1.947,8.722,8.722,0,0,1-.344-2.817" transform="translate(-162.465 -67.089)"/><path class="d" d="M217.823,124.058a1.311,1.311,0,0,0,.4-.532,3.355,3.355,0,0,0,.253-1.8c-.11-1.61-1.532-3.33-1.713-5.549a5.03,5.03,0,0,1,.552-2.973,3.836,3.836,0,0,1,1.85-1.6,3.206,3.206,0,0,1,1.662-.227c.4.065.617.156.649.117s-.175-.175-.591-.305a3.1,3.1,0,0,0-1.824.091,3.972,3.972,0,0,0-2.135,1.7,5.237,5.237,0,0,0-.649,3.245,8.839,8.839,0,0,0,.961,3.135,9.561,9.561,0,0,1,.889,2.408A3.81,3.81,0,0,1,217.823,124.058Z" transform="translate(-160.767 -72.018)"/><path class="a" d="M241.378,91.64a1.294,1.294,0,0,1,.195.2,2.659,2.659,0,0,1,.376.7,3.381,3.381,0,0,1-.428,2.849,4.972,4.972,0,0,1-3.79,1.947,16.37,16.37,0,0,1-5.192-.824,15.214,15.214,0,0,0-2.642-.474,7.087,7.087,0,0,0-2.453.221,8.054,8.054,0,0,0-5.192,4.446c-.279.649-.35.987-.389.98s0-.1.039-.273a4.591,4.591,0,0,1,.234-.759,7.38,7.38,0,0,1,1.551-2.453,8.081,8.081,0,0,1,3.674-2.246,7.386,7.386,0,0,1,2.557-.247,15.22,15.22,0,0,1,2.7.48,16.941,16.941,0,0,0,5.1.837,4.751,4.751,0,0,0,3.622-1.772,3.31,3.31,0,0,0,.493-2.674A4.161,4.161,0,0,0,241.378,91.64Z" transform="translate(-162.735 -65.19)"/><path class="d" d="M196.335,347.94,186.508,335.4s-16.044,5.776-18.088,3.635l23.631-19.925,16.109,18.913Z" transform="translate(-143.984 -145.026)"/><path class="f" d="M207.731,335.28a1.3,1.3,0,0,0-.26-1.668,1.22,1.22,0,0,0-1.655.247,1.337,1.337,0,0,0,.286,1.759,1.259,1.259,0,0,0,1.694-.441" transform="translate(-157.035 -150.039)"/><path class="f" d="M192.051,319.11l1.551,1.947-23.235,18.368s-1.441.428-1.947-.415Z" transform="translate(-143.984 -145.026)"/><path class="a" d="M195.854,343.194c-.1-.117.435-.649.694-1.506s.143-1.59.292-1.629.532.766.208,1.791S195.945,343.324,195.854,343.194Z" transform="translate(-153.608 -152.378)"/><path class="a" d="M190.679,344.885c-.123-.091.208-.707.188-1.532s-.338-1.428-.221-1.519.746.5.746,1.519S190.769,344.989,190.679,344.885Z" transform="translate(-151.776 -152.999)"/><path class="a" d="M184.67,343.781c.084-.11.733.331.967,1.214s-.091,1.584-.221,1.532-.078-.649-.286-1.4S184.566,343.917,184.67,343.781Z" transform="translate(-149.681 -153.679)"/><path class="a" d="M199.789,347.722c-.039-.149.649-.435,1.24-1.032s.954-1.227,1.1-1.181,0,.876-.733,1.564S199.815,347.858,199.789,347.722Z" transform="translate(-154.993 -154.29)"/><path class="a" d="M202.9,351.745c-.039-.045.357-.506,1.188-.993a6.733,6.733,0,0,1,1.558-.649,7.583,7.583,0,0,1,.987-.214,2.134,2.134,0,0,1,.591,0,.649.649,0,0,1,.571.571.811.811,0,0,1-.286.688,1.948,1.948,0,0,1-.493.318,5.349,5.349,0,0,1-.948.363,5.523,5.523,0,0,1-1.694.208,2.538,2.538,0,0,1-1.506-.376c0-.084.591.052,1.5,0a6.344,6.344,0,0,0,1.558-.3,5.379,5.379,0,0,0,.857-.363c.305-.143.519-.324.493-.487s0-.084-.143-.11a1.3,1.3,0,0,0-.435,0,8,8,0,0,0-.922.169,8.435,8.435,0,0,0-1.519.526,10.021,10.021,0,0,1-1.356.649Z" transform="translate(-156.075 -155.821)"/><path class="a" d="M202.857,352.306a2.686,2.686,0,0,1,1.3.876,4.991,4.991,0,0,1,.935,1.434,5.342,5.342,0,0,1,.305.974,1.3,1.3,0,0,1-.253,1.233.714.714,0,0,1-.772.084,1.883,1.883,0,0,1-.487-.331,3.378,3.378,0,0,1-.649-.8,3.583,3.583,0,0,1-.526-1.649c-.052-1,.312-1.545.357-1.512a11.531,11.531,0,0,0,0,1.473,3.582,3.582,0,0,0,.565,1.428,3.2,3.2,0,0,0,.6.649c.247.221.513.344.584.234a.863.863,0,0,0,.091-.733,5.241,5.241,0,0,0-.247-.889,5.8,5.8,0,0,0-.766-1.376C203.291,352.7,202.8,352.378,202.857,352.306Z" transform="translate(-156.016 -156.674)"/><path class="d" d="M158.685,360.756l-9.826-12.565s-16.044,5.77-18.088,3.635L154.4,331.9l16.109,18.939Z" transform="translate(-130.77 -149.515)"/><path class="f" d="M170.081,348.1a1.259,1.259,0,0,0-.26-1.661,1.22,1.22,0,0,0-1.655.24,1.343,1.343,0,0,0,.286,1.765,1.3,1.3,0,0,0,1.694-.448" transform="translate(-143.821 -154.541)"/><path class="f" d="M154.4,331.94l1.551,1.947-23.235,18.368s-1.441.428-1.947-.409Z" transform="translate(-130.77 -149.529)"/><path class="a" d="M158.2,356.02c-.1-.117.435-.649.694-1.506s.149-1.59.292-1.636.532.766.208,1.791S158.269,356.144,158.2,356.02Z" transform="translate(-140.394 -156.877)"/><path class="a" d="M153.029,357.705c-.123-.091.214-.707.195-1.525s-.344-1.434-.227-1.525.746.5.746,1.519S153.12,357.809,153.029,357.705Z" transform="translate(-138.562 -157.498)"/><path class="a" d="M146.993,356.61c.084-.117.733.325.967,1.207s-.091,1.59-.221,1.532-.078-.649-.286-1.4S146.908,356.714,146.993,356.61Z" transform="translate(-136.459 -158.181)"/><path class="a" d="M162.149,360.545c-.045-.149.649-.435,1.233-1.025s.954-1.233,1.1-1.181,0,.87-.733,1.558S162.168,360.714,162.149,360.545Z" transform="translate(-141.782 -158.793)"/><path class="a" d="M165.245,364.557c-.039-.045.357-.5,1.188-.993a7.308,7.308,0,0,1,2.531-.876,1.949,1.949,0,0,1,.591,0,.649.649,0,0,1,.571.565.85.85,0,0,1-.279.694,2.3,2.3,0,0,1-.5.312,5.945,5.945,0,0,1-.948.37,5.477,5.477,0,0,1-1.694.2,2.538,2.538,0,0,1-1.506-.376c0-.078.591.058,1.5,0a6.048,6.048,0,0,0,1.558-.3,5.367,5.367,0,0,0,.857-.363c.305-.143.519-.318.493-.487,0-.058,0-.078-.143-.11a1.669,1.669,0,0,0-.428,0,7.871,7.871,0,0,0-.928.169,8.672,8.672,0,0,0-1.512.526,10.276,10.276,0,0,1-1.35.668Z" transform="translate(-142.854 -160.313)"/><path class="a" d="M165.185,365.126a2.676,2.676,0,0,1,1.3.883,4.861,4.861,0,0,1,.935,1.428,5.017,5.017,0,0,1,.305.974,1.3,1.3,0,0,1-.253,1.233.727.727,0,0,1-.772.091,2.273,2.273,0,0,1-.487-.331,3.5,3.5,0,0,1-.649-.8,3.608,3.608,0,0,1-.565-1.616c-.052-1.006.312-1.545.357-1.519a11.538,11.538,0,0,0,0,1.473,3.543,3.543,0,0,0,.565,1.428,3.243,3.243,0,0,0,.6.649c.253.221.513.344.591.24a.9.9,0,0,0,.084-.74,5.417,5.417,0,0,0-.247-.883,5.62,5.62,0,0,0-.766-1.369C165.646,365.522,165.134,365.2,165.185,365.126Z" transform="translate(-142.781 -161.174)"/><path class="j" d="M180.862,53.823c.24-.065,1.3,8.671.746,9.833s-4.381,4.543-5.841,4.543-3.466,2.148-3.894,2.888l-9.593-1.954,2.148-5.29-.26-6.646a7.464,7.464,0,0,1,.935-3.966c.74-1.3,1.791-2.68,2.791-2.272,1.817.74,1.817,1.3,1.817,1.3s1.72-1.564,2.3.253c0,0,2.239-1.655,3.317.493,0,0,2.473-1.486,3.135,1.9l.247,2.311S178.467,54.485,180.862,53.823Z" transform="translate(-141.829 -50.887)"/><path class="k" d="M179,67.769a4.108,4.108,0,0,1,1.025-1.2,9.32,9.32,0,0,1,4.809-2.265l-.136.162c0-1.1-.123-2.051-.143-2.745a3.789,3.789,0,0,1,.058-1.09,5.136,5.136,0,0,1,.149,1.077,24.917,24.917,0,0,1,.26,2.752V64.6h-.136a9.994,9.994,0,0,0-1.447.357,10.579,10.579,0,0,0-3.245,1.772C179.4,67.36,179,67.808,179,67.769Z" transform="translate(-147.697 -54.307)"/><path class="k" d="M169.672,54.934a1.461,1.461,0,0,1,.234.526,2.324,2.324,0,0,1,.039,1.6c-.13.35-.506.571-.584.876a1.1,1.1,0,0,0,.312,1,1.59,1.59,0,0,0,2.278-.1,2.414,2.414,0,0,0,.448-1.3c.039-.461.045-.922.045-1.35a19.387,19.387,0,0,0-.137-2.3,3.816,3.816,0,0,0-.369-1.469c-.182-.305-.37-.409-.35-.435s.227.052.461.363a3.544,3.544,0,0,1,.5,1.512,17.331,17.331,0,0,1,.208,2.324,12.653,12.653,0,0,1-.032,1.389,2.7,2.7,0,0,1-.506,1.46,1.9,1.9,0,0,1-2.778.091,1.369,1.369,0,0,1-.325-1.3,1.35,1.35,0,0,1,.35-.506,1.434,1.434,0,0,0,.286-.383,2.336,2.336,0,0,0,.045-1.467A2.629,2.629,0,0,1,169.672,54.934Z" transform="translate(-144.211 -51.272)"/><path class="k" d="M173.493,59.247a1.67,1.67,0,0,0,.221.35,1.408,1.408,0,0,0,.928.5,1.61,1.61,0,0,0,1.4-.6,3.135,3.135,0,0,0,.707-1.83,8.08,8.08,0,0,0-.461-3.686,10.844,10.844,0,0,0-.649-1.447,3.706,3.706,0,0,1,.837,1.363,7.47,7.47,0,0,1,.578,3.8,3.349,3.349,0,0,1-.818,2.012,1.824,1.824,0,0,1-1.661.649,1.441,1.441,0,0,1-1-.649C173.46,59.416,173.473,59.247,173.493,59.247Z" transform="translate(-145.76 -51.464)"/><path class="k" d="M177.991,59.994a3.6,3.6,0,0,0,.26.273,1.623,1.623,0,0,0,.883.409,1.707,1.707,0,0,0,1.343-.376,2.68,2.68,0,0,0,.883-1.519,9.068,9.068,0,0,0-.305-3.342,6.115,6.115,0,0,1-.195-1.428,6.022,6.022,0,0,1,.428,1.369c.11.435.253.935.363,1.525a4.99,4.99,0,0,1,.039,1.947,2.888,2.888,0,0,1-1.019,1.694,1.9,1.9,0,0,1-1.577.363,1.584,1.584,0,0,1-.941-.552C177.991,60.15,177.946,60,177.991,59.994Z" transform="translate(-147.337 -51.983)"/><path class="k" d="M183.136,60.176a3.787,3.787,0,0,1,.13.409,2.687,2.687,0,0,0,.474,1.006,1.363,1.363,0,0,0,1.376.532,1.46,1.46,0,0,0,.87-1.532,22.38,22.38,0,0,0-.331-3.79,12.674,12.674,0,0,1-.266-1.571,5.38,5.38,0,0,1,.5,1.519,16.821,16.821,0,0,1,.435,3.842,1.746,1.746,0,0,1-1.136,1.837,1.616,1.616,0,0,1-1.642-.694,2.505,2.505,0,0,1-.409-1.123A.948.948,0,0,1,183.136,60.176Z" transform="translate(-149.14 -52.412)"/><path class="j" d="M320.61,198.82s-3.245,4.8-4.076,6.412c-.649,1.3-3.3,6.737-3.414,10.248l6.49,7.542a22.413,22.413,0,0,0,3.407-3.083,2.894,2.894,0,0,0,0-2.051,7.94,7.94,0,0,1,1.369-.948s-.279,1.5.844,1.778,4.874-3.654,4.874-3.654.279-1.681-.753-1.778c0,0,.753-2.343,0-3,0,0,.844-1.869-.188-2.713a7.928,7.928,0,0,0-1.214-2.908c-.746-.753-8.372,1.5-8.372,1.5a42.834,42.834,0,0,0,1.992-5.134A2.993,2.993,0,0,0,320.61,198.82Z" transform="translate(-194.77 -102.808)"/><path class="k" d="M331.219,221.444a2.037,2.037,0,0,1-.214.305,3,3,0,0,0-.545.8,1.538,1.538,0,0,0-.195.6,1.434,1.434,0,0,0,.143.7c.175.454.857.539,1.344.208a14.175,14.175,0,0,0,1.363-1.155l1.129-.974a5.678,5.678,0,0,1,1.09-.837,5.692,5.692,0,0,1-.928,1.012l-1.077,1.032a13.119,13.119,0,0,1-1.4,1.214,1.473,1.473,0,0,1-1.012.227.993.993,0,0,1-.792-.6,1.726,1.726,0,0,1-.136-.85,1.785,1.785,0,0,1,.26-.694,2.428,2.428,0,0,1,.649-.785C331.1,221.5,331.2,221.425,331.219,221.444Z" transform="translate(-200.686 -110.627)"/><path class="k" d="M330.987,211.27a9.794,9.794,0,0,1-1.233,1.356,5.719,5.719,0,0,0-1.214,1.486,1.123,1.123,0,0,0,1.051,1.46,1.908,1.908,0,0,0,.993-.552l.876-.779,1.506-1.3a10,10,0,0,1,1.441-1.136,10.066,10.066,0,0,1-1.3,1.3l-1.46,1.363-.863.792a2.207,2.207,0,0,1-1.188.649A1.428,1.428,0,0,1,328.235,214a2.96,2.96,0,0,1,.649-.9c.227-.247.474-.448.649-.649a10.221,10.221,0,0,1,1.454-1.181Z" transform="translate(-200.045 -107.177)"/><path class="k" d="M329.931,217.584c0,.032-.13.058-.325.195a1.3,1.3,0,0,0-.519.785,1.058,1.058,0,0,0,.6,1.129.974.974,0,0,0,.766.065,2.512,2.512,0,0,0,.785-.454c2.1-1.655,3.537-3.3,3.609-3.245a4.613,4.613,0,0,1-.87,1.136,20.3,20.3,0,0,1-2.531,2.362,2.712,2.712,0,0,1-.9.519,1.31,1.31,0,1,1-1-2.421A.565.565,0,0,1,329.931,217.584Z" transform="translate(-200.249 -108.857)"/><path class="k" d="M327.06,224.275c-.052,0-.091-.409-.344-1.038a3.447,3.447,0,0,0-1.882-1.876l-.714-.273.753-.032h0v.318h-.039v-.312h0l-.13.084a6.789,6.789,0,0,0,.707-1.947,7.554,7.554,0,0,0-.383-4.186c-.4-1.032-.863-1.558-.811-1.6s.143.11.344.35a6.008,6.008,0,0,1,.688,1.149,7.2,7.2,0,0,1,.493,4.349,6.489,6.489,0,0,1-.766,2.038l-.045.078h-.1v-.312h.033v.318h0l.045-.305a3.44,3.44,0,0,1,1.947,2.1,3.245,3.245,0,0,1,.175.811.759.759,0,0,1,.032.279Z" transform="translate(-198.63 -107.928)"/><path class="h" d="M191.026,293.58l-.941,8.71a54.687,54.687,0,0,0,.039,12.448l3.8,32.25-12.163-14.434S170.082,339.577,169.9,346.3c0,0,22.956,26.065,28.765,29.732s20.769,0,21.418-11.462c0,0,1.376,10.547,14.675,10.242S248.212,342.7,248.212,342.7L242.4,294.859Z" transform="translate(-144.503 -136.066)"/><path class="d" d="M247.233,380.779a2,2,0,0,1,0-.448v-1.266c.039-1.136.1-2.719.162-4.654.162-3.959.4-9.372.649-15.343.143-3,.279-5.841.4-8.437a42.726,42.726,0,0,1,.591-6.893,7.055,7.055,0,0,1,2.3-4.017,4.1,4.1,0,0,1,1.09-.649,1.521,1.521,0,0,1,.312-.11c.071,0,.11-.032.11,0a5.958,5.958,0,0,0-1.428.9,7.088,7.088,0,0,0-2.148,3.972,47.672,47.672,0,0,0-.513,6.86c-.13,2.6-.24,5.452-.376,8.437-.286,5.971-.552,11.377-.746,15.337-.11,1.947-.195,3.511-.26,4.647-.039.526-.071.941-.091,1.3A3.6,3.6,0,0,1,247.233,380.779Z" transform="translate(-171.641 -151.988)"/><path class="d" d="M252.72,294.65a3.492,3.492,0,0,1,.182.779c.091.506.208,1.24.337,2.148.26,1.824.552,4.348.759,7.139s.279,5.342.286,7.178v2.181a3.761,3.761,0,0,1-.058.8,3.634,3.634,0,0,1-.071-.8c0-.584-.052-1.3-.084-2.174-.065-1.83-.182-4.368-.383-7.139s-.461-5.316-.649-7.139c-.1-.857-.175-1.584-.234-2.161a4.32,4.32,0,0,1-.084-.811Z" transform="translate(-173.571 -136.441)"/><path class="d" d="M244.934,297.721a.609.609,0,0,1,.337-.162,1.35,1.35,0,0,1,1.012.214,1.39,1.39,0,0,1,.493.558,1.3,1.3,0,0,1,.1.857,1.6,1.6,0,0,1-1.408,1.246A1.681,1.681,0,0,1,243.9,299.4a1.538,1.538,0,0,1,.195-1.525,1.59,1.59,0,0,1,.824-.617c.234-.071.37-.058.37-.039a2.207,2.207,0,0,0-1,.785,1.3,1.3,0,0,0-.1,1.3,1.4,1.4,0,0,0,1.266.818,1.3,1.3,0,0,0,1.129-.98,1.084,1.084,0,0,0-.428-1.142,1.356,1.356,0,0,0-.863-.286A.768.768,0,0,0,244.934,297.721Z" transform="translate(-170.432 -137.338)"/><path class="d" d="M206.733,375.7c.058,0-.2.98-.428,2.6a26.805,26.805,0,0,0-.156,6.244,26.35,26.35,0,0,0,1.35,6.1c.532,1.512.967,2.414.915,2.44a3.348,3.348,0,0,1-.357-.61,17.248,17.248,0,0,1-.785-1.746,23.223,23.223,0,0,1-1.207-12.468,17.292,17.292,0,0,1,.435-1.869,2.953,2.953,0,0,1,.234-.688Z" transform="translate(-157.07 -164.887)"/><path class="d" d="M205.659,361.537a6.676,6.676,0,0,0,.649-.286,3.115,3.115,0,0,0,1.194-1.5,8.723,8.723,0,0,0,.578-3.044c.058-1.22.123-2.6.13-4.154.039-3.076-.091-6.743-.448-10.793s-.941-8.5-1.707-13.13-1.571-9.086-2.077-13.1a71.9,71.9,0,0,1-.681-10.813,43.654,43.654,0,0,1,.707-7.269c.143-.85.337-1.493.435-1.947.052-.2.091-.363.123-.5a.713.713,0,0,1,.058-.169.879.879,0,0,1,0,.182,3.534,3.534,0,0,1-.091.506c-.078.448-.247,1.09-.37,1.947a47.206,47.206,0,0,0-.6,7.25,75.073,75.073,0,0,0,.759,10.767c.519,4.037,1.337,8.437,2.1,13.084s1.343,9.086,1.681,13.156a104.1,104.1,0,0,1,.376,10.832c0,1.538-.1,2.934-.182,4.16a8.859,8.859,0,0,1-.649,3.083,3.115,3.115,0,0,1-1.3,1.512A1.844,1.844,0,0,1,205.659,361.537Z" transform="translate(-156.223 -136.504)"/><path class="d" d="M181.93,358.15a4.872,4.872,0,0,1,.733.591c.448.4,1.09.987,1.85,1.752a48.029,48.029,0,0,1,5.393,6.458c.948,1.343,1.785,2.668,2.531,3.894a20.033,20.033,0,0,0,2.168,3.05,6.316,6.316,0,0,0,1.992,1.5c.545.234.876.292.87.324s-.084,0-.247,0a3.839,3.839,0,0,1-.649-.175,5.919,5.919,0,0,1-2.109-1.46,17.812,17.812,0,0,1-2.259-3.05c-.759-1.2-1.6-2.512-2.551-3.849a57.013,57.013,0,0,0-5.283-6.49c-.733-.779-1.35-1.4-1.772-1.824a5.034,5.034,0,0,1-.668-.72Z" transform="translate(-148.726 -158.728)"/><path class="g" d="M186.23,129.3s-7.49-2.81-10.923-5.614S162.086,105.2,162.086,105.2l4.946-28.246L154.973,71s-14.006,33.613-12.448,39.85S169.4,151.785,169.4,151.785l6.218,24.663,6.555,22.151s-2.81,1.253-1.246,5.621,3.57,6.263,1.558,7.178a2.491,2.491,0,0,0-1.11,4.089l52.662,1.3s-6.743-42.752-5.582-50.559c1.181-7.964.039-21.541.039-21.541L216.5,141.03Z" transform="translate(-134.853 -57.946)"/><path class="g" d="M274.141,184.48c5.465,2.512,11.28,38.124,11.28,38.124l12.753-13.565,7.788,9.82s-11.033,19.348-13.545,21.321c-2.135,1.662-8.574,6.691-12.909,4.972s-7.048-32.523-7.048-32.523Z" transform="translate(-180.499 -97.775)"/><path class="g" d="M218.557,163.6s-.649-4.16.727-3.537c.058,0,19.341,6.088,19.2,7.431-.11,1.136.136,4.738.136,4.738H225.93Z" transform="translate(-161.527 -89.184)"/><path class="a" d="M196.207,193.947a7.465,7.465,0,0,1,0-1.032V191.7c0-.474,0-1.006-.032-1.6a37.64,37.64,0,0,0-.4-4.141A39.532,39.532,0,0,0,194.656,181a39.964,39.964,0,0,0-1.785-4.77,39.3,39.3,0,0,0-1.947-3.687c-.292-.513-.6-.954-.85-1.356s-.48-.733-.649-1.006a5.788,5.788,0,0,1-.565-.87,6.064,6.064,0,0,1,.649.792c.208.26.461.584.72.98s.591.824.9,1.337a34.792,34.792,0,0,1,4.965,13.5,34.194,34.194,0,0,1,.337,4.18v1.61a6.8,6.8,0,0,1-.065,1.214A5.4,5.4,0,0,1,196.207,193.947Z" transform="translate(-151.158 -92.45)"/><path class="a" d="M211.327,274.291a5.939,5.939,0,0,1-1.467-.649,17.167,17.167,0,0,1-5.789-5.043,5.764,5.764,0,0,1-.831-1.369,35.759,35.759,0,0,0,3.661,3.959A36.579,36.579,0,0,0,211.327,274.291Z" transform="translate(-156.205 -126.817)"/><path class="a" d="M228.529,286.625a5.051,5.051,0,0,1-.844.305,20.558,20.558,0,0,1-2.375.61,28.615,28.615,0,0,1-3.6.519,32.647,32.647,0,0,1-4.452,0,33.146,33.146,0,0,1-4.413-.649,29.431,29.431,0,0,1-3.5-.993,21.025,21.025,0,0,1-2.265-.922,4.713,4.713,0,0,1-.8-.415,4.542,4.542,0,0,1,.85.3c.532.214,1.3.5,2.291.811a32.448,32.448,0,0,0,3.485.915,34.972,34.972,0,0,0,4.374.591,34.382,34.382,0,0,0,4.407,0,32.786,32.786,0,0,0,3.576-.441c1.012-.182,1.824-.357,2.382-.5a5.09,5.09,0,0,1,.883-.13Z" transform="translate(-157.272 -133.082)"/><path class="a" d="M258.44,237.45a1.866,1.866,0,0,1,.052.318c0,.2.065.513.078.909a19.6,19.6,0,0,1-.1,3.355A21.36,21.36,0,0,1,245.9,259.186a19.432,19.432,0,0,1-3.174,1.116c-.383.1-.688.156-.889.195a1.157,1.157,0,0,1-.318.045s.422-.136,1.175-.37a22.983,22.983,0,0,0,3.1-1.2,22.236,22.236,0,0,0,12.643-20.3A9.928,9.928,0,0,1,258.44,237.45Z" transform="translate(-169.64 -116.366)"/><path class="a" d="M274.949,202.5a3.116,3.116,0,0,1,0,.565l-.078,1.623c-.045.7-.071,1.564-.084,2.564s-.045,2.135,0,3.394c0,2.518.143,5.51.344,8.827s.571,6.964,1,10.78c.876,7.639,1.882,14.525,2.544,19.516.331,2.5.591,4.543.753,5.919.078.681.136,1.214.182,1.616a3.074,3.074,0,0,1,.039.565,3.937,3.937,0,0,1-.11-.558c-.058-.4-.136-.928-.24-1.6-.208-1.428-.5-3.433-.863-5.9-.72-4.991-1.759-11.871-2.642-19.516-.428-3.823-.759-7.47-.974-10.793s-.305-6.335-.273-8.853c0-1.259.032-2.4.078-3.4s.071-1.863.143-2.564.1-1.22.136-1.623a3.773,3.773,0,0,1,.045-.558Z" transform="translate(-181.229 -104.099)"/><path class="a" d="M238.743,172.406a3.441,3.441,0,0,1-.811.24,11.283,11.283,0,0,1-2.291.26,14.325,14.325,0,0,1-3.407-.37,23.365,23.365,0,0,1-3.985-1.3,38.088,38.088,0,0,1-6.614-3.745c-.8-.552-1.434-1.006-1.876-1.331a4.037,4.037,0,0,1-.649-.532,4.486,4.486,0,0,1,.733.422l1.947,1.24a44.866,44.866,0,0,0,6.607,3.628,26.026,26.026,0,0,0,3.894,1.3,15.655,15.655,0,0,0,3.342.428,23.456,23.456,0,0,0,3.109-.24Z" transform="translate(-161.775 -91.159)"/><path class="a" d="M289.65,252.362a35.388,35.388,0,0,1,.753-4.894,36.144,36.144,0,0,1,1.084-4.829,35.7,35.7,0,0,1-.753,4.894A36.753,36.753,0,0,1,289.65,252.362Z" transform="translate(-186.532 -118.187)"/><g class="e" transform="translate(64.32 130.239)"><path d="M238.392,265.22a26.571,26.571,0,0,1-5.465,1.142,3.3,3.3,0,0,1-2.356-.4,2.1,2.1,0,0,1-.532-2.388,3.459,3.459,0,0,1,1.843-1.778c2.849-1.3,6.49.091,9.164-1.59,1.3-.844,2.109-2.3,3.05-3.57a14.889,14.889,0,0,1,6.322-4.894,1.59,1.59,0,0,1,1.11-.143c.8.305.649,1.493.266,2.265-2.7,5.724-7.2,10.118-13.4,11.358" transform="translate(-229.872 -251.555)"/></g><g class="e" transform="translate(93.519 108.331)"><path d="M274.912,217.8c3.894,9.482,2.512,20.717,7.516,29.661.948,1.7,2.142,3.355,2.362,5.283s-1.045,4.219-2.986,4.206a3.557,3.557,0,0,1-3.012-1.811,10.825,10.825,0,0,1-.649-3.641c-.844-7.321-2.057-14.655-2.732-22-.357-3.894-.24-7.788-.552-11.683" transform="translate(-274.86 -217.8)"/></g><g class="e" transform="translate(58.121 75.049)"><path d="M220.32,166.52a38.247,38.247,0,0,0,10.436,8.528,10.431,10.431,0,0,0,3.083,1.259,4.342,4.342,0,0,0,3.245-.532,2.051,2.051,0,0,0,.889-1.136,1.2,1.2,0,0,0-.441-1.3,2.038,2.038,0,0,0-.987-.214c-5.841-.318-11.488-3.381-16.226-6.607" transform="translate(-220.32 -166.52)"/></g><path class="a" d="M227.951,168.44a5.244,5.244,0,0,1,.2-5.38,15.606,15.606,0,0,0-.506,2.674,15.612,15.612,0,0,0,.305,2.706Z" transform="translate(-164.651 -90.257)"/><path class="a" d="M238.341,172.294c-.1,0,.2-1.3.162-2.934s-.389-2.888-.292-2.921a7.873,7.873,0,0,1,.13,5.841Z" transform="translate(-168.473 -91.443)"/><path class="a" d="M245.553,174.631c-.091-.039.305-1.025.376-2.3s-.188-2.311-.091-2.336a3.972,3.972,0,0,1,.428,2.356,3.894,3.894,0,0,1-.714,2.285Z" transform="translate(-171.051 -92.689)"/><path class="a" d="M221.112,165.13a2.927,2.927,0,0,1-.532-2.207,2.849,2.849,0,0,1,.539-1.564.688.688,0,0,1,.467-.26c.13,0,.195.039.188.058a.651.651,0,0,0-.467.35,3.459,3.459,0,0,0-.389,1.441A10.332,10.332,0,0,0,221.112,165.13Z" transform="translate(-162.277 -89.569)"/><path class="a" d="M164.56,125.745a6.776,6.776,0,0,1,2.635-1.512,6.886,6.886,0,0,1,2.986-.565c0,.1-1.3.305-2.869.876S164.618,125.829,164.56,125.745Z" transform="translate(-142.629 -76.43)"/><path class="i" d="M244.41,218.849l-.545-.13-1.564-.383c-.649-.175-1.506-.383-2.473-.6s-2.064-.487-3.291-.727c-2.44-.532-5.361-1.071-8.626-1.59s-6.86-.961-10.657-1.3-7.425-.5-10.722-.578-6.276,0-8.775.058c-1.246,0-2.375.1-3.362.149s-1.843.1-2.544.156l-1.6.11h-.558s3.07-.338,8.067-.532c2.492-.11,5.471-.143,8.775-.091s6.932.24,10.735.565,7.4.8,10.664,1.3,6.185,1.077,8.626,1.616C241.47,217.979,244.41,218.849,244.41,218.849Z" transform="translate(-151.449 -107.915)"/><path class="i" d="M242.391,250.725a2.534,2.534,0,0,1-.441-.058l-1.246-.175c-.545-.091-1.214-.162-1.986-.253s-1.655-.188-2.629-.273c-3.894-.37-9.327-.6-15.317-.584s-11.4.273-15.317.532c-1.947.123-3.544.247-4.634.337l-1.259.1h-.441l.435-.052,1.259-.13c1.09-.1,2.674-.247,4.634-.383,3.894-.279,9.333-.545,15.324-.571a146.787,146.787,0,0,1,15.324.649C240,250.283,242.391,250.725,242.391,250.725Z" transform="translate(-154.759 -120.496)"/><path class="i" d="M272.834,257.141a2.223,2.223,0,0,1-.363,0l-.98-.058-3.245-.253L265,256.537l-.974-.1-.357-.058a1.743,1.743,0,0,1,.363,0l.974.065,3.245.253,3.245.292.974.1A1.435,1.435,0,0,1,272.834,257.141Z" transform="translate(-177.414 -123.004)"/><path class="i" d="M254.045,290.66l-.526-.1c-.344-.065-.844-.188-1.5-.286a37.554,37.554,0,0,0-5.6-.5,79.221,79.221,0,0,0-8.327.363c-3.128.273-6.562.649-10.183.844a123.114,123.114,0,0,1-18.562-.409c-4.731-.48-7.626-1.019-7.626-1.019l.532.065,1.512.214c1.3.175,3.245.422,5.595.649a126.168,126.168,0,0,0,18.536.37c3.622-.182,7.055-.565,10.19-.831a75.175,75.175,0,0,1,8.34-.331,35.759,35.759,0,0,1,5.6.539c.649.1,1.155.234,1.5.312Z" transform="translate(-155.671 -134.651)"/><path class="i" d="M249.3,189.393l-.578-.162-1.642-.487-6.042-1.8c-5.108-1.506-12.182-3.531-20.023-5.653s-14.973-3.927-20.12-5.192l-6.12-1.5-1.668-.4-.578-.149.584.123,1.668.376,6.14,1.454c5.192,1.253,12.332,3.044,20.159,5.192s14.928,4.16,20.01,5.692l6.03,1.837,1.636.513C249.086,189.322,249.3,189.393,249.3,189.393Z" transform="translate(-152.446 -94.114)"/><path class="i" d="M191.505,181.66l-.117.039-.331.1-1.227.325-4.069,1.058c-.792.208-1.558.376-2.239.571a5.257,5.257,0,0,0-1.681.785,3.044,3.044,0,0,0-1.051,1.3,1.422,1.422,0,0,1,.162-.441,3,3,0,0,1,.831-.967,5.3,5.3,0,0,1,1.707-.824c.681-.208,1.441-.383,2.239-.584l4.076-.993,1.24-.286.338-.071Z" transform="translate(-148.326 -96.785)"/><path class="i" d="M177.916,147.71H177.7l-.6.052a18.827,18.827,0,0,0-2.207.247,33.8,33.8,0,0,0-13.63,5.1,20.2,20.2,0,0,0-1.83,1.3l-.487.357a.766.766,0,0,1-.175.117,24.23,24.23,0,0,1,2.44-1.817,32.127,32.127,0,0,1,13.662-5.114,25.314,25.314,0,0,1,3.044-.24Z" transform="translate(-140.597 -84.869)"/><path class="i" d="M164.324,116.1a.649.649,0,0,1-.162-.1l-.454-.3c-.383-.273-.967-.649-1.694-1.064a24.437,24.437,0,0,0-6.081-2.492,23.2,23.2,0,0,0-6.536-.688,14.181,14.181,0,0,0-2,.149l-.539.065h-.188a18.447,18.447,0,0,1,2.719-.318,22.333,22.333,0,0,1,6.575.649,23.326,23.326,0,0,1,6.094,2.551A20.2,20.2,0,0,1,164.324,116.1Z" transform="translate(-136.35 -72.1)"/><path class="i" d="M170.856,85.651s-.039,0-.1-.091l-.279-.292c-.234-.253-.6-.6-1.064-1.019a18.251,18.251,0,0,0-4.011-2.726,18.471,18.471,0,0,0-4.6-1.564c-.61-.117-1.11-.195-1.454-.227l-.4-.052h.409a13.2,13.2,0,0,1,1.467.195,17.27,17.27,0,0,1,4.634,1.532,17.484,17.484,0,0,1,4.017,2.778,12.476,12.476,0,0,1,1.038,1.058l.26.305C170.836,85.612,170.862,85.651,170.856,85.651Z" transform="translate(-140.611 -60.993)"/><path class="i" d="M285.469,233.509a2.368,2.368,0,0,1-.383.045,8.147,8.147,0,0,0-1.032.117,14.57,14.57,0,0,0-6.322,2.5,7.065,7.065,0,0,0-.831.649,2.321,2.321,0,0,1-.312.234,1.594,1.594,0,0,1,.279-.273,9.091,9.091,0,0,1,.811-.649,13.63,13.63,0,0,1,3.018-1.668,13.266,13.266,0,0,1,3.342-.85,9.22,9.22,0,0,1,1.045-.071A1.6,1.6,0,0,1,285.469,233.509Z" transform="translate(-181.949 -114.982)"/><path class="i" d="M307.76,249.047a10.954,10.954,0,0,1-2.1-1.058,13.772,13.772,0,0,1-2.025-1.571,15.749,15.749,0,0,1-2.031-2.395,14.93,14.93,0,0,1-1.46-2.778,13.448,13.448,0,0,1-.7-2.466,10.762,10.762,0,0,1-.2-2.349.7.7,0,0,1,0,.162,2.359,2.359,0,0,0,.032.467c.032.169.032.454.078.74a9.426,9.426,0,0,0,.156.961,14.055,14.055,0,0,0,.727,2.44,15.724,15.724,0,0,0,1.454,2.752,16.165,16.165,0,0,0,2.005,2.375,14.586,14.586,0,0,0,1.993,1.577,8.435,8.435,0,0,0,.837.506,5.035,5.035,0,0,0,.649.344l.415.208C307.715,249.015,307.767,249.041,307.76,249.047Z" transform="translate(-189.896 -116.008)"/></g><g transform="translate(245.472 5252.062)"><path class="g" d="M450.62,171.11l.208.649a.96.96,0,0,0,.649.649l.649.208-.649.234a.941.941,0,0,0-.591.584l-.24.688-.266-.72a.954.954,0,0,0-.591-.571l-.649-.214.649-.214a.948.948,0,0,0,.578-.558Z" transform="translate(-353.804 -140.534)"/><path class="g" d="M417.293,124l.214.649a.935.935,0,0,0,.649.649l.649.208-.649.234a.961.961,0,0,0-.591.584l-.24.688-.26-.714a.961.961,0,0,0-.6-.578l-.649-.214.649-.214a.935.935,0,0,0,.578-.552Z" transform="translate(-342.11 -124)"/><path class="g" d="M303.73,328l.208.649a.935.935,0,0,0,.649.649l.649.208-.649.234a.961.961,0,0,0-.591.584l-.234.688-.266-.714a.961.961,0,0,0-.6-.578l-.649-.214.649-.214a.954.954,0,0,0,.584-.558Z" transform="translate(-302.25 -195.598)"/><path class="g" d="M417.293,295.09l.214.649a.935.935,0,0,0,.649.649l.649.208-.649.234a.96.96,0,0,0-.591.584l-.24.688-.26-.714a.961.961,0,0,0-.6-.578l-.649-.214.649-.214a.934.934,0,0,0,.578-.552Z" transform="translate(-342.11 -184.048)"/><path class="g" d="M438.645,130.53l.857,2.745a3.894,3.894,0,0,0,2.557,2.6l2.758.857-2.771.948a3.894,3.894,0,0,0-2.427,2.408l-.974,2.817-1.116-2.979a3.894,3.894,0,0,0-2.434-2.349l-2.655-.9,2.6-.883a3.894,3.894,0,0,0,2.375-2.278Z" transform="translate(-347.943 -126.292)"/><path class="g" d="M340.922,374.21l.85,2.752a3.894,3.894,0,0,0,2.564,2.564l2.752.857-2.765.941a3.894,3.894,0,0,0-2.427,2.414l-.974,2.817-1.09-2.94a3.894,3.894,0,0,0-2.427-2.356l-2.655-.876,2.6-.883a3.894,3.894,0,0,0,2.382-2.278Z" transform="translate(-313.657 -211.816)"/><path class="g" d="M325.391,169.43l.35,1.136a1.623,1.623,0,0,0,1.058,1.058l1.136.35-1.142.389a1.623,1.623,0,0,0-1,1l-.4,1.162-.448-1.214a1.629,1.629,0,0,0-1.006-.974l-1.1-.363,1.084-.363a1.616,1.616,0,0,0,.98-.941Z" transform="translate(-309.476 -139.945)"/><path class="g" d="M371.48,365.48l.35,1.136a1.6,1.6,0,0,0,1.058,1.051l1.136.357-1.162.389a1.609,1.609,0,0,0-1,1l-.4,1.162-.448-1.22a1.616,1.616,0,0,0-1.006-.967l-1.1-.363,1.084-.363a1.616,1.616,0,0,0,.98-.941Z" transform="translate(-325.646 -208.753)"/></g><g transform="translate(258.451 5282.683)"><path class="g" d="M341.662,257.55c0,.649-15.992,54.311-15.992,54.311l13.746-6.146,7.529,16.6,9.677-63.923Z" transform="translate(-323.449 -201.493)"/><path class="g" d="M368.34,258.5l3.258,61.547,11.975-16.881,15.466,11.066L383.573,253.78Z" transform="translate(-338.425 -200.17)"/><g class="l" transform="translate(17.175 54.337)"><path d="M348.71,260.689a5.906,5.906,0,0,0,5.27,4.134c1.408.058,2.96-.376,4.147.389s1.688,2.551,3.083,2.739c1.636.234,2.6-1.947,4.141-2.466,2.109-.688,4.323,1.856,6.4,1.071,1.337-.506,1.947-2.226,3.362-2.6a4.666,4.666,0,0,1,1.869.065,3.667,3.667,0,0,0,2.116-.4l-.759-2.966-1.3-5.757h-27.8Z" transform="translate(-348.71 -254.9)"/></g><path class="g" d="M373.76,183.4a18.3,18.3,0,0,1,4.017.8,1.689,1.689,0,0,1,.123-.649q1.765-4.725,3.518-9.43l.084-.078a3.031,3.031,0,0,1-1.162-1.168,3.667,3.667,0,0,0-3.161-1.687c-.649,2.674-1.421,6.335-1.992,8.613a10.28,10.28,0,0,1-1.428,3.6Z" transform="translate(-340.327 -171.183)"/><path class="g" d="M339.78,231.907a18.556,18.556,0,0,1-2.09-4.167,1.519,1.519,0,0,1-.649.376l-.279.1a3.893,3.893,0,0,1-.545.292,17.046,17.046,0,0,1-1.8.578l-2.22.617c-1.577.428-3.012.8-4.05,1.045a8.981,8.981,0,0,1-1.7.344,8.659,8.659,0,0,1,1.636-.571l1.415-.415-3.245.72c-.422,1.843-1.726,3.816-.578,5.238a1.947,1.947,0,0,0,.422.376c4.134-1.532,9.437-3.511,12.909-4.426a2.3,2.3,0,0,1,.779-.1Z" transform="translate(-323.287 -191.031)"/><path class="g" d="M364.055,182.993v.98a18.543,18.543,0,0,1,4.543-.591q0-.127,0-.253l.214-3.414v-.7c.045-2.453.143-4.485.227-4.881-.688-.811-1.344-2.512-2.732-2.693a2.424,2.424,0,0,0-2.233.467C364.127,175.321,364.016,179.637,364.055,182.993Z" transform="translate(-336.918 -171.252)"/><path class="g" d="M334.917,207.051q.428.169.857.312c-1.214-.48-2.46-1-3.654-1.512C332.944,206.233,333.885,206.648,334.917,207.051Z" transform="translate(-325.712 -183.348)"/><path class="g" d="M335.858,212.148a18.443,18.443,0,0,1,.74-4.212c-.363-.11-.74-.234-1.123-.363a19.106,19.106,0,0,1-3.894-1.077,36.637,36.637,0,0,1-4.121-1.947,13.444,13.444,0,0,1-1.46-.837l-.779-.331c-.506.824-1.3,1.5-1.85,2.324a2.98,2.98,0,0,0-.461,1.564c4.225,1.155,9.327,2.68,12.877,4.8Z" transform="translate(-322.48 -182.481)"/><path class="g" d="M338.792,201.512a18.177,18.177,0,0,1,1.947-3.459l-.279-.182a32.906,32.906,0,0,1-5.841-4.952l-.045-.052c-.792-.649-1.545-1.343-2.213-1.947a1.947,1.947,0,0,1-.448.759c-1.006,1.006-2.895.357-4,1.246a2.005,2.005,0,0,0-.707,1.3,110.941,110.941,0,0,1,10.235,6.438C337.967,200.993,338.441,201.285,338.792,201.512Z" transform="translate(-323.986 -178.108)"/><path class="g" d="M344.534,191.778c.454.649.857,1.207,1.155,1.649a18.491,18.491,0,0,1,3.446-3.154c-.389-.493-.87-1.136-1.4-1.85-.474-.545-1.012-1.194-1.577-1.9-.831-1.045-1.545-2.012-2.038-2.732a5.575,5.575,0,0,1-.733-1.207,4.068,4.068,0,0,1,.48.513c-.454-.649-.883-1.2-1.259-1.694a3.46,3.46,0,0,1-1.246,1.473,8.959,8.959,0,0,1-2.83.649,69.726,69.726,0,0,1,5.192,7.087Z" transform="translate(-327.962 -174.767)"/><path class="g" d="M353.955,187.338a18.086,18.086,0,0,1,3.362-1.577c-.045-.136-.084-.279-.13-.441-.253-.876-.558-2.1-.824-3.466s-.441-2.6-.539-3.518a11.122,11.122,0,0,1-.091-1.408l-.039-.253a3.291,3.291,0,0,1-2.414-.785c-1.071-.961-2.888-.837-4.29-.234,1.48,3.563,3.693,8.437,4.913,11.559C353.923,187.254,353.936,187.293,353.955,187.338Z" transform="translate(-331.633 -172.586)"/><path class="g" d="M349.285,200.192l-.045-.052.039.065Z" transform="translate(-331.721 -181.344)"/><path class="g" d="M336.327,223.534a18.763,18.763,0,0,1-.707-4.465h-.1c-1.3.071-2.817.052-4.413,0h-1.519c-1.545,0-2.94-.123-3.946-.221-.461-.045-.831-.091-1.1-.13l-.987-.058c-.221.337-.441.649-.649,1.025a3.468,3.468,0,0,0-.389,3.245l.058.084q6.445.156,12.877.376a2.3,2.3,0,0,1,.883.143Z" transform="translate(-322.247 -187.844)"/><path class="g" d="M346.425,238.985l.273-.175a18.693,18.693,0,0,1-3.245-3.33,1.558,1.558,0,0,1-.506.545,1.207,1.207,0,0,1-.363.5c-.831.649-2,1.369-3.3,2.226s-2.486,1.584-3.355,2.109a7.791,7.791,0,0,1-1.441.792,8.12,8.12,0,0,1,1.3-.993c.48-.324,1.064-.727,1.72-1.155-1.259.759-2.525,1.519-3.661,2.213.214.961-.123,2.077.318,2.979a2.882,2.882,0,0,0,2.362,1.35l7.723-5.737A9.5,9.5,0,0,1,346.425,238.985Z" transform="translate(-326.316 -193.747)"/><path class="g" d="M407.57,245.48l1.058.831a.645.645,0,0,1,.065-.071l-.344-.227Z" transform="translate(-352.193 -197.257)"/><path class="g" d="M390.934,236.93a18.562,18.562,0,0,1-3.3,2.992,10.961,10.961,0,0,1,.954,1.116,1.094,1.094,0,0,1,.1.078,6.919,6.919,0,0,1,1.3,1.791l1.337,2.278.039.078c.87,1.447,1.739,2.953,2.505,4.264a2.13,2.13,0,0,1,.383-.578c1.35-1.408,4.089-.039,5.517-1.357a2.194,2.194,0,0,0,.363-.454c-2.629-2.862-6.133-6.873-8.366-9.216a6.194,6.194,0,0,1-.831-.993Zm1.032,3.076a23.021,23.021,0,0,1,1.61,2.317,24.422,24.422,0,0,1,1.6,2.324,8.022,8.022,0,0,1-1.882-2.129A8.307,8.307,0,0,1,391.966,240.006Z" transform="translate(-345.195 -194.256)"/><path class="g" d="M371.975,175.775a.3.3,0,0,1-.045-.045,2.972,2.972,0,0,1,0,.318Z" transform="translate(-339.685 -172.777)"/><path class="g" d="M399.019,221.59a18.371,18.371,0,0,1-.889,3.894l.506.247,1.791.935a11.851,11.851,0,0,1-1.739-1.077,54.888,54.888,0,0,1,5.484,2.752c1.3.707,2.531,1.376,3.459,1.9l.6.253a2.627,2.627,0,0,1,.13-.9c.506-1.46,2.375-2.226,3.018-3.511C407.463,224.653,402.427,222.869,399.019,221.59Z" transform="translate(-348.88 -188.872)"/><path class="g" d="M394.06,233.574c.357.279.811.649,1.3,1l.175.123c1.071.72,2.525,1.733,4.121,2.869s3.031,2.187,4.063,2.953l.389.3c.649-.467,1.428-.759,2.1-1.162-3.336-2.921-7.276-6.958-10.274-9.255A18.82,18.82,0,0,1,394.06,233.574Z" transform="translate(-347.452 -191.965)"/><path class="g" d="M355.4,244.337a3.293,3.293,0,0,0-.2-.37,18.35,18.35,0,0,1-3.381-1.707l-.091.117c-.24.292-.513.6-.811.935-.532.649-1.259,1.486-2.1,2.388s-1.733,1.785-2.356,2.375a5.38,5.38,0,0,1-1.064.889,1.53,1.53,0,0,1,.208-.3c-.532.532-1.032,1.051-1.486,1.538.714,1.486,0,3.654,1.22,4.855a2.1,2.1,0,0,0,.759.487c2.6-3.485,6.133-8,8.652-10.793A1.078,1.078,0,0,1,355.4,244.337Z" transform="translate(-329.924 -196.127)"/><path class="g" d="M372.545,245.262a1.538,1.538,0,0,1,.292.85,4,4,0,0,1,.13,1.986c-.1.785-.208,1.629-.318,2.512-.156,1.175-.312,2.272-.448,3.245-.1,1.24-.2,2.46-.312,3.563a8.7,8.7,0,0,0,2.246,1.525c1.246.4,2.356-.2,3.459-1.006-.253-4.16-.474-9.346-.305-13.045l.195.454c-.058-.214-.078-.337-.058-.344a6.743,6.743,0,0,1,.617,1.473c.337.928.766,2.226,1.194,3.667q.175.6.331,1.168c.454,1.538.85,3.089,1.149,4.543a3.42,3.42,0,0,1,1.46-.3c1.142.032,2.349.714,3.427.857a85.9,85.9,0,0,1-4.543-13.772,18.406,18.406,0,0,1-8.515,2.622Zm2.356,7.055a6.536,6.536,0,0,1-.143-1.817,6.937,6.937,0,0,1,.032-1.824A6.762,6.762,0,0,1,374.9,252.317Z" transform="translate(-339.671 -196.26)"/><path class="g" d="M364.9,246.158a.336.336,0,0,1,.071-.065,18.218,18.218,0,0,1-5.757-1.123c.045.058.1.123.156.208a1.125,1.125,0,0,0,.065.123c.376.1.493.649.448,1.058a4.889,4.889,0,0,1-.1.6,5.472,5.472,0,0,1-.383,1.681,24.818,24.818,0,0,1-1.064,2.337,42.888,42.888,0,0,1-2.285,4.037c-.383.6-.694,1.038-.889,1.3a2.808,2.808,0,0,1,.688.169c1.811.707,2.791,3.336,4.718,3.109l.175-.032c1.129-3.6,2.259-8.58,3.388-11.923A3.79,3.79,0,0,1,364.9,246.158Z" transform="translate(-333.799 -197.078)"/><path class="g" d="M392.7,196.028q.325-.292.649-.565a3.419,3.419,0,0,1,.857-.844c.513-.363,1.084-.72,1.694-1.09,1.214-.74,2.343-1.35,3.18-1.765.571-.279.993-.467,1.214-.545l1.155-.681h0c-1.142-1.791.338-4.511-1.006-6.159a2.043,2.043,0,0,0-.2-.208c-3.381,2.505-7.743,5.348-11.54,7.594a18.471,18.471,0,0,1,4,4.264Zm.811-7.256a19.884,19.884,0,0,1,2.408-1.493,8.75,8.75,0,0,1-2.226,1.778,9.015,9.015,0,0,1-2.538,1.3,19.684,19.684,0,0,1,2.356-1.584Z" transform="translate(-345.57 -175.739)"/><path class="g" d="M399.32,213.353a18.768,18.768,0,0,1,.24,2.979c0,.188,0,.37,0,.552h.305c.545,0,1.084.052,1.629.091h.383c1.116,0,2.655.1,4.355.227,1.59.123,3.031.266,4.115.4.273-1.227,1.785-1.837,2.233-3.024a2.512,2.512,0,0,0-.13-1.863c-3.966.221-9.327.545-12.63.649Z" transform="translate(-349.298 -185.756)"/><path class="g" d="M388.558,177.53l-6.581,8.275a2.321,2.321,0,0,1-.487.454,18.172,18.172,0,0,1,4.082,2.2l.091-.117h0a1.948,1.948,0,0,1,.4-.649c.292-.337.649-.733,1.025-1.162,1.947-2.337,4.167-4.7,6.023-6.659a2.809,2.809,0,0,1-1.012-.649c-.818-.824-.993-2.2-1.947-2.83a2.239,2.239,0,0,0-1.019-.325.287.287,0,0,1,0,.071A1.947,1.947,0,0,1,388.558,177.53Z" transform="translate(-343.04 -172.896)"/><path class="g" d="M397.744,206.123l.539-.24a8.439,8.439,0,0,1,1.266-.571c.8-.331,1.947-.759,3.167-1.214s2.375-.85,3.2-1.123a6.071,6.071,0,0,1,1.363-.37,2.554,2.554,0,0,1-.467.253l1.674-.552c0-1.35.376-2.784-.312-3.933a2.8,2.8,0,0,0-.649-.733c-3.537,1.428-8.372,3.674-11.475,4.323A18.307,18.307,0,0,1,397.744,206.123Z" transform="translate(-348.15 -180.467)"/><path class="g" d="M415.447,220.62h0L414,220.51C414.48,220.542,414.961,220.581,415.447,220.62Z" transform="translate(-354.45 -188.493)"/><path class="g" d="M361.958,190.51c.039.156.065.3.091.428l.1-.032c-.091-.234-.182-.487-.273-.766A1.392,1.392,0,0,0,361.958,190.51Z" transform="translate(-336.157 -177.834)"/><path class="g" d="M404.81,183.16Z" transform="translate(-351.225 -175.385)"/><path d="M387.832,195.136a.685.685,0,0,1,.039-.156l-.091.117Z" transform="translate(-345.247 -179.533)"/><path class="g" d="M395.179,202.615a1.689,1.689,0,0,1,.117-.61,1.893,1.893,0,0,1,.234-.435q-.344.273-.649.565C394.958,202.29,395.075,202.453,395.179,202.615Z" transform="translate(-347.739 -181.846)"/><path d="M413.374,235.264v-.091l-.6-.253Z" transform="translate(-354.018 -193.551)"/><path d="M395.356,236.29c-.513-.383-.967-.72-1.3-1l-.078.1C394.2,235.53,394.694,235.848,395.356,236.29Z" transform="translate(-347.423 -193.681)"/><path d="M395.664,253.872l.143.266.039-.1c-.766-1.3-1.636-2.817-2.505-4.264C394.262,251.36,395.066,252.814,395.664,253.872Z" transform="translate(-347.199 -198.763)"/><path class="g" d="M372.32,246.693a1.823,1.823,0,0,1,.649.72.131.131,0,0,0,.045.117,1.538,1.538,0,0,0-.292-.85Z" transform="translate(-339.821 -197.678)"/><path class="g" d="M361.75,245.48a2.947,2.947,0,0,1,.344,1.253,2.875,2.875,0,0,1,0,.409,4.892,4.892,0,0,0,.1-.6C362.243,246.123,362.126,245.584,361.75,245.48Z" transform="translate(-336.112 -197.257)"/><path d="M355.512,242.26h-.065c-.117.182-.37.519-.727.954-.032.039-.071.091-.11.13.3-.331.571-.649.811-.935Z" transform="translate(-333.606 -196.127)"/><path d="M343.473,209.72a1.5,1.5,0,0,1-.714.156l-.539-.078c.383.13.759.253,1.123.363C343.375,210.012,343.427,209.9,343.473,209.72Z" transform="translate(-329.257 -184.706)"/><path d="M354.325,193.907a6.292,6.292,0,0,1-1.006-.987l-.649-.7c.532.714,1.012,1.356,1.4,1.85Z" transform="translate(-332.925 -178.564)"/><path d="M364,190.54h.058v-.5a2.377,2.377,0,0,1-.058.5Z" transform="translate(-336.901 -177.799)"/><path d="M371.1,187.887h.247c-.032-.733-.039-2.083,0-3.667l-.214,3.414A.847.847,0,0,0,371.1,187.887Z" transform="translate(-339.393 -175.757)"/><path class="g" d="M380.073,185.092a1.688,1.688,0,0,0-.123.649c.337.11.649.227,1,.357a2.321,2.321,0,0,0,.487-.454l6.581-8.275A1.947,1.947,0,0,0,388.6,176a.291.291,0,0,0,0-.071c-1.188-.1-2.551.493-3.738.123a8.824,8.824,0,0,1-.837-.292c-.337,1.019-.9,2.6-1.551,4.336a52.86,52.86,0,0,1-2.22,5.439,50.861,50.861,0,0,1,1.9-5.556c.649-1.759,1.266-3.317,1.681-4.31a1,1,0,0,1-.143-.078l-.084.078Q381.832,180.4,380.073,185.092Zm3.427-2.713a16.612,16.612,0,0,1,1.908-2.265,10.58,10.58,0,0,1-1.642,2.473,10.866,10.866,0,0,1-2.018,2.181A16.6,16.6,0,0,1,383.5,182.379Z" transform="translate(-342.499 -172.728)"/><path class="g" d="M391.157,186.681c1.1-1.188,2.1-2.252,2.843-3.011a8.223,8.223,0,0,1,1.253-1.181,8.906,8.906,0,0,1-1.077,1.343c-.694.8-1.674,1.889-2.765,3.076s-2.1,2.259-2.843,3.011a1.3,1.3,0,0,0-.448.753l.37.286c3.8-2.246,8.158-5.088,11.54-7.594a2.784,2.784,0,0,0-1.058-.649h0c-1.09-.376-2.434-.363-3.511-.785-1.856,1.947-4.089,4.323-6.023,6.659C389.937,188.018,390.528,187.369,391.157,186.681Z" transform="translate(-345.367 -174.953)"/><path class="g" d="M402.9,194.656a7.356,7.356,0,0,1-1.3.8c-.8.467-1.908,1.1-3.115,1.837s-2.395,1.343-2.739,2.174a1.706,1.706,0,0,0-.156.8l.253.441c3.1-.649,7.938-2.895,11.475-4.323-1.077-.863-2.693-1.2-3.459-2.375l-1.136.636C402.825,194.656,402.89,194.617,402.9,194.656Zm-2.278,3.894a7.139,7.139,0,0,1-1.876.694,9.087,9.087,0,0,1,3.654-1.6,6.957,6.957,0,0,1-1.778.857Z" transform="translate(-347.987 -179.196)"/><path class="g" d="M406.915,205.708c-.8.325-1.947.753-3.174,1.214s-2.382.85-3.206,1.116a5.576,5.576,0,0,1-1.356.37h0l-.539.24a18.716,18.716,0,0,1,.428,1.947h.487c3.3-.084,8.665-.409,12.63-.649a5.672,5.672,0,0,0-.766-1.3,8.718,8.718,0,0,1-1.9-2.8,4.217,4.217,0,0,1-.143-1.071l-1.674.552Z" transform="translate(-349.059 -182.973)"/><path class="g" d="M406.256,219.818l-4.342-.331a10.5,10.5,0,0,1-1.8-.208,7.066,7.066,0,0,1,1.428-.039c-.545-.039-1.084-.071-1.629-.091h-.305a14.317,14.317,0,0,1-.11,1.59c3.407,1.3,8.437,3.063,12.364,4.5a1.947,1.947,0,0,0,.221-.85c.045-1.551-1.824-2.739-1.726-4.238-.487-.039-.967-.078-1.447-.13Z" transform="translate(-349.361 -188.016)"/><path class="g" d="M400.031,228.782l-1.791-.915-.506-.247a17.866,17.866,0,0,1-.733,1.8c3,2.3,6.938,6.335,10.274,9.255a2.842,2.842,0,0,0,1.032-.967c.8-1.415-.292-3.135-.448-4.757-1.006-.5-2.531-1.3-4.232-2.2C402.231,230.008,400.972,229.314,400.031,228.782Z" transform="translate(-348.483 -190.989)"/><path class="g" d="M399.016,239.645c-1.6-1.136-3.037-2.187-4.063-2.953-.733-.552-1.259-.954-1.486-1.162-.24.312-.487.617-.746.909a6.193,6.193,0,0,0,.8.993c2.233,2.343,5.737,6.354,8.366,9.216.61-1.012.461-2.486,1.194-3.479a2.408,2.408,0,0,1,.331-.35l-1.058-.831C401.411,241.332,400.255,240.528,399.016,239.645Z" transform="translate(-346.981 -193.765)"/><path class="g" d="M390.457,246.972c-.467-.8-.909-1.577-1.3-2.291a7.549,7.549,0,0,0-1.149-1.765,1.233,1.233,0,0,0-1.253-.279c-.305.11-.389.312-.415.286s0-.227.357-.409a1.357,1.357,0,0,1,1.357.143,10.966,10.966,0,0,0-.954-1.116c-.337.234-.681.467-1.032.681a83.381,83.381,0,0,0,4.543,13.772,1.947,1.947,0,0,0,1.506-.344c1.155-.883.681-2.739,1.077-4.128l-.26-.415C392.262,250.055,391.392,248.595,390.457,246.972Z" transform="translate(-344.647 -195.874)"/><path class="g" d="M383.105,255.046a7,7,0,0,1,.279,1.577,8.246,8.246,0,0,1-.506-1.512l-1.077-3.693c-.409-1.376-.779-2.629-1.1-3.686-.149-.526-.266-.941-.331-1.207l-.195-.454c-.169,3.7.052,8.885.305,13.045a16.7,16.7,0,0,1,3.122-2.09c-.3-1.447-.695-3-1.149-4.543C382.729,253.469,382.949,254.352,383.105,255.046Z" transform="translate(-342.559 -197.464)"/><path class="g" d="M369.133,256.6a10.687,10.687,0,0,1-.363,1.869,9.99,9.99,0,0,1,.13-1.9c.123-1.168.318-2.778.552-4.543l.351-2.505a3.823,3.823,0,0,0-.084-1.947,1.746,1.746,0,0,0-.707-.811h-1.038a.337.337,0,0,0-.071.065,3.79,3.79,0,0,0-.772,1.486c-1.129,3.342-2.259,8.327-3.388,11.923,1.337-.279,2.2-1.908,3.583-2a2.557,2.557,0,0,1,1.694.649c.11-1.1.208-2.324.312-3.563C369.27,255.762,369.2,256.21,369.133,256.6Z" transform="translate(-336.81 -197.706)"/><path class="g" d="M355.231,251.006c.4-.8.785-1.584,1.077-2.291a5.192,5.192,0,0,0,.428-1.947,3.2,3.2,0,0,0-.266-1.3,1.077,1.077,0,0,0-.649.415c-2.518,2.8-6.068,7.308-8.652,10.793,1.428.539,3.388-.376,5.069-.195.156-.286.435-.766.8-1.408C353.628,254.044,354.426,252.616,355.231,251.006Z" transform="translate(-330.995 -197.254)"/><path class="g" d="M343.458,248.146c.454-.539,1.623-1.752,2.966-3.2,1.46-1.564,2.681-2.9,3.1-3.291-.422-.279-.831-.571-1.233-.876a19.834,19.834,0,0,1-1.616,1.363,9.328,9.328,0,0,1-2.025,1.363,8.582,8.582,0,0,1,1.817-1.629c.545-.422,1.045-.785,1.415-1.032a9.5,9.5,0,0,0-2.194,1.3L338,247.906c1.337.234,2.849.292,3.686,1.3a2.407,2.407,0,0,1,.318.5C342.426,249.2,342.926,248.711,343.458,248.146Z" transform="translate(-327.776 -195.608)"/><path class="g" d="M336.52,238c1.3-.844,2.512-1.577,3.33-2.122a1.058,1.058,0,0,0,.376-.48.649.649,0,0,0,0-.454c-.084-.253-.26-.3-.247-.325s.214,0,.37.273a.811.811,0,0,1,.058.558.456.456,0,0,1-.039.11,1.558,1.558,0,0,0,.506-.545c-.208-.279-.415-.565-.617-.857a2.3,2.3,0,0,0-.779.1c-3.472.915-8.775,2.895-12.909,4.426,1.3.948,3.667.539,4.5,2a2.258,2.258,0,0,1,.2.565c1.136-.694,2.4-1.454,3.661-2.213C335.429,238.709,335.935,238.365,336.52,238Z" transform="translate(-323.764 -193.283)"/><path class="g" d="M331.253,228.537l2.226-.6c.688-.175,1.3-.312,1.8-.493a3.512,3.512,0,0,0,1.4-.922,1.063,1.063,0,0,1-.24.409,2.369,2.369,0,0,1-.526.441l.279-.1a1.519,1.519,0,0,0,.649-.376c-.117-.338-.227-.649-.324-1.019a2.3,2.3,0,0,0-.87-.156q-6.438-.227-12.877-.376c.6,1.012,1.947,1.46,2.479,2.505a2.992,2.992,0,0,1,.149,2.129l3.245-.72C329.41,229.017,330.312,228.79,331.253,228.537Z" transform="translate(-322.431 -190.192)"/><path class="g" d="M324.255,215.329a8.756,8.756,0,0,1,1.636,0c1.013.039,2.4.091,3.94.123s2.934.039,3.94.045a9.083,9.083,0,0,1,1.642.065,7.05,7.05,0,0,1-1.636.175c-.649.039-1.506.058-2.434.065a43.4,43.4,0,0,0,4.413,0h.1v-1.558l-.091-.058c-3.55-2.116-8.652-3.641-12.877-4.8a1.538,1.538,0,0,0,.993,1.662l-.091-.584a2.43,2.43,0,0,1,1,2.953,7.79,7.79,0,0,1-1.013,1.947l.987.058a1.519,1.519,0,0,1-.513-.1Zm9.086-.915a7.367,7.367,0,0,1,2.135.552,7.446,7.446,0,0,1-2.194-.214,7.289,7.289,0,0,1-2.129-.552A7.381,7.381,0,0,1,333.341,214.413Z" transform="translate(-322.468 -184.591)"/><path class="g" d="M327.057,201.023a10.386,10.386,0,0,1,1.726.746l1.344.649c1.194.513,2.44,1.032,3.654,1.512a20.036,20.036,0,0,0,3.453.915,1.3,1.3,0,0,0,.7-.117.527.527,0,0,0,.091-.078c.13-.383.266-.759.422-1.136-.6-.292-1.506-.785-2.518-1.369a18.581,18.581,0,0,1-3.063-1.947,20.584,20.584,0,0,1,3.245,1.661l1.051.649A110.938,110.938,0,0,0,326.914,196c-.208,1.22.26,2.778-.117,4.043a3.582,3.582,0,0,1-.357.766l.779.331C327.115,201.082,327.05,201.03,327.057,201.023Z" transform="translate(-323.719 -179.891)"/><path class="g" d="M336.359,189.5a7.845,7.845,0,0,1,1.175,1.064c.707.649,1.694,1.6,2.823,2.557s2.2,1.785,2.986,2.369l.266.2c.227-.312.454-.617.7-.909l-.039-.065c-.344-.409-.772-.961-1.227-1.59a11.227,11.227,0,0,1-1.545-2.557,6.16,6.16,0,0,1,.987,1.207,69.722,69.722,0,0,0-5.192-7.087,2.4,2.4,0,0,0-1.408.759c-.72.876-.454,2.252-.8,3.291.649.6,1.421,1.259,2.213,1.947A6.292,6.292,0,0,1,336.359,189.5Z" transform="translate(-326.751 -175.922)"/><path class="g" d="M348.626,184.416c1.623,2.051,2.979,3.686,2.947,3.79q.448-.305.915-.584a.3.3,0,0,0-.052-.123c-1.22-3.115-3.433-8-4.913-11.559a6.855,6.855,0,0,0-.688.357c-1.084.649-1.441,2.057-2.025,3.206.376.493.8,1.071,1.259,1.694S347.529,183.034,348.626,184.416Zm1.674-.941a12.417,12.417,0,0,1,1.051,2.1,12.131,12.131,0,0,1,.941,2.148,10.1,10.1,0,0,1-1.992-4.245Z" transform="translate(-330.166 -172.851)"/><path class="g" d="M359.393,175.805a7.646,7.646,0,0,1,.311,1.447c.156.889.37,2.129.649,3.485.234,1.188.461,2.252.649,3.1.091.279.182.532.273.766.344-.117.695-.221,1.058-.318A16.277,16.277,0,0,1,362,182.14a10.084,10.084,0,0,1-.221-2.194,5.892,5.892,0,0,1,.558,2.155c.058.428.084.831.1,1.175,0-3.355.071-7.672.065-11.085a21.836,21.836,0,0,0-1.8,2.693,1.791,1.791,0,0,1-1.337.74l.039.253C359.38,175.838,359.386,175.805,359.393,175.805Z" transform="translate(-335.273 -171.534)"/><path class="g" d="M371.912,178.949c-.032,1.889-.091,3.524-.162,4.361a7.762,7.762,0,0,1,1.3.071,10.281,10.281,0,0,0,1.428-3.589c.571-2.278,1.356-5.939,1.993-8.613a2.8,2.8,0,0,0-1.149.331c-1,.552-2.213,2.966-2.843,2.979a.824.824,0,0,1-.584-.312v.273C371.912,175.243,371.912,176.956,371.912,178.949Z" transform="translate(-339.621 -171.18)"/><path class="a" d="M400.833,208.217c.824-.266,1.947-.649,3.206-1.116s2.369-.889,3.174-1.214l.8-.344c.312-.136.48-.227.467-.253a6.069,6.069,0,0,0-1.363.37c-.824.273-1.947.649-3.2,1.123s-2.362.883-3.167,1.214a8.438,8.438,0,0,0-1.266.571h0A5.573,5.573,0,0,0,400.833,208.217Z" transform="translate(-349.357 -183.152)"/><path class="a" d="M402.261,219.3h-.383a7.064,7.064,0,0,0-1.428.039,10.5,10.5,0,0,0,1.8.208l4.342.331,2.654.195,1.447.11v-.247c-1.084-.13-2.525-.273-4.115-.4C404.915,219.4,403.4,219.326,402.261,219.3Z" transform="translate(-349.694 -188.062)"/><path class="a" d="M404.474,230.512a54.893,54.893,0,0,0-5.484-2.752,11.853,11.853,0,0,0,1.739,1.077c.941.532,2.2,1.227,3.589,1.947,1.7.909,3.245,1.7,4.232,2.2v-.253l-.6-.344C407.006,231.881,405.8,231.213,404.474,230.512Z" transform="translate(-349.182 -191.038)"/><path class="a" d="M376.323,218.36c-1.6-1.136-3.05-2.148-4.121-2.869l-.175-.123c-.649-.441-1.155-.759-1.4-.9l.078-.1a18.823,18.823,0,0,0,1.908-3.174,17.86,17.86,0,0,0,.74-1.824,18.376,18.376,0,0,0,.889-3.894c.058-.526.1-1.051.11-1.59v-.552a17.935,17.935,0,0,0-2.388-9.08l-.253-.441a1.707,1.707,0,0,1,.156-.8c.344-.831,1.551-1.421,2.739-2.174s2.317-1.369,3.115-1.837a7.352,7.352,0,0,0,1.3-.8.484.484,0,0,0-.175.045,13.171,13.171,0,0,0-1.214.545c-.837.415-1.947,1.025-3.18,1.765-.61.37-1.181.727-1.694,1.09a3.421,3.421,0,0,0-.857.844,1.9,1.9,0,0,0-.234.435,1.687,1.687,0,0,0-.117.61c-.1-.162-.2-.324-.312-.48a18.471,18.471,0,0,0-4-4.284l-.37-.286a1.3,1.3,0,0,1,.448-.753c.74-.753,1.746-1.817,2.843-3.011s2.07-2.278,2.765-3.076a8.907,8.907,0,0,0,1.077-1.343,8.221,8.221,0,0,0-1.253,1.181c-.74.759-1.746,1.824-2.843,3.011-.649.688-1.22,1.337-1.739,1.947-.383.428-.733.824-1.025,1.162a1.947,1.947,0,0,0-.4.649h0a.684.684,0,0,0-.039.156l-.052-.039a18.175,18.175,0,0,0-4.082-2.2c-.331-.13-.649-.247-1-.357a18.3,18.3,0,0,0-4.018-.8c-.435-.039-.876-.058-1.3-.071.071-.837.13-2.473.162-4.361.039-1.993,0-3.706,0-4.5a2.972,2.972,0,0,0,0-.318l-.065-.071c-.084.4-.182,2.427-.227,4.881v4.368h-.247a18.544,18.544,0,0,0-4.543.591h-.058a2.376,2.376,0,0,0,.052-.519v-.48a9.024,9.024,0,0,0-.1-1.175,5.893,5.893,0,0,0-.558-2.155,10.087,10.087,0,0,0,.221,2.194,16.277,16.277,0,0,0,.331,2.148c-.363.1-.714.2-1.058.318l-.1.032a1.954,1.954,0,0,0-.091-.428c-.039-.156-.052-.247-.078-.37-.182-.85-.409-1.915-.649-3.1-.26-1.356-.474-2.6-.649-3.485a7.644,7.644,0,0,0-.312-1.447v.071a11.116,11.116,0,0,0,.091,1.408c.1.9.273,2.155.539,3.518s.571,2.6.824,3.466c.045.162.084.305.13.441a18.081,18.081,0,0,0-3.362,1.577q-.467.279-.915.584c0-.1-1.3-1.739-2.947-3.79-1.084-1.363-2.018-2.564-2.557-3.245-.279-.344-.454-.532-.48-.513a5.575,5.575,0,0,0,.733,1.207c.493.72,1.207,1.687,2.038,2.732.565.707,1.1,1.356,1.577,1.9l.649.7a6.289,6.289,0,0,0,1.006.987l-.227.162a18.492,18.492,0,0,0-3.446,3.154c-.3-.441-.7-1.019-1.155-1.649l-.837-1.155a6.161,6.161,0,0,0-.986-1.207,11.228,11.228,0,0,0,1.545,2.557c.454.649.883,1.181,1.227,1.59l.045.052h0c-.247.292-.474.6-.7.909l-.266-.2c-.785-.584-1.85-1.408-2.986-2.369s-2.116-1.882-2.823-2.557a7.843,7.843,0,0,0-1.175-1.064,6.289,6.289,0,0,0,.961,1.181l.045.052a32.905,32.905,0,0,0,5.841,4.952l.279.182a18.177,18.177,0,0,0-1.947,3.459c-.351-.227-.824-.519-1.376-.85l-1.051-.649a20.592,20.592,0,0,0-3.245-1.661,18.579,18.579,0,0,0,3.063,1.947c1.012.584,1.947,1.077,2.518,1.369-.156.376-.292.753-.422,1.136a.525.525,0,0,1-.091.078,1.3,1.3,0,0,1-.7.117,20.033,20.033,0,0,1-3.453-.915q-.428-.149-.857-.312c-1.032-.4-1.947-.818-2.8-1.2l-1.344-.649a10.386,10.386,0,0,0-1.726-.746.993.993,0,0,0,.162.123c.24.162.746.454,1.46.837a36.641,36.641,0,0,0,4.121,1.947,19.107,19.107,0,0,0,3.894,1.077l.539.078a1.5,1.5,0,0,0,.714-.156c-.045.149-.091.292-.13.441a18.439,18.439,0,0,0-.707,4.212v1.558a18.762,18.762,0,0,0,.707,4.465c.1.344.208.681.325,1.019a18.554,18.554,0,0,0,2.09,4.167c.2.292.409.578.617.857a18.692,18.692,0,0,0,3.245,3.33l-.273.175c-.37.247-.87.61-1.415,1.032a8.581,8.581,0,0,0-1.817,1.629,9.326,9.326,0,0,0,2.025-1.363,19.854,19.854,0,0,0,1.616-1.363c.4.305.811.6,1.233.876-.422.389-1.642,1.726-3.1,3.291-1.344,1.447-2.512,2.661-2.966,3.2-.149.175-.227.279-.208.3a5.38,5.38,0,0,0,1.064-.889c.649-.591,1.46-1.421,2.356-2.375s1.564-1.739,2.1-2.388c.039-.039.078-.091.11-.13.357-.435.61-.772.727-.954h.065a18.355,18.355,0,0,0,3.381,1.707,3.29,3.29,0,0,1,.2.37,3.2,3.2,0,0,1,.266,1.3,5.191,5.191,0,0,1-.428,1.947c-.292.707-.681,1.486-1.077,2.291-.8,1.616-1.6,3.044-2.187,4.069-.37.649-.649,1.123-.8,1.408h.117c.195-.266.506-.707.889-1.3a42.908,42.908,0,0,0,2.285-4.037c.4-.818.779-1.59,1.064-2.337a5.472,5.472,0,0,0,.383-1.681,2.875,2.875,0,0,0,0-.409,2.947,2.947,0,0,0-.344-1.253,1.121,1.121,0,0,1-.065-.123c-.058-.084-.11-.149-.156-.208a18.219,18.219,0,0,0,5.757,1.123h1.038a1.746,1.746,0,0,1,.655.948,3.823,3.823,0,0,1,.084,1.947l-.351,2.505c-.234,1.778-.428,3.388-.552,4.543a9.992,9.992,0,0,0-.13,1.9,10.687,10.687,0,0,0,.363-1.869c.065-.389.136-.837.208-1.3.136-.948.292-2.044.448-3.245.11-.883.221-1.726.318-2.512a4,4,0,0,0-.13-1.986.13.13,0,0,0-.045-.117,1.823,1.823,0,0,0-.649-.72h.376a18.405,18.405,0,0,0,8.5-2.661c.351-.214.694-.448,1.032-.681a18.563,18.563,0,0,0,3.3-2.992c.26-.292.506-.6.746-.909.227.208.753.61,1.486,1.162,1.025.766,2.466,1.817,4.063,2.953,1.24.883,2.395,1.687,3.342,2.343l.779.532.344.227.182-.13-.35-.292C379.354,220.547,377.92,219.5,376.323,218.36Zm-20.418,1.155a16.18,16.18,0,1,1,16.18-16.18A16.18,16.18,0,0,1,355.905,219.515Z" transform="translate(-324.094 -172.759)"/><path class="a" d="M397.523,246.311a24.426,24.426,0,0,0-1.6-2.324,23.026,23.026,0,0,0-1.61-2.317,8.308,8.308,0,0,0,1.33,2.512A8.023,8.023,0,0,0,397.523,246.311Z" transform="translate(-347.539 -195.92)"/><path class="a" d="M390.921,247.338l-.039-.078-1.337-2.278a6.919,6.919,0,0,0-1.3-1.791,1.1,1.1,0,0,0-.1-.078,1.357,1.357,0,0,0-1.337-.169c-.331.182-.37.415-.357.409a.872.872,0,0,1,.415-.286,1.233,1.233,0,0,1,1.253.279,7.549,7.549,0,0,1,1.149,1.765c.409.714.85,1.486,1.3,2.291.935,1.623,1.8,3.083,2.447,4.134l.26.415a.9.9,0,0,1,.091-.273l-.143-.266C392.647,250.382,391.842,248.928,390.921,247.338Z" transform="translate(-344.78 -196.33)"/><path class="a" d="M381.906,251.478l1.077,3.693a8.241,8.241,0,0,0,.506,1.512,7,7,0,0,0-.279-1.577c-.156-.694-.376-1.577-.649-2.557q-.156-.565-.331-1.168c-.428-1.441-.857-2.739-1.194-3.667a6.741,6.741,0,0,0-.617-1.473,1.448,1.448,0,0,0,.058.344c.058.214.182.649.331,1.207C381.127,248.849,381.5,250.1,381.906,251.478Z" transform="translate(-342.664 -197.524)"/><path class="a" d="M376.318,251.94a6.939,6.939,0,0,0-.032,1.824,6.534,6.534,0,0,0,.143,1.817A6.763,6.763,0,0,0,376.318,251.94Z" transform="translate(-341.197 -199.524)"/><path class="a" d="M343.241,235.14c-.156-.292-.376-.286-.37-.273a.56.56,0,0,1,.247.325.648.648,0,0,1,0,.454,1.057,1.057,0,0,1-.376.48c-.818.545-2.038,1.3-3.33,2.122-.558.363-1.09.707-1.584,1.038-.649.428-1.24.831-1.72,1.155a8.118,8.118,0,0,0-1.3.993,7.786,7.786,0,0,0,1.441-.792c.87-.526,2.057-1.3,3.355-2.109s2.473-1.59,3.3-2.226a1.207,1.207,0,0,0,.363-.5.453.453,0,0,0,.039-.11A.811.811,0,0,0,343.241,235.14Z" transform="translate(-326.657 -193.531)"/><path class="a" d="M337.972,227.569c.2-.234.253-.4.24-.409a3.511,3.511,0,0,1-1.4.922c-.487.182-1.11.318-1.8.493l-2.226.6c-.941.253-1.83.5-2.6.727l-1.415.415a8.658,8.658,0,0,0-1.636.571,8.98,8.98,0,0,0,1.7-.344c1.038-.247,2.473-.649,4.05-1.045l2.22-.617a17.046,17.046,0,0,0,1.8-.578,3.893,3.893,0,0,0,.545-.292,2.37,2.37,0,0,0,.513-.441Z" transform="translate(-323.965 -190.827)"/><path class="a" d="M336.127,218.763a9.089,9.089,0,0,0-1.642-.065c-1.006,0-2.4,0-3.94-.045s-2.927-.084-3.94-.123a8.757,8.757,0,0,0-1.636,0,1.519,1.519,0,0,0,.519.117c.273.039.649.084,1.1.13,1.006.1,2.4.188,3.946.221h1.519c.928,0,1.772,0,2.434-.065A7.049,7.049,0,0,0,336.127,218.763Z" transform="translate(-323.203 -187.785)"/><path class="a" d="M337.719,217.352a7.444,7.444,0,0,0,2.194.214,14.2,14.2,0,0,0-4.323-.766A7.288,7.288,0,0,0,337.719,217.352Z" transform="translate(-326.93 -187.191)"/><path class="a" d="M355.263,191.765a12.129,12.129,0,0,0-.941-2.148,12.415,12.415,0,0,0-1.051-2.1,10.1,10.1,0,0,0,1.993,4.245Z" transform="translate(-333.135 -176.915)"/><path class="a" d="M380.39,185.565a52.855,52.855,0,0,0,2.22-5.439c.649-1.752,1.214-3.317,1.551-4.336l-.188-.091c-.415.993-1.025,2.551-1.681,4.31a50.892,50.892,0,0,0-1.9,5.556Z" transform="translate(-342.654 -172.766)"/><path class="a" d="M384.738,185.033a10.578,10.578,0,0,0,1.642-2.473,44.165,44.165,0,0,0-3.661,4.654A10.867,10.867,0,0,0,384.738,185.033Z" transform="translate(-343.472 -175.174)"/><path class="a" d="M395.018,190.738a8.748,8.748,0,0,0,2.226-1.778,19.885,19.885,0,0,0-2.408,1.493,19.678,19.678,0,0,0-2.356,1.571A9.014,9.014,0,0,0,395.018,190.738Z" transform="translate(-346.897 -177.42)"/><path class="a" d="M402.189,200.117a5.3,5.3,0,0,0-1.739,1.006,7.14,7.14,0,0,0,1.876-.694,6.959,6.959,0,0,0,1.778-.909A5.25,5.25,0,0,0,402.189,200.117Z" transform="translate(-349.694 -181.127)"/><circle class="i" cx="16.18" cy="16.18" r="16.18" transform="translate(15.63 14.395)"/><path class="a" d="M383,270.21a1.679,1.679,0,0,1,.078.389c.039.3.091.649.156,1.129.13,1.032.305,2.44.526,4.167.441,3.511,1.077,8.359,1.85,13.708s1.558,10.177,2.155,13.669c.292,1.713.526,3.115.7,4.134.078.461.136.831.182,1.129a2.421,2.421,0,0,1,.045.4,1.546,1.546,0,0,1-.11-.383c-.065-.292-.143-.649-.247-1.116-.208-.967-.48-2.375-.811-4.121-.649-3.479-1.467-8.308-2.246-13.63s-1.376-10.209-1.759-13.733c-.188-1.759-.331-3.187-.415-4.173-.039-.467-.071-.844-.091-1.142A1.662,1.662,0,0,1,383,270.21Z" transform="translate(-343.566 -205.937)"/><path class="a" d="M368.545,265c.091,0,.863,13.2,1.726,29.5s1.493,29.5,1.4,29.511-.87-13.2-1.733-29.5S368.447,265,368.545,265Z" transform="translate(-338.493 -204.108)"/><path class="a" d="M356.22,269.4a1.381,1.381,0,0,1-.045.4c-.052.292-.123.649-.208,1.11-.2,1.006-.474,2.388-.811,4.069-.727,3.472-1.713,8.191-2.81,13.4s-2.155,9.917-2.908,13.376c-.376,1.674-.688,3.05-.915,4.05-.11.441-.195.8-.266,1.09a1.7,1.7,0,0,1-.117.383,1.629,1.629,0,0,1,.052-.4c.052-.286.117-.649.2-1.11.2-1,.48-2.382.811-4.069.733-3.466,1.72-8.184,2.81-13.4s2.155-9.917,2.908-13.377c.383-1.674.694-3.05.922-4.05.1-.441.195-.8.266-1.09A2.9,2.9,0,0,1,356.22,269.4Z" transform="translate(-331.335 -205.652)"/><path class="g" d="M367.8,204.062l2.278,4.608a.785.785,0,0,0,.584.428l5.088.733a.779.779,0,0,1,.428,1.3l-3.68,3.583a.772.772,0,0,0-.221.688l.863,5.069a.772.772,0,0,1-1.123.818l-4.543-2.395a.8.8,0,0,0-.727,0l-4.543,2.395a.772.772,0,0,1-1.123-.818l.87-5.069a.779.779,0,0,0-.227-.688l-3.68-3.583a.779.779,0,0,1,.435-1.3l5.082-.733a.785.785,0,0,0,.584-.428l2.278-4.608a.772.772,0,0,1,1.376,0Z" transform="translate(-334.739 -182.573)"/><path class="g" d="M380.533,202.08l.273.883a1.24,1.24,0,0,0,.824.818l.883.279-.889.3a1.259,1.259,0,0,0-.779.772l-.312.9-.344-.941a1.259,1.259,0,0,0-.779-.753l-.85-.279.837-.286a1.22,1.22,0,0,0,.759-.727Z" transform="translate(-342.012 -182.025)"/><g class="e" transform="translate(0.339)"><path d="M380.073,185.092a1.688,1.688,0,0,0-.123.649c.337.11.649.227,1,.357a2.321,2.321,0,0,0,.487-.454l6.581-8.275A1.947,1.947,0,0,0,388.6,176a.291.291,0,0,0,0-.071c-1.188-.1-2.551.493-3.738.123a8.824,8.824,0,0,1-.837-.292c-.337,1.019-.9,2.6-1.551,4.336a52.86,52.86,0,0,1-2.22,5.439,50.861,50.861,0,0,1,1.9-5.556c.649-1.759,1.266-3.317,1.681-4.31a1,1,0,0,1-.143-.078l-.084.078Q381.832,180.4,380.073,185.092Zm3.427-2.713a16.612,16.612,0,0,1,1.908-2.265,10.58,10.58,0,0,1-1.642,2.473,10.866,10.866,0,0,1-2.018,2.181A16.6,16.6,0,0,1,383.5,182.379Z" transform="translate(-342.839 -172.728)"/><path d="M391.157,186.681c1.1-1.188,2.1-2.252,2.843-3.011a8.223,8.223,0,0,1,1.253-1.181,8.906,8.906,0,0,1-1.077,1.343c-.694.8-1.674,1.889-2.765,3.076s-2.1,2.259-2.843,3.011a1.3,1.3,0,0,0-.448.753l.37.286c3.8-2.246,8.158-5.088,11.54-7.594a2.784,2.784,0,0,0-1.058-.649h0c-1.09-.376-2.434-.363-3.511-.785-1.856,1.947-4.089,4.323-6.023,6.659C389.937,188.018,390.528,187.369,391.157,186.681Z" transform="translate(-345.706 -174.953)"/><path d="M402.9,194.656a7.356,7.356,0,0,1-1.3.8c-.8.467-1.908,1.1-3.115,1.837s-2.395,1.343-2.739,2.174a1.706,1.706,0,0,0-.156.8l.253.441c3.1-.649,7.938-2.895,11.475-4.323-1.077-.863-2.693-1.2-3.459-2.375l-1.136.636C402.825,194.656,402.89,194.617,402.9,194.656Zm-2.278,3.894a7.139,7.139,0,0,1-1.876.694,9.087,9.087,0,0,1,3.654-1.6,6.957,6.957,0,0,1-1.778.857Z" transform="translate(-348.327 -179.196)"/><path d="M406.915,205.708c-.8.325-1.947.753-3.174,1.214s-2.382.85-3.206,1.116a5.576,5.576,0,0,1-1.356.37h0l-.539.24a18.716,18.716,0,0,1,.428,1.947h.487c3.3-.084,8.665-.409,12.63-.649a5.672,5.672,0,0,0-.766-1.3,8.718,8.718,0,0,1-1.9-2.8,4.217,4.217,0,0,1-.143-1.071l-1.674.552Z" transform="translate(-349.398 -182.973)"/><path d="M406.256,219.818l-4.342-.331a10.5,10.5,0,0,1-1.8-.208,7.066,7.066,0,0,1,1.428-.039c-.545-.039-1.084-.071-1.629-.091h-.305a14.317,14.317,0,0,1-.11,1.59c3.407,1.3,8.437,3.063,12.364,4.5a1.947,1.947,0,0,0,.221-.85c.045-1.551-1.824-2.739-1.726-4.238-.487-.039-.967-.078-1.447-.13Z" transform="translate(-349.7 -188.016)"/><path d="M400.031,228.782l-1.791-.915-.506-.247a17.866,17.866,0,0,1-.733,1.8c3,2.3,6.938,6.335,10.274,9.255a2.842,2.842,0,0,0,1.032-.967c.8-1.415-.292-3.135-.448-4.757-1.006-.5-2.531-1.3-4.232-2.2C402.231,230.008,400.972,229.314,400.031,228.782Z" transform="translate(-348.823 -190.989)"/><path d="M399.016,239.645c-1.6-1.136-3.037-2.187-4.063-2.953-.733-.552-1.259-.954-1.486-1.162-.24.312-.487.617-.746.909a6.193,6.193,0,0,0,.8.993c2.233,2.343,5.737,6.354,8.366,9.216.61-1.012.461-2.486,1.194-3.479a2.408,2.408,0,0,1,.331-.35l-1.058-.831C401.411,241.332,400.255,240.528,399.016,239.645Z" transform="translate(-347.32 -193.765)"/><path d="M390.457,246.972c-.467-.8-.909-1.577-1.3-2.291a7.549,7.549,0,0,0-1.149-1.765,1.233,1.233,0,0,0-1.253-.279c-.305.11-.389.312-.415.286s0-.227.357-.409a1.357,1.357,0,0,1,1.357.143,10.966,10.966,0,0,0-.954-1.116c-.337.234-.681.467-1.032.681a83.381,83.381,0,0,0,4.543,13.772,1.947,1.947,0,0,0,1.506-.344c1.155-.883.681-2.739,1.077-4.128l-.26-.415C392.262,250.055,391.392,248.595,390.457,246.972Z" transform="translate(-344.986 -195.874)"/><path d="M383.105,255.046a7,7,0,0,1,.279,1.577,8.246,8.246,0,0,1-.506-1.512l-1.077-3.693c-.409-1.376-.779-2.629-1.1-3.686-.149-.526-.266-.941-.331-1.207l-.195-.454c-.169,3.7.052,8.885.305,13.045a16.7,16.7,0,0,1,3.122-2.09c-.3-1.447-.695-3-1.149-4.543C382.729,253.469,382.949,254.352,383.105,255.046Z" transform="translate(-342.898 -197.464)"/><path d="M369.133,256.6a10.687,10.687,0,0,1-.363,1.869,9.99,9.99,0,0,1,.13-1.9c.123-1.168.318-2.778.552-4.543l.351-2.505a3.823,3.823,0,0,0-.084-1.947,1.746,1.746,0,0,0-.707-.811h-1.038a.337.337,0,0,0-.071.065,3.79,3.79,0,0,0-.772,1.486c-1.129,3.342-2.259,8.327-3.388,11.923,1.337-.279,2.2-1.908,3.583-2a2.557,2.557,0,0,1,1.694.649c.11-1.1.208-2.324.312-3.563C369.27,255.762,369.2,256.21,369.133,256.6Z" transform="translate(-337.149 -197.706)"/><path d="M355.231,251.006c.4-.8.785-1.584,1.077-2.291a5.192,5.192,0,0,0,.428-1.947,3.2,3.2,0,0,0-.266-1.3,1.077,1.077,0,0,0-.649.415c-2.518,2.8-6.068,7.308-8.652,10.793,1.428.539,3.388-.376,5.069-.195.156-.286.435-.766.8-1.408C353.628,254.044,354.426,252.616,355.231,251.006Z" transform="translate(-331.334 -197.254)"/><path d="M343.458,248.146c.454-.539,1.623-1.752,2.966-3.2,1.46-1.564,2.681-2.9,3.1-3.291-.422-.279-.831-.571-1.233-.876a19.834,19.834,0,0,1-1.616,1.363,9.328,9.328,0,0,1-2.025,1.363,8.582,8.582,0,0,1,1.817-1.629c.545-.422,1.045-.785,1.415-1.032a9.5,9.5,0,0,0-2.194,1.3L338,247.906c1.337.234,2.849.292,3.686,1.3a2.407,2.407,0,0,1,.318.5C342.426,249.2,342.926,248.711,343.458,248.146Z" transform="translate(-328.115 -195.608)"/><path d="M336.52,238c1.3-.844,2.512-1.577,3.33-2.122a1.058,1.058,0,0,0,.376-.48.649.649,0,0,0,0-.454c-.084-.253-.26-.3-.247-.325s.214,0,.37.273a.811.811,0,0,1,.058.558.456.456,0,0,1-.039.11,1.558,1.558,0,0,0,.506-.545c-.208-.279-.415-.565-.617-.857a2.3,2.3,0,0,0-.779.1c-3.472.915-8.775,2.895-12.909,4.426,1.3.948,3.667.539,4.5,2a2.258,2.258,0,0,1,.2.565c1.136-.694,2.4-1.454,3.661-2.213C335.429,238.709,335.935,238.365,336.52,238Z" transform="translate(-324.104 -193.283)"/><path d="M331.253,228.537l2.226-.6c.688-.175,1.3-.312,1.8-.493a3.512,3.512,0,0,0,1.4-.922,1.063,1.063,0,0,1-.24.409,2.369,2.369,0,0,1-.526.441l.279-.1a1.519,1.519,0,0,0,.649-.376c-.117-.338-.227-.649-.324-1.019a2.3,2.3,0,0,0-.87-.156q-6.438-.227-12.877-.376c.6,1.012,1.947,1.46,2.479,2.505a2.992,2.992,0,0,1,.149,2.129l3.245-.72C329.41,229.017,330.312,228.79,331.253,228.537Z" transform="translate(-322.77 -190.192)"/><path d="M324.255,215.329a8.756,8.756,0,0,1,1.636,0c1.013.039,2.4.091,3.94.123s2.934.039,3.94.045a9.083,9.083,0,0,1,1.642.065,7.05,7.05,0,0,1-1.636.175c-.649.039-1.506.058-2.434.065a43.4,43.4,0,0,0,4.413,0h.1v-1.558l-.091-.058c-3.55-2.116-8.652-3.641-12.877-4.8a1.538,1.538,0,0,0,.993,1.662l-.091-.584a2.43,2.43,0,0,1,1,2.953,7.79,7.79,0,0,1-1.013,1.947l.987.058a1.519,1.519,0,0,1-.513-.1Zm9.086-.915a7.367,7.367,0,0,1,2.135.552,7.446,7.446,0,0,1-2.194-.214,7.289,7.289,0,0,1-2.129-.552A7.381,7.381,0,0,1,333.341,214.413Z" transform="translate(-322.807 -184.591)"/><path d="M327.057,201.023a10.386,10.386,0,0,1,1.726.746l1.344.649c1.194.513,2.44,1.032,3.654,1.512a20.036,20.036,0,0,0,3.453.915,1.3,1.3,0,0,0,.7-.117.527.527,0,0,0,.091-.078c.13-.383.266-.759.422-1.136-.6-.292-1.506-.785-2.518-1.369a18.581,18.581,0,0,1-3.063-1.947,20.584,20.584,0,0,1,3.245,1.661l1.051.649A110.938,110.938,0,0,0,326.914,196c-.208,1.22.26,2.778-.117,4.043a3.582,3.582,0,0,1-.357.766l.779.331C327.115,201.082,327.05,201.03,327.057,201.023Z" transform="translate(-324.058 -179.891)"/><path d="M336.359,189.5a7.845,7.845,0,0,1,1.175,1.064c.707.649,1.694,1.6,2.823,2.557s2.2,1.785,2.986,2.369l.266.2c.227-.312.454-.617.7-.909l-.039-.065c-.344-.409-.772-.961-1.227-1.59a11.227,11.227,0,0,1-1.545-2.557,6.16,6.16,0,0,1,.987,1.207,69.722,69.722,0,0,0-5.192-7.087,2.4,2.4,0,0,0-1.408.759c-.72.876-.454,2.252-.8,3.291.649.6,1.421,1.259,2.213,1.947A6.292,6.292,0,0,1,336.359,189.5Z" transform="translate(-327.09 -175.922)"/><path d="M348.626,184.416c1.623,2.051,2.979,3.686,2.947,3.79q.448-.305.915-.584a.3.3,0,0,0-.052-.123c-1.22-3.115-3.433-8-4.913-11.559a6.855,6.855,0,0,0-.688.357c-1.084.649-1.441,2.057-2.025,3.206.376.493.8,1.071,1.259,1.694S347.529,183.034,348.626,184.416Zm1.674-.941a12.417,12.417,0,0,1,1.051,2.1,12.131,12.131,0,0,1,.941,2.148,10.1,10.1,0,0,1-1.992-4.245Z" transform="translate(-330.505 -172.851)"/><path d="M359.393,175.805a7.646,7.646,0,0,1,.311,1.447c.156.889.37,2.129.649,3.485.234,1.188.461,2.252.649,3.1.091.279.182.532.273.766.344-.117.695-.221,1.058-.318A16.277,16.277,0,0,1,362,182.14a10.084,10.084,0,0,1-.221-2.194,5.892,5.892,0,0,1,.558,2.155c.058.428.084.831.1,1.175,0-3.355.071-7.672.065-11.085a21.836,21.836,0,0,0-1.8,2.693,1.791,1.791,0,0,1-1.337.74l.039.253C359.38,175.838,359.386,175.805,359.393,175.805Z" transform="translate(-335.612 -171.534)"/><path d="M371.912,178.949c-.032,1.889-.091,3.524-.162,4.361a7.762,7.762,0,0,1,1.3.071,10.281,10.281,0,0,0,1.428-3.589c.571-2.278,1.356-5.939,1.993-8.613a2.8,2.8,0,0,0-1.149.331c-1,.552-2.213,2.966-2.843,2.979a.824.824,0,0,1-.584-.312v.273C371.912,175.243,371.912,176.956,371.912,178.949Z" transform="translate(-339.961 -171.18)"/></g></g></g></svg>