<svg xmlns="http://www.w3.org/2000/svg" width="31.107" height="41.593" viewBox="0 0 31.107 41.593">
    <defs>
        <style>
            .prefix__cls-1{fill:#1c2e7a}.prefix__cls-3{fill:#a05838}.prefix__cls-4{fill:#fcad6d}.prefix__cls-5{fill:#fd995b}.prefix__cls-8{fill:#3c58a0}.prefix__cls-12{fill:#e9efff}.prefix__cls-14{fill:#ffdd40}.prefix__cls-15{fill:#ffb332}.prefix__cls-17{fill:#2a428c}
        </style>
    </defs>
    <g id="prefix__student" transform="translate(-15.348)">
        <ellipse id="prefix__Ellipse_5" cx="8.092" cy="2.358" class="prefix__cls-1" data-name="Ellipse 5" rx="8.092" ry="2.358" transform="translate(22.809 11.656)"/>
        <path id="prefix__Path_35" d="M249.068 143.486h-.406l-.207.246s4.839 2.02.354 4.466h.259c4.469 0 8.092-1.056 8.092-2.358s-3.623-2.354-8.092-2.354z" data-name="Path 35" transform="translate(-218.167 -131.83)" style="fill:#142766"/>
        <path id="prefix__Path_36" d="M166.951 153.225a7.113 7.113 0 0 0-1.681.68 16.53 16.53 0 0 0 .291 2.238 2.184 2.184 0 0 1 .681.181 4.393 4.393 0 0 1 .2-.824 3.134 3.134 0 0 1 .273-.546 1.678 1.678 0 0 0 .257-1.025c-.013-.202-.023-.443-.021-.704z" class="prefix__cls-3" data-name="Path 36" transform="translate(-141.739 -140.778)"/>
        <path id="prefix__Path_37" d="M325.735 153.225c0 .257-.007.5-.022.7a1.694 1.694 0 0 0 .256 1.034 3.147 3.147 0 0 1 .28.564 4.408 4.408 0 0 1 .195.806 1.742 1.742 0 0 1 .845-.176c.026-.9.1-1.943.124-2.245a7.127 7.127 0 0 0-1.678-.683z" class="prefix__cls-3" data-name="Path 37" transform="translate(-289.144 -140.778)"/>
        <path id="prefix__Path_38" d="M332.271 188.126a1.153 1.153 0 0 0-1.227.035 3.852 3.852 0 0 1 .012 1.135l-.324 2.357c0 .19-.006.376-.017.56.789.238 1.181-.47 1.247-.957a3.623 3.623 0 0 1 .139-.617c.21-.656.968-1.782.17-2.513z" class="prefix__cls-4" data-name="Path 38" transform="translate(-293.744 -172.692)"/>
        <path id="prefix__Path_39" d="M331.671 211.765a1.274 1.274 0 0 1-.7-.209l-.24 1.751c0 .19-.006.376-.017.56.789.238 1.181-.47 1.247-.957a3.622 3.622 0 0 1 .139-.617c.069-.214.2-.479.308-.763a1.273 1.273 0 0 1-.737.235z" class="prefix__cls-5" data-name="Path 39" transform="translate(-293.743 -194.346)"/>
        <path id="prefix__Path_40" d="M158.091 188.126a1.153 1.153 0 0 1 1.227.035 3.852 3.852 0 0 0-.012 1.135l.324 2.357c0 .19.006.376.017.56-.789.238-1.181-.47-1.247-.957a3.624 3.624 0 0 0-.139-.617c-.211-.656-.968-1.782-.17-2.513z" class="prefix__cls-4" data-name="Path 40" transform="translate(-134.815 -172.692)"/>
        <path id="prefix__Path_41" d="M161 209.263a1.275 1.275 0 0 1-1.526-.316c.125.363.3.707.386.973a3.614 3.614 0 0 1 .139.617c.066.486.458 1.195 1.247.957-.011-.183-.017-.37-.017-.56z" class="prefix__cls-5" data-name="Path 41" transform="translate(-136.411 -191.973)"/>
        <path id="prefix__Path_42" d="M192.012 305.7l1.473-2.006q-.477-.14-.97-.254a5.233 5.233 0 0 1-1.024-3.327 8.7 8.7 0 0 1-1.255 1.2 4.6 4.6 0 0 1-5.631 0 8.7 8.7 0 0 1-1.255-1.2 5.233 5.233 0 0 1-1.024 3.327q-.493.114-.969.254l1.472 2.006z" class="prefix__cls-4" data-name="Path 42" transform="translate(-156.52 -275.737)"/>
        <path id="prefix__Path_43" d="M185.4 304.772a.5.5 0 0 0 .347-.189 6.7 6.7 0 0 0 1.129-2.335 4.586 4.586 0 0 1-2.273-.93 8.7 8.7 0 0 1-1.255-1.2 5.233 5.233 0 0 1-1.024 3.327q-.493.114-.969.254l1.472 2.006h1.347a1.636 1.636 0 0 1 1.226-.933z" class="prefix__cls-5" data-name="Path 43" transform="translate(-156.519 -275.738)"/>
        <path id="prefix__Path_44" d="M210.437 383.814l2.921 3.979a.969.969 0 0 0 1.562 0l2.921-3.979z" data-name="Path 44" transform="translate(-183.237 -352.634)" style="fill:#bec8f7"/>
        <path id="prefix__Path_45" d="M188.213 146.99a1.694 1.694 0 0 1-.256-1.034c.015-.2.025-.439.022-.7a23.964 23.964 0 0 0-11.534 0c0 .261.008.5.022.7a1.677 1.677 0 0 1-.257 1.025 3.131 3.131 0 0 0-.273.546 3.77 3.77 0 0 0-.213 1.88l.324 2.358a8.661 8.661 0 0 0 3.348 6.888 4.6 4.6 0 0 0 5.631 0 8.662 8.662 0 0 0 3.348-6.888l.324-2.357a3.771 3.771 0 0 0-.206-1.863 3.134 3.134 0 0 0-.28-.564z" data-name="Path 45" transform="translate(-151.311 -132.813)" style="fill:#f9ba8f"/>
        <path id="prefix__Path_46" d="M183.448 159.213a9.342 9.342 0 0 1-3.348-7.286l-.324-2.494a4.2 4.2 0 0 1 .213-1.989 3.394 3.394 0 0 1 .273-.578 1.855 1.855 0 0 0 .257-1.084c-.012-.167-.02-.359-.022-.567a18.875 18.875 0 0 0-4.051.651c0 .261.008.5.022.7a1.677 1.677 0 0 1-.257 1.025 3.133 3.133 0 0 0-.273.546 3.77 3.77 0 0 0-.213 1.88l.324 2.358a8.662 8.662 0 0 0 3.348 6.888 4.6 4.6 0 0 0 4.867.48 4.535 4.535 0 0 1-.816-.53z" class="prefix__cls-4" data-name="Path 46" transform="translate(-151.312 -133.419)"/>
        <path id="prefix__Path_47" d="M95.651 401.491a5.907 5.907 0 0 0-1.357-1.624l-13.367 8.109a1.628 1.628 0 0 1-1.659 0L65.9 399.867a5.908 5.908 0 0 0-1.357 1.624 19.9 19.9 0 0 0 31.107 0z" class="prefix__cls-8" data-name="Path 47" transform="translate(-49.196 -367.383)"/>
        <path id="prefix__Path_48" d="M70.514 403.079a.5.5 0 0 0 .157-.317l-4.771-2.894a5.908 5.908 0 0 0-1.357 1.624 20.012 20.012 0 0 0 4.971 4.439 4.066 4.066 0 0 1 1-2.852z" class="prefix__cls-1" data-name="Path 48" transform="translate(-49.196 -367.384)"/>
        <path id="prefix__Path_49" d="M236.765 365.329a.745.745 0 0 1 .041-.6h-2.956a.746.746 0 0 1 .041.6 4.929 4.929 0 0 1-.414.869l.882 1.188h1.9l.906-1.22a4.934 4.934 0 0 1-.4-.837z" data-name="Path 49" transform="translate(-204.405 -335.1)" style="fill:#e80054"/>
        <path id="prefix__Path_50" d="M239.313 397.434h-1.9l-.612 1.812.778 1.061a.969.969 0 0 0 1.562 0l.779-1.061z" data-name="Path 50" transform="translate(-207.464 -365.148)" style="fill:#ff7186"/>
        <path id="prefix__Path_51" d="M237.767 400.472l.481-1.425a1.039 1.039 0 0 1 .985-.707h.386l-.306-.907h-1.9l-.612 1.812.778 1.061a.966.966 0 0 0 .217.213z" data-name="Path 51" transform="translate(-207.464 -365.147)" style="fill:#ff4155"/>
        <path id="prefix__Path_52" d="M273.3 332.53l2.858-3.893c.04-.373.054-.614.054-.614l-.941-1.165a.634.634 0 0 0-.951-.04l-2.613 2.732a.745.745 0 0 0-.162.768 4.154 4.154 0 0 0 1.755 2.212z" class="prefix__cls-12" data-name="Path 52" transform="translate(-239.341 -300.089)"/>
        <path id="prefix__Path_53" d="M185.437 332.548a4.14 4.14 0 0 0 1.785-2.229.745.745 0 0 0-.162-.768l-2.613-2.732a.634.634 0 0 0-.951.04l-.984 1.165s.016.244.06.622z" class="prefix__cls-12" data-name="Path 53" transform="translate(-157.582 -300.089)"/>
        <path id="prefix__Path_54" d="M186.464 329.124a.508.508 0 0 0 .151-.039l-2.167-2.266a.634.634 0 0 0-.951.04l-.984 1.165s.016.244.06.622l1.976 2.692a.505.505 0 0 0 .3-.33c.451-1.581 1.251-1.848 1.615-1.884z" data-name="Path 54" transform="translate(-157.582 -300.09)" style="fill:#d3dcfb"/>
        <path id="prefix__Path_55" d="M104.976 374.023a5.626 5.626 0 0 0-.818-.409l-.936-.347-11.646 8.044a1.343 1.343 0 0 1-1.526 0L78.445 373.3l-1.535.58q-.135.072-.264.151a.927.927 0 0 0 .011 1.581l13.327 8.085a1.6 1.6 0 0 0 1.659 0l13.327-8.084a.927.927 0 0 0 .007-1.584z" class="prefix__cls-14" data-name="Path 55" transform="translate(-59.912 -342.944)"/>
        <path id="prefix__Path_56" d="M82.66 376.525l-4.215-2.911-1.535.58q-.135.072-.264.151a.927.927 0 0 0 .011 1.581l4.7 2.85a.53.53 0 0 0 .036-.215 2.634 2.634 0 0 1 1.267-2.036z" class="prefix__cls-15" data-name="Path 56" transform="translate(-59.912 -343.263)"/>
        <path id="prefix__Path_57" d="M115.258 350.933a.969.969 0 0 1-1.562 0l-5.189-7.069-6.544 2.472 11.75 8.116a1.343 1.343 0 0 0 1.526 0l11.792-8.145-6.585-2.443z" class="prefix__cls-15" data-name="Path 57" transform="translate(-83.576 -315.93)"/>
        <path id="prefix__Path_58" d="M106.219 349.276a14.764 14.764 0 0 1 4.291-2.084.509.509 0 0 0 .279-.218l-2.281-3.108-6.544 2.471z" data-name="Path 58" transform="translate(-83.576 -315.931)" style="fill:#ff9100"/>
        <g id="prefix__Group_7" data-name="Group 7" transform="translate(17.993)">
            <path id="prefix__Path_59" d="M122.153 5.279L111.079.231a2.566 2.566 0 0 0-2.129 0L97.877 5.279a1.316 1.316 0 0 0 0 2.395l4.242 1.934V8.455c0-.52.833-1.073 2.229-1.479a23.836 23.836 0 0 1 11.334 0c1.4.407 2.229.96 2.229 1.479v1.153l4.242-1.934a1.316 1.316 0 0 0 0-2.395z" class="prefix__cls-8" data-name="Path 59" transform="translate(-97.107)"/>
        </g>
        <path id="prefix__Path_60" d="M97.877 7.9a1.316 1.316 0 0 0 0 2.395l4.242 1.934v-1.158c0-.52.833-1.073 2.229-1.479a20.424 20.424 0 0 1 5.029-.675 3.686 3.686 0 0 1 .638-.2c-4.467-2.371-1.065-5.865-1.065-5.865z" class="prefix__cls-17" data-name="Path 60" transform="translate(-79.114 -2.617)"/>
        <path id="prefix__Path_61" d="M164.483 75.043c-4.469 0-8.092 1.056-8.092 2.358v5.56h.042c.416-1.189 3.861-2.117 8.05-2.117s7.634.928 8.05 2.117h.042V77.4c0-1.3-3.623-2.357-8.092-2.357z" class="prefix__cls-17" data-name="Path 61" transform="translate(-133.582 -68.947)"/>
        <path id="prefix__Path_62" d="M164.483 75.043c-4.469 0-8.092 1.056-8.092 2.358v5.56h.042c.4-1.13 3.529-2.024 7.437-2.109a1.385 1.385 0 0 1-.884-1.269v-3.418c0-.822 1.497-1.122 1.497-1.122z" class="prefix__cls-1" data-name="Path 62" transform="translate(-133.582 -68.947)"/>
        <g id="prefix__Group_8" data-name="Group 8" transform="translate(34.952 12.567)">
            <path id="prefix__Path_63" d="M306.637 159.275a.775.775 0 0 1-.775-.775v-3.032a.775.775 0 0 1 1.55 0v3.032a.775.775 0 0 1-.775.775z" class="prefix__cls-14" data-name="Path 63" transform="translate(-305.862 -154.694)"/>
        </g>
        <path id="prefix__Path_64" d="M306.637 154.694a.775.775 0 0 0-.775.775v2.291a.775.775 0 0 1 1.55 0v-2.291a.775.775 0 0 0-.775-.775z" class="prefix__cls-15" data-name="Path 64" transform="translate(-270.91 -142.127)"/>
        <g id="prefix__Group_9" data-name="Group 9" transform="translate(35.145 .074)">
            <path id="prefix__Path_65" d="M308.827 12.291a.581.581 0 0 1-.581-.581V1.492a.581.581 0 0 1 1.162 0V11.71a.581.581 0 0 1-.581.581z" class="prefix__cls-14" data-name="Path 65" transform="translate(-308.246 -.911)"/>
        </g>
        <path id="prefix__Path_66" d="M299.741 132.641a1.519 1.519 0 1 1-1.519-1.519 1.519 1.519 0 0 1 1.519 1.519z" class="prefix__cls-15" data-name="Path 66" transform="translate(-262.495 -120.47)"/>
        <circle id="prefix__Ellipse_6" cx=".65" cy=".65" r=".65" class="prefix__cls-14" data-name="Ellipse 6" transform="translate(35.382 11.037)"/>
    </g>
</svg>
