<svg xmlns="http://www.w3.org/2000/svg" width="63.612" height="42.408" viewBox="0 0 63.612 42.408"><defs><style>.a{fill:#fff;}</style></defs><path class="a" d="M11.485,42.408h-5.3a.9.9,0,0,1-.884-.994L6.9,29.459A3.519,3.519,0,0,1,7.1,23.44,17.2,17.2,0,0,1,9.8,14.329L.607,11.458a.908.908,0,0,1,0-1.713L31.529.028a1.384,1.384,0,0,1,.552,0L63,9.746a.907.907,0,0,1,0,1.713L32.081,21.177a1.434,1.434,0,0,1-.552,0l-18-5.688a6.781,6.781,0,0,0-1.959,3.078,17.623,17.623,0,0,0-.939,4.928,3.259,3.259,0,0,1,1.74,3.009,3.349,3.349,0,0,1-1.6,2.954l1.6,11.955a.9.9,0,0,1-.884.994Zm20.32-7.068a39.666,39.666,0,0,1-8.917-.952A19.263,19.263,0,0,1,16.4,31.806c-1.575-1.08-2.337-2.269-2.264-3.534l.5-8.725,15.848,5a4.628,4.628,0,0,0,2.65,0l15.848-5,.5,8.725c.073,1.264-.688,2.452-2.264,3.534a19.264,19.264,0,0,1-6.488,2.582A39.67,39.67,0,0,1,31.805,35.34Z"/></svg>